<?xml version="1.0" encoding="utf-8"?>
<!-- Generator: Adobe Illustrator 18.0.0, SVG Export Plug-In . SVG Version: 6.00 Build 0)  -->
<!DOCTYPE svg PUBLIC "-//W3C//DTD SVG 1.1//EN" "http://www.w3.org/Graphics/SVG/1.1/DTD/svg11.dtd">
<svg version="1.1" xmlns="http://www.w3.org/2000/svg" xmlns:xlink="http://www.w3.org/1999/xlink" x="0px" y="0px"
	 viewBox="0 0 48 48" enable-background="new 0 0 48 48" xml:space="preserve">
<g id="Layer_1">
</g>
<g id="piano">
</g>
<g id="chimes">
</g>
<g id="marimba">
</g>
<g id="trom">
</g>
<g id="drum">
</g>
<g id="cult-drums">
</g>
<g id="keboard-l">
</g>
<g id="cello">
</g>
<g id="jack-2">
</g>
<g id="jack">
</g>
<g id="ear_1_">
</g>
<g id="ear">
</g>
<g id="ear-sound">
</g>
<g id="earwave_-alpha">
</g>
<g id="ear-wave-r">
</g>
<g id="instrument-2">
</g>
<g id="ear-r">
</g>
<g id="ear-l">
</g>
<g id="ear-wave">
</g>
<g id="microphone-5">
</g>
<g id="microphone-4">
</g>
<g id="microphone-3">
</g>
<g id="small-speaker">
</g>
<g id="line-visuals">
</g>
<g id="keyboard-1">
</g>
<g id="wave-top">
</g>
<g id="wave-r">
</g>
<g id="wave">
</g>
<g id="instrument">
</g>
<g id="headphone-mic">
</g>
<g id="headphone">
</g>
<g id="music-note5">
	<path fill="none" stroke="#1F1F1F" stroke-width="2" stroke-linecap="round" stroke-linejoin="round" stroke-miterlimit="10" d="
		M13.4238539,39.2477455c0.8173361,2.3569527-1.0341568,5.3182755-4.1354256,6.6142998s-6.2779245,0.4359741-7.0952606-1.9209747
		c-0.817336-2.3569527,1.034157-5.3182716,4.1354251-6.6142998C9.4298611,36.0307465,12.6065178,36.8907967,13.4238539,39.2477455z"
		/>
	<path fill="none" stroke="#1F1F1F" stroke-width="2" stroke-linecap="round" stroke-linejoin="round" stroke-miterlimit="10" d="
		M13.4238539,39.2477455c0.8173361,2.3569527-1.0341568,5.3182755-4.1354256,6.6142998s-6.2779245,0.4359741-7.0952606-1.9209747
		c-0.817336-2.3569527,1.034157-5.3182716,4.1354251-6.6142998C9.4298611,36.0307465,12.6065178,36.8907967,13.4238539,39.2477455z"
		/>
	
		<line fill="none" stroke="#1F1F1F" stroke-width="2" stroke-linecap="round" stroke-linejoin="round" stroke-miterlimit="10" x1="29" y1="34" x2="29" y2="10"/>
	<path fill="none" stroke="#1F1F1F" stroke-width="2" stroke-linecap="round" stroke-linejoin="round" stroke-miterlimit="10" d="
		M28.6153431,33.361824c0.8173351,2.3569489-1.0341568,5.3182716-4.1354256,6.614296s-6.2779236,0.4359779-7.0952606-1.9209747
		c-0.8173351-2.3569489,1.0341568-5.3182716,4.1354256-6.6142979S27.7980061,31.0048714,28.6153431,33.361824z"/>
	
		<line fill="none" stroke="#1F1F1F" stroke-width="2" stroke-linecap="round" stroke-linejoin="round" stroke-miterlimit="10" x1="29" y1="34" x2="29" y2="10"/>
	<path fill="none" stroke="#1F1F1F" stroke-width="2" stroke-linecap="round" stroke-linejoin="round" stroke-miterlimit="10" d="
		M28.6153431,33.361824c0.8173351,2.3569489-1.0341568,5.3182716-4.1354256,6.614296s-6.2779236,0.4359779-7.0952606-1.9209747
		c-0.8173351-2.3569489,1.0341568-5.3182716,4.1354256-6.6142979S27.7980061,31.0048714,28.6153431,33.361824z"/>
	
		<line fill="none" stroke="#1F1F1F" stroke-width="2" stroke-linecap="round" stroke-linejoin="round" stroke-miterlimit="10" x1="44" y1="26" x2="44" y2="2"/>
	<path fill="none" stroke="#1F1F1F" stroke-width="2" stroke-linecap="round" stroke-linejoin="round" stroke-miterlimit="10" d="
		M43.8068314,25.5139236c0.817337,2.3569508-1.0341568,5.3182716-4.1354256,6.614296
		c-3.1012688,1.2960281-6.2779236,0.4359779-7.0952606-1.9209728c-0.8173351-2.3569508,1.0341568-5.3182735,4.1354256-6.6142998
		C39.8128395,22.2969227,42.9894981,23.1569729,43.8068314,25.5139236z"/>
	<path fill="none" stroke="#1F1F1F" stroke-width="2" stroke-linecap="round" stroke-linejoin="round" stroke-miterlimit="10" d="
		M44,26V2.0436132c0,0-1.5833321-2.6529481-11,4.3910866c-6.5561371,4.9042463-13.1930618,7.2365551-16.6203136,8.2009869
		C14.9685192,15.0327902,14,16.3173084,14,17.7832832V40"/>
	<path fill="none" stroke="#1F1F1F" stroke-width="2" stroke-linecap="round" stroke-linejoin="round" stroke-miterlimit="10" d="
		M43.8068314,25.5139236c0.817337,2.3569508-1.0341568,5.3182716-4.1354256,6.614296
		c-3.1012688,1.2960281-6.2779236,0.4359779-7.0952606-1.9209728c-0.8173351-2.3569508,1.0341568-5.3182735,4.1354256-6.6142998
		C39.8128395,22.2969227,42.9894981,23.1569729,43.8068314,25.5139236z"/>
</g>
<g id="music-note-4">
</g>
<g id="music-note-3">
</g>
<g id="music-note-2">
</g>
<g id="music-note-1">
</g>
<g id="music-note">
</g>
<g id="level-music">
</g>
<g id="visual-graph">
</g>
<g id="cover-3">
</g>
<g id="cd-cover-2">
</g>
<g id="cd-cover">
</g>
<g id="cd">
</g>
<g id="block">
</g>
<g id="sound2">
</g>
<g id="sound1">
</g>
<g id="sound">
</g>
<g id="microphone-2">
</g>
<g id="microphone">
</g>
</svg>
