<?xml version="1.0" encoding="utf-8"?>
<!-- Generator: Adobe Illustrator 18.0.0, SVG Export Plug-In . SVG Version: 6.00 Build 0)  -->
<!DOCTYPE svg PUBLIC "-//W3C//DTD SVG 1.1//EN" "http://www.w3.org/Graphics/SVG/1.1/DTD/svg11.dtd">
<svg version="1.1" xmlns="http://www.w3.org/2000/svg" xmlns:xlink="http://www.w3.org/1999/xlink" x="0px" y="0px"
	 viewBox="0 0 48 48" enable-background="new 0 0 48 48" xml:space="preserve">
<g id="Layer_1">
</g>
<g id="piano">
</g>
<g id="chimes">
</g>
<g id="marimba">
</g>
<g id="trom">
</g>
<g id="drum">
</g>
<g id="cult-drums">
</g>
<g id="keboard-l">
</g>
<g id="cello">
</g>
<g id="jack-2">
</g>
<g id="jack">
	<g>
		<path fill="none" stroke="#000000" stroke-width="2" stroke-miterlimit="10" d="M26,18V7l-0.2774048-1
			c0.2627678-0.4514174,0.3706398-1.0046225,0.1827946-1.6021948c-0.2200012-0.6998658-0.8400955-1.2498157-1.5638962-1.3695099
			C23.0861073,2.820693,22,3.7834575,22,5c0,0.3661499,0.1055908,0.704834,0.2774048,1L22,7v11h-2.8578167
			c-0.6047897,0-1.0711594,0.5326805-0.9912281,1.132164l1.386198,10.3964901C19.8021164,31.5158787,21.4972553,33,23.5020657,33
			h0.9958687c2.0048103,0,3.6999493-1.4841213,3.9649124-3.4713459l1.386198-10.3964901
			C29.9289761,18.5326805,29.4626064,18,28.8578167,18H26z"/>
		<path fill="none" stroke="#000000" stroke-width="2" stroke-miterlimit="10" d="M24,33c0,0-0.8808041,5.5934448,4,8
			c5.5537834,2.7383804,12.0292168,1.6175308,15,5"/>
		
			<line fill="none" stroke="#000000" stroke-width="2" stroke-linecap="round" stroke-miterlimit="10" x1="22" y1="18" x2="26" y2="18"/>
	</g>
</g>
<g id="ear_1_">
</g>
<g id="ear">
</g>
<g id="ear-sound">
</g>
<g id="earwave_-alpha">
</g>
<g id="ear-wave-r">
</g>
<g id="instrument-2">
</g>
<g id="ear-r">
</g>
<g id="ear-l">
</g>
<g id="ear-wave">
</g>
<g id="microphone-5">
</g>
<g id="microphone-4">
</g>
<g id="microphone-3">
</g>
<g id="small-speaker">
</g>
<g id="line-visuals">
</g>
<g id="keyboard-1">
</g>
<g id="wave-top">
</g>
<g id="wave-r">
</g>
<g id="wave">
</g>
<g id="instrument">
</g>
<g id="headphone-mic">
</g>
<g id="headphone">
</g>
<g id="music-note5">
</g>
<g id="music-note-4">
</g>
<g id="music-note-3">
</g>
<g id="music-note-2">
</g>
<g id="music-note-1">
</g>
<g id="music-note">
</g>
<g id="level-music">
</g>
<g id="visual-graph">
</g>
<g id="cover-3">
</g>
<g id="cd-cover-2">
</g>
<g id="cd-cover">
</g>
<g id="cd">
</g>
<g id="block">
</g>
<g id="sound2">
</g>
<g id="sound1">
</g>
<g id="sound">
</g>
<g id="microphone-2">
</g>
<g id="microphone">
</g>
</svg>
