<?xml version="1.0" encoding="utf-8"?>
<!-- Generator: Adobe Illustrator 18.0.0, SVG Export Plug-In . SVG Version: 6.00 Build 0)  -->
<!DOCTYPE svg PUBLIC "-//W3C//DTD SVG 1.1//EN" "http://www.w3.org/Graphics/SVG/1.1/DTD/svg11.dtd">
<svg version="1.1" xmlns="http://www.w3.org/2000/svg" xmlns:xlink="http://www.w3.org/1999/xlink" x="0px" y="0px"
	 viewBox="0 0 48 48" enable-background="new 0 0 48 48" xml:space="preserve">
<g id="Layer_1">
</g>
<g id="piano">
</g>
<g id="chimes">
</g>
<g id="marimba">
</g>
<g id="trom">
</g>
<g id="drum">
</g>
<g id="cult-drums">
</g>
<g id="keboard-l">
</g>
<g id="cello">
</g>
<g id="jack-2">
</g>
<g id="jack">
</g>
<g id="ear_1_">
</g>
<g id="ear">
</g>
<g id="ear-sound">
</g>
<g id="earwave_-alpha">
</g>
<g id="ear-wave-r">
</g>
<g id="instrument-2">
</g>
<g id="ear-r">
</g>
<g id="ear-l">
</g>
<g id="ear-wave">
</g>
<g id="microphone-5">
</g>
<g id="microphone-4">
</g>
<g id="microphone-3">
	<path fill="none" stroke="#1F1F1F" stroke-width="2" stroke-linecap="round" stroke-linejoin="round" stroke-miterlimit="10" d="
		M26,12c0-5.8978806-5.1057949-10.6031513-11.1383533-9.937005c-4.6529684,0.5138049-8.4022541,4.3514366-8.8201904,9.0139933
		c-0.3086939,3.4438314,1.1301303,6.5669441,3.5300117,8.5830956c1.0503435,0.8823986,1.7431831,2.1156044,1.8571062,3.4826717
		l1.3223419,15.8679943C12.8917189,40.7003708,14.3041563,42,15.9996338,42h0.0007324
		c1.6954765,0,3.1079159-1.2996292,3.2487183-2.9892502l1.3226147-15.8712864
		c0.112381-1.3485584,0.7770844-2.5814323,1.8176193-3.4466057C24.5954285,17.8585434,26,15.0933018,26,12z"/>
	
		<line fill="none" stroke="#1F1F1F" stroke-width="2" stroke-linecap="round" stroke-linejoin="round" stroke-miterlimit="10" x1="16" y1="27" x2="16" y2="32"/>
	<circle fill="#1F1F1F" cx="16" cy="5" r="1"/>
	<circle fill="#1F1F1F" cx="19" cy="5" r="1"/>
	<circle fill="#1F1F1F" cx="13" cy="5" r="1"/>
	<circle fill="#1F1F1F" cx="16" cy="8" r="1"/>
	<circle fill="#1F1F1F" cx="19" cy="8" r="1"/>
	<circle fill="#1F1F1F" cx="13" cy="8" r="1"/>
	<circle fill="#1F1F1F" cx="16" cy="11" r="1"/>
	<circle fill="#1F1F1F" cx="19" cy="11" r="1"/>
	<circle fill="#1F1F1F" cx="13" cy="11" r="1"/>
	<circle fill="#1F1F1F" cx="16" cy="14" r="1"/>
	<circle fill="#1F1F1F" cx="19" cy="14" r="1"/>
	<circle fill="#1F1F1F" cx="13" cy="14" r="1"/>
	<circle fill="#1F1F1F" cx="16" cy="17" r="1"/>
	<circle fill="#1F1F1F" cx="19" cy="17" r="1"/>
	<circle fill="#1F1F1F" cx="22" cy="8" r="1"/>
	<circle fill="#1F1F1F" cx="22" cy="11" r="1"/>
	<circle fill="#1F1F1F" cx="22" cy="14" r="1"/>
	<circle fill="#1F1F1F" cx="10" cy="8" r="1"/>
	<circle fill="#1F1F1F" cx="10" cy="11" r="1"/>
	<circle fill="#1F1F1F" cx="10" cy="14" r="1"/>
	<circle fill="#1F1F1F" cx="7" cy="11" r="1"/>
	<circle fill="#1F1F1F" cx="7" cy="14" r="1"/>
	<circle fill="#1F1F1F" cx="25" cy="11" r="1"/>
	<circle fill="#1F1F1F" cx="25" cy="14" r="1"/>
	<circle fill="#1F1F1F" cx="13" cy="17" r="1"/>
	<circle fill="#1F1F1F" cx="16" cy="20" r="1"/>
	<circle fill="#1F1F1F" cx="19" cy="20" r="1"/>
	<circle fill="#1F1F1F" cx="13" cy="20" r="1"/>
	<circle fill="#1F1F1F" cx="10" cy="17" r="1"/>
	<circle fill="#1F1F1F" cx="22" cy="17" r="1"/>
	
		<line fill="none" stroke="#1F1F1F" stroke-width="2" stroke-linecap="round" stroke-linejoin="round" stroke-miterlimit="10" x1="12" y1="23" x2="20" y2="23"/>
	<path fill="none" stroke="#1F1F1F" stroke-width="2" stroke-linecap="round" stroke-linejoin="round" stroke-miterlimit="10" d="
		M16.0003662,42c0,0,0.2496338,5.4166679,8.9996338,4c7.0193253-1.1364632,12.5-10.4166679,20-5"/>
</g>
<g id="small-speaker">
</g>
<g id="line-visuals">
</g>
<g id="keyboard-1">
</g>
<g id="wave-top">
</g>
<g id="wave-r">
</g>
<g id="wave">
</g>
<g id="instrument">
</g>
<g id="headphone-mic">
</g>
<g id="headphone">
</g>
<g id="music-note5">
</g>
<g id="music-note-4">
</g>
<g id="music-note-3">
</g>
<g id="music-note-2">
</g>
<g id="music-note-1">
</g>
<g id="music-note">
</g>
<g id="level-music">
</g>
<g id="visual-graph">
</g>
<g id="cover-3">
</g>
<g id="cd-cover-2">
</g>
<g id="cd-cover">
</g>
<g id="cd">
</g>
<g id="block">
</g>
<g id="sound2">
</g>
<g id="sound1">
</g>
<g id="sound">
</g>
<g id="microphone-2">
</g>
<g id="microphone">
</g>
</svg>
