<?xml version="1.0" encoding="utf-8"?>
<!-- Generator: Adobe Illustrator 18.0.0, SVG Export Plug-In . SVG Version: 6.00 Build 0)  -->
<!DOCTYPE svg PUBLIC "-//W3C//DTD SVG 1.1//EN" "http://www.w3.org/Graphics/SVG/1.1/DTD/svg11.dtd">
<svg version="1.1" xmlns="http://www.w3.org/2000/svg" xmlns:xlink="http://www.w3.org/1999/xlink" x="0px" y="0px"
	 viewBox="0 0 48 48" enable-background="new 0 0 48 48" xml:space="preserve">
<g id="Layer_1">
</g>
<g id="piano">
</g>
<g id="chimes">
</g>
<g id="marimba">
</g>
<g id="trom">
</g>
<g id="drum">
</g>
<g id="cult-drums">
</g>
<g id="keboard-l">
</g>
<g id="cello">
	<path fill="none" stroke="#000000" stroke-width="2" stroke-linecap="round" stroke-miterlimit="10" d="M28.3666,30.8927765
		c0.5141258-0.4221497,0.9878101-0.9187088,1.4068794-1.4902287c2.095108-2.857275,2.0069466-6.8823776-0.2003765-9.6538792
		c-3.0323868-3.8074455-8.5952301-4.0402508-11.9370632-0.6984158c-0.1897278,0.1897259-0.367815,0.3866272-0.5342941,0.5898247
		c-1.7165298,2.0951385-3.9786196,3.6471272-6.5935841,4.3528442c-2.2121754,0.5970154-4.2738643,1.8962135-5.8325963,3.9009457
		c-3.0674987,3.9452019-3.0266492,9.6367226,0.0915966,13.5419388c4.1715503,5.22435,11.812706,5.5406761,16.4044113,0.9489708
		c1.4288311-1.428833,2.3806877-3.1527176,2.8574333-4.9754677C24.7077236,34.8143616,26.2936325,32.5948944,28.3666,30.8927765z"/>
	
		<circle fill="none" stroke="#000000" stroke-width="2" stroke-linecap="round" stroke-miterlimit="10" cx="23.2928925" cy="24.7070923" r="3"/>
	<path fill="none" stroke="#000000" stroke-width="2" stroke-linecap="round" stroke-miterlimit="10" d="M27.5355339,17.6360378
		L39.5563507,5.615222c0.7810478-0.7810478,2.0473747-0.7810478,2.8284225,0l0.0000038,0.0000029
		c0.7810478,0.7810478,0.7810478,2.0473766,0,2.8284245L30.3639603,20.4644661"/>
	
		<line fill="none" stroke="#000000" stroke-width="2" stroke-linecap="round" stroke-miterlimit="10" x1="31.0710678" y1="9.8578644" x2="32.4852829" y2="11.2720776"/>
	
		<line fill="none" stroke="#000000" stroke-width="2" stroke-linecap="round" stroke-miterlimit="10" x1="33.8994942" y1="7.0294371" x2="35.3137093" y2="8.4436502"/>
	
		<line fill="none" stroke="#000000" stroke-width="2" stroke-linecap="round" stroke-miterlimit="10" x1="36.7279205" y1="4.2010098" x2="38.1421356" y2="5.6152234"/>
	
		<line fill="none" stroke="#000000" stroke-width="2" stroke-linecap="round" stroke-miterlimit="10" x1="36.7279205" y1="15.5147181" x2="38.1421356" y2="16.9289322"/>
	
		<line fill="none" stroke="#000000" stroke-width="2" stroke-linecap="round" stroke-miterlimit="10" x1="39.5563507" y1="12.6862907" x2="40.970562" y2="14.1005049"/>
	
		<line fill="none" stroke="#000000" stroke-width="2" stroke-linecap="round" stroke-miterlimit="10" x1="42.3847771" y1="9.8578644" x2="43.7989883" y2="11.2720776"/>
	
		<rect x="7.6862946" y="33.3137207" transform="matrix(0.7071068 0.7071068 -0.7071068 0.7071068 28.6863022 1.3725848)" fill="none" stroke="#000000" stroke-width="2" stroke-linecap="round" stroke-linejoin="round" stroke-miterlimit="10" width="10" height="4"/>
</g>
<g id="jack-2">
</g>
<g id="jack">
</g>
<g id="ear_1_">
</g>
<g id="ear">
</g>
<g id="ear-sound">
</g>
<g id="earwave_-alpha">
</g>
<g id="ear-wave-r">
</g>
<g id="instrument-2">
</g>
<g id="ear-r">
</g>
<g id="ear-l">
</g>
<g id="ear-wave">
</g>
<g id="microphone-5">
</g>
<g id="microphone-4">
</g>
<g id="microphone-3">
</g>
<g id="small-speaker">
</g>
<g id="line-visuals">
</g>
<g id="keyboard-1">
</g>
<g id="wave-top">
</g>
<g id="wave-r">
</g>
<g id="wave">
</g>
<g id="instrument">
</g>
<g id="headphone-mic">
</g>
<g id="headphone">
</g>
<g id="music-note5">
</g>
<g id="music-note-4">
</g>
<g id="music-note-3">
</g>
<g id="music-note-2">
</g>
<g id="music-note-1">
</g>
<g id="music-note">
</g>
<g id="level-music">
</g>
<g id="visual-graph">
</g>
<g id="cover-3">
</g>
<g id="cd-cover-2">
</g>
<g id="cd-cover">
</g>
<g id="cd">
</g>
<g id="block">
</g>
<g id="sound2">
</g>
<g id="sound1">
</g>
<g id="sound">
</g>
<g id="microphone-2">
</g>
<g id="microphone">
</g>
</svg>
