<?xml version="1.0" encoding="utf-8"?>
<!-- Generator: Adobe Illustrator 18.0.0, SVG Export Plug-In . SVG Version: 6.00 Build 0)  -->
<!DOCTYPE svg PUBLIC "-//W3C//DTD SVG 1.1//EN" "http://www.w3.org/Graphics/SVG/1.1/DTD/svg11.dtd">
<svg version="1.1" xmlns="http://www.w3.org/2000/svg" xmlns:xlink="http://www.w3.org/1999/xlink" x="0px" y="0px"
	 viewBox="0 0 48 48" enable-background="new 0 0 48 48" xml:space="preserve">
<g id="Layer_1">
</g>
<g id="piano">
</g>
<g id="chimes">
</g>
<g id="marimba">
</g>
<g id="trom">
</g>
<g id="drum">
</g>
<g id="cult-drums">
</g>
<g id="keboard-l">
</g>
<g id="cello">
</g>
<g id="jack-2">
</g>
<g id="jack">
</g>
<g id="ear_1_">
</g>
<g id="ear">
</g>
<g id="ear-sound">
</g>
<g id="earwave_-alpha">
	<path fill="none" stroke="#1F1F1F" stroke-width="2" stroke-linecap="round" stroke-linejoin="round" stroke-miterlimit="10" d="
		M7.5634527,16.2867928c0.9714155-0.78687,1.0768776-6.9449034,8.3284531-8.3284531
		c4.5181665-0.8620353,9.0875959,2.6404099,8.3284521,8.3284531c-0.3645916,2.7317791-1.6439705,8.1796398-3.0285282,10.5998478
		c-1.3845558,2.4202099-4.7408733,5.5331974-5.2999239,7.5713215c-0.5590515,2.0381241-1.5886707,4.6342926-4.5427923,4.5427933
		s-2.5117083-4.4693909-4.5427928-4.5427933"/>
	<path fill="none" stroke="#1F1F1F" stroke-width="2" stroke-linecap="round" stroke-linejoin="round" stroke-miterlimit="10" d="
		M9.8348494,21.5867157c0,0,0.5665913-8.3661766,5.2999239-9.8427162c3.5101566-1.0949755,5.2999249,1.5024796,5.2999249,3.0285282"
		/>
	<path fill="none" stroke="#1F1F1F" stroke-width="2" stroke-linecap="round" stroke-linejoin="round" stroke-miterlimit="10" d="
		M11.3491135,16.2867928c0,0,6.9117203-0.045248,3.7856598,6.0570564s-5.2999239,6.0570564-5.2999239,6.0570564"/>
	<g>
		<g>
			<path fill="none" stroke="#1F1F1F" stroke-width="2" stroke-linecap="round" stroke-linejoin="round" d="M30.1512756,13.4100952
				c0.3444214,0.5705261,0.6456299,1.1671143,0.9004211,1.7844543"/>
			
				<path fill="none" stroke="#1F1F1F" stroke-width="2" stroke-linecap="round" stroke-linejoin="round" stroke-dasharray="3.3195934,3.3195934" d="
				M31.918457,18.3903809c0.2225342,1.6042786,0.1496582,3.276947-0.2626343,4.945282
				c-0.553772,2.2409058-1.6529846,4.2035522-3.1213379,5.7815247"/>
			<path fill="none" stroke="#1F1F1F" stroke-width="2" stroke-linecap="round" stroke-linejoin="round" d="M27.3291931,30.2583008
				c-0.513031,0.4276123-1.0574341,0.8152466-1.6279602,1.159668"/>
		</g>
	</g>
	<g>
		<g>
			<path fill="none" stroke="#1F1F1F" stroke-width="2" stroke-linecap="round" stroke-linejoin="round" d="M35.8942871,11.1504822
				c0.3443604,0.5704651,0.6563721,1.1604919,0.9341431,1.7670898"/>
			
				<path fill="none" stroke="#1F1F1F" stroke-width="2" stroke-linecap="round" stroke-linejoin="round" stroke-dasharray="4.692791,4.692791" d="
				M38.1908569,17.3944702c0.3666382,2.2591248,0.2932129,4.6278687-0.2905273,6.9900818
				c-0.7841187,3.1730347-2.3884277,5.9276428-4.5313721,8.0939026"/>
			<path fill="none" stroke="#1F1F1F" stroke-width="2" stroke-linecap="round" stroke-linejoin="round" d="M31.6106262,34.0323792
				c-0.5283508,0.4073792-1.0792847,0.7841797-1.6497498,1.1285706"/>
		</g>
	</g>
	<g>
		<g>
			<path fill="none" stroke="#1F1F1F" stroke-width="2" stroke-linecap="round" stroke-linejoin="round" d="M41.5369263,8.229126
				c0.3444214,0.5704651,0.6638794,1.1559753,0.9573364,1.7547302"/>
			
				<path fill="none" stroke="#1F1F1F" stroke-width="2" stroke-linecap="round" stroke-linejoin="round" stroke-dasharray="4.5290194,4.5290194" d="
				M44.0717163,14.2204285c0.9345093,3.5568237,1.0174561,7.3914795,0.0730591,11.2130127
				c-1.1385498,4.6073914-3.6073608,8.5361633-6.8964233,11.4784546"/>
			<path fill="none" stroke="#1F1F1F" stroke-width="2" stroke-linecap="round" stroke-linejoin="round" d="M35.4879761,38.3358765
				c-0.5385742,0.393158-1.0939941,0.7624817-1.6644287,1.1068726"/>
		</g>
	</g>
</g>
<g id="ear-wave-r">
</g>
<g id="instrument-2">
</g>
<g id="ear-r">
</g>
<g id="ear-l">
</g>
<g id="ear-wave">
</g>
<g id="microphone-5">
</g>
<g id="microphone-4">
</g>
<g id="microphone-3">
</g>
<g id="small-speaker">
</g>
<g id="line-visuals">
</g>
<g id="keyboard-1">
</g>
<g id="wave-top">
</g>
<g id="wave-r">
</g>
<g id="wave">
</g>
<g id="instrument">
</g>
<g id="headphone-mic">
</g>
<g id="headphone">
</g>
<g id="music-note5">
</g>
<g id="music-note-4">
</g>
<g id="music-note-3">
</g>
<g id="music-note-2">
</g>
<g id="music-note-1">
</g>
<g id="music-note">
</g>
<g id="level-music">
</g>
<g id="visual-graph">
</g>
<g id="cover-3">
</g>
<g id="cd-cover-2">
</g>
<g id="cd-cover">
</g>
<g id="cd">
</g>
<g id="block">
</g>
<g id="sound2">
</g>
<g id="sound1">
</g>
<g id="sound">
</g>
<g id="microphone-2">
</g>
<g id="microphone">
</g>
</svg>
