<?xml version="1.0" encoding="utf-8"?>
<!-- Generator: Adobe Illustrator 18.0.0, SVG Export Plug-In . SVG Version: 6.00 Build 0)  -->
<!DOCTYPE svg PUBLIC "-//W3C//DTD SVG 1.1//EN" "http://www.w3.org/Graphics/SVG/1.1/DTD/svg11.dtd">
<svg version="1.1" xmlns="http://www.w3.org/2000/svg" xmlns:xlink="http://www.w3.org/1999/xlink" x="0px" y="0px"
	 viewBox="0 0 48 48" enable-background="new 0 0 48 48" xml:space="preserve">
<g id="Layer_1">
</g>
<g id="piano">
</g>
<g id="chimes">
</g>
<g id="marimba">
</g>
<g id="trom">
</g>
<g id="drum">
</g>
<g id="cult-drums">
</g>
<g id="keboard-l">
</g>
<g id="cello">
</g>
<g id="jack-2">
</g>
<g id="jack">
</g>
<g id="ear_1_">
</g>
<g id="ear">
</g>
<g id="ear-sound">
</g>
<g id="earwave_-alpha">
</g>
<g id="ear-wave-r">
</g>
<g id="instrument-2">
</g>
<g id="ear-r">
</g>
<g id="ear-l">
</g>
<g id="ear-wave">
</g>
<g id="microphone-5">
</g>
<g id="microphone-4">
</g>
<g id="microphone-3">
</g>
<g id="small-speaker">
</g>
<g id="line-visuals">
</g>
<g id="keyboard-1">
</g>
<g id="wave-top">
</g>
<g id="wave-r">
</g>
<g id="wave">
</g>
<g id="instrument">
</g>
<g id="headphone-mic">
</g>
<g id="headphone">
</g>
<g id="music-note5">
</g>
<g id="music-note-4">
	<path fill="none" stroke="#1F1F1F" stroke-width="2" stroke-linecap="round" stroke-linejoin="round" stroke-miterlimit="10" d="
		M22.3245106,29.7150879C21.1367855,27.669323,21.4969234,25.2978916,24,24s5.3199081-0.651165,6.8535156,1.821413
		c1.9698563,3.17593-0.3708267,8.899828-5.7478065,8.9925365c-5.3769817,0.0927048-8.4362984-4.1705437-8.4362984-7.6019382
		C16.6694107,22.2908363,19.6259212,19.8424168,24,16c4.7784042-4.1975975,6.0190983-8.0632353,5.8337421-10.8521509
		C29.5697212,1.1752988,23-0.5189959,23,8c0,4.9213123,4.375,30.4375,3.6568546,34.1715736
		c-0.1996632,1.038166-0.4285126,2.0142975-1.1213207,2.7071075C24.8427258,45.5714874,23.8856182,46,22.8284264,46
		c-1.0571899,0-2.0142975-0.4285126-2.7071056-1.1213188C19.4285107,44.1858711,19,43.2287636,19,42.1715736
		s0.4285107-2.0142975,1.1213207-2.7071075"/>
</g>
<g id="music-note-3">
</g>
<g id="music-note-2">
</g>
<g id="music-note-1">
</g>
<g id="music-note">
</g>
<g id="level-music">
</g>
<g id="visual-graph">
</g>
<g id="cover-3">
</g>
<g id="cd-cover-2">
</g>
<g id="cd-cover">
</g>
<g id="cd">
</g>
<g id="block">
</g>
<g id="sound2">
</g>
<g id="sound1">
</g>
<g id="sound">
</g>
<g id="microphone-2">
</g>
<g id="microphone">
</g>
</svg>
