<?xml version="1.0" encoding="utf-8"?>
<!-- Generator: Adobe Illustrator 18.0.0, SVG Export Plug-In . SVG Version: 6.00 Build 0)  -->
<!DOCTYPE svg PUBLIC "-//W3C//DTD SVG 1.1//EN" "http://www.w3.org/Graphics/SVG/1.1/DTD/svg11.dtd">
<svg version="1.1" xmlns="http://www.w3.org/2000/svg" xmlns:xlink="http://www.w3.org/1999/xlink" x="0px" y="0px"
	 viewBox="0 0 48 48" enable-background="new 0 0 48 48" xml:space="preserve">
<g id="Layer_1">
</g>
<g id="piano">
</g>
<g id="chimes">
</g>
<g id="marimba">
</g>
<g id="trom">
</g>
<g id="drum">
</g>
<g id="cult-drums">
</g>
<g id="keboard-l">
</g>
<g id="cello">
</g>
<g id="jack-2">
</g>
<g id="jack">
</g>
<g id="ear_1_">
</g>
<g id="ear">
</g>
<g id="ear-sound">
</g>
<g id="earwave_-alpha">
</g>
<g id="ear-wave-r">
</g>
<g id="instrument-2">
</g>
<g id="ear-r">
</g>
<g id="ear-l">
</g>
<g id="ear-wave">
</g>
<g id="microphone-5">
</g>
<g id="microphone-4">
</g>
<g id="microphone-3">
</g>
<g id="small-speaker">
</g>
<g id="line-visuals">
</g>
<g id="keyboard-1">
</g>
<g id="wave-top">
</g>
<g id="wave-r">
</g>
<g id="wave">
</g>
<g id="instrument">
</g>
<g id="headphone-mic">
</g>
<g id="headphone">
</g>
<g id="music-note5">
</g>
<g id="music-note-4">
</g>
<g id="music-note-3">
</g>
<g id="music-note-2">
</g>
<g id="music-note-1">
</g>
<g id="music-note">
</g>
<g id="level-music">
</g>
<g id="visual-graph">
</g>
<g id="cover-3">
</g>
<g id="cd-cover-2">
	<circle fill="none" stroke="#1F1F1F" stroke-width="2" stroke-linejoin="round" stroke-miterlimit="10" cx="21" cy="22" r="12"/>
	<path fill="none" stroke="#1F1F1F" stroke-width="2" stroke-linejoin="round" stroke-miterlimit="10" d="M15.0510798,27.9489193
		c-3.2854977-3.2854977-3.2854977-8.6123409,0-11.8978386"/>
	<circle fill="none" stroke="#1F1F1F" stroke-width="2" stroke-linejoin="round" stroke-miterlimit="10" cx="21" cy="22" r="4"/>
	<path fill="none" stroke="#1F1F1F" stroke-width="2" stroke-linejoin="round" stroke-miterlimit="10" d="M37,39H5
		c-1.1045694,0-2-0.8954315-2-2V6c0-1.1045694,0.8954306-2,2-2h32c1.1045685,0,2,0.8954306,2,2v31
		C39,38.1045685,38.1045685,39,37,39z"/>
	<path fill="none" stroke="#1F1F1F" stroke-width="2" stroke-linejoin="round" stroke-miterlimit="10" d="M39,10h4
		c1.1045685,0,2,0.8954306,2,2v31c0,1.1045685-0.8954315,2-2,2H11c-1.1045694,0-2-0.8954315-2-2v-4"/>
</g>
<g id="cd-cover">
</g>
<g id="cd">
</g>
<g id="block">
</g>
<g id="sound2">
</g>
<g id="sound1">
</g>
<g id="sound">
</g>
<g id="microphone-2">
</g>
<g id="microphone">
</g>
</svg>
