<?xml version="1.0" encoding="utf-8"?>
<!-- Generator: Adobe Illustrator 18.0.0, SVG Export Plug-In . SVG Version: 6.00 Build 0)  -->
<!DOCTYPE svg PUBLIC "-//W3C//DTD SVG 1.1//EN" "http://www.w3.org/Graphics/SVG/1.1/DTD/svg11.dtd">
<svg version="1.1" xmlns="http://www.w3.org/2000/svg" xmlns:xlink="http://www.w3.org/1999/xlink" x="0px" y="0px"
	 viewBox="0 0 48 48" enable-background="new 0 0 48 48" xml:space="preserve">
<g id="Layer_1">
</g>
<g id="piano">
</g>
<g id="chimes">
</g>
<g id="marimba">
</g>
<g id="trom">
</g>
<g id="drum">
</g>
<g id="cult-drums">
</g>
<g id="keboard-l">
</g>
<g id="cello">
</g>
<g id="jack-2">
</g>
<g id="jack">
</g>
<g id="ear_1_">
</g>
<g id="ear">
</g>
<g id="ear-sound">
</g>
<g id="earwave_-alpha">
</g>
<g id="ear-wave-r">
</g>
<g id="instrument-2">
</g>
<g id="ear-r">
</g>
<g id="ear-l">
</g>
<g id="ear-wave">
	<path fill="none" stroke="#1F1F1F" stroke-width="2" stroke-linecap="round" stroke-linejoin="round" stroke-miterlimit="10" d="
		M44.0569191,16.2867928c-0.9714165-0.78687-1.0768776-6.9449034-8.3284531-8.3284531
		c-4.5181656-0.8620353-9.087595,2.6404099-8.3284531,8.3284531c0.3645916,2.7317791,1.6439724,8.1796398,3.0285301,10.5998478
		c1.3845558,2.4202099,4.7408714,5.5331974,5.2999229,7.5713215s1.5886726,4.6342926,4.5427933,4.5427933
		s2.5117073-4.4693909,4.5427933-4.5427933"/>
	<path fill="none" stroke="#1F1F1F" stroke-width="2" stroke-linecap="round" stroke-linejoin="round" stroke-miterlimit="10" d="
		M41.7855225,21.5867157c0,0-0.5665894-8.3661766-5.2999229-9.8427162
		c-3.5101585-1.0949755-5.2999249,1.5024796-5.2999249,3.0285282"/>
	<path fill="none" stroke="#1F1F1F" stroke-width="2" stroke-linecap="round" stroke-linejoin="round" stroke-miterlimit="10" d="
		M40.2712593,16.2867928c0,0-6.9117203-0.045248-3.7856598,6.0570564s5.2999229,6.0570564,5.2999229,6.0570564"/>
	<path fill="none" stroke="#1F1F1F" stroke-width="2" stroke-linecap="round" stroke-linejoin="round" stroke-miterlimit="10" d="
		M21.4690876,13.4101076c-1.7348728,2.8737383-2.3734512,6.4093065-1.504528,9.925559
		c0.8689251,3.5162525,3.0808296,6.3474197,5.954567,8.0822926"/>
	<path fill="none" stroke="#1F1F1F" stroke-width="2" stroke-linecap="round" stroke-linejoin="round" stroke-miterlimit="10" d="
		M15.7261066,11.1504726c-2.3131647,3.8316498-3.1646042,8.545742-2.0060387,13.2340775s4.1077728,8.4632282,7.9394245,10.776392"/>
	<path fill="none" stroke="#1F1F1F" stroke-width="2" stroke-linecap="round" stroke-linejoin="round" stroke-miterlimit="10" d="
		M10.0834265,8.2291346c-3.0071135,4.981144-4.1139841,11.1094637-2.6078496,17.2042999s5.3401046,11.0021896,10.321249,14.009304"
		/>
</g>
<g id="microphone-5">
</g>
<g id="microphone-4">
</g>
<g id="microphone-3">
</g>
<g id="small-speaker">
</g>
<g id="line-visuals">
</g>
<g id="keyboard-1">
</g>
<g id="wave-top">
</g>
<g id="wave-r">
</g>
<g id="wave">
</g>
<g id="instrument">
</g>
<g id="headphone-mic">
</g>
<g id="headphone">
</g>
<g id="music-note5">
</g>
<g id="music-note-4">
</g>
<g id="music-note-3">
</g>
<g id="music-note-2">
</g>
<g id="music-note-1">
</g>
<g id="music-note">
</g>
<g id="level-music">
</g>
<g id="visual-graph">
</g>
<g id="cover-3">
</g>
<g id="cd-cover-2">
</g>
<g id="cd-cover">
</g>
<g id="cd">
</g>
<g id="block">
</g>
<g id="sound2">
</g>
<g id="sound1">
</g>
<g id="sound">
</g>
<g id="microphone-2">
</g>
<g id="microphone">
</g>
</svg>
