<?xml version="1.0" encoding="utf-8"?>
<!-- Generator: Adobe Illustrator 18.0.0, SVG Export Plug-In . SVG Version: 6.00 Build 0)  -->
<!DOCTYPE svg PUBLIC "-//W3C//DTD SVG 1.1//EN" "http://www.w3.org/Graphics/SVG/1.1/DTD/svg11.dtd">
<svg version="1.1" xmlns="http://www.w3.org/2000/svg" xmlns:xlink="http://www.w3.org/1999/xlink" x="0px" y="0px"
	 viewBox="0 0 48 48" enable-background="new 0 0 48 48" xml:space="preserve">
<g id="Layer_1">
</g>
<g id="piano">
</g>
<g id="chimes">
</g>
<g id="marimba">
</g>
<g id="trom">
</g>
<g id="drum">
</g>
<g id="cult-drums">
</g>
<g id="keboard-l">
</g>
<g id="cello">
</g>
<g id="jack-2">
	<g>
		<path fill="none" stroke="#000000" stroke-width="2" stroke-miterlimit="10" d="M26,16.6000004V7l-0.2774048-1
			c0.2627659-0.451417,0.3706398-1.0046206,0.1827965-1.6021934c-0.2199955-0.6998515-0.8400688-1.2497916-1.5638504-1.3695009
			C23.0861359,2.8206689,22,3.7834423,22,5c0,0.3661499,0.1055908,0.704834,0.2774048,1L22,7v9.6000004
			C22,17.3731995,21.3731995,18,20.6000004,18h-0.0009441c-0.8467045,0-1.4996223,0.7457523-1.3877182,1.5850296
			l1.6266651,12.1999989C20.9307404,32.4805565,21.5240402,33,22.2257233,33h3.5485535
			c0.701683,0,1.2949829-0.5194435,1.3877201-1.2149715l1.6266651-12.1999989C28.9005661,18.7457523,28.2476482,18,27.4009438,18
			h-0.0009441C26.6268005,18,26,17.3731995,26,16.6000004z"/>
		<path fill="none" stroke="#000000" stroke-width="2" stroke-miterlimit="10" d="M24,33c0,0-0.8808041,5.5934448,4,8
			c5.5537834,2.7383804,12.0292168,1.6175308,15,5"/>
		<path fill="none" stroke="#000000" stroke-width="2" stroke-miterlimit="10" d="M15.0783405,17.0401802l-3.0308294-9.1090107
			l-0.578928-0.8612757c0.1068096-0.5112877,0.0345125-1.0702548-0.3323841-1.57796
			c-0.4296942-0.5946031-1.1916771-0.9206524-1.916234-0.8057332C7.963213,4.8855295,7.2365861,6.1419673,7.6206675,7.2963042
			c0.1155977,0.3474236,0.3227143,0.6354494,0.578928,0.8612752l0.052495,1.0364351l3.0308294,9.1090117
			c0.2441072,0.7336521-0.1527481,1.5262852-0.8864021,1.7703934l-0.0008955,0.0002975
			c-0.8034,0.2673149-1.1874828,1.1810589-0.8163328,1.9420815l5.3951502,11.062479
			c0.3075809,0.6306763,1.0345287,0.9362411,1.700325,0.7147102l3.3670635-1.1203194
			c0.6657963-0.2215271,1.0647564-0.9017143,0.9331646-1.5909481l-2.3082066-12.089592
			c-0.1587906-0.8316822-1.0137558-1.3331585-1.8171577-1.0658455l-0.0008945,0.0002975
			C16.1150799,18.1706886,15.3224478,17.7738342,15.0783405,17.0401802z"/>
		<path fill="none" stroke="#000000" stroke-width="2" stroke-miterlimit="10" d="M18,34c0,0-0.5498009,3.7808762,10,5
			s10.8154068,8,10.8154068,8"/>
		<line fill="none" stroke="#000000" stroke-width="2" stroke-miterlimit="10" x1="22" y1="17" x2="26" y2="17"/>
		
			<line fill="none" stroke="#000000" stroke-width="2" stroke-miterlimit="10" x1="11.1026335" y1="18.6324558" x2="14.8973665" y2="17.3675442"/>
	</g>
</g>
<g id="jack">
</g>
<g id="ear_1_">
</g>
<g id="ear">
</g>
<g id="ear-sound">
</g>
<g id="earwave_-alpha">
</g>
<g id="ear-wave-r">
</g>
<g id="instrument-2">
</g>
<g id="ear-r">
</g>
<g id="ear-l">
</g>
<g id="ear-wave">
</g>
<g id="microphone-5">
</g>
<g id="microphone-4">
</g>
<g id="microphone-3">
</g>
<g id="small-speaker">
</g>
<g id="line-visuals">
</g>
<g id="keyboard-1">
</g>
<g id="wave-top">
</g>
<g id="wave-r">
</g>
<g id="wave">
</g>
<g id="instrument">
</g>
<g id="headphone-mic">
</g>
<g id="headphone">
</g>
<g id="music-note5">
</g>
<g id="music-note-4">
</g>
<g id="music-note-3">
</g>
<g id="music-note-2">
</g>
<g id="music-note-1">
</g>
<g id="music-note">
</g>
<g id="level-music">
</g>
<g id="visual-graph">
</g>
<g id="cover-3">
</g>
<g id="cd-cover-2">
</g>
<g id="cd-cover">
</g>
<g id="cd">
</g>
<g id="block">
</g>
<g id="sound2">
</g>
<g id="sound1">
</g>
<g id="sound">
</g>
<g id="microphone-2">
</g>
<g id="microphone">
</g>
</svg>
