<?xml version="1.0" encoding="utf-8"?>
<!-- Generator: Adobe Illustrator 18.0.0, SVG Export Plug-In . SVG Version: 6.00 Build 0)  -->
<!DOCTYPE svg PUBLIC "-//W3C//DTD SVG 1.1//EN" "http://www.w3.org/Graphics/SVG/1.1/DTD/svg11.dtd">
<svg version="1.1" xmlns="http://www.w3.org/2000/svg" xmlns:xlink="http://www.w3.org/1999/xlink" x="0px" y="0px"
	 viewBox="0 0 48 48" enable-background="new 0 0 48 48" xml:space="preserve">
<g id="home">
</g>
<g id="home-1">
</g>
<g id="home-2">
</g>
<g id="home-3">
</g>
<g id="home-4">
</g>
<g id="door">
</g>
<g id="window">
</g>
<g id="home-5">
</g>
<g id="home-6">
</g>
<g id="home-7">
</g>
<g id="home-8">
</g>
<g id="office">
</g>
<g id="four-floors">
</g>
<g id="classic-pillers">
</g>
<g id="church">
</g>
<g id="detached-church">
</g>
<g id="wind-mill">
</g>
<g id="light-house">
</g>
<g id="light-house_1_">
</g>
<g id="light-house-2">
</g>
<g id="Trash_House-shutter">
</g>
<g id="Trash_House">
</g>
<g id="Layer_1">
</g>
<g id="tree-3">
</g>
<g id="tree-2">
	<g>
		<g>
			
				<polyline fill="none" stroke="#0F0F0F" stroke-width="2" stroke-linecap="round" stroke-linejoin="round" stroke-miterlimit="10" points="
				22,38 22,46 19,46 			"/>
			
				<polyline fill="none" stroke="#0F0F0F" stroke-width="2" stroke-linecap="round" stroke-linejoin="round" stroke-miterlimit="10" points="
				25,36 25,46 28,46 			"/>
		</g>
		<path fill="none" stroke="#0F0F0F" stroke-width="2" stroke-linecap="round" stroke-linejoin="round" stroke-miterlimit="10" d="
			M25,42c0,0,2.135685-1.0136986,4.2763844-3.0780983"/>
		<path fill="none" stroke="#0F0F0F" stroke-width="2" stroke-linecap="round" stroke-linejoin="round" stroke-miterlimit="10" d="
			M31.6270008,24.5839996c0.9842854-0.7616997,1.6288853-1.9403992,1.6288853-3.2812996
			c0-2.2900009-1.8487015-4.1445007-4.1338024-4.1601009c0.6982002-0.7441998,1.1338005-1.7382994,1.1338005-2.8398991
			c0-2.2997999-1.8633003-4.1631002-4.1620998-4.1631002c-0.9550991,0-1.8243008,0.335-2.5263996,0.8760004
			c-0.1308994-0.1992006-0.2831993-0.3808002-0.4453011-0.5537004c2.2851009-0.0156002,4.1338005-1.8701,4.1338005-4.1591997
			c0-2.2997999-1.8633003-4.1631002-4.1620998-4.1631002c-2.2989006,0-4.162199,1.8633001-4.162199,4.1631002
			c0,1.1016002,0.4355984,2.0957003,1.1337986,2.8399c-2.285099,0.0156002-4.1337996,1.8701-4.1337996,4.1601
			c0,1.9756002,1.3799009,3.6210995,3.2265997,4.0478992c-0.0634995,0.0848999-0.1268997,0.1680012-0.1845989,0.2568016
			c-0.5664005-0.2890015-1.1991997-0.4678001-1.8798008-0.4678001c-2.2988997,0-4.1622,1.8632984-4.1622,4.1630993
			c0,1.4911995,0.7911005,2.7870998,1.9707003,3.5186005c-1.1757002,1.3339996-1.8944998,3.0790997-1.8944998,4.9960995
			c0,4.1776981,3.3877001,7.5654011,7.5654001,7.5654011c2.6933994,0,5.051815-1.4121017,6.3925991-3.5321999
			c0.9892998,0.3056984,2.1758003,0.3602982,3.1612167,0.3602982c2.7293835,0,4.9413853-2.2118988,4.9413853-4.9413986
			C35.0683861,27.0653992,33.6181831,25.2217007,31.6270008,24.5839996z M26.6845837,24.6865005
			c0.2392006,0.1709003,0.4922009,0.3202991,0.7646008,0.4384995c-0.1171837,0.0751991-0.2226009,0.1650009-0.3320007,0.25
			c-0.1553001-0.2129002-0.3163986-0.4209003-0.5019989-0.6054993
			C26.6405849,24.7432003,26.6601849,24.7129002,26.6845837,24.6865005z"/>
		<path fill="none" stroke="#0F0F0F" stroke-width="2" stroke-linecap="round" stroke-linejoin="round" stroke-miterlimit="10" d="
			M20.7167854,33.0546989c-2.0254002,0-3.6689014-1.6425991-3.6689014-3.6689987"/>
	</g>
</g>
<g id="tree-1">
</g>
<g id="tree">
</g>
<g id="round-tree-1">
</g>
<g id="round-tree">
</g>
<g id="triangle-tree-1">
</g>
<g id="triangle-tree">
</g>
<g id="ellips-tree-1">
</g>
<g id="ellipse-tree">
</g>
<g id="skyscraper-3">
</g>
<g id="long-story-house">
</g>
<g id="skyscrapers-1">
</g>
<g id="skyscraper">
</g>
<g id="large-building-7">
</g>
<g id="larg-building-6">
</g>
<g id="small-flat">
</g>
<g id="green-building">
</g>
<g id="squar-building">
</g>
<g id="bank">
</g>
<g id="gate-house-2">
</g>
<g id="gate-house">
</g>
<g id="pak-mahal">
</g>
<g id="Indian-mahal">
</g>
<g id="chinees-arch">
</g>
<g id="cathedral">
</g>
<g id="pizza">
</g>
<g id="chinees">
</g>
<g id="large-factory">
</g>
<g id="factory">
</g>
<g id="villa">
</g>
<g id="shope-2">
</g>
<g id="shop">
</g>
<g id="snow-home-3">
</g>
<g id="snow-home-2">
</g>
<g id="snow-home">
</g>
<g id="small-store">
</g>
<g id="frontage-mid">
</g>
<g id="bricks-house">
</g>
<g id="old-house">
</g>
<g id="pillers-gate-2">
</g>
<g id="pillers-gate-1">
</g>
<g id="pillers-gate">
</g>
<g id="dome-pillers">
</g>
<g id="garden-piller-1">
</g>
<g id="graden-pillers">
</g>
<g id="temple-gate">
</g>
<g id="chinees-gate">
</g>
<g id="central-museum">
</g>
<g id="mosque">
</g>
<g id="garden-wall">
</g>
<g id="fire">
</g>
<g id="pyramid">
</g>
<g id="large-building-5">
</g>
<g id="large-building-4">
</g>
<g id="large-buildin-3">
</g>
<g id="large-building-2">
</g>
<g id="large-building-1">
</g>
<g id="large-building">
</g>
<g id="facto-house-1">
</g>
<g id="facto-house">
</g>
<g id="golf-area">
</g>
<g id="playground">
</g>
<g id="block-store">
</g>
<g id="favorite">
</g>
<g id="open-store">
</g>
<g id="close-store">
</g>
<g id="locate-house">
</g>
<g id="store">
</g>
<g id="block-house">
</g>
<g id="success-house">
</g>
<g id="load-house">
</g>
<g id="move-house">
</g>
<g id="close-house">
</g>
<g id="add-house">
</g>
<g id="house">
</g>
<g id="Trash_House-door">
</g>
<g id="verticle-wall">
</g>
</svg>
