<?xml version="1.0" encoding="utf-8"?>
<!-- Generator: Adobe Illustrator 18.0.0, SVG Export Plug-In . SVG Version: 6.00 Build 0)  -->
<!DOCTYPE svg PUBLIC "-//W3C//DTD SVG 1.1//EN" "http://www.w3.org/Graphics/SVG/1.1/DTD/svg11.dtd">
<svg version="1.1" xmlns="http://www.w3.org/2000/svg" xmlns:xlink="http://www.w3.org/1999/xlink" x="0px" y="0px"
	 viewBox="0 0 48 48" enable-background="new 0 0 48 48" xml:space="preserve">
<g id="home">
</g>
<g id="home-1">
</g>
<g id="home-2">
</g>
<g id="home-3">
</g>
<g id="home-4">
</g>
<g id="door">
</g>
<g id="window">
</g>
<g id="home-5">
</g>
<g id="home-6">
</g>
<g id="home-7">
</g>
<g id="home-8">
</g>
<g id="office">
</g>
<g id="four-floors">
</g>
<g id="classic-pillers">
</g>
<g id="church">
</g>
<g id="detached-church">
</g>
<g id="wind-mill">
</g>
<g id="light-house">
</g>
<g id="light-house_1_">
</g>
<g id="light-house-2">
</g>
<g id="Trash_House-shutter">
</g>
<g id="Trash_House">
</g>
<g id="Layer_1">
</g>
<g id="tree-3">
</g>
<g id="tree-2">
</g>
<g id="tree-1">
</g>
<g id="tree">
</g>
<g id="round-tree-1">
</g>
<g id="round-tree">
</g>
<g id="triangle-tree-1">
</g>
<g id="triangle-tree">
</g>
<g id="ellips-tree-1">
</g>
<g id="ellipse-tree">
</g>
<g id="skyscraper-3">
</g>
<g id="long-story-house">
</g>
<g id="skyscrapers-1">
</g>
<g id="skyscraper">
</g>
<g id="large-building-7">
</g>
<g id="larg-building-6">
</g>
<g id="small-flat">
</g>
<g id="green-building">
</g>
<g id="squar-building">
</g>
<g id="bank">
</g>
<g id="gate-house-2">
</g>
<g id="gate-house">
</g>
<g id="pak-mahal">
</g>
<g id="Indian-mahal">
</g>
<g id="chinees-arch">
</g>
<g id="cathedral">
</g>
<g id="pizza">
</g>
<g id="chinees">
</g>
<g id="large-factory">
</g>
<g id="factory">
</g>
<g id="villa">
</g>
<g id="shope-2">
</g>
<g id="shop">
</g>
<g id="snow-home-3">
</g>
<g id="snow-home-2">
</g>
<g id="snow-home">
</g>
<g id="small-store">
</g>
<g id="frontage-mid">
</g>
<g id="bricks-house">
</g>
<g id="old-house">
</g>
<g id="pillers-gate-2">
</g>
<g id="pillers-gate-1">
</g>
<g id="pillers-gate">
</g>
<g id="dome-pillers">
</g>
<g id="garden-piller-1">
</g>
<g id="graden-pillers">
</g>
<g id="temple-gate">
</g>
<g id="chinees-gate">
</g>
<g id="central-museum">
	<g>
		<path fill="none" stroke="#0F0F0F" stroke-width="2" stroke-linecap="round" stroke-miterlimit="10" d="M10,44H8v-4
			c0-0.5522842,0.4477148-1,0.999999-1H9.000001C9.5522852,39,10,39.4477158,10,40V44z"/>
		<path fill="none" stroke="#0F0F0F" stroke-width="2" stroke-linecap="round" stroke-miterlimit="10" d="M16,44h-2v-4
			c0-0.5522842,0.4477148-1,0.999999-1h0.0000019C15.5522852,39,16,39.4477158,16,40V44z"/>
		<path fill="none" stroke="#0F0F0F" stroke-width="2" stroke-linecap="round" stroke-miterlimit="10" d="M22,44h-2v-4
			c0-0.5522842,0.4477139-1,0.9999981-1h0.0000038C21.5522861,39,22,39.4477158,22,40V44z"/>
		<path fill="none" stroke="#0F0F0F" stroke-width="2" stroke-linecap="round" stroke-miterlimit="10" d="M28,44h-2v-4
			c0-0.5522842,0.4477139-1,0.9999981-1h0.0000038C27.5522861,39,28,39.4477158,28,40V44z"/>
		<path fill="none" stroke="#0F0F0F" stroke-width="2" stroke-linecap="round" stroke-miterlimit="10" d="M34,44h-2v-4
			c0-0.5522842,0.4477158-1,1-1l0,0c0.5522842,0,1,0.4477158,1,1V44z"/>
		<path fill="none" stroke="#0F0F0F" stroke-width="2" stroke-linecap="round" stroke-miterlimit="10" d="M40,44h-2v-4
			c0-0.5522842,0.4477158-1,1-1l0,0c0.5522842,0,1,0.4477158,1,1V44z"/>
		<path fill="none" stroke="#0F0F0F" stroke-width="2" stroke-linecap="round" stroke-miterlimit="10" d="M4,46V34
			c0-1.6568527,1.3431458-3,3-3h34c1.6568527,0,3,1.3431473,3,3v12"/>
		<path fill="none" stroke="#0F0F0F" stroke-width="2" stroke-linecap="round" stroke-miterlimit="10" d="M13,18
			c0-6.0751324,4.9248676-11,11-11s11,4.9248676,11,11"/>
		<path fill="none" stroke="#0F0F0F" stroke-width="2" stroke-linecap="round" stroke-miterlimit="10" d="M9,30v-7
			c0-2.2091389,1.7908611-4,4-4h22c2.2091408,0,4,1.7908611,4,4v7"/>
		<polygon fill="none" stroke="#0F0F0F" stroke-width="2" stroke-linecap="round" stroke-miterlimit="10" points="23,7 24,4 25,7 		
			"/>
		<path fill="none" stroke="#0F0F0F" stroke-width="2" stroke-linecap="round" stroke-miterlimit="10" d="M15,30v-4.5000019
			C15,24.1192875,16.1192875,23,17.4999981,23h0.0000038C18.8807125,23,20,24.1192875,20,25.4999981V30"/>
		<path fill="none" stroke="#0F0F0F" stroke-width="2" stroke-linecap="round" stroke-miterlimit="10" d="M28,30v-4.5000019
			C28,24.1192875,29.1192875,23,30.4999981,23h0.0000038C31.8807125,23,33,24.1192875,33,25.4999981V30"/>
		
			<line fill="none" stroke="#0F0F0F" stroke-width="2" stroke-linecap="round" stroke-miterlimit="10" x1="45" y1="46" x2="3" y2="46"/>
	</g>
</g>
<g id="mosque">
</g>
<g id="garden-wall">
</g>
<g id="fire">
</g>
<g id="pyramid">
</g>
<g id="large-building-5">
</g>
<g id="large-building-4">
</g>
<g id="large-buildin-3">
</g>
<g id="large-building-2">
</g>
<g id="large-building-1">
</g>
<g id="large-building">
</g>
<g id="facto-house-1">
</g>
<g id="facto-house">
</g>
<g id="golf-area">
</g>
<g id="playground">
</g>
<g id="block-store">
</g>
<g id="favorite">
</g>
<g id="open-store">
</g>
<g id="close-store">
</g>
<g id="locate-house">
</g>
<g id="store">
</g>
<g id="block-house">
</g>
<g id="success-house">
</g>
<g id="load-house">
</g>
<g id="move-house">
</g>
<g id="close-house">
</g>
<g id="add-house">
</g>
<g id="house">
</g>
<g id="Trash_House-door">
</g>
<g id="verticle-wall">
</g>
</svg>
