<?xml version="1.0" encoding="utf-8"?>
<!-- Generator: Adobe Illustrator 18.0.0, SVG Export Plug-In . SVG Version: 6.00 Build 0)  -->
<!DOCTYPE svg PUBLIC "-//W3C//DTD SVG 1.1//EN" "http://www.w3.org/Graphics/SVG/1.1/DTD/svg11.dtd">
<svg version="1.1" xmlns="http://www.w3.org/2000/svg" xmlns:xlink="http://www.w3.org/1999/xlink" x="0px" y="0px"
	 viewBox="0 0 48 48" enable-background="new 0 0 48 48" xml:space="preserve">
<g id="home">
</g>
<g id="home-1">
</g>
<g id="home-2">
</g>
<g id="home-3">
</g>
<g id="home-4">
</g>
<g id="door">
</g>
<g id="window">
</g>
<g id="home-5">
</g>
<g id="home-6">
</g>
<g id="home-7">
</g>
<g id="home-8">
</g>
<g id="office">
</g>
<g id="four-floors">
</g>
<g id="classic-pillers">
</g>
<g id="church">
</g>
<g id="detached-church">
</g>
<g id="wind-mill">
</g>
<g id="light-house">
</g>
<g id="light-house_1_">
</g>
<g id="light-house-2">
</g>
<g id="Trash_House-shutter">
</g>
<g id="Trash_House">
</g>
<g id="Layer_1">
</g>
<g id="tree-3">
</g>
<g id="tree-2">
</g>
<g id="tree-1">
</g>
<g id="tree">
</g>
<g id="round-tree-1">
</g>
<g id="round-tree">
</g>
<g id="triangle-tree-1">
</g>
<g id="triangle-tree">
</g>
<g id="ellips-tree-1">
</g>
<g id="ellipse-tree">
</g>
<g id="skyscraper-3">
	
		<polyline fill="none" stroke="#0F0F0F" stroke-width="2" stroke-linecap="round" stroke-linejoin="round" stroke-miterlimit="10" points="
		20,46 20,12 28,2 40,5 40,20 	"/>
	
		<polyline fill="none" stroke="#0F0F0F" stroke-width="2" stroke-linecap="round" stroke-linejoin="round" stroke-miterlimit="10" points="
		6,46 6,24.930233 12,18 20,19.1627903 	"/>
	<path fill="none" stroke="#0F0F0F" stroke-width="2" stroke-linecap="round" stroke-linejoin="round" stroke-miterlimit="10" d="
		M29,45.4166679c0,0-9.666666-9.0833359-9-28.4166679"/>
	<path fill="none" stroke="#0F0F0F" stroke-width="2" stroke-linecap="round" stroke-linejoin="round" stroke-miterlimit="10" d="
		M6,26c0,0,1.1666665,13.5833321,6,20"/>
	
		<line fill="none" stroke="#0F0F0F" stroke-width="2" stroke-linecap="round" stroke-linejoin="round" stroke-miterlimit="10" x1="9" y1="22" x2="9" y2="40"/>
	
		<line fill="none" stroke="#0F0F0F" stroke-width="2" stroke-linecap="round" stroke-linejoin="round" stroke-miterlimit="10" x1="12" y1="18" x2="12" y2="46"/>
	
		<line fill="none" stroke="#0F0F0F" stroke-width="2" stroke-linecap="round" stroke-linejoin="round" stroke-miterlimit="10" x1="26" y1="5" x2="26" y2="41"/>
	
		<line fill="none" stroke="#0F0F0F" stroke-width="2" stroke-linecap="round" stroke-linejoin="round" stroke-miterlimit="10" x1="23" y1="9" x2="23" y2="35"/>
	
		<line fill="none" stroke="#0F0F0F" stroke-width="2" stroke-linecap="round" stroke-linejoin="round" stroke-miterlimit="10" x1="29" y1="3" x2="29" y2="45"/>
	
		<line fill="none" stroke="#0F0F0F" stroke-width="2" stroke-linecap="round" stroke-linejoin="round" stroke-miterlimit="10" x1="3" y1="46" x2="46" y2="46"/>
	<path fill="none" stroke="#0F0F0F" stroke-width="2" stroke-linecap="round" stroke-linejoin="round" stroke-miterlimit="10" d="
		M46,31.5c0-0.1712646-0.0266724-0.3353271-0.050415-0.5C45.9733276,30.8353271,46,30.6712646,46,30.5
		c0-1.1182251-0.5341187-2.102478-1.3504028-2.7432251C44.8667603,27.3862915,45,26.9604492,45,26.5
		c0-1.0784912-0.6865845-1.9890137-1.6435547-2.3397217C43.7521973,23.7180176,44,23.1401978,44,22.5
		c0-1.3807373-1.1192627-2.5-2.5-2.5S39,21.1192627,39,22.5c0,1.0784302,0.6865845,1.9890137,1.6435547,2.3397217
		C40.5933838,24.895752,40.5450439,24.953186,40.5,25.0136719C40.0442505,24.4016724,39.3216553,24,38.5,24
		c-1.3807373,0-2.5,1.1192627-2.5,2.5c0,0.7160645,0.3049316,1.3574829,0.7874146,1.8132935
		C36.3024902,28.9139404,36,29.6679077,36,30.5c0,0.7607422,0.2489624,1.4595337,0.6611938,2.0336914
		C35.6673584,33.1511841,35,34.2438965,35,35.5c0,1.9329834,1.5670166,3.5,3.5,3.5
		c0.47052,0,0.9179688-0.0958862,1.3278198-0.2642822C40.4698486,39.5021973,41.421936,40,42.5,40
		c1.9329834,0,3.5-1.5670166,3.5-3.5c0-0.9807129-0.4057617-1.864563-1.055603-2.5C45.5942383,33.364563,46,32.4807129,46,31.5z"/>
	
		<line fill="none" stroke="#0F0F0F" stroke-width="2" stroke-linecap="round" stroke-linejoin="round" stroke-miterlimit="10" x1="41" y1="40" x2="41" y2="46"/>
	<path fill="none" stroke="#0F0F0F" stroke-width="2" stroke-linecap="round" stroke-linejoin="round" stroke-miterlimit="10" d="
		M39,33c0,0-0.5833321,1.5833321,1,2"/>
	<path fill="none" stroke="#0F0F0F" stroke-width="2" stroke-linecap="round" stroke-linejoin="round" stroke-miterlimit="10" d="
		M41,29c0,0,0.5,0.125,1,1"/>
</g>
<g id="long-story-house">
</g>
<g id="skyscrapers-1">
</g>
<g id="skyscraper">
</g>
<g id="large-building-7">
</g>
<g id="larg-building-6">
</g>
<g id="small-flat">
</g>
<g id="green-building">
</g>
<g id="squar-building">
</g>
<g id="bank">
</g>
<g id="gate-house-2">
</g>
<g id="gate-house">
</g>
<g id="pak-mahal">
</g>
<g id="Indian-mahal">
</g>
<g id="chinees-arch">
</g>
<g id="cathedral">
</g>
<g id="pizza">
</g>
<g id="chinees">
</g>
<g id="large-factory">
</g>
<g id="factory">
</g>
<g id="villa">
</g>
<g id="shope-2">
</g>
<g id="shop">
</g>
<g id="snow-home-3">
</g>
<g id="snow-home-2">
</g>
<g id="snow-home">
</g>
<g id="small-store">
</g>
<g id="frontage-mid">
</g>
<g id="bricks-house">
</g>
<g id="old-house">
</g>
<g id="pillers-gate-2">
</g>
<g id="pillers-gate-1">
</g>
<g id="pillers-gate">
</g>
<g id="dome-pillers">
</g>
<g id="garden-piller-1">
</g>
<g id="graden-pillers">
</g>
<g id="temple-gate">
</g>
<g id="chinees-gate">
</g>
<g id="central-museum">
</g>
<g id="mosque">
</g>
<g id="garden-wall">
</g>
<g id="fire">
</g>
<g id="pyramid">
</g>
<g id="large-building-5">
</g>
<g id="large-building-4">
</g>
<g id="large-buildin-3">
</g>
<g id="large-building-2">
</g>
<g id="large-building-1">
</g>
<g id="large-building">
</g>
<g id="facto-house-1">
</g>
<g id="facto-house">
</g>
<g id="golf-area">
</g>
<g id="playground">
</g>
<g id="block-store">
</g>
<g id="favorite">
</g>
<g id="open-store">
</g>
<g id="close-store">
</g>
<g id="locate-house">
</g>
<g id="store">
</g>
<g id="block-house">
</g>
<g id="success-house">
</g>
<g id="load-house">
</g>
<g id="move-house">
</g>
<g id="close-house">
</g>
<g id="add-house">
</g>
<g id="house">
</g>
<g id="Trash_House-door">
</g>
<g id="verticle-wall">
</g>
</svg>
