<?xml version="1.0" encoding="utf-8"?>
<!-- Generator: Adobe Illustrator 18.0.0, SVG Export Plug-In . SVG Version: 6.00 Build 0)  -->
<!DOCTYPE svg PUBLIC "-//W3C//DTD SVG 1.1//EN" "http://www.w3.org/Graphics/SVG/1.1/DTD/svg11.dtd">
<svg version="1.1" xmlns="http://www.w3.org/2000/svg" xmlns:xlink="http://www.w3.org/1999/xlink" x="0px" y="0px"
	 viewBox="0 0 48 48" enable-background="new 0 0 48 48" xml:space="preserve">
<g id="home">
</g>
<g id="home-1">
</g>
<g id="home-2">
</g>
<g id="home-3">
</g>
<g id="home-4">
</g>
<g id="door">
</g>
<g id="window">
</g>
<g id="home-5">
</g>
<g id="home-6">
</g>
<g id="home-7">
</g>
<g id="home-8">
</g>
<g id="office">
</g>
<g id="four-floors">
</g>
<g id="classic-pillers">
</g>
<g id="church">
</g>
<g id="detached-church">
</g>
<g id="wind-mill">
</g>
<g id="light-house">
</g>
<g id="light-house_1_">
</g>
<g id="light-house-2">
</g>
<g id="Trash_House-shutter">
</g>
<g id="Trash_House">
</g>
<g id="Layer_1">
</g>
<g id="tree-3">
</g>
<g id="tree-2">
</g>
<g id="tree-1">
</g>
<g id="tree">
</g>
<g id="round-tree-1">
</g>
<g id="round-tree">
</g>
<g id="triangle-tree-1">
</g>
<g id="triangle-tree">
</g>
<g id="ellips-tree-1">
</g>
<g id="ellipse-tree">
</g>
<g id="skyscraper-3">
</g>
<g id="long-story-house">
</g>
<g id="skyscrapers-1">
</g>
<g id="skyscraper">
</g>
<g id="large-building-7">
</g>
<g id="larg-building-6">
</g>
<g id="small-flat">
</g>
<g id="green-building">
</g>
<g id="squar-building">
</g>
<g id="bank">
</g>
<g id="gate-house-2">
</g>
<g id="gate-house">
</g>
<g id="pak-mahal">
</g>
<g id="Indian-mahal">
</g>
<g id="chinees-arch">
</g>
<g id="cathedral">
</g>
<g id="pizza">
</g>
<g id="chinees">
</g>
<g id="large-factory">
</g>
<g id="factory">
</g>
<g id="villa">
	<g>
		
			<polygon fill="none" stroke="#0F0F0F" stroke-width="2" stroke-linecap="round" stroke-linejoin="round" stroke-miterlimit="10" points="
			22,11 14,3 6,11 		"/>
		
			<polyline fill="none" stroke="#0F0F0F" stroke-width="2" stroke-linecap="round" stroke-linejoin="round" stroke-miterlimit="10" points="
			21,12 21,45 7,45 7,12 		"/>
		
			<rect x="12" y="16" fill="none" stroke="#0F0F0F" stroke-width="2" stroke-linecap="round" stroke-linejoin="round" stroke-miterlimit="10" width="4" height="4"/>
		
			<rect x="12" y="25" fill="none" stroke="#0F0F0F" stroke-width="2" stroke-linecap="round" stroke-linejoin="round" stroke-miterlimit="10" width="4" height="4"/>
		
			<polyline fill="none" stroke="#0F0F0F" stroke-width="2" stroke-linecap="round" stroke-linejoin="round" stroke-miterlimit="10" points="
			12,45 12,34 16,34 16,45 		"/>
		<path fill="none" stroke="#0F0F0F" stroke-width="2" stroke-linecap="round" stroke-linejoin="round" stroke-miterlimit="10" d="
			M21,24h5.9565086c1.3097458,0,2.5671997,0.5139198,3.5020237,1.4312706L36.1333351,31H33v7"/>
		<path fill="none" stroke="#0F0F0F" stroke-width="2" stroke-linecap="round" stroke-linejoin="round" stroke-miterlimit="10" d="
			M45,18.5c0-0.1712646-0.0266724-0.3353271-0.050415-0.5C44.9733276,17.8353271,45,17.6712646,45,17.5
			c0-1.1182251-0.5341187-2.102478-1.3504028-2.7432251C43.8667603,14.3862915,44,13.9604492,44,13.5
			c0-1.0784912-0.6865845-1.9890137-1.6435547-2.3397217C42.7521973,10.7180176,43,10.1401978,43,9.5
			C43,8.1192627,41.8807373,7,40.5,7S38,8.1192627,38,9.5c0,1.0784302,0.6865845,1.9890137,1.6435547,2.3397217
			C39.5933838,11.895752,39.5450439,11.953186,39.5,12.0136719C39.0442505,11.4016724,38.3216553,11,37.5,11
			c-1.3807373,0-2.5,1.1192627-2.5,2.5c0,0.7160645,0.3049316,1.3574829,0.7874146,1.8132935
			C35.3024902,15.9139404,35,16.6679077,35,17.5c0,0.7607422,0.2489624,1.4595337,0.6611938,2.0336914
			C34.6673584,20.1511841,34,21.2438965,34,22.5c0,1.9329834,1.5670166,3.5,3.5,3.5
			c0.47052,0,0.9179688-0.0958862,1.3278198-0.2642822C39.4698486,26.5021973,40.421936,27,41.5,27
			c1.9329834,0,3.5-1.5670166,3.5-3.5c0-0.9807129-0.4057617-1.864563-1.055603-2.5C44.5942383,20.364563,45,19.4807129,45,18.5z"/>
		
			<line fill="none" stroke="#0F0F0F" stroke-width="2" stroke-linecap="round" stroke-linejoin="round" stroke-miterlimit="10" x1="40" y1="27" x2="40" y2="33"/>
		<path fill="none" stroke="#0F0F0F" stroke-width="2" stroke-linecap="round" stroke-linejoin="round" stroke-miterlimit="10" d="
			M38,20c0,0-0.5833321,1.583334,1,2"/>
		<path fill="none" stroke="#0F0F0F" stroke-width="2" stroke-linecap="round" stroke-linejoin="round" stroke-miterlimit="10" d="
			M40,16c0,0,0.5,0.125,1,1"/>
		
			<polyline fill="none" stroke="#0F0F0F" stroke-width="2" stroke-linecap="round" stroke-linejoin="round" stroke-miterlimit="10" points="
			24,30 26,30 26,32 		"/>
		
			<line fill="none" stroke="#0F0F0F" stroke-width="2" stroke-linecap="round" stroke-linejoin="round" stroke-miterlimit="10" x1="29" y1="30" x2="29" y2="32"/>
		<path fill="none" stroke="#0F0F0F" stroke-width="2" stroke-linecap="round" stroke-linejoin="round" stroke-miterlimit="10" d="
			M20,45h28c0,0,0.75-6.9831543-3.1921997-6.9831543c0.821228-0.6405029,1.3588867-1.6279907,1.3588867-2.7501831
			c0-1.9329834-1.5670166-3.5-3.5-3.5c-1.9330444,0-3.5,1.5670166-3.5,3.5c0,1.2686768,0.6817017,2.3693237,1.6921997,2.9831543
			c-0.2736206,0.2134399-0.5199585,0.4589233-0.7197876,0.7432251c-0.1419678-1.8027954-1.6331787-3.2263794-3.4724121-3.2263794
			c-1.7974243,0-3.2610474,1.3599243-3.460083,3.1040039c-0.6381836-0.6763306-1.5366211-1.1040039-2.539917-1.1040039
			c-1.281311,0-2.3901367,0.6959839-3,1.7232056c-0.6099243-1.0272217-1.718689-1.7232056-3-1.7232056
			c-1.9330444,0-3.5,1.5670166-3.5,3.5"/>
	</g>
</g>
<g id="shope-2">
</g>
<g id="shop">
</g>
<g id="snow-home-3">
</g>
<g id="snow-home-2">
</g>
<g id="snow-home">
</g>
<g id="small-store">
</g>
<g id="frontage-mid">
</g>
<g id="bricks-house">
</g>
<g id="old-house">
</g>
<g id="pillers-gate-2">
</g>
<g id="pillers-gate-1">
</g>
<g id="pillers-gate">
</g>
<g id="dome-pillers">
</g>
<g id="garden-piller-1">
</g>
<g id="graden-pillers">
</g>
<g id="temple-gate">
</g>
<g id="chinees-gate">
</g>
<g id="central-museum">
</g>
<g id="mosque">
</g>
<g id="garden-wall">
</g>
<g id="fire">
</g>
<g id="pyramid">
</g>
<g id="large-building-5">
</g>
<g id="large-building-4">
</g>
<g id="large-buildin-3">
</g>
<g id="large-building-2">
</g>
<g id="large-building-1">
</g>
<g id="large-building">
</g>
<g id="facto-house-1">
</g>
<g id="facto-house">
</g>
<g id="golf-area">
</g>
<g id="playground">
</g>
<g id="block-store">
</g>
<g id="favorite">
</g>
<g id="open-store">
</g>
<g id="close-store">
</g>
<g id="locate-house">
</g>
<g id="store">
</g>
<g id="block-house">
</g>
<g id="success-house">
</g>
<g id="load-house">
</g>
<g id="move-house">
</g>
<g id="close-house">
</g>
<g id="add-house">
</g>
<g id="house">
</g>
<g id="Trash_House-door">
</g>
<g id="verticle-wall">
</g>
</svg>
