<?xml version="1.0" encoding="utf-8"?>
<!-- Generator: Adobe Illustrator 18.0.0, SVG Export Plug-In . SVG Version: 6.00 Build 0)  -->
<!DOCTYPE svg PUBLIC "-//W3C//DTD SVG 1.1//EN" "http://www.w3.org/Graphics/SVG/1.1/DTD/svg11.dtd">
<svg version="1.1" xmlns="http://www.w3.org/2000/svg" xmlns:xlink="http://www.w3.org/1999/xlink" x="0px" y="0px"
	 viewBox="0 0 48 48" enable-background="new 0 0 48 48" xml:space="preserve">
<g id="home">
</g>
<g id="home-1">
</g>
<g id="home-2">
</g>
<g id="home-3">
</g>
<g id="home-4">
</g>
<g id="door">
</g>
<g id="window">
</g>
<g id="home-5">
</g>
<g id="home-6">
</g>
<g id="home-7">
</g>
<g id="home-8">
</g>
<g id="office">
</g>
<g id="four-floors">
</g>
<g id="classic-pillers">
</g>
<g id="church">
</g>
<g id="detached-church">
</g>
<g id="wind-mill">
</g>
<g id="light-house">
</g>
<g id="light-house_1_">
</g>
<g id="light-house-2">
</g>
<g id="Trash_House-shutter">
</g>
<g id="Trash_House">
</g>
<g id="Layer_1">
</g>
<g id="tree-3">
</g>
<g id="tree-2">
</g>
<g id="tree-1">
</g>
<g id="tree">
</g>
<g id="round-tree-1">
</g>
<g id="round-tree">
</g>
<g id="triangle-tree-1">
</g>
<g id="triangle-tree">
</g>
<g id="ellips-tree-1">
</g>
<g id="ellipse-tree">
</g>
<g id="skyscraper-3">
</g>
<g id="long-story-house">
</g>
<g id="skyscrapers-1">
</g>
<g id="skyscraper">
</g>
<g id="large-building-7">
</g>
<g id="larg-building-6">
</g>
<g id="small-flat">
</g>
<g id="green-building">
</g>
<g id="squar-building">
</g>
<g id="bank">
</g>
<g id="gate-house-2">
</g>
<g id="gate-house">
</g>
<g id="pak-mahal">
</g>
<g id="Indian-mahal">
	<path fill="none" stroke="#0F0F0F" stroke-width="2" stroke-linecap="round" stroke-linejoin="round" stroke-miterlimit="10" d="
		M17,18c-0.6817455-1.1773663-1-2.9490814-1-4.4074583c0-6.8000007,8-6.9351006,8-12c0,5.1309242,8,5.1999998,8,12
		C32,15.049839,31.6808109,16.823225,31,18H17z"/>
	
		<line fill="none" stroke="#0F0F0F" stroke-width="2" stroke-linecap="round" stroke-linejoin="round" stroke-miterlimit="10" x1="18" y1="18" x2="18" y2="47"/>
	
		<line fill="none" stroke="#0F0F0F" stroke-width="2" stroke-linecap="round" stroke-linejoin="round" stroke-miterlimit="10" x1="30" y1="18" x2="30" y2="47"/>
	<path fill="none" stroke="#0F0F0F" stroke-width="2" stroke-linecap="round" stroke-linejoin="round" stroke-miterlimit="10" d="
		M30,30h9c3.8659935,0,7,3.1340065,7,7v10H2V37c0-3.8659935,3.134007-7,7-7h9"/>
	<path fill="none" stroke="#0F0F0F" stroke-width="2" stroke-linecap="round" stroke-linejoin="round" stroke-miterlimit="10" d="
		M22,47v-9.0000038C22,36.8954277,22.8954296,36,23.9999981,36h0.0000038C25.1045704,36,26,36.8954277,26,37.9999962V47"/>
	<g>
		<path fill="none" stroke="#0F0F0F" stroke-width="2" stroke-linecap="round" stroke-linejoin="round" stroke-miterlimit="10" d="
			M32,11c1.5376091-1.3472557,4-2.8613386,4-4.8134298c0,4.1688757,6.5,5.037818,6.5,10.5628176
			C42.5,17.9334431,42.183403,19,41.6302452,20H31"/>
		
			<line fill="none" stroke="#0F0F0F" stroke-width="2" stroke-linecap="round" stroke-linejoin="round" stroke-miterlimit="10" x1="40" y1="20" x2="40" y2="29"/>
	</g>
	<g>
		<path fill="none" stroke="#0F0F0F" stroke-width="2" stroke-linecap="round" stroke-linejoin="round" stroke-miterlimit="10" d="
			M16,11c-1.5376072-1.3472557-3.625-2.8613386-3.625-4.8134298c0,4.1688757-6.4375,5.037818-6.4375,10.5628176
			C5.9375,17.9334431,6.3165965,19,6.8697548,20H17"/>
		
			<line fill="none" stroke="#0F0F0F" stroke-width="2" stroke-linecap="round" stroke-linejoin="round" stroke-miterlimit="10" x1="8" y1="20" x2="8" y2="29"/>
	</g>
	<path fill="none" stroke="#0F0F0F" stroke-width="2" stroke-linecap="round" stroke-linejoin="round" stroke-miterlimit="10" d="
		M36,47h-2v-6c0-0.5522842,0.4477158-1,1-1l0,0c0.5522842,0,1,0.4477158,1,1V47z"/>
	<path fill="none" stroke="#0F0F0F" stroke-width="2" stroke-linecap="round" stroke-linejoin="round" stroke-miterlimit="10" d="
		M42,47h-2v-6c0-0.5522842,0.4477158-1,1-1l0,0c0.5522842,0,1,0.4477158,1,1V47z"/>
	<path fill="none" stroke="#0F0F0F" stroke-width="2" stroke-linecap="round" stroke-linejoin="round" stroke-miterlimit="10" d="
		M36,30h-2v-6c0-0.5522842,0.4477158-0.9999981,1-0.9999981l0,0c0.5522842,0,1,0.4477139,1,0.9999981V30z"/>
	<path fill="none" stroke="#0F0F0F" stroke-width="2" stroke-linecap="round" stroke-linejoin="round" stroke-miterlimit="10" d="
		M14,30h-2v-6c0-0.5522842,0.4477148-0.9999981,0.999999-0.9999981h0.0000019C13.5522852,23.0000019,14,23.4477158,14,24V30z"/>
	<path fill="none" stroke="#0F0F0F" stroke-width="2" stroke-linecap="round" stroke-linejoin="round" stroke-miterlimit="10" d="
		M8,47H6v-6c0-0.5522842,0.4477148-1,0.999999-1H7.000001C7.5522852,40,8,40.4477158,8,41V47z"/>
	<path fill="none" stroke="#0F0F0F" stroke-width="2" stroke-linecap="round" stroke-linejoin="round" stroke-miterlimit="10" d="
		M14,47h-2v-6c0-0.5522842,0.4477148-1,0.999999-1h0.0000019C13.5522852,40,14,40.4477158,14,41V47z"/>
	
		<line fill="none" stroke="#0F0F0F" stroke-width="2" stroke-linecap="round" stroke-linejoin="round" stroke-miterlimit="10" x1="18" y1="23" x2="29" y2="23"/>
	
		<line fill="none" stroke="#0F0F0F" stroke-width="2" stroke-linecap="round" stroke-linejoin="round" stroke-miterlimit="10" x1="22" y1="27" x2="22" y2="29"/>
	
		<line fill="none" stroke="#0F0F0F" stroke-width="2" stroke-linecap="round" stroke-linejoin="round" stroke-miterlimit="10" x1="26" y1="27" x2="26" y2="29"/>
</g>
<g id="chinees-arch">
</g>
<g id="cathedral">
</g>
<g id="pizza">
</g>
<g id="chinees">
</g>
<g id="large-factory">
</g>
<g id="factory">
</g>
<g id="villa">
</g>
<g id="shope-2">
</g>
<g id="shop">
</g>
<g id="snow-home-3">
</g>
<g id="snow-home-2">
</g>
<g id="snow-home">
</g>
<g id="small-store">
</g>
<g id="frontage-mid">
</g>
<g id="bricks-house">
</g>
<g id="old-house">
</g>
<g id="pillers-gate-2">
</g>
<g id="pillers-gate-1">
</g>
<g id="pillers-gate">
</g>
<g id="dome-pillers">
</g>
<g id="garden-piller-1">
</g>
<g id="graden-pillers">
</g>
<g id="temple-gate">
</g>
<g id="chinees-gate">
</g>
<g id="central-museum">
</g>
<g id="mosque">
</g>
<g id="garden-wall">
</g>
<g id="fire">
</g>
<g id="pyramid">
</g>
<g id="large-building-5">
</g>
<g id="large-building-4">
</g>
<g id="large-buildin-3">
</g>
<g id="large-building-2">
</g>
<g id="large-building-1">
</g>
<g id="large-building">
</g>
<g id="facto-house-1">
</g>
<g id="facto-house">
</g>
<g id="golf-area">
</g>
<g id="playground">
</g>
<g id="block-store">
</g>
<g id="favorite">
</g>
<g id="open-store">
</g>
<g id="close-store">
</g>
<g id="locate-house">
</g>
<g id="store">
</g>
<g id="block-house">
</g>
<g id="success-house">
</g>
<g id="load-house">
</g>
<g id="move-house">
</g>
<g id="close-house">
</g>
<g id="add-house">
</g>
<g id="house">
</g>
<g id="Trash_House-door">
</g>
<g id="verticle-wall">
</g>
</svg>
