<?xml version="1.0" encoding="utf-8"?>
<!-- Generator: Adobe Illustrator 18.0.0, SVG Export Plug-In . SVG Version: 6.00 Build 0)  -->
<!DOCTYPE svg PUBLIC "-//W3C//DTD SVG 1.1//EN" "http://www.w3.org/Graphics/SVG/1.1/DTD/svg11.dtd">
<svg version="1.1" xmlns="http://www.w3.org/2000/svg" xmlns:xlink="http://www.w3.org/1999/xlink" x="0px" y="0px"
	 viewBox="0 0 48 48" enable-background="new 0 0 48 48" xml:space="preserve">
<g id="home">
</g>
<g id="home-1">
</g>
<g id="home-2">
</g>
<g id="home-3">
</g>
<g id="home-4">
</g>
<g id="door">
</g>
<g id="window">
</g>
<g id="home-5">
</g>
<g id="home-6">
</g>
<g id="home-7">
</g>
<g id="home-8">
</g>
<g id="office">
</g>
<g id="four-floors">
</g>
<g id="classic-pillers">
</g>
<g id="church">
</g>
<g id="detached-church">
</g>
<g id="wind-mill">
</g>
<g id="light-house">
</g>
<g id="light-house_1_">
</g>
<g id="light-house-2">
</g>
<g id="Trash_House-shutter">
</g>
<g id="Trash_House">
</g>
<g id="Layer_1">
</g>
<g id="tree-3">
</g>
<g id="tree-2">
</g>
<g id="tree-1">
</g>
<g id="tree">
</g>
<g id="round-tree-1">
</g>
<g id="round-tree">
</g>
<g id="triangle-tree-1">
</g>
<g id="triangle-tree">
</g>
<g id="ellips-tree-1">
</g>
<g id="ellipse-tree">
</g>
<g id="skyscraper-3">
</g>
<g id="long-story-house">
</g>
<g id="skyscrapers-1">
</g>
<g id="skyscraper">
</g>
<g id="large-building-7">
</g>
<g id="larg-building-6">
	<path fill="none" stroke="#0F0F0F" stroke-width="2" stroke-linecap="round" stroke-linejoin="round" stroke-miterlimit="10" d="
		M3,32c0,0,3.1485848-4,9-4c5.6482735,0,6.8844337,1,11,1c6.6155663,0,10.4410362-4,17-4c4.8231125,0,5,2.1202831,5,2v20H3V32z"/>
	<path fill="none" stroke="#0F0F0F" stroke-width="2" stroke-linecap="round" stroke-linejoin="round" stroke-miterlimit="10" d="
		M3,37c0,0,3.1485848-4,9-4c5.6482735,0,6.8844337,1,11,1c6.6155663,0,10.4410362-4,17-4c4.8231125,0,5,2.1202812,5,2"/>
	<path fill="none" stroke="#0F0F0F" stroke-width="2" stroke-linecap="round" stroke-linejoin="round" stroke-miterlimit="10" d="
		M3,42c0,0,3.1485848-4,9-4c5.6482735,0,6.8844337,1,11,1c6.6155663,0,10.4410362-4,17-4c4.8231125,0,5,2.1202812,5,2"/>
	<path fill="none" stroke="#0F0F0F" stroke-width="2" stroke-linecap="round" stroke-linejoin="round" stroke-miterlimit="10" d="
		M3,47c0,0,3.1485848-4,9-4c5.6482735,0,6.8844337,1,11,1c6.6155663,0,10.4410362-4,17-4c4.8231125,0,5,2.1202812,5,2"/>
	<path fill="none" stroke="#0F0F0F" stroke-width="2" stroke-linecap="round" stroke-linejoin="round" stroke-miterlimit="10" d="
		M10,28V8c0,0,4.5165424-2,8-2c3.8278637,0,4,2,4,2v20"/>
	<path fill="none" stroke="#0F0F0F" stroke-width="2" stroke-linejoin="round" stroke-miterlimit="10" d="M20,6V5.187007
		c0,0,7.7748146-3.5000002,13-3.5000002c5.7417946,0,5,3.5000002,5,3.5000002V25"/>
	<path fill="none" stroke="#0F0F0F" stroke-width="2" stroke-linecap="round" stroke-linejoin="round" stroke-miterlimit="10" d="
		M10,12c0,0,4.5165424-2,8-2c3.8278637,0,4,2,4,2"/>
	<path fill="none" stroke="#0F0F0F" stroke-width="2" stroke-linecap="round" stroke-linejoin="round" stroke-miterlimit="10" d="
		M10,16c0,0,4.5165424-2,8-2c3.8278637,0,4,2,4,2"/>
	<path fill="none" stroke="#0F0F0F" stroke-width="2" stroke-linecap="round" stroke-linejoin="round" stroke-miterlimit="10" d="
		M10,20c0,0,4.5165424-2,8-2c3.8278637,0,4,2,4,2"/>
	<path fill="none" stroke="#0F0F0F" stroke-width="2" stroke-linecap="round" stroke-linejoin="round" stroke-miterlimit="10" d="
		M10,24c0,0,4.5165424-2,8-2c3.8278637,0,4,2,4,2"/>
	<path fill="none" stroke="#0F0F0F" stroke-width="2" stroke-linecap="round" stroke-linejoin="round" stroke-miterlimit="10" d="
		M10,28c0,0,2.5165424-1,6-1c3.8278637,0,6,1,6,1"/>
	<path fill="none" stroke="#0F0F0F" stroke-width="2" stroke-linejoin="round" stroke-miterlimit="10" d="M22.0001049,8.8254013
		c1.3688316-0.4162912,8.121294-3.0942764,11.5293102-3.0942764C38.9334564,5.7311249,38,9.142889,38,9.142889"/>
	<path fill="none" stroke="#0F0F0F" stroke-width="2" stroke-linejoin="round" stroke-miterlimit="10" d="M22.0001049,12.8254013
		c1.3688316-0.4162912,8.121294-3.0942764,11.5293102-3.0942764C38.9334564,9.7311249,38,13.142889,38,13.142889"/>
	<path fill="none" stroke="#0F0F0F" stroke-width="2" stroke-linejoin="round" stroke-miterlimit="10" d="M22.0001049,16.8254013
		c1.3688316-0.4162922,8.121294-3.0942764,11.5293102-3.0942764C38.9334564,13.7311249,38,17.142889,38,17.142889"/>
	<path fill="none" stroke="#0F0F0F" stroke-width="2" stroke-linejoin="round" stroke-miterlimit="10" d="M22.0001049,20.8254013
		c1.3688316-0.4162922,8.121294-3.0942764,11.5293102-3.0942764C38.9334564,17.7311249,38,21.142889,38,21.142889"/>
	<path fill="none" stroke="#0F0F0F" stroke-width="2" stroke-linejoin="round" stroke-miterlimit="10" d="M22.0001049,24.8254013
		c1.2832794-0.4162922,7.8637123-3.0942764,11.0587254-3.0942764C38.1251144,21.7311249,37,25.142889,37,25.142889"/>
	
		<line fill="none" stroke="#0F0F0F" stroke-width="2" stroke-linejoin="round" stroke-miterlimit="10" x1="39" y1="40" x2="39" y2="47"/>
	
		<line fill="none" stroke="#0F0F0F" stroke-width="2" stroke-linejoin="round" stroke-miterlimit="10" x1="34" y1="41" x2="34" y2="47"/>
	
		<line fill="none" stroke="#0F0F0F" stroke-width="2" stroke-linejoin="round" stroke-miterlimit="10" x1="29" y1="43" x2="29" y2="47"/>
	
		<line fill="none" stroke="#0F0F0F" stroke-width="2" stroke-linejoin="round" stroke-miterlimit="10" x1="23" y1="44" x2="23" y2="47"/>
	
		<line fill="none" stroke="#0F0F0F" stroke-width="2" stroke-linejoin="round" stroke-miterlimit="10" x1="17" y1="43" x2="17" y2="47"/>
	
		<line fill="none" stroke="#0F0F0F" stroke-width="2" stroke-linejoin="round" stroke-miterlimit="10" x1="11" y1="43" x2="11" y2="47"/>
</g>
<g id="small-flat">
</g>
<g id="green-building">
</g>
<g id="squar-building">
</g>
<g id="bank">
</g>
<g id="gate-house-2">
</g>
<g id="gate-house">
</g>
<g id="pak-mahal">
</g>
<g id="Indian-mahal">
</g>
<g id="chinees-arch">
</g>
<g id="cathedral">
</g>
<g id="pizza">
</g>
<g id="chinees">
</g>
<g id="large-factory">
</g>
<g id="factory">
</g>
<g id="villa">
</g>
<g id="shope-2">
</g>
<g id="shop">
</g>
<g id="snow-home-3">
</g>
<g id="snow-home-2">
</g>
<g id="snow-home">
</g>
<g id="small-store">
</g>
<g id="frontage-mid">
</g>
<g id="bricks-house">
</g>
<g id="old-house">
</g>
<g id="pillers-gate-2">
</g>
<g id="pillers-gate-1">
</g>
<g id="pillers-gate">
</g>
<g id="dome-pillers">
</g>
<g id="garden-piller-1">
</g>
<g id="graden-pillers">
</g>
<g id="temple-gate">
</g>
<g id="chinees-gate">
</g>
<g id="central-museum">
</g>
<g id="mosque">
</g>
<g id="garden-wall">
</g>
<g id="fire">
</g>
<g id="pyramid">
</g>
<g id="large-building-5">
</g>
<g id="large-building-4">
</g>
<g id="large-buildin-3">
</g>
<g id="large-building-2">
</g>
<g id="large-building-1">
</g>
<g id="large-building">
</g>
<g id="facto-house-1">
</g>
<g id="facto-house">
</g>
<g id="golf-area">
</g>
<g id="playground">
</g>
<g id="block-store">
</g>
<g id="favorite">
</g>
<g id="open-store">
</g>
<g id="close-store">
</g>
<g id="locate-house">
</g>
<g id="store">
</g>
<g id="block-house">
</g>
<g id="success-house">
</g>
<g id="load-house">
</g>
<g id="move-house">
</g>
<g id="close-house">
</g>
<g id="add-house">
</g>
<g id="house">
</g>
<g id="Trash_House-door">
</g>
<g id="verticle-wall">
</g>
</svg>
