<?xml version="1.0" encoding="utf-8"?>
<!-- Generator: Adobe Illustrator 18.0.0, SVG Export Plug-In . SVG Version: 6.00 Build 0)  -->
<!DOCTYPE svg PUBLIC "-//W3C//DTD SVG 1.1//EN" "http://www.w3.org/Graphics/SVG/1.1/DTD/svg11.dtd">
<svg version="1.1" xmlns="http://www.w3.org/2000/svg" xmlns:xlink="http://www.w3.org/1999/xlink" x="0px" y="0px"
	 viewBox="0 0 48 48" enable-background="new 0 0 48 48" xml:space="preserve">
<g id="Layer_1">
</g>
<g id="beach">
</g>
<g id="ice-2">
</g>
<g id="goast-3">
</g>
<g id="rip">
</g>
<g id="beach_tree">
</g>
<g id="goast_1_">
</g>
<g id="boarn">
</g>
<g id="semithery">
</g>
<g id="skelten">
	<circle fill="none" stroke="#000000" stroke-width="2" stroke-miterlimit="10" cx="16" cy="22.0171127" r="5"/>
	<circle fill="none" stroke="#000000" stroke-width="2" stroke-miterlimit="10" cx="32" cy="22.0171127" r="5"/>
	<path fill="none" stroke="#000000" stroke-width="2" stroke-miterlimit="10" d="M22.7171726,30.1438789l-2.9701939,4.9503212
		c-0.5999813,0.9999695,0.367979,2.206646,1.4742908,1.8378754L24,36.0058327l1.9325447,0.7730179
		c1.072382,0.4289513,2.1065006-0.6949272,1.5899734-1.7279816l-2.4074497-4.8148994
		C24.6320572,29.2699451,23.2728519,29.2177448,22.7171726,30.1438789z"/>
	<path fill="none" stroke="#000000" stroke-width="2" stroke-linejoin="round" stroke-miterlimit="10" d="M24,46h2.12924
		l0.9999352-4l0.9999371,4l3.9998741-1l-1.0002518-4l1.9994965,3l2.9989891-1.9828835L36,36c0,0,3.3333321-0.0833321,5-2
		c2.1043968-2.4200554,0.1130829-5.9828854,0.1130829-5.9828854s4.7963448-11.0710564-1.0161552-19.0085564
		S24.0646191,2,24.0646191,2H24c0,0-10.1875029-0.9289423-16,7.0085573S7,28.0128365,7,28.0128365S5.2210498,31.3315754,7,34
		c1.166667,1.75,5,2,5,2v6.0165787l3,1.9831543l2-2.9998665l-1,4.0000648l4,1.0000343l1-3.9999809L22,46H24z"/>
</g>
<g id="halloween">
</g>
<g id="wizard-hat">
</g>
<g id="dark_cat">
</g>
<g id="net">
</g>
<g id="coffin">
</g>
<g id="goast">
</g>
<g id="fish">
</g>
<g id="night">
</g>
<g id="bat-2">
</g>
<g id="bat">
</g>
<g id="Layer_2">
</g>
<g id="Layer_3">
</g>
<g id="Layer_4">
</g>
<g id="Layer_5">
</g>
<g id="Layer_6">
</g>
<g id="ghost">
</g>
</svg>
