<?xml version="1.0" encoding="utf-8"?>
<!-- Generator: Adobe Illustrator 18.0.0, SVG Export Plug-In . SVG Version: 6.00 Build 0)  -->
<!DOCTYPE svg PUBLIC "-//W3C//DTD SVG 1.1//EN" "http://www.w3.org/Graphics/SVG/1.1/DTD/svg11.dtd">
<svg version="1.1" xmlns="http://www.w3.org/2000/svg" xmlns:xlink="http://www.w3.org/1999/xlink" x="0px" y="0px"
	 viewBox="0 0 48 48" enable-background="new 0 0 48 48" xml:space="preserve">
<g id="Layer_1">
</g>
<g id="beach">
</g>
<g id="ice-2">
</g>
<g id="goast-3">
</g>
<g id="rip">
</g>
<g id="beach_tree">
</g>
<g id="goast_1_">
</g>
<g id="boarn">
</g>
<g id="semithery">
</g>
<g id="skelten">
</g>
<g id="halloween">
</g>
<g id="wizard-hat">
</g>
<g id="dark_cat">
</g>
<g id="net">
</g>
<g id="coffin">
</g>
<g id="goast">
</g>
<g id="fish">
</g>
<g id="night">
	<path fill="none" stroke="#000000" stroke-width="2" stroke-linecap="round" stroke-linejoin="round" stroke-miterlimit="10" d="
		M33.8252563,39.9750366c-12.1502686,0-22-9.8497314-22-22c0-5.8942261,2.3224487-11.2427368,6.0965576-15.1923218
		C8.6397095,5.3632813,1.8252563,13.8706665,1.8252563,23.9750366c0,12.1502686,9.8497314,22,22,22
		c6.2560425,0,11.8977051-2.6156006,15.9034424-6.8076782C37.8493042,39.6898193,35.8711548,39.9750366,33.8252563,39.9750366z"/>
	
		<polygon fill="none" stroke="#000000" stroke-width="2" stroke-linecap="round" stroke-linejoin="round" stroke-miterlimit="10" points="
		38,6.5755501 39.4375916,11 44.0897331,11 40.3260727,13.7451239 41.7636604,18.1749058 38,15.4431105 34.2363396,18.1789036 
		35.6739273,13.7444572 31.9102669,11 36.5624084,11 	"/>
	
		<polygon fill="none" stroke="#000000" stroke-width="2" stroke-linecap="round" stroke-linejoin="round" stroke-miterlimit="10" points="
		24,4.5086255 24.8094959,7 27.4290829,7 25.3097935,8.482666 26.1192894,10.9454966 24,9.39147 21.8807106,10.9240885 
		22.6902065,8.4862337 20.5709171,7 23.1905041,7 	"/>
	
		<polygon fill="none" stroke="#000000" stroke-width="2" stroke-linecap="round" stroke-linejoin="round" stroke-miterlimit="10" points="
		32,26.508625 32.8094978,29 35.4290848,29 33.3097916,30.482666 34.1192894,32.9454956 32,31.39147 29.8807106,32.9240875 
		30.6902065,30.4862347 28.5709171,29 31.1905041,29 	"/>
</g>
<g id="bat-2">
</g>
<g id="bat">
</g>
<g id="Layer_2">
</g>
<g id="Layer_3">
</g>
<g id="Layer_4">
</g>
<g id="Layer_5">
</g>
<g id="Layer_6">
</g>
<g id="ghost">
</g>
</svg>
