<?xml version="1.0" encoding="utf-8"?>
<!-- Generator: Adobe Illustrator 18.0.0, SVG Export Plug-In . SVG Version: 6.00 Build 0)  -->
<!DOCTYPE svg PUBLIC "-//W3C//DTD SVG 1.1//EN" "http://www.w3.org/Graphics/SVG/1.1/DTD/svg11.dtd">
<svg version="1.1" xmlns="http://www.w3.org/2000/svg" xmlns:xlink="http://www.w3.org/1999/xlink" x="0px" y="0px"
	 viewBox="0 0 48 48" enable-background="new 0 0 48 48" xml:space="preserve">
<g id="Layer_1">
</g>
<g id="beach">
</g>
<g id="ice-2">
</g>
<g id="goast-3">
</g>
<g id="rip">
</g>
<g id="beach_tree">
</g>
<g id="goast_1_">
</g>
<g id="boarn">
</g>
<g id="semithery">
</g>
<g id="skelten">
</g>
<g id="halloween">
</g>
<g id="wizard-hat">
</g>
<g id="dark_cat">
	<g>
		<path fill="none" stroke="#000000" stroke-width="2" stroke-linecap="round" stroke-linejoin="round" stroke-miterlimit="10" d="
			M24,46c-5.5654545,0-7.3265133-3.4353104-11-9c-2.5236311-3.8228569-8-9.1766148-8-13c0,0-0.5833335-4.333334,0-6C5,18,1.25,5,2,2
			c0,0,11.833333-1.5,14,10c0,0,2.583334-2,8-2"/>
		<path fill="none" stroke="#000000" stroke-width="2" stroke-linecap="round" stroke-linejoin="round" stroke-miterlimit="10" d="
			M23.9504128,46c5.5654564,0,7.3265133-3.4353104,11-9c2.523632-3.8228569,8-9.1766148,8-13c0,0,0.5833321-4.333334,0-6
			c0,0,3.75-13,3-16c0,0-11.8333321-1.5-14,10c0,0-2.5833321-2-8-2"/>
		<path fill="none" stroke="#000000" stroke-width="2" stroke-linecap="round" stroke-linejoin="round" stroke-miterlimit="10" d="
			M27,22c0,0,1.833334-6.25,10-5c0,0,1.0462456,3.3353977-3,6C30.583334,25.25,27,22,27,22z"/>
		<path fill="none" stroke="#000000" stroke-width="2" stroke-linecap="round" stroke-linejoin="round" stroke-miterlimit="10" d="
			M21.0607815,22c0,0-1.8333321-6.25-10-5c0,0-1.0462475,3.3353977,3,6C17.4774494,25.25,21.0607815,22,21.0607815,22z"/>
		<path fill="none" stroke="#000000" stroke-width="2" stroke-linecap="round" stroke-linejoin="round" stroke-miterlimit="10" d="
			M28,32.4000015C28,34.6091385,26.2091389,38,24,38s-4-3.3908615-4-5.5999985C20,30.1908607,21.7908611,30,24,30
			S28,30.1908607,28,32.4000015z"/>
		<path fill="none" stroke="#000000" stroke-width="2" stroke-linecap="round" stroke-linejoin="round" stroke-miterlimit="10" d="
			M31,32c0,0,7.75,0.25,13,6"/>
		<path fill="none" stroke="#000000" stroke-width="2" stroke-linecap="round" stroke-linejoin="round" stroke-miterlimit="10" d="
			M32,28c0,0,7.3333321-2.583334,13,0"/>
		<path fill="none" stroke="#000000" stroke-width="2" stroke-linecap="round" stroke-linejoin="round" stroke-miterlimit="10" d="
			M17,32c0,0-7.75,0.25-13,6"/>
		<path fill="none" stroke="#000000" stroke-width="2" stroke-linecap="round" stroke-linejoin="round" stroke-miterlimit="10" d="
			M16,28c0,0-7.333333-2.583334-13,0"/>
		<path fill="none" stroke="#000000" stroke-width="2" stroke-linecap="round" stroke-linejoin="round" stroke-miterlimit="10" d="
			M17,18c0,0-1.833333,1.666666-2,3"/>
		<path fill="none" stroke="#000000" stroke-width="2" stroke-linecap="round" stroke-linejoin="round" stroke-miterlimit="10" d="
			M31,18c0,0,1.8333321,0.916666,2,3"/>
	</g>
</g>
<g id="net">
</g>
<g id="coffin">
</g>
<g id="goast">
</g>
<g id="fish">
</g>
<g id="night">
</g>
<g id="bat-2">
</g>
<g id="bat">
</g>
<g id="Layer_2">
</g>
<g id="Layer_3">
</g>
<g id="Layer_4">
</g>
<g id="Layer_5">
</g>
<g id="Layer_6">
</g>
<g id="ghost">
</g>
</svg>
