<?xml version="1.0" encoding="utf-8"?>
<!-- Generator: Adobe Illustrator 18.0.0, SVG Export Plug-In . SVG Version: 6.00 Build 0)  -->
<!DOCTYPE svg PUBLIC "-//W3C//DTD SVG 1.1//EN" "http://www.w3.org/Graphics/SVG/1.1/DTD/svg11.dtd">
<svg version="1.1" xmlns="http://www.w3.org/2000/svg" xmlns:xlink="http://www.w3.org/1999/xlink" x="0px" y="0px"
	 viewBox="0 0 48 48" enable-background="new 0 0 48 48" xml:space="preserve">
<g id="Layer_1">
</g>
<g id="beach">
</g>
<g id="ice-2">
</g>
<g id="goast-3">
</g>
<g id="rip">
</g>
<g id="beach_tree">
</g>
<g id="goast_1_">
</g>
<g id="boarn">
</g>
<g id="semithery">
</g>
<g id="skelten">
</g>
<g id="halloween">
	<g>
		<path fill="none" stroke="#000000" stroke-width="2" stroke-linejoin="round" stroke-miterlimit="10" d="M36.5268898,11.7230387
			c-2.415535-0.2017479-4.7152176,0.474946-6.6134777,1.9808712c-1.7907238-1.653019-4.0375423-2.5109835-6.4584637-2.5022068
			c-2.1927109,0.0079441-4.2324581,0.7390289-5.9210567,2.1119957c-1.7849741-1.2218523-3.8729496-1.7733755-6.0607777-1.5906515
			c-6.4848828,0.5416231-10.9142694,7.159008-9.387578,18.1350746s6.5456161,15.9670849,11.7879038,15.5292568
			c1.768609-0.1477051,3.3757191-0.9180717,4.7670803-2.2780991c1.4877377,1.2347832,3.1463146,1.8630905,4.918869,1.8566666
			c1.9570389-0.0070839,3.7770729-0.7697525,5.3676777-2.2879562c1.4830627,1.6407585,3.2468109,2.5462914,5.1994972,2.7093544
			c5.2422905,0.4378128,10.2612038-4.553154,11.7879028-15.5292225
			C47.4411621,18.8820553,43.0117722,12.2646542,36.5268898,11.7230387z"/>
	</g>
	<path fill="none" stroke="#000000" stroke-width="2" stroke-linejoin="round" stroke-miterlimit="10" d="M21,11
		c0,0-0.1130085-10.1760845,12-10v3c0,0-7.2562408-2.5584757-7,7"/>
	<path fill="none" stroke="#000000" stroke-width="2" stroke-linejoin="round" stroke-miterlimit="10" d="M31.887249,33.2884903
		l0.3982124,1.5622368l-3.7537384,0.9567261l-0.3063583-1.2019691c-2.786726,0.6694031-5.6952133,0.6662102-8.4810524-0.0080986
		l-0.3532314,1.2437592l-3.7263126-1.0583344l0.4272366-1.5041313c-2.6982994-1.3125038-5.1841078-3.3278046-7.1235723-6.0590858
		c0,0,1.0315676,12.2392845,13.0315676,13.4732895V39h4v1.6911087C37,39.446701,39.0315666,27.219593,39.0315666,27.219593
		C37.0871391,29.9578495,34.5937042,31.9762249,31.887249,33.2884903z"/>
	<polygon fill="none" stroke="#000000" stroke-width="2" stroke-linejoin="round" stroke-miterlimit="10" points="24,24 20,29 
		28,29 	"/>
	<path fill="none" stroke="#000000" stroke-width="2" stroke-linejoin="round" stroke-miterlimit="10" d="M28.2867756,22.1075459
		c0,0,5.5910168-6.0825787,7.2108974-4.349966C37.0229149,19.3889656,36.5716171,23.055191,33,23
		C30.0007038,22.9536533,28.2867756,22.1075459,28.2867756,22.1075459z"/>
	<path fill="none" stroke="#000000" stroke-width="2" stroke-linejoin="round" stroke-miterlimit="10" d="M20.0369854,22.1075459
		c0,0-5.5910187-6.0825787-7.2108994-4.349966C11.3008451,19.3889656,11.7521429,23.055191,15.3237591,23
		C18.3230553,22.9536533,20.0369854,22.1075459,20.0369854,22.1075459z"/>
</g>
<g id="wizard-hat">
</g>
<g id="dark_cat">
</g>
<g id="net">
</g>
<g id="coffin">
</g>
<g id="goast">
</g>
<g id="fish">
</g>
<g id="night">
</g>
<g id="bat-2">
</g>
<g id="bat">
</g>
<g id="Layer_2">
</g>
<g id="Layer_3">
</g>
<g id="Layer_4">
</g>
<g id="Layer_5">
</g>
<g id="Layer_6">
</g>
<g id="ghost">
</g>
</svg>
