<?xml version="1.0" encoding="utf-8"?>
<!-- Generator: Adobe Illustrator 18.0.0, SVG Export Plug-In . SVG Version: 6.00 Build 0)  -->
<!DOCTYPE svg PUBLIC "-//W3C//DTD SVG 1.1//EN" "http://www.w3.org/Graphics/SVG/1.1/DTD/svg11.dtd">
<svg version="1.1" xmlns="http://www.w3.org/2000/svg" xmlns:xlink="http://www.w3.org/1999/xlink" x="0px" y="0px"
	 viewBox="0 0 48 48" enable-background="new 0 0 48 48" xml:space="preserve">
<g id="Layer_1">
	<path fill="none" stroke="#000000" stroke-width="2" stroke-linecap="round" stroke-linejoin="round" stroke-miterlimit="10" d="
		M16.5852814,18.7940979C14.3678617,19.8768578,13,21.3617535,13,23c0,3.3137093,5.5964413,6,12.5,6s12.2995377-2.6923599,12.5-6
		c0.125-2.0625-2.875-4.5-8.25-4.875"/>
	<path fill="none" stroke="#000000" stroke-width="2" stroke-linecap="round" stroke-linejoin="round" stroke-miterlimit="10" d="
		M23,16c0,0-5.625-1.625-4-6s8-7,8-7s-0.6875,2.6875,1,4s5.4375,2.875,5,6"/>
	<path fill="none" stroke="#000000" stroke-width="2" stroke-linecap="round" stroke-linejoin="round" stroke-miterlimit="10" d="
		M36,19.8125c0,0,1.208271-1.7621002,0-3.8125c-2.0625-3.5-8-3-8-3"/>
	<path fill="none" stroke="#000000" stroke-width="2" stroke-linecap="round" stroke-linejoin="round" stroke-miterlimit="10" d="
		M18.4375,12.5c0,0-7.3125,4.5,2.5625,9.5"/>
	<path fill="none" stroke="#000000" stroke-width="2" stroke-linecap="round" stroke-linejoin="round" stroke-miterlimit="10" d="
		M13.953125,25.328125l10.2595215,19.3772507c0.4180603,0.7964172,1.5539761,0.8084412,1.9888039,0.0210533L36.75,25.625"/>
</g>
<g id="beach">
</g>
<g id="ice-2">
</g>
<g id="goast-3">
</g>
<g id="rip">
</g>
<g id="beach_tree">
</g>
<g id="goast_1_">
</g>
<g id="boarn">
</g>
<g id="semithery">
</g>
<g id="skelten">
</g>
<g id="halloween">
</g>
<g id="wizard-hat">
</g>
<g id="dark_cat">
</g>
<g id="net">
</g>
<g id="coffin">
</g>
<g id="goast">
</g>
<g id="fish">
</g>
<g id="night">
</g>
<g id="bat-2">
</g>
<g id="bat">
</g>
<g id="Layer_2">
</g>
<g id="Layer_3">
</g>
<g id="Layer_4">
</g>
<g id="Layer_5">
</g>
<g id="Layer_6">
</g>
<g id="ghost">
</g>
</svg>
