<?xml version="1.0" encoding="utf-8"?>
<!-- Generator: Adobe Illustrator 18.0.0, SVG Export Plug-In . SVG Version: 6.00 Build 0)  -->
<!DOCTYPE svg PUBLIC "-//W3C//DTD SVG 1.1//EN" "http://www.w3.org/Graphics/SVG/1.1/DTD/svg11.dtd">
<svg version="1.1" xmlns="http://www.w3.org/2000/svg" xmlns:xlink="http://www.w3.org/1999/xlink" x="0px" y="0px"
	 viewBox="0 0 48 48" enable-background="new 0 0 48 48" xml:space="preserve">
<g id="Layer_1">
</g>
<g id="beach">
</g>
<g id="ice-2">
</g>
<g id="goast-3">
</g>
<g id="rip">
	<path fill="none" stroke="#000000" stroke-width="2" stroke-miterlimit="10" d="M11,38V16.4999886C11,9.8725777,16.3725891,4,23,4
		l0,0c6.6274109,0,12,5.8725777,12,12.4999886V45H18"/>
	<path fill="none" stroke="#000000" stroke-width="2" stroke-linejoin="round" stroke-miterlimit="10" d="M15,48
		c0-4.5961952-1.916667-11.9166679-13-13c0,0,9,3.5,9,13"/>
	<path fill="none" stroke="#000000" stroke-width="2" stroke-linejoin="round" stroke-miterlimit="10" d="M12,40
		c0,0,1.833333-7.5,8.5-7.5c0,0-5.75,3.6666679-5.5,15.5"/>
	<path fill="none" stroke="#000000" stroke-width="2" stroke-linejoin="round" stroke-miterlimit="10" d="M15,42
		c0,0,3.25-5.4166679,8-6c0,0-5,3.6666679-5,12"/>
	<path fill="none" stroke="#000000" stroke-width="2" stroke-miterlimit="10" d="M24,4h5c6.6274109,0,12,5.8725777,12,12.4999886V39
		l-6,6"/>
	<line fill="none" stroke="#000000" stroke-width="2" stroke-miterlimit="10" x1="41" y1="39" x2="46" y2="39"/>
	<line fill="none" stroke="#000000" stroke-width="2" stroke-miterlimit="10" x1="10" y1="43" x2="3" y2="43"/>
	<text transform="matrix(1 0 0 1 13.9999399 22.999979)" font-family="'Gotham-Medium'" font-size="9.4710302">RIP</text>
</g>
<g id="beach_tree">
</g>
<g id="goast_1_">
</g>
<g id="boarn">
</g>
<g id="semithery">
</g>
<g id="skelten">
</g>
<g id="halloween">
</g>
<g id="wizard-hat">
</g>
<g id="dark_cat">
</g>
<g id="net">
</g>
<g id="coffin">
</g>
<g id="goast">
</g>
<g id="fish">
</g>
<g id="night">
</g>
<g id="bat-2">
</g>
<g id="bat">
</g>
<g id="Layer_2">
</g>
<g id="Layer_3">
</g>
<g id="Layer_4">
</g>
<g id="Layer_5">
</g>
<g id="Layer_6">
</g>
<g id="ghost">
</g>
</svg>
