<?xml version="1.0" encoding="utf-8"?>
<!-- Generator: Adobe Illustrator 18.0.0, SVG Export Plug-In . SVG Version: 6.00 Build 0)  -->
<!DOCTYPE svg PUBLIC "-//W3C//DTD SVG 1.1//EN" "http://www.w3.org/Graphics/SVG/1.1/DTD/svg11.dtd">
<svg version="1.1" xmlns="http://www.w3.org/2000/svg" xmlns:xlink="http://www.w3.org/1999/xlink" x="0px" y="0px"
	 viewBox="0 0 48 48" enable-background="new 0 0 48 48" xml:space="preserve">
<g id="Layer_1">
</g>
<g id="beach">
</g>
<g id="ice-2">
</g>
<g id="goast-3">
</g>
<g id="rip">
</g>
<g id="beach_tree">
</g>
<g id="goast_1_">
</g>
<g id="boarn">
</g>
<g id="semithery">
</g>
<g id="skelten">
</g>
<g id="halloween">
</g>
<g id="wizard-hat">
</g>
<g id="dark_cat">
</g>
<g id="net">
</g>
<g id="coffin">
</g>
<g id="goast">
	<g>
		<path fill="none" stroke="#000000" stroke-width="2" stroke-linecap="round" stroke-linejoin="round" stroke-miterlimit="10" d="
			M42.390934,24.0407352c0,10.217268-8.2827339,22.5000019-18.5000019,22.5000019s-18.5-12.2827339-18.5-22.5000019
			s8.282732-10.499999,18.5-10.499999S42.390934,13.8234682,42.390934,24.0407352z"/>
		<g>
			<path fill="none" stroke="#000000" stroke-width="2" stroke-linecap="round" stroke-linejoin="round" stroke-miterlimit="10" d="
				M32,21c2.5164375,0,4.4901352,2.3237438,3.8923454,4.9424839c-0.329998,1.445631-1.5042305,2.6198635-2.9498634,2.9498634
				c-0.9820251,0.2241707-1.9225693,0.0867252-2.7146454-0.3053493c-2.0349331-1.0072861-2.4600506-3.7289906-1.0448284-5.5045834
				C30.3828278,21.5770721,32.6164055,19.6333771,36.4166679,19"/>
			<path fill="none" stroke="#000000" stroke-width="2" stroke-linecap="round" stroke-linejoin="round" stroke-miterlimit="10" d="
				M26,26"/>
			
				<circle fill="none" stroke="#000000" stroke-width="2" stroke-linecap="round" stroke-linejoin="round" stroke-miterlimit="10" cx="32" cy="25" r="0.5"/>
		</g>
		<g>
			<path fill="none" stroke="#000000" stroke-width="2" stroke-linecap="round" stroke-linejoin="round" stroke-miterlimit="10" d="
				M35.1479187,36.8594208c-0.4664688,1.5898285-5.3986931-0.6016541-11.1479111-0.6016541
				s-10.6814518,2.1914978-11.1479168,0.6016693c-0.466466-1.5898438,4.4561195-4.6016693,11.1479111-4.6016693
				S35.6143837,35.269577,35.1479187,36.8594208z"/>
		</g>
		<g>
			<path fill="none" stroke="#000000" stroke-width="2" stroke-linecap="round" stroke-linejoin="round" stroke-miterlimit="10" d="
				M31.75,13.625c0,0,7.2083321-3.708333,11.4809303-10.4857073c0.6330643-1.0041902,2.2313728-0.5187643,2.3624649,0.6610577
				C46.14217,8.7392712,46.8802299,17.3304558,42.5624886,22.9375"/>
			<path fill="none" stroke="#000000" stroke-width="2" stroke-linecap="round" stroke-linejoin="round" stroke-miterlimit="10" d="
				M35.6666679,11.583333c0,0,3.5,0.25,4.6666641,1.75"/>
			<path fill="none" stroke="#000000" stroke-width="2" stroke-linecap="round" stroke-linejoin="round" stroke-miterlimit="10" d="
				M38.75,8.75c0,0,2.4166679-0.083333,3.0833321,1.083333"/>
			<path fill="none" stroke="#000000" stroke-width="2" stroke-linecap="round" stroke-linejoin="round" stroke-miterlimit="10" d="
				M41.4166679,6c0,0,1.5833321-0.25,2,0.5"/>
		</g>
		<g>
			<path fill="none" stroke="#000000" stroke-width="2" stroke-linecap="round" stroke-linejoin="round" stroke-miterlimit="10" d="
				M16.0149651,13.625c0,0-7.208334-3.708333-11.4809322-10.4857073C3.9009712,2.1351027,2.3026609,2.6205287,2.1715684,3.8003507
				C1.6227942,8.7392712,0.884735,17.3304558,5.2024641,22.9375"/>
			<path fill="none" stroke="#000000" stroke-width="2" stroke-linecap="round" stroke-linejoin="round" stroke-miterlimit="10" d="
				M12.0982981,11.583333c0,0-3.5,0.25-4.666667,1.75"/>
			<path fill="none" stroke="#000000" stroke-width="2" stroke-linecap="round" stroke-linejoin="round" stroke-miterlimit="10" d="
				M9.0149641,8.75c0,0-2.4166665-0.083333-3.083333,1.083333"/>
			<path fill="none" stroke="#000000" stroke-width="2" stroke-linecap="round" stroke-linejoin="round" stroke-miterlimit="10" d="
				M6.3482976,6c0,0-1.5833335-0.25-2,0.5"/>
		</g>
		<g>
			<path fill="none" stroke="#000000" stroke-width="2" stroke-linecap="round" stroke-linejoin="round" stroke-miterlimit="10" d="
				M16.416666,21c-2.5164375,0-4.4901361,2.3237438-3.8923464,4.9424839
				c0.3299999,1.445631,1.5042315,2.6198635,2.9498634,2.9498634c0.982028,0.2241707,1.9225702,0.0867252,2.7146463-0.3053493
				c2.034935-1.0072861,2.4600506-3.7289906,1.0448284-5.5045834C18.0338383,21.5770721,15.8002615,19.6333771,12,19"/>
			<path fill="none" stroke="#000000" stroke-width="2" stroke-linecap="round" stroke-linejoin="round" stroke-miterlimit="10" d="
				M22.416666,26"/>
			
				<circle fill="none" stroke="#000000" stroke-width="2" stroke-linecap="round" stroke-linejoin="round" stroke-miterlimit="10" cx="16.4166565" cy="25" r="0.5"/>
		</g>
	</g>
</g>
<g id="fish">
</g>
<g id="night">
</g>
<g id="bat-2">
</g>
<g id="bat">
</g>
<g id="Layer_2">
</g>
<g id="Layer_3">
</g>
<g id="Layer_4">
</g>
<g id="Layer_5">
</g>
<g id="Layer_6">
</g>
<g id="ghost">
</g>
</svg>
