<?xml version="1.0" encoding="utf-8"?>
<!-- Generator: Adobe Illustrator 18.0.0, SVG Export Plug-In . SVG Version: 6.00 Build 0)  -->
<!DOCTYPE svg PUBLIC "-//W3C//DTD SVG 1.1//EN" "http://www.w3.org/Graphics/SVG/1.1/DTD/svg11.dtd">
<svg version="1.1" xmlns="http://www.w3.org/2000/svg" xmlns:xlink="http://www.w3.org/1999/xlink" x="0px" y="0px"
	 viewBox="0 0 48 48" enable-background="new 0 0 48 48" xml:space="preserve">
<g id="Layer_1">
</g>
<g id="good_luck_bird">
</g>
<g id="event-go">
</g>
<g id="cancel-date">
</g>
<g id="evet-date">
</g>
<g id="event-list">
</g>
<g id="flight">
</g>
<g id="travel-bag">
</g>
<g id="limejuice">
</g>
<g id="beach-2_1_">
</g>
<g id="beach-2">
</g>
<g id="soks">
</g>
<g id="eye_wear">
</g>
<g id="skin-doll">
</g>
<g id="dec-bell">
</g>
<g id="dec-egg-2">
</g>
<g id="dec-egg">
</g>
<g id="flower-1">
</g>
<g id="flower">
</g>
<g id="light_house-2">
</g>
<g id="light-house">
</g>
<g id="snow-mountain">
</g>
<g id="light">
</g>
<g id="corn-ice">
</g>
<g id="beach-stand">
</g>
<g id="umberlla">
</g>
<g id="lifeguard">
</g>
<g id="direct">
</g>
<g id="bag-2">
</g>
<g id="bag-1">
</g>
<g id="balloon_1_">
</g>
<g id="balloon">
</g>
<g id="stars">
</g>
<g id="star-large">
</g>
<g id="decorate">
</g>
<g id="star">
</g>
<g id="ball-tree">
</g>
<g id="giftballoon">
</g>
<g id="decorate-1">
</g>
<g id="ribbon">
</g>
<g id="places">
</g>
<g id="bag">
</g>
<g id="christmass-ball-4">
</g>
<g id="christmas-ball-3">
</g>
<g id="cristmass-ball-2">
</g>
<g id="basket-gift">
</g>
<g id="hot_coffee">
</g>
<g id="lollipop-2">
</g>
<g id="lollipop_2">
</g>
<g id="ribbon_hold">
</g>
<g id="ribbons">
</g>
<g id="offer">
</g>
<g id="candels">
</g>
<g id="halloween">
</g>
<g id="egg-dec">
</g>
<g id="shore">
</g>
<g id="hot_air_balloon">
</g>
<g id="leef">
</g>
<g id="puppies">
</g>
<g id="ship">
</g>
<g id="goat">
</g>
<g id="tend">
</g>
<g id="watermelon">
</g>
<g id="lollipop">
	<path fill="none" stroke="#000000" stroke-width="2" stroke-linecap="round" stroke-linejoin="round" stroke-miterlimit="10" d="
		M25.6317272,25.0700207c-5.3894444,0-9.7584543-4.369009-9.7584543-9.7584553c0-4.3115568,3.4952078-7.8067641,7.8067636-7.8067641
		c3.4492455,0,6.2454109,2.7961659,6.2454109,6.2454114c0,2.7593966-2.2369328,4.9963293-4.9963284,4.9963293
		c-2.2075176,0-3.9970627-1.789547-3.9970627-3.9970636c0-1.7660141,1.4316368-3.1976509,3.1976509-3.1976509
		c1.4128094,0,2.5581188,1.1453094,2.5581188,2.5581207c0,1.130249-0.9162464,2.0464964-2.0464954,2.0464964
		c-0.9041996,0-1.6371975-0.7329979-1.6371975-1.6371965"/>
	
		<circle fill="none" stroke="#000000" stroke-width="2" stroke-linecap="round" stroke-linejoin="round" stroke-miterlimit="10" cx="24.25" cy="13.4969482" r="11.5"/>
	
		<line fill="none" stroke="#000000" stroke-width="2" stroke-linecap="round" stroke-linejoin="round" stroke-miterlimit="10" x1="24" y1="26" x2="24" y2="46"/>
	
		<line fill="none" stroke="#000000" stroke-width="2" stroke-linecap="round" stroke-linejoin="round" stroke-miterlimit="10" x1="37" y1="30" x2="37" y2="46"/>
	
		<circle fill="none" stroke="#000000" stroke-width="2" stroke-linecap="round" stroke-linejoin="round" stroke-miterlimit="10" cx="37.1734619" cy="24.8265381" r="5.1734562"/>
	<path fill="none" stroke="#000000" stroke-width="2" stroke-linecap="round" stroke-linejoin="round" stroke-miterlimit="10" d="
		M21,24c0,4.970562-4.029438,9-9,9s-9-4.029438-9-9s4.0294371-9,9-9"/>
	
		<line fill="none" stroke="#000000" stroke-width="2" stroke-linecap="round" stroke-linejoin="round" stroke-miterlimit="10" x1="12" y1="33" x2="12" y2="46"/>
	<path fill="none" stroke="#000000" stroke-width="2" stroke-linecap="round" stroke-linejoin="round" stroke-miterlimit="10" d="
		M10.8339577,32.811142c-3.3828969-1.0304222-5.2899551-4.6081238-4.2595344-7.9910202
		c0.824337-2.706316,3.6864972-4.2319641,6.3928142-3.4076271c2.1650543,0.6594696,3.3855724,2.9491978,2.7261019,5.1142521
		c-0.5275755,1.7320423-2.3593578,2.708456-4.0914011,2.1808815c-1.3856344-0.42206-2.1667652-1.8874874-1.7447052-3.2731209
		c0.3376484-1.1085072,1.5099897-1.7334137,2.6184969-1.3957653c0.8868065,0.2701187,1.3867302,1.2079926,1.1166115,2.094799
		c-0.216095,0.709444-0.9663935,1.1093826-1.6758385,0.8932877"/>
</g>
<g id="sun-set">
</g>
<g id="ball-dec-1">
</g>
<g id="ball-dec">
</g>
<g id="snow_doll_1_">
</g>
<g id="snow_doll">
</g>
<g id="stick">
</g>
<g id="cracker-3">
</g>
<g id="crackers">
</g>
<g id="gift">
</g>
<g id="candle_glass">
</g>
<g id="wine_glass">
</g>
<g id="snowflake-8_1_">
</g>
<g id="snowflake-8">
</g>
<g id="snowflake-7">
</g>
<g id="snowflake6">
</g>
<g id="snowflake-5">
</g>
<g id="snowflake-4">
</g>
<g id="snowflake-3">
</g>
<g id="snowflake-2">
</g>
<g id="snowflake-1">
</g>
<g id="snowflake">
</g>
<g id="tree-2">
</g>
<g id="star_tree">
</g>
<g id="trees">
</g>
<g id="tree">
</g>
<g id="x-mashat">
</g>
<g id="x-mas-hat">
</g>
<g id="candle">
</g>
<g id="drink">
</g>
<g id="bell-2">
</g>
<g id="bell">
</g>
<g id="Layer_2">
</g>
<g id="Layer_3">
</g>
<g id="magicstic">
</g>
<g id="christmas-ball">
</g>
<g id="leef-dec">
</g>
<g id="navigator">
</g>
<g id="gift-3">
</g>
<g id="eye-wear-2">
</g>
</svg>
