<?xml version="1.0" encoding="utf-8"?>
<!-- Generator: Adobe Illustrator 18.0.0, SVG Export Plug-In . SVG Version: 6.00 Build 0)  -->
<!DOCTYPE svg PUBLIC "-//W3C//DTD SVG 1.1//EN" "http://www.w3.org/Graphics/SVG/1.1/DTD/svg11.dtd">
<svg version="1.1" xmlns="http://www.w3.org/2000/svg" xmlns:xlink="http://www.w3.org/1999/xlink" x="0px" y="0px"
	 viewBox="0 0 48 48" enable-background="new 0 0 48 48" xml:space="preserve">
<g id="Layer_1">
</g>
<g id="beach">
</g>
<g id="ice-2">
	<path fill="none" stroke="#000000" stroke-width="2" stroke-linecap="round" stroke-linejoin="round" stroke-miterlimit="10" d="
		M25.8861465,21c0.5782051-1,0.9145126-2.2395668,0.9145126-3.4760571c0-3.7448063-3.0357704-6.8234625-6.7805767-6.8234625
		s-6.7805767,3.1000986-6.7805767,6.8449049C13.2395058,18.7818756,13.5758142,20,14.1540194,21H25.8861465z"/>
	<path fill="none" stroke="#000000" stroke-width="2" stroke-linecap="round" stroke-linejoin="round" stroke-miterlimit="10" d="
		M26,21h9.2094383c0.5782051-1,0.9145126-2.2395668,0.9145126-3.4760571c0-3.7448063-3.0357704-6.8234625-6.7805748-6.8234625
		c-1.7194939,0-3.299511,0.7043734-4.4947777,1.7592182"/>
	<path fill="none" stroke="#000000" stroke-width="2" stroke-linecap="round" stroke-linejoin="round" stroke-miterlimit="10" d="
		M30.9852028,10.2340755c0.0351505-0.2776937,0.0533161-0.5607157,0.0533161-0.8481035
		c0-3.7448058-3.0357704-6.7805767-6.7805748-6.7805767s-6.7805767,3.0357709-6.7805767,6.7805767
		c0,0.2872362,0.0181465,0.5701122,0.0532608,0.8476658"/>
	<path fill="none" stroke="#000000" stroke-width="2" stroke-linecap="round" stroke-linejoin="round" stroke-miterlimit="10" d="
		M35.2763786,20.8284607c0.0936203,0,0.1854706,0.0075893,0.2749634,0.0221863
		c1.0466652,0.1707211,1.5581169,1.3970909,1.083847,2.3456287L26.5260124,44.7991486
		c-0.9001999,1.9236832-3.6359386,1.9236832-4.5361385,0L11.8806973,23.1962757
		c-0.4742689-0.9485378,0.0371828-2.1749077,1.083848-2.3456287c0.0894928-0.0145969,0.1813412-0.0221863,0.2749605-0.0221863
		H35.2763786z"/>
	
		<line fill="none" stroke="#000000" stroke-width="2" stroke-linecap="round" stroke-linejoin="round" stroke-miterlimit="10" x1="14.9346504" y1="20.8284607" x2="25.9530869" y2="44.5604782"/>
	
		<line fill="none" stroke="#000000" stroke-width="2" stroke-linecap="round" stroke-linejoin="round" stroke-miterlimit="10" x1="19.1725101" y1="20.8284607" x2="28.4958038" y2="40.3226204"/>
	
		<line fill="none" stroke="#000000" stroke-width="2" stroke-linecap="round" stroke-linejoin="round" stroke-miterlimit="10" x1="23.4103718" y1="20.8284607" x2="30.1909485" y2="35.2371864"/>
	
		<line fill="none" stroke="#000000" stroke-width="2" stroke-linecap="round" stroke-linejoin="round" stroke-miterlimit="10" x1="27.6482315" y1="20.8284607" x2="32.7336655" y2="30.9993248"/>
	
		<line fill="none" stroke="#000000" stroke-width="2" stroke-linecap="round" stroke-linejoin="round" stroke-miterlimit="10" x1="31.8860912" y1="21.676033" x2="34.4288063" y2="26.7614651"/>
	
		<circle fill="none" stroke="#000000" stroke-width="2" stroke-linecap="round" stroke-linejoin="round" stroke-miterlimit="10" cx="19.1724854" cy="13.2003098" r="1.2713581"/>
	
		<circle fill="none" stroke="#000000" stroke-width="2" stroke-linecap="round" stroke-linejoin="round" stroke-miterlimit="10" cx="29.3433838" cy="12.3527374" r="1.2713581"/>
	
		<circle fill="none" stroke="#000000" stroke-width="2" stroke-linecap="round" stroke-linejoin="round" stroke-miterlimit="10" cx="24.2579346" cy="3.0294495" r="1.2713581"/>
	
		<line fill="none" stroke="#000000" stroke-width="2" stroke-linecap="round" stroke-linejoin="round" stroke-miterlimit="10" x1="14.9346504" y1="20.8284607" x2="25.9530869" y2="44.5604782"/>
	
		<line fill="none" stroke="#000000" stroke-width="2" stroke-linecap="round" stroke-linejoin="round" stroke-miterlimit="10" x1="19.1725101" y1="20.8284607" x2="28.4958038" y2="40.3226204"/>
	
		<line fill="none" stroke="#000000" stroke-width="2" stroke-linecap="round" stroke-linejoin="round" stroke-miterlimit="10" x1="23.4103718" y1="20.8284607" x2="30.1909485" y2="35.2371864"/>
	
		<line fill="none" stroke="#000000" stroke-width="2" stroke-linecap="round" stroke-linejoin="round" stroke-miterlimit="10" x1="27.6482315" y1="20.8284607" x2="32.7336655" y2="30.9993248"/>
	
		<line fill="none" stroke="#000000" stroke-width="2" stroke-linecap="round" stroke-linejoin="round" stroke-miterlimit="10" x1="31.8860912" y1="21.676033" x2="34.4288063" y2="26.7614651"/>
	
		<line fill="none" stroke="#000000" stroke-width="2" stroke-linecap="round" stroke-linejoin="round" stroke-miterlimit="10" x1="33.5812378" y1="20.8284607" x2="22.5627995" y2="44.5604782"/>
	
		<line fill="none" stroke="#000000" stroke-width="2" stroke-linecap="round" stroke-linejoin="round" stroke-miterlimit="10" x1="29.3433762" y1="20.8284607" x2="20.0200825" y2="40.3226204"/>
	
		<line fill="none" stroke="#000000" stroke-width="2" stroke-linecap="round" stroke-linejoin="round" stroke-miterlimit="10" x1="25.1055145" y1="20.8284607" x2="18.3249378" y2="35.2371864"/>
	
		<line fill="none" stroke="#000000" stroke-width="2" stroke-linecap="round" stroke-linejoin="round" stroke-miterlimit="10" x1="20.8676548" y1="20.8284607" x2="15.7822227" y2="30.9993248"/>
	
		<line fill="none" stroke="#000000" stroke-width="2" stroke-linecap="round" stroke-linejoin="round" stroke-miterlimit="10" x1="16.6297951" y1="21.676033" x2="14.0870781" y2="26.7614651"/>
</g>
<g id="goast-3">
</g>
<g id="rip">
</g>
<g id="beach_tree">
</g>
<g id="goast_1_">
</g>
<g id="boarn">
</g>
<g id="semithery">
</g>
<g id="skelten">
</g>
<g id="halloween">
</g>
<g id="wizard-hat">
</g>
<g id="dark_cat">
</g>
<g id="net">
</g>
<g id="coffin">
</g>
<g id="goast">
</g>
<g id="fish">
</g>
<g id="night">
</g>
<g id="bat-2">
</g>
<g id="bat">
</g>
<g id="Layer_2">
</g>
<g id="Layer_3">
</g>
<g id="Layer_4">
</g>
<g id="Layer_5">
</g>
<g id="Layer_6">
</g>
<g id="ghost">
</g>
</svg>
