<?xml version="1.0" encoding="utf-8"?>
<!-- Generator: Adobe Illustrator 18.0.0, SVG Export Plug-In . SVG Version: 6.00 Build 0)  -->
<!DOCTYPE svg PUBLIC "-//W3C//DTD SVG 1.1//EN" "http://www.w3.org/Graphics/SVG/1.1/DTD/svg11.dtd">
<svg version="1.1" xmlns="http://www.w3.org/2000/svg" xmlns:xlink="http://www.w3.org/1999/xlink" x="0px" y="0px"
	 viewBox="0 0 48 48" enable-background="new 0 0 48 48" xml:space="preserve">
<g id="Layer_1">
</g>
<g id="beach">
</g>
<g id="ice-2">
</g>
<g id="goast-3">
</g>
<g id="rip">
</g>
<g id="beach_tree">
</g>
<g id="goast_1_">
</g>
<g id="boarn">
</g>
<g id="semithery">
</g>
<g id="skelten">
</g>
<g id="halloween">
</g>
<g id="wizard-hat">
</g>
<g id="dark_cat">
</g>
<g id="net">
</g>
<g id="coffin">
</g>
<g id="goast">
</g>
<g id="fish">
</g>
<g id="night">
</g>
<g id="bat-2">
</g>
<g id="bat">
</g>
<g id="Layer_2">
</g>
<g id="Layer_3">
</g>
<g id="Layer_4">
</g>
<g id="Layer_5">
</g>
<g id="Layer_6">
</g>
<g id="ghost">
	<path fill="none" stroke="#000000" stroke-width="2" stroke-linecap="round" stroke-linejoin="round" stroke-miterlimit="10" d="
		M44,42c0,2.338768-2.0071945,4.2087288-4.3929253,3.9812241C37.5273666,45.7829018,36,43.9172783,36,41.8281326V40
		c0-2.0891418-1.5273666-3.9547691-3.6070747-4.1530876C30.0071945,35.6194077,28,37.4893684,28,39.8281326v2.0000038
		c0,2.0891418-1.5273666,3.9547653-3.6070747,4.1530876C22.0071945,46.2087288,20,44.338768,20,42v-2
		c0-2.0891418-1.5273666-3.9547691-3.6070747-4.1530914C14.0071945,35.6194077,12,37.4893684,12,39.8281326v2.0000038
		c0,2.0891418-1.5273666,3.9547653-3.6070747,4.1530876C6.007195,46.2087288,4,44.338768,4,42v-4V21.9999809
		C4,10.9542961,12.9542961,2,23.9999809,2h0.0000381C35.0457039,2,44,10.9542961,44,21.9999809V42z"/>
	
		<circle fill="none" stroke="#000000" stroke-width="2" stroke-linecap="round" stroke-linejoin="round" stroke-miterlimit="10" cx="15.5" cy="15.5" r="2.5"/>
	
		<circle fill="none" stroke="#000000" stroke-width="2" stroke-linecap="round" stroke-linejoin="round" stroke-miterlimit="10" cx="32.5" cy="15.5" r="2.5"/>
	<g>
		<path fill="none" stroke="#000000" stroke-width="2" stroke-linecap="round" stroke-linejoin="round" stroke-miterlimit="10" d="
			M31.6233215,24.3195171C33.7436523,26.6243343,30.6422729,31.1634674,24,31.1634674
			c-6.6422729,0.0000019-9.7437134-4.5391293-7.6233826-6.8439484
			C21.8742981,27.161396,26.1253967,27.1613903,31.6233215,24.3195171z"/>
	</g>
</g>
</svg>
