<?xml version="1.0" encoding="utf-8"?>
<!-- Generator: Adobe Illustrator 18.0.0, SVG Export Plug-In . SVG Version: 6.00 Build 0)  -->
<!DOCTYPE svg PUBLIC "-//W3C//DTD SVG 1.1//EN" "http://www.w3.org/Graphics/SVG/1.1/DTD/svg11.dtd">
<svg version="1.1" xmlns="http://www.w3.org/2000/svg" xmlns:xlink="http://www.w3.org/1999/xlink" x="0px" y="0px"
	 viewBox="0 0 48 48" enable-background="new 0 0 48 48" xml:space="preserve">
<g id="Layer_1">
</g>
<g id="good_luck_bird">
</g>
<g id="event-go">
</g>
<g id="cancel-date">
</g>
<g id="evet-date">
</g>
<g id="event-list">
</g>
<g id="flight">
</g>
<g id="travel-bag">
</g>
<g id="limejuice">
</g>
<g id="beach-2_1_">
</g>
<g id="beach-2">
</g>
<g id="soks">
</g>
<g id="eye_wear">
</g>
<g id="skin-doll">
	<path fill="none" stroke="#000000" stroke-width="2" stroke-linecap="round" stroke-linejoin="round" stroke-miterlimit="10" d="
		M25.2951107,3.1355419C21.4157009,2.3245528,18,5.2633691,18,9c0,1.2243834,0.3673878,2.3617239,0.9977036,3.3094645
		c0.4906483,0.7377386-0.1655579,1.6957245-1.0336876,1.5186758l-6.1423597-1.2526855
		c-1.6337585-0.3331928-3.2719116,0.5501833-3.8911643,2.0983152L7.93049,14.6737747
		c-0.5548453,1.3871136-0.1534691,2.9737434,0.9942279,3.9301567l2.8343935,2.3619938
		C12.5453844,21.6211548,13,22.5917759,13,23.6152744v8.5390491c0,1.1530762-0.5762787,2.2298622-1.535696,2.8694725
		l-2.1360292,1.4240189c-1.3569379,0.9046288-1.8947124,2.6360893-1.2890348,4.1502838l0.0299826,0.0749588
		c0.5549841,1.3874588,1.9403915,2.2596359,3.4314213,2.1602325L24,42"/>
	<path fill="none" stroke="#000000" stroke-width="2" stroke-linecap="round" stroke-linejoin="round" stroke-miterlimit="10" d="
		M23.2951107,3.1355419C27.1745205,2.3245528,30.5902195,5.2633691,30.5902195,9
		c0,1.2243843-0.3673878,2.3617249-0.9977036,3.3094654c-0.4906483,0.7377377,0.1655579,1.6957216,1.0336876,1.5186739
		l6.1423588-1.2526855c1.6337585-0.3331919,3.2719116,0.5501842,3.8911667,2.0983152v0.0000057
		c0.5548477,1.3871136,0.1534691,2.9737434-0.9942284,3.9301567l-2.8343925,2.3619938
		c-0.786274,0.6552296-1.2408867,1.6258507-1.2408867,2.6493492v8.5390491c0,1.1530762,0.5762749,2.2298622,1.5356941,2.8694725
		l2.1360283,1.4240189c1.3569374,0.9046288,1.8947144,2.6360893,1.2890358,4.1502838l-0.0299835,0.0749588
		c-0.5549812,1.3874588-1.9403915,2.2596359-3.4314194,2.1602325L24.5902195,42"/>
	
		<circle fill="none" stroke="#000000" stroke-width="2" stroke-linecap="round" stroke-linejoin="round" stroke-miterlimit="10" cx="21.5" cy="7.5" r="0.5"/>
	
		<circle fill="none" stroke="#000000" stroke-width="2" stroke-linecap="round" stroke-linejoin="round" stroke-miterlimit="10" cx="26.5" cy="7.5" r="0.5"/>
	<path fill="none" stroke="#000000" stroke-width="2" stroke-linecap="round" stroke-linejoin="round" stroke-miterlimit="10" d="
		M26.1213207,11.5c-1.1715736,1.1715727-3.0710678,1.1715727-4.2426414,0"/>
	
		<circle fill="none" stroke="#000000" stroke-width="2" stroke-linecap="round" stroke-linejoin="round" stroke-miterlimit="10" cx="24" cy="19" r="1"/>
	
		<circle fill="none" stroke="#000000" stroke-width="2" stroke-linecap="round" stroke-linejoin="round" stroke-miterlimit="10" cx="24" cy="25" r="1"/>
	
		<circle fill="none" stroke="#000000" stroke-width="2" stroke-linecap="round" stroke-linejoin="round" stroke-miterlimit="10" cx="24" cy="31" r="1"/>
</g>
<g id="dec-bell">
</g>
<g id="dec-egg-2">
</g>
<g id="dec-egg">
</g>
<g id="flower-1">
</g>
<g id="flower">
</g>
<g id="light_house-2">
</g>
<g id="light-house">
</g>
<g id="snow-mountain">
</g>
<g id="light">
</g>
<g id="corn-ice">
</g>
<g id="beach-stand">
</g>
<g id="umberlla">
</g>
<g id="lifeguard">
</g>
<g id="direct">
</g>
<g id="bag-2">
</g>
<g id="bag-1">
</g>
<g id="balloon_1_">
</g>
<g id="balloon">
</g>
<g id="stars">
</g>
<g id="star-large">
</g>
<g id="decorate">
</g>
<g id="star">
</g>
<g id="ball-tree">
</g>
<g id="giftballoon">
</g>
<g id="decorate-1">
</g>
<g id="ribbon">
</g>
<g id="places">
</g>
<g id="bag">
</g>
<g id="christmass-ball-4">
</g>
<g id="christmas-ball-3">
</g>
<g id="cristmass-ball-2">
</g>
<g id="basket-gift">
</g>
<g id="hot_coffee">
</g>
<g id="lollipop-2">
</g>
<g id="lollipop_2">
</g>
<g id="ribbon_hold">
</g>
<g id="ribbons">
</g>
<g id="offer">
</g>
<g id="candels">
</g>
<g id="halloween">
</g>
<g id="egg-dec">
</g>
<g id="shore">
</g>
<g id="hot_air_balloon">
</g>
<g id="leef">
</g>
<g id="puppies">
</g>
<g id="ship">
</g>
<g id="goat">
</g>
<g id="tend">
</g>
<g id="watermelon">
</g>
<g id="lollipop">
</g>
<g id="sun-set">
</g>
<g id="ball-dec-1">
</g>
<g id="ball-dec">
</g>
<g id="snow_doll_1_">
</g>
<g id="snow_doll">
</g>
<g id="stick">
</g>
<g id="cracker-3">
</g>
<g id="crackers">
</g>
<g id="gift">
</g>
<g id="candle_glass">
</g>
<g id="wine_glass">
</g>
<g id="snowflake-8_1_">
</g>
<g id="snowflake-8">
</g>
<g id="snowflake-7">
</g>
<g id="snowflake6">
</g>
<g id="snowflake-5">
</g>
<g id="snowflake-4">
</g>
<g id="snowflake-3">
</g>
<g id="snowflake-2">
</g>
<g id="snowflake-1">
</g>
<g id="snowflake">
</g>
<g id="tree-2">
</g>
<g id="star_tree">
</g>
<g id="trees">
</g>
<g id="tree">
</g>
<g id="x-mashat">
</g>
<g id="x-mas-hat">
</g>
<g id="candle">
</g>
<g id="drink">
</g>
<g id="bell-2">
</g>
<g id="bell">
</g>
<g id="Layer_2">
</g>
<g id="Layer_3">
</g>
<g id="magicstic">
</g>
<g id="christmas-ball">
</g>
<g id="leef-dec">
</g>
<g id="navigator">
</g>
<g id="gift-3">
</g>
<g id="eye-wear-2">
</g>
</svg>
