<?xml version="1.0" encoding="utf-8"?>
<!-- Generator: Adobe Illustrator 18.0.0, SVG Export Plug-In . SVG Version: 6.00 Build 0)  -->
<!DOCTYPE svg PUBLIC "-//W3C//DTD SVG 1.1//EN" "http://www.w3.org/Graphics/SVG/1.1/DTD/svg11.dtd">
<svg version="1.1" xmlns="http://www.w3.org/2000/svg" xmlns:xlink="http://www.w3.org/1999/xlink" x="0px" y="0px"
	 viewBox="0 0 48 48" enable-background="new 0 0 48 48" xml:space="preserve">
<g id="Layer_1">
</g>
<g id="beach">
</g>
<g id="ice-2">
</g>
<g id="goast-3">
</g>
<g id="rip">
</g>
<g id="beach_tree">
</g>
<g id="goast_1_">
</g>
<g id="boarn">
	<path fill="none" stroke="#000000" stroke-width="2" stroke-linecap="round" stroke-linejoin="round" stroke-miterlimit="10" d="
		M9.2913876,31.4544983c-1.9588346-1.0929375-4.4564595-0.7082558-6.1681948,1.0026169
		c-0.7692766,0.7688904-1.2403605,1.7964134-1.3928076,2.8733253c-0.5081892,3.5899353,2.1424227,5.9624786,4.735661,6.2097778
		c0.1230121,1.2899284,0.7463632,2.5685501,1.8143497,3.496067c2.1346703,1.8538971,5.370266,1.4081917,7.2644577-0.6908035
		c1.5553379-1.7235069,2.0321655-3.9380417,0.5530777-6.1516685c-0.4963589-0.7428589-0.4122543-1.7312393,0.2194939-2.3629875
		l19.256031-19.256031c0.6269379-0.6269388,1.6122398-0.7238474,2.3479424-0.2290287
		c2.303154,1.5490589,4.6139412,0.9879704,6.3670464-0.710494c1.9036293-1.8442936,2.2732773-4.7586985,0.6665878-6.866725
		c-0.9738274-1.2776918-2.2713737-1.9112535-3.6723976-2.0449147c-0.1346474-1.4113469-0.8071175-2.7482131-2.0914536-3.7120631
		c-2.1685791-1.6274455-5.3229446-1.4673169-7.1619949,0.5249698C30.468832,5.226903,30.141222,7.6088595,31.1695404,9.499939
		c0.4105625,0.7550268,0.3324909,1.6788855-0.2752209,2.2865973L11.5246897,31.1561661
		C10.9324865,31.7483692,10.0227509,31.8625641,9.2913876,31.4544983z"/>
</g>
<g id="semithery">
</g>
<g id="skelten">
</g>
<g id="halloween">
</g>
<g id="wizard-hat">
</g>
<g id="dark_cat">
</g>
<g id="net">
</g>
<g id="coffin">
</g>
<g id="goast">
</g>
<g id="fish">
</g>
<g id="night">
</g>
<g id="bat-2">
</g>
<g id="bat">
</g>
<g id="Layer_2">
</g>
<g id="Layer_3">
</g>
<g id="Layer_4">
</g>
<g id="Layer_5">
</g>
<g id="Layer_6">
</g>
<g id="ghost">
</g>
</svg>
