<?xml version="1.0" encoding="utf-8"?>
<!-- Generator: Adobe Illustrator 18.0.0, SVG Export Plug-In . SVG Version: 6.00 Build 0)  -->
<!DOCTYPE svg PUBLIC "-//W3C//DTD SVG 1.1//EN" "http://www.w3.org/Graphics/SVG/1.1/DTD/svg11.dtd">
<svg version="1.1" xmlns="http://www.w3.org/2000/svg" xmlns:xlink="http://www.w3.org/1999/xlink" x="0px" y="0px"
	 viewBox="0 0 48 48" enable-background="new 0 0 48 48" xml:space="preserve">
<g id="Layer_1">
</g>
<g id="good_luck_bird">
</g>
<g id="event-go">
</g>
<g id="cancel-date">
</g>
<g id="evet-date">
</g>
<g id="event-list">
</g>
<g id="flight">
</g>
<g id="travel-bag">
</g>
<g id="limejuice">
</g>
<g id="beach-2_1_">
</g>
<g id="beach-2">
</g>
<g id="soks">
	<path fill="none" stroke="#000000" stroke-width="2" stroke-linecap="round" stroke-linejoin="round" stroke-miterlimit="10" d="
		M40.5000038,14H28.4999981C27.1192875,14,26,12.8807135,26,11.5000029v-0.0000057C26,10.1192865,27.1192875,9,28.4999981,9
		h12.0000057C41.8807144,9,43,10.1192865,43,11.4999971v0.0000057C43,12.8807135,41.8807144,14,40.5000038,14z"/>
	<path fill="none" stroke="#000000" stroke-width="2" stroke-linecap="round" stroke-linejoin="round" stroke-miterlimit="10" d="
		M28,14v11.7702465c0,1.4276867-0.5671463,2.7968998-1.5766735,3.806427l-4.846653,4.8466511
		C20.5671463,35.4328537,20,36.8020668,20,38.2297554v0.0000038c0,1.7384796,0.8395786,3.3699417,2.2542381,4.3804092
		l2.3505821,1.6789894c1.4925137,1.0660782,3.4251308,1.2988625,5.1280994,0.6176758l1.103466-0.4413872
		c0.7655067-0.3062019,1.450449-0.784153,2.0019932-1.3969803l4.617939-5.1310425
		C39.7376709,35.4025879,41,32.1130104,41,28.7027359V14"/>
	<path fill="none" stroke="#000000" stroke-width="2" stroke-linecap="round" stroke-linejoin="round" stroke-miterlimit="10" d="
		M38.5927429,36.491951c-2.549408-0.6597672-4.0812607-3.2613182-3.4214897-5.8107262
		c0.6597672-2.5494061,3.2613182-4.0812588,5.8107262-3.4214897"/>
	<path fill="none" stroke="#000000" stroke-width="2" stroke-linecap="round" stroke-linejoin="round" stroke-miterlimit="10" d="
		M26,10l-4.3343334-2.1629157c-1.2792892-0.519402-1.8952999-1.9775305-1.3758984-3.2568202l0.0000019-0.0000048
		c0.5194035-1.27929,1.9775314-1.8953006,3.2568207-1.3758981L36,9"/>
	<path fill="none" stroke="#000000" stroke-width="2" stroke-linecap="round" stroke-linejoin="round" stroke-miterlimit="10" d="
		M21.2023964,7.648993l-4.4277859,10.9056587c-0.537075,1.3228168-1.5776396,2.3781013-2.8927803,2.9337044l-6.3138757,2.6674023
		c-1.3151417,0.5556049-2.3557053,1.6108894-2.8927798,2.9337063L4.6751728,27.089468
		c-0.6539893,1.6107788-0.4898124,3.4382381,0.4408083,4.9066563l1.5463099,2.4399109
		c0.9818363,1.5492325,2.6849236,2.4919357,4.519053,2.5014153l1.1884537,0.0061417
		c0.8244648,0.0042648,1.6388922-0.180912,2.3804598-0.5412407l6.2089443-3.0169411
		c3.0673447-1.4904308,5.4744358-4.0635014,6.7573299-7.2232742"/>
	<path fill="none" stroke="#000000" stroke-width="2" stroke-linecap="round" stroke-linejoin="round" stroke-miterlimit="10" d="
		M22.5559158,32.4736176c-2.113945-1.5703526-2.5546112-4.557066-0.9842567-6.6710091
		c1.3433895-1.8084126,3.7233067-2.3922768,5.7066345-1.540144"/>
</g>
<g id="eye_wear">
</g>
<g id="skin-doll">
</g>
<g id="dec-bell">
</g>
<g id="dec-egg-2">
</g>
<g id="dec-egg">
</g>
<g id="flower-1">
</g>
<g id="flower">
</g>
<g id="light_house-2">
</g>
<g id="light-house">
</g>
<g id="snow-mountain">
</g>
<g id="light">
</g>
<g id="corn-ice">
</g>
<g id="beach-stand">
</g>
<g id="umberlla">
</g>
<g id="lifeguard">
</g>
<g id="direct">
</g>
<g id="bag-2">
</g>
<g id="bag-1">
</g>
<g id="balloon_1_">
</g>
<g id="balloon">
</g>
<g id="stars">
</g>
<g id="star-large">
</g>
<g id="decorate">
</g>
<g id="star">
</g>
<g id="ball-tree">
</g>
<g id="giftballoon">
</g>
<g id="decorate-1">
</g>
<g id="ribbon">
</g>
<g id="places">
</g>
<g id="bag">
</g>
<g id="christmass-ball-4">
</g>
<g id="christmas-ball-3">
</g>
<g id="cristmass-ball-2">
</g>
<g id="basket-gift">
</g>
<g id="hot_coffee">
</g>
<g id="lollipop-2">
</g>
<g id="lollipop_2">
</g>
<g id="ribbon_hold">
</g>
<g id="ribbons">
</g>
<g id="offer">
</g>
<g id="candels">
</g>
<g id="halloween">
</g>
<g id="egg-dec">
</g>
<g id="shore">
</g>
<g id="hot_air_balloon">
</g>
<g id="leef">
</g>
<g id="puppies">
</g>
<g id="ship">
</g>
<g id="goat">
</g>
<g id="tend">
</g>
<g id="watermelon">
</g>
<g id="lollipop">
</g>
<g id="sun-set">
</g>
<g id="ball-dec-1">
</g>
<g id="ball-dec">
</g>
<g id="snow_doll_1_">
</g>
<g id="snow_doll">
</g>
<g id="stick">
</g>
<g id="cracker-3">
</g>
<g id="crackers">
</g>
<g id="gift">
</g>
<g id="candle_glass">
</g>
<g id="wine_glass">
</g>
<g id="snowflake-8_1_">
</g>
<g id="snowflake-8">
</g>
<g id="snowflake-7">
</g>
<g id="snowflake6">
</g>
<g id="snowflake-5">
</g>
<g id="snowflake-4">
</g>
<g id="snowflake-3">
</g>
<g id="snowflake-2">
</g>
<g id="snowflake-1">
</g>
<g id="snowflake">
</g>
<g id="tree-2">
</g>
<g id="star_tree">
</g>
<g id="trees">
</g>
<g id="tree">
</g>
<g id="x-mashat">
</g>
<g id="x-mas-hat">
</g>
<g id="candle">
</g>
<g id="drink">
</g>
<g id="bell-2">
</g>
<g id="bell">
</g>
<g id="Layer_2">
</g>
<g id="Layer_3">
</g>
<g id="magicstic">
</g>
<g id="christmas-ball">
</g>
<g id="leef-dec">
</g>
<g id="navigator">
</g>
<g id="gift-3">
</g>
<g id="eye-wear-2">
</g>
</svg>
