<?xml version="1.0" encoding="utf-8"?>
<!-- Generator: Adobe Illustrator 18.0.0, SVG Export Plug-In . SVG Version: 6.00 Build 0)  -->
<!DOCTYPE svg PUBLIC "-//W3C//DTD SVG 1.1//EN" "http://www.w3.org/Graphics/SVG/1.1/DTD/svg11.dtd">
<svg version="1.1" xmlns="http://www.w3.org/2000/svg" xmlns:xlink="http://www.w3.org/1999/xlink" x="0px" y="0px"
	 viewBox="0 0 48 48" enable-background="new 0 0 48 48" xml:space="preserve">
<g id="Layer_1">
</g>
<g id="good_luck_bird">
</g>
<g id="event-go">
</g>
<g id="cancel-date">
</g>
<g id="evet-date">
</g>
<g id="event-list">
</g>
<g id="flight">
</g>
<g id="travel-bag">
</g>
<g id="limejuice">
</g>
<g id="beach-2_1_">
</g>
<g id="beach-2">
</g>
<g id="soks">
</g>
<g id="eye_wear">
</g>
<g id="skin-doll">
</g>
<g id="dec-bell">
</g>
<g id="dec-egg-2">
</g>
<g id="dec-egg">
</g>
<g id="flower-1">
</g>
<g id="flower">
</g>
<g id="light_house-2">
</g>
<g id="light-house">
</g>
<g id="snow-mountain">
</g>
<g id="light">
</g>
<g id="corn-ice">
</g>
<g id="beach-stand">
</g>
<g id="umberlla">
</g>
<g id="lifeguard">
</g>
<g id="direct">
</g>
<g id="bag-2">
</g>
<g id="bag-1">
</g>
<g id="balloon_1_">
</g>
<g id="balloon">
</g>
<g id="stars">
</g>
<g id="star-large">
</g>
<g id="decorate">
</g>
<g id="star">
</g>
<g id="ball-tree">
</g>
<g id="giftballoon">
</g>
<g id="decorate-1">
</g>
<g id="ribbon">
</g>
<g id="places">
</g>
<g id="bag">
</g>
<g id="christmass-ball-4">
</g>
<g id="christmas-ball-3">
</g>
<g id="cristmass-ball-2">
</g>
<g id="basket-gift">
</g>
<g id="hot_coffee">
</g>
<g id="lollipop-2">
</g>
<g id="lollipop_2">
</g>
<g id="ribbon_hold">
</g>
<g id="ribbons">
</g>
<g id="offer">
</g>
<g id="candels">
</g>
<g id="halloween">
</g>
<g id="egg-dec">
</g>
<g id="shore">
</g>
<g id="hot_air_balloon">
</g>
<g id="leef">
</g>
<g id="puppies">
</g>
<g id="ship">
</g>
<g id="goat">
</g>
<g id="tend">
</g>
<g id="watermelon">
</g>
<g id="lollipop">
</g>
<g id="sun-set">
</g>
<g id="ball-dec-1">
</g>
<g id="ball-dec">
</g>
<g id="snow_doll_1_">
</g>
<g id="snow_doll">
</g>
<g id="stick">
</g>
<g id="cracker-3">
</g>
<g id="crackers">
</g>
<g id="gift">
</g>
<g id="candle_glass">
</g>
<g id="wine_glass">
</g>
<g id="snowflake-8_1_">
</g>
<g id="snowflake-8">
</g>
<g id="snowflake-7">
</g>
<g id="snowflake6">
</g>
<g id="snowflake-5">
</g>
<g id="snowflake-4">
</g>
<g id="snowflake-3">
</g>
<g id="snowflake-2">
</g>
<g id="snowflake-1">
</g>
<g id="snowflake">
</g>
<g id="tree-2">
</g>
<g id="star_tree">
</g>
<g id="trees">
</g>
<g id="tree">
</g>
<g id="x-mashat">
</g>
<g id="x-mas-hat">
</g>
<g id="candle">
</g>
<g id="drink">
</g>
<g id="bell-2">
</g>
<g id="bell">
</g>
<g id="Layer_2">
</g>
<g id="Layer_3">
</g>
<g id="magicstic">
</g>
<g id="christmas-ball">
</g>
<g id="leef-dec">
</g>
<g id="navigator">
</g>
<g id="gift-3">
</g>
<g id="eye-wear-2">
	<path fill="none" stroke="#000000" stroke-width="2" stroke-linecap="round" stroke-linejoin="round" stroke-miterlimit="10" d="
		M27.3441734,17c-3.0231323,0-5.7359581,1.8252583-7.6337051,3.5525303C17.8127213,18.8252583,15.0998478,17,12.0766659,17
		c-5.7351246,0-10.3843441,4.1080608-10.3843441,4.1080608s4.6492195,9.037735,10.3843441,9.037735
		c3.0231819,0,5.7360554-1.8252583,7.6338024-3.5525303c1.897747,1.727272,4.6105728,3.5525303,7.6337051,3.5525303
		c5.7351723,0,10.3843918-9.037735,10.3843918-9.037735S33.0793457,17,27.3441734,17z"/>
	<path fill="none" stroke="#000000" stroke-width="2" stroke-linecap="round" stroke-linejoin="round" stroke-miterlimit="10" d="
		M16.7341347,23.5728989c0,0-2.0231657,1.6432228-4.5188675,1.6432228s-4.5188675-1.6432228-4.5188675-1.6432228
		s2.0231657-1.6432247,4.5188675-1.6432247S16.7341347,23.5728989,16.7341347,23.5728989z"/>
	<path fill="none" stroke="#000000" stroke-width="2" stroke-linecap="round" stroke-linejoin="round" stroke-miterlimit="10" d="
		M31.6710205,23.5728989c0,0-1.9786968,1.6432228-4.4195423,1.6432228s-4.4195404-1.6432228-4.4195404-1.6432228
		s1.9786949-1.6432247,4.4195404-1.6432247S31.6710205,23.5728989,31.6710205,23.5728989z"/>
	
		<line fill="none" stroke="#000000" stroke-width="2" stroke-linecap="round" stroke-linejoin="round" stroke-miterlimit="10" x1="32.3118515" y1="28" x2="26.4437313" y2="46"/>
	<path fill="none" stroke="#000000" stroke-width="2" stroke-linecap="round" stroke-linejoin="round" stroke-miterlimit="10" d="
		M27.3441734,17c0,0,1.5446091-10.583334,10.8357964-12c0,0,1.9560394-0.3333335,2.9340591,1c0,0-6.927639,0.5-10.7582169,11"/>
	<path fill="none" stroke="#000000" stroke-width="2" stroke-linecap="round" stroke-linejoin="round" stroke-miterlimit="10" d="
		M24.8235416,16.4683514c0,0-2.7535934-8.6315174,4.5385685-13.686409c0,0,1.5217457-1.0906061,2.857502-0.5065162
		c0,0-5.6503391,3.3501537-4.8564053,12.9001789"/>
	<path fill="none" stroke="#000000" stroke-width="2" stroke-linecap="round" stroke-linejoin="round" stroke-miterlimit="10" d="
		M22,18c0,0-5.3106041-5.9800262-0.1588058-13.204051c0,0,1.0629959-1.541158,2.5175972-1.4434617
		c0,0-4.1835918,5.0643272-0.2052898,13.7824936"/>
	<path fill="none" stroke="#000000" stroke-width="2" stroke-linecap="round" stroke-linejoin="round" stroke-miterlimit="10" d="
		M31.3338318,17c0,0,1.6353836-7.5153627,10.7582169-13c0.6323128-0.3801446,2.4450493-0.4166667,2.9340591,0
		c0,0-7.7426567,6-10.7582169,14"/>
	<path fill="none" stroke="#000000" stroke-width="2" stroke-linecap="round" stroke-linejoin="round" stroke-miterlimit="10" d="
		M34.2678909,18c0,0,0.4986725-3.9009781,6.846138-8c3.0970612-2,4.8900986,0,4.8900986,0s-8.6391754,3.75-10.7582169,9
		c0,0,3.586071-3.583333,7.8241577-2s4.0750809,11.25,0,17c0,0-2.0375404-0.75-0.9780197-4
		c0.8901978-2.7306137,2.4450493-12.25-4.8900986-10"/>
</g>
</svg>
