<?xml version="1.0" encoding="utf-8"?>
<!-- Generator: Adobe Illustrator 18.0.0, SVG Export Plug-In . SVG Version: 6.00 Build 0)  -->
<!DOCTYPE svg PUBLIC "-//W3C//DTD SVG 1.1//EN" "http://www.w3.org/Graphics/SVG/1.1/DTD/svg11.dtd">
<svg version="1.1" xmlns="http://www.w3.org/2000/svg" xmlns:xlink="http://www.w3.org/1999/xlink" x="0px" y="0px"
	 viewBox="0 0 48 48" enable-background="new 0 0 48 48" xml:space="preserve">
<g id="Layer_1">
</g>
<g id="beach">
</g>
<g id="ice-2">
</g>
<g id="goast-3">
</g>
<g id="rip">
</g>
<g id="beach_tree">
</g>
<g id="goast_1_">
</g>
<g id="boarn">
</g>
<g id="semithery">
</g>
<g id="skelten">
</g>
<g id="halloween">
</g>
<g id="wizard-hat">
</g>
<g id="dark_cat">
</g>
<g id="net">
</g>
<g id="coffin">
</g>
<g id="goast">
</g>
<g id="fish">
</g>
<g id="night">
</g>
<g id="bat-2">
</g>
<g id="bat">
	<g>
		<circle fill="none" stroke="#000000" stroke-width="2" stroke-miterlimit="10" cx="20.9669056" cy="18.6055527" r="0.4209272"/>
		<circle fill="none" stroke="#000000" stroke-width="2" stroke-miterlimit="10" cx="18.5857811" cy="20.9866753" r="0.4209272"/>
		<path fill="none" stroke="#000000" stroke-width="2" stroke-linejoin="round" stroke-miterlimit="10" d="M38.4442101,38.4639778
			c-5.0102806-5.0102806-2-11.5244923-2-11.5244923c-3.6709023-6.6473045,3.571682-9.5244942,3.571682-9.5244942
			c-5.555954-6.1512365-2.3811226-15.4773045-2.3811226-15.4773045C31.9796009,12.1566763,26.919714,11.462182,26.919714,11.462182
			C31.25,20.5,24.7254887,20.799778,24.7254887,20.799778c0.3680172-1.5585785-0.1344337-3.3323231-1.3774605-4.5753498
			c-1.0258636-1.0258636-2.2220936-1.3522797-3.4115658-1.1565895L18,11l0.6741428,4.4703722
			c-0.6576633,0.3116293-1.293602,0.7687349-1.8742046,1.3493376c-0.7522755,0.7522755-1.302249,1.5963287-1.587863,2.462038L11,19
			l4.0005445,1.7992344c0.048214,0.9028397,0.4210634,1.7855148,1.204114,2.5685654
			c1.2430267,1.2430267,2.9723339,1.7010403,4.5753498,1.3774586c0,0-0.9466743,7.1714077-9.9328785,2.7895069
			c0,0,0.6944942,5.0598888-9.5244942,10.7150555c0,0,9.3260679-3.1748314,15.4773026,2.3811264
			c0,0,2.8771915-7.2425842,9.5244942-3.5716858C26.3244324,37.0592613,33.4339294,33.4536972,38.4442101,38.4639778z"/>
	</g>
	
		<line fill="none" stroke="#000000" stroke-width="2" stroke-linecap="round" stroke-linejoin="round" stroke-miterlimit="10" x1="30" y1="42" x2="33" y2="45"/>
	
		<line fill="none" stroke="#000000" stroke-width="2" stroke-linecap="round" stroke-linejoin="round" stroke-miterlimit="10" x1="36" y1="42" x2="42" y2="47"/>
	
		<line fill="none" stroke="#000000" stroke-width="2" stroke-linecap="round" stroke-linejoin="round" stroke-miterlimit="10" x1="40" y1="31" x2="43" y2="34"/>
	<g>
		<path fill="none" stroke="#000000" stroke-width="2" stroke-linecap="round" stroke-linejoin="round" d="M9.8323231,29.9977417
			c-0.2585983-0.6100941-0.47894-1.2403355-0.6580162-1.8877163"/>
		
			<path fill="none" stroke="#000000" stroke-width="2" stroke-linecap="round" stroke-linejoin="round" stroke-dasharray="3.6700263,5.5050392" d="
			M8.6772604,22.6524887C9.3597775,14.7888727,15.9593687,8.6190472,24,8.6190472
			c0.6643906,0,1.318943,0.0421257,1.961132,0.1238508"/>
		<path fill="none" stroke="#000000" stroke-width="2" stroke-linecap="round" stroke-linejoin="round" d="M28.6480198,9.3338289
			c0.639843,0.2025938,1.2615776,0.4459009,1.8621655,0.7268801"/>
	</g>
	<g>
		<path fill="none" stroke="#000000" stroke-width="2" stroke-linecap="round" stroke-linejoin="round" d="M7.5315986,33.482235
			c-0.3320723-0.575489-0.6348457-1.1700096-0.9062829-1.7815285"/>
		
			<path fill="none" stroke="#000000" stroke-width="2" stroke-linecap="round" stroke-linejoin="round" stroke-dasharray="3.9957001,5.9935503" d="
			M5.0967207,25.9290581C5.0327597,25.2947292,5,24.6511898,5,24C5,13.5065899,13.5065899,5,24,5
			c1.7796993,0,3.5022469,0.2446895,5.1358395,0.7022614"/>
		<path fill="none" stroke="#000000" stroke-width="2" stroke-linecap="round" stroke-linejoin="round" d="M31.9488659,6.7376156
			c0.60742,0.2801642,1.1975346,0.5914459,1.768301,0.9318004"/>
	</g>
	<g>
		<path fill="none" stroke="#000000" stroke-width="2" stroke-linecap="round" stroke-linejoin="round" d="M4.3636293,35.9818573
			c-0.3468685-0.5672493-0.669848-1.1506958-0.9675391-1.7489433"/>
		
			<path fill="none" stroke="#000000" stroke-width="2" stroke-linecap="round" stroke-linejoin="round" stroke-dasharray="4.1103477,6.1655221" d="
			M1.4221383,28.4088993C1.1451138,26.9819622,1,25.5079269,1,24C1,11.297451,11.297451,1,24,1
			c2.6645298,0,5.2232342,0.4530948,7.6032677,1.2864401"/>
		<path fill="none" stroke="#000000" stroke-width="2" stroke-linecap="round" stroke-linejoin="round" d="M34.4380417,3.4994483
			c0.5951614,0.3036363,1.1753464,0.6324286,1.7391548,0.9849744"/>
	</g>
</g>
<g id="Layer_2">
</g>
<g id="Layer_3">
</g>
<g id="Layer_4">
</g>
<g id="Layer_5">
</g>
<g id="Layer_6">
</g>
<g id="ghost">
</g>
</svg>
