<?xml version="1.0" encoding="utf-8"?>
<!-- Generator: Adobe Illustrator 18.0.0, SVG Export Plug-In . SVG Version: 6.00 Build 0)  -->
<!DOCTYPE svg PUBLIC "-//W3C//DTD SVG 1.1//EN" "http://www.w3.org/Graphics/SVG/1.1/DTD/svg11.dtd">
<svg version="1.1" xmlns="http://www.w3.org/2000/svg" xmlns:xlink="http://www.w3.org/1999/xlink" x="0px" y="0px"
	 viewBox="0 0 48 48" enable-background="new 0 0 48 48" xml:space="preserve">
<g id="Layer_1">
</g>
<g id="beach">
</g>
<g id="ice-2">
</g>
<g id="goast-3">
</g>
<g id="rip">
</g>
<g id="beach_tree">
</g>
<g id="goast_1_">
	<path fill="none" stroke="#000000" stroke-width="2" stroke-linecap="round" stroke-linejoin="round" stroke-miterlimit="10" d="
		M42,20c0-9.9411259-8.058876-18-18-18S6,10.0588741,6,20v16c0,1.6568527,1.3431458,3,3,3s3-1.3431473,3-3v-7
		c0-1.1045704,0.8954306-2,2-2s2,0.8954296,2,2v13c0,2.2091408,1.7908611,4,4,4s4-1.7908592,4-4v-9c0-1.1045704,0.8954296-2,2-2
		s2,0.8954296,2,2v7.5c0,1.3807106,1.1192875,2.5,2.5,2.5s2.5-1.1192894,2.5-2.5V34c0-1.1045685,0.8954315-2,2-2s2,0.8954315,2,2
		v4.5c0,1.3807106,1.1192894,2.5,2.5,2.5s2.5-1.1192894,2.5-2.5V20z"/>
	
		<ellipse fill="none" stroke="#000000" stroke-width="2" stroke-linecap="round" stroke-linejoin="round" stroke-miterlimit="10" cx="24" cy="17" rx="10" ry="4"/>
	
		<circle fill="none" stroke="#000000" stroke-width="2" stroke-linecap="round" stroke-linejoin="round" stroke-miterlimit="10" cx="24" cy="17" r="4"/>
</g>
<g id="boarn">
</g>
<g id="semithery">
</g>
<g id="skelten">
</g>
<g id="halloween">
</g>
<g id="wizard-hat">
</g>
<g id="dark_cat">
</g>
<g id="net">
</g>
<g id="coffin">
</g>
<g id="goast">
</g>
<g id="fish">
</g>
<g id="night">
</g>
<g id="bat-2">
</g>
<g id="bat">
</g>
<g id="Layer_2">
</g>
<g id="Layer_3">
</g>
<g id="Layer_4">
</g>
<g id="Layer_5">
</g>
<g id="Layer_6">
</g>
<g id="ghost">
</g>
</svg>
