<?xml version="1.0" encoding="utf-8"?>
<!-- Generator: Adobe Illustrator 18.0.0, SVG Export Plug-In . SVG Version: 6.00 Build 0)  -->
<!DOCTYPE svg PUBLIC "-//W3C//DTD SVG 1.1//EN" "http://www.w3.org/Graphics/SVG/1.1/DTD/svg11.dtd">
<svg version="1.1" xmlns="http://www.w3.org/2000/svg" xmlns:xlink="http://www.w3.org/1999/xlink" x="0px" y="0px"
	 viewBox="0 0 48 48" enable-background="new 0 0 48 48" xml:space="preserve">
<g id="Layer_1">
</g>
<g id="good_luck_bird">
</g>
<g id="event-go">
</g>
<g id="cancel-date">
</g>
<g id="evet-date">
</g>
<g id="event-list">
</g>
<g id="flight">
</g>
<g id="travel-bag">
</g>
<g id="limejuice">
</g>
<g id="beach-2_1_">
</g>
<g id="beach-2">
</g>
<g id="soks">
</g>
<g id="eye_wear">
</g>
<g id="skin-doll">
</g>
<g id="dec-bell">
</g>
<g id="dec-egg-2">
</g>
<g id="dec-egg">
</g>
<g id="flower-1">
</g>
<g id="flower">
</g>
<g id="light_house-2">
</g>
<g id="light-house">
</g>
<g id="snow-mountain">
</g>
<g id="light">
</g>
<g id="corn-ice">
</g>
<g id="beach-stand">
</g>
<g id="umberlla">
</g>
<g id="lifeguard">
</g>
<g id="direct">
</g>
<g id="bag-2">
</g>
<g id="bag-1">
</g>
<g id="balloon_1_">
</g>
<g id="balloon">
</g>
<g id="stars">
</g>
<g id="star-large">
</g>
<g id="decorate">
</g>
<g id="star">
</g>
<g id="ball-tree">
</g>
<g id="giftballoon">
</g>
<g id="decorate-1">
</g>
<g id="ribbon">
</g>
<g id="places">
</g>
<g id="bag">
</g>
<g id="christmass-ball-4">
</g>
<g id="christmas-ball-3">
</g>
<g id="cristmass-ball-2">
</g>
<g id="basket-gift">
</g>
<g id="hot_coffee">
</g>
<g id="lollipop-2">
</g>
<g id="lollipop_2">
</g>
<g id="ribbon_hold">
</g>
<g id="ribbons">
</g>
<g id="offer">
</g>
<g id="candels">
</g>
<g id="halloween">
</g>
<g id="egg-dec">
</g>
<g id="shore">
</g>
<g id="hot_air_balloon">
</g>
<g id="leef">
</g>
<g id="puppies">
</g>
<g id="ship">
</g>
<g id="goat">
</g>
<g id="tend">
</g>
<g id="watermelon">
</g>
<g id="lollipop">
</g>
<g id="sun-set">
</g>
<g id="ball-dec-1">
</g>
<g id="ball-dec">
</g>
<g id="snow_doll_1_">
</g>
<g id="snow_doll">
</g>
<g id="stick">
	<g>
		<g>
			<path d="M24.5,2.5c4.6865234,0,8.5,3.8129883,8.5,8.5v2c0,1.3808594-1.1191406,2.5-2.5,2.5S28,14.3808594,28,13v-2
				c0-1.9296875-1.5703125-3.5-3.5-3.5S21,9.0703125,21,11v31.5c0,1.3808594-1.1191406,2.5-2.5,2.5S16,43.8808594,16,42.5V11
				C16,6.3129883,19.8134766,2.5,24.5,2.5 M24.5,0.5C18.7102661,0.5,14,5.2102814,14,11v31.5c0,2.481308,2.0186768,4.5,4.5,4.5
				s4.5-2.018692,4.5-4.5V11c0-0.8271027,0.6729126-1.5,1.5-1.5S26,10.1728973,26,11v2c0,2.481308,2.0186768,4.5,4.5,4.5
				S35,15.481308,35,13v-2C35,5.2102814,30.2897339,0.5,24.5,0.5L24.5,0.5z"/>
		</g>
	</g>
	<line fill="none" stroke="#000000" stroke-width="2" stroke-miterlimit="10" x1="16" y1="44" x2="22" y2="38"/>
	
		<line fill="none" stroke="#000000" stroke-width="2" stroke-linecap="round" stroke-miterlimit="10" x1="22" y1="31" x2="15" y2="38"/>
	
		<line fill="none" stroke="#000000" stroke-width="2" stroke-linecap="round" stroke-miterlimit="10" x1="22" y1="24" x2="15" y2="31"/>
	
		<line fill="none" stroke="#000000" stroke-width="2" stroke-linecap="round" stroke-miterlimit="10" x1="22" y1="17" x2="15" y2="24"/>
	
		<line fill="none" stroke="#000000" stroke-width="2" stroke-linecap="round" stroke-miterlimit="10" x1="29" y1="3" x2="15" y2="17"/>
	
		<line fill="none" stroke="#000000" stroke-width="2" stroke-linecap="round" stroke-miterlimit="10" x1="23" y1="2" x2="15" y2="10"/>
	
		<line fill="none" stroke="#000000" stroke-width="2" stroke-linecap="round" stroke-miterlimit="10" x1="33" y1="7" x2="27" y2="13"/>
</g>
<g id="cracker-3">
</g>
<g id="crackers">
</g>
<g id="gift">
</g>
<g id="candle_glass">
</g>
<g id="wine_glass">
</g>
<g id="snowflake-8_1_">
</g>
<g id="snowflake-8">
</g>
<g id="snowflake-7">
</g>
<g id="snowflake6">
</g>
<g id="snowflake-5">
</g>
<g id="snowflake-4">
</g>
<g id="snowflake-3">
</g>
<g id="snowflake-2">
</g>
<g id="snowflake-1">
</g>
<g id="snowflake">
</g>
<g id="tree-2">
</g>
<g id="star_tree">
</g>
<g id="trees">
</g>
<g id="tree">
</g>
<g id="x-mashat">
</g>
<g id="x-mas-hat">
</g>
<g id="candle">
</g>
<g id="drink">
</g>
<g id="bell-2">
</g>
<g id="bell">
</g>
<g id="Layer_2">
</g>
<g id="Layer_3">
</g>
<g id="magicstic">
</g>
<g id="christmas-ball">
</g>
<g id="leef-dec">
</g>
<g id="navigator">
</g>
<g id="gift-3">
</g>
<g id="eye-wear-2">
</g>
</svg>
