<?xml version="1.0" encoding="utf-8"?>
<!-- Generator: Adobe Illustrator 18.0.0, SVG Export Plug-In . SVG Version: 6.00 Build 0)  -->
<!DOCTYPE svg PUBLIC "-//W3C//DTD SVG 1.1//EN" "http://www.w3.org/Graphics/SVG/1.1/DTD/svg11.dtd">
<svg version="1.1" xmlns="http://www.w3.org/2000/svg" xmlns:xlink="http://www.w3.org/1999/xlink" x="0px" y="0px"
	 viewBox="0 0 48 48" enable-background="new 0 0 48 48" xml:space="preserve">
<g id="Layer_1">
</g>
<g id="good_luck_bird">
</g>
<g id="event-go">
</g>
<g id="cancel-date">
</g>
<g id="evet-date">
</g>
<g id="event-list">
</g>
<g id="flight">
</g>
<g id="travel-bag">
</g>
<g id="limejuice">
</g>
<g id="beach-2_1_">
</g>
<g id="beach-2">
</g>
<g id="soks">
</g>
<g id="eye_wear">
</g>
<g id="skin-doll">
</g>
<g id="dec-bell">
</g>
<g id="dec-egg-2">
</g>
<g id="dec-egg">
</g>
<g id="flower-1">
</g>
<g id="flower">
</g>
<g id="light_house-2">
</g>
<g id="light-house">
</g>
<g id="snow-mountain">
</g>
<g id="light">
</g>
<g id="corn-ice">
</g>
<g id="beach-stand">
</g>
<g id="umberlla">
</g>
<g id="lifeguard">
</g>
<g id="direct">
</g>
<g id="bag-2">
</g>
<g id="bag-1">
</g>
<g id="balloon_1_">
</g>
<g id="balloon">
</g>
<g id="stars">
</g>
<g id="star-large">
</g>
<g id="decorate">
</g>
<g id="star">
</g>
<g id="ball-tree">
</g>
<g id="giftballoon">
</g>
<g id="decorate-1">
</g>
<g id="ribbon">
</g>
<g id="places">
</g>
<g id="bag">
</g>
<g id="christmass-ball-4">
</g>
<g id="christmas-ball-3">
</g>
<g id="cristmass-ball-2">
</g>
<g id="basket-gift">
</g>
<g id="hot_coffee">
</g>
<g id="lollipop-2">
</g>
<g id="lollipop_2">
</g>
<g id="ribbon_hold">
</g>
<g id="ribbons">
</g>
<g id="offer">
</g>
<g id="candels">
</g>
<g id="halloween">
</g>
<g id="egg-dec">
</g>
<g id="shore">
</g>
<g id="hot_air_balloon">
</g>
<g id="leef">
</g>
<g id="puppies">
</g>
<g id="ship">
</g>
<g id="goat">
</g>
<g id="tend">
</g>
<g id="watermelon">
</g>
<g id="lollipop">
</g>
<g id="sun-set">
</g>
<g id="ball-dec-1">
</g>
<g id="ball-dec">
</g>
<g id="snow_doll_1_">
	<path fill="none" stroke="#000000" stroke-width="2" stroke-linecap="round" stroke-miterlimit="10" d="M20,11V5
		c0-0.5522847,0.4477158-1,1-1h6c0.5522842,0,1,0.4477153,1,1v6"/>
	
		<line fill="none" stroke="#000000" stroke-width="2" stroke-linecap="round" stroke-miterlimit="10" x1="14" y1="11" x2="34" y2="11"/>
	<circle fill="none" stroke="#000000" stroke-width="2" stroke-linecap="round" stroke-miterlimit="10" cx="24" cy="16" r="5"/>
	<path fill="none" stroke="#000000" stroke-width="2" stroke-linecap="round" stroke-miterlimit="10" d="M15.0002937,40.9378052
		C13.133028,38.8223648,12,36.043499,12,33c0-6.6274166,5.3725834-12,12-12c6.2906666,0,11.450779,4.8404732,11.9589272,11.0000076"
		/>
	
		<line fill="none" stroke="#000000" stroke-width="2" stroke-linecap="round" stroke-miterlimit="10" x1="34" y1="25" x2="42" y2="17"/>
	
		<line fill="none" stroke="#000000" stroke-width="2" stroke-linecap="round" stroke-miterlimit="10" x1="14" y1="24" x2="6" y2="16"/>
	<path fill="none" stroke="#000000" stroke-width="2" stroke-linecap="round" stroke-linejoin="round" stroke-miterlimit="10" d="
		M42.1785889,28.0090332C42.1186523,28.0075073,42.0603027,28,42,28c-3.5455322,0-6.4678955,2.6384277-6.9292603,6.0575562
		C34.8839722,34.0267334,34.6954956,34,34.5,34c-1.9329834,0-3.5,1.5670166-3.5,3.5
		c0,0.0037842,0.0010986,0.0072632,0.0010986,0.0110474C29.746521,36.5665283,28.1913452,36,26.5,36
		c-3.680603,0-6.7357788,2.6533203-7.3723145,6.1502075C18.369873,41.4420166,17.3595581,41,16.2404785,41
		c-0.418457,0-0.8146362,0.0793457-1.1964722,0.1922607C14.5482788,41.071228,14.03302,41,13.5,41
		c-1.9559937,0-3.7057495,0.867981-4.8973389,2.2351685c-0.1351929,0.0476685-0.2664795,0.0996094-0.3943481,0.1613159
		c-0.2384644-2.0531006-1.9631348-3.652771-4.0802002-3.652771"/>
</g>
<g id="snow_doll">
</g>
<g id="stick">
</g>
<g id="cracker-3">
</g>
<g id="crackers">
</g>
<g id="gift">
</g>
<g id="candle_glass">
</g>
<g id="wine_glass">
</g>
<g id="snowflake-8_1_">
</g>
<g id="snowflake-8">
</g>
<g id="snowflake-7">
</g>
<g id="snowflake6">
</g>
<g id="snowflake-5">
</g>
<g id="snowflake-4">
</g>
<g id="snowflake-3">
</g>
<g id="snowflake-2">
</g>
<g id="snowflake-1">
</g>
<g id="snowflake">
</g>
<g id="tree-2">
</g>
<g id="star_tree">
</g>
<g id="trees">
</g>
<g id="tree">
</g>
<g id="x-mashat">
</g>
<g id="x-mas-hat">
</g>
<g id="candle">
</g>
<g id="drink">
</g>
<g id="bell-2">
</g>
<g id="bell">
</g>
<g id="Layer_2">
</g>
<g id="Layer_3">
</g>
<g id="magicstic">
</g>
<g id="christmas-ball">
</g>
<g id="leef-dec">
</g>
<g id="navigator">
</g>
<g id="gift-3">
</g>
<g id="eye-wear-2">
</g>
</svg>
