<?xml version="1.0" encoding="utf-8"?>
<!-- Generator: Adobe Illustrator 18.0.0, SVG Export Plug-In . SVG Version: 6.00 Build 0)  -->
<!DOCTYPE svg PUBLIC "-//W3C//DTD SVG 1.1//EN" "http://www.w3.org/Graphics/SVG/1.1/DTD/svg11.dtd">
<svg version="1.1" xmlns="http://www.w3.org/2000/svg" xmlns:xlink="http://www.w3.org/1999/xlink" x="0px" y="0px"
	 viewBox="0 0 48 48" enable-background="new 0 0 48 48" xml:space="preserve">
<g id="Layer_1">
</g>
<g id="good_luck_bird">
</g>
<g id="event-go">
</g>
<g id="cancel-date">
</g>
<g id="evet-date">
</g>
<g id="event-list">
</g>
<g id="flight">
</g>
<g id="travel-bag">
</g>
<g id="limejuice">
</g>
<g id="beach-2_1_">
</g>
<g id="beach-2">
</g>
<g id="soks">
</g>
<g id="eye_wear">
</g>
<g id="skin-doll">
</g>
<g id="dec-bell">
</g>
<g id="dec-egg-2">
</g>
<g id="dec-egg">
</g>
<g id="flower-1">
</g>
<g id="flower">
</g>
<g id="light_house-2">
</g>
<g id="light-house">
</g>
<g id="snow-mountain">
</g>
<g id="light">
</g>
<g id="corn-ice">
</g>
<g id="beach-stand">
</g>
<g id="umberlla">
</g>
<g id="lifeguard">
</g>
<g id="direct">
</g>
<g id="bag-2">
</g>
<g id="bag-1">
</g>
<g id="balloon_1_">
</g>
<g id="balloon">
</g>
<g id="stars">
</g>
<g id="star-large">
</g>
<g id="decorate">
</g>
<g id="star">
</g>
<g id="ball-tree">
</g>
<g id="giftballoon">
</g>
<g id="decorate-1">
</g>
<g id="ribbon">
</g>
<g id="places">
</g>
<g id="bag">
</g>
<g id="christmass-ball-4">
</g>
<g id="christmas-ball-3">
</g>
<g id="cristmass-ball-2">
</g>
<g id="basket-gift">
</g>
<g id="hot_coffee">
</g>
<g id="lollipop-2">
</g>
<g id="lollipop_2">
</g>
<g id="ribbon_hold">
</g>
<g id="ribbons">
</g>
<g id="offer">
</g>
<g id="candels">
</g>
<g id="halloween">
</g>
<g id="egg-dec">
</g>
<g id="shore">
</g>
<g id="hot_air_balloon">
</g>
<g id="leef">
</g>
<g id="puppies">
</g>
<g id="ship">
</g>
<g id="goat">
</g>
<g id="tend">
</g>
<g id="watermelon">
</g>
<g id="lollipop">
</g>
<g id="sun-set">
</g>
<g id="ball-dec-1">
</g>
<g id="ball-dec">
</g>
<g id="snow_doll_1_">
</g>
<g id="snow_doll">
</g>
<g id="stick">
</g>
<g id="cracker-3">
</g>
<g id="crackers">
</g>
<g id="gift">
</g>
<g id="candle_glass">
</g>
<g id="wine_glass">
</g>
<g id="snowflake-8_1_">
</g>
<g id="snowflake-8">
</g>
<g id="snowflake-7">
</g>
<g id="snowflake6">
</g>
<g id="snowflake-5">
</g>
<g id="snowflake-4">
</g>
<g id="snowflake-3">
</g>
<g id="snowflake-2">
</g>
<g id="snowflake-1">
</g>
<g id="snowflake">
</g>
<g id="tree-2">
</g>
<g id="star_tree">
</g>
<g id="trees">
</g>
<g id="tree">
</g>
<g id="x-mashat">
</g>
<g id="x-mas-hat">
</g>
<g id="candle">
</g>
<g id="drink">
</g>
<g id="bell-2">
</g>
<g id="bell">
	<path fill="none" stroke="#000000" stroke-width="2" stroke-miterlimit="10" d="M32.1828537,33.0381813
		c0.5597801,1.6793365-0.4421959,3.4722328-2.1665955,3.8722C27.7398205,37.4383965,24.3387375,38,20.1701279,38
		c-4.1922874,0-7.5840635-0.5584984-9.8506813-1.085228c-1.7231627-0.4004364-2.7231464-2.1932869-2.1637144-3.871582
		l0.9396448-2.8189354c0.7118454-2.1355343,1.0747519-4.3718662,1.0747519-6.6229172v-1.601347
		C10.1701288,16.4771481,14.6472769,12,20.1701183,12h0.000021c5.5228405,0,9.9999886,4.4771481,9.9999886,9.9999905v1.601347
		c0,2.2510509,0.3629074,4.4873829,1.0747528,6.6229172L32.1828537,33.0381813z"/>
	<path fill="none" stroke="#000000" stroke-width="2" stroke-miterlimit="10" d="M20.2172947,38.6637955l-0.7204952,2.9725418
		c-0.3902912,1.6102295-2.0120335,2.5991821-3.622261,2.208889h-0.0000057
		c-1.6102276-0.3902931-2.5991802-2.0120354-2.2088881-3.622261l0.7204943-2.9725418"/>
	<circle fill="none" stroke="#000000" stroke-width="2" stroke-miterlimit="10" cx="20" cy="10" r="2"/>
	
		<line fill="none" stroke="#000000" stroke-width="2" stroke-linecap="round" stroke-miterlimit="10" x1="20" y1="8" x2="20" y2="2"/>
	<path fill="none" stroke="#000000" stroke-width="2" stroke-miterlimit="10" d="M21.7959709,10.498868l0.0000114-0.0000143
		c2.9897919-3.9097633,8.5829868-4.6555471,12.4927483-1.6657543l1.1336365,0.866889
		c1.5935783,1.2186079,3.3731956,2.1723356,5.2703514,2.8244743l2.4998245,0.8593025
		c1.4918861,0.5128279,2.2187004,2.1927385,1.5683441,3.6300077c-0.8585548,1.8973885-2.3021584,4.609129-4.5588341,7.5601959
		c-2.2694969,2.9678307-4.5010109,5.0666142-6.1009331,6.3860664c-0.621624,0.5126514-1.3984566,0.6947002-2.1276588,0.5760231"/>
	<path fill="none" stroke="#000000" stroke-width="2" stroke-miterlimit="10" d="M40.6975021,24.8999252l1.7143021,2.1192436
		c0.9286346,1.147995,0.7508125,2.8314381-0.3971825,3.7600746l-0.0000038,0.0000038
		c-1.147995,0.9286366-2.83144,0.7508125-3.7600784-0.3971825l-1.7142982-2.1192436"/>
	<path fill="none" stroke="#000000" stroke-width="2" stroke-linecap="round" stroke-miterlimit="10" d="M17,17
		c0,0-2.416667,0.833334-3,6s-1.166667,8.416666-2,10"/>
	<path fill="none" stroke="#000000" stroke-width="2" stroke-linecap="round" stroke-miterlimit="10" d="M27,11
		c0,0,5.5,0.833333,6,8"/>
</g>
<g id="Layer_2">
</g>
<g id="Layer_3">
</g>
<g id="magicstic">
</g>
<g id="christmas-ball">
</g>
<g id="leef-dec">
</g>
<g id="navigator">
</g>
<g id="gift-3">
</g>
<g id="eye-wear-2">
</g>
</svg>
