<?xml version="1.0" encoding="utf-8"?>
<!-- Generator: Adobe Illustrator 18.0.0, SVG Export Plug-In . SVG Version: 6.00 Build 0)  -->
<!DOCTYPE svg PUBLIC "-//W3C//DTD SVG 1.1//EN" "http://www.w3.org/Graphics/SVG/1.1/DTD/svg11.dtd">
<svg version="1.1" xmlns="http://www.w3.org/2000/svg" xmlns:xlink="http://www.w3.org/1999/xlink" x="0px" y="0px"
	 viewBox="0 0 48 48" enable-background="new 0 0 48 48" xml:space="preserve">
<g id="Layer_1">
</g>
<g id="beach">
</g>
<g id="ice-2">
</g>
<g id="goast-3">
</g>
<g id="rip">
</g>
<g id="beach_tree">
	<g>
		<path fill="none" stroke="#000000" stroke-width="2" stroke-linecap="round" stroke-linejoin="round" stroke-miterlimit="10" d="
			M26,39c2.7089348-6.0866165,0.9209862-18.4009666-5.6683865-25.52174c0,0-0.956522,9.246377,0.637682,14.666667
			c0,0-6.057972-2.7632847-4.4637699-14.028986c0,0-7.1207724,5.10145-9.5652161,8.289856
			c0,0-1.8067632-9.1400976,9.5652161-12.753624l-3.188405-2.5507245l6.376811,1.2753625L22.2446575,2"/>
		<path fill="none" stroke="#000000" stroke-width="2" stroke-linecap="round" stroke-linejoin="round" stroke-miterlimit="10" d="
			M22.2446575,2c0,0,1.0628014,2.0193238,0,4.463768c0,0,8.5024147-5.6328502,16.57971,1.2753625
			c0,0-9.7777786-0.7439613-12.753624,1.2753625c0,0,8.3961372,2.7632847,8.289856,12.753623
			c0,0-6.4830933-10.521739-11.4782619-9.565217c0,0,9.1400967,11.797101,9.565218,24.231884
			c0,0,9.5652161,0.7439613,9.5652161,4.463768S31.1721935,46,24.7953815,46s-16.3671494-1.8067627-16.57971-4.463768
			S14.2982922,35.9986877,26,36"/>
		<path fill="#FFFFFF" d="M8.2156715,44.086956"/>
	</g>
</g>
<g id="goast_1_">
</g>
<g id="boarn">
</g>
<g id="semithery">
</g>
<g id="skelten">
</g>
<g id="halloween">
</g>
<g id="wizard-hat">
</g>
<g id="dark_cat">
</g>
<g id="net">
</g>
<g id="coffin">
</g>
<g id="goast">
</g>
<g id="fish">
</g>
<g id="night">
</g>
<g id="bat-2">
</g>
<g id="bat">
</g>
<g id="Layer_2">
</g>
<g id="Layer_3">
</g>
<g id="Layer_4">
</g>
<g id="Layer_5">
</g>
<g id="Layer_6">
</g>
<g id="ghost">
</g>
</svg>
