<?xml version="1.0" encoding="utf-8"?>
<!-- Generator: Adobe Illustrator 18.0.0, SVG Export Plug-In . SVG Version: 6.00 Build 0)  -->
<!DOCTYPE svg PUBLIC "-//W3C//DTD SVG 1.1//EN" "http://www.w3.org/Graphics/SVG/1.1/DTD/svg11.dtd">
<svg version="1.1" xmlns="http://www.w3.org/2000/svg" xmlns:xlink="http://www.w3.org/1999/xlink" x="0px" y="0px"
	 viewBox="0 0 48 48" enable-background="new 0 0 48 48" xml:space="preserve">
<g id="Layer_1">
</g>
<g id="beach">
</g>
<g id="ice-2">
</g>
<g id="goast-3">
	<path fill="none" stroke="#000000" stroke-width="2" stroke-linecap="round" stroke-linejoin="round" stroke-miterlimit="10" d="
		M42,20c0-9.9411259-8.058876-18-18-18S6,10.0588741,6,20v17c0,1.6568527,1.3431458,3,3,3s3-1.3431473,3-3v-3
		c0-1.1045685,0.8954306-2,2-2s2,0.8954315,2,2v9c0,2.2091408,1.7908611,4,4,4s4-1.7908592,4-4v-5c0-1.1045685,0.8954296-2,2-2
		s2,0.8954315,2,2v3.5c0,1.3807106,1.1192875,2.5,2.5,2.5s2.5-1.1192894,2.5-2.5V39c0-1.1045685,0.8954315-2,2-2s2,0.8954315,2,2
		v0.5c0,1.3807106,1.1192894,2.5,2.5,2.5s2.5-1.1192894,2.5-2.5V20z"/>
	<g>
		<path fill="none" stroke="#000000" stroke-width="2" stroke-linecap="round" stroke-linejoin="round" stroke-miterlimit="10" d="
			M30.3770142,24.500145c-0.4881592,0.9981308-3.2659302-0.2036057-6.3770752-0.2036057s-5.8887939,1.2017441-6.3769531,0.2036133
			C17.1348267,23.5020142,19.8877563,21,23.999939,21S30.8651733,23.5020142,30.3770142,24.500145z"/>
	</g>
	<path fill="none" stroke="#000000" stroke-width="2" stroke-linecap="round" stroke-linejoin="round" stroke-miterlimit="10" d="
		M28,17l5-5c0,0,2.5480156,2.8108597,0,5C30.78125,18.90625,28,17,28,17z"/>
	<path fill="none" stroke="#000000" stroke-width="2" stroke-linecap="round" stroke-linejoin="round" stroke-miterlimit="10" d="
		M20.0662251,17l-4.999999-5c0,0-2.5480165,2.8108597,0,5C17.2849751,18.90625,20.0662251,17,20.0662251,17z"/>
	<path fill="none" stroke="#000000" stroke-width="2" stroke-linecap="round" stroke-linejoin="round" stroke-miterlimit="10" d="
		M41,13c0,0,6-1.5,6,6c0,5.8339291,0,6,0,6s0.3333321,3-2,3c-2.1666679,0-1.4166679-3-3-3"/>
	<path fill="none" stroke="#000000" stroke-width="2" stroke-linecap="round" stroke-linejoin="round" stroke-miterlimit="10" d="
		M7.0092592,13.6365547c0,0-6.0092592-1.4698877-6.0092592,6c0,5.8339291,0,6,0,6s-0.3240741,3,2.0092592,3
		c2.1666665,0,1.4166665-3,3-3"/>
</g>
<g id="rip">
</g>
<g id="beach_tree">
</g>
<g id="goast_1_">
</g>
<g id="boarn">
</g>
<g id="semithery">
</g>
<g id="skelten">
</g>
<g id="halloween">
</g>
<g id="wizard-hat">
</g>
<g id="dark_cat">
</g>
<g id="net">
</g>
<g id="coffin">
</g>
<g id="goast">
</g>
<g id="fish">
</g>
<g id="night">
</g>
<g id="bat-2">
</g>
<g id="bat">
</g>
<g id="Layer_2">
</g>
<g id="Layer_3">
</g>
<g id="Layer_4">
</g>
<g id="Layer_5">
</g>
<g id="Layer_6">
</g>
<g id="ghost">
</g>
</svg>
