<?xml version="1.0" encoding="utf-8"?>
<!-- Generator: Adobe Illustrator 18.0.0, SVG Export Plug-In . SVG Version: 6.00 Build 0)  -->
<!DOCTYPE svg PUBLIC "-//W3C//DTD SVG 1.1//EN" "http://www.w3.org/Graphics/SVG/1.1/DTD/svg11.dtd">
<svg version="1.1" id="Layer_1" xmlns="http://www.w3.org/2000/svg" xmlns:xlink="http://www.w3.org/1999/xlink" x="0px" y="0px"
	 viewBox="0 0 48 48" enable-background="new 0 0 48 48" xml:space="preserve">
<g>
	<path fill="none" stroke="#000000" stroke-width="2" stroke-linecap="round" stroke-linejoin="round" stroke-miterlimit="10" d="
		M21.6018867,28.860302c0,3.7766266-4.0289268,7.9778824-8.9988604,7.9778824s-8.9988594-4.2012558-8.9988594-7.9778824
		s4.0289268-5.6984863,8.9988594-5.6984863S21.6018867,25.0836773,21.6018867,28.860302z"/>
	<path fill="none" stroke="#000000" stroke-width="2" stroke-linecap="round" stroke-linejoin="round" stroke-miterlimit="10" d="
		M44.3958321,28.860302c0,3.7766266-4.0289268,7.9778824-8.9988594,7.9778824s-8.9988594-4.2012558-8.9988594-7.9778824
		s4.0289268-5.6984863,8.9988594-5.6984863S44.3958321,25.0836773,44.3958321,28.860302z"/>
	
		<line fill="none" stroke="#000000" stroke-width="2" stroke-linecap="round" stroke-linejoin="round" stroke-miterlimit="10" x1="19" y1="24" x2="29" y2="24"/>
	
		<line fill="none" stroke="#000000" stroke-width="2" stroke-linecap="round" stroke-linejoin="round" stroke-miterlimit="10" x1="22" y1="28" x2="26" y2="28"/>
	<path fill="none" stroke="#000000" stroke-width="2" stroke-linecap="round" stroke-linejoin="round" stroke-miterlimit="10" d="
		M3.3124828,27.5c0.1931477-0.2896957,8.8532372-12.9627857,12.783205-18.7134972
		c1.0265007-1.5020738,3.1152515-1.8062196,4.5293102-0.6615057L20.625,8.125"/>
	<path fill="none" stroke="#000000" stroke-width="2" stroke-linecap="round" stroke-linejoin="round" stroke-miterlimit="10" d="
		M44.625,27.5c-0.1931305-0.2896957-8.8532219-12.9627857-12.7831879-18.7134972
		c-1.0265007-1.5020738-3.1152515-1.8062196-4.5293102-0.6615057L27.3125,8.125"/>
</g>
</svg>
