<?xml version="1.0" encoding="utf-8"?>
<!-- Generator: Adobe Illustrator 18.0.0, SVG Export Plug-In . SVG Version: 6.00 Build 0)  -->
<!DOCTYPE svg PUBLIC "-//W3C//DTD SVG 1.1//EN" "http://www.w3.org/Graphics/SVG/1.1/DTD/svg11.dtd">
<svg version="1.1" id="Layer_1" xmlns="http://www.w3.org/2000/svg" xmlns:xlink="http://www.w3.org/1999/xlink" x="0px" y="0px"
	 viewBox="0 0 48 48" enable-background="new 0 0 48 48" xml:space="preserve">
<g>
	<g>
		<g>
			<path fill="none" stroke="#000000" stroke-width="2" stroke-linejoin="round" stroke-miterlimit="10" d="M28.2120056,6.9997559
				c-3.3695679,0-5.0543213,0-8.4239197,0c-4.3599243,0.000061-8.2026367,3.7954102-8.5831299,8.4771118
				c-0.2195129,2.7011108-0.3293457,4.0518799-0.5487061,6.7531128l0,0
				c-0.2686462,3.3080444-0.4030457,4.9621582-0.671814,8.2700806C9.8722534,31.8807373,11.0055237,33,12.515686,33l0,0
				c1.5101318,0,2.7903442-1.1192627,2.859375-2.499939C15.5450439,27.1000977,15.6300049,25.4002075,15.7999268,22
				c6.5600281,0,9.8400269,0,16.4000854-0.000061c0.1699829,3.4003296,0.2550049,5.1002808,0.4250488,8.5001221
				C32.6940918,31.8807373,33.9742432,33,35.484375,33l0,0c1.5101929,0,2.6434937-1.1192627,2.531311-2.499939
				c-0.2687378-3.3078003-0.4031982-4.961853-0.671936-8.2701416l0,0c-0.2194214-2.7014771-0.3291626-4.0522461-0.5487061-6.7532959
				C36.4144897,10.795105,32.5718994,6.9997559,28.2120056,6.9997559z"/>
			<path fill="none" stroke="#000000" stroke-width="2" stroke-linejoin="round" stroke-miterlimit="10" d="M15.7999268,22
				c0.8069153,2.0727539,1.224762,3.1092529,2.0892029,5.1818848c0.460022,1.1030273,1.5987854,1.8182373,2.8813477,1.8182373
				c2.5836487,0,3.8754883,0,6.459137,0c1.2825623,0,2.4212952-0.7151489,2.8812866-1.8181763
				c0.8643799-2.0726318,1.282196-3.1091309,2.0891113-5.1820068"/>
			<path fill="none" stroke="#000000" stroke-width="2" stroke-linejoin="round" stroke-miterlimit="10" d="M20.2750549,6.9997559
				c0.0552368-2.2091675,1.7229919-3.999939,3.7250366-3.999939c2.0020142,0,3.6697083,1.7907715,3.7249451,3.999939"/>
		</g>
	</g>
	<path fill="none" stroke="#000000" stroke-width="2" stroke-linecap="round" stroke-linejoin="round" stroke-miterlimit="10" d="
		M12,33c0,0-1.0863218,3.3944206,2,6s2,4,2,4"/>
	<path fill="none" stroke="#000000" stroke-width="2" stroke-linecap="round" stroke-linejoin="round" stroke-miterlimit="10" d="
		M36,33c0,0,2.1885796,5.5351944,1,8"/>
</g>
</svg>
