<?xml version="1.0" encoding="utf-8"?>
<!-- Generator: Adobe Illustrator 18.0.0, SVG Export Plug-In . SVG Version: 6.00 Build 0)  -->
<!DOCTYPE svg PUBLIC "-//W3C//DTD SVG 1.1//EN" "http://www.w3.org/Graphics/SVG/1.1/DTD/svg11.dtd">
<svg version="1.1" id="Layer_1" xmlns="http://www.w3.org/2000/svg" xmlns:xlink="http://www.w3.org/1999/xlink" x="0px" y="0px"
	 viewBox="0 0 48 48" enable-background="new 0 0 48 48" xml:space="preserve">
<g>
	<g>
		<path fill="none" stroke="#000000" stroke-width="2" stroke-linecap="round" stroke-linejoin="round" stroke-miterlimit="10" d="
			M24,9.5c-3.0375652,0-5.5-3.4624338-5.5-6.5c0,0-5.3260288,1.1181941-5.9130144,3c0,0,5.3784857,8.5883131,3.7184591,14.6308098
			S12,38.0942879,12,44.203186c0,0,4.7543163,2.5896416,12,2.5896416"/>
		<path fill="none" stroke="#000000" stroke-width="2" stroke-linecap="round" stroke-linejoin="round" stroke-miterlimit="10" d="
			M12.7861881,7.9482074c0,0-6.7065067,13.6733055-7.5033197,28.0517921l4.1168661,0.6334648
			c0,0-0.278677-7.2601013,6.533968-23.0191612"/>
		<path fill="none" stroke="#000000" stroke-width="2" stroke-linecap="round" stroke-linejoin="round" stroke-miterlimit="10" d="
			M24.2828693,9.5c3.0375652,0,5.5-3.4624338,5.5-6.5c0,0,5.3260288,1.1181941,5.9130154,3
			c0,0-5.3784885,8.5883131-3.718462,14.6308098c1.6600285,6.0424976,4.3054447,17.4634781,4.3054447,23.5723763
			c0,0-4.7543144,2.5896416-11.9999981,2.5896416"/>
		<path fill="none" stroke="#000000" stroke-width="2" stroke-linecap="round" stroke-linejoin="round" stroke-miterlimit="10" d="
			M35.4966812,7.9482074c0,0,6.7065048,13.6733055,7.5033188,28.0517921l-4.1168671,0.6334648
			c0,0,0.2786789-7.2601013-6.5339661-23.0191612"/>
	</g>
	
		<circle fill="none" stroke="#000000" stroke-width="2" stroke-linecap="round" stroke-linejoin="round" stroke-miterlimit="10" cx="24" cy="15.6547241" r="1"/>
	
		<circle fill="none" stroke="#000000" stroke-width="2" stroke-linecap="round" stroke-linejoin="round" stroke-miterlimit="10" cx="24" cy="20.6547241" r="0.5"/>
	<path fill="none" stroke="#000000" stroke-width="2" stroke-linecap="round" stroke-linejoin="round" stroke-miterlimit="10" d="
		M12.6414347,40.2715912c0,0,4.5031443,2.4528313,11.3660364,2.4528313"/>
	<path fill="none" stroke="#000000" stroke-width="2" stroke-linecap="round" stroke-linejoin="round" stroke-miterlimit="10" d="
		M35.6414337,40.2715912c0,0-4.5031433,2.4528313-11.3660374,2.4528313"/>
	<path fill="none" stroke="#000000" stroke-width="2" stroke-linecap="round" stroke-linejoin="round" stroke-miterlimit="10" d="
		M5.6359382,32.1208229c0,0,1.3038397,0.7986107,4.0942426,0.9956017"/>
	<path fill="none" stroke="#000000" stroke-width="2" stroke-linecap="round" stroke-linejoin="round" stroke-miterlimit="10" d="
		M38.4699593,32.6186218c0,0,1.5353546,0.8328476,3.5300407-0.4977989"/>
</g>
</svg>
