<?xml version="1.0" encoding="utf-8"?>
<!-- Generator: Adobe Illustrator 18.0.0, SVG Export Plug-In . SVG Version: 6.00 Build 0)  -->
<!DOCTYPE svg PUBLIC "-//W3C//DTD SVG 1.1//EN" "http://www.w3.org/Graphics/SVG/1.1/DTD/svg11.dtd">
<svg version="1.1" id="Layer_1" xmlns="http://www.w3.org/2000/svg" xmlns:xlink="http://www.w3.org/1999/xlink" x="0px" y="0px"
	 viewBox="0 0 48 48" enable-background="new 0 0 48 48" xml:space="preserve">
<g>
	<path fill="none" stroke="#000000" stroke-width="2" stroke-linejoin="round" stroke-miterlimit="10" d="M23.7938614,46.5
		c1.193676,0,2.1972694-2.0436516,3.3732624-2.2656898c1.175993-0.2220421,2.9001789,1.3060493,4.0231228,0.8619652
		c1.1229439-0.4440804,1.2837334-2.7167244,2.3182602-3.3828468s3.2741051,0.0601273,4.1848488-0.8280334
		c0,0,1.4338379-5.1030807-1.8994942-10.6292439c-3.3333359-5.5261612-2.1666679-9.7520504,0-13.6528702
		c2.1666641-3.9008207-2-8.7768459-2-8.7768459l-0.8598328-5.869576C32.8536034,1.4078177,32.3714294,1,31.8027115,1h-0.0000019
		c-0.5763435,0-1.0624943,0.4185239-1.1339817,0.9762366l-0.8748665,6.8006096
		C28.5434971,10.6398058,26.458334,11.6196222,24,11.6196222c-2.291666,0-4.7496376-0.9798164-6-2.8427763l-0.8748684-6.8006096
		C17.0536461,1.4185239,16.5674953,1,15.9911518,1h-0.0000019c-0.568718,0-1.0508909,0.4078177-1.13132,0.9568597L14,7.8264356
		c0,0-4.166667,4.8760247-2,8.7768459s3.333333,8.126709,0,13.6528702s-1.8994942,10.6292439-1.8994942,10.6292439
		c0.9107447,0.8881607,3.1503229,0.161911,4.1848497,0.8280334s1.1953154,2.9387665,2.3182592,3.3828468
		c1.1229439,0.4440842,2.8471279-1.0840073,4.0231209-0.8619652C21.8027287,44.4563484,22.806324,46.5,24,46.5"/>
	<path fill="none" stroke="#000000" stroke-width="2" stroke-linejoin="round" stroke-miterlimit="10" d="M36.3969307,30.2677078
		c0,0-5.653801,3.7322922-12.5998974,3.7322922h0.1997948c-6.9460983,0-12.5998974-3.7565289-12.5998974-3.7565289"/>
</g>
<path fill="none" stroke="#000000" stroke-width="2" stroke-linejoin="round" stroke-miterlimit="10" d="M30.0890217,8.0501051
	c0.2509041,0.7726793,3.1741581,1.1560707,3.1741581,2.0123949c0,0.8563404-2.9232559,1.2397385-3.1741695,2.0124302
	c-0.260025,0.8007545,1.8702068,2.8277082,1.3851128,3.4942265c-0.4899197,0.673151-3.0790119-0.7296476-3.7521744-0.2397442
	c-0.6664867,0.4850445-0.1293964,3.3829784-0.9300995,3.6429825c-0.7726803,0.2509041-2.0385952-2.401144-2.8949184-2.401144
	c-0.8563404,0-2.1222782,2.6520405-2.8949699,2.4011269c-0.8007545-0.260025-0.2636681-3.1579723-0.9301853-3.6430655
	c-0.673151-0.4899197-3.2622795,0.9128103-3.752182,0.2396469c-0.4850445-0.6664867,1.6452503-2.6933613,1.3852463-3.4940643
	c-0.2509041-0.7726793-3.174159-1.1560707-3.174159-2.0123949c0-0.8563404,2.9232569-1.2397385,3.1741705-2.0124302"/>
<circle fill="none" stroke="#000000" stroke-width="2" stroke-linejoin="round" stroke-miterlimit="10" cx="24" cy="23" r="1"/>
</svg>
