<?xml version="1.0" encoding="utf-8"?>
<!-- Generator: Adobe Illustrator 18.0.0, SVG Export Plug-In . SVG Version: 6.00 Build 0)  -->
<!DOCTYPE svg PUBLIC "-//W3C//DTD SVG 1.1//EN" "http://www.w3.org/Graphics/SVG/1.1/DTD/svg11.dtd">
<svg version="1.1" id="Layer_1" xmlns="http://www.w3.org/2000/svg" xmlns:xlink="http://www.w3.org/1999/xlink" x="0px" y="0px"
	 viewBox="0 0 48 48" enable-background="new 0 0 48 48" xml:space="preserve">
<g>
	<path fill="none" stroke="#000000" stroke-width="2" stroke-linejoin="round" stroke-miterlimit="10" d="M21.2011566,16.8068829
		c-5.4109116,0-9.7973232-4.3864107-9.7973232-9.7973232c0,0-7.161335-0.377068-6.9980879,1.3996172
		c1.3163824,14.3266993,1.0685248,23.4869461,0.6505017,28.5625534c-0.22158,2.6904068,1.923049,4.9734116,4.6223893,4.9425011
		C13.4178553,41.871418,18.273201,41.855423,21.2011566,42"/>
</g>
<g>
	<path fill="none" stroke="#000000" stroke-width="2" stroke-linejoin="round" stroke-miterlimit="10" d="M21.2011566,16.8068829
		c5.4109135,0,9.7973232-4.3864107,9.7973232-9.7973232c0,0,7.1613369-0.377068,6.9980907,1.3996172
		c-1.3163834,14.3266993-1.0685272,23.4869461-0.6505051,28.5625534c0.2215805,2.6904068-1.9230461,4.9734116-4.6223869,4.9425011
		C28.9844589,41.871418,24.1291142,41.855423,21.2011566,42"/>
</g>
<path fill="none" stroke="#000000" stroke-width="2" stroke-linejoin="round" stroke-miterlimit="10" d="M36.5801582,39.1746063
	C37.0113792,36.1690559,43.5950394,14,43.5950394,14H38"/>
</svg>
