<?xml version="1.0" encoding="utf-8"?>
<!-- Generator: Adobe Illustrator 18.0.0, SVG Export Plug-In . SVG Version: 6.00 Build 0)  -->
<!DOCTYPE svg PUBLIC "-//W3C//DTD SVG 1.1//EN" "http://www.w3.org/Graphics/SVG/1.1/DTD/svg11.dtd">
<svg version="1.1" id="Layer_1" xmlns="http://www.w3.org/2000/svg" xmlns:xlink="http://www.w3.org/1999/xlink" x="0px" y="0px"
	 viewBox="0 0 48 48" enable-background="new 0 0 48 48" xml:space="preserve">
<g>
	<path fill="none" stroke="#000000" stroke-width="2" stroke-linejoin="round" stroke-miterlimit="10" d="M24,47
		c5.5033207,0.14077,13-1,13-1c-1.6497955-4.4011002-0.8406448-17.7927589-0.3212585-24.3307343
		c0.03125-0.3933849,0.6062965-0.3913345,0.6404839,0.0018063L39,41c4.0610886,0.4887123,6,0,6,0
		c-0.2799225-2.7572517-0.0761909-17.1699543-0.0155525-21.0417423c0.0099945-0.6381741-0.1027374-1.2658081-0.3318558-1.8615189
		l-3.0170326-7.8442831c-1.0272217-2.6707778-3.2736931-4.6863933-6.0397987-5.4191284L29.5,3.2185743
		C29.5,6.2561402,26.7304115,10.4794159,24,12c-2.9136791-1.3213816-5.5-5.7438598-5.5-8.7814255l-6.0957613,1.614753
		C9.6381321,5.5660625,7.3916626,7.5816779,6.36444,10.2524557l-3.0170321,7.8442831
		c-0.2291191,0.5957108-0.3418493,1.2233448-0.3318548,1.8615189C3.0761898,23.8300457,3.2799242,38.2427483,3,41
		c0,0,1.938911,0.4887123,6,0l1.6807766-19.328928c0.0341864-0.3931408,0.609231-0.3951912,0.6404819-0.0018063
		C11.8406429,28.2072411,12.6497936,41.5988998,11,46C11,46,18.4966793,47.14077,24,47"/>
</g>
<line fill="none" stroke="#000000" stroke-width="2" stroke-linecap="round" stroke-linejoin="round" stroke-miterlimit="10" x1="24" y1="12" x2="24" y2="17"/>
<line fill="none" stroke="#000000" stroke-width="2" stroke-linecap="round" stroke-linejoin="round" stroke-miterlimit="10" x1="24" y1="22" x2="24" y2="22"/>
<line fill="none" stroke="#000000" stroke-width="2" stroke-linecap="round" stroke-linejoin="round" stroke-miterlimit="10" x1="24" y1="27" x2="24" y2="27"/>
<line fill="none" stroke="#000000" stroke-width="2" stroke-linecap="round" stroke-linejoin="round" stroke-miterlimit="10" x1="24" y1="32" x2="24" y2="32"/>
</svg>
