<?xml version="1.0" encoding="utf-8"?>
<!-- Generator: Adobe Illustrator 18.0.0, SVG Export Plug-In . SVG Version: 6.00 Build 0)  -->
<!DOCTYPE svg PUBLIC "-//W3C//DTD SVG 1.1//EN" "http://www.w3.org/Graphics/SVG/1.1/DTD/svg11.dtd">
<svg version="1.1" id="Layer_1" xmlns="http://www.w3.org/2000/svg" xmlns:xlink="http://www.w3.org/1999/xlink" x="0px" y="0px"
	 viewBox="0 0 48 48" enable-background="new 0 0 48 48" xml:space="preserve">
<g>
	<path fill="none" stroke="#000000" stroke-width="2" stroke-linecap="round" stroke-linejoin="round" stroke-miterlimit="10" d="
		M14.8320313,42.9944534L14.8320313,42.9944534c-2.7711945-0.1444092-5.5617065-3.0027466-6.0538177-6.3968506
		C7.2337418,25.9453812,7.0069122,23.5432739,7.6382904,12.9350586c0.2011795-3.380127,3.5017395-6.2619629,7.1936951-6.4564209
		h0.0000076c3.6919556-0.194458,6.1274338,2.4758301,5.6243973,5.9766235
		c-1.578743,10.9871216-1.8056259,13.5590286-1.1399002,24.5031815
		C19.5286026,40.4455643,17.6032257,43.1388626,14.8320313,42.9944534z"/>
</g>
<path fill="none" stroke="#000000" stroke-width="2" stroke-linecap="round" stroke-linejoin="round" stroke-miterlimit="10" d="
	M8,21c3.2140579-2.4952068,3-7,3-7s0.8083067,7.392971,8,11"/>
<g>
	<path fill="none" stroke="#000000" stroke-width="2" stroke-linecap="round" stroke-linejoin="round" stroke-miterlimit="10" d="
		M33.9999886,42.9944534L33.9999886,42.9944534c2.7711945-0.1444092,5.5617065-3.0027466,6.0538177-6.3968506
		c1.5444717-10.6522217,1.7713013-13.0543289,1.1399231-23.6625443c-0.2011795-3.380127-3.5017395-6.2619629-7.1936951-6.4564209
		h-0.0000076c-3.6919556-0.194458-6.1274338,2.4758301-5.6243973,5.9766235
		c1.578743,10.9871216,1.8056259,13.5590286,1.1399002,24.5031815
		C29.3034172,40.4455643,31.2287941,43.1388626,33.9999886,42.9944534z"/>
</g>
<path fill="none" stroke="#000000" stroke-width="2" stroke-linecap="round" stroke-linejoin="round" stroke-miterlimit="10" d="
	M40.8320198,21c-3.2140579-2.4952068-3-7-3-7s-0.8083076,7.392971-8,11"/>
<path fill="none" stroke="#000000" stroke-width="2" stroke-linecap="round" stroke-linejoin="round" stroke-miterlimit="10" d="
	M8,26c3.2140579-2.4952068,3-5,3-5s0.8083067,5.392971,8,9"/>
<path fill="none" stroke="#000000" stroke-width="2" stroke-linecap="round" stroke-linejoin="round" stroke-miterlimit="10" d="
	M40.8320198,26c-3.2140579-2.4952068-3-5-3-5s-0.8083076,5.392971-8,9"/>
<path fill="none" stroke="#000000" stroke-width="2" stroke-linecap="round" stroke-linejoin="round" stroke-miterlimit="10" d="
	M11,14c0,0,0.791667-2.375,3-2"/>
<path fill="none" stroke="#000000" stroke-width="2" stroke-linecap="round" stroke-linejoin="round" stroke-miterlimit="10" d="
	M38,14c0,0,0.25-2.25-3-2"/>
</svg>
