<?xml version="1.0" encoding="utf-8"?>
<!-- Generator: Adobe Illustrator 18.0.0, SVG Export Plug-In . SVG Version: 6.00 Build 0)  -->
<!DOCTYPE svg PUBLIC "-//W3C//DTD SVG 1.1//EN" "http://www.w3.org/Graphics/SVG/1.1/DTD/svg11.dtd">
<svg version="1.1" id="Layer_1" xmlns="http://www.w3.org/2000/svg" xmlns:xlink="http://www.w3.org/1999/xlink" x="0px" y="0px"
	 viewBox="0 0 48 48" enable-background="new 0 0 48 48" xml:space="preserve">
<g>
	<path fill="none" stroke="#000000" stroke-width="2" stroke-linecap="round" stroke-linejoin="round" stroke-miterlimit="10" d="
		M28.038517,8.7192345c0,2.2476702-1.8220959,4.069767-4.069767,4.069767s-4.069767-1.8220968-4.069767-4.069767
		s1.8220959-2.7131782,4.069767-2.7131782S28.038517,6.4715638,28.038517,8.7192345z"/>
	<path fill="none" stroke="#000000" stroke-width="2" stroke-linecap="round" stroke-linejoin="round" stroke-miterlimit="10" d="
		M32.2082825,6.8457355c0,4.5505686-3.6889648,9.8015518-8.2395325,9.8015518s-8.2395334-5.2509832-8.2395334-9.8015518
		s3.6889658-5.4930224,8.2395334-5.4930224S32.2082825,2.2951667,32.2082825,6.8457355z"/>
	<path fill="none" stroke="#000000" stroke-width="2" stroke-linecap="round" stroke-linejoin="round" stroke-miterlimit="10" d="
		M20,8c0,0-3-1-4-3"/>
	<path fill="none" stroke="#000000" stroke-width="2" stroke-linecap="round" stroke-linejoin="round" stroke-miterlimit="10" d="
		M28,8c0,0,3.125-0.8125,4-3"/>
	<path fill="none" stroke="#000000" stroke-width="2" stroke-linecap="round" stroke-linejoin="round" stroke-miterlimit="10" d="
		M9,14c0,0,3.9374971,4.375,4,11L6,35l-4-2L9,14l7-4"/>
	<path fill="none" stroke="#000000" stroke-width="2" stroke-linecap="round" stroke-linejoin="round" stroke-miterlimit="10" d="
		M13,25c0,0,2.5624971,10.875-1,17c0,0,7.125,4,12,4"/>
	<path fill="none" stroke="#000000" stroke-width="2" stroke-linecap="round" stroke-linejoin="round" stroke-miterlimit="10" d="
		M39,14c0,0-3.9375,4.375-4,11l7,10l4-2L39,14l-7-4"/>
	<path fill="none" stroke="#000000" stroke-width="2" stroke-linecap="round" stroke-linejoin="round" stroke-miterlimit="10" d="
		M35,25c0,0-2.5625,10.875,1,17c0,0-7.125,4-12,4"/>
	
		<line fill="none" stroke="#000000" stroke-width="2" stroke-linecap="round" stroke-linejoin="round" stroke-miterlimit="10" x1="24" y1="46" x2="24" y2="17"/>
</g>
</svg>
