<?xml version="1.0" encoding="utf-8"?>
<!-- Generator: Adobe Illustrator 18.0.0, SVG Export Plug-In . SVG Version: 6.00 Build 0)  -->
<!DOCTYPE svg PUBLIC "-//W3C//DTD SVG 1.1//EN" "http://www.w3.org/Graphics/SVG/1.1/DTD/svg11.dtd">
<svg version="1.1" id="Layer_1" xmlns="http://www.w3.org/2000/svg" xmlns:xlink="http://www.w3.org/1999/xlink" x="0px" y="0px"
	 viewBox="0 0 48 48" enable-background="new 0 0 48 48" xml:space="preserve">
<ellipse fill="none" stroke="#000000" stroke-width="2" stroke-linecap="round" stroke-linejoin="round" stroke-miterlimit="10" cx="24" cy="10" rx="12" ry="4"/>
<path fill="none" stroke="#000000" stroke-width="2" stroke-linecap="round" stroke-linejoin="round" stroke-miterlimit="10" d="
	M12,10c0,0-0.4302788,4.9907036,1,10s1,9,1,9"/>
<path fill="none" stroke="#000000" stroke-width="2" stroke-linecap="round" stroke-linejoin="round" stroke-miterlimit="10" d="
	M36,10c0,0,0.4302788,4.9907036-1,10s-1,9-1,9"/>
<path fill="none" stroke="#000000" stroke-width="2" stroke-linecap="round" stroke-linejoin="round" stroke-miterlimit="10" d="
	M34,29c0,1.6568546-4.4771519,3-10,3s-10-1.3431454-10-3"/>
<path fill="none" stroke="#000000" stroke-width="2" stroke-linecap="round" stroke-linejoin="round" stroke-miterlimit="10" d="
	M34,25c0,1.6568546-4.4771519,3-10,3s-10-1.3431454-10-3"/>
<path fill="none" stroke="#000000" stroke-width="2" stroke-linecap="round" stroke-linejoin="round" stroke-miterlimit="10" d="
	M34.2436562,26.4895916c2.6215782,1.114172,4.2430611,2.6533852,4.2430611,4.3535538
	c0,1.7001705-1.6214828,3.2393818-4.2430611,4.3535519C31.622076,36.3108711,28.0003967,37,24,37
	s-7.622076-0.6891289-10.2436552-1.8033028c-2.6215801-1.1141701-4.2430611-2.6533813-4.2430611-4.3535519
	c0-1.7001686,1.6214809-3.2393818,4.2430611-4.3535538"/>
</svg>
