<?xml version="1.0" encoding="utf-8"?>
<!-- Generator: Adobe Illustrator 18.0.0, SVG Export Plug-In . SVG Version: 6.00 Build 0)  -->
<!DOCTYPE svg PUBLIC "-//W3C//DTD SVG 1.1//EN" "http://www.w3.org/Graphics/SVG/1.1/DTD/svg11.dtd">
<svg version="1.1" id="Layer_1" xmlns="http://www.w3.org/2000/svg" xmlns:xlink="http://www.w3.org/1999/xlink" x="0px" y="0px"
	 viewBox="0 0 48 48" enable-background="new 0 0 48 48" xml:space="preserve">
<path fill="none" stroke="#000000" stroke-width="2" stroke-linecap="round" stroke-linejoin="round" stroke-miterlimit="10" d="
	M31,3.0207243c0,1.1104321-2.3100414,3.0901027-4.2760658,4.573874c-1.6133099,1.2175765-3.8345585,1.2175765-5.4478683,0
	C19.3100414,6.110827,17,4.1311564,17,3.0207243c0-1.9329966,3.1340065-1.5,7-1.5S31,1.0877277,31,3.0207243z"/>
<path fill="none" stroke="#000000" stroke-width="2" stroke-linecap="round" stroke-linejoin="round" stroke-miterlimit="10" d="
	M17,2.5207243c0,0-3.666667,1.312609-3,5c1.833333,3.125,9.916666,5.958333,10,9.000001"/>
<path fill="none" stroke="#000000" stroke-width="2" stroke-linecap="round" stroke-linejoin="round" stroke-miterlimit="10" d="
	M13.5,5C2.6420982,8.3466139,3.9166667,20.583334,3,36c0,0,4.5537848,0.8273582,6,0c0,0-0.5590973-12.5059757,3-15"/>
<path fill="none" stroke="#000000" stroke-width="2" stroke-linecap="round" stroke-linejoin="round" stroke-miterlimit="10" d="
	M7,10l3.691186,6.1519775c1.4959011,2.4931679,2.1128368,5.4158401,1.7522049,8.3008957L10,44c0,0,3.4501991,2.0079689,14,2"/>
<path fill="none" stroke="#000000" stroke-width="2" stroke-linecap="round" stroke-linejoin="round" stroke-miterlimit="10" d="
	M31.0108528,2.5207243c0,0,4.8333321,1.875,3,5s-9.9166679,5.958333-10,9.000001c0,0,4.2391472,4.6459408,1.9891472,9.4792747"/>
<path fill="none" stroke="#000000" stroke-width="2" stroke-linecap="round" stroke-linejoin="round" stroke-miterlimit="10" d="
	M23,16"/>
<path fill="none" stroke="#000000" stroke-width="2" stroke-linecap="round" stroke-linejoin="round" stroke-miterlimit="10" d="
	M35,5c10.8579025,3.3466139,9.5833321,15.583334,10.5,31c0,0-4.5537834,0.8273582-6,0c0,0,0.5590973-12.5059757-3-15"/>
<path fill="none" stroke="#000000" stroke-width="2" stroke-linecap="round" stroke-linejoin="round" stroke-miterlimit="10" d="
	M41.5,10l-3.691185,6.1519775c-1.495903,2.4931679-2.1128387,5.4158401-1.7522049,8.3008957L38.5,44c0,0-3.4501991,2.0079689-14,2"
	/>
<path fill="none" stroke="#000000" stroke-width="2" stroke-linecap="round" stroke-linejoin="round" stroke-miterlimit="10" d="
	M24,16"/>
<path fill="none" stroke="#000000" stroke-width="2" stroke-linecap="round" stroke-linejoin="round" stroke-miterlimit="10" d="
	M23,15c0,0-2.166666,9.666666-1,15"/>
<circle fill="none" stroke="#000000" stroke-width="2" stroke-linecap="round" stroke-linejoin="round" stroke-miterlimit="10" cx="26" cy="26" r="1"/>
<circle fill="none" stroke="#000000" stroke-width="2" stroke-linecap="round" stroke-linejoin="round" stroke-miterlimit="10" cx="22" cy="31" r="1"/>
</svg>
