<?xml version="1.0" encoding="utf-8"?>
<!-- Generator: Adobe Illustrator 18.0.0, SVG Export Plug-In . SVG Version: 6.00 Build 0)  -->
<!DOCTYPE svg PUBLIC "-//W3C//DTD SVG 1.1//EN" "http://www.w3.org/Graphics/SVG/1.1/DTD/svg11.dtd">
<svg version="1.1" id="Layer_1" xmlns="http://www.w3.org/2000/svg" xmlns:xlink="http://www.w3.org/1999/xlink" x="0px" y="0px"
	 viewBox="0 0 48 48" enable-background="new 0 0 48 48" xml:space="preserve">
<g>
	<path fill="none" stroke="#000000" stroke-width="2" stroke-linejoin="round" stroke-miterlimit="10" d="M24,8.4243059
		c-3.0375652,0-5.5-2.1681657-5.5-5.2057314l-6.0957613,1.614753C9.6381321,5.5660625,7.3916626,7.5816779,6.36444,10.2524557
		l-3.0170321,7.8442831c-0.2291191,0.5957108-0.3418493,1.2233448-0.3318548,1.8615189
		C3.0761898,23.8300457,3.2799242,38.2427483,3,41c0,0,1.938911,0.4887123,6,0l1.6807766-19.328928
		c0.0341864-0.3931408,0.609231-0.3951912,0.6404819-0.0018063C11.8406429,28.2072411,12.6497936,41.5988998,11,46
		c0,0,7.4966793,1.14077,13,1"/>
	<path fill="none" stroke="#000000" stroke-width="2" stroke-linejoin="round" stroke-miterlimit="10" d="M24,8.4243059
		c3.0375652,0,5.5-2.1681657,5.5-5.2057314l6.0957603,1.614753c2.7661057,0.7327352,5.0125771,2.7483506,6.0397987,5.4191284
		l3.0170326,7.8442831c0.2291183,0.5957108,0.3418503,1.2233448,0.3318558,1.8615189
		C44.9238091,23.8300457,44.7200775,38.2427483,45,41c0,0-1.9389114,0.4887123-6,0l-1.6807747-19.328928
		c-0.0341873-0.3931408-0.6092339-0.3951912-0.6404839-0.0018063C36.1593552,28.2072411,35.3502045,41.5988998,37,46
		c0,0-7.4966793,1.14077-13,1"/>
</g>
</svg>
