<?xml version="1.0" encoding="utf-8"?>
<!-- Generator: Adobe Illustrator 18.0.0, SVG Export Plug-In . SVG Version: 6.00 Build 0)  -->
<!DOCTYPE svg PUBLIC "-//W3C//DTD SVG 1.1//EN" "http://www.w3.org/Graphics/SVG/1.1/DTD/svg11.dtd">
<svg version="1.1" id="Layer_1" xmlns="http://www.w3.org/2000/svg" xmlns:xlink="http://www.w3.org/1999/xlink" x="0px" y="0px"
	 viewBox="0 0 48 48" enable-background="new 0 0 48 48" xml:space="preserve">
<g>
	<path fill="none" stroke="#000000" stroke-width="2" stroke-linecap="round" stroke-linejoin="round" stroke-miterlimit="10" d="
		M23.3983727,39.3373718c0.871357-0.1633797,1.5000248-0.9294243,1.4879398-1.8158836
		c-0.046484-3.4095573-0.2501888-11.5861053-1.1411648-15.031208c-1.1401691-4.4086552-4.8500271-8.8982544-11.1589642-7.7580843
		c-5.1061354,0.9227953-3.9525881,10.0334921-3.9525881,10.0334921s-3.7245541-4.1806221-5.016746-3.6485424
		C2.3246572,21.6492233,0.0443181,23.5889378,5.2890983,28.1299c4.5657697,3.9530735,4.8112493,8.0938969,5.7510629,11.8077145
		c0.2342386,0.9256248,1.1631451,1.4988327,2.1015978,1.3228722L23.3983727,39.3373718z"/>
	<path fill="none" stroke="#000000" stroke-width="2" stroke-linecap="round" stroke-linejoin="round" stroke-miterlimit="10" d="
		M11.9780931,41.2921562l0.5066309,2.1353989c0.2263899,0.9542122,1.1666813,1.5586967,2.1287651,1.3685188l8.8916912-1.7576599
		c0.9756451-0.1928596,1.6170406-1.1316452,1.4420395-2.1106529l-0.4137249-2.3144798"/>
</g>
<g>
	<path fill="none" stroke="#000000" stroke-width="2" stroke-linecap="round" stroke-linejoin="round" stroke-miterlimit="10" d="
		M30.3246422,29.2231274c-0.8792381,0.1135731-1.7136669-0.4210014-1.9758072-1.2679024
		c-1.0082569-3.2573986-3.3384571-11.0975285-3.5544357-14.6494188c-0.2763863-4.54531,1.8664398-9.9608269,8.2192307-10.8237963
		c5.1416283-0.698444,6.8567276,8.3234129,6.8567276,8.3234129s2.252182-5.1261668,3.6455154-5.0189486
		c1.3933296,0.1072178,4.1610641,1.2483053,0.574131,7.1864824c-3.1225586,5.1693983-2.0778503,9.1837797-1.8253784,13.0063372
		c0.0629272,0.9527302-0.6436806,1.7846794-1.5906181,1.9069958L30.3246422,29.2231274z"/>
	<path fill="none" stroke="#000000" stroke-width="2" stroke-linecap="round" stroke-linejoin="round" stroke-miterlimit="10" d="
		M41.7906227,27.5572109l0.177269,2.1875057c0.079216,0.9774971-0.6285629,1.8427124-1.6023674,1.9587975l-9.0000267,1.0728874
		c-0.9875317,0.1177216-1.887392-0.5772285-2.023138-1.5624466l-0.320919-2.3291626"/>
</g>
</svg>
