<?xml version="1.0" encoding="utf-8"?>
<!-- Generator: Adobe Illustrator 18.0.0, SVG Export Plug-In . SVG Version: 6.00 Build 0)  -->
<!DOCTYPE svg PUBLIC "-//W3C//DTD SVG 1.1//EN" "http://www.w3.org/Graphics/SVG/1.1/DTD/svg11.dtd">
<svg version="1.1" id="Layer_1" xmlns="http://www.w3.org/2000/svg" xmlns:xlink="http://www.w3.org/1999/xlink" x="0px" y="0px"
	 viewBox="0 0 48 48" enable-background="new 0 0 48 48" xml:space="preserve">
<path fill="none" stroke="#000000" stroke-width="2" stroke-linejoin="round" stroke-miterlimit="10" d="M11,23v-5.1284542
	C11,11.3150721,16.3150711,6,22.8715458,6h4.2569084C33.6849289,6,39,11.3150721,39,17.8715458V23c0,0-1.7277565,4.2045155-7,5
	c-3.2934933,4.4501991-6.0823364,11.6879158-11,12c-5.4964428,0.3488159-5.9721117-5.4249649-15-5H5.9999962
	c-1.6480894,0-2.5888519-1.8815269-1.5999985-3.1999969L11,23c0,0,2.5006638,7.8565731,21,5"/>
<path fill="none" stroke="#000000" stroke-width="2" stroke-linejoin="round" stroke-miterlimit="10" d="M22,6
	c0-1.1045694,0.8954296-2,2-2s2,0.8954306,2,2"/>
</svg>
