<?xml version="1.0" encoding="utf-8"?>
<!-- Generator: Adobe Illustrator 18.0.0, SVG Export Plug-In . SVG Version: 6.00 Build 0)  -->
<!DOCTYPE svg PUBLIC "-//W3C//DTD SVG 1.1//EN" "http://www.w3.org/Graphics/SVG/1.1/DTD/svg11.dtd">
<svg version="1.1" id="Layer_1" xmlns="http://www.w3.org/2000/svg" xmlns:xlink="http://www.w3.org/1999/xlink" x="0px" y="0px"
	 viewBox="0 0 48 48" enable-background="new 0 0 48 48" xml:space="preserve">
<path fill="none" stroke="#000000" stroke-width="2" stroke-linejoin="round" stroke-miterlimit="10" d="M12.3349504,3.1136765
	c0,0,4.6052885,4.5264297,3.9950628,10.5563107S13.5949535,20.5391769,13.39575,25"/>
<path fill="none" stroke="#000000" stroke-width="2" stroke-linejoin="round" stroke-miterlimit="10" d="M35.2595406,2.7800884
	c0,0-4.4791183,4.8600178-3.8688927,10.8898983S34.1257057,20.5391769,34.3249092,25"/>
<circle fill="none" stroke="#000000" stroke-width="2" stroke-linejoin="round" stroke-miterlimit="10" cx="24" cy="23" r="0.5"/>
<path fill="none" stroke="#000000" stroke-width="2" stroke-linejoin="round" stroke-miterlimit="10" d="M13.1660023,25.0644093
	c0,0,9.9048729,3.9218044,21.8261089-0.0839176c0,0,0.8624649,2.3800659-0.0317078,4.239296
	c-0.7498322,1.5591125-5.0928516,3.8648682-7.6109657,6.3377419C26.4314957,36.4589806,25.222517,37,23.9359589,37H23.935955
	c-1.216774,0-2.3822956-0.460701-3.2666569-1.2964287c-1.7098007-1.6157684-4.752923-4.3215027-7.2319727-5.613266
	C11.1925631,27.8286858,13.1660023,25.0644093,13.1660023,25.0644093z"/>
<path fill="none" stroke="#000000" stroke-width="2" stroke-linejoin="round" stroke-miterlimit="10" d="M12.611002,28.858387
	c0,0-2.527669,10.0582809,0.305665,18.5582809"/>
<path fill="none" stroke="#000000" stroke-width="2" stroke-linejoin="round" stroke-miterlimit="10" d="M34.8786278,28.858387
	c0,0,2.5276718,10.0582809-0.3056641,18.5582809"/>
<path fill="none" stroke="#000000" stroke-width="2" stroke-linejoin="round" stroke-miterlimit="10" d="M24,41"/>
<path fill="none" stroke="#000000" stroke-width="2" stroke-linejoin="round" stroke-miterlimit="10" d="M23.75,36.5833321
	c0,0-0.333334,6-0.333334,11.1666679"/>
<path fill="none" stroke="#000000" stroke-width="2" stroke-linejoin="round" stroke-miterlimit="10" d="M24.416666,36.5833321
	c0,0,0.333334,6,0.333334,11.1666679"/>
</svg>
