<?xml version="1.0" encoding="utf-8"?>
<!-- Generator: Adobe Illustrator 18.0.0, SVG Export Plug-In . SVG Version: 6.00 Build 0)  -->
<!DOCTYPE svg PUBLIC "-//W3C//DTD SVG 1.1//EN" "http://www.w3.org/Graphics/SVG/1.1/DTD/svg11.dtd">
<svg version="1.1" id="Layer_1" xmlns="http://www.w3.org/2000/svg" xmlns:xlink="http://www.w3.org/1999/xlink" x="0px" y="0px"
	 viewBox="0 0 48 48" enable-background="new 0 0 48 48" xml:space="preserve">
<path fill="none" stroke="#000000" stroke-width="2" stroke-linecap="round" stroke-linejoin="round" stroke-miterlimit="10" d="
	M24,12c-4.5737057-2.4515276-7-2-7-2c3.1673298-3.9203186,2-8,2-8s-1.5816727,1.2297478-5,1S9,7,9,7c1.6746349,2.7742367,5,3,5,3
	c-0.7622843,3.5166006,0.7622843,5.0491371,2,7s2.1487389,6.3492699-1,11s-2,15-2,15s9.6347942,4.7065086,22,0
	c0,0,1.1487389-10.3492699-2-15s-2.2377167-9.0491371-1-11s2.7622833-3.4833994,2-7c0,0,3.325367-0.2257633,5-3
	c0,0-1.5816727-4.2297478-5-4s-5-1-5-1s-1.1673298,4.0796814,2,8C31,10,28.5737057,9.5484724,24,12"/>
</svg>
