<?xml version="1.0" encoding="utf-8"?>
<!-- Generator: Adobe Illustrator 18.0.0, SVG Export Plug-In . SVG Version: 6.00 Build 0)  -->
<!DOCTYPE svg PUBLIC "-//W3C//DTD SVG 1.1//EN" "http://www.w3.org/Graphics/SVG/1.1/DTD/svg11.dtd">
<svg version="1.1" id="Layer_1" xmlns="http://www.w3.org/2000/svg" xmlns:xlink="http://www.w3.org/1999/xlink" x="0px" y="0px"
	 viewBox="0 0 48 48" enable-background="new 0 0 48 48" xml:space="preserve">
<g>
	<path fill="none" stroke="#000000" stroke-width="2" stroke-linecap="round" stroke-linejoin="round" stroke-miterlimit="10" d="
		M3,33H2l1,8h13l1-3.1213646c0,0,2.1606903-1.5107727,6,0.1213646c5.5812016,2.3726387,7,2,7,2h5l11-2v-1
		c0,0,0.1859245-5.8778229-3-7.3966312c-4.6880875-2.23493-10.7888451,0.8045349-13-0.1382103v-2.1033688
		c0,0-5.9920311-6.1997719-7-7.3617897c-2.2456837,1.8924294-4,0-4,0s-1.2749004,3.8715401-7,4.2067375s-7-2.9651585-7-2.9651585
		S0.7875166,25,3,33z"/>
	<path fill="none" stroke="#000000" stroke-width="2" stroke-linecap="round" stroke-linejoin="round" stroke-miterlimit="10" d="
		M21,24l3-3c-0.3904381,0.2284203-0.7888451-5.3492699,4-4c4.6576843,1.312315,1.9840641,7.9468784,8,8"/>
	
		<line fill="none" stroke="#000000" stroke-width="2" stroke-linecap="round" stroke-linejoin="round" stroke-miterlimit="10" x1="26" y1="23" x2="23" y2="26"/>
	
		<line fill="none" stroke="#000000" stroke-width="2" stroke-linecap="round" stroke-linejoin="round" stroke-miterlimit="10" x1="28" y1="25" x2="25" y2="28"/>
	<path fill="none" stroke="#000000" stroke-width="2" stroke-linecap="round" stroke-linejoin="round" stroke-miterlimit="10" d="
		M25,21c0,0,1.7622833-7.9362555,5-9S34.0929604,18.1819382,25,21z"/>
	
		<line fill="none" stroke="#000000" stroke-width="2" stroke-linecap="round" stroke-linejoin="round" stroke-miterlimit="10" x1="3" y1="38" x2="17" y2="38"/>
</g>
</svg>
