<?xml version="1.0" encoding="utf-8"?>
<!-- Generator: Adobe Illustrator 18.0.0, SVG Export Plug-In . SVG Version: 6.00 Build 0)  -->
<!DOCTYPE svg PUBLIC "-//W3C//DTD SVG 1.1//EN" "http://www.w3.org/Graphics/SVG/1.1/DTD/svg11.dtd">
<svg version="1.1" id="Layer_1" xmlns="http://www.w3.org/2000/svg" xmlns:xlink="http://www.w3.org/1999/xlink" x="0px" y="0px"
	 viewBox="0 0 48 48" enable-background="new 0 0 48 48" xml:space="preserve">
<path fill="none" stroke="#000000" stroke-width="2" stroke-linecap="round" stroke-linejoin="round" stroke-miterlimit="10" d="
	M21.1578941,10.8421049C21.1578941,9.2724543,22.4303493,8,24,8s2.8421059,1.2724543,2.8421059,2.8421049"/>
<path fill="none" stroke="#000000" stroke-width="2" stroke-linecap="round" stroke-linejoin="round" stroke-miterlimit="10" d="
	M37,25.813158c0,2.1539097-5.8202991,3.8999996-13,3.8999996s-13-1.7460899-13-3.8999996l0.2105265-2.1815796
	c0-7.0634308,5.7260427-12.7894735,12.7894735-12.7894735s12.7894745,5.7260427,12.7894745,12.7894735L37,25.813158z"/>
<path fill="none" stroke="#000000" stroke-width="2" stroke-linecap="round" stroke-linejoin="round" stroke-miterlimit="10" d="
	M37.0004044,21.9204712C41.2848244,23.3877354,44,25.5670338,44,28c0,4.4182777-8.9543037,8-20,8S4,32.4182777,4,28
	c0-2.4330997,2.7154751-4.6125069,7.0003061-6.0797729"/>
</svg>
