<?xml version="1.0" encoding="utf-8"?>
<!-- Generator: Adobe Illustrator 18.0.0, SVG Export Plug-In . SVG Version: 6.00 Build 0)  -->
<!DOCTYPE svg PUBLIC "-//W3C//DTD SVG 1.1//EN" "http://www.w3.org/Graphics/SVG/1.1/DTD/svg11.dtd">
<svg version="1.1" id="Layer_1" xmlns="http://www.w3.org/2000/svg" xmlns:xlink="http://www.w3.org/1999/xlink" x="0px" y="0px"
	 viewBox="0 0 48 48" enable-background="new 0 0 48 48" xml:space="preserve">
<g>
	<path fill="none" stroke="#000000" stroke-width="2" stroke-linecap="round" stroke-linejoin="round" stroke-miterlimit="10" d="
		M24,11c-3.8659935,0-7-3.134007-7-7h-5c0,0,2.6347942,8.9468794-4,10c0,0,4.8074369,6.60425,4,11s-6.7436919,8.0318718-6,18
		c0,0,10.9535198,2,18,2"/>
	<path fill="none" stroke="#000000" stroke-width="2" stroke-linecap="round" stroke-linejoin="round" stroke-miterlimit="10" d="
		M23.9356976,11c3.8659935,0,7-3,7-7h5.0000019c0,0-2.6347961,8.9468794,4,10c0,0-4.8074379,6.60425-4,11
		c0.8074341,4.39575,6.7436905,8.0318718,6,18c0,0-10.9535198,2-18.0000019,2"/>
	<path fill="none" stroke="#000000" stroke-width="2" stroke-linecap="round" stroke-linejoin="round" stroke-miterlimit="10" d="
		M12,22c0,0,11.2244358,4.4236393,24,0"/>
	<path fill="none" stroke="#000000" stroke-width="2" stroke-linecap="round" stroke-linejoin="round" stroke-miterlimit="10" d="
		M12,26c0,0,11.2244358,4.4236393,24,0"/>
	
		<circle fill="none" stroke="#000000" stroke-width="2" stroke-linecap="round" stroke-linejoin="round" stroke-miterlimit="10" cx="24" cy="26" r="3"/>
</g>
</svg>
