<?xml version="1.0" encoding="utf-8"?>
<!-- Generator: Adobe Illustrator 18.0.0, SVG Export Plug-In . SVG Version: 6.00 Build 0)  -->
<!DOCTYPE svg PUBLIC "-//W3C//DTD SVG 1.1//EN" "http://www.w3.org/Graphics/SVG/1.1/DTD/svg11.dtd">
<svg version="1.1" id="Layer_1" xmlns="http://www.w3.org/2000/svg" xmlns:xlink="http://www.w3.org/1999/xlink" x="0px" y="0px"
	 viewBox="0 0 48 48" enable-background="new 0 0 48 48" xml:space="preserve">
<g>
	<g>
		<path fill="none" stroke="#000000" stroke-width="2" stroke-linejoin="round" stroke-miterlimit="10" d="M24,47
			c-5.5033207,0.14077-13-1-13-1c1-5.8439751,0.8406429-17.7927589,0.3212585-24.3307343
			c-0.031251-0.3933849-0.6062956-0.3913345-0.6404819,0.0018063L9,38c-4.061089,0.4887123-6,0-6,0
			c0.2799242-2.7572517,0.0761898-14.1699543,0.015553-18.0417423c-0.0099945-0.6381741,0.1027358-1.2658081,0.3318548-1.8615189
			L7,6l10-4l7,7l-3,3l-7-7l3-3l6,6"/>
	</g>
	
		<rect x="1.9999995" y="38" fill="none" stroke="#000000" stroke-width="2" stroke-linejoin="round" stroke-miterlimit="10" width="8.5106211" height="4"/>
</g>
<g>
	<g>
		<path fill="none" stroke="#000000" stroke-width="2" stroke-linejoin="round" stroke-miterlimit="10" d="M24,47
			c5.5033207,0.14077,13-1,13-1c-1-5.8439751-0.8406448-17.7927589-0.3212585-24.3307343
			c0.03125-0.3933849,0.6062965-0.3913345,0.6404839,0.0018063L39,38c4.0610886,0.4887123,6,0,6,0
			c-0.2799225-2.7572517-0.0761909-14.1699543-0.0155525-18.0417423c0.0099945-0.6381741-0.1027374-1.2658081-0.3318558-1.8615189
			L41,6L31,2l-7,7l3,3l7-7l-3-3l-6,6"/>
	</g>
	
		<rect x="37.4893799" y="38" fill="none" stroke="#000000" stroke-width="2" stroke-linejoin="round" stroke-miterlimit="10" width="8.5106211" height="4"/>
</g>
<line fill="none" stroke="#000000" stroke-width="2" stroke-linecap="round" stroke-linejoin="round" stroke-miterlimit="10" x1="24" y1="18" x2="24" y2="18"/>
<line fill="none" stroke="#000000" stroke-width="2" stroke-linecap="round" stroke-linejoin="round" stroke-miterlimit="10" x1="24" y1="23" x2="24" y2="23"/>
<line fill="none" stroke="#000000" stroke-width="2" stroke-linecap="round" stroke-linejoin="round" stroke-miterlimit="10" x1="24" y1="28" x2="24" y2="28"/>
<line fill="none" stroke="#000000" stroke-width="2" stroke-linecap="round" stroke-linejoin="round" stroke-miterlimit="10" x1="24" y1="34" x2="24" y2="34"/>
<line fill="none" stroke="#000000" stroke-width="2" stroke-linecap="round" stroke-linejoin="round" stroke-miterlimit="10" x1="24" y1="39" x2="24" y2="39"/>
<line fill="none" stroke="#000000" stroke-width="2" stroke-linecap="round" stroke-linejoin="round" stroke-miterlimit="10" x1="24" y1="46" x2="24" y2="42"/>
</svg>
