<?xml version="1.0" encoding="utf-8"?>
<!-- Generator: Adobe Illustrator 18.0.0, SVG Export Plug-In . SVG Version: 6.00 Build 0)  -->
<!DOCTYPE svg PUBLIC "-//W3C//DTD SVG 1.1//EN" "http://www.w3.org/Graphics/SVG/1.1/DTD/svg11.dtd">
<svg version="1.1" id="Layer_1" xmlns="http://www.w3.org/2000/svg" xmlns:xlink="http://www.w3.org/1999/xlink" x="0px" y="0px"
	 viewBox="0 0 48 48" enable-background="new 0 0 48 48" xml:space="preserve">
<g>
	<path fill="none" stroke="#000000" stroke-width="2" stroke-linecap="round" stroke-linejoin="round" stroke-miterlimit="10" d="
		M15.583333,9c0,0-1,11.5-8.916666,11.416666"/>
	<g>
		<path fill="none" stroke="#000000" stroke-width="2" stroke-linecap="round" stroke-linejoin="round" stroke-miterlimit="10" d="
			M24.2595673,28c1.3672085,3,2.75,13.125,2.75,13.125c6-0.25,16.9166679-5.8125,16.9166679-5.8125
			c0.827713-9.583334-5.5833359-28.03125-5.5833359-28.03125C34.0095673,8.864583,24.2595673,9,24.2595673,9H24
			c0,0-9.75-0.083333-14.083333-1.6666665c0,0-6.4110489,18.5-5.5833335,28.083334c0,0,10.916666,5.4583321,16.916666,5.7083321
			c0,0,1.3827915-10.125,2.75-13.125H24.2595673z"/>
	</g>
	<path fill="none" stroke="#000000" stroke-width="2" stroke-linecap="round" stroke-linejoin="round" stroke-miterlimit="10" d="
		M32.6762352,9c0,0,1,11.5,8.9166641,11.416666"/>
	<path fill="none" stroke="#000000" stroke-width="2" stroke-linecap="round" stroke-linejoin="round" stroke-miterlimit="10" d="
		M26,9v11h-0.0000038C24.2175274,19.4553566,23,17.810236,23,15.9464149V9"/>
</g>
</svg>
