<?xml version="1.0" encoding="utf-8"?>
<!-- Generator: Adobe Illustrator 18.0.0, SVG Export Plug-In . SVG Version: 6.00 Build 0)  -->
<!DOCTYPE svg PUBLIC "-//W3C//DTD SVG 1.1//EN" "http://www.w3.org/Graphics/SVG/1.1/DTD/svg11.dtd">
<svg version="1.1" id="Layer_1" xmlns="http://www.w3.org/2000/svg" xmlns:xlink="http://www.w3.org/1999/xlink" x="0px" y="0px"
	 viewBox="0 0 48 48" enable-background="new 0 0 48 48" xml:space="preserve">
<path fill="none" stroke="#000000" stroke-width="2" stroke-linejoin="round" stroke-miterlimit="10" d="M44.0583115,27.3848801
	C33.2048378,29.839159,28.6099472,37.334549,26.9785328,40.9742813C26.4214935,42.2170486,25.1713238,43,23.8094254,43h-0.0000038
	c-1.2254829,0-2.3585434-0.6361923-2.988863-1.6871452c-2.0637951-3.4410515-7.592968-11.1761761-16.9154167-13.9279747
	C0.7914132,21.6221561,2.7897768,11,2.7897768,11s7.8518066,2.230732,21.1919479,2.230732
	C37.0815277,13.230732,45.1736755,11,45.1736755,11S48.008564,21.7615776,44.0583115,27.3848801z"/>
<path fill="none" stroke="#000000" stroke-width="2" stroke-linejoin="round" stroke-miterlimit="10" d="M1.6161015,14
	c0,0,8.2223158,2.230732,22.1919479,2.230732C37.5260048,16.230732,46,14,46,14"/>
<path fill="none" stroke="#000000" stroke-width="2" stroke-miterlimit="10" d="M38,21.5c0-1.3807373-0.6192627-2.5-2-2.5
	c-0.5654907,0-1.59375,1.4375-2,2c-0.40625-0.5625-1.4345093-2-2-2c-1.3807373,0-2.1393604,1.1263142-2,2.5
	c0.21875,2.15625,4,4.5,4,4.5S38,23.59375,38,21.5z"/>
</svg>
