<?xml version="1.0" encoding="utf-8"?>
<!-- Generator: Adobe Illustrator 18.0.0, SVG Export Plug-In . SVG Version: 6.00 Build 0)  -->
<!DOCTYPE svg PUBLIC "-//W3C//DTD SVG 1.1//EN" "http://www.w3.org/Graphics/SVG/1.1/DTD/svg11.dtd">
<svg version="1.1" id="Layer_1" xmlns="http://www.w3.org/2000/svg" xmlns:xlink="http://www.w3.org/1999/xlink" x="0px" y="0px"
	 viewBox="0 0 48 48" enable-background="new 0 0 48 48" xml:space="preserve">
<path fill="none" stroke="#000000" stroke-width="2" stroke-linecap="round" stroke-linejoin="round" stroke-miterlimit="10" d="
	M34.4629631,5.3333335c0,0-4.4948349,1.6666665-10.4630394,1.6666665c-5.6519814,0-10.0462198-1.6666665-10.0462198-1.6666665V2
	c0,0,3.796628,1.6666667,10.0462198,1.6666667C29.9017258,3.6666667,34.4629631,2,34.4629631,2V5.3333335z"/>
<path fill="none" stroke="#000000" stroke-width="2" stroke-linecap="round" stroke-linejoin="round" stroke-miterlimit="10" d="
	M18.3981476,7.3333335c0,0-1.3194447,1.7222219-1.1111107,3.4444442"/>
<path fill="none" stroke="#000000" stroke-width="2" stroke-linecap="round" stroke-linejoin="round" stroke-miterlimit="10" d="
	M15.0648146,6.3333335c0,0-4.5138884,7.4999995-5.5555553,17.7777767s0,14.4444466,0,14.4444466
	s6.5277777,0.9722214,8.8888884,1.1111107s5.4166679-9.5138893,5.5555553-15.5555573"/>
<polyline fill="none" stroke="#000000" stroke-width="2" stroke-linecap="round" stroke-linejoin="round" stroke-miterlimit="10" points="
	10,40 10,41.8888893 16.9768524,43 17.9328709,39.8333321 "/>
<path fill="none" stroke="#000000" stroke-width="2" stroke-linecap="round" stroke-linejoin="round" stroke-miterlimit="10" d="
	M29.6018524,7.3333335c0,0,1.3194447,1.7222219,1.1111107,3.4444442"/>
<path fill="none" stroke="#000000" stroke-width="2" stroke-linecap="round" stroke-linejoin="round" stroke-miterlimit="10" d="
	M32.9351845,6.3333335c0,0,4.5138893,7.4999995,5.5555573,17.7777767c1.0416641,10.2777786,0,14.4444466,0,14.4444466
	s-6.5277786,0.9722214-8.8888893,1.1111107s-5.4166679-9.5138893-5.5555553-15.5555573"/>
<polyline fill="none" stroke="#000000" stroke-width="2" stroke-linecap="round" stroke-linejoin="round" stroke-miterlimit="10" points="
	37,40 37,41.8888893 30.5231476,43 29.3171291,39.8333321 "/>
<path fill="none" stroke="#000000" stroke-width="2" stroke-linecap="round" stroke-linejoin="round" stroke-miterlimit="10" d="
	M35,11l-3,4c0,0-0.7755642,6.7755642,6,7"/>
<path fill="none" stroke="#000000" stroke-width="2" stroke-linecap="round" stroke-linejoin="round" stroke-miterlimit="10" d="
	M13,11l4,5c0,0-2.5325365,5.6427631-7,6"/>
</svg>
