<?xml version="1.0" encoding="utf-8"?>
<!-- Generator: Adobe Illustrator 18.0.0, SVG Export Plug-In . SVG Version: 6.00 Build 0)  -->
<!DOCTYPE svg PUBLIC "-//W3C//DTD SVG 1.1//EN" "http://www.w3.org/Graphics/SVG/1.1/DTD/svg11.dtd">
<svg version="1.1" id="Layer_1" xmlns="http://www.w3.org/2000/svg" xmlns:xlink="http://www.w3.org/1999/xlink" x="0px" y="0px"
	 viewBox="0 0 48 48" enable-background="new 0 0 48 48" xml:space="preserve">
<g>
	<path fill="none" stroke="#000000" stroke-width="2" stroke-linejoin="round" stroke-miterlimit="10" d="M8,45V19
		c8-1.0212479,5-16,5-16h4c0,3.865993,7,15,7,15S31,6.865993,31,3h4c0,0-2.7078362,15.9787521,5,17v25h-4.4805794
		c-2.8146935,0-5.4343033-1.4380035-6.9454727-3.8126335L24.0000458,34l-4.573904,7.1873665
		C17.9149742,43.5619965,15.2953615,45,12.4806681,45H8z"/>
	
		<line fill="none" stroke="#000000" stroke-width="2" stroke-linejoin="round" stroke-miterlimit="10" x1="24" y1="18" x2="24" y2="35"/>
	<path fill="none" stroke="#000000" stroke-width="2" stroke-linejoin="round" stroke-miterlimit="10" d="M17,3
		c0.083334-0.0833333,2.2111549,3,7,3c5.1713142,0,7-2.8333333,7-3"/>
	
		<line fill="none" stroke="#000000" stroke-width="2" stroke-linecap="round" stroke-linejoin="round" stroke-miterlimit="10" x1="28" y1="20" x2="32" y2="20"/>
	
		<line fill="none" stroke="#000000" stroke-width="2" stroke-linecap="round" stroke-linejoin="round" stroke-miterlimit="10" x1="16" y1="20" x2="20" y2="20"/>
</g>
</svg>
