<?xml version="1.0" encoding="utf-8"?>
<!-- Generator: Adobe Illustrator 18.0.0, SVG Export Plug-In . SVG Version: 6.00 Build 0)  -->
<!DOCTYPE svg PUBLIC "-//W3C//DTD SVG 1.1//EN" "http://www.w3.org/Graphics/SVG/1.1/DTD/svg11.dtd">
<svg version="1.1" id="Layer_1" xmlns="http://www.w3.org/2000/svg" xmlns:xlink="http://www.w3.org/1999/xlink" x="0px" y="0px"
	 viewBox="0 0 48 48" enable-background="new 0 0 48 48" xml:space="preserve">
<path fill="none" stroke="#000000" stroke-width="2" stroke-linecap="round" stroke-linejoin="round" stroke-miterlimit="10" d="
	M43.1016541,35H4.898345C3.8499179,35,3,34.1500816,3,33.1016541l0,0c0-0.6812363,0.3650253-1.3102398,0.956502-1.6482258L24,20
	l20.043499,11.4534283C44.6349754,31.7914143,45,32.4204178,45,33.1016541l0,0C45,34.1500816,44.1500816,35,43.1016541,35z"/>
<path fill="none" stroke="#000000" stroke-width="2" stroke-linecap="round" stroke-linejoin="round" stroke-miterlimit="10" d="
	M21.0863209,13.3466139c0-1.7821054,1.5999298-3.190527,3.4417706-2.8672438
	c1.1718826,0.2056913,2.133461,1.1672697,2.3391514,2.3391523c0.1933937,1.1018152-0.2329216,2.1170607-0.9882259,2.7550144
	C24.7596073,16.5190277,24,17.8182354,24,19.2835102V20"/>
</svg>
