<?xml version="1.0" encoding="utf-8"?>
<!-- Generator: Adobe Illustrator 18.0.0, SVG Export Plug-In . SVG Version: 6.00 Build 0)  -->
<!DOCTYPE svg PUBLIC "-//W3C//DTD SVG 1.1//EN" "http://www.w3.org/Graphics/SVG/1.1/DTD/svg11.dtd">
<svg version="1.1" id="Layer_1" xmlns="http://www.w3.org/2000/svg" xmlns:xlink="http://www.w3.org/1999/xlink" x="0px" y="0px"
	 viewBox="0 0 48 48" enable-background="new 0 0 48 48" xml:space="preserve">
<path fill="none" stroke="#000000" stroke-width="2" stroke-linecap="round" stroke-linejoin="round" stroke-miterlimit="10" d="
	M35,5c0,0-3.3054447,1-11,1c-6.5152721,0-11-1-11-1c-0.5522852,0-1-0.4477153-1-1V3c0-0.5522847,0.4477148-1,1-1
	c0,0,4.1527233,1,11,1c6.4329357,0,11-1,11-1c0.5522842,0,1,0.4477153,1,1v1C36,4.5522847,35.5522842,5,35,5z"/>
<g>
	<path fill="none" stroke="#000000" stroke-width="2" stroke-linecap="round" stroke-linejoin="round" stroke-miterlimit="10" d="
		M13,5c0,0-5.3877821,18.2151394-5,31c0,0,3.9920321,2.0305443,8,1c0,0,4.9535198-23.7370529,8-25"/>
	<path fill="none" stroke="#000000" stroke-width="2" stroke-linecap="round" stroke-linejoin="round" stroke-miterlimit="10" d="
		M8,36c0,0-0.4489188,8.6337433,1,9c1.3134127,0.3320045,6,0,6,0l1-8"/>
	<path fill="none" stroke="#000000" stroke-width="2" stroke-linecap="round" stroke-linejoin="round" stroke-miterlimit="10" d="
		M11,40c0,0-0.4422312,1.796814,0,3"/>
	<path fill="none" stroke="#000000" stroke-width="2" stroke-linecap="round" stroke-linejoin="round" stroke-miterlimit="10" d="
		M17,6c0,0,0.46348,7.9508629-6,9"/>
</g>
<g>
	<path fill="none" stroke="#000000" stroke-width="2" stroke-linecap="round" stroke-linejoin="round" stroke-miterlimit="10" d="
		M34.967144,5c0,0,5.3877831,18.2151394,5,31c0,0-3.9920311,2.0305443-7.9999981,1c0,0-4.9535198-23.7370529-8-25"/>
	<path fill="none" stroke="#000000" stroke-width="2" stroke-linecap="round" stroke-linejoin="round" stroke-miterlimit="10" d="
		M39.967144,36c0,0,0.4489212,8.6337433-1,9c-1.3134117,0.3320045-6,0-6,0l-0.9999981-8"/>
	<path fill="none" stroke="#000000" stroke-width="2" stroke-linecap="round" stroke-linejoin="round" stroke-miterlimit="10" d="
		M36.967144,40c0,0,0.442234,1.796814,0,3"/>
	<path fill="none" stroke="#000000" stroke-width="2" stroke-linecap="round" stroke-linejoin="round" stroke-miterlimit="10" d="
		M30.9671459,6c0,0-0.46348,7.9508629,5.9999981,9"/>
</g>
</svg>
