<?xml version="1.0" encoding="utf-8"?>
<!-- Generator: Adobe Illustrator 18.0.0, SVG Export Plug-In . SVG Version: 6.00 Build 0)  -->
<!DOCTYPE svg PUBLIC "-//W3C//DTD SVG 1.1//EN" "http://www.w3.org/Graphics/SVG/1.1/DTD/svg11.dtd">
<svg version="1.1" id="Layer_1" xmlns="http://www.w3.org/2000/svg" xmlns:xlink="http://www.w3.org/1999/xlink" x="0px" y="0px"
	 viewBox="0 0 48 48" enable-background="new 0 0 48 48" xml:space="preserve">
<path fill="none" stroke="#000000" stroke-width="2" stroke-linecap="round" stroke-linejoin="round" stroke-miterlimit="10" d="
	M31,3.0207243c0,1.9329967-7,6.5-7,6.5s-7-4.5670033-7-6.5s3.1340065-1.5,7-1.5S31,1.0877277,31,3.0207243z"/>
<path fill="none" stroke="#000000" stroke-width="2" stroke-linecap="round" stroke-linejoin="round" stroke-miterlimit="10" d="
	M17,2.5207243c0,0-4.833333,1.875-3,5s9.916666,3.958333,10,7"/>
<path fill="none" stroke="#000000" stroke-width="2" stroke-linecap="round" stroke-linejoin="round" stroke-miterlimit="10" d="
	M13.5,5C2.6420982,8.3466139,1.8034528,23.4807434,4,36c0,0,3.5537848,0.8273582,5,0c0,0,0.4409027-13.5059757,4-16"/>
<path fill="none" stroke="#000000" stroke-width="2" stroke-linecap="round" stroke-linejoin="round" stroke-miterlimit="10" d="
	M7,10c0,0,7.5657368,6.7529888,7,15s-4,16-4,16s3.4501991,6.0079689,14,6"/>
<path fill="none" stroke="#000000" stroke-width="2" stroke-linecap="round" stroke-linejoin="round" stroke-miterlimit="10" d="
	M31.0108528,2.5207243c0,0,4.8333321,1.875,3,5s-9.9166679,3.958333-10,7"/>
<path fill="none" stroke="#000000" stroke-width="2" stroke-linecap="round" stroke-linejoin="round" stroke-miterlimit="10" d="
	M34.5108528,5c10.8579025,3.3466139,11.6965485,18.4807434,9.5,31c0,0-3.5537872,0.8273582-5,0c0,0-0.4409027-13.5059757-4-16"/>
<path fill="none" stroke="#000000" stroke-width="2" stroke-linecap="round" stroke-linejoin="round" stroke-miterlimit="10" d="
	M41.0108528,10c0,0-7.5657387,6.7529888-7,15c0.5657349,8.2470131,4,16,4,16s-3.4501991,6.0079689-14,6"/>
<circle fill="none" stroke="#000000" stroke-width="2" stroke-linecap="round" stroke-linejoin="round" stroke-miterlimit="10" cx="24" cy="20" r="1"/>
<circle fill="none" stroke="#000000" stroke-width="2" stroke-linecap="round" stroke-linejoin="round" stroke-miterlimit="10" cx="24" cy="26" r="1"/>
<circle fill="none" stroke="#000000" stroke-width="2" stroke-linecap="round" stroke-linejoin="round" stroke-miterlimit="10" cx="24" cy="32" r="1"/>
</svg>
