<?xml version="1.0" encoding="utf-8"?>
<!-- Generator: Adobe Illustrator 18.0.0, SVG Export Plug-In . SVG Version: 6.00 Build 0)  -->
<!DOCTYPE svg PUBLIC "-//W3C//DTD SVG 1.1//EN" "http://www.w3.org/Graphics/SVG/1.1/DTD/svg11.dtd">
<svg version="1.1" id="Layer_1" xmlns="http://www.w3.org/2000/svg" xmlns:xlink="http://www.w3.org/1999/xlink" x="0px" y="0px"
	 viewBox="0 0 48 48" enable-background="new 0 0 48 48" xml:space="preserve">
<path fill="none" stroke="#000000" stroke-width="2" stroke-linecap="round" stroke-linejoin="round" stroke-miterlimit="10" d="
	M18.8125,39.5"/>
<g>
	<path fill="none" stroke="#000000" stroke-width="2" stroke-linecap="round" stroke-linejoin="round" stroke-miterlimit="10" d="
		M45.2390251,29.0807915c-0.9940414,1.4842834,0.7984428,5.3134384-0.5126648,6.6245422
		c-1.3111191,1.3111229-5.1402931-0.4813461-6.6245995,0.5126991c-1.5295372,1.0243454-1.3407936,5.2407913-3.0028725,5.9284401
		c-1.6909294,0.699585-4.5408516-2.4229126-6.3145351-2.0718117c-1.7872162,0.3537788-3.2307205,4.3239479-5.046011,4.3239059
		c-1.8152676-0.000042-3.2585697-3.9702759-5.0457516-4.324131c-1.7734795-0.3511467-4.6233273,2.7713127-6.3140621,2.0717621
		c-1.6618776-0.6876144-1.4728956-4.9039688-3.0022612-5.9282036c-1.4842834-0.9940376-5.3134389,0.7984428-6.6245432-0.512661
		c-1.3111224-1.3111229,0.4813488-5.1402931-0.5127001-6.6245995L12,11h24L45.2390251,29.0807915z"/>
	
		<polyline fill="none" stroke="#000000" stroke-width="2" stroke-linecap="round" stroke-linejoin="round" stroke-miterlimit="10" points="
		12,11 12,7 36,7 36,11 	"/>
	
		<line fill="none" stroke="#000000" stroke-width="2" stroke-linecap="round" stroke-linejoin="round" stroke-miterlimit="10" x1="18.375" y1="12" x2="13.9375" y2="21.3125"/>
	
		<line fill="none" stroke="#000000" stroke-width="2" stroke-linecap="round" stroke-linejoin="round" stroke-miterlimit="10" x1="29.3125" y1="12" x2="33.625" y2="21.3125"/>
	
		<line fill="none" stroke="#000000" stroke-width="2" stroke-linecap="round" stroke-linejoin="round" stroke-miterlimit="10" x1="24" y1="11" x2="24" y2="20"/>
</g>
</svg>
