<?xml version="1.0" encoding="utf-8"?>
<!-- Generator: Adobe Illustrator 18.0.0, SVG Export Plug-In . SVG Version: 6.00 Build 0)  -->
<!DOCTYPE svg PUBLIC "-//W3C//DTD SVG 1.1//EN" "http://www.w3.org/Graphics/SVG/1.1/DTD/svg11.dtd">
<svg version="1.1" id="Layer_1" xmlns="http://www.w3.org/2000/svg" xmlns:xlink="http://www.w3.org/1999/xlink" x="0px" y="0px"
	 viewBox="0 0 48 48" enable-background="new 0 0 48 48" xml:space="preserve">
<g>
	<path fill="none" stroke="#000000" stroke-width="2" stroke-linejoin="round" stroke-miterlimit="10" d="M25.2289028,42.1706352
		C28.8125858,40.4763336,39,37.2509956,39,37.2509956c-0.2276039-8.6553669-9.5617523-12.2961483-3.0544472-20.330677
		S35.6676407,4.9140201,32.6215134,5.8612218C28.8848534,8.493947,24,13.6746349,24,13.6746349
		s-4.9708519-5.2735491-8.2377157-7.8134131c-2.8704815-1.2487216-9.8313408,3.0375161-3.3240376,11.0720463
		S9.6114035,28.6021023,9.3837986,37.2574692c0,0,9.8786526,3.2053337,13.3932171,4.9013481
		C23.5535488,42.5335464,24.4494095,42.5391655,25.2289028,42.1706352z"/>
	<path fill="none" stroke="#000000" stroke-width="2" stroke-linejoin="round" stroke-miterlimit="10" d="M24,22.6899071"/>
	<path fill="none" stroke="#000000" stroke-width="2" stroke-linecap="round" stroke-linejoin="round" stroke-miterlimit="10" d="
		M12.916667,6c0,0-1-1.3333335-0.416667-4.1666665"/>
	<path fill="none" stroke="#000000" stroke-width="2" stroke-linecap="round" stroke-linejoin="round" stroke-miterlimit="10" d="
		M34.8333321,5.8409657c0,0,0.75-2.5076325,0.4166679-4.0076323"/>
</g>
<line fill="none" stroke="#000000" stroke-width="2" stroke-linecap="round" stroke-linejoin="round" stroke-miterlimit="10" x1="24" y1="13" x2="24" y2="23"/>
<path fill="none" stroke="#000000" stroke-width="2" stroke-linecap="round" stroke-linejoin="round" stroke-miterlimit="10" d="
	M12.4382467,16.9332676c0,0,2.1420984,3.2739029,6.8519258,2.356905"/>
<path fill="none" stroke="#000000" stroke-width="2" stroke-linecap="round" stroke-linejoin="round" stroke-miterlimit="10" d="
	M35.9455528,16.9203186c0,0-1.92696,3.8432941-7.7038536,2.2496681"/>
<path fill="none" stroke="#000000" stroke-width="2" stroke-linecap="round" stroke-linejoin="round" stroke-miterlimit="10" d="
	M44.6427612,20.5644093"/>
</svg>
