<?xml version="1.0" encoding="utf-8"?>
<!-- Generator: Adobe Illustrator 18.0.0, SVG Export Plug-In . SVG Version: 6.00 Build 0)  -->
<!DOCTYPE svg PUBLIC "-//W3C//DTD SVG 1.1//EN" "http://www.w3.org/Graphics/SVG/1.1/DTD/svg11.dtd">
<svg version="1.1" id="Layer_1" xmlns="http://www.w3.org/2000/svg" xmlns:xlink="http://www.w3.org/1999/xlink" x="0px" y="0px"
	 viewBox="0 0 48 48" enable-background="new 0 0 48 48" xml:space="preserve">
<path fill="none" stroke="#000000" stroke-width="2" stroke-linejoin="round" stroke-miterlimit="10" d="M24,47
	c5.5033207,0.14077,13-1,13-1c-2.21381-5.9057121,0-28,0-28l2,7c3.9694557-1.1420975,7-3,7-3c-0.7171326-7.0637445-6-16-6-16
	L29.5,3.2185743c0,3.0375659-2.6367855,8.1240549-5.5,9.2057314c-3.0464802-1.6128845-5.5-6.1681657-5.5-9.2057314L8,6
	c0,0-5.2828684,8.9362555-6,16c0,0,3.0305443,1.8579025,7,3l2-7c0,0,2.2138119,22.0942879,0,28C11,46,18.4966793,47.14077,24,47z"/>
</svg>
