<?xml version="1.0" encoding="utf-8"?>
<!-- Generator: Adobe Illustrator 18.0.0, SVG Export Plug-In . SVG Version: 6.00 Build 0)  -->
<!DOCTYPE svg PUBLIC "-//W3C//DTD SVG 1.1//EN" "http://www.w3.org/Graphics/SVG/1.1/DTD/svg11.dtd">
<svg version="1.1" id="Layer_1" xmlns="http://www.w3.org/2000/svg" xmlns:xlink="http://www.w3.org/1999/xlink" x="0px" y="0px"
	 viewBox="0 0 48 48" enable-background="new 0 0 48 48" xml:space="preserve">
<path fill="none" stroke="#000000" stroke-width="2" stroke-linecap="round" stroke-linejoin="round" stroke-miterlimit="10" d="
	M34,29c0,0-0.4302788-3.9907036,1-9c0.0143013-0.0500927,0.0284195-0.1001835,0.0423508-0.1502686
	C36.4221039,14.8899975,32.5954704,10,27.4473972,10h-6.8947945c-5.1480751,0-8.9747057,4.8899975-7.5949554,9.8497314
	C12.9715805,19.8998165,12.9856968,19.9499073,13,20c1.4302788,5.0092964,1,9,1,9"/>
<path fill="none" stroke="#000000" stroke-width="2" stroke-linecap="round" stroke-linejoin="round" stroke-miterlimit="10" d="
	M34,29c0,1.6568546-4.4771519,3-10,3s-10-1.3431454-10-3"/>
<path fill="none" stroke="#000000" stroke-width="2" stroke-linecap="round" stroke-linejoin="round" stroke-miterlimit="10" d="
	M34,25c0,1.6568546-4.4771519,3-10,3s-10-1.3431454-10-3"/>
<path fill="none" stroke="#000000" stroke-width="2" stroke-linecap="round" stroke-linejoin="round" stroke-miterlimit="10" d="
	M34.5037079,25.2724171c3.4616051,1.1854801,5.6553383,2.9462509,5.6553383,4.9119701
	c0,3.5697594-7.2346535,6.4636192-16.1590462,6.4636192S7.8409548,33.7541466,7.8409548,30.1843872
	c0-1.9658279,2.1939745-3.7266846,5.6559134-4.9121666"/>
<circle fill="none" stroke="#000000" stroke-width="2" stroke-linecap="round" stroke-linejoin="round" stroke-miterlimit="10" cx="24" cy="23" r="2"/>
</svg>
