<?xml version="1.0" encoding="utf-8"?>
<!-- Generator: Adobe Illustrator 18.0.0, SVG Export Plug-In . SVG Version: 6.00 Build 0)  -->
<!DOCTYPE svg PUBLIC "-//W3C//DTD SVG 1.1//EN" "http://www.w3.org/Graphics/SVG/1.1/DTD/svg11.dtd">
<svg version="1.1" id="Layer_1" xmlns="http://www.w3.org/2000/svg" xmlns:xlink="http://www.w3.org/1999/xlink" x="0px" y="0px"
	 viewBox="0 0 48 48" enable-background="new 0 0 48 48" xml:space="preserve">
<path fill="none" stroke="#000000" stroke-width="2" stroke-linecap="round" stroke-linejoin="round" stroke-miterlimit="10" d="
	M36.0000038,40H11.9999971C10.3431444,40,9,38.6568565,9,37.0000038v-0.0000076C9,35.3431435,10.3431444,34,11.9999971,34
	h24.0000076C37.6568565,34,39,35.3431435,39,36.9999962v0.0000076C39,38.6568565,37.6568565,40,36.0000038,40z"/>
<path fill="none" stroke="#000000" stroke-width="2" stroke-linecap="round" stroke-linejoin="round" stroke-miterlimit="10" d="
	M30,9c0,0-0.2167416,4.2133312,0,7c0.583334,7.5,12.25,5.833334,5,18"/>
<path fill="none" stroke="#000000" stroke-width="2" stroke-linecap="round" stroke-linejoin="round" stroke-miterlimit="10" d="
	M11.9999971,34C11.9999971,34,9,31,13,26c2.1746254-2.7182827,3.25-6,5-10s5.25-7.916667,10-10"/>
<circle fill="none" stroke="#000000" stroke-width="2" stroke-linecap="round" stroke-linejoin="round" stroke-miterlimit="10" cx="31.5" cy="5.5" r="3.5"/>
</svg>
