<?xml version="1.0" encoding="utf-8"?>
<!-- Generator: Adobe Illustrator 18.0.0, SVG Export Plug-In . SVG Version: 6.00 Build 0)  -->
<!DOCTYPE svg PUBLIC "-//W3C//DTD SVG 1.1//EN" "http://www.w3.org/Graphics/SVG/1.1/DTD/svg11.dtd">
<svg version="1.1" id="Layer_1" xmlns="http://www.w3.org/2000/svg" xmlns:xlink="http://www.w3.org/1999/xlink" x="0px" y="0px"
	 viewBox="0 0 48 48" enable-background="new 0 0 48 48" xml:space="preserve">
<path fill="none" stroke="#000000" stroke-width="2" stroke-linejoin="round" stroke-miterlimit="10" d="M24,45
	c-5.5033207,0.14077-13-1-13-1c2.2138119-5.9057121,0-26,0-26l-2,7c-3.9694557-1.1420975-7-3-7-3C2.7171314,14.9362555,8,6,8,6
	l10.5-2.7814257L24,10l-3,3l-3-9"/>
<path fill="none" stroke="#000000" stroke-width="2" stroke-linejoin="round" stroke-miterlimit="10" d="M24,45
	c5.5033207,0.14077,13-1,13-1c-2.21381-5.9057121,0-26,0-26l2,7c3.9694557-1.1420975,7-3,7-3c-0.7171326-7.0637445-6-16-6-16
	L29.5,3.2185743L24,10l3,3l3-9"/>
<circle fill="none" stroke="#000000" stroke-width="2" stroke-linejoin="round" stroke-miterlimit="10" cx="24" cy="17.2128773" r="0.5"/>
<circle fill="none" stroke="#000000" stroke-width="2" stroke-linejoin="round" stroke-miterlimit="10" cx="24" cy="23.2128773" r="0.5"/>
<circle fill="none" stroke="#000000" stroke-width="2" stroke-linejoin="round" stroke-miterlimit="10" cx="24" cy="29.2128773" r="0.5"/>
<circle fill="none" stroke="#000000" stroke-width="2" stroke-linejoin="round" stroke-miterlimit="10" cx="24" cy="35.2128792" r="0.5"/>
</svg>
