<?xml version="1.0" encoding="utf-8"?>
<!-- Generator: Adobe Illustrator 18.0.0, SVG Export Plug-In . SVG Version: 6.00 Build 0)  -->
<!DOCTYPE svg PUBLIC "-//W3C//DTD SVG 1.1//EN" "http://www.w3.org/Graphics/SVG/1.1/DTD/svg11.dtd">
<svg version="1.1" id="Layer_1" xmlns="http://www.w3.org/2000/svg" xmlns:xlink="http://www.w3.org/1999/xlink" x="0px" y="0px"
	 viewBox="0 0 48 48" enable-background="new 0 0 48 48" xml:space="preserve">
<path fill="none" stroke="#000000" stroke-width="2" stroke-linecap="round" stroke-linejoin="round" stroke-miterlimit="10" d="
	M24,12c-3.9256306-3.0557766-7-2-7-2c3.1673298-3.9203186,2-8,2-8s-1.5816727,1.2297478-5,1S9,7,9,7c1.6746349,2.7742367,5,3,5,3
	c-0.7622843,3.5166006,0.7622843,5.0491371,2,7s2.6414337,3.4953518-0.5073042,8.1460819
	c0,0-9.4926958,4.5816746-9.4926958,16.533865c0,0,9.2934923,3.8200531,18,3.8200531"/>
<path fill="none" stroke="#000000" stroke-width="2" stroke-linecap="round" stroke-linejoin="round" stroke-miterlimit="10" d="
	M24,12c3.9256306-3.0557766,7-2,7-2c-3.1673298-3.9203186-2-8-2-8s1.5816727,1.2297478,5,1s5,4,5,4c-1.674633,2.7742367-5,3-5,3
	c0.7622833,3.5166006-0.7622833,5.0491371-2,7s-2.6414337,3.4953518,0.5073051,8.1460819
	c0,0,9.4926949,4.5816746,9.4926949,16.533865c0,0-9.2934914,3.8200531-18,3.8200531"/>
<circle fill="none" stroke="#000000" stroke-width="2" stroke-linecap="round" stroke-linejoin="round" stroke-miterlimit="10" cx="16.6822205" cy="33.5112305" r="1.5993172"/>
<circle fill="none" stroke="#000000" stroke-width="2" stroke-linecap="round" stroke-linejoin="round" stroke-miterlimit="10" cx="27.5400696" cy="35.4659424" r="1.3003327"/>
<circle fill="none" stroke="#000000" stroke-width="2" stroke-linecap="round" stroke-linejoin="round" stroke-miterlimit="10" cx="25.4528503" cy="27.9349365" r="0.7968128"/>
<circle fill="none" stroke="#000000" stroke-width="2" stroke-linecap="round" stroke-linejoin="round" stroke-miterlimit="10" cx="24" cy="22.423645" r="0.6560425"/>
<circle fill="none" stroke="#000000" stroke-width="2" stroke-linecap="round" stroke-linejoin="round" stroke-miterlimit="10" cx="18.2815552" cy="27.1381226" r="0.5312085"/>
<circle fill="none" stroke="#000000" stroke-width="2" stroke-linecap="round" stroke-linejoin="round" stroke-miterlimit="10" cx="35.4794006" cy="36.7662964" r="1.062417"/>
<circle fill="none" stroke="#000000" stroke-width="2" stroke-linecap="round" stroke-linejoin="round" stroke-miterlimit="10" cx="16.9535217" cy="40.68396" r="0.7968128"/>
<circle fill="none" stroke="#000000" stroke-width="2" stroke-linecap="round" stroke-linejoin="round" stroke-miterlimit="10" cx="9.9150085" cy="37.2310791" r="0.5976096"/>
</svg>
