<?xml version="1.0" encoding="utf-8"?>
<!-- Generator: Adobe Illustrator 18.0.0, SVG Export Plug-In . SVG Version: 6.00 Build 0)  -->
<!DOCTYPE svg PUBLIC "-//W3C//DTD SVG 1.1//EN" "http://www.w3.org/Graphics/SVG/1.1/DTD/svg11.dtd">
<svg version="1.1" id="Layer_1" xmlns="http://www.w3.org/2000/svg" xmlns:xlink="http://www.w3.org/1999/xlink" x="0px" y="0px"
	 viewBox="0 0 48 48" enable-background="new 0 0 48 48" xml:space="preserve">
<path fill="none" stroke="#000000" stroke-width="2" stroke-linecap="round" stroke-linejoin="round" stroke-miterlimit="10" d="
	M23.9734039,6.9473686c3.0521011,0,5.4740181-2.0329213,5.4740181-3.9473686L34.07967,5.3684211
	c0,0-3.5023346,7.5267348-3.3670864,12.6315784H16.8731499c0.1352482-5.1048441-3.1578951-12.6315784-3.1578951-12.6315784
	L18.4520969,3c0,1.9144473,2.4742165,3.9473686,5.5263157,3.9473686"/>
<rect x="17" y="22" fill="none" stroke="#000000" stroke-width="2" stroke-linecap="round" stroke-linejoin="round" stroke-miterlimit="10" width="14" height="3"/>
<path fill="none" stroke="#000000" stroke-width="2" stroke-linecap="round" stroke-linejoin="round" stroke-miterlimit="10" d="
	M17,25c0,0-6.166667,5.916666-7,11l4,2"/>
<path fill="none" stroke="#000000" stroke-width="2" stroke-linecap="round" stroke-linejoin="round" stroke-miterlimit="10" d="
	M16,32c0,0-2.166667,6.75-2,9c0,0,3.25,1.75,5,2"/>
<path fill="none" stroke="#000000" stroke-width="2" stroke-linecap="round" stroke-linejoin="round" stroke-miterlimit="10" d="
	M20,37l-1.083334,8c0,0,2.583334,0.75,5.083334,1"/>
<path fill="none" stroke="#000000" stroke-width="2" stroke-linecap="round" stroke-linejoin="round" stroke-miterlimit="10" d="
	M31,25c0,0,6.1666679,5.916666,7,11l-4,2"/>
<path fill="none" stroke="#000000" stroke-width="2" stroke-linecap="round" stroke-linejoin="round" stroke-miterlimit="10" d="
	M32,32c0,0,2.1666679,6.75,2,9c0,0-3.25,1.75-5,2"/>
<path fill="none" stroke="#000000" stroke-width="2" stroke-linecap="round" stroke-linejoin="round" stroke-miterlimit="10" d="
	M28,37l1.083334,8c0,0-2.583334,0.75-5.083334,1"/>
</svg>
