<?xml version="1.0" encoding="utf-8"?>
<!-- Generator: Adobe Illustrator 18.0.0, SVG Export Plug-In . SVG Version: 6.00 Build 0)  -->
<!DOCTYPE svg PUBLIC "-//W3C//DTD SVG 1.1//EN" "http://www.w3.org/Graphics/SVG/1.1/DTD/svg11.dtd">
<svg version="1.1" id="Layer_1" xmlns="http://www.w3.org/2000/svg" xmlns:xlink="http://www.w3.org/1999/xlink" x="0px" y="0px"
	 viewBox="0 0 48 48" enable-background="new 0 0 48 48" xml:space="preserve">
<polyline fill="none" stroke="#000000" stroke-width="2" stroke-linecap="round" stroke-linejoin="round" stroke-miterlimit="10" points="
	18.451067,10.4977016 24,7.3268828 29,10 "/>
<path fill="none" stroke="#000000" stroke-width="2" stroke-linecap="round" stroke-linejoin="round" stroke-miterlimit="10" d="
	M22.5095329,3.9234018c0-0.9116201,0.8184299-1.6320858,1.7606068-1.4667132
	c0.5994663,0.1052196,1.0913544,0.5971067,1.1965733,1.196573c0.0989285,0.5636239-0.1191502,1.0829635-0.505518,1.4093027
	C24.3885708,5.5462217,24,6.2108202,24,6.9603691v0.3665137"/>
<path fill="none" stroke="#000000" stroke-width="2" stroke-linecap="round" stroke-linejoin="round" stroke-miterlimit="10" d="
	M24,20c-4.5737057-2.4515266-7-2-7-2c3.1673298-3.9203186,2-8,2-8s-1.5816727,1.2297478-5,1s-5,4-5,4c1.6746349,2.7742367,5,3,5,3
	c-0.7622843,3.5165997,0.7622843,5.0491371,2,7s2.1487389,6.3492699-1,11s-2,4-2,4s9.6347942,4.7065086,22,0
	c0,0,1.1487389,0.6507301-2-4s-2.2377167-9.0491371-1-11s2.7622833-3.4834003,2-7c0,0,3.325367-0.2257633,5-3
	c0,0-1.5816727-4.2297478-5-4s-5-1-5-1s-1.1673298,4.0796814,2,8C31,18,28.5737057,17.5484734,24,20"/>
</svg>
