<?xml version="1.0" encoding="utf-8"?>
<!-- Generator: Adobe Illustrator 18.0.0, SVG Export Plug-In . SVG Version: 6.00 Build 0)  -->
<!DOCTYPE svg PUBLIC "-//W3C//DTD SVG 1.1//EN" "http://www.w3.org/Graphics/SVG/1.1/DTD/svg11.dtd">
<svg version="1.1" id="Layer_1" xmlns="http://www.w3.org/2000/svg" xmlns:xlink="http://www.w3.org/1999/xlink" x="0px" y="0px"
	 viewBox="0 0 48 48" enable-background="new 0 0 48 48" xml:space="preserve">
<g>
	<g>
		<path fill="none" stroke="#000000" stroke-width="2" stroke-linejoin="round" stroke-miterlimit="10" d="M10.3104248,42.5012207
			c-0.9064636,0-1.5959778-0.6640625-1.540802-1.4917603c0.3382568-5.074585,1.1853027-18.0093994,1.1853027-18.0093994
			c0.5753174-8.2840576,6.8634033-15.0001221,14.045105-15.0001221c7.1816711,0,13.4698486,6.7155762,14.0450745,14.9998169
			c0.4768677,7.2017212,0.7142334,10.8028564,1.1871033,18.0046997c0.0545349,0.8273926-0.6343689,1.4967651-1.5404358,1.4967651
			c-0.0008545,0-0.0012512,0-0.0021362,0c-0.9079285,0-1.6804504-0.6721191-1.7254944-1.5012207
			c-0.1441956-2.6541748-0.2163086-3.9812622-0.3604431-6.635376c-0.3289795-6.0565186-5.3495789-11.2521362-11.3978882-11.362854
			c-6.1619568-0.112793-11.4560242,4.8544922-11.7896729,10.9981079C12.2640686,36.7998657,12.1880188,38.1999512,12.0359497,41
			C11.9909058,41.8291016,11.2183838,42.5012207,10.3104248,42.5012207L10.3104248,42.5012207z"/>
		<path fill="none" stroke="#000000" stroke-width="2" stroke-linejoin="round" stroke-miterlimit="10" d="M20.301239,8
			c0.0436096-2.2092285,1.6996155-4.000061,3.6987915-4.000061c1.9991455,0,3.6551514,1.7908325,3.6987915,4.000061"/>
	</g>
</g>
</svg>
