<?xml version="1.0" encoding="utf-8"?>
<!-- Generator: Adobe Illustrator 18.0.0, SVG Export Plug-In . SVG Version: 6.00 Build 0)  -->
<!DOCTYPE svg PUBLIC "-//W3C//DTD SVG 1.1//EN" "http://www.w3.org/Graphics/SVG/1.1/DTD/svg11.dtd">
<svg version="1.1" id="Layer_1" xmlns="http://www.w3.org/2000/svg" xmlns:xlink="http://www.w3.org/1999/xlink" x="0px" y="0px"
	 viewBox="0 0 48 48" enable-background="new 0 0 48 48" xml:space="preserve">
<g>
	<path fill="none" stroke="#000000" stroke-width="2" stroke-linecap="round" stroke-linejoin="round" stroke-miterlimit="10" d="
		M23.6037731,1c0,0-4.2547169,0.1933962-6.9622631,4.6415095S21,18,24,18"/>
	<path fill="none" stroke="#000000" stroke-width="2" stroke-linecap="round" stroke-linejoin="round" stroke-miterlimit="10" d="
		M24,12c-2.083334,0-6.84375-4.5-6-8"/>
	<path fill="none" stroke="#000000" stroke-width="2" stroke-linecap="round" stroke-linejoin="round" stroke-miterlimit="10" d="
		M16.4528294,10.2830191L2.0754716,26.8490562L1,30l3.4669809,3.037735l2.1721702-1.5471687L13,23.4339619l-2.5771179,17.3914928
		c-0.2605619,1.7583847,0.4630127,3.5182114,1.8850794,4.5847626L13.0943394,46H23"/>
	<path fill="none" stroke="#000000" stroke-width="2" stroke-linecap="round" stroke-linejoin="round" stroke-miterlimit="10" d="
		M24,33h-3l-1,2.1698112l-5.9528303,5.0943413C14.0471697,40.2641525,19.9056606,41,23,41"/>
	
		<line fill="none" stroke="#000000" stroke-width="2" stroke-linecap="round" stroke-linejoin="round" stroke-miterlimit="10" x1="2.0754716" y1="26.8490562" x2="7" y2="31"/>
</g>
<g>
	<path fill="none" stroke="#000000" stroke-width="2" stroke-linecap="round" stroke-linejoin="round" stroke-miterlimit="10" d="
		M24.3962269,1c0,0,4.2547169,0.1933962,6.9622631,4.6415095S27,18,24,18"/>
	<path fill="none" stroke="#000000" stroke-width="2" stroke-linecap="round" stroke-linejoin="round" stroke-miterlimit="10" d="
		M24,12c2.083334,0,6.625-3.125,7-7"/>
	<path fill="none" stroke="#000000" stroke-width="2" stroke-linecap="round" stroke-linejoin="round" stroke-miterlimit="10" d="
		M31.5471706,10.2830191L45.92453,26.8490562L47,30l-3.46698,3.037735l-2.1721725-1.5471687L35,23.4339619l1.7318497,17.5308895
		c0.1664772,1.6851768-0.5592308,3.3349304-1.9139328,4.350956L33.9056587,46H23"/>
	<path fill="none" stroke="#000000" stroke-width="2" stroke-linecap="round" stroke-linejoin="round" stroke-miterlimit="10" d="
		M24,33h3l1,2.1698112l4.9528313,5.0943413C32.9528313,40.2641525,26.0943394,41,23,41"/>
	
		<line fill="none" stroke="#000000" stroke-width="2" stroke-linecap="round" stroke-linejoin="round" stroke-miterlimit="10" x1="45.92453" y1="26.8490562" x2="41" y2="31"/>
</g>
</svg>
