<?xml version="1.0" encoding="utf-8"?>
<!-- Generator: Adobe Illustrator 18.0.0, SVG Export Plug-In . SVG Version: 6.00 Build 0)  -->
<!DOCTYPE svg PUBLIC "-//W3C//DTD SVG 1.1//EN" "http://www.w3.org/Graphics/SVG/1.1/DTD/svg11.dtd">
<svg version="1.1" id="Layer_1" xmlns="http://www.w3.org/2000/svg" xmlns:xlink="http://www.w3.org/1999/xlink" x="0px" y="0px"
	 viewBox="0 0 48 48" enable-background="new 0 0 48 48" xml:space="preserve">
<path fill="none" stroke="#000000" stroke-width="2" stroke-linejoin="round" stroke-miterlimit="10" d="M24,44h11
	c1.1045685,0,2-0.8954315,2-2V14l5,5l4-5L36,4h-6.5c0,3-2.4624348,5.5-5.5,5.5S18.5,7.0375662,18.5,4H12L2,14l4,5l5-5v28
	c0,1.1045685,0.8954306,2,2,2H24z"/>
<polygon fill="none" stroke="#000000" stroke-width="2" stroke-linejoin="round" stroke-miterlimit="10" points="24,16.5509319 
	25.7705097,22 31.5,22 26.8647442,25.5758762 28.6352558,31.1290302 24,27.8133621 19.3647442,31.2070923 21.1352558,25.5628662 
	16.5,22 22.2294903,22 "/>
</svg>
