<?xml version="1.0" encoding="utf-8"?>
<!-- Generator: Adobe Illustrator 18.0.0, SVG Export Plug-In . SVG Version: 6.00 Build 0)  -->
<!DOCTYPE svg PUBLIC "-//W3C//DTD SVG 1.1//EN" "http://www.w3.org/Graphics/SVG/1.1/DTD/svg11.dtd">
<svg version="1.1" id="Layer_1" xmlns="http://www.w3.org/2000/svg" xmlns:xlink="http://www.w3.org/1999/xlink" x="0px" y="0px"
	 viewBox="0 0 48 48" enable-background="new 0 0 48 48" xml:space="preserve">
<g>
	<path fill="none" stroke="#000000" stroke-width="2" stroke-linejoin="round" stroke-miterlimit="10" d="M24.0966816,3.0059071
		c0,0-4.2779236,11.3988199-3.0966816,17.9940929c0,0-4.876709,3.0714054-9.8969908,9.1744938s-0.8859329,9.7452564,0,10.6311855
		c0.885932,0.8859329,4.5280972,2.8546715,10.6311865-1.1812401s10.6311874-7.0874596,10.6311874-7.0874596
		s3.4452896-2.0671749,2.362484-7.0874577S38.271595,5.3683929,38.271595,5.3683929S27.3450985,2.6121595,24.0966816,3.0059071z"/>
	<path fill="none" stroke="#000000" stroke-width="2" stroke-linejoin="round" stroke-miterlimit="10" d="M23,8
		c0,0,7.916666,2.5,13,3"/>
	<path fill="none" stroke="#000000" stroke-width="2" stroke-linejoin="round" stroke-miterlimit="10" d="M11,31
		c0,0,8.666666,0.75,9,9"/>
	<path fill="none" stroke="#000000" stroke-width="2" stroke-linejoin="round" stroke-miterlimit="10" d="M35,21
		c0,0-7.25,5.083334-5,13"/>
	
		<line fill="none" stroke="#000000" stroke-width="2" stroke-linejoin="round" stroke-miterlimit="10" x1="28" y1="3" x2="26" y2="9"/>
	
		<line fill="none" stroke="#000000" stroke-width="2" stroke-linejoin="round" stroke-miterlimit="10" x1="34" y1="4" x2="32" y2="10"/>
</g>
</svg>
