<?xml version="1.0" encoding="utf-8"?>
<!-- Generator: Adobe Illustrator 18.0.0, SVG Export Plug-In . SVG Version: 6.00 Build 0)  -->
<!DOCTYPE svg PUBLIC "-//W3C//DTD SVG 1.1//EN" "http://www.w3.org/Graphics/SVG/1.1/DTD/svg11.dtd">
<svg version="1.1" id="Layer_1" xmlns="http://www.w3.org/2000/svg" xmlns:xlink="http://www.w3.org/1999/xlink" x="0px" y="0px"
	 viewBox="0 0 48 48" enable-background="new 0 0 48 48" xml:space="preserve">
<path fill="none" stroke="#000000" stroke-width="2" stroke-linejoin="round" stroke-miterlimit="10" d="M38.2679367,40.0902328
	c-4.0265312-6.6753769-2.6172447-11.780077,0-16.4921074s-2.4159203-10.6020708-2.4159203-10.6020708l-1.0386391-7.0902071
	C34.7162209,5.2426271,34.1337776,4.75,33.4467888,4.75l0,0c-0.6962013,0-1.2834511,0.5055599-1.3698044,1.1792541
	l-1.0568027,9.4228153c-1.5103874,2.2503796-4.0291805,3.4339581-6.9987469,3.4339581
	c-2.76824,0-5.7373676-1.1835785-7.2477551-3.4339581l-1.0568047-9.4228153C15.6305227,5.2555599,15.043273,4.75,14.3470736,4.75
	h-0.0000029c-0.6869869,0-1.269433,0.4926271-1.3665876,1.1558475l-1.0386391,7.0902071
	c0,0-5.0331631,5.8900385-2.4159184,10.6020708s4.0265303,9.8167305,0,16.4921074c0,0,3.6238775,2.4159203,14.4959955,2.4159203
	C34.3897514,42.5061531,38.2679367,40.0902328,38.2679367,40.0902328z"/>
<path fill="none" stroke="#000000" stroke-width="2" stroke-linejoin="round" stroke-miterlimit="10" d="M15.5657206,7.1659184
	c0,0,3.8252039,2.4159184,8.4557543,2.4159184c4.6304684,0,7.9168129-2.4159184,7.9168129-2.4159184"/>
</svg>
