<?xml version="1.0" encoding="utf-8"?>
<!-- Generator: Adobe Illustrator 18.0.0, SVG Export Plug-In . SVG Version: 6.00 Build 0)  -->
<!DOCTYPE svg PUBLIC "-//W3C//DTD SVG 1.1//EN" "http://www.w3.org/Graphics/SVG/1.1/DTD/svg11.dtd">
<svg version="1.1" id="Layer_1" xmlns="http://www.w3.org/2000/svg" xmlns:xlink="http://www.w3.org/1999/xlink" x="0px" y="0px"
	 viewBox="0 0 48 48" enable-background="new 0 0 48 48" xml:space="preserve">
<g>
	<path fill="none" stroke="#000000" stroke-width="2" stroke-linecap="round" stroke-linejoin="round" stroke-miterlimit="10" d="
		M43.3844147,11.682106c0.08181,0.357996,0.0921593,0.7269793,0.0299301,1.0888939
		c-0.4759979,2.7683392-2.630825,15.2736492-3.4506111,19.5654449C39.0396385,37.1743011,37.499485,44,29.7987061,44H9.7975512
		c-3.4808211,0-6.4536552-2.6223831-6.7591639-6.0897713C3.0132697,37.6251602,3,37.3273315,3,37.0162125
		C3,31.2107849,8.0825129,31,13.1650267,31h8.8013849c2.4205227,0,4.5065498-1.7104073,4.9735146-4.0854588
		c0.8048058-4.0933647,1.9678516-10.4928799,2.4513569-15.532093c0.073391-0.7648897,0.4464645-1.4683256,1.0504398-1.9433575
		l0.0009727-0.0007648c0.3656826-0.2876139,0.6533375-0.6624022,0.8366032-1.090023L34,2c0,0,5.6387787-2.1553786,10,1
		l-0.927124,6.4898634c-0.048172,0.3372192-0.0339622,0.6804199,0.0419312,1.0125008L43.3844147,11.682106z"/>
	<path fill="none" stroke="#000000" stroke-width="2" stroke-linecap="round" stroke-linejoin="round" stroke-miterlimit="10" d="
		M39.0396385,33.3567123c0,0-9.086916-0.6450462-12.0132122,10.6432877"/>
	
		<line fill="none" stroke="#000000" stroke-width="2" stroke-linecap="round" stroke-linejoin="round" stroke-miterlimit="10" x1="36" y1="2" x2="34" y2="11"/>
	
		<line fill="none" stroke="#000000" stroke-width="2" stroke-linecap="round" stroke-linejoin="round" stroke-miterlimit="10" x1="39" y1="2" x2="37" y2="11"/>
	
		<line fill="none" stroke="#000000" stroke-width="2" stroke-linecap="round" stroke-linejoin="round" stroke-miterlimit="10" x1="41" y1="2" x2="40" y2="12"/>
	<path fill="none" stroke="#000000" stroke-width="2" stroke-linecap="round" stroke-linejoin="round" stroke-miterlimit="10" d="
		M30,10c0,0,4.3227081,2.2669325,13,2"/>
</g>
</svg>
