<?xml version="1.0" encoding="utf-8"?>
<!-- Generator: Adobe Illustrator 18.0.0, SVG Export Plug-In . SVG Version: 6.00 Build 0)  -->
<!DOCTYPE svg PUBLIC "-//W3C//DTD SVG 1.1//EN" "http://www.w3.org/Graphics/SVG/1.1/DTD/svg11.dtd">
<svg version="1.1" id="Layer_1" xmlns="http://www.w3.org/2000/svg" xmlns:xlink="http://www.w3.org/1999/xlink" x="0px" y="0px"
	 viewBox="0 0 48 48" enable-background="new 0 0 48 48" xml:space="preserve">
<path fill="none" stroke="#000000" stroke-width="2" stroke-linecap="round" stroke-linejoin="round" stroke-miterlimit="10" d="
	M24,14c-3.9256306-3.0557766-7-2-7-2c3.1673298-3.9203186,2-8,2-8s-1.5816727,1.2297478-5,1S9,9,9,9c1.6746349,2.7742367,5,3,5,3
	c-0.7622843,3.5166006,0.7622843,5.0491371,2,7s2.6414337,3.4953518-0.5073042,8.1460819
	c0,0-9.4926958,4.5816746-9.4926958,16.533865c0,0,9.2934923,2.8200531,18,2.8200531"/>
<path fill="none" stroke="#000000" stroke-width="2" stroke-linecap="round" stroke-linejoin="round" stroke-miterlimit="10" d="
	M36.3546638,29.9972115C38.9860153,32.5505714,42,36.9451675,42,43.6799469c0,0-9.2934914,2.8200531-18,2.8200531"/>
<path fill="none" stroke="#000000" stroke-width="2" stroke-linecap="round" stroke-linejoin="round" stroke-miterlimit="10" d="
	M24,14c3.9256306-3.0557766,7-2,7-2c-3.1673298-3.9203186-2-8-2-8s1.5816727,1.2297478,5,1s5,4,5,4c-1.674633,2.7742367-5,3-5,3
	c0.7622833,3.5166006-0.7622833,5.0491371-2,7s-3.126812,2.7432919,0.0219269,7.394022"/>
<path fill="none" stroke="#000000" stroke-width="2" stroke-linecap="round" stroke-linejoin="round" stroke-miterlimit="10" d="
	M9.067729,10.2802124c0,0-1.7264276,7.3705177-1.328021,10.6241703C8.138114,24.1580353,5.4788141,36.5074196,6,39.5017395"/>
<path fill="none" stroke="#000000" stroke-width="2" stroke-linecap="round" stroke-linejoin="round" stroke-miterlimit="10" d="
	M13.8037004,14c0,0-1.3946695,5.0451527-1.8037004,7.4355907s-2.2018595,6.7230949-3.5298805,12.6327877"/>
<path fill="none" stroke="#000000" stroke-width="2" stroke-linecap="round" stroke-linejoin="round" stroke-miterlimit="10" d="
	M19.9575043,1.5112882c0,0,0.807436,0.997344-0.9575043,2.4887118"/>
<path fill="none" stroke="#000000" stroke-width="2" stroke-linecap="round" stroke-linejoin="round" stroke-miterlimit="10" d="
	M27.195219,1.5112882c0,0-0.4868622,1.6256421,1.804781,2.4887118"/>
<circle fill="none" stroke="#000000" stroke-width="2" stroke-linecap="round" stroke-linejoin="round" stroke-miterlimit="10" cx="24" cy="19.3027954" r="0.5"/>
<circle fill="none" stroke="#000000" stroke-width="2" stroke-linecap="round" stroke-linejoin="round" stroke-miterlimit="10" cx="24" cy="24.3027954" r="0.5"/>
<path fill="none" stroke="#000000" stroke-width="2" stroke-linecap="round" stroke-linejoin="round" stroke-miterlimit="10" d="
	M39.1666679,10.2802124c0,0,1.0416641,10.7197876,0.4583321,12.8864536S31.583334,35.0833321,30,37.1666679
	C28.416666,39.25,28.5,42,26.25,42s-3.40448-3.625,0.901926-7.0833321c0,0,7.306406-11.0305462,7.556406-12.333334
	c0.25-1.3027897-0.6729088-5.6746025-0.6130142-7.6421909"/>
</svg>
