<?xml version="1.0" encoding="utf-8"?>
<!-- Generator: Adobe Illustrator 18.0.0, SVG Export Plug-In . SVG Version: 6.00 Build 0)  -->
<!DOCTYPE svg PUBLIC "-//W3C//DTD SVG 1.1//EN" "http://www.w3.org/Graphics/SVG/1.1/DTD/svg11.dtd">
<svg version="1.1" id="Layer_1" xmlns="http://www.w3.org/2000/svg" xmlns:xlink="http://www.w3.org/1999/xlink" x="0px" y="0px"
	 viewBox="0 0 48 48" enable-background="new 0 0 48 48" xml:space="preserve">
<path fill="none" stroke="#000000" stroke-width="2" stroke-linejoin="round" stroke-miterlimit="10" d="M44.0583115,24.3848801
	C33.2048378,26.839159,28.6099472,34.334549,26.9785328,37.9742813C26.4214935,39.2170486,25.1713238,40,23.8094254,40h-0.0000038
	c-1.2254829,0-2.3585434-0.6361923-2.988863-1.6871452c-2.0637951-3.4410515-7.592968-11.1761761-16.9154167-13.9279747
	C0.7914132,18.6221561,2,10.1158562,2,10.1158562s8.6415834,2.230732,21.9817257,2.230732
	C37.0815277,12.3465881,46,10.1158562,46,10.1158562S48.008564,18.7615776,44.0583115,24.3848801z"/>
<path fill="none" stroke="#000000" stroke-width="2" stroke-linejoin="round" stroke-miterlimit="10" d="M2,16
	c22.7592354,2.7260361,22.1032925,2.7291546,44,0"/>
<path fill="none" stroke="#000000" stroke-width="2" stroke-linejoin="round" stroke-miterlimit="10" d="M18,18
	c0,0-3.0625029,7.9375-2,14"/>
<path fill="none" stroke="#000000" stroke-width="2" stroke-linejoin="round" stroke-miterlimit="10" d="M30,18
	c0,0,2.8124962,6.875,2,13"/>
</svg>
