<?xml version="1.0" encoding="utf-8"?>
<!-- Generator: Adobe Illustrator 18.0.0, SVG Export Plug-In . SVG Version: 6.00 Build 0)  -->
<!DOCTYPE svg PUBLIC "-//W3C//DTD SVG 1.1//EN" "http://www.w3.org/Graphics/SVG/1.1/DTD/svg11.dtd">
<svg version="1.1" id="Layer_1" xmlns="http://www.w3.org/2000/svg" xmlns:xlink="http://www.w3.org/1999/xlink" x="0px" y="0px"
	 viewBox="0 0 48 48" enable-background="new 0 0 48 48" xml:space="preserve">
<path fill="none" stroke="#000000" stroke-width="2" stroke-linecap="round" stroke-linejoin="round" stroke-miterlimit="10" d="
	M15,43c0,1.6568527-1.3431454,3-3,3s-3-1.3431473-3-3v-4c0-5.5737038,5.8286848-10.533865,6-17S11,6,11,6l6-3
	c0,2.4249668,3.1340065,5,7,5"/>
<path fill="none" stroke="#000000" stroke-width="2" stroke-linecap="round" stroke-linejoin="round" stroke-miterlimit="10" d="
	M21,43c0,1.6568527-1.3431454,3-3,3s-3-1.3431473-3-3"/>
<path fill="none" stroke="#000000" stroke-width="2" stroke-linecap="round" stroke-linejoin="round" stroke-miterlimit="10" d="
	M24,46c-1.6568546,0-3-1.3431473-3-3"/>
<path fill="none" stroke="#000000" stroke-width="2" stroke-linecap="round" stroke-linejoin="round" stroke-miterlimit="10" d="
	M33.0598984,43c0,1.6568527,0.8131981,3,2.4700508,3C37.1868057,46,38,44.6568527,38,43v-4
	c0-5.5737038-5.2987366-10.533865-5.4700508-17s4.2649765-16,4.2649765-16L30.927412,3c0,2.4249668-3.0677624,5-6.9337559,5"/>
<path fill="none" stroke="#000000" stroke-width="2" stroke-linecap="round" stroke-linejoin="round" stroke-miterlimit="10" d="
	M27.0598984,43c0,1.6568527,1.3431473,3,3,3c1.6568546,0,3-1.3431473,3-3"/>
<path fill="none" stroke="#000000" stroke-width="2" stroke-linecap="round" stroke-linejoin="round" stroke-miterlimit="10" d="
	M24.0598984,46c1.6568546,0,3-1.3431473,3-3"/>
<path fill="none" stroke="#000000" stroke-width="2" stroke-linecap="round" stroke-linejoin="round" stroke-miterlimit="10" d="
	M15,22c0,0,8.9389114,4.6892433,17,0"/>
</svg>
