<?xml version="1.0" encoding="utf-8"?>
<!-- Generator: Adobe Illustrator 18.0.0, SVG Export Plug-In . SVG Version: 6.00 Build 0)  -->
<!DOCTYPE svg PUBLIC "-//W3C//DTD SVG 1.1//EN" "http://www.w3.org/Graphics/SVG/1.1/DTD/svg11.dtd">
<svg version="1.1" id="Layer_1" xmlns="http://www.w3.org/2000/svg" xmlns:xlink="http://www.w3.org/1999/xlink" x="0px" y="0px"
	 viewBox="0 0 48 48" enable-background="new 0 0 48 48" xml:space="preserve">
<g>
	<path fill="none" stroke="#000000" stroke-width="2" stroke-linecap="round" stroke-linejoin="round" stroke-miterlimit="10" d="
		M29,2.5c0,1.6568542-2.2385769,8-5,8s-5-6.3431458-5-8s2.2385769-2,5-2S29,0.8431457,29,2.5z"/>
</g>
<g>
	<path fill="none" stroke="#000000" stroke-width="2" stroke-linecap="round" stroke-linejoin="round" stroke-miterlimit="10" d="
		M19,2c0,0-3.6875076,0.5-4,3c-0.3125076,2.5,3.3479424,11,9,11"/>
	<path fill="none" stroke="#000000" stroke-width="2" stroke-linecap="round" stroke-linejoin="round" stroke-miterlimit="10" d="
		M25,41c-4,0.125-14.125,0.0625-15-3s0.6874924-15.0625,2-22c1.3124924-6.9375-2-9-2-9s1.3094292-4.1646748,6-4"/>
	<path fill="none" stroke="#000000" stroke-width="2" stroke-linecap="round" stroke-linejoin="round" stroke-miterlimit="10" d="
		M10,7c0,0-7.5484729,13.1872501-8,24c0,0,3.7732882,2.2663612,5,1c0.6573706-0.6786194,1.9641438-12.1739712,4-13"/>
	<path fill="none" stroke="#000000" stroke-width="2" stroke-linecap="round" stroke-linejoin="round" stroke-miterlimit="10" d="
		M2,29c0,0-1.9787517,3.7118187,0,5c3.6007833,2.3441353,8.533865,0.729084,6-3"/>
</g>
<g>
	<path fill="none" stroke="#000000" stroke-width="2" stroke-linecap="round" stroke-linejoin="round" stroke-miterlimit="10" d="
		M29,2c0,0,3.747776,0.5,4.060276,3s-3.3479404,11-8.9999981,11"/>
	<path fill="none" stroke="#000000" stroke-width="2" stroke-linecap="round" stroke-linejoin="round" stroke-miterlimit="10" d="
		M23.0602779,41c4,0.125,14.1249981,0.0625,14.9999981-3s-0.6875-15.0625-2-22s2-9,2-9s-1.3094292-4.1646748-6-4"/>
	<path fill="none" stroke="#000000" stroke-width="2" stroke-linecap="round" stroke-linejoin="round" stroke-miterlimit="10" d="
		M38.060276,7c0,0,7.5484734,13.1872501,8,24c0,0-3.7732849,2.2663612-5,1c-0.6573677-0.6786194-1.9641418-12.1739712-4-13"/>
	<path fill="none" stroke="#000000" stroke-width="2" stroke-linecap="round" stroke-linejoin="round" stroke-miterlimit="10" d="
		M46.060276,29c0,0,1.9787521,3.7118187,0,5c-3.6007805,2.3441353-8.5338631,0.729084-6-3"/>
</g>
<path fill="none" stroke="#000000" stroke-width="2" stroke-linecap="round" stroke-linejoin="round" stroke-miterlimit="10" d="
	M9.5,36c0,0-2.8559098,6.6095619,2.5,8s12,1,12,1s10.9468803-0.273571,14-2s0.5-5.2322311,0.5-7"/>
<polygon fill="none" stroke="#000000" stroke-width="2" stroke-linecap="round" stroke-linejoin="round" stroke-miterlimit="10" points="
	24,21.0912094 25.2700424,25 29.3799877,25 26.0549717,27.5417328 27.325016,31.5135078 24,29.1292343 20.674984,31.5607452 
	21.9450283,27.5338593 18.6200123,25 22.7299576,25 "/>
</svg>
