<?xml version="1.0" encoding="utf-8"?>
<!-- Generator: Adobe Illustrator 18.0.0, SVG Export Plug-In . SVG Version: 6.00 Build 0)  -->
<!DOCTYPE svg PUBLIC "-//W3C//DTD SVG 1.1//EN" "http://www.w3.org/Graphics/SVG/1.1/DTD/svg11.dtd">
<svg version="1.1" id="Layer_1" xmlns="http://www.w3.org/2000/svg" xmlns:xlink="http://www.w3.org/1999/xlink" x="0px" y="0px"
	 viewBox="0 0 48 48" enable-background="new 0 0 48 48" xml:space="preserve">
<path fill="none" stroke="#000000" stroke-width="2" stroke-linecap="round" stroke-linejoin="round" stroke-miterlimit="10" d="
	M24.0242367,6.1434264c-2.7614231,0-5.0121193-2.2890413-5.0121193-5.0504651L12.9091139,3.567729
	c0,0-5.3562837-2.6015935-7.4273329,2.1254983L7.3917661,13H13c0,0-10.90098,5.1075706-10.518219,31.468792
	c0,0,13.6908627,2.4568405,21.518219,2.4568405"/>
<path fill="none" stroke="#000000" stroke-width="2" stroke-linecap="round" stroke-linejoin="round" stroke-miterlimit="10" d="
	M24.2238483,6.1434264c2.7614231,0,5.0121174-2.2890413,5.0121174-5.0504651l6.1030045,2.4747677
	c0,0,5.3562851-2.6015935,7.4273338,2.1254983L40.8563194,13H35.248085c0,0,10.9009781,5.1075706,10.518219,31.468792
	c0,0-13.6908607,2.4568405-21.518219,2.4568405"/>
<path fill="none" stroke="#000000" stroke-width="2" stroke-linecap="round" stroke-linejoin="round" stroke-miterlimit="10" d="
	M9.4903469,45.5817337c0,0-0.3426666-10.7360916,3.0622444-17.9763107"/>
<path fill="none" stroke="#000000" stroke-width="2" stroke-linecap="round" stroke-linejoin="round" stroke-miterlimit="10" d="
	M17.2855244,45.5817337c0,0-0.9183273-10.3061676,1.9873848-16.8546429"/>
<path fill="none" stroke="#000000" stroke-width="2" stroke-linecap="round" stroke-linejoin="round" stroke-miterlimit="10" d="
	M31.5617523,45.929615c0-0.1992035-0.4110222-12.3379822-4.3824692-17.5298805"/>
<path fill="none" stroke="#000000" stroke-width="2" stroke-linecap="round" stroke-linejoin="round" stroke-miterlimit="10" d="
	M39.9282875,44.8007965c0,0-1.7309456-13.3908215-5.3827362-17.5187836"/>
<circle fill="none" stroke="#000000" stroke-width="2" stroke-linecap="round" stroke-linejoin="round" stroke-miterlimit="10" cx="24" cy="18" r="2.564409"/>
<path fill="none" stroke="#000000" stroke-width="2" stroke-linecap="round" stroke-linejoin="round" stroke-miterlimit="10" d="
	M11.5310364,14.017251c0,0,0.8408098,3.1447668,9.9045544,3.982749"/>
<path fill="none" stroke="#000000" stroke-width="2" stroke-linecap="round" stroke-linejoin="round" stroke-miterlimit="10" d="
	M36.7193413,14.017251c0,0-2.8016777,3.5431738-10.154932,3.982749"/>
</svg>
