<?xml version="1.0" encoding="utf-8"?>
<!-- Generator: Adobe Illustrator 18.0.0, SVG Export Plug-In . SVG Version: 6.00 Build 0)  -->
<!DOCTYPE svg PUBLIC "-//W3C//DTD SVG 1.1//EN" "http://www.w3.org/Graphics/SVG/1.1/DTD/svg11.dtd">
<svg version="1.1" id="Layer_1" xmlns="http://www.w3.org/2000/svg" xmlns:xlink="http://www.w3.org/1999/xlink" x="0px" y="0px"
	 viewBox="0 0 48 48" enable-background="new 0 0 48 48" xml:space="preserve">
<path fill="none" stroke="#000000" stroke-width="2" stroke-linecap="round" stroke-linejoin="round" stroke-miterlimit="10" d="
	M18,2c0,0-4.1540508,1.2045152-9,6c0,0,0.6361217,1.8685255,5,3c0,0-0.9783306,2.7468605,2,7
	c4.5391769,6.4820709-6.8154049,12.6573696-6,27c4.5551128,2.6135445,21.4289513-1.0624161,25-6c0,0,1.1487389-5.3492699-2-10
	s-2.2377167-9.0491371-1-11s2.7622833-3.4833994,2-7c0,0,3.325367-0.2257633,5-3c0,0-1.5816727-4.2297478-5-4s-5-1-5-1
	s-1.1673298,4.0796814,2,8c0,0-2.4262943-0.4515276-7,2c0,0-2.5205841-2.6002655-7-2C17,11,19.0969448,5.2815404,18,2z"/>
<circle fill="none" stroke="#000000" stroke-width="2" stroke-linecap="round" stroke-linejoin="round" stroke-miterlimit="10" cx="24" cy="20" r="1"/>
<circle fill="none" stroke="#000000" stroke-width="2" stroke-linecap="round" stroke-linejoin="round" stroke-miterlimit="10" cx="24" cy="25" r="0.5"/>
</svg>
