<?xml version="1.0" encoding="utf-8"?>
<!-- Generator: Adobe Illustrator 18.0.0, SVG Export Plug-In . SVG Version: 6.00 Build 0)  -->
<!DOCTYPE svg PUBLIC "-//W3C//DTD SVG 1.1//EN" "http://www.w3.org/Graphics/SVG/1.1/DTD/svg11.dtd">
<svg version="1.1" id="Layer_1" xmlns="http://www.w3.org/2000/svg" xmlns:xlink="http://www.w3.org/1999/xlink" x="0px" y="0px"
	 viewBox="0 0 48 48" enable-background="new 0 0 48 48" xml:space="preserve">
<g>
	<path fill="none" stroke="#000000" stroke-width="2" stroke-miterlimit="10" d="M33,30v3c0,0.5522842-0.4477158,1-1,1H15
		c-0.5522852,0-1-0.4477158-1-1V15c0-0.5522852,0.4477148-1,1-1h17c0.5522842,0,1,0.4477148,1,1v3"/>
	<path fill="none" stroke="#000000" stroke-width="2" stroke-miterlimit="10" d="M38,18v-4.0000048
		C38,11.238574,35.761425,9,33.0000038,9H13.9999952C11.238574,9,9,11.238574,9,13.9999952V14H3c-1.1045696,0-2,0.8954306-2,2v16
		c0,1.1045685,0.8954304,2,2,2h6v0.0000038C9,36.761425,11.238574,39,13.9999952,39h19.0000076
		C35.761425,39,38,36.761425,38,34.0000038V30"/>
	<path fill="none" stroke="#000000" stroke-width="2" stroke-miterlimit="10" d="M33,18v-3c0-0.5522852-0.4477158-1-1-1H15
		c-0.5522852,0-1,0.4477148-1,1v18c0,0.5522842,0.4477148,1,1,1h17c0.5522842,0,1-0.4477158,1-1v-3"/>
</g>
<path fill="none" stroke="#000000" stroke-width="2" stroke-miterlimit="10" d="M24,20v2h-4v4h4v2c0,1.1045704,0.8954296,2,2,2h16
	c1.1045685,0,2-0.8954296,2-2v-8c0-1.1045704-0.8954315-2-2-2H26C24.8954296,18,24,18.8954296,24,20z"/>
<circle fill="none" stroke="#000000" stroke-width="2" stroke-miterlimit="10" cx="30" cy="24" r="1"/>
<circle fill="none" stroke="#000000" stroke-width="2" stroke-miterlimit="10" cx="36" cy="24" r="1"/>
<line fill="none" stroke="#000000" stroke-width="2" stroke-miterlimit="10" x1="37" y1="14" x2="45" y2="14"/>
<line fill="none" stroke="#000000" stroke-width="2" stroke-miterlimit="10" x1="37" y1="34" x2="45" y2="34"/>
<line fill="none" stroke="#000000" stroke-width="2" stroke-miterlimit="10" x1="19" y1="20" x2="19" y2="28"/>
</svg>
