<?xml version="1.0" encoding="utf-8"?>
<!-- Generator: Adobe Illustrator 18.0.0, SVG Export Plug-In . SVG Version: 6.00 Build 0)  -->
<!DOCTYPE svg PUBLIC "-//W3C//DTD SVG 1.1//EN" "http://www.w3.org/Graphics/SVG/1.1/DTD/svg11.dtd">
<svg version="1.1" id="Layer_1" xmlns="http://www.w3.org/2000/svg" xmlns:xlink="http://www.w3.org/1999/xlink" x="0px" y="0px"
	 viewBox="0 0 48 48" enable-background="new 0 0 48 48" xml:space="preserve">
<path fill="none" stroke="#000000" stroke-width="2" stroke-linejoin="round" stroke-miterlimit="10" d="M24.0473022,17.7293739
	c1.9568424,0.4459534,4.0296326,5.5744133,8.7460327,4.9054832c4.7164001-0.6689281,7.6950607-8.8556204,4.3810425-13.1492567
	C32.0459175,6.9436674,24.0473022,12,24.0473022,12h-0.0132389c0,0-7.9986153-5.0563326-13.1270761-2.5143995
	c-3.0271301,3.9841452-0.3353567,12.5307779,4.3810434,13.199708s6.7891903-4.4847565,8.7460327-4.9307098L24.0473022,17.7293739z"
	/>
<path fill="none" stroke="#000000" stroke-width="2" stroke-linejoin="round" stroke-miterlimit="10" d="M11.6312151,9.4995747
	c0,0,0.7135248-4.6983824,3.6122198-7.6416731"/>
<path fill="none" stroke="#000000" stroke-width="2" stroke-linejoin="round" stroke-miterlimit="10" d="M36.7348099,9.4995747
	c0,0-0.7135277-4.6983824-3.6122208-7.6416731"/>
<path fill="none" stroke="#000000" stroke-width="2" stroke-linejoin="round" stroke-miterlimit="10" d="M13.1660023,33.0644073
	c0,0,9.9048729,3.9218063,21.8261089-0.0839157c0,0,0.8624649,2.3800659-0.0317078,4.239296
	c-0.7498322,1.5591125-5.0928516,3.8648682-7.6109657,6.3377419C26.4314957,44.4589806,25.222517,45,23.9359589,45H23.935955
	c-1.216774,0-2.3822956-0.460701-3.2666569-1.2964287c-1.7098007-1.6157684-4.752923-4.3215027-7.2319727-5.613266
	C11.1925631,35.8286858,13.1660023,33.0644073,13.1660023,33.0644073z"/>
</svg>
