<?xml version="1.0" encoding="utf-8"?>
<!-- Generator: Adobe Illustrator 18.0.0, SVG Export Plug-In . SVG Version: 6.00 Build 0)  -->
<!DOCTYPE svg PUBLIC "-//W3C//DTD SVG 1.1//EN" "http://www.w3.org/Graphics/SVG/1.1/DTD/svg11.dtd">
<svg version="1.1" id="Layer_1" xmlns="http://www.w3.org/2000/svg" xmlns:xlink="http://www.w3.org/1999/xlink" x="0px" y="0px"
	 viewBox="0 0 48 48" enable-background="new 0 0 48 48" xml:space="preserve">
<path fill="none" stroke="#000000" stroke-width="2" stroke-linecap="round" stroke-linejoin="round" stroke-miterlimit="10" d="
	M30,4c0,0.8333335-2.6862907,3-6,3s-6-2.4166665-6-3c0-3.3137085,2.6862907-2,6-2S30,0.6862915,30,4z"/>
<path fill="none" stroke="#000000" stroke-width="2" stroke-linecap="round" stroke-linejoin="round" stroke-miterlimit="10" d="
	M18,3c0,0-4.083333-0.5-4,4c0.0571098,3.083931,6.75,5.666667,10,0"/>
<path fill="none" stroke="#000000" stroke-width="2" stroke-linecap="round" stroke-linejoin="round" stroke-miterlimit="10" d="
	M30.9987411,3c0,0,4.0833321-0.5,4,4c-0.0571098,3.083931-6.75,5.666667-10,0"/>
<g>
	<path fill="none" stroke="#000000" stroke-width="2" stroke-linecap="round" stroke-miterlimit="10" d="M14,6
		c0,0-3.416667,3.666667-6,5S3.75,29.083334,3,31c0,0,3.75,1.6666679,6,1c2.25-0.666666,4-12,4-12"/>
	<path fill="none" stroke="#000000" stroke-width="2" stroke-linecap="round" stroke-miterlimit="10" d="M8,12
		c0,0,6.083333,5.75,6,12s-1.416667,16.5-3,19s7.25,4,13,4"/>
	<path fill="none" stroke="#000000" stroke-width="2" stroke-linecap="round" stroke-miterlimit="10" d="M3,29
		c0,0-2.1666667,2.083334-1,5c0.6380656,1.5951653,2.2878923,1.9209938,4,2c1.7851663,0.0823784,3.74891,0.08564,4.2952566-1.61586
		C10.665019,33.2325783,10.7833834,31.9326,10,31"/>
</g>
<g>
	<path fill="none" stroke="#000000" stroke-width="2" stroke-linecap="round" stroke-miterlimit="10" d="M35,6
		c0,0,3.2441826,3.666667,5.8275185,5c2.5833321,1.333333,4.25,18.083334,5,20c0,0-3.75,1.6666679-6,1c-2.25-0.666666-4-12-4-12"/>
	<path fill="none" stroke="#000000" stroke-width="2" stroke-linecap="round" stroke-miterlimit="10" d="M40.8275185,12
		c0,0-6.0833359,5.75-6,12c0.0833321,6.25,1.4166641,16.5,3,19c1.5833321,2.5-7.25,4-13,4"/>
	<path fill="none" stroke="#000000" stroke-width="2" stroke-linecap="round" stroke-miterlimit="10" d="M45.8275185,29
		c0,0,2.1666641,2.083334,1,5c-0.6380653,1.5951653-2.2878914,1.9209938-4,2
		c-1.7851677,0.0823784-3.748909,0.08564-4.2952576-1.61586C38.1624985,33.2325783,38.044136,31.9326,38.8275185,31"/>
</g>
<line fill="none" stroke="#000000" stroke-width="2" stroke-linecap="round" stroke-miterlimit="10" x1="24" y1="8" x2="24" y2="47"/>
<g>
	<path fill="none" stroke="#000000" stroke-width="2" stroke-linecap="round" stroke-linejoin="round" stroke-miterlimit="10" d="
		M23.2296314,17.5533886l-2.5400009-1.6933346C19.5399513,15.0936012,18,15.917758,18,17.2995014v2.9682674
		c0,1.2860508,1.3534012,2.1224976,2.5036793,1.5473576l2.5400009-1.2699986C23.629776,20.252079,24,19.6530437,24,18.9977684
		v-0.0049343C24,18.4144039,23.7109146,17.8742428,23.2296314,17.5533886z"/>
	<path fill="none" stroke="#000000" stroke-width="2" stroke-linecap="round" stroke-linejoin="round" stroke-miterlimit="10" d="
		M24.7703686,17.5533886l2.5400009-1.6933346C28.4600487,15.0936012,30,15.917758,30,17.2995014v2.9682674
		c0,1.2860508-1.3534012,2.1224976-2.5036793,1.5473576l-2.5400009-1.2699986C24.370224,20.252079,24,19.6530437,24,18.9977684
		v-0.0049343C24,18.4144039,24.2890854,17.8742428,24.7703686,17.5533886z"/>
</g>
<g>
	<path fill="none" stroke="#000000" stroke-width="2" stroke-linecap="round" stroke-linejoin="round" stroke-miterlimit="10" d="
		M23.4864216,27.0355911L21.793087,25.906702C21.0266342,25.3957348,20,25.9451714,20,26.8663349v1.9788437
		c0,0.8573666,0.9022675,1.414999,1.6691189,1.0315723l1.6933346-0.8466663C23.7531834,28.8347187,24,28.4353619,24,27.9985123
		V27.995224C24,27.609602,23.8072758,27.2494965,23.4864216,27.0355911z"/>
	<path fill="none" stroke="#000000" stroke-width="2" stroke-linecap="round" stroke-linejoin="round" stroke-miterlimit="10" d="
		M24.5135784,27.0355911l1.6933346-1.1288891C26.9733658,25.3957348,28,25.9451714,28,26.8663349v1.9788437
		c0,0.8573666-0.9022675,1.414999-1.6691189,1.0315723l-1.6933346-0.8466663C24.2468166,28.8347187,24,28.4353619,24,27.9985123
		V27.995224C24,27.609602,24.1927242,27.2494965,24.5135784,27.0355911z"/>
</g>
<g>
	<path fill="none" stroke="#000000" stroke-width="2" stroke-linecap="round" stroke-linejoin="round" stroke-miterlimit="10" d="
		M23.4864216,36.0355911l-1.6933346-1.1288872C21.0266342,34.3957329,20,34.9451714,20,35.866333v1.9788475
		c0,0.8573647,0.9022675,1.4149971,1.6691189,1.0315704l1.6933346-0.8466644C23.7531834,37.8347206,24,37.4353638,24,36.9985123
		V36.995224C24,36.6096039,23.8072758,36.2494965,23.4864216,36.0355911z"/>
	<path fill="none" stroke="#000000" stroke-width="2" stroke-linecap="round" stroke-linejoin="round" stroke-miterlimit="10" d="
		M24.5135784,36.0355911l1.6933346-1.1288872C26.9733658,34.3957329,28,34.9451714,28,35.866333v1.9788475
		c0,0.8573647-0.9022675,1.4149971-1.6691189,1.0315704l-1.6933346-0.8466644C24.2468166,37.8347206,24,37.4353638,24,36.9985123
		V36.995224C24,36.6096039,24.1927242,36.2494965,24.5135784,36.0355911z"/>
</g>
</svg>
