<?xml version="1.0" encoding="utf-8"?>
<!-- Generator: Adobe Illustrator 18.0.0, SVG Export Plug-In . SVG Version: 6.00 Build 0)  -->
<!DOCTYPE svg PUBLIC "-//W3C//DTD SVG 1.1//EN" "http://www.w3.org/Graphics/SVG/1.1/DTD/svg11.dtd">
<svg version="1.1" id="Layer_1" xmlns="http://www.w3.org/2000/svg" xmlns:xlink="http://www.w3.org/1999/xlink" x="0px" y="0px"
	 viewBox="0 0 48 48" enable-background="new 0 0 48 48" xml:space="preserve">
<path fill="none" stroke="#000000" stroke-width="2" stroke-linecap="round" stroke-linejoin="round" stroke-miterlimit="10" d="
	M17.000412,16.25h-3.1604605c-0.5576515,0-1.009717-0.4520655-1.009717-1.009717v-0.0000019
	c0-0.3623438,0.1941547-0.696907,0.5087576-0.8766804L24,8.271596l10.6610069,6.0920048
	c0.3146057,0.1797733,0.5087585,0.5143366,0.5087585,0.8766804v0.0000019c0,0.5576515-0.4520645,1.009717-1.009716,1.009717
	h-3.1599827"/>
<path fill="none" stroke="#000000" stroke-width="2" stroke-linecap="round" stroke-linejoin="round" stroke-miterlimit="10" d="
	M22.4502335,4.7327023c0-0.9478903,0.8509922-1.6970208,1.8306541-1.5250685
	c0.6233177,0.1094058,1.1347752,0.6208634,1.2441807,1.2441804c0.1028652,0.5860486-0.1238899,1.1260505-0.525631,1.465374
	C24.4040298,6.4200888,24,7.1111293,24,7.8905001V8.271596"/>
<path fill="none" stroke="#000000" stroke-width="2" stroke-linecap="round" stroke-linejoin="round" stroke-miterlimit="10" d="
	M22.5,18l-0.6207409,25.510746c0.0155926,1.0898628,0.9009953,1.9665565,1.9909573,1.9713707l2.2266216,0.0098419
	c1.0316391,0.0045586,1.8974762-0.7763214,1.9991093-1.8029518l2.8335514-27.6230125
	C30.967659,15.4889984,30.5099335,15,29.9316769,15H19.093708c-0.5875854,0-1.0489502,0.4997082-0.9963989,1.08494
	c0.381031,4.243269,1.0687332,18.7328167,1.3648491,23.8527317c0.0553436,0.9569054,0.7809849,1.7340164,1.7310104,1.8612366
	l0.2570648,0.0344238"/>
</svg>
