<?xml version="1.0" encoding="utf-8"?>
<!-- Generator: Adobe Illustrator 18.0.0, SVG Export Plug-In . SVG Version: 6.00 Build 0)  -->
<!DOCTYPE svg PUBLIC "-//W3C//DTD SVG 1.1//EN" "http://www.w3.org/Graphics/SVG/1.1/DTD/svg11.dtd">
<svg version="1.1" id="Layer_1" xmlns="http://www.w3.org/2000/svg" xmlns:xlink="http://www.w3.org/1999/xlink" x="0px" y="0px"
	 viewBox="0 0 48 48" enable-background="new 0 0 48 48" xml:space="preserve">
<path fill="none" stroke="#000000" stroke-width="2" stroke-linecap="round" stroke-linejoin="round" stroke-miterlimit="10" d="
	M19.651001,34.1891479c2.0189762-1.5066948,2.5582695-4.3202972,1.2584476-6.4782715
	c-1.7888031-2.96978-5.4019566-7.1629314-11.731391-7.7204475c-8.4354792-0.743021-7.8990254,7.7937565-6.5886126,11.5300713
	C5.125,38.75,12.4723635,38.4694252,17.4138222,35.638382C18.3128719,35.1233025,19.048748,34.6385918,19.651001,34.1891479z"/>
<path fill="none" stroke="#000000" stroke-width="2" stroke-linecap="round" stroke-linejoin="round" stroke-miterlimit="10" d="
	M28.348999,34.1891479c-2.0189762-1.5066948-2.5582695-4.3202972-1.2584476-6.4782715
	c1.7888031-2.96978,5.4019566-7.1629314,11.73139-7.7204475c8.4354782-0.743021,7.9504814,7.8122025,6.5886116,11.5300713
	C42.625,39.125,35.5276375,38.4694252,30.5861778,35.638382C29.6871281,35.1233025,28.951252,34.6385918,28.348999,34.1891479z"/>
<ellipse fill="none" stroke="#000000" stroke-width="2" stroke-linecap="round" stroke-linejoin="round" stroke-miterlimit="10" cx="24" cy="28" rx="3" ry="0"/>
<path fill="none" stroke="#000000" stroke-width="2" stroke-linecap="round" stroke-linejoin="round" stroke-miterlimit="10" d="
	M28,34c0,0-1.2385769,0-4,0s-4,0-4,0s1.2385769,0,4,0S28,34,28,34z"/>
<line fill="none" stroke="#000000" stroke-width="2" stroke-linecap="round" stroke-linejoin="round" stroke-miterlimit="10" x1="2" y1="24" x2="1" y2="10"/>
<line fill="none" stroke="#000000" stroke-width="2" stroke-linecap="round" stroke-linejoin="round" stroke-miterlimit="10" x1="46" y1="24" x2="47" y2="10"/>
</svg>
