<?xml version="1.0" encoding="utf-8"?>
<!-- Generator: Adobe Illustrator 18.0.0, SVG Export Plug-In . SVG Version: 6.00 Build 0)  -->
<!DOCTYPE svg PUBLIC "-//W3C//DTD SVG 1.1//EN" "http://www.w3.org/Graphics/SVG/1.1/DTD/svg11.dtd">
<svg version="1.1" id="Layer_1" xmlns="http://www.w3.org/2000/svg" xmlns:xlink="http://www.w3.org/1999/xlink" x="0px" y="0px"
	 viewBox="0 0 48 48" enable-background="new 0 0 48 48" xml:space="preserve">
<path fill="none" stroke="#000000" stroke-width="2" stroke-linecap="round" stroke-linejoin="round" stroke-miterlimit="10" d="
	M30,4c0,0.8333335-2.6862907,3-6,3s-6-2.4166665-6-3c0-3.3137085,2.6862907-2,6-2S30,0.6862915,30,4z"/>
<path fill="none" stroke="#000000" stroke-width="2" stroke-linecap="round" stroke-linejoin="round" stroke-miterlimit="10" d="
	M18,3c0,0-4.083333-0.5-4,4c0.0571098,3.083931,6.75,5.666667,10,0"/>
<path fill="none" stroke="#000000" stroke-width="2" stroke-linecap="round" stroke-linejoin="round" stroke-miterlimit="10" d="
	M30.9987411,3c0,0,4.0833321-0.5,4,4c-0.0571098,3.083931-6.75,5.666667-10,0"/>
<path fill="none" stroke="#000000" stroke-width="2" stroke-linecap="round" stroke-miterlimit="10" d="M14,6
	c0,0-3.416667,3.666667-6,5S3.75,29.083334,3,31c0,0,3.75,1.6666679,6,1c2.25-0.666666,4-12,4-12"/>
<path fill="none" stroke="#000000" stroke-width="2" stroke-linecap="round" stroke-miterlimit="10" d="M8,12
	c0,0,6.083333,5.75,6,12s-1.416667,16.5-3,19s7.25,4,13,4"/>
<path fill="none" stroke="#000000" stroke-width="2" stroke-linecap="round" stroke-miterlimit="10" d="M35,6
	c0,0,3.4166679,3.666667,6,5s4.25,18.083334,5,20c0,0-3.75,1.6666679-6,1c-2.25-0.666666-4-12-4-12"/>
<path fill="none" stroke="#000000" stroke-width="2" stroke-linecap="round" stroke-miterlimit="10" d="M41,12
	c0,0-6.0833321,5.75-6,12s1.4166679,16.5,3,19s-7.25,4-13,4"/>
<circle fill="none" stroke="#000000" stroke-width="2" stroke-linecap="round" stroke-miterlimit="10" cx="24" cy="16" r="2"/>
<circle fill="none" stroke="#000000" stroke-width="2" stroke-linecap="round" stroke-miterlimit="10" cx="24" cy="24" r="1"/>
</svg>
