<?xml version="1.0" encoding="utf-8"?>
<!-- Generator: Adobe Illustrator 18.0.0, SVG Export Plug-In . SVG Version: 6.00 Build 0)  -->
<!DOCTYPE svg PUBLIC "-//W3C//DTD SVG 1.1//EN" "http://www.w3.org/Graphics/SVG/1.1/DTD/svg11.dtd">
<svg version="1.1" id="Layer_1" xmlns="http://www.w3.org/2000/svg" xmlns:xlink="http://www.w3.org/1999/xlink" x="0px" y="0px"
	 viewBox="0 0 48 48" enable-background="new 0 0 48 48" xml:space="preserve">
<path fill="none" stroke="#000000" stroke-width="2" stroke-linejoin="round" stroke-miterlimit="10" d="M35,42
	c0,0-4.2897987-6.5617523-3.6204758-13c0.5070171-4.8770332,2.5175858-8.5379353,3.8295746-10.4672832
	c0.7075424-1.0404797,0.9007301-2.3417988,0.5028343-3.5354872L33.3795242,8l-0.8598289-6.0188117
	C32.4392662,1.4181867,31.9570923,1,31.3883743,1h-0.0000019c-0.5763435,0-1.0624943,0.429165-1.1339817,1.0010579L29.3795242,10
	c-0.6982079,1.0667334-1.4886303,1.755291-2.2039204,2.199297C26.2836361,12.7529716,25.2348385,13,24.1849995,13H23.429966
	c-0.4339771,0-0.8668346-0.0400515-1.2891312-0.1400604C21.076292,12.6078329,19.2503624,11.910326,18,10l-0.8748684-7.9989424
	C17.0536461,1.429165,16.5674953,1,15.9911518,1h-0.0000019c-0.568718,0-1.0508909,0.4181867-1.13132,0.9811882L14,8
	l-2.3324099,6.9972296c-0.3978958,1.1936884-0.2047091,2.4950075,0.5028343,3.5354872
	C13.4824152,20.4620647,15.4929819,24.1229668,16,29c0.669323,6.4382477-4,13-4,13s5.6874828,2,11.9999294,2C29.875,44,35,42,35,42z
	"/>
<path fill="none" stroke="#000000" stroke-width="2" stroke-miterlimit="10" d="M27.8548069,20.4547195
	C27.8548069,19.0989914,27.2467594,18,25.8910313,18c-0.5552483,0-1.5648842,1.4114647-1.9637756,1.9637756
	C23.5283642,19.4114647,22.5187283,18,21.96348,18c-1.3557301,0-2.1006107,1.1059132-1.9637756,2.4547195
	c0.2147865,2.1171951,3.9275513,4.4184952,3.9275513,4.4184952S27.8548069,22.5105476,27.8548069,20.4547195z"/>
</svg>
