<?xml version="1.0" encoding="utf-8"?>
<!-- Generator: Adobe Illustrator 18.0.0, SVG Export Plug-In . SVG Version: 6.00 Build 0)  -->
<!DOCTYPE svg PUBLIC "-//W3C//DTD SVG 1.1//EN" "http://www.w3.org/Graphics/SVG/1.1/DTD/svg11.dtd">
<svg version="1.1" id="Layer_1" xmlns="http://www.w3.org/2000/svg" xmlns:xlink="http://www.w3.org/1999/xlink" x="0px" y="0px"
	 viewBox="0 0 48 48" enable-background="new 0 0 48 48" xml:space="preserve">
<g>
	<path fill="none" stroke="#000000" stroke-width="2" stroke-linejoin="round" stroke-miterlimit="10" d="M24,10
		c-3.8659935,0-7-3.134007-7-7c0,0-5.1166372-0.2694077-5,1c1.5830011,17.2284203,0,40,0,40s8.2328167-0.1860161,12,0"/>
	<path fill="none" stroke="#000000" stroke-width="2" stroke-linejoin="round" stroke-miterlimit="10" d="M12,4
		c0,0-4.0292163,6.9548473-7,10l5,5l3-3"/>
</g>
<g>
	<path fill="none" stroke="#000000" stroke-width="2" stroke-linejoin="round" stroke-miterlimit="10" d="M24,10
		c3.8659935,0,7-3.134007,7-7c0,0,5.1166382-0.2694077,5,1c-1.5830002,17.2284203,0,40,0,40s-8.2328167-0.1860161-12,0"/>
	<path fill="none" stroke="#000000" stroke-width="2" stroke-linejoin="round" stroke-miterlimit="10" d="M36,4
		c0,0,4.0292168,6.9548473,7,10l-5,5l-3-3"/>
</g>
</svg>
