<?xml version="1.0" encoding="utf-8"?>
<!-- Generator: Adobe Illustrator 18.0.0, SVG Export Plug-In . SVG Version: 6.00 Build 0)  -->
<!DOCTYPE svg PUBLIC "-//W3C//DTD SVG 1.1//EN" "http://www.w3.org/Graphics/SVG/1.1/DTD/svg11.dtd">
<svg version="1.1" id="Layer_1" xmlns="http://www.w3.org/2000/svg" xmlns:xlink="http://www.w3.org/1999/xlink" x="0px" y="0px"
	 viewBox="0 0 48 48" enable-background="new 0 0 48 48" xml:space="preserve">
<path fill="none" stroke="#000000" stroke-width="2" stroke-linejoin="round" stroke-miterlimit="10" d="M30,4l-3,9l-3-3
	l5.5-6.7814255L40,6c0,0,5.2828674,8.9362555,6,16c0,0-3.0305443,1.8579025-7,3l-2-7c0,0-2.21381,20.0942879,0,26
	c0,0-7.4966793,1.14077-13,1c-5.5033207,0.14077-13-1-13-1c2.2138119-5.9057121,0-26,0-26l-2,7c-3.9694557-1.1420975-7-3-7-3
	C2.7171314,14.9362555,8,6,8,6l10.5-2.7814257L24,10l-3,3l-3-9"/>
<path fill="none" stroke="#000000" stroke-width="2" stroke-linejoin="round" stroke-miterlimit="10" d="M15,19h6v7
	c0,0-2.60425,2.5909691-6,0C14.6314545,25.7187996,15,19,15,19z"/>
<circle fill="none" stroke="#000000" stroke-width="2" stroke-linejoin="round" stroke-miterlimit="10" cx="24" cy="17.2128773" r="0.5"/>
<circle fill="none" stroke="#000000" stroke-width="2" stroke-linejoin="round" stroke-miterlimit="10" cx="24" cy="23.2128773" r="0.5"/>
<circle fill="none" stroke="#000000" stroke-width="2" stroke-linejoin="round" stroke-miterlimit="10" cx="24" cy="29.2128773" r="0.5"/>
<circle fill="none" stroke="#000000" stroke-width="2" stroke-linejoin="round" stroke-miterlimit="10" cx="24" cy="35.2128792" r="0.5"/>
</svg>
