<?xml version="1.0" encoding="utf-8"?>
<!-- Generator: Adobe Illustrator 18.0.0, SVG Export Plug-In . SVG Version: 6.00 Build 0)  -->
<!DOCTYPE svg PUBLIC "-//W3C//DTD SVG 1.1//EN" "http://www.w3.org/Graphics/SVG/1.1/DTD/svg11.dtd">
<svg version="1.1" id="Layer_1" xmlns="http://www.w3.org/2000/svg" xmlns:xlink="http://www.w3.org/1999/xlink" x="0px" y="0px"
	 viewBox="0 0 48 48" enable-background="new 0 0 48 48" xml:space="preserve">
<g>
	<g>
		<g>
			<path fill="none" stroke="#000000" stroke-width="2" stroke-linecap="round" stroke-linejoin="round" stroke-miterlimit="10" d="
				M24.2595673,28c1.3672085,3,2.75,13.125,2.75,13.125c6-0.25,16.9166679-5.8125,16.9166679-5.8125
				c0.827713-9.583334-5.5833359-28.03125-5.5833359-28.03125C34.0095673,8.864583,24.2595673,9,24.2595673,9H24
				c0,0-9.75-0.083333-14.083333-1.6666665c0,0-6.4110489,18.5-5.5833335,28.083334c0,0,10.916666,5.4583321,16.916666,5.7083321
				c0,0,1.3827915-10.125,2.75-13.125H24.2595673z"/>
		</g>
	</g>
	<path fill="none" stroke="#000000" stroke-width="2" stroke-linecap="round" stroke-linejoin="round" stroke-miterlimit="10" d="
		M39.1297836,13.2097473C34.5565414,14.8807383,24.2667522,15,24.2667522,15H23.992815
		c0,0-10.2897911-0.0761204-14.8630314-1.7471123"/>
	
		<polyline fill="none" stroke="#000000" stroke-width="2" stroke-linecap="round" stroke-linejoin="round" stroke-miterlimit="10" points="
		41.4166679,20 36.75,22 38.75,30 43.7732162,29.6641712 	"/>
	
		<polyline fill="none" stroke="#000000" stroke-width="2" stroke-linecap="round" stroke-linejoin="round" stroke-miterlimit="10" points="
		7.1065507,20 11.7732172,22 9.7732172,30 4.75,29.6641712 	"/>
	
		<line fill="none" stroke="#000000" stroke-width="2" stroke-linecap="round" stroke-linejoin="round" stroke-miterlimit="10" x1="24" y1="15" x2="24" y2="21"/>
</g>
</svg>
