<?xml version="1.0" encoding="utf-8"?>
<!-- Generator: Adobe Illustrator 18.0.0, SVG Export Plug-In . SVG Version: 6.00 Build 0)  -->
<!DOCTYPE svg PUBLIC "-//W3C//DTD SVG 1.1//EN" "http://www.w3.org/Graphics/SVG/1.1/DTD/svg11.dtd">
<svg version="1.1" id="Layer_1" xmlns="http://www.w3.org/2000/svg" xmlns:xlink="http://www.w3.org/1999/xlink" x="0px" y="0px"
	 viewBox="0 0 48 48" enable-background="new 0 0 48 48" xml:space="preserve">
<g>
	<path fill="none" stroke="#000000" stroke-width="2" stroke-linecap="round" stroke-linejoin="round" stroke-miterlimit="10" d="
		M23,19.5134678c0,0-8.8328447-0.4301338-8.8328447-13.5134678c0-0.9999981,0.0828447-2.4927166,0.0828447-2.4927166
		l-3.8601923-2.0729399l0.011816,12.2473669c0,0-0.4016237,4.0273466-3.4016237,5.5271654V46.5
		c0,0,11.8171749-0.0720901,16-7.9415054V19.5134678z"/>
	
		<line fill="none" stroke="#000000" stroke-width="2" stroke-linecap="round" stroke-linejoin="round" stroke-miterlimit="10" x1="17.8024845" y1="34.9277992" x2="12.0402184" y2="38.5739479"/>
	
		<line fill="none" stroke="#000000" stroke-width="2" stroke-linecap="round" stroke-linejoin="round" stroke-miterlimit="10" x1="23" y1="30" x2="20" y2="30"/>
	
		<line fill="none" stroke="#000000" stroke-width="2" stroke-linecap="round" stroke-linejoin="round" stroke-miterlimit="10" x1="23" y1="25" x2="20" y2="25"/>
</g>
<g>
	<path fill="none" stroke="#000000" stroke-width="2" stroke-linecap="round" stroke-linejoin="round" stroke-miterlimit="10" d="
		M25,19.5134678c0,0,8.8328438-0.4301338,8.8328438-13.5134678c0-0.9999981-0.0828438-2.4927166-0.0828438-2.4927166
		l3.8601913-2.0729399l-0.0118141,12.2473669c0,0,0.4016228,4.0273466,3.4016228,5.5271654V46.5
		c0,0-11.8171749-0.0720901-16-7.9415054V19.5134678z"/>
	
		<line fill="none" stroke="#000000" stroke-width="2" stroke-linecap="round" stroke-linejoin="round" stroke-miterlimit="10" x1="30.1975155" y1="34.9277992" x2="35.9597816" y2="38.5739479"/>
	
		<line fill="none" stroke="#000000" stroke-width="2" stroke-linecap="round" stroke-linejoin="round" stroke-miterlimit="10" x1="25" y1="30" x2="28" y2="30"/>
	
		<line fill="none" stroke="#000000" stroke-width="2" stroke-linecap="round" stroke-linejoin="round" stroke-miterlimit="10" x1="25" y1="25" x2="28" y2="25"/>
</g>
<path fill="none" stroke="#000000" stroke-width="2" stroke-linecap="round" stroke-linejoin="round" stroke-miterlimit="10" d="
	M14.2038832,4.5c0,0,1.5461168,6.666667,9.7961168,6.666667C28.583334,11.166667,33.2961159,9,33.7961159,4.5"/>
</svg>
