<?xml version="1.0" encoding="utf-8"?>
<!-- Generator: Adobe Illustrator 18.0.0, SVG Export Plug-In . SVG Version: 6.00 Build 0)  -->
<!DOCTYPE svg PUBLIC "-//W3C//DTD SVG 1.1//EN" "http://www.w3.org/Graphics/SVG/1.1/DTD/svg11.dtd">
<svg version="1.1" id="Layer_1" xmlns="http://www.w3.org/2000/svg" xmlns:xlink="http://www.w3.org/1999/xlink" x="0px" y="0px"
	 viewBox="0 0 48 48" enable-background="new 0 0 48 48" xml:space="preserve">
<path fill="none" stroke="#000000" stroke-width="2" stroke-linejoin="round" stroke-miterlimit="10" d="M23.7938614,46.5
	c1.193676,0,2.1972694-2.0436516,3.3732624-2.2656898c1.175993-0.2220421,2.9001789,1.3060493,4.0231228,0.8619652
	c1.1229439-0.4440804,1.2837334-2.7167244,2.3182602-3.3828468s3.2741051,0.0601273,4.1848488-0.8280334
	c0,0,1.4338379-5.1030807-1.8994942-10.6292439c-3.3333359-5.5261612-2.1666679-9.7520504,0-13.6528702
	c2.1666641-3.9008207-2-8.7768459-2-8.7768459l-0.8598328-5.869576C32.8536034,1.4078177,32.3714294,1,31.8027115,1h-0.0000019
	c-0.5763435,0-1.0624943,0.4185239-1.1339817,0.9762366l-0.8748665,7.8006096
	C28.5434971,11.6398058,26.458334,12.6196222,24,12.6196222c-2.291666,0-4.7496376-0.9798164-6-2.8427763l-0.8748684-7.8006096
	C17.0536461,1.4185239,16.5674953,1,15.9911518,1h-0.0000019c-0.568718,0-1.0508909,0.4078177-1.13132,0.9568597L14,7.8264356
	c0,0-4.166667,4.8760247-2,8.7768459s3.333333,8.126709,0,13.6528702s-1.8994942,10.6292439-1.8994942,10.6292439
	c0.9107447,0.8881607,3.1503229,0.161911,4.1848497,0.8280334s1.1953154,2.9387665,2.3182592,3.3828468
	c1.1229439,0.4440842,2.8471279-1.0840073,4.0231209-0.8619652C21.8027287,44.4563484,22.806324,46.5,24,46.5"/>
<path fill="none" stroke="#000000" stroke-width="2" stroke-linejoin="round" stroke-miterlimit="10" d="M36.7938614,34.1280746
	c0,0-5.833334,3.8719254-13,3.8719254H24c-7.166666,0-13-3.8863716-13-3.8863716"/>
<path fill="none" stroke="#000000" stroke-width="2" stroke-linecap="round" stroke-linejoin="round" stroke-miterlimit="10" d="
	M33.8969307,20.586504c0,0-2.5847721,3.9848881-9.9005661,2.3770218l0,0
	c-7.3157959,1.6078663-10.0994339-2.3770218-10.0994339-2.3770218"/>
</svg>
