<?xml version="1.0" encoding="utf-8"?>
<!-- Generator: Adobe Illustrator 18.0.0, SVG Export Plug-In . SVG Version: 6.00 Build 0)  -->
<!DOCTYPE svg PUBLIC "-//W3C//DTD SVG 1.1//EN" "http://www.w3.org/Graphics/SVG/1.1/DTD/svg11.dtd">
<svg version="1.1" id="Layer_1" xmlns="http://www.w3.org/2000/svg" xmlns:xlink="http://www.w3.org/1999/xlink" x="0px" y="0px"
	 viewBox="0 0 48 48" enable-background="new 0 0 48 48" xml:space="preserve">
<g>
	<path fill="none" stroke="#000000" stroke-width="2" stroke-linecap="round" stroke-linejoin="round" stroke-miterlimit="10" d="
		M19,2c0,2.7614236,2.2385769,9,5,9s5-6.2385764,5-9c0,0-2.416666,2-5,2C21.583334,4,19,2,19,2z"/>
	<path fill="none" stroke="#000000" stroke-width="2" stroke-linecap="round" stroke-linejoin="round" stroke-miterlimit="10" d="
		M19,2c0,0-3.666667,1.1666667-6,3c0,0-2.333333-1.8333333-5,0s-1.75,4.833333-3,6s-2,1-2,1l4,6l2-1c0,0,4.416667-0.833334,5,1
		s-0.833333,14-8,22c0,0,2.166667,3.5833321,6,3"/>
	<path fill="none" stroke="#000000" stroke-width="2" stroke-linecap="round" stroke-linejoin="round" stroke-miterlimit="10" d="
		M16,30l-4,14c0,0,2.916667,1.5,6,1l2-12"/>
	<path fill="none" stroke="#000000" stroke-width="2" stroke-linecap="round" stroke-linejoin="round" stroke-miterlimit="10" d="
		M18,45c0,0,3.833334,1.9166679,5.75,1"/>
	<path fill="none" stroke="#000000" stroke-width="2" stroke-linecap="round" stroke-linejoin="round" stroke-miterlimit="10" d="
		M29.375,2c0,0,3.6666679,1.1666667,6,3c0,0,2.3333321-1.8333333,5,0s1.75,4.833333,3,6s2,1,2,1l-4,6l-2-1
		c0,0-4.4166679-0.833334-5,1s0.8333321,14,8,22c0,0-2.1666679,3.5833321-6,3"/>
	<path fill="none" stroke="#000000" stroke-width="2" stroke-linecap="round" stroke-linejoin="round" stroke-miterlimit="10" d="
		M32.375,30l4,14c0,0-2.9166679,1.5-6,1l-2-12"/>
	<path fill="none" stroke="#000000" stroke-width="2" stroke-linecap="round" stroke-linejoin="round" stroke-miterlimit="10" d="
		M30.375,45c0,0-3.833334,1.9166679-5.75,1"/>
	
		<line fill="none" stroke="#000000" stroke-width="2" stroke-linecap="round" stroke-linejoin="round" stroke-miterlimit="10" x1="24" y1="46" x2="24" y2="36"/>
	<path fill="none" stroke="#000000" stroke-width="2" stroke-linecap="round" stroke-linejoin="round" stroke-miterlimit="10" d="
		M34,19c-0.3333321,0.083334-8.333334,3.833334-20,0"/>
	
		<line fill="none" stroke="#000000" stroke-width="2" stroke-linecap="round" stroke-linejoin="round" stroke-miterlimit="10" x1="5" y1="11" x2="9" y2="17"/>
	
		<line fill="none" stroke="#000000" stroke-width="2" stroke-linecap="round" stroke-linejoin="round" stroke-miterlimit="10" x1="43" y1="11" x2="39" y2="17"/>
</g>
</svg>
