<?xml version="1.0" encoding="utf-8"?>
<!-- Generator: Adobe Illustrator 18.0.0, SVG Export Plug-In . SVG Version: 6.00 Build 0)  -->
<!DOCTYPE svg PUBLIC "-//W3C//DTD SVG 1.1//EN" "http://www.w3.org/Graphics/SVG/1.1/DTD/svg11.dtd">
<svg version="1.1" id="Layer_1" xmlns="http://www.w3.org/2000/svg" xmlns:xlink="http://www.w3.org/1999/xlink" x="0px" y="0px"
	 viewBox="0 0 48 48" enable-background="new 0 0 48 48" xml:space="preserve">
<path fill="none" stroke="#000000" stroke-width="2" stroke-linecap="round" stroke-linejoin="round" stroke-miterlimit="10" d="
	M29.5261326,16.7693787c0,0-0.6243534,5.0864353,4.495348,4.7561474s8.9861603-3.1707649,8.9861603-3.1707649
	S46,22.7145615,46,29.4524384V35H32l-1-3.1694889c0,0-9.0408401,3.1047077-15.721426,3.1707668
	C8.5979872,35.0673332,3.0275793,35.2089577,1.798676,32.6232033C0.75,30.416666,3.612375,27.9991703,12.2908936,26.2816734
	C20.9694118,24.5641747,22.4709339,17.7602425,29.5261326,16.7693787z"/>
<path fill="none" stroke="#000000" stroke-width="2" stroke-linecap="round" stroke-linejoin="round" stroke-miterlimit="10" d="
	M14.5416403,26.2816734c0,0-2.5598507,5.0864353,0.7492247,8.7196045"/>
<line fill="none" stroke="#000000" stroke-width="2" stroke-linecap="round" stroke-linejoin="round" stroke-miterlimit="10" x1="31" y1="32" x2="46.0090752" y2="31.0378208"/>
<path fill="none" stroke="#000000" stroke-width="2" stroke-linecap="round" stroke-linejoin="round" stroke-miterlimit="10" d="
	M25.0307865,19.1474514c0,0-0.437048,1.5193253,1.4984493,3.1707649"/>
<path fill="none" stroke="#000000" stroke-width="2" stroke-linecap="round" stroke-linejoin="round" stroke-miterlimit="10" d="
	M22,21c0,0-0.4031601,1.2521591,1.5323372,2.9035988"/>
<path fill="none" stroke="#000000" stroke-width="2" stroke-linecap="round" stroke-linejoin="round" stroke-miterlimit="10" d="
	M19.0369892,23.9035988c0,0-0.1203232,1.0547352,1.4984493,2.3780746"/>
</svg>
