<?xml version="1.0" encoding="utf-8"?>
<!-- Generator: Adobe Illustrator 18.0.0, SVG Export Plug-In . SVG Version: 6.00 Build 0)  -->
<!DOCTYPE svg PUBLIC "-//W3C//DTD SVG 1.1//EN" "http://www.w3.org/Graphics/SVG/1.1/DTD/svg11.dtd">
<svg version="1.1" id="Layer_1" xmlns="http://www.w3.org/2000/svg" xmlns:xlink="http://www.w3.org/1999/xlink" x="0px" y="0px"
	 viewBox="0 0 48 48" enable-background="new 0 0 48 48" xml:space="preserve">
<g>
	<path fill="none" stroke="#000000" stroke-width="2" stroke-linejoin="round" stroke-miterlimit="10" d="M24.0499763,18.4034462
		c1.8640976,0.4248161,3.8386478,5.3102131,8.3315125,4.672987s7.3303528-8.4087152,4.1734047-12.4988537
		C31.6694965,8.1561222,24.0499763,13,24.0499763,13H24.037365c0,0-7.6195183-4.8438778-12.5049152-2.4224205
		c-2.8836584,3.7953157-0.3194628,11.9232845,4.1734028,12.5605087c4.4928646,0.6372261,6.4674149-4.2789974,8.3315125-4.7038155
		L24.0499763,18.4034462z"/>
	<path fill="none" stroke="#000000" stroke-width="2" stroke-linejoin="round" stroke-miterlimit="10" d="M12.222353,10.5636997
		c0,0,0.6797066-4.4757009,3.4410181-7.2794938"/>
	<path fill="none" stroke="#000000" stroke-width="2" stroke-linejoin="round" stroke-miterlimit="10" d="M36.1361542,10.5636997
		c0,0-0.6797066-4.4757009-3.4410172-7.2794938"/>
</g>
<path fill="none" stroke="#000000" stroke-width="2" stroke-linejoin="round" stroke-miterlimit="10" d="M12.222353,20.7491302
	c0,0,5.0810928,6.0974045,4.4078197,12.7502747C15.9569006,40.1522751,13.6125355,41.0782967,13.3927517,46"/>
<path fill="none" stroke="#000000" stroke-width="2" stroke-linejoin="round" stroke-miterlimit="10" d="M35.3088112,21.4843941
	c0,0-4.9418907,5.3621407-4.2686176,12.0150108S34.0578308,41.0782967,34.2776146,46"/>
<circle fill="none" stroke="#000000" stroke-width="2" stroke-linejoin="round" stroke-miterlimit="10" cx="23.9892578" cy="43.793396" r="0.5516585"/>
</svg>
