<?xml version="1.0" encoding="utf-8"?>
<!-- Generator: Adobe Illustrator 18.0.0, SVG Export Plug-In . SVG Version: 6.00 Build 0)  -->
<!DOCTYPE svg PUBLIC "-//W3C//DTD SVG 1.1//EN" "http://www.w3.org/Graphics/SVG/1.1/DTD/svg11.dtd">
<svg version="1.1" id="Layer_1" xmlns="http://www.w3.org/2000/svg" xmlns:xlink="http://www.w3.org/1999/xlink" x="0px" y="0px"
	 viewBox="0 0 48 48" enable-background="new 0 0 48 48" xml:space="preserve">
<path fill="none" stroke="#000000" stroke-width="2" stroke-linecap="round" stroke-linejoin="round" stroke-miterlimit="10" d="
	M35,46H13c-2.2091389,0-4-1.7908592-4-4V20.9999847C9,12.7157221,15.7157221,6,23.9999847,6h0.0000305
	C32.2842789,6,39,12.7157221,39,20.9999847V42C39,44.2091408,37.2091408,46,35,46z"/>
<path fill="none" stroke="#000000" stroke-width="2" stroke-linecap="round" stroke-linejoin="round" stroke-miterlimit="10" d="
	M19,6c0-2.7614238,2.2385769-5,5-5s5,2.2385762,5,5"/>
<path fill="none" stroke="#000000" stroke-width="2" stroke-linecap="round" stroke-linejoin="round" stroke-miterlimit="10" d="
	M31,42H17c-2.2091389,0-4-1.7908592-4-4v-7c0-2.2091389,1.7908611-4,4-4h14c2.2091408,0,4,1.7908611,4,4v7
	C35,40.2091408,33.2091408,42,31,42z"/>
<line fill="none" stroke="#000000" stroke-width="2" stroke-linecap="round" stroke-linejoin="round" stroke-miterlimit="10" x1="17" y1="31" x2="31" y2="31"/>
<path fill="none" stroke="#000000" stroke-width="2" stroke-linecap="round" stroke-linejoin="round" stroke-miterlimit="10" d="
	M15,21v-2.3435268C15,15.5324888,17.5324898,13,20.6564732,13h6.6870537C30.4675102,13,33,15.5324888,33,18.6564732V21"/>
</svg>
