<?xml version="1.0" encoding="utf-8"?>
<!-- Generator: Adobe Illustrator 18.0.0, SVG Export Plug-In . SVG Version: 6.00 Build 0)  -->
<!DOCTYPE svg PUBLIC "-//W3C//DTD SVG 1.1//EN" "http://www.w3.org/Graphics/SVG/1.1/DTD/svg11.dtd">
<svg version="1.1" id="Layer_1" xmlns="http://www.w3.org/2000/svg" xmlns:xlink="http://www.w3.org/1999/xlink" x="0px" y="0px"
	 viewBox="0 0 48 48" enable-background="new 0 0 48 48" xml:space="preserve">
<g>
	<path fill="none" stroke="#000000" stroke-width="2" stroke-linejoin="round" stroke-miterlimit="10" d="M24,45
		c0-5.1009293,15-7.7490044,15-7.7490044c-0.2276039-8.6553669-9.5617523-11.2961483-3.0544472-19.330677
		S35.6676407,4.9140201,32.6215134,5.8612218C27.083334,7.5833335,24,12.6746349,24,12.6746349
		s-3.6522484-4.8186359-8.2377157-6.8134131c-2.8704815-1.2487216-9.8313408,4.0375161-3.3240376,12.0720463
		S9.6114035,28.6021023,9.3837986,37.2574692C9.3837986,37.2574692,24,39.8990707,24,45z"/>
	
		<circle fill="none" stroke="#000000" stroke-width="2" stroke-linejoin="round" stroke-miterlimit="10" cx="24" cy="19.1899109" r="0.5"/>
	
		<circle fill="none" stroke="#000000" stroke-width="2" stroke-linejoin="round" stroke-miterlimit="10" cx="24" cy="24.1899109" r="0.5"/>
	<path fill="none" stroke="#000000" stroke-width="2" stroke-linecap="round" stroke-linejoin="round" stroke-miterlimit="10" d="
		M12.916667,6c0,0-1-1.3333335-0.416667-4.1666665"/>
	<path fill="none" stroke="#000000" stroke-width="2" stroke-linecap="round" stroke-linejoin="round" stroke-miterlimit="10" d="
		M34.8333321,5.8409657c0,0,0.75-2.5076325,0.4166679-4.0076323"/>
</g>
</svg>
