<?xml version="1.0" encoding="utf-8"?>
<!-- Generator: Adobe Illustrator 18.0.0, SVG Export Plug-In . SVG Version: 6.00 Build 0)  -->
<!DOCTYPE svg PUBLIC "-//W3C//DTD SVG 1.1//EN" "http://www.w3.org/Graphics/SVG/1.1/DTD/svg11.dtd">
<svg version="1.1" id="Layer_1" xmlns="http://www.w3.org/2000/svg" xmlns:xlink="http://www.w3.org/1999/xlink" x="0px" y="0px"
	 viewBox="0 0 48 48" enable-background="new 0 0 48 48" xml:space="preserve">
<path fill="none" stroke="#000000" stroke-width="2" stroke-linecap="round" stroke-linejoin="round" stroke-miterlimit="10" d="
	M40.3846169,47H6.6153846c-2.2091389,0-4-1.7908592-4-4V31.7742634c0-9.6040363,7.7856107-17.3896484,17.3896484-17.3896484
	h6.989933c9.6040363,0,17.3896503,7.7856121,17.3896503,17.3896484V43C44.3846169,45.2091408,42.5937538,47,40.3846169,47z"/>
<line fill="none" stroke="#000000" stroke-width="2" stroke-linecap="round" stroke-linejoin="round" stroke-miterlimit="10" x1="3" y1="41" x2="44" y2="41"/>
<path fill="none" stroke="#000000" stroke-width="2" stroke-linecap="round" stroke-linejoin="round" stroke-miterlimit="10" d="
	M4.6153846,27.0769234c0,0,6.4871793,0,9.3076916,5.0769234c2.3786678,4.281601,1.6923084,8.4615364,1.6923084,8.4615364"/>
<path fill="none" stroke="#000000" stroke-width="2" stroke-linecap="round" stroke-linejoin="round" stroke-miterlimit="10" d="
	M43.6303635,27.0769234c0,0-6.4871788,0-9.3076897,5.0769234c-2.3786697,4.281601-1.6923103,8.4615364-1.6923103,8.4615364"/>
<path fill="none" stroke="#000000" stroke-width="2" stroke-linecap="round" stroke-linejoin="round" stroke-miterlimit="10" d="
	M14,15.3929768C14,8.3490372,18.5288124,2,24.1153851,2s10.1153851,6.3490372,10.1153851,13.3929768"/>
<path fill="none" stroke="#000000" stroke-width="2" stroke-linecap="round" stroke-linejoin="round" stroke-miterlimit="10" d="
	M35.3525658,16.9230766v0.0000095c0,5.2840557-4.2835751,9.5676308-9.5676308,9.5676308h-3.986536
	c-5.2840557,0-9.5676298-4.2835751-9.5676298-9.5676308v-0.0000095"/>
<circle fill="none" stroke="#000000" stroke-width="2" stroke-linecap="round" stroke-linejoin="round" stroke-miterlimit="10" cx="24" cy="20" r="2"/>
</svg>
