<?xml version="1.0" encoding="utf-8"?>
<!-- Generator: Adobe Illustrator 18.0.0, SVG Export Plug-In . SVG Version: 6.00 Build 0)  -->
<!DOCTYPE svg PUBLIC "-//W3C//DTD SVG 1.1//EN" "http://www.w3.org/Graphics/SVG/1.1/DTD/svg11.dtd">
<svg version="1.1" id="Layer_1" xmlns="http://www.w3.org/2000/svg" xmlns:xlink="http://www.w3.org/1999/xlink" x="0px" y="0px"
	 viewBox="0 0 48 48" enable-background="new 0 0 48 48" xml:space="preserve">
<path fill="none" stroke="#000000" stroke-width="2" stroke-linecap="round" stroke-linejoin="round" stroke-miterlimit="10" d="
	M38.5016136,43h-7.4950562c-2.1348057,0-4.0341339-1.6045837-4.7282925-3.6233826l-0.0719452-0.2131729
	c-0.6787071-2.0109749-3.5434456-1.951088-4.137516,0.0864906l-0.0000019,0.0000076
	C21.4342937,41.3648148,19.4877033,43,17.2796993,43H9.4983854C7.5742736,43,6,41.4257278,6,39.5016136L8,9
	c0-1.1045694,0.8954306-2,2-2h28c1.1045685,0,2,0.8954306,2,2l2,30.5016136C42,41.4257278,40.4257278,43,38.5016136,43z"/>
<polyline fill="none" stroke="#000000" stroke-width="2" stroke-linecap="round" stroke-linejoin="round" stroke-miterlimit="10" points="
	8,11 26.1877766,11 40,11 "/>
<path fill="none" stroke="#000000" stroke-width="2" stroke-linecap="round" stroke-linejoin="round" stroke-miterlimit="10" d="
	M26,11.875c0,0,1.25,14.6875-2,15.8125"/>
<path fill="none" stroke="#000000" stroke-width="2" stroke-linecap="round" stroke-linejoin="round" stroke-miterlimit="10" d="
	M7,27h4c0,0,1.25,7.5-4.875,9"/>
<path fill="none" stroke="#000000" stroke-width="2" stroke-linecap="round" stroke-linejoin="round" stroke-miterlimit="10" d="
	M41,27h-3.8949814c0,0-1.3025093,7.5,4.8224907,9"/>
</svg>
