<?xml version="1.0" encoding="utf-8"?>
<!-- Generator: Adobe Illustrator 18.0.0, SVG Export Plug-In . SVG Version: 6.00 Build 0)  -->
<!DOCTYPE svg PUBLIC "-//W3C//DTD SVG 1.1//EN" "http://www.w3.org/Graphics/SVG/1.1/DTD/svg11.dtd">
<svg version="1.1" xmlns="http://www.w3.org/2000/svg" xmlns:xlink="http://www.w3.org/1999/xlink" x="0px" y="0px"
	 viewBox="0 0 48 48" enable-background="new 0 0 48 48" xml:space="preserve">
<g id="Layer_1">
</g>
<g id="maximaize">
</g>
<g id="minimize">
</g>
<g id="close-move">
</g>
<g id="blend-move">
</g>
<g id="compress">
</g>
<g id="expand-middle">
</g>
<g id="expand-l">
</g>
<g id="expand-corner-r_1_">
</g>
<g id="align-b-p">
</g>
<g id="align-even">
</g>
<g id="align-t-p">
</g>
<g id="align-b">
</g>
<g id="align-m">
</g>
<g id="align-t">
</g>
<g id="align-r">
</g>
<g id="align-c">
</g>
<g id="align-l_1_">
</g>
<g id="printer">
</g>
<g id="book">
</g>
<g id="seal">
</g>
<g id="books">
</g>
<g id="angle">
</g>
<g id="crop-fill">
</g>
<g id="crop">
</g>
<g id="shear-r">
</g>
<g id="shear-l">
</g>
<g id="trash">
</g>
<g id="square">
</g>
<g id="polygon">
</g>
<g id="wave">
</g>
<g id="triangle">
</g>
<g id="drop">
</g>
<g id="star">
</g>
<g id="ellipse">
</g>
<g id="node">
</g>
<g id="spiral">
</g>
<g id="send">
</g>
<g id="_x35_-square">
</g>
<g id="_x32_-square-d">
</g>
<g id="square-c">
</g>
<g id="_x32_-square-l">
</g>
<g id="_x32_-square-r">
</g>
<g id="_x33_-square-b">
</g>
<g id="_x33_-square-v">
</g>
<g id="_x33_-square-h">
</g>
<g id="_x34_-square">
</g>
<g id="_x32_-square">
</g>
<g id="tri-cylindrical">
</g>
<g id="cylindrical-angle_2_">
</g>
<g id="cylindrical-angle">
</g>
<g id="square-frame">
</g>
<g id="lineframe">
</g>
<g id="outline">
</g>
<g id="square-3d">
</g>
<g id="rectangular-3d">
</g>
<g id="circle-3d">
</g>
<g id="_x33_d">
</g>
<g id="indent-left">
</g>
<g id="indent-right">
</g>
<g id="indent-inside">
</g>
<g id="indent-both">
</g>
<g id="rotate-r">
</g>
<g id="rotate">
</g>
<g id="brush-pencil">
</g>
<g id="large-brush">
	<g id="large-brush_1_">
		<path fill="none" stroke="#000000" stroke-width="2" stroke-linecap="round" stroke-linejoin="round" stroke-miterlimit="10" d="
			M14.1365023,17.1354561c0,0,7.2141294,3.1880054,4.4952402,8.3542099s1.3022957,5.0897522,1.6680832,8.439045
			c0.3657894,3.3492928-2.6574821,5.7391472-2.6574821,5.7391472"/>
		
			<line fill="none" stroke="#000000" stroke-width="2" stroke-linecap="round" stroke-linejoin="round" stroke-miterlimit="10" x1="28.7812901" y1="33.6742058" x2="20.5543346" y2="42.4101753"/>
		
			<line fill="none" stroke="#000000" stroke-width="2" stroke-linecap="round" stroke-linejoin="round" stroke-miterlimit="10" x1="25.8692989" y1="30.9318848" x2="18.3279228" y2="38.9398575"/>
		
			<line fill="none" stroke="#000000" stroke-width="2" stroke-linecap="round" stroke-linejoin="round" stroke-miterlimit="10" x1="22.9573097" y1="28.1895657" x2="20.2149906" y2="31.1015568"/>
		
			<line fill="none" stroke="#000000" stroke-width="2" stroke-linecap="round" stroke-linejoin="round" stroke-miterlimit="10" x1="20.7733173" y1="26.1328278" x2="18.7165775" y2="28.3168201"/>
		<path fill="none" stroke="#000000" stroke-width="2" stroke-linecap="round" stroke-linejoin="round" stroke-miterlimit="10" d="
			M32.9559135,23.869276l0.4971809,0.4682121c2.8144341,2.6504478,2.9473724,7.0806084,0.2969246,9.8950405L23.4663239,45.1524925
			l-6.5520229-6.1702576c0,0-2.8426399-0.8829575-5.9181185-2.3251686
			c-1.2621298-0.5918617-2.7099791-0.1970253-3.6581182,0.8248901c-0.0060987,0.0065727-0.0122275,0.0131302-0.0183873,0.0196686
			c-1.3252139,1.4072075-3.4893923,1.5216331-4.8337708,0.2555847c-1.3443782-1.2660446-1.3599272-3.4331894-0.034713-4.8403969
			c0.4953549-0.5260048,1.1079772-0.8708115,1.7511842-1.0309582c-1.0104644-1.4279652-1.1529839-2.9773121,0.3360095-4.5584316
			l10.2836952-10.9199657c2.6504459-2.8144331,7.0806065-2.9473715,9.8950405-0.2969246l0.4972324,0.4682598
			c0.4817581,0.4536877,1.2634144,0.322731,1.5709972-0.2632008l2.3423424-4.46206
			c0.255621-0.5520439,0.6337929-1.0385094,1.1057415-1.4223824l8.3055992-6.7555914
			c1.555294-1.2650409,3.8068352-1.1833253,5.2663307,0.1911321l0.3624954,0.3413737l0.3624954,0.3413734
			c1.4594955,1.3744574,1.6760712,3.6170459,0.5065613,5.2453942l-6.2454224,8.6957273
			c-0.3548851,0.4941177-0.8177986,0.9007778-1.3535233,1.1890411l-4.3135452,2.6057301
			C32.5580025,22.6274967,32.4741592,23.4155922,32.9559135,23.869276z"/>
	</g>
</g>
<g id="designpalet">
</g>
<g id="paint">
</g>
<g id="round-brush">
</g>
<g id="flatbrush">
</g>
<g id="knife">
</g>
<g id="picker">
</g>
<g id="eye-droper">
</g>
<g id="sketch-pen">
</g>
<g id="pencil">
</g>
<g id="bold-pen">
</g>
<g id="pen">
</g>
<g id="tools">
</g>
<g id="scale_1_">
</g>
<g id="hide">
</g>
<g id="holding">
</g>
<g id="bounding">
</g>
<g id="type">
</g>
<g id="text-edit">
</g>
<g id="decrease-heght">
</g>
<g id="increase-heght">
</g>
<g id="text">
</g>
<g id="ink">
</g>
<g id="blend">
</g>
<g id="curve">
</g>
<g id="move">
</g>
<g id="cusor">
</g>
<g id="cursor-pluse">
</g>
<g id="cursor-minus">
</g>
<g id="pen-minus">
</g>
<g id="pen-pluse">
</g>
<g id="Layer_2">
</g>
<g id="point-brush">
</g>
</svg>
