<?xml version="1.0" encoding="utf-8"?>
<!-- Generator: Adobe Illustrator 18.0.0, SVG Export Plug-In . SVG Version: 6.00 Build 0)  -->
<!DOCTYPE svg PUBLIC "-//W3C//DTD SVG 1.1//EN" "http://www.w3.org/Graphics/SVG/1.1/DTD/svg11.dtd">
<svg version="1.1" xmlns="http://www.w3.org/2000/svg" xmlns:xlink="http://www.w3.org/1999/xlink" x="0px" y="0px"
	 viewBox="0 0 48 48" enable-background="new 0 0 48 48" xml:space="preserve">
<g id="Layer_1">
</g>
<g id="Layer_2">
	<g id="Layer_3">
	</g>
	<g id="Layer_4">
	</g>
	<g id="drawer-2">
	</g>
	<g id="file-pen">
	</g>
	<g id="file-drawer-2">
	</g>
	<g id="move">
	</g>
	<g id="papper-hold">
	</g>
	<g id="papper">
	</g>
	<g id="file-label">
	</g>
	<g id="file-drawer-1">
	</g>
	<g id="file-drawer">
	</g>
	<g id="disorder-list">
	</g>
	<g id="image-list">
	</g>
	<g id="bookholder-2">
	</g>
	<g id="bookholder">
	</g>
	<g id="success-file">
	</g>
	<g id="ask-file">
	</g>
	<g id="notify">
	</g>
	<g id="news">
	</g>
	<g id="board-edit">
	</g>
	<g id="board-unblock">
	</g>
	<g id="board-block">
	</g>
	<g id="board-close">
	</g>
	<g id="board-check">
	</g>
	<g id="board-minus">
	</g>
	<g id="board-add">
	</g>
	<g id="board-pen">
	</g>
	<g id="board-write">
	</g>
	<g id="board">
	</g>
	<g id="number-file">
	</g>
	<g id="list-file">
	</g>
	<g id="upload">
	</g>
	<g id="download">
	</g>
	<g id="png_1_">
	</g>
	<g id="png">
	</g>
	<g id="jpg">
	</g>
	<g id="doc">
	</g>
	<g id="xls">
	</g>
	<g id="adobe_acrobat">
	</g>
	<g id="after-effects">
	</g>
	<g id="illustrator">
	</g>
	<g id="photoshop">
		<path fill="none" stroke="#000000" stroke-width="2" stroke-linejoin="round" stroke-miterlimit="10" d="M40,46H8
			c-1.1045694,0-2-0.8954315-2-2V4c0-1.1045694,0.8954306-2,2-2h22.0000134L42,14v30C42,45.1045685,41.1045685,46,40,46z"/>
		<polyline fill="none" stroke="#000000" stroke-width="2" stroke-linejoin="round" stroke-miterlimit="10" points="30,3 30,14 
			42,14 		"/>
		<g>
			<path d="M14.7822266,22.1162109c0-0.3955078,0.3242188-0.7197266,0.7021484-0.7197266H19.5
				c2.8447266,0,4.7177734,1.5126953,4.7177734,3.9970703v0.0361328c0,2.71875-2.2695313,4.1230469-4.9521484,4.1230469h-3.0605469
				v3.8173828c0,0.3955078-0.3242188,0.7197266-0.7207031,0.7197266c-0.3779297,0-0.7021484-0.3242188-0.7021484-0.7197266
				V22.1162109z M19.3203125,28.2558594c2.0878906,0,3.4570313-1.1162109,3.4570313-2.7724609v-0.0361328
				c0-1.8007813-1.3505859-2.7363281-3.3857422-2.7363281h-3.1865234v5.5449219H19.3203125z"/>
			<path d="M26.0683594,33.0097656c-0.1259766-0.0898438-0.2519531-0.2705078-0.2519531-0.5039063
				c0-0.3242188,0.2705078-0.5947266,0.6123047-0.5947266c0.1259766,0,0.2519531,0.0361328,0.3417969,0.1083984
				c0.9550781,0.6484375,1.9453125,0.9902344,2.953125,0.9902344c1.1162109,0,1.9267578-0.5761719,1.9267578-1.4765625v-0.0361328
				c0-0.9365234-1.0986328-1.2958984-2.3222656-1.6386719c-1.4589844-0.4140625-3.0791016-0.9179688-3.0791016-2.6289063v-0.0351563
				c0-1.6025391,1.3320313-2.6650391,3.1689453-2.6650391c0.9902344,0,2.0703125,0.3056641,2.9707031,0.7919922
				c0.1796875,0.1083984,0.3417969,0.3066406,0.3417969,0.5761719c0,0.3242188-0.2695313,0.5947266-0.6123047,0.5947266
				c-0.1259766,0-0.2333984-0.0361328-0.3056812-0.0722656c-0.791975-0.4501953-1.6386547-0.7207031-2.4306469-0.7207031
				c-1.0986328,0-1.8007813,0.5761719-1.8007813,1.3505859v0.0361328c0,0.8818359,1.1523438,1.2246094,2.3945313,1.6025391
				c1.4404297,0.4316406,2.9892578,0.9902344,2.9892578,2.6650391v0.0361328c0,1.7636719-1.4589844,2.7900391-3.3134766,2.7900391
				C28.4277344,34.1796875,27.0771484,33.7294922,26.0683594,33.0097656z"/>
		</g>
	</g>
	<g id="word-file">
	</g>
	<g id="text-file">
	</g>
	<g id="letter">
	</g>
	<g id="file-folder">
	</g>
	<g id="files-3">
	</g>
	<g id="two-files-1">
	</g>
	<g id="two-files">
	</g>
	<g id="file-favorite">
	</g>
	<g id="file-block">
	</g>
	<g id="file-notification">
	</g>
	<g id="file-clude">
	</g>
	<g id="files-settings">
	</g>
	<g id="fileedit">
	</g>
	<g id="file-lock">
	</g>
	<g id="file-trash">
	</g>
	<g id="file-star">
	</g>
	<g id="file_locak">
	</g>
	<g id="file_reload">
	</g>
	<g id="file-check">
	</g>
	<g id="file_close">
	</g>
	<g id="file-remove">
	</g>
	<g id="file-add">
	</g>
	<g id="file-wide">
	</g>
	<g id="file-rotate">
	</g>
	<g id="file-transfer">
	</g>
	<g id="file-hold">
	</g>
	<g id="file-zip-1">
	</g>
	<g id="file-music">
	</g>
	<g id="file-code">
	</g>
	<g id="file-play">
	</g>
	<g id="file-inage">
	</g>
	<g id="file-chart">
	</g>
	<g id="file-graph">
	</g>
	<g id="file-1">
	</g>
	<g id="files">
	</g>
	<g id="file-2">
	</g>
	<g id="file">
	</g>
	<g id="folder-flat">
	</g>
	<g id="folder-notify">
	</g>
	<g id="folder-cloude">
	</g>
	<g id="folder-settings">
	</g>
	<g id="folder-edit">
	</g>
	<g id="folder-unloack">
	</g>
	<g id="folder-lock">
	</g>
	<g id="folder-star">
	</g>
	<g id="folder-search">
	</g>
	<g id="folder-trash">
	</g>
	<g id="folder-block">
	</g>
	<g id="folder-favorite">
	</g>
	<g id="folder-loading">
	</g>
	<g id="folder-refresh">
	</g>
	<g id="folder-check">
	</g>
	<g id="folder-close">
	</g>
	<g id="folder-remove">
	</g>
	<g id="folder-ad">
	</g>
	<g id="folder">
	</g>
</g>
<g id="folder-zip">
</g>
<g id="bookmark">
</g>
<g id="bookmark-file">
</g>
<g id="drawer">
</g>
</svg>
