<?xml version="1.0" encoding="utf-8"?>
<!-- Generator: Adobe Illustrator 18.0.0, SVG Export Plug-In . SVG Version: 6.00 Build 0)  -->
<!DOCTYPE svg PUBLIC "-//W3C//DTD SVG 1.1//EN" "http://www.w3.org/Graphics/SVG/1.1/DTD/svg11.dtd">
<svg version="1.1" xmlns="http://www.w3.org/2000/svg" xmlns:xlink="http://www.w3.org/1999/xlink" x="0px" y="0px"
	 viewBox="0 0 48 48" enable-background="new 0 0 48 48" xml:space="preserve">
<g id="Layer_1">
</g>
<g id="Layer_2">
	<g id="Layer_3">
	</g>
	<g id="Layer_4">
	</g>
	<g id="drawer-2">
	</g>
	<g id="file-pen">
	</g>
	<g id="file-drawer-2">
	</g>
	<g id="move">
	</g>
	<g id="papper-hold">
	</g>
	<g id="papper">
	</g>
	<g id="file-label">
	</g>
	<g id="file-drawer-1">
	</g>
	<g id="file-drawer">
	</g>
	<g id="disorder-list">
	</g>
	<g id="image-list">
	</g>
	<g id="bookholder-2">
	</g>
	<g id="bookholder">
	</g>
	<g id="success-file">
	</g>
	<g id="ask-file">
	</g>
	<g id="notify">
	</g>
	<g id="news">
	</g>
	<g id="board-edit">
	</g>
	<g id="board-unblock">
	</g>
	<g id="board-block">
	</g>
	<g id="board-close">
	</g>
	<g id="board-check">
	</g>
	<g id="board-minus">
	</g>
	<g id="board-add">
	</g>
	<g id="board-pen">
	</g>
	<g id="board-write">
	</g>
	<g id="board">
	</g>
	<g id="number-file">
	</g>
	<g id="list-file">
	</g>
	<g id="upload">
	</g>
	<g id="download">
	</g>
	<g id="png_1_">
	</g>
	<g id="png">
	</g>
	<g id="jpg">
	</g>
	<g id="doc">
	</g>
	<g id="xls">
	</g>
	<g id="adobe_acrobat">
	</g>
	<g id="after-effects">
		<path fill="none" stroke="#000000" stroke-width="2" stroke-linejoin="round" stroke-miterlimit="10" d="M40,46H8
			c-1.1045694,0-2-0.8954315-2-2V4c0-1.1045694,0.8954306-2,2-2h22.0000134L42,14v30C42,45.1045685,41.1045685,46,40,46z"/>
		<polyline fill="none" stroke="#000000" stroke-width="2" stroke-linejoin="round" stroke-miterlimit="10" points="30,3 30,14 
			42,14 		"/>
		<g>
			<path d="M13.0078125,33.0634766l5.1142578-11.1806641c0.1796875-0.3964844,0.4501953-0.6308594,0.9003906-0.6308594H19.09375
				c0.4326172,0,0.7207031,0.234375,0.8828125,0.6308594l5.1132813,11.1630859
				c0.0537109,0.1259766,0.0898438,0.2519531,0.0898438,0.3603516c0,0.3779297-0.3056641,0.6835938-0.6835938,0.6835938
				c-0.3427734,0-0.5761719-0.2333984-0.7021484-0.5224609l-1.3144531-2.8984375h-6.9140625l-1.3144531,2.9345703
				c-0.1259766,0.3066406-0.3603516,0.4863281-0.6845703,0.4863281c-0.3603516,0-0.6484375-0.2880859-0.6484375-0.6484375
				C12.9179688,33.3339844,12.9365234,33.2080078,13.0078125,33.0634766z M21.9208984,29.3730469l-2.8984375-6.4462891
				l-2.8994141,6.4462891H21.9208984z"/>
			<path d="M31.3515625,34.2158203c-2.5566406,0-4.6445313-1.9619141-4.6445313-4.8427734v-0.0361328
				c0-2.6835938,1.890625-4.84375,4.4648438-4.84375c2.7548828,0,4.3212891,2.2509766,4.3212891,4.7177734
				c0,0.3779297-0.305687,0.6474609-0.6484375,0.6474609h-6.7333984c0.1982422,2.0166016,1.6201172,3.1513672,3.2763672,3.1513672
				c1.1523438,0,1.9990234-0.4501953,2.6835938-1.0800781c0.1074219-0.0908203,0.2333984-0.1621094,0.3955078-0.1621094
				c0.3417969,0,0.6123047,0.2695313,0.6123047,0.59375c0,0.1621094-0.0722656,0.3242188-0.2158203,0.4501953
				C33.9804688,33.6582031,32.9365234,34.2158203,31.3515625,34.2158203z M34.1064453,28.8320313
				c-0.1435547-1.6923828-1.1162109-3.1689453-2.9707031-3.1689453c-1.6201172,0-2.8447266,1.3505859-3.0244141,3.1689453
				H34.1064453z"/>
		</g>
	</g>
	<g id="illustrator">
	</g>
	<g id="photoshop">
	</g>
	<g id="word-file">
	</g>
	<g id="text-file">
	</g>
	<g id="letter">
	</g>
	<g id="file-folder">
	</g>
	<g id="files-3">
	</g>
	<g id="two-files-1">
	</g>
	<g id="two-files">
	</g>
	<g id="file-favorite">
	</g>
	<g id="file-block">
	</g>
	<g id="file-notification">
	</g>
	<g id="file-clude">
	</g>
	<g id="files-settings">
	</g>
	<g id="fileedit">
	</g>
	<g id="file-lock">
	</g>
	<g id="file-trash">
	</g>
	<g id="file-star">
	</g>
	<g id="file_locak">
	</g>
	<g id="file_reload">
	</g>
	<g id="file-check">
	</g>
	<g id="file_close">
	</g>
	<g id="file-remove">
	</g>
	<g id="file-add">
	</g>
	<g id="file-wide">
	</g>
	<g id="file-rotate">
	</g>
	<g id="file-transfer">
	</g>
	<g id="file-hold">
	</g>
	<g id="file-zip-1">
	</g>
	<g id="file-music">
	</g>
	<g id="file-code">
	</g>
	<g id="file-play">
	</g>
	<g id="file-inage">
	</g>
	<g id="file-chart">
	</g>
	<g id="file-graph">
	</g>
	<g id="file-1">
	</g>
	<g id="files">
	</g>
	<g id="file-2">
	</g>
	<g id="file">
	</g>
	<g id="folder-flat">
	</g>
	<g id="folder-notify">
	</g>
	<g id="folder-cloude">
	</g>
	<g id="folder-settings">
	</g>
	<g id="folder-edit">
	</g>
	<g id="folder-unloack">
	</g>
	<g id="folder-lock">
	</g>
	<g id="folder-star">
	</g>
	<g id="folder-search">
	</g>
	<g id="folder-trash">
	</g>
	<g id="folder-block">
	</g>
	<g id="folder-favorite">
	</g>
	<g id="folder-loading">
	</g>
	<g id="folder-refresh">
	</g>
	<g id="folder-check">
	</g>
	<g id="folder-close">
	</g>
	<g id="folder-remove">
	</g>
	<g id="folder-ad">
	</g>
	<g id="folder">
	</g>
</g>
<g id="folder-zip">
</g>
<g id="bookmark">
</g>
<g id="bookmark-file">
</g>
<g id="drawer">
</g>
</svg>
