<?xml version="1.0" encoding="utf-8"?>
<!-- Generator: Adobe Illustrator 18.0.0, SVG Export Plug-In . SVG Version: 6.00 Build 0)  -->
<!DOCTYPE svg PUBLIC "-//W3C//DTD SVG 1.1//EN" "http://www.w3.org/Graphics/SVG/1.1/DTD/svg11.dtd">
<svg version="1.1" xmlns="http://www.w3.org/2000/svg" xmlns:xlink="http://www.w3.org/1999/xlink" x="0px" y="0px"
	 viewBox="0 0 48 48" enable-background="new 0 0 48 48" xml:space="preserve">
<g id="Layer_1">
</g>
<g id="paper">
</g>
<g id="ink">
	<path fill="none" stroke="#000000" stroke-width="2" stroke-linecap="round" stroke-linejoin="round" stroke-miterlimit="10" d="
		M32,14c0,0.5522852-2.0982742,2-8,2c-6.0504646,0-8-1.4477148-8-2s2.2151394-2,8-2C29.9017258,12,32,13.4477148,32,14z"/>
	<path fill="none" stroke="#000000" stroke-width="2" stroke-linecap="round" stroke-linejoin="round" stroke-miterlimit="10" d="
		M32,14v6c0,0-1.8167324,2.6812744,0,4c0.8836632,0.6414318,2.8250237,1.3199215,4.6792717,1.8690968
		C39.2365646,26.6264935,41,28.9619045,41,31.6289978V41c0,3.3137093-2.6862907,6-6,6H13c-3.3137083,0-6-2.6862907-6-6v-9.3710022
		c0-2.6670933,1.7634373-5.0025043,4.3207283-5.759901C13.1749754,25.3199215,15.1163368,24.6414318,16,24
		c1.8167324-1.3187256,0-4,0-4v-6"/>
	<path fill="none" stroke="#000000" stroke-width="2" stroke-linecap="round" stroke-linejoin="round" stroke-miterlimit="10" d="
		M32,19c0,0.5522842-2.0982742,2-8,2c-6.0504646,0-8-1.4477158-8-2"/>
	
		<line fill="none" stroke="#000000" stroke-width="2" stroke-linecap="round" stroke-linejoin="round" stroke-miterlimit="10" x1="30" y1="15" x2="35" y2="1"/>
	<path fill="none" stroke="#000000" stroke-width="2" stroke-linecap="round" stroke-linejoin="round" stroke-miterlimit="10" d="
		M7,32v0.0000038C7,33.6568565,8.3431444,35,9.9999971,35h28.0000076C39.6568565,35,41,33.6568565,41,32.0000038V32"/>
</g>
<g id="leaf">
</g>
<g id="path-text">
</g>
<g id="square-path">
</g>
<g id="twoblock">
</g>
<g id="move-dash">
</g>
<g id="move-block">
</g>
<g id="block">
</g>
<g id="central-block">
</g>
<g id="right-middle">
</g>
<g id="top-left">
</g>
<g id="top-block">
</g>
<g id="bottom-block">
</g>
<g id="verticle-block">
</g>
<g id="lag-block">
</g>
<g id="right-arw">
</g>
<g id="left-arw">
</g>
<g id="screen">
</g>
<g id="underline_1_">
</g>
<g id="test-verticle-line">
</g>
<g id="board-paper">
</g>
<g id="board">
</g>
<g id="scale">
</g>
<g id="ohm">
</g>
<g id="pen">
</g>
<g id="crop">
</g>
<g id="pencil-2">
</g>
<g id="pencil">
</g>
<g id="paragraph">
</g>
<g id="quote">
</g>
<g id="break">
</g>
<g id="light">
</g>
<g id="braces">
</g>
<g id="eraser">
</g>
<g id="bold-pen">
</g>
<g id="move-place">
</g>
<g id="place-text">
</g>
<g id="move">
</g>
<g id="share">
</g>
<g id="extand-edge">
</g>
<g id="round-edge">
</g>
<g id="flat-edge">
</g>
<g id="scissor">
</g>
<g id="compress">
</g>
<g id="verticle-scale">
</g>
<g id="first-right-indent">
</g>
<g id="firstleft-indent">
</g>
<g id="verticle-scale-down">
</g>
<g id="right-indent">
</g>
<g id="left-indent">
</g>
<g id="o-list">
</g>
<g id="justify">
</g>
<g id="justify-left">
</g>
<g id="rightalign">
</g>
<g id="center-align">
</g>
<g id="left-align">
</g>
<g id="bold">
</g>
<g id="italic">
</g>
<g id="underline">
</g>
<g id="text-increase">
</g>
<g id="h6">
</g>
<g id="h5">
</g>
<g id="h4">
</g>
<g id="h3">
</g>
<g id="h2">
</g>
<g id="h1">
</g>
<g id="no-list">
</g>
<g id="text-cursor">
</g>
<g id="tree-block">
</g>
</svg>
