<?xml version="1.0" encoding="utf-8"?>
<!-- Generator: Adobe Illustrator 18.0.0, SVG Export Plug-In . SVG Version: 6.00 Build 0)  -->
<!DOCTYPE svg PUBLIC "-//W3C//DTD SVG 1.1//EN" "http://www.w3.org/Graphics/SVG/1.1/DTD/svg11.dtd">
<svg version="1.1" xmlns="http://www.w3.org/2000/svg" xmlns:xlink="http://www.w3.org/1999/xlink" x="0px" y="0px"
	 viewBox="0 0 48 48" enable-background="new 0 0 48 48" xml:space="preserve">
<g id="Layer_1">
</g>
<g id="stick-mouth">
</g>
<g id="shut-mouth">
</g>
<g id="funny">
</g>
<g id="tongue-smile">
</g>
<g id="mustache">
</g>
<g id="dis-like">
</g>
<g id="like_you">
</g>
<g id="love-talk">
</g>
<g id="kids-smile">
</g>
<g id="celebration">
</g>
<g id="girl-smile">
</g>
<g id="smiley">
</g>
<g id="fear-smile">
</g>
<g id="madsmile-3">
</g>
<g id="mad-smile-2">
</g>
<g id="mad-smile">
</g>
<g id="griff">
</g>
<g id="spooked_1_">
	<path fill="none" stroke="#000000" stroke-width="2" stroke-linecap="round" stroke-miterlimit="10" d="M29.9995117,45.1720085
		C28.092329,45.71138,26.0798702,46,24,46C11.8497353,46,2,36.1502647,2,24S11.8497353,2,24,2s22,9.8497353,22,22
		c0,3.2062778-0.6858902,6.2523594-1.9189529,8.9995155"/>
	<path fill="none" stroke="#000000" stroke-width="2" stroke-linecap="round" stroke-miterlimit="10" d="M13.7469521,36.5
		C16.3709354,33.8760147,19.9959354,32.2530479,24,32.2530479S31.6290646,33.8760147,34.2530479,36.5"/>
	<path fill="none" stroke="#000000" stroke-width="2" stroke-linecap="round" stroke-miterlimit="10" d="M19.5,15
		c0,1.9329967-1.5670033,3.5-3.5,3.5s-3.5-1.5670033-3.5-3.5"/>
	<path fill="none" stroke="#000000" stroke-width="2" stroke-linecap="round" stroke-miterlimit="10" d="M35.5,15
		c0,1.9329967-1.5670052,3.5-3.5,3.5s-3.5-1.5670033-3.5-3.5"/>
	<path fill="none" stroke="#000000" stroke-width="2" stroke-linecap="round" stroke-miterlimit="10" d="M44,40.5
		c0,3.0375671-2.4624329,5.5-5.5,5.5S33,43.5375671,33,40.5c0-3.625,5.5-9.5,5.5-9.5S44,36.75,44,40.5z"/>
	
		<line fill="none" stroke="#000000" stroke-width="2" stroke-linecap="round" stroke-miterlimit="10" x1="33" y1="21" x2="33" y2="23"/>
	
		<line fill="none" stroke="#000000" stroke-width="2" stroke-linecap="round" stroke-miterlimit="10" x1="33" y1="27" x2="33" y2="28"/>
	
		<line fill="none" stroke="#000000" stroke-width="2" stroke-linecap="round" stroke-miterlimit="10" x1="16" y1="22" x2="16" y2="23"/>
</g>
<g id="devasation-2">
</g>
<g id="devasation">
</g>
<g id="concern">
</g>
<g id="confused">
</g>
<g id="sternness">
</g>
<g id="intense">
</g>
<g id="eeww_x21_">
</g>
<g id="pain">
</g>
<g id="betrayal">
</g>
<g id="mad">
</g>
<g id="elastic">
</g>
<g id="cocky">
</g>
<g id="omit">
</g>
<g id="spooked">
</g>
<g id="what_the_--">
</g>
<g id="tasty">
</g>
<g id="you_are_it">
</g>
<g id="anger">
</g>
<g id="cruelty">
</g>
<g id="joy">
</g>
<g id="what-really">
</g>
<g id="surprised">
</g>
<g id="laughfer">
</g>
<g id="dejection">
</g>
<g id="dollar">
</g>
<g id="ammusment-2">
</g>
<g id="love">
</g>
<g id="ammusment">
</g>
<g id="innocent">
</g>
<g id="sad">
</g>
<g id="satisfaction">
</g>
<g id="happy">
</g>
<g id="Layer_3">
</g>
<g id="Layer_2">
</g>
</svg>
