<?xml version="1.0" encoding="utf-8"?>
<!-- Generator: Adobe Illustrator 18.0.0, SVG Export Plug-In . SVG Version: 6.00 Build 0)  -->
<!DOCTYPE svg PUBLIC "-//W3C//DTD SVG 1.1//EN" "http://www.w3.org/Graphics/SVG/1.1/DTD/svg11.dtd">
<svg version="1.1" xmlns="http://www.w3.org/2000/svg" xmlns:xlink="http://www.w3.org/1999/xlink" x="0px" y="0px"
	 viewBox="0 0 48 48" enable-background="new 0 0 48 48" xml:space="preserve">
<g id="Layer_1">
</g>
<g id="stick-mouth">
</g>
<g id="shut-mouth">
</g>
<g id="funny">
</g>
<g id="tongue-smile">
</g>
<g id="mustache">
</g>
<g id="dis-like">
</g>
<g id="like_you">
</g>
<g id="love-talk">
</g>
<g id="kids-smile">
</g>
<g id="celebration">
</g>
<g id="girl-smile">
</g>
<g id="smiley">
</g>
<g id="fear-smile">
</g>
<g id="madsmile-3">
</g>
<g id="mad-smile-2">
</g>
<g id="mad-smile">
</g>
<g id="griff">
</g>
<g id="spooked_1_">
</g>
<g id="devasation-2">
</g>
<g id="devasation">
</g>
<g id="concern">
</g>
<g id="confused">
</g>
<g id="sternness">
</g>
<g id="intense">
</g>
<g id="eeww_x21_">
</g>
<g id="pain">
</g>
<g id="betrayal">
</g>
<g id="mad">
</g>
<g id="elastic">
	<circle fill="none" stroke="#000000" stroke-width="2" stroke-linecap="round" stroke-miterlimit="10" cx="24" cy="24" r="22"/>
	<path fill="none" stroke="#000000" stroke-width="2" stroke-linecap="round" stroke-miterlimit="10" d="M12.1572151,13.9885826
		c0.5225983-1.8610125,2.454896-2.9460115,4.3159084-2.4234133s2.9460125,2.4548969,2.4234142,4.3159084"/>
	<path fill="none" stroke="#000000" stroke-width="2" stroke-linecap="round" stroke-miterlimit="10" d="M29.0472794,15.8178673
		c-0.4822578-1.871871,0.6442471-3.7802706,2.5161171-4.2625284c1.8718719-0.4822588,3.7802696,0.6442451,4.2625313,2.5161171"/>
	<path fill="none" stroke="#000000" stroke-width="2" stroke-linecap="round" stroke-miterlimit="10" d="M36.0480957,25.8919125
		c-0.6346016,1.5649223-1.5865021,3.031271-2.8557091,4.3004761c-1.2692032,1.2692032-2.7355518,2.2211056-4.3004742,2.8557072
		S25.663496,34,24,34s-3.3269901-0.3173027-4.8919125-0.9519043s-3.031271-1.586504-4.3004761-2.8557072
		c-0.4722328-0.4722328-0.9005394-0.9717579-1.2849207-1.4934978c-0.6487064-0.8805237-1.1723022-1.8243179-1.5707874-2.8069782"/>
	<path fill="none" stroke="#000000" stroke-width="2" stroke-linecap="round" stroke-miterlimit="10" d="M38.1329269,26.7341499
		c-1.5834427,0-2.8670769-1.2836342-2.8670769-2.867075"/>
	<path fill="none" stroke="#000000" stroke-width="2" stroke-linecap="round" stroke-miterlimit="10" d="M13.132925,22.867075
		c0,1.5834408-1.2836332,2.867075-2.867075,2.867075"/>
	<path fill="none" stroke="#000000" stroke-width="2" stroke-linecap="round" stroke-miterlimit="10" d="M13.9287119,29.2214069
		C10.8425579,30.5,9.5624971,35.625,13.5,37.375C16.5973072,38.7515793,16,34,24.6699924,33.9817657"/>
</g>
<g id="cocky">
</g>
<g id="omit">
</g>
<g id="spooked">
</g>
<g id="what_the_--">
</g>
<g id="tasty">
</g>
<g id="you_are_it">
</g>
<g id="anger">
</g>
<g id="cruelty">
</g>
<g id="joy">
</g>
<g id="what-really">
</g>
<g id="surprised">
</g>
<g id="laughfer">
</g>
<g id="dejection">
</g>
<g id="dollar">
</g>
<g id="ammusment-2">
</g>
<g id="love">
</g>
<g id="ammusment">
</g>
<g id="innocent">
</g>
<g id="sad">
</g>
<g id="satisfaction">
</g>
<g id="happy">
</g>
<g id="Layer_3">
</g>
<g id="Layer_2">
</g>
</svg>
