<?xml version="1.0" encoding="utf-8"?>
<!-- Generator: Adobe Illustrator 18.0.0, SVG Export Plug-In . SVG Version: 6.00 Build 0)  -->
<!DOCTYPE svg PUBLIC "-//W3C//DTD SVG 1.1//EN" "http://www.w3.org/Graphics/SVG/1.1/DTD/svg11.dtd">
<svg version="1.1" xmlns="http://www.w3.org/2000/svg" xmlns:xlink="http://www.w3.org/1999/xlink" x="0px" y="0px"
	 viewBox="0 0 48 48" enable-background="new 0 0 48 48" xml:space="preserve">
<g id="Layer_1">
</g>
<g id="stick-mouth">
</g>
<g id="shut-mouth">
</g>
<g id="funny">
</g>
<g id="tongue-smile">
</g>
<g id="mustache">
</g>
<g id="dis-like">
</g>
<g id="like_you">
</g>
<g id="love-talk">
</g>
<g id="kids-smile">
</g>
<g id="celebration">
</g>
<g id="girl-smile">
</g>
<g id="smiley">
</g>
<g id="fear-smile">
	<path fill="none" stroke="#000000" stroke-width="2" stroke-linecap="round" stroke-miterlimit="10" d="M38.6943626,7.6267166
		C43.1791115,11.654274,46,17.4977093,46,24c0,12.1502647-9.8497353,22-22,22S2,36.1502647,2,24
		c0-7.7226753,3.9791341-14.5159721,9.9989843-18.4414768"/>
	<g>
		<path fill="none" stroke="#000000" stroke-width="2" stroke-linecap="round" stroke-linejoin="round" stroke-miterlimit="10" d="
			M33.2570801,30.5418091C33.0923462,34.5542297,29.036377,38.3566589,24,38.3566589s-9.0922241-3.8024902-9.257019-7.8148804
			C21.1921387,35.8219299,26.8081665,35.8221741,33.2570801,30.5418091z"/>
	</g>
	<path fill="none" stroke="#000000" stroke-width="2" stroke-linecap="round" stroke-linejoin="round" stroke-miterlimit="10" d="
		M38.6943626,7.6267166c0,0-4.3956947,4.7746172-11.3193626,3.1232834C16.5,8.15625,9.25,10.875,11.2227411,14.8891268
		c0,0-4.1185856-6.2862329,1.7303839-10.0766268C15.75,3,19.6153927,2,24,2C33,2,38.6943626,7.6267166,38.6943626,7.6267166z"/>
	<path fill="none" stroke="#000000" stroke-width="2" stroke-linecap="round" stroke-miterlimit="10" d="M33.25,27.4375
		c0,0,2.25-0.25,2.75,1.5625"/>
	<path fill="none" stroke="#000000" stroke-width="2" stroke-linecap="round" stroke-miterlimit="10" d="M14.5,27.0625
		c0,0-1.625-0.0625-2.5,1.5625"/>
	<circle fill="none" stroke="#000000" stroke-width="2" stroke-linecap="round" stroke-miterlimit="10" cx="15" cy="18" r="0.5"/>
	<circle fill="none" stroke="#000000" stroke-width="2" stroke-linecap="round" stroke-miterlimit="10" cx="31" cy="18" r="0.5"/>
	<circle fill="none" stroke="#000000" stroke-width="2" stroke-linecap="round" stroke-miterlimit="10" cx="32" cy="19" r="3.5"/>
	<circle fill="none" stroke="#000000" stroke-width="2" stroke-linecap="round" stroke-miterlimit="10" cx="16" cy="19" r="3.5"/>
</g>
<g id="madsmile-3">
</g>
<g id="mad-smile-2">
</g>
<g id="mad-smile">
</g>
<g id="griff">
</g>
<g id="spooked_1_">
</g>
<g id="devasation-2">
</g>
<g id="devasation">
</g>
<g id="concern">
</g>
<g id="confused">
</g>
<g id="sternness">
</g>
<g id="intense">
</g>
<g id="eeww_x21_">
</g>
<g id="pain">
</g>
<g id="betrayal">
</g>
<g id="mad">
</g>
<g id="elastic">
</g>
<g id="cocky">
</g>
<g id="omit">
</g>
<g id="spooked">
</g>
<g id="what_the_--">
</g>
<g id="tasty">
</g>
<g id="you_are_it">
</g>
<g id="anger">
</g>
<g id="cruelty">
</g>
<g id="joy">
</g>
<g id="what-really">
</g>
<g id="surprised">
</g>
<g id="laughfer">
</g>
<g id="dejection">
</g>
<g id="dollar">
</g>
<g id="ammusment-2">
</g>
<g id="love">
</g>
<g id="ammusment">
</g>
<g id="innocent">
</g>
<g id="sad">
</g>
<g id="satisfaction">
</g>
<g id="happy">
</g>
<g id="Layer_3">
</g>
<g id="Layer_2">
</g>
</svg>
