<?xml version="1.0" encoding="utf-8"?>
<!-- Generator: Adobe Illustrator 18.0.0, SVG Export Plug-In . SVG Version: 6.00 Build 0)  -->
<!DOCTYPE svg PUBLIC "-//W3C//DTD SVG 1.1//EN" "http://www.w3.org/Graphics/SVG/1.1/DTD/svg11.dtd">
<svg version="1.1" xmlns="http://www.w3.org/2000/svg" xmlns:xlink="http://www.w3.org/1999/xlink" x="0px" y="0px"
	 viewBox="0 0 48 48" enable-background="new 0 0 48 48" xml:space="preserve">
<g id="Layer_1">
</g>
<g id="stick-mouth">
</g>
<g id="shut-mouth">
</g>
<g id="funny">
</g>
<g id="tongue-smile">
</g>
<g id="mustache">
</g>
<g id="dis-like">
</g>
<g id="like_you">
</g>
<g id="love-talk">
</g>
<g id="kids-smile">
</g>
<g id="celebration">
</g>
<g id="girl-smile">
</g>
<g id="smiley">
</g>
<g id="fear-smile">
</g>
<g id="madsmile-3">
</g>
<g id="mad-smile-2">
</g>
<g id="mad-smile">
</g>
<g id="griff">
</g>
<g id="spooked_1_">
</g>
<g id="devasation-2">
	<g>
		<path fill="none" stroke="#000000" stroke-width="2" stroke-linecap="round" stroke-miterlimit="10" d="M31.1089211,44.826107
			C28.878912,45.5871048,26.4876747,46,24,46C11.8497353,46,2,36.1502647,2,24S11.8497353,2,24,2s22,9.8497353,22,22"/>
		<path fill="none" stroke="#000000" stroke-width="2" stroke-linecap="round" stroke-miterlimit="10" d="M45,30.869566
			c0-2.7374229-2.219101-4.956522-4.9565201-4.956522c-2.0337563,0-3.7793579,1.2260704-4.5434799,2.9783802
			c-0.764122-1.7523098-2.5097237-2.9783802-4.543478-2.9783802C28.219101,25.913044,26,28.132143,26,30.869566
			c0,5.576086,9.913044,12.2173901,9.913044,12.2173901S45,36.789856,45,30.869566z"/>
		<polyline fill="none" stroke="#000000" stroke-width="2" stroke-linecap="round" stroke-miterlimit="10" points="35.5,28.8914242 
			37.7080193,34.0536003 33.9994888,34.7083321 36,41.75 		"/>
		<path fill="none" stroke="#000000" stroke-width="2" stroke-linecap="round" stroke-miterlimit="10" d="M16,37
			c0,0,3.5624924-1,8-1c1.4912624,0,2.8837051,0.1129379,4.0753326,0.2629013"/>
		<path fill="none" stroke="#000000" stroke-width="2" stroke-linecap="round" stroke-miterlimit="10" d="M19.5,15
			c0,1.9329967-1.5670033,3.5-3.5,3.5s-3.5-1.5670033-3.5-3.5"/>
		<path fill="none" stroke="#000000" stroke-width="2" stroke-linecap="round" stroke-miterlimit="10" d="M35.5,15
			c0,1.9329967-1.5670052,3.5-3.5,3.5s-3.5-1.5670033-3.5-3.5"/>
	</g>
</g>
<g id="devasation">
</g>
<g id="concern">
</g>
<g id="confused">
</g>
<g id="sternness">
</g>
<g id="intense">
</g>
<g id="eeww_x21_">
</g>
<g id="pain">
</g>
<g id="betrayal">
</g>
<g id="mad">
</g>
<g id="elastic">
</g>
<g id="cocky">
</g>
<g id="omit">
</g>
<g id="spooked">
</g>
<g id="what_the_--">
</g>
<g id="tasty">
</g>
<g id="you_are_it">
</g>
<g id="anger">
</g>
<g id="cruelty">
</g>
<g id="joy">
</g>
<g id="what-really">
</g>
<g id="surprised">
</g>
<g id="laughfer">
</g>
<g id="dejection">
</g>
<g id="dollar">
</g>
<g id="ammusment-2">
</g>
<g id="love">
</g>
<g id="ammusment">
</g>
<g id="innocent">
</g>
<g id="sad">
</g>
<g id="satisfaction">
</g>
<g id="happy">
</g>
<g id="Layer_3">
</g>
<g id="Layer_2">
</g>
</svg>
