<?xml version="1.0" encoding="utf-8"?>
<!-- Generator: Adobe Illustrator 18.0.0, SVG Export Plug-In . SVG Version: 6.00 Build 0)  -->
<!DOCTYPE svg PUBLIC "-//W3C//DTD SVG 1.1//EN" "http://www.w3.org/Graphics/SVG/1.1/DTD/svg11.dtd">
<svg version="1.1" xmlns="http://www.w3.org/2000/svg" xmlns:xlink="http://www.w3.org/1999/xlink" x="0px" y="0px"
	 viewBox="0 0 48 48" enable-background="new 0 0 48 48" xml:space="preserve">
<g id="Layer_1">
</g>
<g id="stick-mouth">
</g>
<g id="shut-mouth">
</g>
<g id="funny">
</g>
<g id="tongue-smile">
</g>
<g id="mustache">
</g>
<g id="dis-like">
</g>
<g id="like_you">
</g>
<g id="love-talk">
</g>
<g id="kids-smile">
</g>
<g id="celebration">
</g>
<g id="girl-smile">
	<g>
		<circle fill="none" stroke="#000000" stroke-width="2" stroke-linecap="round" stroke-miterlimit="10" cx="24" cy="24" r="22"/>
		<g>
			<path fill="none" stroke="#000000" stroke-width="2" stroke-linecap="round" stroke-linejoin="round" stroke-miterlimit="10" d="
				M33.2570801,31.5418091C33.0923462,35.5542297,29.036377,39.3566589,24,39.3566589s-9.0922241-3.8024902-9.257019-7.8148804
				C21.1921387,36.8219299,26.8081665,36.8221741,33.2570801,31.5418091z"/>
		</g>
		<path fill="none" stroke="#000000" stroke-width="2" stroke-linecap="round" stroke-miterlimit="10" d="M33.25,28.4375
			c0,0,2.25-0.25,2.75,1.5625"/>
		<path fill="none" stroke="#000000" stroke-width="2" stroke-linecap="round" stroke-miterlimit="10" d="M14.5,28.0625
			c0,0-1.625-0.0625-2.5,1.5625"/>
		<path fill="none" stroke="#000000" stroke-width="2" stroke-linecap="round" stroke-linejoin="round" stroke-miterlimit="10" d="
			M46,24C30.125,24,24,2,24,2S17.125,23,2,24"/>
		<path fill="none" stroke="#000000" stroke-width="2" stroke-linecap="round" stroke-miterlimit="10" d="M20,2.6198742
			c0,0-5.875,12.755126-16.4375229,14.2919283"/>
		<path fill="none" stroke="#000000" stroke-width="2" stroke-linecap="round" stroke-miterlimit="10" d="M27.4542236,2.2706516
			c0,0,7.824234,13.800828,16.4639969,14.6411505"/>
		<circle fill="none" stroke="#000000" stroke-width="2" stroke-linecap="round" stroke-miterlimit="10" cx="16" cy="21" r="0.5"/>
		<path fill="none" stroke="#000000" stroke-width="2" stroke-linecap="round" stroke-miterlimit="10" d="M16,17
			c2.2091389,0,4,1.7908611,4,4s-1.7908611,4-4,4s-4-1.7908611-4-4"/>
		<circle fill="none" stroke="#000000" stroke-width="2" stroke-linecap="round" stroke-miterlimit="10" cx="32" cy="21" r="0.5"/>
		<path fill="none" stroke="#000000" stroke-width="2" stroke-linecap="round" stroke-miterlimit="10" d="M36,21
			c0,2.2091389-1.7908592,4-4,4s-4-1.7908611-4-4s1.7908611-4,4-4"/>
		
			<circle fill="none" stroke="#000000" stroke-width="2" stroke-linecap="round" stroke-miterlimit="10" cx="44.5" cy="35.5" r="1.5"/>
		
			<circle fill="none" stroke="#000000" stroke-width="2" stroke-linecap="round" stroke-miterlimit="10" cx="3.5" cy="35.5" r="1.5"/>
	</g>
</g>
<g id="smiley">
</g>
<g id="fear-smile">
</g>
<g id="madsmile-3">
</g>
<g id="mad-smile-2">
</g>
<g id="mad-smile">
</g>
<g id="griff">
</g>
<g id="spooked_1_">
</g>
<g id="devasation-2">
</g>
<g id="devasation">
</g>
<g id="concern">
</g>
<g id="confused">
</g>
<g id="sternness">
</g>
<g id="intense">
</g>
<g id="eeww_x21_">
</g>
<g id="pain">
</g>
<g id="betrayal">
</g>
<g id="mad">
</g>
<g id="elastic">
</g>
<g id="cocky">
</g>
<g id="omit">
</g>
<g id="spooked">
</g>
<g id="what_the_--">
</g>
<g id="tasty">
</g>
<g id="you_are_it">
</g>
<g id="anger">
</g>
<g id="cruelty">
</g>
<g id="joy">
</g>
<g id="what-really">
</g>
<g id="surprised">
</g>
<g id="laughfer">
</g>
<g id="dejection">
</g>
<g id="dollar">
</g>
<g id="ammusment-2">
</g>
<g id="love">
</g>
<g id="ammusment">
</g>
<g id="innocent">
</g>
<g id="sad">
</g>
<g id="satisfaction">
</g>
<g id="happy">
</g>
<g id="Layer_3">
</g>
<g id="Layer_2">
</g>
</svg>
