<?xml version="1.0" encoding="utf-8"?>
<!-- Generator: Adobe Illustrator 18.0.0, SVG Export Plug-In . SVG Version: 6.00 Build 0)  -->
<!DOCTYPE svg PUBLIC "-//W3C//DTD SVG 1.1//EN" "http://www.w3.org/Graphics/SVG/1.1/DTD/svg11.dtd">
<svg version="1.1" xmlns="http://www.w3.org/2000/svg" xmlns:xlink="http://www.w3.org/1999/xlink" x="0px" y="0px"
	 viewBox="0 0 48 48" enable-background="new 0 0 48 48" xml:space="preserve">
<g id="Layer_1">
</g>
<g id="stick-mouth">
</g>
<g id="shut-mouth">
</g>
<g id="funny">
</g>
<g id="tongue-smile">
</g>
<g id="mustache">
</g>
<g id="dis-like">
</g>
<g id="like_you">
</g>
<g id="love-talk">
</g>
<g id="kids-smile">
</g>
<g id="celebration">
</g>
<g id="girl-smile">
</g>
<g id="smiley">
</g>
<g id="fear-smile">
</g>
<g id="madsmile-3">
</g>
<g id="mad-smile-2">
</g>
<g id="mad-smile">
</g>
<g id="griff">
</g>
<g id="spooked_1_">
</g>
<g id="devasation-2">
</g>
<g id="devasation">
</g>
<g id="concern">
</g>
<g id="confused">
</g>
<g id="sternness">
</g>
<g id="intense">
</g>
<g id="eeww_x21_">
</g>
<g id="pain">
</g>
<g id="betrayal">
</g>
<g id="mad">
</g>
<g id="elastic">
</g>
<g id="cocky">
</g>
<g id="omit">
	<path fill="none" stroke="#000000" stroke-width="2" stroke-linecap="round" stroke-miterlimit="10" d="M21.4497299,45.8537712
		C10.5008516,44.5898781,2,35.2876778,2,24C2,11.8497353,11.8497353,2,24,2s22,9.8497353,22,22
		c0,7.6310978-3.8853226,14.3547325-9.7856979,18.3006248"/>
	<path fill="none" stroke="#000000" stroke-width="2" stroke-linecap="round" stroke-miterlimit="10" d="M19.5,15
		c0,1.9329967-1.5670033,3.5-3.5,3.5s-3.5-1.5670033-3.5-3.5"/>
	<path fill="none" stroke="#000000" stroke-width="2" stroke-linecap="round" stroke-miterlimit="10" d="M35.5,15
		c0,1.9329967-1.5670052,3.5-3.5,3.5s-3.5-1.5670033-3.5-3.5"/>
	<path fill="none" stroke="#000000" stroke-width="2" stroke-linecap="round" stroke-linejoin="round" stroke-miterlimit="10" d="
		M13.8124781,33.1875c0,0,4.374999,1.3125,5.3125219,7.6875c0.5849514,3.9776726,3.1874771,6.199379,5.9374771,6.125
		c2.8453064-0.0769577,3.8354836-2.9418564,3.8354836-2.9418564S30.1503506,46.1863708,32.75,45.8333321
		C36.125,45.375,36.5,39.875,36.1972351,37.2310371c-0.1508713-1.3175278,0.3529587-2.6412506,1.0550346-3.7663002
		c1.3269539-2.1263962,2.0025558-4.5452614,1.8503304-6.9678268c-0.0778198-1.2382813-1.284729-2.0878983-2.5338135-1.8322296
		c-9.9515381,2.0369568-15.1859741,2.0369415-25.1375732,0c-1.2490845-0.2556686-2.4559937,0.5939407-2.5338135,1.8322296
		c-0.3342142,5.3195229,3.3229513,10.6212044,9.1032143,12.8477249"/>
	<path fill="none" stroke="#000000" stroke-width="2" stroke-linecap="round" stroke-linejoin="round" stroke-miterlimit="10" d="
		M21.3124771,31.9818916c0,0,3.8125229,2.5181084,4.0625229,6.5181084"/>
	<path fill="none" stroke="#000000" stroke-width="2" stroke-linecap="round" stroke-linejoin="round" stroke-miterlimit="10" d="
		M29.5624771,31.9818916c0,0-0.3124771,2.1431084,0,3.5181084"/>
</g>
<g id="spooked">
</g>
<g id="what_the_--">
</g>
<g id="tasty">
</g>
<g id="you_are_it">
</g>
<g id="anger">
</g>
<g id="cruelty">
</g>
<g id="joy">
</g>
<g id="what-really">
</g>
<g id="surprised">
</g>
<g id="laughfer">
</g>
<g id="dejection">
</g>
<g id="dollar">
</g>
<g id="ammusment-2">
</g>
<g id="love">
</g>
<g id="ammusment">
</g>
<g id="innocent">
</g>
<g id="sad">
</g>
<g id="satisfaction">
</g>
<g id="happy">
</g>
<g id="Layer_3">
</g>
<g id="Layer_2">
</g>
</svg>
