<?xml version="1.0" encoding="utf-8"?>
<!-- Generator: Adobe Illustrator 18.0.0, SVG Export Plug-In . SVG Version: 6.00 Build 0)  -->
<!DOCTYPE svg PUBLIC "-//W3C//DTD SVG 1.1//EN" "http://www.w3.org/Graphics/SVG/1.1/DTD/svg11.dtd">
<svg version="1.1" xmlns="http://www.w3.org/2000/svg" xmlns:xlink="http://www.w3.org/1999/xlink" x="0px" y="0px"
	 viewBox="0 0 48 48" enable-background="new 0 0 48 48" xml:space="preserve">
<g id="Layer_1">
	<g display="none">
	</g>
</g>
<g id="eye-close">
</g>
<g id="eye-reader">
</g>
<g id="thump-block">
</g>
<g id="thump-locker">
</g>
<g id="locker-block">
</g>
<g id="locker-large">
</g>
<g id="locker-no">
</g>
<g id="locker-2">
</g>
<g id="partsal-2">
</g>
<g id="partsal">
</g>
<g id="wallet-close">
</g>
<g id="wallet-check">
</g>
<g id="wallet-notify">
</g>
<g id="wallet-add">
</g>
<g id="wallet-1">
</g>
<g id="wallet">
</g>
<g id="files-3">
</g>
<g id="dollar-bill">
</g>
<g id="report-up">
</g>
<g id="report-down">
</g>
<g id="progress-bar-1">
</g>
<g id="progres-bar">
</g>
<g id="save-dollar">
	
		<circle fill="none" stroke="#000000" stroke-width="2" stroke-linecap="round" stroke-miterlimit="10" cx="14.5" cy="19.5" r="1.5"/>
	<path fill="none" stroke="#000000" stroke-width="2" stroke-linecap="round" stroke-miterlimit="10" d="M41.8485107,23.5
		C41.8485107,14.9395752,33.8574219,8,24,8c-2.6502419,0-5.1643047,0.5029659-7.4246769,1.4034185
		c-0.5445251,0.2169199-1.1434412-0.023921-1.4743776-0.5077019c-1.1136312-1.6279602-3.0459032-2.3432178-4.4378529-2.6558847
		C9.8367157,6.0542068,9.0729408,6.7292576,9.1572161,7.5720224l0.6034613,6.0347281
		c0.0328903,0.3289127-0.0735645,0.6529541-0.2836418,0.9081659c-1.0218573,1.2414017-1.8441243,2.6148252-2.4111986,4.0913992
		c-0.0974517,0.2537498-0.2700186,0.4703465-0.5021167,0.611824l-2.9112575,1.7745743
		C2.6261981,21.6182804,2,22.7333469,2,23.9352417v1.6185303C2,27.4570713,3.5429287,29,5.446228,29h1.1028442
		c0.4767332,0.0000019,0.8980689,0.2804451,1.1126895,0.7061348c1.0199513,2.0230312,2.5225701,3.8190689,4.3804078,5.2805176
		C13.8930025,36.4425888,15,38.6451416,15,40.9999962V41c0,0.5522842,0.4477148,1,1,1h2c0.5522842,0,1-0.4477158,1-1v-2.6273193
		C21,38.7770386,22.2588501,39,24,39c2.4889526,0,5-0.4449463,7-1.2441406V41c0,0.5522842,0.4477158,1,1,1h2
		c0.5522842,0,1-0.4477158,1-1v-2.2494087c0-1.7790642,0.7401695-3.4773788,2.0435028-4.6883278
		C40.0211182,31.295702,41.8485107,27.5861244,41.8485107,23.5z"/>
	<path fill="none" stroke="#000000" stroke-width="2" stroke-linecap="round" stroke-miterlimit="10" d="M42,23
		c0,0,4.8260307,1.4209824,3,6s-5.3379135,0.6065102-3-1c1.4475441-0.994688,6.1620178,2.192564,0,7"/>
	<path fill="none" stroke="#000000" stroke-width="2" stroke-linecap="round" stroke-miterlimit="10" d="M26.9114513,19.2297726
		c0,0-0.8583012-1.7819386-3.009737-1.8058434c-3.3859558-0.0376205-4.8387146,4.7536469-0.8502445,6.1246834
		c6.1798363,2.1243191,3.9451637,7.0902596,0.9104214,7.1178474c-2.5380421,0.0230732-3.5663185-1.7278595-3.6773663-1.9777222"/>
	
		<line fill="none" stroke="#000000" stroke-width="2" stroke-linecap="round" stroke-miterlimit="10" x1="23.7859116" y1="15.2650852" x2="23.8642025" y2="32.8902931"/>
</g>
<g id="save">
</g>
<g id="cash">
</g>
<g id="report">
</g>
<g id="report-1">
</g>
<g id="bank-1">
</g>
<g id="locker">
</g>
<g id="bank-2">
</g>
<g id="bank">
</g>
<g id="shopping-bag_1_">
</g>
<g id="card-cart_1_">
</g>
<g id="fill-cart">
</g>
<g id="cart">
</g>
<g id="card-reload">
</g>
<g id="card-unloack">
</g>
<g id="card-lock">
</g>
<g id="card-close">
</g>
<g id="card-pass">
</g>
<g id="signature">
</g>
<g id="secreat-number">
</g>
<g id="credit-card">
</g>
<g id="amex-card">
</g>
<g id="visa-card">
</g>
<g id="brocken-card">
</g>
<g id="code-card">
</g>
<g id="card">
</g>
<g id="single-delivery">
</g>
<g id="delivery">
</g>
<g id="vehicle">
</g>
<g id="truck">
</g>
<g id="hundred">
</g>
<g id="percentage">
</g>
<g id="offer-dollar">
</g>
<g id="dollar_1_">
</g>
<g id="dollar-out">
</g>
<g id="dollar-in">
</g>
<g id="money-exchange-2">
</g>
<g id="money-exchange">
</g>
<g id="money-rotate-2">
</g>
<g id="money-rotate">
</g>
<g id="mocey-bag">
</g>
<g id="currency-ten">
</g>
<g id="currency-one">
</g>
<g id="currency-head">
</g>
<g id="currency-bitcoin">
</g>
<g id="currency_2_">
</g>
<g id="currency_1_">
</g>
<g id="currency-2">
</g>
<g id="coin-4_1_">
</g>
<g id="coin-3">
</g>
<g id="coin-1">
</g>
<g id="coin-2">
</g>
<g id="coins-s">
</g>
<g id="doller-q-2">
</g>
<g id="coins-q">
</g>
<g id="dollers-2">
</g>
<g id="dollers-1">
</g>
<g id="dollers">
</g>
<g id="dollar">
</g>
<g id="coins">
</g>
<g id="coin">
</g>
<g id="offer-bag">
</g>
<g id="shopping-bag">
</g>
<g id="s-calculater">
</g>
<g id="calculater">
</g>
<g id="into-divider">
</g>
<g id="add-minus">
</g>
<g id="digital-calculater">
</g>
<g id="adding">
</g>
<g id="galexy">
</g>
<g id="abacus">
</g>
<g id="coin-4">
</g>
<g id="bitcoin">
</g>
<g id="currency">
</g>
<g id="currency-100">
</g>
<g id="dollar-bag">
</g>
<g id="files">
</g>
<g id="files-2">
</g>
</svg>
