<?xml version="1.0" encoding="utf-8"?>
<!-- Generator: Adobe Illustrator 18.0.0, SVG Export Plug-In . SVG Version: 6.00 Build 0)  -->
<!DOCTYPE svg PUBLIC "-//W3C//DTD SVG 1.1//EN" "http://www.w3.org/Graphics/SVG/1.1/DTD/svg11.dtd">
<svg version="1.1" xmlns="http://www.w3.org/2000/svg" xmlns:xlink="http://www.w3.org/1999/xlink" x="0px" y="0px"
	 viewBox="0 0 48 48" enable-background="new 0 0 48 48" xml:space="preserve">
<g id="Layer_1">
	<g display="none">
	</g>
</g>
<g id="eye-close">
</g>
<g id="eye-reader">
</g>
<g id="thump-block">
</g>
<g id="thump-locker">
</g>
<g id="locker-block">
</g>
<g id="locker-large">
</g>
<g id="locker-no">
</g>
<g id="locker-2">
</g>
<g id="partsal-2">
</g>
<g id="partsal">
</g>
<g id="wallet-close">
</g>
<g id="wallet-check">
</g>
<g id="wallet-notify">
</g>
<g id="wallet-add">
</g>
<g id="wallet-1">
</g>
<g id="wallet">
</g>
<g id="files-3">
</g>
<g id="dollar-bill">
</g>
<g id="report-up">
</g>
<g id="report-down">
</g>
<g id="progress-bar-1">
</g>
<g id="progres-bar">
</g>
<g id="save-dollar">
</g>
<g id="save">
</g>
<g id="cash">
</g>
<g id="report">
</g>
<g id="report-1">
</g>
<g id="bank-1">
	<path fill="none" stroke="#000000" stroke-width="2" stroke-linecap="round" stroke-linejoin="round" stroke-miterlimit="10" d="
		M13,40v-2h-0.0000019C11.8954296,38,11,37.1045723,11,36.0000038V20.9999981C11,19.8954296,11.8954296,19,12.9999981,19H13v-2"/>
	<path fill="none" stroke="#000000" stroke-width="2" stroke-linecap="round" stroke-linejoin="round" stroke-miterlimit="10" d="
		M5,17v2h0.0000019C6.1045704,19,7,19.8954296,7,20.9999981v15.0000057C7,37.1045723,6.1045704,38,5.0000019,38H5v2"/>
	<path fill="none" stroke="#000000" stroke-width="2" stroke-linecap="round" stroke-linejoin="round" stroke-miterlimit="10" d="
		M28,40v-2h-0.0000019C26.8954296,38,26,37.1045723,26,36.0000038V20.9999981C26,19.8954296,26.8954296,19,27.9999981,19H28v-2"/>
	<path fill="none" stroke="#000000" stroke-width="2" stroke-linecap="round" stroke-linejoin="round" stroke-miterlimit="10" d="
		M20,17v2h0.0000019C21.1045704,19,22,19.8954296,22,20.9999981v15.0000057C22,37.1045723,21.1045704,38,20.0000019,38H20v2"/>
	<path fill="none" stroke="#000000" stroke-width="2" stroke-linecap="round" stroke-linejoin="round" stroke-miterlimit="10" d="
		M43,40v-2h-0.0000038C41.8954315,38,41,37.1045723,41,36.0000038V20.9999981C41,19.8954296,41.8954315,19,42.9999962,19H43v-2"/>
	<path fill="none" stroke="#000000" stroke-width="2" stroke-linecap="round" stroke-linejoin="round" stroke-miterlimit="10" d="
		M35,17v2h0.0000038C36.1045685,19,37,19.8954296,37,20.9999981v15.0000057C37,37.1045723,36.1045685,38,35.0000038,38H35v2"/>
	
		<polyline fill="none" stroke="#000000" stroke-width="2" stroke-linecap="round" stroke-linejoin="round" stroke-miterlimit="10" points="
		2,45 2,41 45,41 45,45 	"/>
	
		<polygon fill="none" stroke="#000000" stroke-width="2" stroke-linecap="round" stroke-linejoin="round" stroke-miterlimit="10" points="
		45,16 2,16 2,11 23.9999294,6 45,11 	"/>
</g>
<g id="locker">
</g>
<g id="bank-2">
</g>
<g id="bank">
</g>
<g id="shopping-bag_1_">
</g>
<g id="card-cart_1_">
</g>
<g id="fill-cart">
</g>
<g id="cart">
</g>
<g id="card-reload">
</g>
<g id="card-unloack">
</g>
<g id="card-lock">
</g>
<g id="card-close">
</g>
<g id="card-pass">
</g>
<g id="signature">
</g>
<g id="secreat-number">
</g>
<g id="credit-card">
</g>
<g id="amex-card">
</g>
<g id="visa-card">
</g>
<g id="brocken-card">
</g>
<g id="code-card">
</g>
<g id="card">
</g>
<g id="single-delivery">
</g>
<g id="delivery">
</g>
<g id="vehicle">
</g>
<g id="truck">
</g>
<g id="hundred">
</g>
<g id="percentage">
</g>
<g id="offer-dollar">
</g>
<g id="dollar_1_">
</g>
<g id="dollar-out">
</g>
<g id="dollar-in">
</g>
<g id="money-exchange-2">
</g>
<g id="money-exchange">
</g>
<g id="money-rotate-2">
</g>
<g id="money-rotate">
</g>
<g id="mocey-bag">
</g>
<g id="currency-ten">
</g>
<g id="currency-one">
</g>
<g id="currency-head">
</g>
<g id="currency-bitcoin">
</g>
<g id="currency_2_">
</g>
<g id="currency_1_">
</g>
<g id="currency-2">
</g>
<g id="coin-4_1_">
</g>
<g id="coin-3">
</g>
<g id="coin-1">
</g>
<g id="coin-2">
</g>
<g id="coins-s">
</g>
<g id="doller-q-2">
</g>
<g id="coins-q">
</g>
<g id="dollers-2">
</g>
<g id="dollers-1">
</g>
<g id="dollers">
</g>
<g id="dollar">
</g>
<g id="coins">
</g>
<g id="coin">
</g>
<g id="offer-bag">
</g>
<g id="shopping-bag">
</g>
<g id="s-calculater">
</g>
<g id="calculater">
</g>
<g id="into-divider">
</g>
<g id="add-minus">
</g>
<g id="digital-calculater">
</g>
<g id="adding">
</g>
<g id="galexy">
</g>
<g id="abacus">
</g>
<g id="coin-4">
</g>
<g id="bitcoin">
</g>
<g id="currency">
</g>
<g id="currency-100">
</g>
<g id="dollar-bag">
</g>
<g id="files">
</g>
<g id="files-2">
</g>
</svg>
