<?xml version="1.0" encoding="utf-8"?>
<!-- Generator: Adobe Illustrator 18.0.0, SVG Export Plug-In . SVG Version: 6.00 Build 0)  -->
<!DOCTYPE svg PUBLIC "-//W3C//DTD SVG 1.1//EN" "http://www.w3.org/Graphics/SVG/1.1/DTD/svg11.dtd">
<svg version="1.1" xmlns="http://www.w3.org/2000/svg" xmlns:xlink="http://www.w3.org/1999/xlink" x="0px" y="0px"
	 viewBox="0 0 48 48" enable-background="new 0 0 48 48" xml:space="preserve">
<g id="Layer_1">
	<g display="none">
	</g>
</g>
<g id="eye-close">
</g>
<g id="eye-reader">
</g>
<g id="thump-block">
</g>
<g id="thump-locker">
</g>
<g id="locker-block">
</g>
<g id="locker-large">
</g>
<g id="locker-no">
</g>
<g id="locker-2">
</g>
<g id="partsal-2">
</g>
<g id="partsal">
</g>
<g id="wallet-close">
</g>
<g id="wallet-check">
</g>
<g id="wallet-notify">
</g>
<g id="wallet-add">
</g>
<g id="wallet-1">
</g>
<g id="wallet">
</g>
<g id="files-3">
</g>
<g id="dollar-bill">
</g>
<g id="report-up">
</g>
<g id="report-down">
</g>
<g id="progress-bar-1">
</g>
<g id="progres-bar">
</g>
<g id="save-dollar">
</g>
<g id="save">
</g>
<g id="cash">
</g>
<g id="report">
</g>
<g id="report-1">
</g>
<g id="bank-1">
</g>
<g id="locker">
</g>
<g id="bank-2">
</g>
<g id="bank">
	
		<line fill="none" stroke="#000000" stroke-width="2" stroke-linecap="round" stroke-miterlimit="10" x1="9" y1="8" x2="9" y2="45"/>
	
		<line fill="none" stroke="#000000" stroke-width="2" stroke-linecap="round" stroke-miterlimit="10" x1="13" y1="8" x2="13" y2="45"/>
	
		<line fill="none" stroke="#000000" stroke-width="2" stroke-linecap="round" stroke-miterlimit="10" x1="17" y1="8" x2="17" y2="45"/>
	
		<line fill="none" stroke="#000000" stroke-width="2" stroke-linecap="round" stroke-miterlimit="10" x1="21" y1="8" x2="21" y2="45"/>
	
		<line fill="none" stroke="#000000" stroke-width="2" stroke-linecap="round" stroke-miterlimit="10" x1="25" y1="8" x2="25" y2="45"/>
	<path fill="none" stroke="#000000" stroke-width="2" stroke-linecap="round" stroke-miterlimit="10" d="M5,46V9
		c0-1.1045694,0.8954306-2,2-2h20c1.1045704,0,2,0.8954306,2,2v37"/>
	
		<line fill="none" stroke="#000000" stroke-width="2" stroke-linecap="round" stroke-miterlimit="10" x1="2" y1="46" x2="46" y2="46"/>
	
		<polyline fill="none" stroke="#000000" stroke-width="2" stroke-linecap="round" stroke-linejoin="round" stroke-miterlimit="10" points="
		12.833333,7 12.833333,4 22,4 22,7 	"/>
	
		<line fill="none" stroke="#000000" stroke-width="2" stroke-linecap="round" stroke-linejoin="round" stroke-miterlimit="10" x1="17" y1="1" x2="17" y2="3"/>
	<path fill="none" stroke="#000000" stroke-width="2" stroke-linecap="round" stroke-linejoin="round" stroke-miterlimit="10" d="
		M44,28.5c0-0.1712646-0.0266724-0.3353271-0.050415-0.5C43.9733276,27.8353271,44,27.6712646,44,27.5
		c0-1.1182251-0.5341187-2.102478-1.3504028-2.7432251C42.8667603,24.3862915,43,23.9604492,43,23.5
		c0-1.0784912-0.6865845-1.9890137-1.6435547-2.3397217C41.7521973,20.7180176,42,20.1401978,42,19.5
		c0-1.3807373-1.1192627-2.5-2.5-2.5S37,18.1192627,37,19.5c0,1.0784302,0.6865845,1.9890137,1.6435547,2.3397217
		C38.5933838,21.895752,38.5450439,21.953186,38.5,22.0136719C38.0442505,21.4016724,37.3216553,21,36.5,21
		c-1.3807373,0-2.5,1.1192627-2.5,2.5c0,0.7160645,0.3049316,1.3574829,0.7874146,1.8132935
		C34.3024902,25.9139404,34,26.6679077,34,27.5c0,0.7607422,0.2489624,1.4595337,0.6611938,2.0336914
		C33.6673584,30.1511841,33,31.2438965,33,32.5c0,1.9329834,1.5670166,3.5,3.5,3.5
		c0.47052,0,0.9179688-0.0958862,1.3278198-0.2642822C38.4698486,36.5021973,39.421936,37,40.5,37
		c1.9329834,0,3.5-1.5670166,3.5-3.5c0-0.9807129-0.4057617-1.864563-1.055603-2.5C43.5942383,30.364563,44,29.4807129,44,28.5z"/>
	
		<line fill="none" stroke="#000000" stroke-width="2" stroke-linecap="round" stroke-linejoin="round" stroke-miterlimit="10" x1="39" y1="37" x2="39" y2="46"/>
	<path fill="none" stroke="#000000" stroke-width="2" stroke-linecap="round" stroke-linejoin="round" stroke-miterlimit="10" d="
		M37,30c0,0-0.5833321,1.583334,1,2"/>
	<path fill="none" stroke="#000000" stroke-width="2" stroke-linecap="round" stroke-linejoin="round" stroke-miterlimit="10" d="
		M39,26c0,0,0.5,0.125,1,1"/>
</g>
<g id="shopping-bag_1_">
</g>
<g id="card-cart_1_">
</g>
<g id="fill-cart">
</g>
<g id="cart">
</g>
<g id="card-reload">
</g>
<g id="card-unloack">
</g>
<g id="card-lock">
</g>
<g id="card-close">
</g>
<g id="card-pass">
</g>
<g id="signature">
</g>
<g id="secreat-number">
</g>
<g id="credit-card">
</g>
<g id="amex-card">
</g>
<g id="visa-card">
</g>
<g id="brocken-card">
</g>
<g id="code-card">
</g>
<g id="card">
</g>
<g id="single-delivery">
</g>
<g id="delivery">
</g>
<g id="vehicle">
</g>
<g id="truck">
</g>
<g id="hundred">
</g>
<g id="percentage">
</g>
<g id="offer-dollar">
</g>
<g id="dollar_1_">
</g>
<g id="dollar-out">
</g>
<g id="dollar-in">
</g>
<g id="money-exchange-2">
</g>
<g id="money-exchange">
</g>
<g id="money-rotate-2">
</g>
<g id="money-rotate">
</g>
<g id="mocey-bag">
</g>
<g id="currency-ten">
</g>
<g id="currency-one">
</g>
<g id="currency-head">
</g>
<g id="currency-bitcoin">
</g>
<g id="currency_2_">
</g>
<g id="currency_1_">
</g>
<g id="currency-2">
</g>
<g id="coin-4_1_">
</g>
<g id="coin-3">
</g>
<g id="coin-1">
</g>
<g id="coin-2">
</g>
<g id="coins-s">
</g>
<g id="doller-q-2">
</g>
<g id="coins-q">
</g>
<g id="dollers-2">
</g>
<g id="dollers-1">
</g>
<g id="dollers">
</g>
<g id="dollar">
</g>
<g id="coins">
</g>
<g id="coin">
</g>
<g id="offer-bag">
</g>
<g id="shopping-bag">
</g>
<g id="s-calculater">
</g>
<g id="calculater">
</g>
<g id="into-divider">
</g>
<g id="add-minus">
</g>
<g id="digital-calculater">
</g>
<g id="adding">
</g>
<g id="galexy">
</g>
<g id="abacus">
</g>
<g id="coin-4">
</g>
<g id="bitcoin">
</g>
<g id="currency">
</g>
<g id="currency-100">
</g>
<g id="dollar-bag">
</g>
<g id="files">
</g>
<g id="files-2">
</g>
</svg>
