<?xml version="1.0" encoding="utf-8"?>
<!-- Generator: Adobe Illustrator 18.0.0, SVG Export Plug-In . SVG Version: 6.00 Build 0)  -->
<!DOCTYPE svg PUBLIC "-//W3C//DTD SVG 1.1//EN" "http://www.w3.org/Graphics/SVG/1.1/DTD/svg11.dtd">
<svg version="1.1" xmlns="http://www.w3.org/2000/svg" xmlns:xlink="http://www.w3.org/1999/xlink" x="0px" y="0px"
	 viewBox="0 0 48 48" enable-background="new 0 0 48 48" xml:space="preserve">
<g id="Layer_1">
	<g display="none">
	</g>
</g>
<g id="eye-close">
</g>
<g id="eye-reader">
</g>
<g id="thump-block">
</g>
<g id="thump-locker">
</g>
<g id="locker-block">
</g>
<g id="locker-large">
</g>
<g id="locker-no">
</g>
<g id="locker-2">
</g>
<g id="partsal-2">
</g>
<g id="partsal">
</g>
<g id="wallet-close">
</g>
<g id="wallet-check">
</g>
<g id="wallet-notify">
</g>
<g id="wallet-add">
</g>
<g id="wallet-1">
</g>
<g id="wallet">
</g>
<g id="files-3">
</g>
<g id="dollar-bill">
</g>
<g id="report-up">
</g>
<g id="report-down">
</g>
<g id="progress-bar-1">
</g>
<g id="progres-bar">
</g>
<g id="save-dollar">
</g>
<g id="save">
</g>
<g id="cash">
</g>
<g id="report">
</g>
<g id="report-1">
</g>
<g id="bank-1">
</g>
<g id="locker">
</g>
<g id="bank-2">
</g>
<g id="bank">
</g>
<g id="shopping-bag_1_">
</g>
<g id="card-cart_1_">
</g>
<g id="fill-cart">
</g>
<g id="cart">
</g>
<g id="card-reload">
</g>
<g id="card-unloack">
</g>
<g id="card-lock">
</g>
<g id="card-close">
</g>
<g id="card-pass">
</g>
<g id="signature">
	<path fill="none" stroke="#000000" stroke-width="2" stroke-linecap="round" stroke-miterlimit="10" d="M41,41H6
		c-2.2091391,0-4-1.7908592-4-4V14c0-2.2091389,1.7908609-4,4-4h35c2.2091408,0,4,1.7908611,4,4v23
		C45,39.2091408,43.2091408,41,41,41z"/>
	
		<line fill="none" stroke="#000000" stroke-width="2" stroke-linecap="round" stroke-miterlimit="10" x1="3" y1="19" x2="45" y2="19"/>
	<path fill="none" stroke="#000000" stroke-width="2" stroke-linecap="round" stroke-linejoin="round" stroke-miterlimit="10" d="
		M22.485569,30.0227032c1.6012173-0.5810318,3.093195-1.4615517,4.3757915-2.5824585
		c0.0999069,0.9944572,0.1981163,5.0137463-0.0523605,5.9813137s-0.9258957,1.8886795-1.8924904,2.1428833
		c-0.7733898,0.2033958-1.5875416-0.0417023-2.341692-0.3077126c1.6889076-0.7992897,3.3778152-1.5985794,5.0667248-2.3978691
		c0.6176281,0.4417648,1.5399284,0.112915,1.995369-0.4946976c0.4554424-0.6076145,0.5663033-1.3982754,0.6625271-2.1515102
		c0.5879898,1.0082016,0.9695644,2.1361904,1.1143913,3.2943058c0.3259525,0.0081062,0.616478-0.2339783,0.7643471-0.5245743
		s0.1815033-0.623951,0.2126617-0.948513c0.1510277-1.5731125,0.3020554-3.1462269,0.453083-4.7193413
		c-0.0914764,2.0808411,0.0898819,4.1735153,0.5379753,6.2075958c0.7858734-0.4469528,1.4153366-1.1630745,1.7577934-1.9997864
		c1.5498085-0.5765648,3.099617-1.1531277,4.6494293-1.7296906"/>
</g>
<g id="secreat-number">
</g>
<g id="credit-card">
</g>
<g id="amex-card">
</g>
<g id="visa-card">
</g>
<g id="brocken-card">
</g>
<g id="code-card">
</g>
<g id="card">
</g>
<g id="single-delivery">
</g>
<g id="delivery">
</g>
<g id="vehicle">
</g>
<g id="truck">
</g>
<g id="hundred">
</g>
<g id="percentage">
</g>
<g id="offer-dollar">
</g>
<g id="dollar_1_">
</g>
<g id="dollar-out">
</g>
<g id="dollar-in">
</g>
<g id="money-exchange-2">
</g>
<g id="money-exchange">
</g>
<g id="money-rotate-2">
</g>
<g id="money-rotate">
</g>
<g id="mocey-bag">
</g>
<g id="currency-ten">
</g>
<g id="currency-one">
</g>
<g id="currency-head">
</g>
<g id="currency-bitcoin">
</g>
<g id="currency_2_">
</g>
<g id="currency_1_">
</g>
<g id="currency-2">
</g>
<g id="coin-4_1_">
</g>
<g id="coin-3">
</g>
<g id="coin-1">
</g>
<g id="coin-2">
</g>
<g id="coins-s">
</g>
<g id="doller-q-2">
</g>
<g id="coins-q">
</g>
<g id="dollers-2">
</g>
<g id="dollers-1">
</g>
<g id="dollers">
</g>
<g id="dollar">
</g>
<g id="coins">
</g>
<g id="coin">
</g>
<g id="offer-bag">
</g>
<g id="shopping-bag">
</g>
<g id="s-calculater">
</g>
<g id="calculater">
</g>
<g id="into-divider">
</g>
<g id="add-minus">
</g>
<g id="digital-calculater">
</g>
<g id="adding">
</g>
<g id="galexy">
</g>
<g id="abacus">
</g>
<g id="coin-4">
</g>
<g id="bitcoin">
</g>
<g id="currency">
</g>
<g id="currency-100">
</g>
<g id="dollar-bag">
</g>
<g id="files">
</g>
<g id="files-2">
</g>
</svg>
