<?xml version="1.0" encoding="utf-8"?>
<!-- Generator: Adobe Illustrator 18.0.0, SVG Export Plug-In . SVG Version: 6.00 Build 0)  -->
<!DOCTYPE svg PUBLIC "-//W3C//DTD SVG 1.1//EN" "http://www.w3.org/Graphics/SVG/1.1/DTD/svg11.dtd">
<svg version="1.1" xmlns="http://www.w3.org/2000/svg" xmlns:xlink="http://www.w3.org/1999/xlink" x="0px" y="0px"
	 viewBox="0 0 48 48" enable-background="new 0 0 48 48" xml:space="preserve">
<g id="Layer_1">
	<g display="none">
	</g>
</g>
<g id="eye-close">
</g>
<g id="eye-reader">
</g>
<g id="thump-block">
</g>
<g id="thump-locker">
</g>
<g id="locker-block">
</g>
<g id="locker-large">
</g>
<g id="locker-no">
</g>
<g id="locker-2">
</g>
<g id="partsal-2">
</g>
<g id="partsal">
</g>
<g id="wallet-close">
</g>
<g id="wallet-check">
</g>
<g id="wallet-notify">
</g>
<g id="wallet-add">
</g>
<g id="wallet-1">
</g>
<g id="wallet">
</g>
<g id="files-3">
</g>
<g id="dollar-bill">
</g>
<g id="report-up">
</g>
<g id="report-down">
</g>
<g id="progress-bar-1">
</g>
<g id="progres-bar">
</g>
<g id="save-dollar">
</g>
<g id="save">
</g>
<g id="cash">
</g>
<g id="report">
</g>
<g id="report-1">
</g>
<g id="bank-1">
</g>
<g id="locker">
</g>
<g id="bank-2">
</g>
<g id="bank">
</g>
<g id="shopping-bag_1_">
</g>
<g id="card-cart_1_">
</g>
<g id="fill-cart">
</g>
<g id="cart">
</g>
<g id="card-reload">
</g>
<g id="card-unloack">
</g>
<g id="card-lock">
</g>
<g id="card-close">
</g>
<g id="card-pass">
</g>
<g id="signature">
</g>
<g id="secreat-number">
</g>
<g id="credit-card">
</g>
<g id="amex-card">
</g>
<g id="visa-card">
</g>
<g id="brocken-card">
</g>
<g id="code-card">
</g>
<g id="card">
</g>
<g id="single-delivery">
</g>
<g id="delivery">
</g>
<g id="vehicle">
</g>
<g id="truck">
</g>
<g id="hundred">
</g>
<g id="percentage">
</g>
<g id="offer-dollar">
</g>
<g id="dollar_1_">
</g>
<g id="dollar-out">
</g>
<g id="dollar-in">
</g>
<g id="money-exchange-2">
</g>
<g id="money-exchange">
</g>
<g id="money-rotate-2">
</g>
<g id="money-rotate">
</g>
<g id="mocey-bag">
</g>
<g id="currency-ten">
</g>
<g id="currency-one">
</g>
<g id="currency-head">
</g>
<g id="currency-bitcoin">
</g>
<g id="currency_2_">
</g>
<g id="currency_1_">
</g>
<g id="currency-2">
</g>
<g id="coin-4_1_">
</g>
<g id="coin-3">
</g>
<g id="coin-1">
</g>
<g id="coin-2">
</g>
<g id="coins-s">
</g>
<g id="doller-q-2">
</g>
<g id="coins-q">
	
		<ellipse fill="none" stroke="#000000" stroke-width="2" stroke-linecap="round" stroke-linejoin="round" stroke-miterlimit="10" cx="17" cy="4" rx="10" ry="1.7647059"/>
	<path fill="none" stroke="#000000" stroke-width="2" stroke-linecap="round" stroke-linejoin="round" stroke-miterlimit="10" d="
		M27,5v3c0,0.9746199-4.4771519,1.7647057-10,1.7647057S7,8.9746199,7,8V5"/>
	<path fill="none" stroke="#000000" stroke-width="2" stroke-linecap="round" stroke-linejoin="round" stroke-miterlimit="10" d="
		M27,8c0,0.9746199-4.4771519,1.7647057-10,1.7647057S7,8.9746199,7,8"/>
	<path fill="none" stroke="#000000" stroke-width="2" stroke-linecap="round" stroke-linejoin="round" stroke-miterlimit="10" d="
		M26,9v3c0,0.9746199-4.4771519,1.7647057-10,1.7647057S6,12.9746199,6,12V9"/>
	<path fill="none" stroke="#000000" stroke-width="2" stroke-linecap="round" stroke-linejoin="round" stroke-miterlimit="10" d="
		M26,12c0,0.9746199-4.4771519,1.7647057-10,1.7647057S6,12.9746199,6,12"/>
	<path fill="none" stroke="#000000" stroke-width="2" stroke-linecap="round" stroke-linejoin="round" stroke-miterlimit="10" d="
		M27,13v3c0,0.9746208-4.4771519,1.7647057-10,1.7647057S7,16.9746208,7,16v-3"/>
	<path fill="none" stroke="#000000" stroke-width="2" stroke-linecap="round" stroke-linejoin="round" stroke-miterlimit="10" d="
		M27,16c0,0.9746208-4.4771519,1.7647057-10,1.7647057S7,16.9746208,7,16"/>
	<path fill="none" stroke="#000000" stroke-width="2" stroke-linecap="round" stroke-linejoin="round" stroke-miterlimit="10" d="
		M26,17v3c0,0.9746208-4.4771519,1.7647057-10,1.7647057S6,20.9746208,6,20v-3"/>
	<path fill="none" stroke="#000000" stroke-width="2" stroke-linecap="round" stroke-linejoin="round" stroke-miterlimit="10" d="
		M27.1259079,26.912056C28.9565048,26.5000324,31.8030586,26.2352943,35,26.2352943c5.5228462,0,10,0.7900848,10,1.7647057
		s-4.4771538,1.7647057-10,1.7647057c-3.818531,0-7.1371765-0.3776951-8.8217621-0.9329357"/>
	<path fill="none" stroke="#000000" stroke-width="2" stroke-linecap="round" stroke-linejoin="round" stroke-miterlimit="10" d="
		M25,29"/>
	<path fill="none" stroke="#000000" stroke-width="2" stroke-linecap="round" stroke-linejoin="round" stroke-miterlimit="10" d="
		M26.1818085,32.8016968C27.8675117,33.3562927,31.184166,33.7490807,35,33.7490807c5.5228462,0,10-0.7744598,10-1.7490807v-3"/>
	<path fill="none" stroke="#000000" stroke-width="2" stroke-linecap="round" stroke-linejoin="round" stroke-miterlimit="10" d="
		M24,33"/>
	<path fill="none" stroke="#000000" stroke-width="2" stroke-linecap="round" stroke-linejoin="round" stroke-miterlimit="10" d="
		M44,33v3c0,0.9746208-4.4771538,1.7647057-10,1.7647057c-3.796957,0-7.0996609-0.3734398-8.7930546-0.923542"/>
	<path fill="none" stroke="#000000" stroke-width="2" stroke-linecap="round" stroke-linejoin="round" stroke-miterlimit="10" d="
		M25,37"/>
	<path fill="none" stroke="#000000" stroke-width="2" stroke-linecap="round" stroke-linejoin="round" stroke-miterlimit="10" d="
		M45,37v3c0,0.9746208-4.4771538,1.7647057-10,1.7647057S25,40.9746208,25,40"/>
	<path fill="none" stroke="#000000" stroke-width="2" stroke-linecap="round" stroke-linejoin="round" stroke-miterlimit="10" d="
		M24,41"/>
	<path fill="none" stroke="#000000" stroke-width="2" stroke-linecap="round" stroke-linejoin="round" stroke-miterlimit="10" d="
		M44,41v3c0,0.9746208-4.4771538,1.7647057-10,1.7647057S24,44.9746208,24,44"/>
	<path fill="none" stroke="#000000" stroke-width="2" stroke-linecap="round" stroke-linejoin="round" stroke-miterlimit="10" d="
		M26,20c0,0.9746208-4.4771519,1.7647057-10,1.7647057S6,20.9746208,6,20"/>
	<path fill="none" stroke="#000000" stroke-width="2" stroke-linecap="round" stroke-linejoin="round" stroke-miterlimit="10" d="
		M26,21v3c0,0.9746208-4.4771519,1.7647057-10,1.7647057S6,24.9746208,6,24v-3"/>
	<path fill="none" stroke="#000000" stroke-width="2" stroke-linecap="round" stroke-linejoin="round" stroke-miterlimit="10" d="
		M26,24c0,0.9746208-4.4771519,1.7647057-10,1.7647057S6,24.9746208,6,24"/>
	<path fill="none" stroke="#000000" stroke-width="2" stroke-linecap="round" stroke-linejoin="round" stroke-miterlimit="10" d="
		M27,25v3c0,0.9746208-4.4771519,1.7647057-10,1.7647057S7,28.9746208,7,28v-3"/>
	<path fill="none" stroke="#000000" stroke-width="2" stroke-linecap="round" stroke-linejoin="round" stroke-miterlimit="10" d="
		M27,28c0,0.9746208-4.4771519,1.7647057-10,1.7647057S7,28.9746208,7,28"/>
	<path fill="none" stroke="#000000" stroke-width="2" stroke-linecap="round" stroke-linejoin="round" stroke-miterlimit="10" d="
		M27,29v3c0,0.9746208-4.4771519,1.7647057-10,1.7647057S7,32.9746208,7,32v-3"/>
	<path fill="none" stroke="#000000" stroke-width="2" stroke-linecap="round" stroke-linejoin="round" stroke-miterlimit="10" d="
		M27,32c0,0.9746208-4.4771519,1.7647057-10,1.7647057S7,32.9746208,7,32"/>
	<path fill="none" stroke="#000000" stroke-width="2" stroke-linecap="round" stroke-linejoin="round" stroke-miterlimit="10" d="
		M26,33v3c0,0.9746208-4.4771519,1.7647057-10,1.7647057S6,36.9746208,6,36v-3"/>
	<path fill="none" stroke="#000000" stroke-width="2" stroke-linecap="round" stroke-linejoin="round" stroke-miterlimit="10" d="
		M26,36c0,0.9746208-4.4771519,1.7647057-10,1.7647057S6,36.9746208,6,36"/>
	<path fill="none" stroke="#000000" stroke-width="2" stroke-linecap="round" stroke-linejoin="round" stroke-miterlimit="10" d="
		M25,37v3c0,0.9746208-4.4771519,1.7647057-10,1.7647057S5,40.9746208,5,40v-3"/>
	<path fill="none" stroke="#000000" stroke-width="2" stroke-linecap="round" stroke-linejoin="round" stroke-miterlimit="10" d="
		M25,40c0,0.9746208-4.4771519,1.7647057-10,1.7647057S5,40.9746208,5,40"/>
	<path fill="none" stroke="#000000" stroke-width="2" stroke-linecap="round" stroke-linejoin="round" stroke-miterlimit="10" d="
		M24,41v3c0,0.9746208-4.4771519,1.7647057-10,1.7647057S4,44.9746208,4,44v-3"/>
	<path fill="none" stroke="#000000" stroke-width="2" stroke-linecap="round" stroke-linejoin="round" stroke-miterlimit="10" d="
		M24,44c0,0.9746208-4.4771519,1.7647057-10,1.7647057S4,44.9746208,4,44"/>
</g>
<g id="dollers-2">
</g>
<g id="dollers-1">
</g>
<g id="dollers">
</g>
<g id="dollar">
</g>
<g id="coins">
</g>
<g id="coin">
</g>
<g id="offer-bag">
</g>
<g id="shopping-bag">
</g>
<g id="s-calculater">
</g>
<g id="calculater">
</g>
<g id="into-divider">
</g>
<g id="add-minus">
</g>
<g id="digital-calculater">
</g>
<g id="adding">
</g>
<g id="galexy">
</g>
<g id="abacus">
</g>
<g id="coin-4">
</g>
<g id="bitcoin">
</g>
<g id="currency">
</g>
<g id="currency-100">
</g>
<g id="dollar-bag">
</g>
<g id="files">
</g>
<g id="files-2">
</g>
</svg>
