<?xml version="1.0" encoding="utf-8"?>
<!-- Generator: Adobe Illustrator 18.0.0, SVG Export Plug-In . SVG Version: 6.00 Build 0)  -->
<!DOCTYPE svg PUBLIC "-//W3C//DTD SVG 1.1//EN" "http://www.w3.org/Graphics/SVG/1.1/DTD/svg11.dtd">
<svg version="1.1" xmlns="http://www.w3.org/2000/svg" xmlns:xlink="http://www.w3.org/1999/xlink" x="0px" y="0px"
	 viewBox="0 0 48 48" enable-background="new 0 0 48 48" xml:space="preserve">
<g id="Layer_1">
</g>
<g id="jug">
</g>
<g id="round-jug">
</g>
<g id="cook-hat">
</g>
<g id="plate">
</g>
<g id="dish">
</g>
<g id="cooker-3">
</g>
<g id="tea-port">
</g>
<g id="large-coffee">
</g>
<g id="coffee">
</g>
<g id="fish-2">
</g>
<g id="chicken">
</g>
<g id="rise">
</g>
<g id="bootle-3">
</g>
<g id="bottle-2">
</g>
<g id="bottle">
</g>
<g id="milk-2">
</g>
<g id="milk">
</g>
<g id="wine">
</g>
<g id="wine-biscuites">
</g>
<g id="larger-knife">
</g>
<g id="knife-3">
</g>
<g id="sticks">
</g>
<g id="brush">
</g>
<g id="knife">
</g>
<g id="spoons">
</g>
<g id="fork">
</g>
<g id="fish">
</g>
<g id="noodiles">
</g>
<g id="ice-cubs">
</g>
<g id="full-bear">
</g>
<g id="lime-juice">
</g>
<g id="corn-glass">
</g>
<g id="juice-straw_1_">
</g>
<g id="round-glass-2">
</g>
<g id="glass">
</g>
<g id="water">
</g>
<g id="juice-2">
</g>
<g id="bear-2">
</g>
<g id="roote-tomatto">
</g>
<g id="phot-pubs">
</g>
<g id="pubs">
</g>
<g id="cream-cake">
</g>
<g id="pista">
</g>
<g id="pistchios">
</g>
<g id="badam">
</g>
<g id="dryfrits">
</g>
<g id="cashews">
	<path fill="none" stroke="#0A0A0A" stroke-width="2" stroke-linejoin="round" stroke-miterlimit="10" d="M23.364563,13.6845703
		C20.4370518,13.6200123,17.5,14.8125,18.0624962,18.9151611c0.1972771,1.4388371,2.0672531,2.2763138,4.1957092,2.7104225
		c2.510437,0.5120163,4.5667286,2.3219776,5.2597237,4.7885971c0.5386925,1.9174042,1.45578,3.4809914,2.8466339,3.7316322
		c3.5358467,0.6371841,5.302124-2.3417969,5.302124-5.2306519C35.666687,22.0263672,32,13.875,23.364563,13.6845703z"/>
	<path fill="none" stroke="#0A0A0A" stroke-width="2" stroke-linejoin="round" stroke-miterlimit="10" d="M21.2047157,31.1094112
		c-0.3966217-2.9012375-2.0361481-5.6142159-5.9993038-4.413538c-1.3899107,0.4210873-1.9228973,2.399498-2.0168886,4.5697365
		c-0.110858,2.5597191-1.5749302,4.8750572-3.9018793,5.9473267c-1.8088341,0.833519-3.208746,1.9850807-3.237545,3.3980446
		c-0.0732136,3.5920563,3.1464624,4.8678856,5.9993725,4.4135895C14.9013214,44.570282,22.374649,39.6673508,21.2047157,31.1094112z
		"/>
	<path fill="none" stroke="#0A0A0A" stroke-width="2" stroke-linejoin="round" stroke-miterlimit="10" d="M41.932251,34.9186592
		c0.5158691-2.6151886-0.0940437-5.435585-3.8611641-5.5729675c-1.3211594-0.0481815-2.3647118,1.4977341-3.0869789,3.3385468
		c-0.8518867,2.1711731-2.7966805,3.7320366-5.1170673,3.9676132c-1.8037319,0.1831284-3.349369,0.7609329-3.7917175,1.9689941
		c-1.1245441,3.0711441,1.270586,5.1211014,3.8612099,5.5730286C32.5270996,44.6457939,40.4105682,42.6328239,41.932251,34.9186592z
		"/>
	<path fill="none" stroke="#0A0A0A" stroke-width="2" stroke-linejoin="round" stroke-miterlimit="10" d="M14.6853104,8.1950865
		c-0.3203783-2.3435297-1.6447363-4.5349903-4.8460503-3.5651193C8.7165327,4.970109,8.2860022,6.5682068,8.2100792,8.3212585
		c-0.0895472,2.0676622-1.2721796,3.9379206-3.1518173,4.8040657c-1.4611197,0.6732903-2.5919249,1.603488-2.6151881,2.7448349
		c-0.0591397,2.9015522,2.5416145,3.932127,4.846107,3.5651608C9.5936251,19.0683613,15.6303463,15.1079226,14.6853104,8.1950865z"
		/>
	<path fill="none" stroke="#0A0A0A" stroke-width="2" stroke-linejoin="round" stroke-miterlimit="10" d="M28.2640762,8.3662119
		c-1.9180946,1.3840837-3.2301598,3.5829258-0.8696709,5.9529781c0.8278446,0.8311968,2.4408112,0.4602423,4.0239201-0.296545
		c1.8672199-0.892602,4.0738544-0.7275677,5.7216969,0.5245752c1.2809334,0.9733429,2.633419,1.5343895,3.651825,1.0185747
		c2.5890083-1.3113098,2.2765427-4.0913057,0.8696823-5.9530478C40.2546959,7.7510438,33.9219818,4.283504,28.2640762,8.3662119z"/>
</g>
<g id="walnuts">
</g>
<g id="lime">
</g>
<g id="pomelo">
</g>
<g id="water-melon">
</g>
<g id="coconut">
</g>
<g id="avocado">
</g>
<g id="apple-2">
</g>
<g id="peach">
</g>
<g id="melon-slice">
</g>
<g id="village-aaple">
</g>
<g id="orange-2">
</g>
<g id="cooker">
</g>
<g id="cake-2">
</g>
<g id="root-food">
</g>
<g id="honey-ydew">
</g>
<g id="plum">
</g>
<g id="strawberry">
</g>
<g id="juice-straw">
</g>
<g id="carrote">
</g>
<g id="cake">
</g>
<g id="chena">
</g>
<g id="hotdogs">
</g>
<g id="banana">
</g>
<g id="melon">
</g>
<g id="grapes">
</g>
<g id="apple">
</g>
<g id="guava">
</g>
<g id="drop">
</g>
<g id="papper">
</g>
<g id="noodile">
</g>
<g id="burgger">
</g>
<g id="egg">
</g>
<g id="yoghurt">
</g>
<g id="juise-cup">
</g>
<g id="cup">
</g>
<g id="roll-slice">
</g>
<g id="fruit-bear">
</g>
<g id="round-glass">
</g>
<g id="pear">
</g>
<g id="orange">
</g>
<g id="corn-2">
</g>
<g id="corn-ice">
</g>
<g id="flavored">
</g>
<g id="ice-cream">
</g>
<g id="pomegranate">
</g>
<g id="flavored-cake">
</g>
<g id="cube-cake">
</g>
<g id="food-open">
</g>
<g id="food">
</g>
<g id="Layer_2">
</g>
<g id="knife-2">
</g>
<g id="juice">
</g>
<g id="food-close">
</g>
<g id="cooker-2">
</g>
</svg>
