<?xml version="1.0" encoding="utf-8"?>
<!-- Generator: Adobe Illustrator 18.0.0, SVG Export Plug-In . SVG Version: 6.00 Build 0)  -->
<!DOCTYPE svg PUBLIC "-//W3C//DTD SVG 1.1//EN" "http://www.w3.org/Graphics/SVG/1.1/DTD/svg11.dtd">
<svg version="1.1" xmlns="http://www.w3.org/2000/svg" xmlns:xlink="http://www.w3.org/1999/xlink" x="0px" y="0px"
	 viewBox="0 0 48 48" enable-background="new 0 0 48 48" xml:space="preserve">
<g id="Layer_1">
</g>
<g id="jug">
</g>
<g id="round-jug">
</g>
<g id="cook-hat">
</g>
<g id="plate">
</g>
<g id="dish">
</g>
<g id="cooker-3">
</g>
<g id="tea-port">
</g>
<g id="large-coffee">
</g>
<g id="coffee">
</g>
<g id="fish-2">
</g>
<g id="chicken">
</g>
<g id="rise">
</g>
<g id="bootle-3">
</g>
<g id="bottle-2">
</g>
<g id="bottle">
</g>
<g id="milk-2">
</g>
<g id="milk">
</g>
<g id="wine">
</g>
<g id="wine-biscuites">
</g>
<g id="larger-knife">
</g>
<g id="knife-3">
</g>
<g id="sticks">
</g>
<g id="brush">
</g>
<g id="knife">
</g>
<g id="spoons">
</g>
<g id="fork">
</g>
<g id="fish">
</g>
<g id="noodiles">
</g>
<g id="ice-cubs">
</g>
<g id="full-bear">
</g>
<g id="lime-juice">
</g>
<g id="corn-glass">
</g>
<g id="juice-straw_1_">
</g>
<g id="round-glass-2">
</g>
<g id="glass">
</g>
<g id="water">
</g>
<g id="juice-2">
</g>
<g id="bear-2">
</g>
<g id="roote-tomatto">
</g>
<g id="phot-pubs">
</g>
<g id="pubs">
</g>
<g id="cream-cake">
</g>
<g id="pista">
</g>
<g id="pistchios">
</g>
<g id="badam">
</g>
<g id="dryfrits">
</g>
<g id="cashews">
</g>
<g id="walnuts">
</g>
<g id="lime">
</g>
<g id="pomelo">
</g>
<g id="water-melon">
</g>
<g id="coconut">
</g>
<g id="avocado">
</g>
<g id="apple-2">
</g>
<g id="peach">
</g>
<g id="melon-slice">
</g>
<g id="village-aaple">
</g>
<g id="orange-2">
</g>
<g id="cooker">
</g>
<g id="cake-2">
</g>
<g id="root-food">
</g>
<g id="honey-ydew">
</g>
<g id="plum">
</g>
<g id="strawberry">
</g>
<g id="juice-straw">
</g>
<g id="carrote">
</g>
<g id="cake">
</g>
<g id="chena">
</g>
<g id="hotdogs">
</g>
<g id="banana">
</g>
<g id="melon">
</g>
<g id="grapes">
</g>
<g id="apple">
</g>
<g id="guava">
</g>
<g id="drop">
</g>
<g id="papper">
</g>
<g id="noodile">
</g>
<g id="burgger">
</g>
<g id="egg">
</g>
<g id="yoghurt">
</g>
<g id="juise-cup">
</g>
<g id="cup">
</g>
<g id="roll-slice">
</g>
<g id="fruit-bear">
</g>
<g id="round-glass">
</g>
<g id="pear">
</g>
<g id="orange">
</g>
<g id="corn-2">
</g>
<g id="corn-ice">
</g>
<g id="flavored">
</g>
<g id="ice-cream">
</g>
<g id="pomegranate">
	<g>
		<g>
			<path fill="none" stroke="#0A0A0A" stroke-width="2" stroke-linecap="round" stroke-miterlimit="10" d="M17.9613152,19.4265232
				l-4.6953077-4.6953077c-0.9405499-0.9405499-2.509552-0.7633743-3.2261076,0.3572569
				c-1.0381899,1.6236401-1.7996063,3.4396667-2.220612,5.3840961c-0.2776694,1.2824249,0.7228847,2.4913521,2.035027,2.4913521
				h6.6417618C18.3421726,22.9639206,19.2667027,20.7319107,17.9613152,19.4265232z"/>
			<path fill="none" stroke="#0A0A0A" stroke-width="2" stroke-linecap="round" stroke-miterlimit="10" d="M16.4960136,25.0360794
				H9.8543253c-1.3121481,0-2.312706,1.2089367-2.0350237,2.4913673c0.4210167,1.9443932,1.1824455,3.7603683,2.2206202,5.3839912
				c0.7165537,1.120636,2.2855577,1.2978096,3.2261076,0.3572617l4.6952229-4.6952229
				C19.2666397,27.2680893,18.3421097,25.0360794,16.4960136,25.0360794z"/>
			<path fill="none" stroke="#0A0A0A" stroke-width="2" stroke-linecap="round" stroke-miterlimit="10" d="M25.0360794,9.8543148
				v6.6417618c0,1.846096,2.2320099,2.7706261,3.5373974,1.4652386l4.6953068-4.6953077
				c0.9405518-0.9405499,0.7633743-2.509552-0.3572578-3.2261076c-1.6236382-1.0381899-3.4396648-1.7996063-5.3840942-2.220612
				C26.2450066,7.5416183,25.0360794,8.5421724,25.0360794,9.8543148z"/>
			<path fill="none" stroke="#0A0A0A" stroke-width="2" stroke-linecap="round" stroke-miterlimit="10" d="M22.9639206,16.4960766
				V9.8543148c0-1.3121424-1.2089272-2.3126965-2.4913521-2.035027c-1.9444294,0.4210057-3.7604561,1.1824222-5.3840961,2.220612
				c-1.1206312,0.7165556-1.2978067,2.2855577-0.3572569,3.2261076l4.6953077,4.6953077
				C20.7319107,19.2667027,22.9639206,18.3421726,22.9639206,16.4960766z"/>
			<path fill="none" stroke="#0A0A0A" stroke-width="2" stroke-linecap="round" stroke-miterlimit="10" d="M25.0360794,31.5039234
				v6.6417637c0,1.3121414,1.2089272,2.3126945,2.4913521,2.0350266c1.9444294-0.4210052,3.7604561-1.1824226,5.3840942-2.2206154
				c1.1206322-0.7165527,1.2978096-2.2855568,0.3572578-3.2261047l-4.6953068-4.6953087
				C27.2680893,28.7332973,25.0360794,29.6578274,25.0360794,31.5039234z"/>
			<path fill="none" stroke="#0A0A0A" stroke-width="2" stroke-linecap="round" stroke-miterlimit="10" d="M31.5039234,22.9639206
				h6.6417637c1.3121414,0,2.3126945-1.2089272,2.0350266-2.4913521c-0.4210052-1.9444294-1.1824226-3.7604561-2.2206154-5.3840961
				c-0.7165527-1.1206312-2.2855568-1.2978067-3.2261047-0.3572569l-4.6953087,4.6953077
				C28.7332973,20.7319107,29.6578274,22.9639206,31.5039234,22.9639206z"/>
			<path fill="none" stroke="#0A0A0A" stroke-width="2" stroke-linecap="round" stroke-miterlimit="10" d="M19.4265232,30.0386848
				l-4.6953077,4.6953087c-0.9405499,0.9405479-0.7633743,2.509552,0.3572569,3.2261047
				c1.6236401,1.0381927,3.4396667,1.7996101,5.3840961,2.2206154c1.2824249,0.277668,2.4913521-0.7228851,2.4913521-2.0350266
				v-6.6417637C22.9639206,29.6578274,20.7319107,28.7332973,19.4265232,30.0386848z"/>
			<path fill="none" stroke="#0A0A0A" stroke-width="2" stroke-linecap="round" stroke-miterlimit="10" d="M30.0387478,28.5734768
				l4.6952229,4.6952229c0.9405518,0.9405479,2.5095558,0.7633743,3.2261086-0.3572617
				c1.0381737-1.6236229,1.7996025-3.4395981,2.2206192-5.3839912c0.2776833-1.2824306-0.7228775-2.4913673-2.0350227-2.4913673
				h-6.6416893C29.6578903,25.0360794,28.7333603,27.2680893,30.0387478,28.5734768z"/>
		</g>
		<circle fill="none" stroke="#0A0A0A" stroke-width="2" stroke-linecap="round" stroke-miterlimit="10" cx="24" cy="24" r="21"/>
	</g>
</g>
<g id="flavored-cake">
</g>
<g id="cube-cake">
</g>
<g id="food-open">
</g>
<g id="food">
</g>
<g id="Layer_2">
</g>
<g id="knife-2">
</g>
<g id="juice">
</g>
<g id="food-close">
</g>
<g id="cooker-2">
</g>
</svg>
