<?xml version="1.0" encoding="utf-8"?>
<!-- Generator: Adobe Illustrator 18.0.0, SVG Export Plug-In . SVG Version: 6.00 Build 0)  -->
<!DOCTYPE svg PUBLIC "-//W3C//DTD SVG 1.1//EN" "http://www.w3.org/Graphics/SVG/1.1/DTD/svg11.dtd">
<svg version="1.1" xmlns="http://www.w3.org/2000/svg" xmlns:xlink="http://www.w3.org/1999/xlink" x="0px" y="0px"
	 viewBox="0 0 48 48" enable-background="new 0 0 48 48" xml:space="preserve">
<g id="Layer_1">
</g>
<g id="jug">
</g>
<g id="round-jug">
</g>
<g id="cook-hat">
</g>
<g id="plate">
</g>
<g id="dish">
</g>
<g id="cooker-3">
</g>
<g id="tea-port">
</g>
<g id="large-coffee">
</g>
<g id="coffee">
</g>
<g id="fish-2">
</g>
<g id="chicken">
</g>
<g id="rise">
</g>
<g id="bootle-3">
</g>
<g id="bottle-2">
</g>
<g id="bottle">
</g>
<g id="milk-2">
</g>
<g id="milk">
</g>
<g id="wine">
</g>
<g id="wine-biscuites">
</g>
<g id="larger-knife">
</g>
<g id="knife-3">
</g>
<g id="sticks">
</g>
<g id="brush">
</g>
<g id="knife">
</g>
<g id="spoons">
</g>
<g id="fork">
</g>
<g id="fish">
</g>
<g id="noodiles">
</g>
<g id="ice-cubs">
</g>
<g id="full-bear">
</g>
<g id="lime-juice">
</g>
<g id="corn-glass">
</g>
<g id="juice-straw_1_">
</g>
<g id="round-glass-2">
</g>
<g id="glass">
</g>
<g id="water">
</g>
<g id="juice-2">
</g>
<g id="bear-2">
</g>
<g id="roote-tomatto">
</g>
<g id="phot-pubs">
</g>
<g id="pubs">
</g>
<g id="cream-cake">
</g>
<g id="pista">
</g>
<g id="pistchios">
</g>
<g id="badam">
</g>
<g id="dryfrits">
</g>
<g id="cashews">
</g>
<g id="walnuts">
</g>
<g id="lime">
</g>
<g id="pomelo">
	<path fill="none" stroke="#0A0A0A" stroke-width="2" stroke-linecap="round" stroke-miterlimit="10" d="M19.3209934,25.4191418
		c0.0302811-1.9049625-2.3549137-2.9268761-1.328413-5.1687393s4.5890617-0.8718357,6.4609165,2.6777802
		s1.4491768,8.6560802-0.9057369,10.2752018c-2.3549118,1.6191254-4.7098255,1.6191254-5.7363262-0.6227379
		S19.2606106,29.2178516,19.3209934,25.4191418z"/>
	<path fill="none" stroke="#0A0A0A" stroke-width="2" stroke-linecap="round" stroke-miterlimit="10" d="M15.5772848,13.2757196
		c1.9725924-0.2906265,2.7172079-1.1832056,5.4947977,0.4981918s8.0912418,6.1028471,8.7554474,11.2093115
		s-2.3127518,11.6957512-6.6420631,13.5757217c-4.5890617,1.9927673-11.3518906,2.4286842-15.9409523-0.4359169
		s-6.9439754-9.527916-3.804091-16.2535019s6.3401513-8.4692583,8.030859-8.7806282S13.4639006,13.5870895,15.5772848,13.2757196z"
		/>
	<path fill="none" stroke="#0A0A0A" stroke-width="2" stroke-linecap="round" stroke-miterlimit="10" d="M24.6346436,16.2025948
		c0,0-0.9661179-5.7914772,2.8379726-6.351943c2.4537106-0.3615103,2.3666115-1.352355,3.5021801-2.0550404
		c1.5095596-0.9341092,4.5391045-1.1356473,8.3327713,3.051424c3.4417953,3.7987108,5.3740311,4.8573685,6.762825,8.9051752
		c1.4083786,4.1048775,0.1207657,10.4620247-2.2341461,13.1398067c-2.3549156,2.6777802-6.7628288,4.0478058-10.0838623,3.0514221
		c-3.3210297-0.9963837-5.0721188-2.9268761-5.0721188-2.9268761"/>
	<path fill="none" stroke="#0A0A0A" stroke-width="2" stroke-linecap="round" stroke-miterlimit="10" d="M12.9972801,25.4191418
		c-0.0302811-1.9049625,2.3549128-2.9268761,1.3284121-5.1687393s-4.5890617-0.8718357-6.460916,2.6777802
		s-1.4491773,8.6560802,0.9057355,10.2752018c2.3549137,1.6191254,4.7098274,1.6191254,5.7363281-0.6227379
		S13.057662,29.2178516,12.9972801,25.4191418z"/>
</g>
<g id="water-melon">
</g>
<g id="coconut">
</g>
<g id="avocado">
</g>
<g id="apple-2">
</g>
<g id="peach">
</g>
<g id="melon-slice">
</g>
<g id="village-aaple">
</g>
<g id="orange-2">
</g>
<g id="cooker">
</g>
<g id="cake-2">
</g>
<g id="root-food">
</g>
<g id="honey-ydew">
</g>
<g id="plum">
</g>
<g id="strawberry">
</g>
<g id="juice-straw">
</g>
<g id="carrote">
</g>
<g id="cake">
</g>
<g id="chena">
</g>
<g id="hotdogs">
</g>
<g id="banana">
</g>
<g id="melon">
</g>
<g id="grapes">
</g>
<g id="apple">
</g>
<g id="guava">
</g>
<g id="drop">
</g>
<g id="papper">
</g>
<g id="noodile">
</g>
<g id="burgger">
</g>
<g id="egg">
</g>
<g id="yoghurt">
</g>
<g id="juise-cup">
</g>
<g id="cup">
</g>
<g id="roll-slice">
</g>
<g id="fruit-bear">
</g>
<g id="round-glass">
</g>
<g id="pear">
</g>
<g id="orange">
</g>
<g id="corn-2">
</g>
<g id="corn-ice">
</g>
<g id="flavored">
</g>
<g id="ice-cream">
</g>
<g id="pomegranate">
</g>
<g id="flavored-cake">
</g>
<g id="cube-cake">
</g>
<g id="food-open">
</g>
<g id="food">
</g>
<g id="Layer_2">
</g>
<g id="knife-2">
</g>
<g id="juice">
</g>
<g id="food-close">
</g>
<g id="cooker-2">
</g>
</svg>
