<?xml version="1.0" encoding="utf-8"?>
<!-- Generator: Adobe Illustrator 18.0.0, SVG Export Plug-In . SVG Version: 6.00 Build 0)  -->
<!DOCTYPE svg PUBLIC "-//W3C//DTD SVG 1.1//EN" "http://www.w3.org/Graphics/SVG/1.1/DTD/svg11.dtd">
<svg version="1.1" xmlns="http://www.w3.org/2000/svg" xmlns:xlink="http://www.w3.org/1999/xlink" x="0px" y="0px"
	 viewBox="0 0 48 48" enable-background="new 0 0 48 48" xml:space="preserve">
<g id="Layer_1">
</g>
<g id="jug">
</g>
<g id="round-jug">
</g>
<g id="cook-hat">
</g>
<g id="plate">
</g>
<g id="dish">
</g>
<g id="cooker-3">
</g>
<g id="tea-port">
	<path fill="none" stroke="#0A0A0A" stroke-width="2" stroke-linecap="round" stroke-linejoin="round" stroke-miterlimit="10" d="
		M27,5c0-1.6568604-1.3431396-3-3-3s-3,1.3431396-3,3h-0.0000057C18.2385731,5,16,7.238574,16,9.9999952V10h16V9.9999952
		C32,7.238574,29.7614269,5,27.0000057,5H27z"/>
	<g>
		<path fill="none" stroke="#0A0A0A" stroke-width="2" stroke-linecap="round" stroke-linejoin="round" stroke-miterlimit="10" d="
			M34.09552,18.7644653C32.7516479,17.18573,32,15.1298218,32,13H16v0.3519897c0,1.923584-0.6179199,3.7805786-1.729187,5.2878418"
			/>
		<path fill="none" stroke="#0A0A0A" stroke-width="2" stroke-linecap="round" stroke-linejoin="round" stroke-miterlimit="10" d="
			M6.8387451,28.2770386c-0.071167,0.3214111-0.1430664,0.6427612-0.187439,0.9724731
			C5.8740845,35.0236206,9.130249,40.1516113,14,42.21521v0.1972656C14,44.3937988,15.6062012,46,17.5875244,46h12.8249512
			C32.3937988,46,34,44.3937988,34,42.4124756c5.1098022-1.8874512,8.6212158-7.0737915,7.9080811-12.984314
			c-0.0491333-0.4073486-0.1286011-0.8062134-0.2183228-1.201355c-0.0097046,0.005249-0.0168457,0.0136108-0.0266113,0.0187378"/>
		<path fill="none" stroke="#0A0A0A" stroke-width="2" stroke-linecap="round" stroke-linejoin="round" stroke-miterlimit="10" d="
			M43.1124878,20.3339233c-1.6278076-3.0905151-4.9158936-4.559021-7.3441772-3.2800293
			c-0.7304077,0.3847046-1.2778931,0.9902344-1.6727905,1.7105713c0.5581055,0.6557007,1.2076416,1.2375488,1.9649048,1.6947021
			c2.8127441,1.6981201,4.8886719,4.5062866,5.6293335,7.7676392
			C44.0939331,26.9348145,44.7337036,23.4119263,43.1124878,20.3339233z"/>
		<path fill="none" stroke="#0A0A0A" stroke-width="2" stroke-linecap="round" stroke-linejoin="round" stroke-miterlimit="10" d="
			M41.663147,28.2455444c0.0097656-0.005127,0.0169067-0.0134888,0.0266113-0.0187378
			c-0.7406616-3.2613525-2.8165894-6.069519-5.6293335-7.7676392c-0.7572632-0.4571533-1.4067993-1.0390015-1.9649048-1.6947021"/>
		<path fill="none" stroke="#0A0A0A" stroke-width="2" stroke-linecap="round" stroke-linejoin="round" stroke-miterlimit="10" d="
			M12.1195679,20.6890869c0.8500366-0.5524292,1.5655518-1.2548828,2.1512451-2.0492554
			c-0.3910522-0.664978-0.9188843-1.2231445-1.607666-1.5859375c-2.4282837-1.2789917-5.7163696,0.1895142-7.3441772,3.2800293
			c-1.6277466,3.0904541-0.9788818,6.6326294,1.4493408,7.9116211c0.0230103,0.012146,0.0473022,0.0198975,0.0704346,0.0314941
			C7.5352783,25.1315918,9.4725952,22.4094238,12.1195679,20.6890869z"/>
		<path fill="none" stroke="#0A0A0A" stroke-width="2" stroke-linecap="round" stroke-linejoin="round" stroke-miterlimit="10" d="
			M14.270813,18.6398315c-0.5856934,0.7943726-1.3012085,1.4968262-2.1512451,2.0492554
			c-2.6469727,1.7203369-4.5842896,4.4425049-5.2808228,7.5879517"/>
	</g>
</g>
<g id="large-coffee">
</g>
<g id="coffee">
</g>
<g id="fish-2">
</g>
<g id="chicken">
</g>
<g id="rise">
</g>
<g id="bootle-3">
</g>
<g id="bottle-2">
</g>
<g id="bottle">
</g>
<g id="milk-2">
</g>
<g id="milk">
</g>
<g id="wine">
</g>
<g id="wine-biscuites">
</g>
<g id="larger-knife">
</g>
<g id="knife-3">
</g>
<g id="sticks">
</g>
<g id="brush">
</g>
<g id="knife">
</g>
<g id="spoons">
</g>
<g id="fork">
</g>
<g id="fish">
</g>
<g id="noodiles">
</g>
<g id="ice-cubs">
</g>
<g id="full-bear">
</g>
<g id="lime-juice">
</g>
<g id="corn-glass">
</g>
<g id="juice-straw_1_">
</g>
<g id="round-glass-2">
</g>
<g id="glass">
</g>
<g id="water">
</g>
<g id="juice-2">
</g>
<g id="bear-2">
</g>
<g id="roote-tomatto">
</g>
<g id="phot-pubs">
</g>
<g id="pubs">
</g>
<g id="cream-cake">
</g>
<g id="pista">
</g>
<g id="pistchios">
</g>
<g id="badam">
</g>
<g id="dryfrits">
</g>
<g id="cashews">
</g>
<g id="walnuts">
</g>
<g id="lime">
</g>
<g id="pomelo">
</g>
<g id="water-melon">
</g>
<g id="coconut">
</g>
<g id="avocado">
</g>
<g id="apple-2">
</g>
<g id="peach">
</g>
<g id="melon-slice">
</g>
<g id="village-aaple">
</g>
<g id="orange-2">
</g>
<g id="cooker">
</g>
<g id="cake-2">
</g>
<g id="root-food">
</g>
<g id="honey-ydew">
</g>
<g id="plum">
</g>
<g id="strawberry">
</g>
<g id="juice-straw">
</g>
<g id="carrote">
</g>
<g id="cake">
</g>
<g id="chena">
</g>
<g id="hotdogs">
</g>
<g id="banana">
</g>
<g id="melon">
</g>
<g id="grapes">
</g>
<g id="apple">
</g>
<g id="guava">
</g>
<g id="drop">
</g>
<g id="papper">
</g>
<g id="noodile">
</g>
<g id="burgger">
</g>
<g id="egg">
</g>
<g id="yoghurt">
</g>
<g id="juise-cup">
</g>
<g id="cup">
</g>
<g id="roll-slice">
</g>
<g id="fruit-bear">
</g>
<g id="round-glass">
</g>
<g id="pear">
</g>
<g id="orange">
</g>
<g id="corn-2">
</g>
<g id="corn-ice">
</g>
<g id="flavored">
</g>
<g id="ice-cream">
</g>
<g id="pomegranate">
</g>
<g id="flavored-cake">
</g>
<g id="cube-cake">
</g>
<g id="food-open">
</g>
<g id="food">
</g>
<g id="Layer_2">
</g>
<g id="knife-2">
</g>
<g id="juice">
</g>
<g id="food-close">
</g>
<g id="cooker-2">
</g>
</svg>
