<?xml version="1.0" encoding="utf-8"?>
<!-- Generator: Adobe Illustrator 18.0.0, SVG Export Plug-In . SVG Version: 6.00 Build 0)  -->
<!DOCTYPE svg PUBLIC "-//W3C//DTD SVG 1.1//EN" "http://www.w3.org/Graphics/SVG/1.1/DTD/svg11.dtd">
<svg version="1.1" xmlns="http://www.w3.org/2000/svg" xmlns:xlink="http://www.w3.org/1999/xlink" x="0px" y="0px"
	 viewBox="0 0 48 48" enable-background="new 0 0 48 48" xml:space="preserve">
<g id="Layer_1">
</g>
<g id="jug">
</g>
<g id="round-jug">
</g>
<g id="cook-hat">
</g>
<g id="plate">
</g>
<g id="dish">
</g>
<g id="cooker-3">
</g>
<g id="tea-port">
</g>
<g id="large-coffee">
</g>
<g id="coffee">
</g>
<g id="fish-2">
</g>
<g id="chicken">
</g>
<g id="rise">
</g>
<g id="bootle-3">
</g>
<g id="bottle-2">
</g>
<g id="bottle">
</g>
<g id="milk-2">
</g>
<g id="milk">
</g>
<g id="wine">
</g>
<g id="wine-biscuites">
</g>
<g id="larger-knife">
</g>
<g id="knife-3">
</g>
<g id="sticks">
</g>
<g id="brush">
</g>
<g id="knife">
</g>
<g id="spoons">
</g>
<g id="fork">
</g>
<g id="fish">
</g>
<g id="noodiles">
</g>
<g id="ice-cubs">
</g>
<g id="full-bear">
</g>
<g id="lime-juice">
</g>
<g id="corn-glass">
</g>
<g id="juice-straw_1_">
</g>
<g id="round-glass-2">
</g>
<g id="glass">
</g>
<g id="water">
</g>
<g id="juice-2">
</g>
<g id="bear-2">
</g>
<g id="roote-tomatto">
</g>
<g id="phot-pubs">
</g>
<g id="pubs">
</g>
<g id="cream-cake">
</g>
<g id="pista">
</g>
<g id="pistchios">
</g>
<g id="badam">
</g>
<g id="dryfrits">
</g>
<g id="cashews">
</g>
<g id="walnuts">
	<g>
		<path fill="none" stroke="#0A0A0A" stroke-width="2" stroke-linejoin="round" stroke-miterlimit="10" d="M37.7972984,17.2771091
			c0.0297775-0.4984913-0.0345345-1.020771-0.233654-1.5336027c-0.3288918-0.847043-0.9271393-1.4930735-1.6236076-1.8541431
			c-1.0246887-1.3701382-2.2513847-2.4517879-3.5648155-3.1713514c-0.0213432-0.0652504-0.0319099-0.1309195-0.0571213-0.1958494
			c-0.6480637-1.6690626-2.3385906-2.5698037-3.7758598-2.0117426c-0.6498737,0.2523336-1.1253681,0.7667694-1.4037971,1.4012337
			c-0.2199745,0.057724-0.4392815,0.1208744-0.6545792,0.2044697c-0.4863529,0.1888409-0.9345551,0.4400234-1.3483067,0.7384472
			c-0.6839542-0.3652639-1.4669228-0.4518309-2.1864967-0.1724358c-1.437212,0.5580397-2.0769482,2.363574-1.4288864,4.0326366
			c0.0348034,0.089632,0.0836391,0.1676865,0.1242695,0.2527666c-0.9461613,0.7848253-1.2995949,2.2458086-0.764185,3.6247396
			c0.2762489,0.7114716,0.7473717,1.2712307,1.3020782,1.6499844c0.1158237,0.6687717,0.284584,1.3431988,0.5086842,2.0179939
			c-0.0389977,0.5145493,0.0236359,1.0564537,0.2300339,1.5880222c0.2807579,0.7230835,0.7626858,1.2894268,1.3293571,1.6679649
			c0.7456379,1.1465359,1.6277161,2.1230698,2.591835,2.8967514c0.6578732,1.6469421,2.3325405,2.5333157,3.7597961,1.9791431
			c0.0662289-0.0257149,0.1217003-0.0668201,0.1844845-0.0976944c1.1583099,0.208252,2.3222942,0.1324806,3.4183521-0.2930965
			c1.3601189-0.5281048,2.4369583-1.5201969,3.2004814-2.8020325c0.0329628-0.0523739,0.0620956-0.1065083,0.0917053-0.161272
			c0.5946732-1.0538406,0.9823112-2.2913227,1.1336365-3.6379471c0.7971039-0.816288,1.0626945-2.1714725,0.5655746-3.4517879
			c-0.2228127-0.5738487-0.5743637-1.0482445-0.9910049-1.4123821
			C38.0887718,18.1161594,37.9565582,17.6962185,37.7972984,17.2771091z"/>
		<path fill="none" stroke="#0A0A0A" stroke-width="2" stroke-linejoin="round" stroke-miterlimit="10" d="M25.8575974,10.4601202
			c0,0,7.8871994,5.8085508,9.0512772,19.1670723"/>
		
			<circle fill="none" stroke="#0A0A0A" stroke-width="2" stroke-linejoin="round" stroke-miterlimit="10" cx="26.0535774" cy="18.9078979" r="0.5"/>
		
			<circle fill="none" stroke="#0A0A0A" stroke-width="2" stroke-linejoin="round" stroke-miterlimit="10" cx="27.6550484" cy="25.7952271" r="0.5"/>
		
			<circle fill="none" stroke="#0A0A0A" stroke-width="2" stroke-linejoin="round" stroke-miterlimit="10" cx="27.0848045" cy="27.0893555" r="0.5"/>
		
			<circle fill="none" stroke="#0A0A0A" stroke-width="2" stroke-linejoin="round" stroke-miterlimit="10" cx="34.3887138" cy="21.0352173" r="0.5"/>
	</g>
	<g>
		<path fill="none" stroke="#0A0A0A" stroke-width="2" stroke-linejoin="round" stroke-miterlimit="10" d="M10.4120378,38.7068787
			c0.0637045,0.3809662,0.2024584,0.763607,0.4412155,1.1158218c0.3943529,0.5817566,0.9570389,0.9654121,1.5445232,1.1172523
			c1.0093393,0.8558693,2.1211119,1.4593239,3.2356949,1.774807c0.0273676,0.0455055,0.0466852,0.0931892,0.0769148,0.1377831
			c0.7770576,1.1463242,2.2072525,1.533226,3.1943798,0.8640823c0.4463406-0.3025589,0.71591-0.772583,0.8161659-1.2990379
			c0.1558647-0.0815353,0.3102894-0.1670494,0.4581566-0.2672844c0.3340321-0.226429,0.6285248-0.4932671,0.8888817-0.7897644
			c0.5787735,0.1571693,1.1840286,0.0871086,1.678236-0.2479019c0.9870892-0.6691132,1.1573372-2.1409035,0.3802795-3.2872314
			c-0.041729-0.0615578-0.0920372-0.1119652-0.1373749-0.1690865c0.5776806-0.7552223,0.5916309-1.9177666-0.0503502-2.8648262
			c-0.3312378-0.4886436-0.7831707-0.8292313-1.2668343-1.0189056c-0.2029076-0.4841805-0.4467049-0.9634743-0.7322845-1.4334831
			c-0.0595322-0.3946648-0.2004128-0.7923908-0.4478931-1.1574745c-0.3366413-0.4966221-0.7978592-0.8403015-1.2905064-1.0277481
			c-0.7603111-0.7355194-1.5941029-1.3192902-2.454689-1.7359467c-0.7806292-1.1279545-2.1963854-1.5067635-3.1766357-0.8422832
			c-0.0454865,0.0308342-0.080204,0.0714111-0.122201,0.1055393c-0.9092617,0.0431919-1.7737122,0.3014946-2.526494,0.8117809
			c-0.9341393,0.6332226-1.5745173,1.5672932-1.928606,2.6656551c-0.0157976,0.0451813-0.0284061,0.0910301-0.0412645,0.137434
			c-0.2661915,0.8972874-0.3445587,1.8972416-0.2259007,2.9386387c-0.4598656,0.7531815-0.4258776,1.8207817,0.1701937,2.7001114
			c0.2671633,0.3941231,0.6141949,0.6910172,0.9912443,0.8935394
			C10.0472708,38.1246796,10.2195311,38.4184303,10.4120378,38.7068787z"/>
		<path fill="none" stroke="#0A0A0A" stroke-width="2" stroke-linejoin="round" stroke-miterlimit="10" d="M20.5917854,41.7827148
			c0,0-6.9502087-3.0159721-10.1366491-12.8859882"/>
		
			<circle fill="none" stroke="#0A0A0A" stroke-width="2" stroke-linejoin="round" stroke-miterlimit="10" cx="18.983963" cy="35.4476929" r="0.3867369"/>
		
			<circle fill="none" stroke="#0A0A0A" stroke-width="2" stroke-linejoin="round" stroke-miterlimit="10" cx="16.5862141" cy="30.5320129" r="0.3867369"/>
		
			<circle fill="none" stroke="#0A0A0A" stroke-width="2" stroke-linejoin="round" stroke-miterlimit="10" cx="16.7924557" cy="29.4577637" r="0.3867369"/>
		
			<circle fill="none" stroke="#0A0A0A" stroke-width="2" stroke-linejoin="round" stroke-miterlimit="10" cx="12.3322906" cy="35.2844849" r="0.3867369"/>
	</g>
	<path fill="none" stroke="#0A0A0A" stroke-width="2" stroke-linejoin="round" stroke-miterlimit="10" d="M8.5687103,13.1661453
		c0.039238,0.2346506,0.1247005,0.4703302,0.271759,0.6872721c0.2428951,0.3583221,0.5894709,0.5946274,0.9513216,0.6881523
		c0.621685,0.5271559,1.3064613,0.8988447,1.9929695,1.0931616c0.0168562,0.0280275,0.0287552,0.0573969,0.0473738,0.0848637
		c0.4786148,0.7060585,1.359519,0.9443645,1.9675236,0.532217c0.2749147-0.1863556,0.4409513-0.4758587,0.5027018-0.8001194
		c0.0960016-0.0502214,0.1911173-0.1028929,0.2821941-0.1646309c0.2057409-0.1394644,0.3871288-0.3038177,0.5474901-0.4864397
		c0.3564863,0.0968046,0.7292814,0.0536518,1.0336819-0.1526909c0.6079788-0.4121304,0.712841-1.3186541,0.2342262-2.0247126
		c-0.0257034-0.0379171-0.0566902-0.0689631-0.0846138-0.104146c0.3558121-0.4651661,0.3644047-1.1812153-0.0310135-1.7645397
		c-0.2040195-0.300972-0.4823799-0.5107498-0.7802839-0.6275768c-0.1249771-0.2982225-0.2751398-0.5934353-0.4510384-0.8829279
		c-0.0366669-0.2430878-0.1234407-0.48806-0.2758713-0.7129269c-0.2073488-0.3058853-0.4914284-0.5175695-0.7948647-0.6330228
		c-0.4682999-0.4530306-0.9818602-0.8125939-1.5119219-1.0692263c-0.4808159-0.6947432-1.3528261-0.9280643-1.9565935-0.5187898
		c-0.0280161,0.0189915-0.0494003,0.0439844-0.0752678,0.0650048C9.8784399,6.4016705,9.3459969,6.5607677,8.8823338,6.8750701
		c-0.575367,0.3900228-0.9697962,0.9653463-1.1878905,1.6418624c-0.0097308,0.0278292-0.0174966,0.0560684-0.0254164,0.084651
		c-0.1639562,0.5526686-0.212225,1.1685734-0.1391397,1.8100033c-0.2832456,0.4639082-0.2623115,1.1214771,0.1048274,1.6630859
		c0.1645551,0.242753,0.3783031,0.4256201,0.6105399,0.5503578C8.344039,12.8075523,8.450139,12.9884806,8.5687103,13.1661453z"/>
</g>
<g id="lime">
</g>
<g id="pomelo">
</g>
<g id="water-melon">
</g>
<g id="coconut">
</g>
<g id="avocado">
</g>
<g id="apple-2">
</g>
<g id="peach">
</g>
<g id="melon-slice">
</g>
<g id="village-aaple">
</g>
<g id="orange-2">
</g>
<g id="cooker">
</g>
<g id="cake-2">
</g>
<g id="root-food">
</g>
<g id="honey-ydew">
</g>
<g id="plum">
</g>
<g id="strawberry">
</g>
<g id="juice-straw">
</g>
<g id="carrote">
</g>
<g id="cake">
</g>
<g id="chena">
</g>
<g id="hotdogs">
</g>
<g id="banana">
</g>
<g id="melon">
</g>
<g id="grapes">
</g>
<g id="apple">
</g>
<g id="guava">
</g>
<g id="drop">
</g>
<g id="papper">
</g>
<g id="noodile">
</g>
<g id="burgger">
</g>
<g id="egg">
</g>
<g id="yoghurt">
</g>
<g id="juise-cup">
</g>
<g id="cup">
</g>
<g id="roll-slice">
</g>
<g id="fruit-bear">
</g>
<g id="round-glass">
</g>
<g id="pear">
</g>
<g id="orange">
</g>
<g id="corn-2">
</g>
<g id="corn-ice">
</g>
<g id="flavored">
</g>
<g id="ice-cream">
</g>
<g id="pomegranate">
</g>
<g id="flavored-cake">
</g>
<g id="cube-cake">
</g>
<g id="food-open">
</g>
<g id="food">
</g>
<g id="Layer_2">
</g>
<g id="knife-2">
</g>
<g id="juice">
</g>
<g id="food-close">
</g>
<g id="cooker-2">
</g>
</svg>
