<?xml version="1.0" encoding="utf-8"?>
<!-- Generator: Adobe Illustrator 18.0.0, SVG Export Plug-In . SVG Version: 6.00 Build 0)  -->
<!DOCTYPE svg PUBLIC "-//W3C//DTD SVG 1.1//EN" "http://www.w3.org/Graphics/SVG/1.1/DTD/svg11.dtd">
<svg version="1.1" xmlns="http://www.w3.org/2000/svg" xmlns:xlink="http://www.w3.org/1999/xlink" x="0px" y="0px"
	 viewBox="0 0 48 48" enable-background="new 0 0 48 48" xml:space="preserve">
<g id="Layer_1">
</g>
<g id="jug">
</g>
<g id="round-jug">
</g>
<g id="cook-hat">
</g>
<g id="plate">
</g>
<g id="dish">
</g>
<g id="cooker-3">
</g>
<g id="tea-port">
</g>
<g id="large-coffee">
</g>
<g id="coffee">
</g>
<g id="fish-2">
</g>
<g id="chicken">
</g>
<g id="rise">
</g>
<g id="bootle-3">
</g>
<g id="bottle-2">
</g>
<g id="bottle">
</g>
<g id="milk-2">
</g>
<g id="milk">
</g>
<g id="wine">
</g>
<g id="wine-biscuites">
</g>
<g id="larger-knife">
</g>
<g id="knife-3">
</g>
<g id="sticks">
</g>
<g id="brush">
</g>
<g id="knife">
</g>
<g id="spoons">
</g>
<g id="fork">
</g>
<g id="fish">
</g>
<g id="noodiles">
</g>
<g id="ice-cubs">
</g>
<g id="full-bear">
</g>
<g id="lime-juice">
</g>
<g id="corn-glass">
</g>
<g id="juice-straw_1_">
</g>
<g id="round-glass-2">
</g>
<g id="glass">
</g>
<g id="water">
</g>
<g id="juice-2">
</g>
<g id="bear-2">
</g>
<g id="roote-tomatto">
</g>
<g id="phot-pubs">
</g>
<g id="pubs">
</g>
<g id="cream-cake">
</g>
<g id="pista">
</g>
<g id="pistchios">
</g>
<g id="badam">
</g>
<g id="dryfrits">
</g>
<g id="cashews">
</g>
<g id="walnuts">
</g>
<g id="lime">
</g>
<g id="pomelo">
</g>
<g id="water-melon">
</g>
<g id="coconut">
</g>
<g id="avocado">
</g>
<g id="apple-2">
</g>
<g id="peach">
</g>
<g id="melon-slice">
</g>
<g id="village-aaple">
</g>
<g id="orange-2">
</g>
<g id="cooker">
</g>
<g id="cake-2">
</g>
<g id="root-food">
</g>
<g id="honey-ydew">
</g>
<g id="plum">
</g>
<g id="strawberry">
</g>
<g id="juice-straw">
</g>
<g id="carrote">
</g>
<g id="cake">
</g>
<g id="chena">
</g>
<g id="hotdogs">
</g>
<g id="banana">
</g>
<g id="melon">
</g>
<g id="grapes">
</g>
<g id="apple">
</g>
<g id="guava">
</g>
<g id="drop">
</g>
<g id="papper">
</g>
<g id="noodile">
</g>
<g id="burgger">
</g>
<g id="egg">
</g>
<g id="yoghurt">
</g>
<g id="juise-cup">
</g>
<g id="cup">
</g>
<g id="roll-slice">
	
		<circle fill="none" stroke="#0A0A0A" stroke-width="2" stroke-linecap="round" stroke-miterlimit="10" cx="10.0551453" cy="28.396431" r="2.4512563"/>
	<path fill="none" stroke="#0A0A0A" stroke-width="2" stroke-linecap="round" stroke-miterlimit="10" d="M15.7638655,31.9319668
		l-2.1731987,2.1732006c-1.9526215,1.9526215-5.1184464,1.9526215-7.0710673,0l-2.1731992-2.1732006
		c-1.9526215-1.9526215-1.9526215-5.1184464,0-7.0710678l2.1731992-2.1731987c1.952621-1.9526215,5.1184459-1.9526215,7.0710673,0
		l2.1731987,2.1731987C17.7164879,26.8135204,17.7164879,29.9793453,15.7638655,31.9319668z"/>
	
		<circle fill="none" stroke="#0A0A0A" stroke-width="2" stroke-linecap="round" stroke-miterlimit="10" cx="19.8771667" cy="18.5744019" r="2.4512563"/>
	<path fill="none" stroke="#0A0A0A" stroke-width="2" stroke-linecap="round" stroke-miterlimit="10" d="M25.5858994,22.1099339
		l-2.1731987,2.1731987c-1.9526215,1.9526215-5.1184464,1.9526215-7.0710678,0l-2.1731987-2.1731987
		c-1.9526215-1.9526215-1.9526215-5.1184464,0-7.0710678l2.1731987-2.1731987c1.9526215-1.9526215,5.1184464-1.9526215,7.0710678,0
		l2.1731987,2.1731987C27.5385208,16.9914875,27.5385208,20.1573124,25.5858994,22.1099339z"/>
	
		<circle fill="none" stroke="#0A0A0A" stroke-width="2" stroke-linecap="round" stroke-miterlimit="10" cx="29.1214294" cy="9.3301315" r="2.4512563"/>
	<path fill="none" stroke="#0A0A0A" stroke-width="2" stroke-linecap="round" stroke-miterlimit="10" d="M34.8301659,12.8656673
		l-2.1731987,2.1731987c-1.9526215,1.9526215-5.1184464,1.9526215-7.0710678,0l-2.1731987-2.1731987
		c-1.9526215-1.9526215-1.9526215-5.1184459,0-7.0710673l2.1731987-2.1731989c1.9526215-1.9526216,5.1184464-1.9526216,7.0710678,0
		L34.8301659,5.7946C36.7827873,7.7472215,36.7827873,10.9130459,34.8301659,12.8656673z"/>
	
		<circle fill="none" stroke="#0A0A0A" stroke-width="2" stroke-linecap="round" stroke-miterlimit="10" cx="19.299408" cy="37.6407013" r="2.4512563"/>
	<path fill="none" stroke="#0A0A0A" stroke-width="2" stroke-linecap="round" stroke-miterlimit="10" d="M25.0081329,41.1762352
		l-2.1731987,2.1731987c-1.9526215,1.9526215-5.1184464,1.9526215-7.0710688,0l-2.1731987-2.1731987
		c-1.9526215-1.9526215-1.9526215-5.1184464,0-7.0710678l2.1731987-2.1732006c1.9526224-1.9526215,5.1184473-1.9526215,7.0710688,0
		l2.1731987,2.1732006C26.9607544,36.0577888,26.9607544,39.2236137,25.0081329,41.1762352z"/>
	
		<circle fill="none" stroke="#0A0A0A" stroke-width="2" stroke-linecap="round" stroke-miterlimit="10" cx="29.1214294" cy="27.8186646" r="2.4512563"/>
	<path fill="none" stroke="#0A0A0A" stroke-width="2" stroke-linecap="round" stroke-miterlimit="10" d="M34.8301659,31.3542004
		l-2.1731987,2.1732006c-1.9526215,1.9526215-5.1184464,1.9526215-7.0710678,0l-2.1731987-2.1732006
		c-1.9526215-1.9526215-1.9526215-5.1184464,0-7.0710678l2.1731987-2.1731987c1.9526215-1.9526215,5.1184464-1.9526215,7.0710678,0
		l2.1731987,2.1731987C36.7827873,26.235754,36.7827873,29.4015789,34.8301659,31.3542004z"/>
	
		<circle fill="none" stroke="#0A0A0A" stroke-width="2" stroke-linecap="round" stroke-miterlimit="10" cx="38.3656921" cy="18.5744019" r="2.4512563"/>
	<path fill="none" stroke="#0A0A0A" stroke-width="2" stroke-linecap="round" stroke-miterlimit="10" d="M44.0744324,22.1099339
		l-2.1731987,2.1731987c-1.9526215,1.9526215-5.1184464,1.9526215-7.0710678,0l-2.1731987-2.1731987
		c-1.9526215-1.9526215-1.9526215-5.1184464,0-7.0710678l2.1731987-2.1731987c1.9526215-1.9526215,5.1184464-1.9526215,7.0710678,0
		l2.1731987,2.1731987C46.0270538,16.9914875,46.0270538,20.1573124,44.0744324,22.1099339z"/>
</g>
<g id="fruit-bear">
</g>
<g id="round-glass">
</g>
<g id="pear">
</g>
<g id="orange">
</g>
<g id="corn-2">
</g>
<g id="corn-ice">
</g>
<g id="flavored">
</g>
<g id="ice-cream">
</g>
<g id="pomegranate">
</g>
<g id="flavored-cake">
</g>
<g id="cube-cake">
</g>
<g id="food-open">
</g>
<g id="food">
</g>
<g id="Layer_2">
</g>
<g id="knife-2">
</g>
<g id="juice">
</g>
<g id="food-close">
</g>
<g id="cooker-2">
</g>
</svg>
