<?xml version="1.0" encoding="utf-8"?>
<!-- Generator: Adobe Illustrator 18.0.0, SVG Export Plug-In . SVG Version: 6.00 Build 0)  -->
<!DOCTYPE svg PUBLIC "-//W3C//DTD SVG 1.1//EN" "http://www.w3.org/Graphics/SVG/1.1/DTD/svg11.dtd">
<svg version="1.1" xmlns="http://www.w3.org/2000/svg" xmlns:xlink="http://www.w3.org/1999/xlink" x="0px" y="0px"
	 viewBox="0 0 48 48" enable-background="new 0 0 48 48" xml:space="preserve">
<g id="Layer_1">
</g>
<g id="jug">
</g>
<g id="round-jug">
</g>
<g id="cook-hat">
</g>
<g id="plate">
</g>
<g id="dish">
</g>
<g id="cooker-3">
</g>
<g id="tea-port">
</g>
<g id="large-coffee">
</g>
<g id="coffee">
</g>
<g id="fish-2">
</g>
<g id="chicken">
</g>
<g id="rise">
</g>
<g id="bootle-3">
</g>
<g id="bottle-2">
</g>
<g id="bottle">
</g>
<g id="milk-2">
</g>
<g id="milk">
</g>
<g id="wine">
</g>
<g id="wine-biscuites">
</g>
<g id="larger-knife">
</g>
<g id="knife-3">
</g>
<g id="sticks">
</g>
<g id="brush">
</g>
<g id="knife">
</g>
<g id="spoons">
</g>
<g id="fork">
</g>
<g id="fish">
</g>
<g id="noodiles">
</g>
<g id="ice-cubs">
</g>
<g id="full-bear">
</g>
<g id="lime-juice">
</g>
<g id="corn-glass">
</g>
<g id="juice-straw_1_">
</g>
<g id="round-glass-2">
</g>
<g id="glass">
</g>
<g id="water">
</g>
<g id="juice-2">
</g>
<g id="bear-2">
</g>
<g id="roote-tomatto">
</g>
<g id="phot-pubs">
</g>
<g id="pubs">
</g>
<g id="cream-cake">
</g>
<g id="pista">
</g>
<g id="pistchios">
</g>
<g id="badam">
</g>
<g id="dryfrits">
</g>
<g id="cashews">
</g>
<g id="walnuts">
</g>
<g id="lime">
</g>
<g id="pomelo">
</g>
<g id="water-melon">
</g>
<g id="coconut">
</g>
<g id="avocado">
</g>
<g id="apple-2">
</g>
<g id="peach">
</g>
<g id="melon-slice">
</g>
<g id="village-aaple">
</g>
<g id="orange-2">
</g>
<g id="cooker">
</g>
<g id="cake-2">
</g>
<g id="root-food">
</g>
<g id="honey-ydew">
</g>
<g id="plum">
</g>
<g id="strawberry">
</g>
<g id="juice-straw">
</g>
<g id="carrote">
</g>
<g id="cake">
</g>
<g id="chena">
	<path fill="none" stroke="#0A0A0A" stroke-width="2" stroke-linecap="round" stroke-miterlimit="10" d="M34.25,25.875
		c0-2.4681416-0.698513-4.7482128-1.8819618-6.6094723c-0.9735317-1.5311127-1.6798916-3.2362423-1.7488003-5.0493374
		c-0.057951-1.5247517-0.5862408-3.15341-1.756752-4.7829266c-0.2776928-0.38659-0.6303997-0.7219791-1.0319691-0.9775324
		C21.8686199,4.6616793,15.6246338,8.8516407,15.6246338,14.5c0,0.6986399,0.0972748,1.3738108,0.2777252,2.0143223
		c0.3297596,1.1704807,0.2571754,2.4088612-0.3192434,3.4796124C14.6597452,21.7091789,14.125,23.7197475,14.125,25.875
		c0,0.2807369,0.0095301,0.5588531,0.0280085,0.8341274c0.086688,1.2914505-0.3044853,2.5842686-1.2287321,3.490427
		c-2.3344965,2.2888107-3.1277161,6.1431923-0.675498,9.8659973c0.2793179,0.4240417,0.6484404,0.7922935,1.073185,1.0705452
		c4.4783831,2.9337883,9.1225214,1.1920052,11.0260115-2.2727928c0.5578804-1.0154724,1.5459023-1.7108727,2.6469593-2.0715446
		C31.1854744,35.4190674,34.25,31.0548801,34.25,25.875z"/>
	
		<circle fill="none" stroke="#0A0A0A" stroke-width="2" stroke-linecap="round" stroke-miterlimit="10" cx="24.3666382" cy="31.7666626" r="0.5"/>
	
		<circle fill="none" stroke="#0A0A0A" stroke-width="2" stroke-linecap="round" stroke-miterlimit="10" cx="29.3666382" cy="23.7666626" r="0.5"/>
	
		<circle fill="none" stroke="#0A0A0A" stroke-width="2" stroke-linecap="round" stroke-miterlimit="10" cx="23.3666382" cy="11.7666626" r="0.5"/>
	
		<circle fill="none" stroke="#0A0A0A" stroke-width="2" stroke-linecap="round" stroke-miterlimit="10" cx="18.3666382" cy="27.7666626" r="0.5"/>
	
		<circle fill="none" stroke="#0A0A0A" stroke-width="2" stroke-linecap="round" stroke-miterlimit="10" cx="20.3666382" cy="20.7666626" r="0.5"/>
	
		<circle fill="none" stroke="#0A0A0A" stroke-width="2" stroke-linecap="round" stroke-miterlimit="10" cx="16.3666382" cy="36.7666626" r="0.5"/>
	
		<circle fill="none" stroke="#0A0A0A" stroke-width="2" stroke-linecap="round" stroke-miterlimit="10" cx="35.3666382" cy="38.7666626" r="0.5"/>
	<path fill="none" stroke="#0A0A0A" stroke-width="2" stroke-linecap="round" stroke-miterlimit="10" d="M27.125,28.25
		c0,0,1.747921-0.0214481,1.375,3.5"/>
	<path fill="none" stroke="#0A0A0A" stroke-width="2" stroke-linecap="round" stroke-miterlimit="10" d="M16.375,23.5
		c0,0-3.625-0.625-4.625,0.375"/>
	<path fill="none" stroke="#0A0A0A" stroke-width="2" stroke-linecap="round" stroke-miterlimit="10" d="M28.25,16.75
		c0,0,1,1.75,0.5,2.625"/>
	<path fill="none" stroke="#0A0A0A" stroke-width="2" stroke-linecap="round" stroke-miterlimit="10" d="M15.25,9.75
		c0,0,1,1.75,0.5,2.625"/>
	<path fill="none" stroke="#0A0A0A" stroke-width="2" stroke-linecap="round" stroke-miterlimit="10" d="M32.9968109,24.9562912
		c0,0,3.2293892-0.6797523,4.3919525,1.5334244"/>
	<path fill="none" stroke="#0A0A0A" stroke-width="2" stroke-linecap="round" stroke-miterlimit="10" d="M41.2315712,34.5433922
		c-0.1306496-0.2130547-0.3167114-0.3993301-0.5299339-0.5297012c-1.9707947-1.2050133-4.0141602,0.1832199-4.0141602,2.0488091
		c0,0.0170898,0.0046616,0.0328369,0.0050278,0.0498657c-2.7806091,0.3471985-4.6858063,3.5110054-2.6595001,6.572731
		c0.1301079,0.1965904,0.3055267,0.3740654,0.5006371,0.5063896c3.222496,2.1854782,6.6538353-0.0710907,6.6538353-3.1289864
		c0-0.3710289-0.0544281-0.7277641-0.1527863-1.0662575c-0.1617699-0.5567055-0.0262337-1.1340485,0.2798729-1.6263771
		C41.7885971,36.6074448,41.8626747,35.5725555,41.2315712,34.5433922z"/>
</g>
<g id="hotdogs">
</g>
<g id="banana">
</g>
<g id="melon">
</g>
<g id="grapes">
</g>
<g id="apple">
</g>
<g id="guava">
</g>
<g id="drop">
</g>
<g id="papper">
</g>
<g id="noodile">
</g>
<g id="burgger">
</g>
<g id="egg">
</g>
<g id="yoghurt">
</g>
<g id="juise-cup">
</g>
<g id="cup">
</g>
<g id="roll-slice">
</g>
<g id="fruit-bear">
</g>
<g id="round-glass">
</g>
<g id="pear">
</g>
<g id="orange">
</g>
<g id="corn-2">
</g>
<g id="corn-ice">
</g>
<g id="flavored">
</g>
<g id="ice-cream">
</g>
<g id="pomegranate">
</g>
<g id="flavored-cake">
</g>
<g id="cube-cake">
</g>
<g id="food-open">
</g>
<g id="food">
</g>
<g id="Layer_2">
</g>
<g id="knife-2">
</g>
<g id="juice">
</g>
<g id="food-close">
</g>
<g id="cooker-2">
</g>
</svg>
