<?xml version="1.0" encoding="utf-8"?>
<!-- Generator: Adobe Illustrator 18.0.0, SVG Export Plug-In . SVG Version: 6.00 Build 0)  -->
<!DOCTYPE svg PUBLIC "-//W3C//DTD SVG 1.1//EN" "http://www.w3.org/Graphics/SVG/1.1/DTD/svg11.dtd">
<svg version="1.1" xmlns="http://www.w3.org/2000/svg" xmlns:xlink="http://www.w3.org/1999/xlink" x="0px" y="0px"
	 viewBox="0 0 48 48" enable-background="new 0 0 48 48" xml:space="preserve">
<g id="Layer_1">
</g>
<g id="jug">
</g>
<g id="round-jug">
</g>
<g id="cook-hat">
</g>
<g id="plate">
</g>
<g id="dish">
</g>
<g id="cooker-3">
</g>
<g id="tea-port">
</g>
<g id="large-coffee">
</g>
<g id="coffee">
</g>
<g id="fish-2">
</g>
<g id="chicken">
</g>
<g id="rise">
</g>
<g id="bootle-3">
</g>
<g id="bottle-2">
</g>
<g id="bottle">
</g>
<g id="milk-2">
</g>
<g id="milk">
</g>
<g id="wine">
</g>
<g id="wine-biscuites">
</g>
<g id="larger-knife">
</g>
<g id="knife-3">
</g>
<g id="sticks">
</g>
<g id="brush">
</g>
<g id="knife">
</g>
<g id="spoons">
</g>
<g id="fork">
</g>
<g id="fish">
</g>
<g id="noodiles">
</g>
<g id="ice-cubs">
</g>
<g id="full-bear">
</g>
<g id="lime-juice">
</g>
<g id="corn-glass">
</g>
<g id="juice-straw_1_">
</g>
<g id="round-glass-2">
</g>
<g id="glass">
</g>
<g id="water">
</g>
<g id="juice-2">
</g>
<g id="bear-2">
	<path fill="none" stroke="#0A0A0A" stroke-width="2" stroke-miterlimit="10" d="M34,20c3.0770073,0,6-2.8515625,6-5.9285717
		S37.5055809,8.5,34.4285698,8.5c-0.7595711,0-1.4830475,0.1531811-2.1428566,0.4284143
		c-0.000103-3.0769563-2.4944706-5.5712714-5.5714283-5.5712714c-1.9881592,0-3.7282887,1.0446949-4.7142849,2.611764
		c-0.9859962-1.5670691-2.7261257-2.611764-4.7142849-2.611764c-3.0769577,0-5.5713243,2.4943151-5.5714293,5.5712714
		C11.0544786,8.6531811,10.3310022,8.5,9.5714283,8.5C6.4944196,8.5,4,10.9944201,4,14.0714283S5.9229913,20,9,20"/>
	<g>
		<path fill="none" stroke="#0A0A0A" stroke-width="2" stroke-miterlimit="10" d="M36,23v-3H7v23c0,1.6568604,1.3431396,3,3,3h23
			c1.6568604,0,3-1.3431396,3-3v-7"/>
		<path fill="none" stroke="#0A0A0A" stroke-width="2" stroke-miterlimit="10" d="M40,21
			c-1.5389404,0-2.9379883,0.8477783-4,2.2297974v12.951355c1.0620117,1.382019,2.4610596,2.2297974,4,2.2297974
			c3.3137207,0,6-3.897583,6-8.7055054C46,24.897583,43.3137207,21,40,21z"/>
		<line fill="none" stroke="#0A0A0A" stroke-width="2" stroke-miterlimit="10" x1="36" y1="36" x2="36" y2="23"/>
	</g>
	
		<line fill="none" stroke="#0A0A0A" stroke-width="2" stroke-linecap="round" stroke-miterlimit="10" x1="13" y1="25" x2="13" y2="40"/>
	
		<line fill="none" stroke="#0A0A0A" stroke-width="2" stroke-linecap="round" stroke-miterlimit="10" x1="19" y1="25" x2="19" y2="40"/>
	
		<line fill="none" stroke="#0A0A0A" stroke-width="2" stroke-linecap="round" stroke-miterlimit="10" x1="24" y1="25" x2="24" y2="40"/>
	
		<line fill="none" stroke="#0A0A0A" stroke-width="2" stroke-linecap="round" stroke-miterlimit="10" x1="30" y1="25" x2="30" y2="40"/>
	<path fill="none" stroke="#0A0A0A" stroke-width="2" stroke-linecap="round" stroke-miterlimit="10" d="M10,13
		c0,0-1.583333,0.583333-1,3"/>
	<path fill="none" stroke="#0A0A0A" stroke-width="2" stroke-linecap="round" stroke-miterlimit="10" d="M15,13
		c0,0,0.333333,2.75,3,3"/>
	<path fill="none" stroke="#0A0A0A" stroke-width="2" stroke-linecap="round" stroke-miterlimit="10" d="M29,11c0,0,0.25,2.75-2,4"
		/>
	<path fill="none" stroke="#0A0A0A" stroke-width="2" stroke-linecap="round" stroke-miterlimit="10" d="M19,10c0,0,0.7599812,0,1,1
		"/>
	<path fill="none" stroke="#0A0A0A" stroke-width="2" stroke-linecap="round" stroke-miterlimit="10" d="M34,17
		c0,0-0.4166679,0.75-2,1"/>
	<path fill="none" stroke="#0A0A0A" stroke-width="2" stroke-linecap="round" stroke-miterlimit="10" d="M21,17
		c0,0,0.166666,2.083334,2,2"/>
</g>
<g id="roote-tomatto">
</g>
<g id="phot-pubs">
</g>
<g id="pubs">
</g>
<g id="cream-cake">
</g>
<g id="pista">
</g>
<g id="pistchios">
</g>
<g id="badam">
</g>
<g id="dryfrits">
</g>
<g id="cashews">
</g>
<g id="walnuts">
</g>
<g id="lime">
</g>
<g id="pomelo">
</g>
<g id="water-melon">
</g>
<g id="coconut">
</g>
<g id="avocado">
</g>
<g id="apple-2">
</g>
<g id="peach">
</g>
<g id="melon-slice">
</g>
<g id="village-aaple">
</g>
<g id="orange-2">
</g>
<g id="cooker">
</g>
<g id="cake-2">
</g>
<g id="root-food">
</g>
<g id="honey-ydew">
</g>
<g id="plum">
</g>
<g id="strawberry">
</g>
<g id="juice-straw">
</g>
<g id="carrote">
</g>
<g id="cake">
</g>
<g id="chena">
</g>
<g id="hotdogs">
</g>
<g id="banana">
</g>
<g id="melon">
</g>
<g id="grapes">
</g>
<g id="apple">
</g>
<g id="guava">
</g>
<g id="drop">
</g>
<g id="papper">
</g>
<g id="noodile">
</g>
<g id="burgger">
</g>
<g id="egg">
</g>
<g id="yoghurt">
</g>
<g id="juise-cup">
</g>
<g id="cup">
</g>
<g id="roll-slice">
</g>
<g id="fruit-bear">
</g>
<g id="round-glass">
</g>
<g id="pear">
</g>
<g id="orange">
</g>
<g id="corn-2">
</g>
<g id="corn-ice">
</g>
<g id="flavored">
</g>
<g id="ice-cream">
</g>
<g id="pomegranate">
</g>
<g id="flavored-cake">
</g>
<g id="cube-cake">
</g>
<g id="food-open">
</g>
<g id="food">
</g>
<g id="Layer_2">
</g>
<g id="knife-2">
</g>
<g id="juice">
</g>
<g id="food-close">
</g>
<g id="cooker-2">
</g>
</svg>
