<?xml version="1.0" encoding="utf-8"?>
<!-- Generator: Adobe Illustrator 18.0.0, SVG Export Plug-In . SVG Version: 6.00 Build 0)  -->
<!DOCTYPE svg PUBLIC "-//W3C//DTD SVG 1.1//EN" "http://www.w3.org/Graphics/SVG/1.1/DTD/svg11.dtd">
<svg version="1.1" xmlns="http://www.w3.org/2000/svg" xmlns:xlink="http://www.w3.org/1999/xlink" x="0px" y="0px"
	 viewBox="0 0 48 48" enable-background="new 0 0 48 48" xml:space="preserve">
<g id="Layer_1">
</g>
<g id="jug">
</g>
<g id="round-jug">
</g>
<g id="cook-hat">
</g>
<g id="plate">
</g>
<g id="dish">
</g>
<g id="cooker-3">
</g>
<g id="tea-port">
</g>
<g id="large-coffee">
</g>
<g id="coffee">
</g>
<g id="fish-2">
</g>
<g id="chicken">
</g>
<g id="rise">
</g>
<g id="bootle-3">
</g>
<g id="bottle-2">
</g>
<g id="bottle">
</g>
<g id="milk-2">
</g>
<g id="milk">
</g>
<g id="wine">
</g>
<g id="wine-biscuites">
</g>
<g id="larger-knife">
</g>
<g id="knife-3">
</g>
<g id="sticks">
</g>
<g id="brush">
</g>
<g id="knife">
</g>
<g id="spoons">
</g>
<g id="fork">
</g>
<g id="fish">
</g>
<g id="noodiles">
</g>
<g id="ice-cubs">
</g>
<g id="full-bear">
</g>
<g id="lime-juice">
</g>
<g id="corn-glass">
</g>
<g id="juice-straw_1_">
</g>
<g id="round-glass-2">
</g>
<g id="glass">
</g>
<g id="water">
</g>
<g id="juice-2">
</g>
<g id="bear-2">
</g>
<g id="roote-tomatto">
</g>
<g id="phot-pubs">
</g>
<g id="pubs">
</g>
<g id="cream-cake">
</g>
<g id="pista">
</g>
<g id="pistchios">
	<g>
		<path fill="none" stroke="#0A0A0A" stroke-width="2" stroke-linecap="round" stroke-linejoin="round" stroke-miterlimit="10" d="
			M27.1804008,25.0269165c0,0,1.6847286,0.9955215,2.3739338,3.6757698c0.6892071,2.6802483,4.2883968,4.364975,7.1983814,5.7433891
			c0,0-0.07658-4.5181332-2.2207756-6.1262817C32.3877411,26.7116432,27.8696079,25.945858,27.1804008,25.0269165z"/>
		<path fill="none" stroke="#0A0A0A" stroke-width="2" stroke-linecap="round" stroke-linejoin="round" stroke-miterlimit="10" d="
			M23.5046329,20.968256c0,0-7.1218033,3.752346-2.527092,10.4146786s10.5678368,7.7344284,13.7075558,7.7344284
			s7.1218033,0.689209,8.9596863,2.7568283c0,0-0.5360489-5.8199692-0.1531563-10.031786
			S38.4374428,15.6077595,23.5046329,20.968256z"/>
		<path fill="none" stroke="#0A0A0A" stroke-width="2" stroke-linecap="round" stroke-linejoin="round" stroke-miterlimit="10" d="
			M36.2932434,20.5087833c0.9955215-3.6757679-1.5315704-8.9596853-1.9910393-10.2615204
			c-0.4594727-1.3018351,1.5705185-3.3305054,0.4594688-4.4415541c-0.9955177-0.9955206-1.5315704,0.306314-3.9820805,0.3828926
			c-2.4505138,0.0765786-6.3560181-1.914463-10.5678368-2.220777s-8.1939011,2.1441984-8.1939011,2.1441984
			S3.9005322,9.4814777,4.1302676,20.7385197c0.2271008,11.127943,7.8110089,14.7030735,14.4733391,16.311224"/>
		<path fill="none" stroke="#0A0A0A" stroke-width="2" stroke-linecap="round" stroke-linejoin="round" stroke-miterlimit="10" d="
			M21.1306992,22.7295609c0,0-6.7003222,7.4542561-0.9189434,15.9283333
			c5.5902328,8.1939011,14.0138683,4.6712875,17.9959507,4.5181313c2.8406029-0.1092529,4.6712914-0.07658,5.6668129-0.6892052"/>
		<path fill="none" stroke="#0A0A0A" stroke-width="2" stroke-linecap="round" stroke-linejoin="round" stroke-miterlimit="10" d="
			M22.5091114,21.0448284c0-1.3533688-1.0114155-2.4505024-2.2590618-2.4505024
			c-0.4419994,0-0.8530388,0.1397839-1.2012882,0.3777924c-0.3364277-0.8950348-1.1455212-1.5264702-2.0915966-1.5264702
			c-0.4014626,0-0.7777405,0.1148109-1.1044664,0.3139935c-0.38974-0.7360401-1.1200171-1.232935-1.9586697-1.232935
			c-0.5576668,0-1.0672379,0.2202415-1.4612827,0.5835361c-0.3806257-0.3166847-0.8553524-0.5069637-1.372118-0.5069637
			c-1.2476587,0-2.2590752,1.0971336-2.2590752,2.4505177c0,0-2.1441936,10.1083603,9.1894274,14.932806"/>
	</g>
</g>
<g id="badam">
</g>
<g id="dryfrits">
</g>
<g id="cashews">
</g>
<g id="walnuts">
</g>
<g id="lime">
</g>
<g id="pomelo">
</g>
<g id="water-melon">
</g>
<g id="coconut">
</g>
<g id="avocado">
</g>
<g id="apple-2">
</g>
<g id="peach">
</g>
<g id="melon-slice">
</g>
<g id="village-aaple">
</g>
<g id="orange-2">
</g>
<g id="cooker">
</g>
<g id="cake-2">
</g>
<g id="root-food">
</g>
<g id="honey-ydew">
</g>
<g id="plum">
</g>
<g id="strawberry">
</g>
<g id="juice-straw">
</g>
<g id="carrote">
</g>
<g id="cake">
</g>
<g id="chena">
</g>
<g id="hotdogs">
</g>
<g id="banana">
</g>
<g id="melon">
</g>
<g id="grapes">
</g>
<g id="apple">
</g>
<g id="guava">
</g>
<g id="drop">
</g>
<g id="papper">
</g>
<g id="noodile">
</g>
<g id="burgger">
</g>
<g id="egg">
</g>
<g id="yoghurt">
</g>
<g id="juise-cup">
</g>
<g id="cup">
</g>
<g id="roll-slice">
</g>
<g id="fruit-bear">
</g>
<g id="round-glass">
</g>
<g id="pear">
</g>
<g id="orange">
</g>
<g id="corn-2">
</g>
<g id="corn-ice">
</g>
<g id="flavored">
</g>
<g id="ice-cream">
</g>
<g id="pomegranate">
</g>
<g id="flavored-cake">
</g>
<g id="cube-cake">
</g>
<g id="food-open">
</g>
<g id="food">
</g>
<g id="Layer_2">
</g>
<g id="knife-2">
</g>
<g id="juice">
</g>
<g id="food-close">
</g>
<g id="cooker-2">
</g>
</svg>
