<?xml version="1.0" encoding="utf-8"?>
<!-- Generator: Adobe Illustrator 18.0.0, SVG Export Plug-In . SVG Version: 6.00 Build 0)  -->
<!DOCTYPE svg PUBLIC "-//W3C//DTD SVG 1.1//EN" "http://www.w3.org/Graphics/SVG/1.1/DTD/svg11.dtd">
<svg version="1.1" xmlns="http://www.w3.org/2000/svg" xmlns:xlink="http://www.w3.org/1999/xlink" x="0px" y="0px"
	 viewBox="0 0 48 48" enable-background="new 0 0 48 48" xml:space="preserve">
<g id="Layer_1">
</g>
<g id="jug">
</g>
<g id="round-jug">
</g>
<g id="cook-hat">
</g>
<g id="plate">
</g>
<g id="dish">
</g>
<g id="cooker-3">
</g>
<g id="tea-port">
</g>
<g id="large-coffee">
</g>
<g id="coffee">
</g>
<g id="fish-2">
</g>
<g id="chicken">
</g>
<g id="rise">
</g>
<g id="bootle-3">
</g>
<g id="bottle-2">
</g>
<g id="bottle">
</g>
<g id="milk-2">
</g>
<g id="milk">
</g>
<g id="wine">
</g>
<g id="wine-biscuites">
</g>
<g id="larger-knife">
</g>
<g id="knife-3">
</g>
<g id="sticks">
</g>
<g id="brush">
</g>
<g id="knife">
</g>
<g id="spoons">
</g>
<g id="fork">
</g>
<g id="fish">
</g>
<g id="noodiles">
</g>
<g id="ice-cubs">
</g>
<g id="full-bear">
</g>
<g id="lime-juice">
</g>
<g id="corn-glass">
</g>
<g id="juice-straw_1_">
</g>
<g id="round-glass-2">
</g>
<g id="glass">
</g>
<g id="water">
</g>
<g id="juice-2">
</g>
<g id="bear-2">
</g>
<g id="roote-tomatto">
</g>
<g id="phot-pubs">
</g>
<g id="pubs">
</g>
<g id="cream-cake">
</g>
<g id="pista">
	<g>
		<path fill="none" stroke="#0A0A0A" stroke-width="2" stroke-linecap="round" stroke-linejoin="round" stroke-miterlimit="10" d="
			M7.329865,22.9932499c-1.643177-1.9339046-0.5732131-4.5967503,1.2259545-6.1255207
			c1.7992344-1.528266,4.6003408-2.1529818,6.243166-0.2187366c1.6430006,1.9342155,0.5733194,4.5972996-1.225915,6.1255665
			C11.7735634,24.3029785,8.972868,24.9274235,7.329865,22.9932499z"/>
	</g>
	<g>
		<path fill="none" stroke="#0A0A0A" stroke-width="2" stroke-linecap="round" stroke-linejoin="round" stroke-miterlimit="10" d="
			M35.873127,20C33.9902992,19.999321,32.9994125,18.1147556,33,16.3630695
			c0.0009079-1.751483,0.9940376-3.6349983,2.8768883-3.6339569c1.8829193,0.0009289,2.8740768,1.8854485,2.8731728,3.6369305
			C38.7491074,18.1177521,37.7560234,20.000906,35.873127,20z"/>
	</g>
	<g>
		<path fill="none" stroke="#0A0A0A" stroke-width="2" stroke-linecap="round" stroke-linejoin="round" stroke-miterlimit="10" d="
			M16.0025215,36.7618294c-1.2822952,1.3786812-3.3372898,0.8215141-4.6199741-0.3714371
			c-1.2823181-1.1930428-1.9858608-3.2027588-0.7032852-4.581213c1.2825394-1.3785782,3.3376865-0.82164,4.6200047,0.3714008
			C16.5817204,33.3738098,17.2850285,35.3832512,16.0025215,36.7618294z"/>
	</g>
	<g>
		<path fill="none" stroke="#0A0A0A" stroke-width="2" stroke-linecap="round" stroke-linejoin="round" stroke-miterlimit="10" d="
			M31.0025215,43.7618294c-1.2822952,1.3786812-3.3372898,0.8215141-4.6199741-0.3714371
			c-1.2823181-1.1930428-1.9858608-3.2027588-0.7032852-4.5812111c1.2825394-1.378582,3.3376865-0.82164,4.6200047,0.3713989
			C31.5817204,40.3738098,32.2850304,42.3832512,31.0025215,43.7618294z"/>
	</g>
	<g>
		<path fill="none" stroke="#0A0A0A" stroke-width="2" stroke-linecap="round" stroke-linejoin="round" stroke-miterlimit="10" d="
			M25.4177265,11.9993639c-1.8824024,0.0400915-2.913866-1.8225746-2.9512081-3.573863
			c-0.0370197-1.751091,0.9150906-3.6556706,2.7975235-3.6954002c1.8824997-0.0398445,2.9142323,1.8227711,2.9512539,3.5738621
			C28.2522755,10.0552807,27.3002014,11.9594975,25.4177265,11.9993639z"/>
	</g>
	<g>
		<path fill="none" stroke="#0A0A0A" stroke-width="2" stroke-linecap="round" stroke-linejoin="round" stroke-miterlimit="10" d="
			M26.1375771,17.7577953c-0.3838177,0.4126682-0.9989185,0.2458954-1.3828526-0.1111794
			c-0.3838253-0.3571014-0.5944099-0.9586525-0.2105083-1.3712502c0.3838902-0.4126377,0.9990387-0.2459354,1.3828621,0.1111679
			C26.3109436,16.7436905,26.5214577,17.3451576,26.1375771,17.7577953z"/>
	</g>
	<g>
		<path fill="none" stroke="#0A0A0A" stroke-width="2" stroke-linecap="round" stroke-linejoin="round" stroke-miterlimit="10" d="
			M42.7966766,22.7246342c-0.3838158,0.4126682-0.9989166,0.2458954-1.3828506-0.1111774
			c-0.3838272-0.3571033-0.5944099-0.9586525-0.2105103-1.3712521c0.3838921-0.4126377,0.9990387-0.2459335,1.3828659,0.1111679
			C42.9700432,21.7105312,43.1805611,22.3119965,42.7966766,22.7246342z"/>
	</g>
	<g>
		<path fill="none" stroke="#0A0A0A" stroke-width="2" stroke-linecap="round" stroke-linejoin="round" stroke-miterlimit="10" d="
			M34.7966766,41.7577934c-0.3838158,0.4126701-0.9989166,0.2458992-1.3828506-0.1111755
			c-0.3838272-0.3571053-0.5944099-0.9586525-0.2105103-1.371254c0.3838921-0.4126358,0.9990387-0.2459335,1.3828659,0.1111679
			C34.9700432,40.7436905,35.1805611,41.3451576,34.7966766,41.7577934z"/>
	</g>
	<g>
		<path fill="none" stroke="#0A0A0A" stroke-width="2" stroke-linecap="round" stroke-linejoin="round" stroke-miterlimit="10" d="
			M23.7966785,35.7577934c-0.3838177,0.4126701-0.9989204,0.2458992-1.3828545-0.1111755
			c-0.3838234-0.3571053-0.594408-0.9586525-0.2105064-1.371254c0.3838902-0.4126358,0.9990387-0.2459335,1.3828621,0.1111679
			C23.9700451,34.7436905,24.1805592,35.3451576,23.7966785,35.7577934z"/>
	</g>
	<g>
		<path fill="none" stroke="#0A0A0A" stroke-width="2" stroke-linecap="round" stroke-linejoin="round" stroke-miterlimit="10" d="
			M21.7966785,41.7577934c-0.3838177,0.4126701-0.9989204,0.2458992-1.3828545-0.1111755
			c-0.3838234-0.3571053-0.594408-0.9586525-0.2105064-1.371254c0.3838902-0.4126358,0.9990387-0.2459335,1.3828621,0.1111679
			C21.9700451,40.7436905,22.1805592,41.3451576,21.7966785,41.7577934z"/>
	</g>
	<g>
		<path fill="none" stroke="#0A0A0A" stroke-width="2" stroke-linecap="round" stroke-linejoin="round" stroke-miterlimit="10" d="
			M13.3272963,13.7125292c0.0847874-1.8809195,2.011735-2.7866316,3.7616453-2.7077942
			c1.7496929,0.0791454,3.5869656,1.1554232,3.5018158,3.0363483c-0.0850391,1.8809986-2.0119534,2.7869844-3.7616463,2.707839
			C15.0791931,16.6697216,13.242281,15.5935059,13.3272963,13.7125292z"/>
	</g>
	<g>
		<path fill="none" stroke="#0A0A0A" stroke-width="2" stroke-linecap="round" stroke-linejoin="round" stroke-miterlimit="10" d="
			M43.0025215,34.7618294c-1.2822952,1.3786812-3.3372917,0.8215141-4.6199722-0.3714371
			c-1.2823219-1.1930428-1.9858627-3.2027588-0.703289-4.581213c1.2825394-1.3785782,3.3376884-0.82164,4.6200066,0.3714027
			C43.5817223,31.3738117,44.2850304,33.3832512,43.0025215,34.7618294z"/>
	</g>
	<g>
		<path fill="none" stroke="#0A0A0A" stroke-width="2" stroke-linecap="round" stroke-linejoin="round" stroke-miterlimit="10" d="
			M27.0681934,30.636713c0.2807064,0.2662983,0.5834599,0.5100975,0.9041405,0.7191582
			c1.9779415,1.2891331,4.8352184,1.5561962,6.2209492-0.5697727c1.3860359-2.1259327-0.0103645-4.6326866-1.9880981-5.922266
			c-1.617342-1.0545635-3.8112431-1.4001503-5.3194103-0.337059"/>
		<path fill="none" stroke="#0A0A0A" stroke-width="2" stroke-linecap="round" stroke-linejoin="round" stroke-miterlimit="10" d="
			M25.9842186,25.4336643c0.2524319-0.3872128,0.5657101-0.6701488,0.901556-0.9068909
			c-0.2807064-0.2662983-0.5835171-0.5101166-0.9041805-0.7192364c-1.9774799-1.2893677-4.8349876-1.5561199-6.2210236,0.5698128
			c-1.386097,2.125721,0.0106335,4.6328392,1.9881134,5.9222069c1.6176701,1.0543499,3.811573,1.4001293,5.3195095,0.3371563
			C25.617672,29.2607422,24.8228474,27.214716,25.9842186,25.4336643z"/>
	</g>
</g>
<g id="pistchios">
</g>
<g id="badam">
</g>
<g id="dryfrits">
</g>
<g id="cashews">
</g>
<g id="walnuts">
</g>
<g id="lime">
</g>
<g id="pomelo">
</g>
<g id="water-melon">
</g>
<g id="coconut">
</g>
<g id="avocado">
</g>
<g id="apple-2">
</g>
<g id="peach">
</g>
<g id="melon-slice">
</g>
<g id="village-aaple">
</g>
<g id="orange-2">
</g>
<g id="cooker">
</g>
<g id="cake-2">
</g>
<g id="root-food">
</g>
<g id="honey-ydew">
</g>
<g id="plum">
</g>
<g id="strawberry">
</g>
<g id="juice-straw">
</g>
<g id="carrote">
</g>
<g id="cake">
</g>
<g id="chena">
</g>
<g id="hotdogs">
</g>
<g id="banana">
</g>
<g id="melon">
</g>
<g id="grapes">
</g>
<g id="apple">
</g>
<g id="guava">
</g>
<g id="drop">
</g>
<g id="papper">
</g>
<g id="noodile">
</g>
<g id="burgger">
</g>
<g id="egg">
</g>
<g id="yoghurt">
</g>
<g id="juise-cup">
</g>
<g id="cup">
</g>
<g id="roll-slice">
</g>
<g id="fruit-bear">
</g>
<g id="round-glass">
</g>
<g id="pear">
</g>
<g id="orange">
</g>
<g id="corn-2">
</g>
<g id="corn-ice">
</g>
<g id="flavored">
</g>
<g id="ice-cream">
</g>
<g id="pomegranate">
</g>
<g id="flavored-cake">
</g>
<g id="cube-cake">
</g>
<g id="food-open">
</g>
<g id="food">
</g>
<g id="Layer_2">
</g>
<g id="knife-2">
</g>
<g id="juice">
</g>
<g id="food-close">
</g>
<g id="cooker-2">
</g>
</svg>
