<?xml version="1.0" encoding="utf-8"?>
<!-- Generator: Adobe Illustrator 18.0.0, SVG Export Plug-In . SVG Version: 6.00 Build 0)  -->
<!DOCTYPE svg PUBLIC "-//W3C//DTD SVG 1.1//EN" "http://www.w3.org/Graphics/SVG/1.1/DTD/svg11.dtd">
<svg version="1.1" xmlns="http://www.w3.org/2000/svg" xmlns:xlink="http://www.w3.org/1999/xlink" x="0px" y="0px"
	 viewBox="0 0 48 48" enable-background="new 0 0 48 48" xml:space="preserve">
<g id="Layer_1">
</g>
<g id="jug">
</g>
<g id="round-jug">
</g>
<g id="cook-hat">
</g>
<g id="plate">
</g>
<g id="dish">
</g>
<g id="cooker-3">
</g>
<g id="tea-port">
</g>
<g id="large-coffee">
</g>
<g id="coffee">
</g>
<g id="fish-2">
</g>
<g id="chicken">
</g>
<g id="rise">
</g>
<g id="bootle-3">
</g>
<g id="bottle-2">
</g>
<g id="bottle">
</g>
<g id="milk-2">
</g>
<g id="milk">
</g>
<g id="wine">
</g>
<g id="wine-biscuites">
</g>
<g id="larger-knife">
</g>
<g id="knife-3">
</g>
<g id="sticks">
</g>
<g id="brush">
</g>
<g id="knife">
</g>
<g id="spoons">
</g>
<g id="fork">
</g>
<g id="fish">
</g>
<g id="noodiles">
</g>
<g id="ice-cubs">
</g>
<g id="full-bear">
</g>
<g id="lime-juice">
</g>
<g id="corn-glass">
</g>
<g id="juice-straw_1_">
</g>
<g id="round-glass-2">
</g>
<g id="glass">
</g>
<g id="water">
</g>
<g id="juice-2">
</g>
<g id="bear-2">
</g>
<g id="roote-tomatto">
</g>
<g id="phot-pubs">
</g>
<g id="pubs">
</g>
<g id="cream-cake">
</g>
<g id="pista">
</g>
<g id="pistchios">
</g>
<g id="badam">
</g>
<g id="dryfrits">
</g>
<g id="cashews">
</g>
<g id="walnuts">
</g>
<g id="lime">
</g>
<g id="pomelo">
</g>
<g id="water-melon">
</g>
<g id="coconut">
</g>
<g id="avocado">
</g>
<g id="apple-2">
</g>
<g id="peach">
</g>
<g id="melon-slice">
</g>
<g id="village-aaple">
</g>
<g id="orange-2">
</g>
<g id="cooker">
</g>
<g id="cake-2">
</g>
<g id="root-food">
</g>
<g id="honey-ydew">
</g>
<g id="plum">
</g>
<g id="strawberry">
</g>
<g id="juice-straw">
</g>
<g id="carrote">
</g>
<g id="cake">
</g>
<g id="chena">
</g>
<g id="hotdogs">
</g>
<g id="banana">
</g>
<g id="melon">
</g>
<g id="grapes">
</g>
<g id="apple">
</g>
<g id="guava">
</g>
<g id="drop">
</g>
<g id="papper">
</g>
<g id="noodile">
</g>
<g id="burgger">
</g>
<g id="egg">
</g>
<g id="yoghurt">
</g>
<g id="juise-cup">
</g>
<g id="cup">
</g>
<g id="roll-slice">
</g>
<g id="fruit-bear">
</g>
<g id="round-glass">
</g>
<g id="pear">
</g>
<g id="orange">
</g>
<g id="corn-2">
</g>
<g id="corn-ice">
</g>
<g id="flavored">
</g>
<g id="ice-cream">
</g>
<g id="pomegranate">
</g>
<g id="flavored-cake">
</g>
<g id="cube-cake">
</g>
<g id="food-open">
	<path fill="none" stroke="#0A0A0A" stroke-width="2" stroke-linecap="round" stroke-miterlimit="10" d="M46,37v0.0000038
		c-0.6128654,1.2257309-1.8656578,2-3.2360687,2H5.2360673c-1.3704095,0-2.6232009-0.7742691-3.2360663-2L2,37"/>
	<path fill="none" stroke="#0A0A0A" stroke-width="2" stroke-linecap="round" stroke-miterlimit="10" d="M12,39v0.0000038
		C12,41.2091408,13.7908592,43,15.9999962,43h16.0000076C34.2091408,43,36,41.2091408,36,39.0000038V39"/>
	<path fill="none" stroke="#0A0A0A" stroke-width="2" stroke-linejoin="round" stroke-miterlimit="10" d="M14.9084473,32.0465698"/>
	<path fill="none" stroke="#0A0A0A" stroke-width="2" stroke-linejoin="round" stroke-miterlimit="10" d="M41,36.7496338
		c0-0.9277344-0.4300537-1.7466431-1.0915527-2.296936C39.9631348,34.2261963,40,33.9929199,40,33.7496338
		c0-0.9277344-0.4300537-1.7466431-1.0915527-2.296936C38.9631348,31.2261963,39,30.9929199,39,30.7496338
		c0-0.1712646-0.0228271-0.3365479-0.050415-0.5C38.9771729,30.0861816,39,29.9208984,39,29.7496338c0-1.6568604-1.3431396-3-3-3
		c-0.8695068,0-1.6461182,0.3757324-2.1940308,0.9667969c-0.3092041-0.8388062-0.9782104-1.4939575-1.8239136-1.7886353
		C31.9856567,25.8676758,32,25.8106689,32,25.7496338c0-1.6568604-1.3431396-3-3-3
		c-0.8695068,0-1.6461182,0.3757324-2.1940308,0.9667969C26.383728,22.5709229,25.2921143,21.7496338,24,21.7496338
		c-0.7718506,0-1.4683838,0.2996826-2,0.7785645c-0.5316162-0.4788818-1.2281494-0.7785645-2-0.7785645
		c-1.3850708,0-2.5392456,0.9437256-2.8844604,2.2196045C16.7701416,23.8305054,16.3950195,23.7496338,16,23.7496338
		c-1.6568604,0-3,1.3431396-3,3c-1.6568604,0-3,1.3431396-3,3c0,0.2432861,0.0368652,0.4765625,0.0915527,0.703064
		c-0.2540894,0.2113647-0.4730225,0.4590454-0.6459351,0.7425537C8.5820313,31.7219849,8,32.6641235,8,33.7496338
		c0,0.0610352,0.0143433,0.118042,0.0179443,0.1781616C6.8461914,34.3360596,6,35.4387207,6,36.7496338"/>
	<path fill="none" stroke="#0A0A0A" stroke-width="2" stroke-linecap="round" stroke-miterlimit="10" d="M26.4299984,6.0081205
		c0,1.5693951-2.8599987,1.5693951-2.8599987,3.1387901c0,1.5704737,2.8599987,1.5704737,2.8599987,3.1409473
		s-2.8599987,1.5704727-2.8599987,3.1409464"/>
	<path fill="none" stroke="#0A0A0A" stroke-width="2" stroke-linecap="round" stroke-miterlimit="10" d="M14.5699997,17.9999905
		c0-1.8561134,2.8600006-1.8561134,2.8600006-3.7122259c0-1.8573885-2.8600006-1.8573885-2.8600006-3.714777
		s2.8600006-1.8573885,2.8600006-3.714776"/>
	<path fill="none" stroke="#0A0A0A" stroke-width="2" stroke-linecap="round" stroke-miterlimit="10" d="M32.5699997,17.9999905
		c0-1.8561134,2.8600006-1.8561134,2.8600006-3.7122259c0-1.8573885-2.8600006-1.8573885-2.8600006-3.714777
		s2.8600006-1.8573885,2.8600006-3.714776"/>
	
		<circle fill="none" stroke="#0A0A0A" stroke-width="2" stroke-linejoin="round" stroke-miterlimit="10" cx="20.5" cy="31.5" r="0.5"/>
	
		<circle fill="none" stroke="#0A0A0A" stroke-width="2" stroke-linejoin="round" stroke-miterlimit="10" cx="15.5" cy="30.5" r="0.5"/>
	
		<circle fill="none" stroke="#0A0A0A" stroke-width="2" stroke-linejoin="round" stroke-miterlimit="10" cx="25.5" cy="27.5" r="0.5"/>
	
		<circle fill="none" stroke="#0A0A0A" stroke-width="2" stroke-linejoin="round" stroke-miterlimit="10" cx="31.5" cy="34.5" r="0.5"/>
</g>
<g id="food">
</g>
<g id="Layer_2">
</g>
<g id="knife-2">
</g>
<g id="juice">
</g>
<g id="food-close">
</g>
<g id="cooker-2">
</g>
</svg>
