<?xml version="1.0" encoding="utf-8"?>
<!-- Generator: Adobe Illustrator 18.0.0, SVG Export Plug-In . SVG Version: 6.00 Build 0)  -->
<!DOCTYPE svg PUBLIC "-//W3C//DTD SVG 1.1//EN" "http://www.w3.org/Graphics/SVG/1.1/DTD/svg11.dtd">
<svg version="1.1" xmlns="http://www.w3.org/2000/svg" xmlns:xlink="http://www.w3.org/1999/xlink" x="0px" y="0px"
	 viewBox="0 0 48 48" enable-background="new 0 0 48 48" xml:space="preserve">
<g id="Layer_1">
</g>
<g id="jug">
</g>
<g id="round-jug">
</g>
<g id="cook-hat">
</g>
<g id="plate">
</g>
<g id="dish">
</g>
<g id="cooker-3">
</g>
<g id="tea-port">
</g>
<g id="large-coffee">
</g>
<g id="coffee">
</g>
<g id="fish-2">
</g>
<g id="chicken">
</g>
<g id="rise">
</g>
<g id="bootle-3">
</g>
<g id="bottle-2">
</g>
<g id="bottle">
</g>
<g id="milk-2">
</g>
<g id="milk">
</g>
<g id="wine">
</g>
<g id="wine-biscuites">
</g>
<g id="larger-knife">
</g>
<g id="knife-3">
</g>
<g id="sticks">
</g>
<g id="brush">
</g>
<g id="knife">
</g>
<g id="spoons">
</g>
<g id="fork">
</g>
<g id="fish">
</g>
<g id="noodiles">
</g>
<g id="ice-cubs">
</g>
<g id="full-bear">
</g>
<g id="lime-juice">
</g>
<g id="corn-glass">
</g>
<g id="juice-straw_1_">
</g>
<g id="round-glass-2">
</g>
<g id="glass">
</g>
<g id="water">
</g>
<g id="juice-2">
</g>
<g id="bear-2">
</g>
<g id="roote-tomatto">
</g>
<g id="phot-pubs">
</g>
<g id="pubs">
</g>
<g id="cream-cake">
</g>
<g id="pista">
</g>
<g id="pistchios">
</g>
<g id="badam">
</g>
<g id="dryfrits">
</g>
<g id="cashews">
</g>
<g id="walnuts">
</g>
<g id="lime">
</g>
<g id="pomelo">
</g>
<g id="water-melon">
</g>
<g id="coconut">
</g>
<g id="avocado">
</g>
<g id="apple-2">
</g>
<g id="peach">
</g>
<g id="melon-slice">
</g>
<g id="village-aaple">
</g>
<g id="orange-2">
</g>
<g id="cooker">
</g>
<g id="cake-2">
</g>
<g id="root-food">
</g>
<g id="honey-ydew">
</g>
<g id="plum">
</g>
<g id="strawberry">
</g>
<g id="juice-straw">
</g>
<g id="carrote">
</g>
<g id="cake">
</g>
<g id="chena">
</g>
<g id="hotdogs">
</g>
<g id="banana">
</g>
<g id="melon">
</g>
<g id="grapes">
</g>
<g id="apple">
</g>
<g id="guava">
	<path fill="none" stroke="#0A0A0A" stroke-width="2" stroke-linecap="round" stroke-miterlimit="10" d="M37.9746094,23.7520752
		C37.9831543,23.6679688,38,23.5863647,38,23.5c0-1.3807373-1.1192627-2.5-2.5-2.5
		c-1.2259521,0-2.2412109,0.8837891-2.4544678,2.0481567c-4.0330811,0.3473511-7.4365234,2.8690796-9.0455933,6.388855
		L24,29.4368896c-1.3295898-2.9084473-3.8861694-5.1345215-7.0081787-6.0181885C16.947876,22.0765381,15.8529053,21,14.5,21
		c-1.2730103,0-2.3121338,0.9549561-2.4683228,2.1855469C6.8973389,24.114624,3,28.5978394,3,34c0,6.0751343,4.9248657,11,11,11
		c4.4452515,0,8.2651978-2.6420898,10-6.4368896l-0.000061-0.0001221C25.7347412,42.3578491,29.5547485,45,34,45
		c6.0751343,0,11-4.9248657,11-11C45,29.3282471,42.0827637,25.3469238,37.9746094,23.7520752z"/>
	<path fill="none" stroke="#0A0A0A" stroke-width="2" stroke-linecap="round" stroke-linejoin="round" stroke-miterlimit="10" d="
		M21,10c3,3.8745279,15,4.625,15,10.9989433"/>
	<path fill="none" stroke="#0A0A0A" stroke-width="2" stroke-linecap="round" stroke-linejoin="round" stroke-miterlimit="10" d="
		M15,21c0,0,2.7333336-12.4748783,13-17.8748779"/>
	<path fill="none" stroke="#0A0A0A" stroke-width="2" stroke-linecap="round" stroke-miterlimit="10" d="M23.5944691,5.3604655
		c0,0-2.5947151-2.2461607-6.6650658-0.7595468"/>
	<path fill="none" stroke="#0A0A0A" stroke-width="2" stroke-linecap="round" stroke-miterlimit="10" d="M20.0904026,4.5110364
		c0,0-4.5059061,7.6784778-13.4934292,3.8635945C6.5969739,8.3746309,13.9634638-3.8973148,20.0904026,4.5110364z"/>
	<path fill="none" stroke="#0A0A0A" stroke-width="2" stroke-linecap="round" stroke-linejoin="round" stroke-miterlimit="10" d="
		M7,32c0,0-1.5,3.25,2,8"/>
	<path fill="none" stroke="#0A0A0A" stroke-width="2" stroke-linecap="round" stroke-linejoin="round" stroke-miterlimit="10" d="
		M27,32c0,0-1.5,2.84375,2,7"/>
</g>
<g id="drop">
</g>
<g id="papper">
</g>
<g id="noodile">
</g>
<g id="burgger">
</g>
<g id="egg">
</g>
<g id="yoghurt">
</g>
<g id="juise-cup">
</g>
<g id="cup">
</g>
<g id="roll-slice">
</g>
<g id="fruit-bear">
</g>
<g id="round-glass">
</g>
<g id="pear">
</g>
<g id="orange">
</g>
<g id="corn-2">
</g>
<g id="corn-ice">
</g>
<g id="flavored">
</g>
<g id="ice-cream">
</g>
<g id="pomegranate">
</g>
<g id="flavored-cake">
</g>
<g id="cube-cake">
</g>
<g id="food-open">
</g>
<g id="food">
</g>
<g id="Layer_2">
</g>
<g id="knife-2">
</g>
<g id="juice">
</g>
<g id="food-close">
</g>
<g id="cooker-2">
</g>
</svg>
