<?xml version="1.0" encoding="utf-8"?>
<!-- Generator: Adobe Illustrator 18.0.0, SVG Export Plug-In . SVG Version: 6.00 Build 0)  -->
<!DOCTYPE svg PUBLIC "-//W3C//DTD SVG 1.1//EN" "http://www.w3.org/Graphics/SVG/1.1/DTD/svg11.dtd">
<svg version="1.1" xmlns="http://www.w3.org/2000/svg" xmlns:xlink="http://www.w3.org/1999/xlink" x="0px" y="0px"
	 viewBox="0 0 48 48" enable-background="new 0 0 48 48" xml:space="preserve">
<g id="Layer_1">
</g>
<g id="toys-3">
</g>
<g id="toys-2">
</g>
<g id="toys-1">
</g>
<g id="kids-star">
</g>
<g id="game-st">
</g>
<g id="wind-toy-2">
</g>
<g id="wind-toy">
</g>
<g id="circle-ride">
</g>
<g id="horse-cycle">
</g>
<g id="globe-climping">
</g>
<g id="park-game-4">
</g>
<g id="verticle-stair">
</g>
<g id="upandown-2">
</g>
<g id="upandown">
</g>
<g id="climping">
</g>
<g id="parkgame-2">
</g>
<g id="park-game">
</g>
<g id="playground">
</g>
<g id="cricketball">
</g>
<g id="basketball_1_">
</g>
<g id="baseball_1_">
</g>
<g id="ball-5">
</g>
<g id="ball-4">
</g>
<g id="ball-3">
</g>
<g id="archery-1">
	<g>
		<path fill="none" stroke="#000000" stroke-width="2" stroke-linecap="round" stroke-miterlimit="10" d="M35.8621216,16.5891113
			C37.2089844,18.7401733,38,21.2749023,38,24c0,7.7319946-6.2680054,14-14,14s-14-6.2680054-14-14s6.2680054-14,14-14
			c2.7250977,0,5.2598267,0.7910156,7.4108887,2.1378784"/>
		<path fill="none" stroke="#000000" stroke-width="2" stroke-linecap="round" stroke-miterlimit="10" d="M34.3142853,8.6417351
			C31.3672676,6.6586967,27.8192253,5.5,24,5.5C13.7827568,5.5,5.5,13.7826948,5.5,24c0,10.2172432,8.2827568,18.5,18.5,18.5
			S42.5,34.2172432,42.5,24c0-3.8192253-1.1586342-7.3672676-3.1417351-10.3142872"/>
		<path fill="none" stroke="#000000" stroke-width="2" stroke-linecap="round" stroke-miterlimit="10" d="M31.996582,19.882019
			C32.6338501,21.1168823,33,22.5145874,33,24c0,4.97052-4.0294189,9-9,9s-9-4.02948-9-9c0-4.9705811,4.0294189-9,9-9
			c1.4854126,0,2.8831177,0.3661499,4.117981,1.003418"/>
		<path fill="none" stroke="#000000" stroke-width="2" stroke-linecap="round" stroke-miterlimit="10" d="M31.4108887,12.1378784
			C29.2598267,10.7910156,26.7250977,10,24,10c-7.7319946,0-14,6.2680054-14,14s6.2680054,14,14,14s14-6.2680054,14-14
			c0-2.7250977-0.7910156-5.2598267-2.1378784-7.4108887"/>
		<path fill="none" stroke="#000000" stroke-width="2" stroke-linecap="round" stroke-miterlimit="10" d="M24.6571045,20.0662231
			C24.4421387,20.0305176,24.2250977,20,24,20c-2.2091675,0-4,1.7908325-4,4c0,2.2091064,1.7908325,4,4,4s4-1.7908936,4-4
			c0-0.2250977-0.0305176-0.4421387-0.0662231-0.6571045"/>
		
			<polyline fill="none" stroke="#000000" stroke-width="2" stroke-linecap="round" stroke-linejoin="round" stroke-miterlimit="10" points="
			24,24 39,9 38,5 42,2 42,6 46,6 43,10 39,9 		"/>
	</g>
	<polyline fill="none" stroke="#000000" stroke-width="2" stroke-linejoin="round" stroke-miterlimit="10" points="11,37 11,46 
		16,41 	"/>
	<polyline fill="none" stroke="#000000" stroke-width="2" stroke-linejoin="round" stroke-miterlimit="10" points="37,37 37,46 
		32,41 	"/>
</g>
<g id="archery">
</g>
<g id="gymnastics">
</g>
<g id="wight">
</g>
<g id="winner">
</g>
<g id="underwater">
</g>
<g id="cycling">
</g>
<g id="bowlling">
</g>
<g id="cricket-2">
</g>
<g id="football-2">
</g>
<g id="shuttile">
</g>
<g id="football_1_">
</g>
<g id="golf">
</g>
<g id="running">
</g>
<g id="archery-2">
</g>
<g id="cards">
</g>
<g id="dice-2">
</g>
<g id="prices">
</g>
<g id="timer_1_">
</g>
<g id="progress-bar">
</g>
<g id="fistball_1_">
</g>
<g id="time-board">
</g>
<g id="score-board">
</g>
<g id="team">
</g>
<g id="bat">
</g>
<g id="stumps">
</g>
<g id="surffing">
</g>
<g id="helmet">
</g>
<g id="bootom_wear">
</g>
<g id="sports-wear">
</g>
<g id="indoorgame">
</g>
<g id="sponsers">
</g>
<g id="medal">
</g>
<g id="running-shoes">
</g>
<g id="corcke">
</g>
<g id="gloves">
</g>
<g id="shattile-bat">
</g>
<g id="drink">
</g>
<g id="base-ball">
</g>
<g id="hokky">
</g>
<g id="golf-1">
</g>
<g id="arrow_board">
</g>
<g id="trofy">
</g>
<g id="sport-shoes">
</g>
<g id="graph-2">
</g>
<g id="fire">
</g>
<g id="baseball">
</g>
<g id="fistball">
</g>
<g id="rugby-ball">
</g>
<g id="basketball">
</g>
<g id="coin-game">
</g>
<g id="table-tennies">
</g>
<g id="remote-wl">
</g>
<g id="angribird-2">
</g>
<g id="angribird-1">
</g>
<g id="angrybird">
</g>
<g id="tools">
</g>
<g id="tool">
</g>
<g id="football">
</g>
<g id="game">
</g>
<g id="ps2">
</g>
<g id="timer">
</g>
<g id="king">
</g>
<g id="bishop">
</g>
<g id="rook">
</g>
<g id="pawn">
</g>
<g id="chess">
</g>
<g id="knight">
</g>
<g id="remote-w">
</g>
<g id="remote">
</g>
<g id="dice">
</g>
<g id="Layer_2">
</g>
<g id="Layer_3">
</g>
<g id="Layer_4">
</g>
<g id="Layer_5">
</g>
<g id="Layer_6">
</g>
<g id="price-stand">
</g>
<g id="ball-2">
</g>
<g id="cube-cake">
</g>
<g id="cycle">
</g>
</svg>
