<?xml version="1.0" encoding="utf-8"?>
<!-- Generator: Adobe Illustrator 18.0.0, SVG Export Plug-In . SVG Version: 6.00 Build 0)  -->
<!DOCTYPE svg PUBLIC "-//W3C//DTD SVG 1.1//EN" "http://www.w3.org/Graphics/SVG/1.1/DTD/svg11.dtd">
<svg version="1.1" xmlns="http://www.w3.org/2000/svg" xmlns:xlink="http://www.w3.org/1999/xlink" x="0px" y="0px"
	 viewBox="0 0 48 48" enable-background="new 0 0 48 48" xml:space="preserve">
<g id="Layer_1">
</g>
<g id="toys-3">
</g>
<g id="toys-2">
</g>
<g id="toys-1">
</g>
<g id="kids-star">
</g>
<g id="game-st">
</g>
<g id="wind-toy-2">
</g>
<g id="wind-toy">
</g>
<g id="circle-ride">
</g>
<g id="horse-cycle">
</g>
<g id="globe-climping">
</g>
<g id="park-game-4">
</g>
<g id="verticle-stair">
</g>
<g id="upandown-2">
</g>
<g id="upandown">
</g>
<g id="climping">
</g>
<g id="parkgame-2">
</g>
<g id="park-game">
</g>
<g id="playground">
</g>
<g id="cricketball">
</g>
<g id="basketball_1_">
</g>
<g id="baseball_1_">
</g>
<g id="ball-5">
</g>
<g id="ball-4">
</g>
<g id="ball-3">
</g>
<g id="archery-1">
</g>
<g id="archery">
</g>
<g id="gymnastics">
</g>
<g id="wight">
</g>
<g id="winner">
</g>
<g id="underwater">
</g>
<g id="cycling">
</g>
<g id="bowlling">
</g>
<g id="cricket-2">
</g>
<g id="football-2">
</g>
<g id="shuttile">
</g>
<g id="football_1_">
</g>
<g id="golf">
</g>
<g id="running">
</g>
<g id="archery-2">
</g>
<g id="cards">
</g>
<g id="dice-2">
</g>
<g id="prices">
</g>
<g id="timer_1_">
</g>
<g id="progress-bar">
</g>
<g id="fistball_1_">
</g>
<g id="time-board">
</g>
<g id="score-board">
</g>
<g id="team">
</g>
<g id="bat">
</g>
<g id="stumps">
</g>
<g id="surffing">
</g>
<g id="helmet">
</g>
<g id="bootom_wear">
</g>
<g id="sports-wear">
</g>
<g id="indoorgame">
</g>
<g id="sponsers">
</g>
<g id="medal">
</g>
<g id="running-shoes">
</g>
<g id="corcke">
</g>
<g id="gloves">
</g>
<g id="shattile-bat">
</g>
<g id="drink">
</g>
<g id="base-ball">
</g>
<g id="hokky">
</g>
<g id="golf-1">
</g>
<g id="arrow_board">
</g>
<g id="trofy">
</g>
<g id="sport-shoes">
</g>
<g id="graph-2">
</g>
<g id="fire">
</g>
<g id="baseball">
</g>
<g id="fistball">
</g>
<g id="rugby-ball">
</g>
<g id="basketball">
</g>
<g id="coin-game">
	<ellipse fill="none" stroke="#000000" stroke-width="2" stroke-miterlimit="10" cx="15.5" cy="23" rx="12.5" ry="5"/>
	
		<ellipse fill="none" stroke="#000000" stroke-width="2" stroke-linecap="round" stroke-miterlimit="10" stroke-dasharray="3" cx="15.5" cy="23" rx="9.083333" ry="2"/>
	<path fill="none" stroke="#000000" stroke-width="2" stroke-linecap="round" stroke-miterlimit="10" d="M28,26
		c0,2.7614231-5.5964413,5-12.5,5S3,28.7614231,3,26"/>
	<path fill="none" stroke="#000000" stroke-width="2" stroke-linecap="round" stroke-miterlimit="10" d="M28,29
		c0,2.7614231-5.5964413,5-12.5,5S3,31.7614231,3,29"/>
	<path fill="none" stroke="#000000" stroke-width="2" stroke-linecap="round" stroke-miterlimit="10" d="M28,32
		c0,2.761425-5.5964413,5-12.5,5S3,34.761425,3,32"/>
	<path fill="none" stroke="#000000" stroke-width="2" stroke-linecap="round" stroke-miterlimit="10" d="M28,35
		c0,2.761425-5.5964413,5-12.5,5S3,37.761425,3,35"/>
	<path fill="none" stroke="#000000" stroke-width="2" stroke-linecap="round" stroke-miterlimit="10" d="M28,38
		c0,2.761425-5.5964413,5-12.5,5S3,40.761425,3,38"/>
	<path fill="none" stroke="#000000" stroke-width="2" stroke-linecap="round" stroke-miterlimit="10" d="M28,41
		c0,2.761425-5.5964413,5-12.5,5S3,43.761425,3,41"/>
	<ellipse fill="none" stroke="#000000" stroke-width="2" stroke-miterlimit="10" cx="28.5" cy="8" rx="12.5" ry="5"/>
	
		<ellipse fill="none" stroke="#000000" stroke-width="2" stroke-linecap="round" stroke-miterlimit="10" stroke-dasharray="3" cx="28.5" cy="8" rx="9.083333" ry="2"/>
	<path fill="none" stroke="#000000" stroke-width="2" stroke-linecap="round" stroke-miterlimit="10" d="M41,11
		c0,2.7614241-5.5964394,5-12.5,5S16,13.7614241,16,11"/>
	<path fill="none" stroke="#000000" stroke-width="2" stroke-linecap="round" stroke-miterlimit="10" d="M41,14
		c0,2.7614231-5.5964394,5-12.5,5S16,16.7614231,16,14"/>
	<path fill="none" stroke="#000000" stroke-width="2" stroke-linecap="round" stroke-miterlimit="10" d="M41,17
		c0,2.7614231-5.5964394,5-12.5,5"/>
	<path fill="none" stroke="#000000" stroke-width="2" stroke-linecap="round" stroke-miterlimit="10" d="M41,20
		c0,2.7614231-5.5964394,5-12.5,5"/>
	<path fill="none" stroke="#000000" stroke-width="2" stroke-linecap="round" stroke-miterlimit="10" d="M41,23
		c0,2.7614231-5.5964394,5-12.5,5"/>
	<path fill="none" stroke="#000000" stroke-width="2" stroke-linecap="round" stroke-miterlimit="10" d="M41,26
		c0,2.7614231-5.5964394,5-12.5,5"/>
	<path fill="none" stroke="#000000" stroke-width="2" stroke-linecap="round" stroke-miterlimit="10" d="M41,29
		c0,2.7614231-5.5964394,5-12.5,5"/>
	<path fill="none" stroke="#000000" stroke-width="2" stroke-linecap="round" stroke-miterlimit="10" d="M41,32
		c0,2.761425-5.5964394,5-12.5,5"/>
	<path fill="none" stroke="#000000" stroke-width="2" stroke-linecap="round" stroke-miterlimit="10" d="M41,35
		c0,2.761425-5.5964394,5-12.5,5"/>
	<path fill="none" stroke="#000000" stroke-width="2" stroke-linecap="round" stroke-miterlimit="10" d="M41,38
		c0,2.761425-5.5964394,5-12.5,5"/>
</g>
<g id="table-tennies">
</g>
<g id="remote-wl">
</g>
<g id="angribird-2">
</g>
<g id="angribird-1">
</g>
<g id="angrybird">
</g>
<g id="tools">
</g>
<g id="tool">
</g>
<g id="football">
</g>
<g id="game">
</g>
<g id="ps2">
</g>
<g id="timer">
</g>
<g id="king">
</g>
<g id="bishop">
</g>
<g id="rook">
</g>
<g id="pawn">
</g>
<g id="chess">
</g>
<g id="knight">
</g>
<g id="remote-w">
</g>
<g id="remote">
</g>
<g id="dice">
</g>
<g id="Layer_2">
</g>
<g id="Layer_3">
</g>
<g id="Layer_4">
</g>
<g id="Layer_5">
</g>
<g id="Layer_6">
</g>
<g id="price-stand">
</g>
<g id="ball-2">
</g>
<g id="cube-cake">
</g>
<g id="cycle">
</g>
</svg>
