<?xml version="1.0" encoding="utf-8"?>
<!-- Generator: Adobe Illustrator 18.0.0, SVG Export Plug-In . SVG Version: 6.00 Build 0)  -->
<!DOCTYPE svg PUBLIC "-//W3C//DTD SVG 1.1//EN" "http://www.w3.org/Graphics/SVG/1.1/DTD/svg11.dtd">
<svg version="1.1" xmlns="http://www.w3.org/2000/svg" xmlns:xlink="http://www.w3.org/1999/xlink" x="0px" y="0px"
	 viewBox="0 0 48 48" enable-background="new 0 0 48 48" xml:space="preserve">
<g id="Layer_1">
</g>
<g id="toys-3">
</g>
<g id="toys-2">
</g>
<g id="toys-1">
</g>
<g id="kids-star">
</g>
<g id="game-st">
</g>
<g id="wind-toy-2">
</g>
<g id="wind-toy">
</g>
<g id="circle-ride">
</g>
<g id="horse-cycle">
</g>
<g id="globe-climping">
</g>
<g id="park-game-4">
</g>
<g id="verticle-stair">
</g>
<g id="upandown-2">
</g>
<g id="upandown">
</g>
<g id="climping">
</g>
<g id="parkgame-2">
</g>
<g id="park-game">
</g>
<g id="playground">
</g>
<g id="cricketball">
</g>
<g id="basketball_1_">
</g>
<g id="baseball_1_">
</g>
<g id="ball-5">
</g>
<g id="ball-4">
</g>
<g id="ball-3">
</g>
<g id="archery-1">
</g>
<g id="archery">
</g>
<g id="gymnastics">
</g>
<g id="wight">
</g>
<g id="winner">
</g>
<g id="underwater">
</g>
<g id="cycling">
</g>
<g id="bowlling">
</g>
<g id="cricket-2">
</g>
<g id="football-2">
</g>
<g id="shuttile">
</g>
<g id="football_1_">
</g>
<g id="golf">
</g>
<g id="running">
</g>
<g id="archery-2">
</g>
<g id="cards">
</g>
<g id="dice-2">
</g>
<g id="prices">
</g>
<g id="timer_1_">
</g>
<g id="progress-bar">
</g>
<g id="fistball_1_">
</g>
<g id="time-board">
</g>
<g id="score-board">
</g>
<g id="team">
</g>
<g id="bat">
</g>
<g id="stumps">
</g>
<g id="surffing">
</g>
<g id="helmet">
</g>
<g id="bootom_wear">
</g>
<g id="sports-wear">
</g>
<g id="indoorgame">
</g>
<g id="sponsers">
</g>
<g id="medal">
</g>
<g id="running-shoes">
</g>
<g id="corcke">
</g>
<g id="gloves">
</g>
<g id="shattile-bat">
</g>
<g id="drink">
</g>
<g id="base-ball">
</g>
<g id="hokky">
</g>
<g id="golf-1">
</g>
<g id="arrow_board">
</g>
<g id="trofy">
</g>
<g id="sport-shoes">
</g>
<g id="graph-2">
</g>
<g id="fire">
</g>
<g id="baseball">
</g>
<g id="fistball">
</g>
<g id="rugby-ball">
</g>
<g id="basketball">
</g>
<g id="coin-game">
</g>
<g id="table-tennies">
</g>
<g id="remote-wl">
</g>
<g id="angribird-2">
</g>
<g id="angribird-1">
	<path fill="none" stroke="#000000" stroke-width="2" stroke-miterlimit="10" d="M28.9302425,30.7417259
		c0,6.4067078-6.5584126,11.6003723-12.9651213,11.6003723S3,37.1484337,3,30.7417259
		c0-7.5088139,6.5584126-16.3769951,12.9651213-16.3769951S28.9302425,23.3225803,28.9302425,30.7417259z"/>
	<path fill="none" stroke="#000000" stroke-width="2" stroke-miterlimit="10" d="M29.3118114,30.9997196
		c0.8949108-0.8952808,1.9559155-1.477087,3.0069675-1.477087c2.628273,0,5.318779,3.6748466,5.318779,6.7184601
		C37.637558,38.8693657,34.947052,41,32.318779,41S27,38.8693657,27,36.2410927"/>
	<path fill="none" stroke="#000000" stroke-width="2" stroke-miterlimit="10" d="M35.8342285,31.9994011
		c1.0199928-1.437706,2.442379-2.4767685,3.8469925-2.4767685c2.628273,0,5.318779,3.6748466,5.318779,6.7184601
		C45,38.8693657,42.309494,41,39.681221,41c-1.3295364,0-2.6749992-0.5452156-3.6800537-1.424263"/>
	<path fill="none" stroke="#000000" stroke-width="2" stroke-miterlimit="10" d="M30,30
		c0-3.0803967,2.690506-6.7184582,5.318779-6.7184582S40.637558,26.9563885,40.637558,30"/>
	<path fill="none" stroke="#000000" stroke-width="2" stroke-linecap="round" stroke-linejoin="round" stroke-miterlimit="10" d="
		M7.7766237,12.99998c2.9151125-0.0107594,4.0942488,2.0471249,4.0942488,2.0471249s-5.328083-0.4895878-6.8237481,1.364749"/>
	<path fill="none" stroke="#000000" stroke-width="2" stroke-linecap="round" stroke-linejoin="round" stroke-miterlimit="10" d="
		M20.4005585,21.8708534c1.3190269,0,2.3883114,1.0692825,2.3883114,2.3883114s-1.0692844,2.3883114-2.3883114,2.3883114
		c-1.3190289,0-2.3883133-1.0692825-2.3883133-2.3883114"/>
	<path fill="none" stroke="#000000" stroke-width="2" stroke-linecap="round" stroke-linejoin="round" stroke-miterlimit="10" d="
		M21.4241199,20.5061035l-4.1707153,4.1707153c-0.7115002,0.7115002-1.8650665,0.7115002-2.5765657,0l-4.1707163-4.1707153"/>
	<path fill="none" stroke="#000000" stroke-width="2" stroke-linecap="round" stroke-linejoin="round" stroke-miterlimit="10" d="
		M11.529685,21.8708534c-1.3190279,0-2.3883114,1.0692825-2.3883114,2.3883114s1.0692835,2.3883114,2.3883114,2.3883114
		s2.3883123-1.0692825,2.3883123-2.3883114"/>
	<path fill="none" stroke="#000000" stroke-width="2" stroke-linecap="round" stroke-linejoin="round" stroke-miterlimit="10" d="
		M13.4692659,29.6761303l-3.6455183,2.4303455l6.1413736,3.4118729l6.1413736-3.4118729l-3.6455173-2.4303455
		C16.9496078,28.6685505,14.9806347,28.6685505,13.4692659,29.6761303z"/>
	
		<polyline fill="none" stroke="#000000" stroke-width="2" stroke-linecap="round" stroke-linejoin="round" stroke-miterlimit="10" points="
		9.8237476,32.1064758 15.9651213,40.2478485 22.1064949,32.1064758 	"/>
</g>
<g id="angrybird">
</g>
<g id="tools">
</g>
<g id="tool">
</g>
<g id="football">
</g>
<g id="game">
</g>
<g id="ps2">
</g>
<g id="timer">
</g>
<g id="king">
</g>
<g id="bishop">
</g>
<g id="rook">
</g>
<g id="pawn">
</g>
<g id="chess">
</g>
<g id="knight">
</g>
<g id="remote-w">
</g>
<g id="remote">
</g>
<g id="dice">
</g>
<g id="Layer_2">
</g>
<g id="Layer_3">
</g>
<g id="Layer_4">
</g>
<g id="Layer_5">
</g>
<g id="Layer_6">
</g>
<g id="price-stand">
</g>
<g id="ball-2">
</g>
<g id="cube-cake">
</g>
<g id="cycle">
</g>
</svg>
