<?xml version="1.0" encoding="utf-8"?>
<!-- Generator: Adobe Illustrator 18.0.0, SVG Export Plug-In . SVG Version: 6.00 Build 0)  -->
<!DOCTYPE svg PUBLIC "-//W3C//DTD SVG 1.1//EN" "http://www.w3.org/Graphics/SVG/1.1/DTD/svg11.dtd">
<svg version="1.1" xmlns="http://www.w3.org/2000/svg" xmlns:xlink="http://www.w3.org/1999/xlink" x="0px" y="0px"
	 viewBox="0 0 48 48" enable-background="new 0 0 48 48" xml:space="preserve">
<g id="Layer_1">
</g>
<g id="toys-3">
</g>
<g id="toys-2">
</g>
<g id="toys-1">
</g>
<g id="kids-star">
</g>
<g id="game-st">
</g>
<g id="wind-toy-2">
</g>
<g id="wind-toy">
</g>
<g id="circle-ride">
</g>
<g id="horse-cycle">
</g>
<g id="globe-climping">
</g>
<g id="park-game-4">
</g>
<g id="verticle-stair">
</g>
<g id="upandown-2">
</g>
<g id="upandown">
</g>
<g id="climping">
</g>
<g id="parkgame-2">
</g>
<g id="park-game">
</g>
<g id="playground">
</g>
<g id="cricketball">
</g>
<g id="basketball_1_">
</g>
<g id="baseball_1_">
</g>
<g id="ball-5">
</g>
<g id="ball-4">
</g>
<g id="ball-3">
</g>
<g id="archery-1">
</g>
<g id="archery">
</g>
<g id="gymnastics">
</g>
<g id="wight">
</g>
<g id="winner">
</g>
<g id="underwater">
</g>
<g id="cycling">
</g>
<g id="bowlling">
</g>
<g id="cricket-2">
</g>
<g id="football-2">
</g>
<g id="shuttile">
</g>
<g id="football_1_">
</g>
<g id="golf">
</g>
<g id="running">
</g>
<g id="archery-2">
</g>
<g id="cards">
</g>
<g id="dice-2">
</g>
<g id="prices">
</g>
<g id="timer_1_">
</g>
<g id="progress-bar">
</g>
<g id="fistball_1_">
</g>
<g id="time-board">
</g>
<g id="score-board">
</g>
<g id="team">
</g>
<g id="bat">
</g>
<g id="stumps">
</g>
<g id="surffing">
</g>
<g id="helmet">
</g>
<g id="bootom_wear">
</g>
<g id="sports-wear">
</g>
<g id="indoorgame">
</g>
<g id="sponsers">
</g>
<g id="medal">
</g>
<g id="running-shoes">
</g>
<g id="corcke">
</g>
<g id="gloves">
</g>
<g id="shattile-bat">
</g>
<g id="drink">
</g>
<g id="base-ball">
	<g>
		<path fill="none" stroke="#000000" stroke-width="2" stroke-miterlimit="10" d="M43.7566566,4.7616739L43.756649,4.7616668
			c-1.9166565-1.916657-5.0524483-1.8207531-6.8483963,0.2094488L7.6942086,37.9956894l-1.4142151-1.4142151
			c-0.7810478-0.7810478-2.0473766-0.7810478-2.8284245,0l-0.0000029,0.0000038
			c-0.7810478,0.7810478-0.7810478,2.0473747,0,2.8284225l5.656857,5.6568565c0.7810478,0.7810478,2.0473766,0.7810478,2.8284245,0
			h0.0000029c0.7810478-0.7810478,0.7810478-2.0473785,0-2.8284264l-1.4142151-1.4142151l33.0245743-29.2140465
			C45.5774117,9.8141222,45.6733131,6.6783309,43.7566566,4.7616739z"/>
		
			<line fill="none" stroke="#000000" stroke-width="2" stroke-miterlimit="10" x1="16.1794891" y1="28.0961933" x2="20.4221306" y2="32.3388367"/>
	</g>
	<g>
		<path fill="none" stroke="#000000" stroke-width="2" stroke-miterlimit="10" d="M25.0986156,28.0720291l14.4153957,12.7520828
			l-1.4142151,1.4142151c-0.7810478,0.7810478-0.7810478,2.0473747,0,2.8284225l0.0000038,0.0000038
			c0.7810478,0.7810478,2.0473785,0.7810478,2.8284264,0l5.6568565-5.6568565c0.7810478-0.7810478,0.7810478-2.0473785,0-2.8284264
			l-0.0000038-0.0000038c-0.7810478-0.7810478-2.0473747-0.7810478-2.8284225,0l-1.4142151,1.4142151L29.8657875,23.8916416"/>
		<path fill="none" stroke="#000000" stroke-width="2" stroke-miterlimit="10" d="M24.8215179,18.1894226L13.1283941,4.9711099
			C11.3324471,2.940908,8.1966543,2.8450043,6.2799978,4.7616611L6.2799907,4.7616682
			c-1.9166565,1.916657-1.8207531,5.0524492,0.2094488,6.8483963l13.3847504,11.8403559"/>
		
			<line fill="none" stroke="#000000" stroke-width="2" stroke-miterlimit="10" x1="29.6145172" y1="32.338829" x2="33.8571587" y2="28.0961876"/>
	</g>
	<circle fill="none" stroke="#000000" stroke-width="2" stroke-miterlimit="10" cx="24.5223389" cy="6.8666077" r="5"/>
	<path fill="none" stroke="#000000" stroke-width="2" stroke-miterlimit="10" d="M22.2752953,2.0148196
		c0,0-0.6694088,3.1079764,2.2222233,4.4444447c2.7546291,1.2731481,2.2222214,4.4444442,2.2222214,4.4444442"/>
</g>
<g id="hokky">
</g>
<g id="golf-1">
</g>
<g id="arrow_board">
</g>
<g id="trofy">
</g>
<g id="sport-shoes">
</g>
<g id="graph-2">
</g>
<g id="fire">
</g>
<g id="baseball">
</g>
<g id="fistball">
</g>
<g id="rugby-ball">
</g>
<g id="basketball">
</g>
<g id="coin-game">
</g>
<g id="table-tennies">
</g>
<g id="remote-wl">
</g>
<g id="angribird-2">
</g>
<g id="angribird-1">
</g>
<g id="angrybird">
</g>
<g id="tools">
</g>
<g id="tool">
</g>
<g id="football">
</g>
<g id="game">
</g>
<g id="ps2">
</g>
<g id="timer">
</g>
<g id="king">
</g>
<g id="bishop">
</g>
<g id="rook">
</g>
<g id="pawn">
</g>
<g id="chess">
</g>
<g id="knight">
</g>
<g id="remote-w">
</g>
<g id="remote">
</g>
<g id="dice">
</g>
<g id="Layer_2">
</g>
<g id="Layer_3">
</g>
<g id="Layer_4">
</g>
<g id="Layer_5">
</g>
<g id="Layer_6">
</g>
<g id="price-stand">
</g>
<g id="ball-2">
</g>
<g id="cube-cake">
</g>
<g id="cycle">
</g>
</svg>
