<?xml version="1.0" encoding="utf-8"?>
<!-- Generator: Adobe Illustrator 18.0.0, SVG Export Plug-In . SVG Version: 6.00 Build 0)  -->
<!DOCTYPE svg PUBLIC "-//W3C//DTD SVG 1.1//EN" "http://www.w3.org/Graphics/SVG/1.1/DTD/svg11.dtd">
<svg version="1.1" xmlns="http://www.w3.org/2000/svg" xmlns:xlink="http://www.w3.org/1999/xlink" x="0px" y="0px"
	 viewBox="0 0 48 48" enable-background="new 0 0 48 48" xml:space="preserve">
<g id="Layer_1">
</g>
<g id="toys-3">
</g>
<g id="toys-2">
</g>
<g id="toys-1">
</g>
<g id="kids-star">
</g>
<g id="game-st">
</g>
<g id="wind-toy-2">
</g>
<g id="wind-toy">
</g>
<g id="circle-ride">
</g>
<g id="horse-cycle">
</g>
<g id="globe-climping">
</g>
<g id="park-game-4">
</g>
<g id="verticle-stair">
</g>
<g id="upandown-2">
</g>
<g id="upandown">
</g>
<g id="climping">
</g>
<g id="parkgame-2">
</g>
<g id="park-game">
</g>
<g id="playground">
</g>
<g id="cricketball">
</g>
<g id="basketball_1_">
</g>
<g id="baseball_1_">
</g>
<g id="ball-5">
</g>
<g id="ball-4">
</g>
<g id="ball-3">
</g>
<g id="archery-1">
</g>
<g id="archery">
</g>
<g id="gymnastics">
</g>
<g id="wight">
</g>
<g id="winner">
</g>
<g id="underwater">
</g>
<g id="cycling">
</g>
<g id="bowlling">
</g>
<g id="cricket-2">
</g>
<g id="football-2">
</g>
<g id="shuttile">
</g>
<g id="football_1_">
</g>
<g id="golf">
</g>
<g id="running">
</g>
<g id="archery-2">
</g>
<g id="cards">
</g>
<g id="dice-2">
</g>
<g id="prices">
</g>
<g id="timer_1_">
</g>
<g id="progress-bar">
</g>
<g id="fistball_1_">
</g>
<g id="time-board">
</g>
<g id="score-board">
</g>
<g id="team">
</g>
<g id="bat">
</g>
<g id="stumps">
</g>
<g id="surffing">
</g>
<g id="helmet">
</g>
<g id="bootom_wear">
</g>
<g id="sports-wear">
</g>
<g id="indoorgame">
</g>
<g id="sponsers">
</g>
<g id="medal">
</g>
<g id="running-shoes">
</g>
<g id="corcke">
</g>
<g id="gloves">
</g>
<g id="shattile-bat">
</g>
<g id="drink">
</g>
<g id="base-ball">
</g>
<g id="hokky">
</g>
<g id="golf-1">
</g>
<g id="arrow_board">
</g>
<g id="trofy">
</g>
<g id="sport-shoes">
</g>
<g id="graph-2">
</g>
<g id="fire">
</g>
<g id="baseball">
</g>
<g id="fistball">
</g>
<g id="rugby-ball">
</g>
<g id="basketball">
</g>
<g id="coin-game">
</g>
<g id="table-tennies">
</g>
<g id="remote-wl">
</g>
<g id="angribird-2">
</g>
<g id="angribird-1">
</g>
<g id="angrybird">
</g>
<g id="tools">
</g>
<g id="tool">
</g>
<g id="football">
</g>
<g id="game">
</g>
<g id="ps2">
</g>
<g id="timer">
</g>
<g id="king">
</g>
<g id="bishop">
</g>
<g id="rook">
</g>
<g id="pawn">
</g>
<g id="chess">
</g>
<g id="knight">
</g>
<g id="remote-w">
</g>
<g id="remote">
</g>
<g id="dice">
</g>
<g id="Layer_2">
</g>
<g id="Layer_3">
</g>
<g id="Layer_4">
</g>
<g id="Layer_5">
</g>
<g id="Layer_6">
</g>
<g id="price-stand">
	<path fill="none" stroke="#000000" stroke-width="2" stroke-miterlimit="10" d="M3,22.1172657v12.1344967
		c0,0.4436073,0.2922509,0.8341942,0.7178338,0.9593658l32.7550163,9.6338272
		c0.3282852,0.0965538,0.6831474,0.0185471,0.9406738-0.2067871l7.2449799-6.3393593
		C44.8755188,38.1089211,45,37.8345947,45,37.5462303V18.7637959c0-0.4509506-0.3018227-0.8461113-0.7368813-0.9647636
		l-9.5262375-2.5980644C34.3018227,15.0823145,34,14.6871548,34,14.2362041V5.8755164
		c0-0.5012026-0.3710289-0.9249873-0.867836-0.9912281L19.2729664,3.0363955
		c-0.1786518-0.0238204-0.3604221,0.0010853-0.526083,0.072083L12.606081,5.7402511C12.2383966,5.89783,12,6.2593679,12,6.6593962
		v14.2233381c0,0.5960121-0.5180655,1.0597019-1.1104317,0.993885l-6.7791367-0.7532387
		C3.5180657,21.0575638,3,21.5212536,3,22.1172657z"/>
	<line fill="none" stroke="#000000" stroke-width="2" stroke-miterlimit="10" x1="12" y1="16" x2="4" y2="21"/>
	<path fill="none" stroke="#000000" stroke-width="2" stroke-miterlimit="10" d="M13,6l14,2v10.25597
		c0,0.4416084,0.289669,0.8309307,0.7126522,0.9578247L37,22v23"/>
	<line fill="none" stroke="#000000" stroke-width="2" stroke-miterlimit="10" x1="37" y1="22" x2="45" y2="18"/>
	<line fill="none" stroke="#000000" stroke-width="2" stroke-miterlimit="10" x1="27" y1="19" x2="34" y2="15"/>
	<line fill="none" stroke="#000000" stroke-width="2" stroke-miterlimit="10" x1="27" y1="8" x2="34" y2="5"/>
	<text transform="matrix(1 0 0 1 16.9999619 18.0000343)" font-family="'GothamRounded-Bold'" font-size="10.1538095">1</text>
	
		<text transform="matrix(0.9137316 0.1914472 -0.06757 0.99771 25.9991875 35.6636925)" font-family="'GothamRounded-Bold'" font-size="9.7980604">2</text>
	
		<text transform="matrix(0.8719017 0.2096804 -0.01951 0.99981 5.9907827 32.9629478)" font-family="'GothamRounded-Bold'" font-size="10.8497801">3</text>
</g>
<g id="ball-2">
</g>
<g id="cube-cake">
</g>
<g id="cycle">
</g>
</svg>
