<?xml version="1.0" encoding="utf-8"?>
<!-- Generator: Adobe Illustrator 18.0.0, SVG Export Plug-In . SVG Version: 6.00 Build 0)  -->
<!DOCTYPE svg PUBLIC "-//W3C//DTD SVG 1.1//EN" "http://www.w3.org/Graphics/SVG/1.1/DTD/svg11.dtd">
<svg version="1.1" xmlns="http://www.w3.org/2000/svg" xmlns:xlink="http://www.w3.org/1999/xlink" x="0px" y="0px"
	 viewBox="0 0 48 48" enable-background="new 0 0 48 48" xml:space="preserve">
<g id="Layer_1">
</g>
<g id="toys-3">
</g>
<g id="toys-2">
</g>
<g id="toys-1">
</g>
<g id="kids-star">
</g>
<g id="game-st">
	<g>
		<path fill="none" stroke="#000000" stroke-width="2" stroke-miterlimit="10" d="M36.3281975,34h-24.656395
			C5.7779288,34,1,29.2220707,1,23.3281975v-8.656395C1,8.7779284,5.7779288,4,11.6718025,4h24.656395
			C42.2220726,4,47,8.7779284,47,14.6718025v8.656395C47,29.2220707,42.2220726,34,36.3281975,34z"/>
		<path fill="none" stroke="#000000" stroke-width="2" stroke-miterlimit="10" d="M36,27H16c-1.1045694,0-2-0.8954296-2-2V12
			c0-1.1045694,0.8954306-2,2-2h20c1.1045685,0,2,0.8954306,2,2v13C38,26.1045704,37.1045685,27,36,27z"/>
		<line fill="none" stroke="#000000" stroke-width="2" stroke-miterlimit="10" x1="4" y1="13" x2="10" y2="13"/>
		<line fill="none" stroke="#000000" stroke-width="2" stroke-miterlimit="10" x1="7" y1="10" x2="7" y2="16"/>
		<circle fill="none" stroke="#000000" stroke-width="2" stroke-miterlimit="10" cx="42.5" cy="13.5" r="1"/>
		<circle fill="none" stroke="#000000" stroke-width="2" stroke-miterlimit="10" cx="42.5" cy="19.5" r="1"/>
		<circle fill="none" stroke="#000000" stroke-width="2" stroke-miterlimit="10" cx="7.5" cy="19.5" r="1"/>
		<circle fill="none" stroke="#000000" stroke-width="2" stroke-miterlimit="10" cx="7.5" cy="25.5" r="1"/>
		<path fill="none" stroke="#000000" stroke-width="2" stroke-miterlimit="10" d="M17,34v1.0000038
			C17,36.6568565,15.6568556,38,14.0000029,38h-0.0000057C12.3431444,38,11,36.6568565,11,35.0000038V34"/>
		<path fill="none" stroke="#000000" stroke-width="2" stroke-miterlimit="10" d="M14.0000029,38
			c0,0,2.6666632,8.6666679,14.9999971,6s13.1666679,4,13.1666679,4"/>
		<line fill="none" stroke="#000000" stroke-width="2" stroke-miterlimit="10" x1="21" y1="19" x2="21" y2="22"/>
		<line fill="none" stroke="#000000" stroke-width="2" stroke-miterlimit="10" x1="24" y1="17" x2="24" y2="20"/>
		<line fill="none" stroke="#000000" stroke-width="2" stroke-miterlimit="10" x1="27" y1="15" x2="27" y2="18"/>
		<line fill="none" stroke="#000000" stroke-width="2" stroke-miterlimit="10" x1="30" y1="19" x2="30" y2="22"/>
		<line fill="none" stroke="#000000" stroke-width="2" stroke-miterlimit="10" x1="33" y1="16" x2="33" y2="19"/>
	</g>
</g>
<g id="wind-toy-2">
</g>
<g id="wind-toy">
</g>
<g id="circle-ride">
</g>
<g id="horse-cycle">
</g>
<g id="globe-climping">
</g>
<g id="park-game-4">
</g>
<g id="verticle-stair">
</g>
<g id="upandown-2">
</g>
<g id="upandown">
</g>
<g id="climping">
</g>
<g id="parkgame-2">
</g>
<g id="park-game">
</g>
<g id="playground">
</g>
<g id="cricketball">
</g>
<g id="basketball_1_">
</g>
<g id="baseball_1_">
</g>
<g id="ball-5">
</g>
<g id="ball-4">
</g>
<g id="ball-3">
</g>
<g id="archery-1">
</g>
<g id="archery">
</g>
<g id="gymnastics">
</g>
<g id="wight">
</g>
<g id="winner">
</g>
<g id="underwater">
</g>
<g id="cycling">
</g>
<g id="bowlling">
</g>
<g id="cricket-2">
</g>
<g id="football-2">
</g>
<g id="shuttile">
</g>
<g id="football_1_">
</g>
<g id="golf">
</g>
<g id="running">
</g>
<g id="archery-2">
</g>
<g id="cards">
</g>
<g id="dice-2">
</g>
<g id="prices">
</g>
<g id="timer_1_">
</g>
<g id="progress-bar">
</g>
<g id="fistball_1_">
</g>
<g id="time-board">
</g>
<g id="score-board">
</g>
<g id="team">
</g>
<g id="bat">
</g>
<g id="stumps">
</g>
<g id="surffing">
</g>
<g id="helmet">
</g>
<g id="bootom_wear">
</g>
<g id="sports-wear">
</g>
<g id="indoorgame">
</g>
<g id="sponsers">
</g>
<g id="medal">
</g>
<g id="running-shoes">
</g>
<g id="corcke">
</g>
<g id="gloves">
</g>
<g id="shattile-bat">
</g>
<g id="drink">
</g>
<g id="base-ball">
</g>
<g id="hokky">
</g>
<g id="golf-1">
</g>
<g id="arrow_board">
</g>
<g id="trofy">
</g>
<g id="sport-shoes">
</g>
<g id="graph-2">
</g>
<g id="fire">
</g>
<g id="baseball">
</g>
<g id="fistball">
</g>
<g id="rugby-ball">
</g>
<g id="basketball">
</g>
<g id="coin-game">
</g>
<g id="table-tennies">
</g>
<g id="remote-wl">
</g>
<g id="angribird-2">
</g>
<g id="angribird-1">
</g>
<g id="angrybird">
</g>
<g id="tools">
</g>
<g id="tool">
</g>
<g id="football">
</g>
<g id="game">
</g>
<g id="ps2">
</g>
<g id="timer">
</g>
<g id="king">
</g>
<g id="bishop">
</g>
<g id="rook">
</g>
<g id="pawn">
</g>
<g id="chess">
</g>
<g id="knight">
</g>
<g id="remote-w">
</g>
<g id="remote">
</g>
<g id="dice">
</g>
<g id="Layer_2">
</g>
<g id="Layer_3">
</g>
<g id="Layer_4">
</g>
<g id="Layer_5">
</g>
<g id="Layer_6">
</g>
<g id="price-stand">
</g>
<g id="ball-2">
</g>
<g id="cube-cake">
</g>
<g id="cycle">
</g>
</svg>
