<?xml version="1.0" encoding="utf-8"?>
<!-- Generator: Adobe Illustrator 18.0.0, SVG Export Plug-In . SVG Version: 6.00 Build 0)  -->
<!DOCTYPE svg PUBLIC "-//W3C//DTD SVG 1.1//EN" "http://www.w3.org/Graphics/SVG/1.1/DTD/svg11.dtd">
<svg version="1.1" xmlns="http://www.w3.org/2000/svg" xmlns:xlink="http://www.w3.org/1999/xlink" x="0px" y="0px"
	 viewBox="0 0 48 48" enable-background="new 0 0 48 48" xml:space="preserve">
<g id="Layer_1">
</g>
<g id="toys-3">
</g>
<g id="toys-2">
</g>
<g id="toys-1">
</g>
<g id="kids-star">
</g>
<g id="game-st">
</g>
<g id="wind-toy-2">
</g>
<g id="wind-toy">
</g>
<g id="circle-ride">
</g>
<g id="horse-cycle">
</g>
<g id="globe-climping">
</g>
<g id="park-game-4">
</g>
<g id="verticle-stair">
</g>
<g id="upandown-2">
</g>
<g id="upandown">
</g>
<g id="climping">
</g>
<g id="parkgame-2">
</g>
<g id="park-game">
</g>
<g id="playground">
</g>
<g id="cricketball">
</g>
<g id="basketball_1_">
</g>
<g id="baseball_1_">
</g>
<g id="ball-5">
</g>
<g id="ball-4">
</g>
<g id="ball-3">
</g>
<g id="archery-1">
</g>
<g id="archery">
</g>
<g id="gymnastics">
</g>
<g id="wight">
</g>
<g id="winner">
</g>
<g id="underwater">
</g>
<g id="cycling">
</g>
<g id="bowlling">
</g>
<g id="cricket-2">
</g>
<g id="football-2">
</g>
<g id="shuttile">
</g>
<g id="football_1_">
</g>
<g id="golf">
</g>
<g id="running">
</g>
<g id="archery-2">
</g>
<g id="cards">
</g>
<g id="dice-2">
</g>
<g id="prices">
</g>
<g id="timer_1_">
</g>
<g id="progress-bar">
</g>
<g id="fistball_1_">
</g>
<g id="time-board">
</g>
<g id="score-board">
</g>
<g id="team">
</g>
<g id="bat">
</g>
<g id="stumps">
</g>
<g id="surffing">
</g>
<g id="helmet">
</g>
<g id="bootom_wear">
</g>
<g id="sports-wear">
</g>
<g id="indoorgame">
</g>
<g id="sponsers">
</g>
<g id="medal">
</g>
<g id="running-shoes">
</g>
<g id="corcke">
</g>
<g id="gloves">
</g>
<g id="shattile-bat">
</g>
<g id="drink">
	<path fill="none" stroke="#000000" stroke-width="2" stroke-linecap="round" stroke-linejoin="round" stroke-miterlimit="10" d="
		M24,13V9c0-1.1045694-0.8954296-2-2-2h-4l-1-3h-4l-1,3H8C6.8954306,7,6,7.8954306,6,9v4
		c0,1.3000059,0.7129641,2.4526825,1.7910347,3.1791668C9.1235542,17.077116,10,18.5998306,10,20.3276062
		c0,1.7277737-0.8764458,3.2504883-2.2089653,4.1484394C6.7129641,25.202528,6,26.3552055,6,27.6552124V44
		c0,1.6568527,1.3431458,3,3,3h12c1.6568546,0,3-1.3431473,3-3V27.6552124c0-1.3000069-0.7129631-2.4526844-1.7910347-3.1791668
		C20.8764458,23.5780945,20,22.0553799,20,20.3276062c0-1.7277756,0.8764458-3.2504902,2.2089653-4.1484394
		C23.2870369,15.4526825,24,14.3000059,24,13z"/>
	
		<line fill="none" stroke="#000000" stroke-width="2" stroke-linecap="round" stroke-linejoin="round" stroke-miterlimit="10" x1="15" y1="1" x2="15" y2="4"/>
	
		<line fill="none" stroke="#000000" stroke-width="2" stroke-linecap="round" stroke-linejoin="round" stroke-miterlimit="10" x1="10" y1="28" x2="10" y2="43"/>
	
		<line fill="none" stroke="#000000" stroke-width="2" stroke-linecap="round" stroke-linejoin="round" stroke-miterlimit="10" x1="15" y1="28" x2="15" y2="43"/>
	
		<line fill="none" stroke="#000000" stroke-width="2" stroke-linecap="round" stroke-linejoin="round" stroke-miterlimit="10" x1="20" y1="28" x2="20" y2="43"/>
	
		<line fill="none" stroke="#000000" stroke-width="2" stroke-linecap="round" stroke-linejoin="round" stroke-miterlimit="10" x1="10" y1="10" x2="10" y2="13"/>
	
		<line fill="none" stroke="#000000" stroke-width="2" stroke-linecap="round" stroke-linejoin="round" stroke-miterlimit="10" x1="15" y1="10" x2="15" y2="13"/>
	
		<line fill="none" stroke="#000000" stroke-width="2" stroke-linecap="round" stroke-linejoin="round" stroke-miterlimit="10" x1="20" y1="10" x2="20" y2="13"/>
	<path fill="none" stroke="#000000" stroke-width="2" stroke-linecap="round" stroke-linejoin="round" stroke-miterlimit="10" d="
		M38.1536102,47h-6.3072205c-1.0427208,0-1.9104786-0.8011093-1.9936314-1.8405113L28,22h14l-1.8527603,23.1594887
		C40.0640869,46.1988907,39.196331,47,38.1536102,47z"/>
	
		<line fill="none" stroke="#000000" stroke-width="2" stroke-linecap="round" stroke-linejoin="round" stroke-miterlimit="10" x1="29" y1="33" x2="41" y2="33"/>
</g>
<g id="base-ball">
</g>
<g id="hokky">
</g>
<g id="golf-1">
</g>
<g id="arrow_board">
</g>
<g id="trofy">
</g>
<g id="sport-shoes">
</g>
<g id="graph-2">
</g>
<g id="fire">
</g>
<g id="baseball">
</g>
<g id="fistball">
</g>
<g id="rugby-ball">
</g>
<g id="basketball">
</g>
<g id="coin-game">
</g>
<g id="table-tennies">
</g>
<g id="remote-wl">
</g>
<g id="angribird-2">
</g>
<g id="angribird-1">
</g>
<g id="angrybird">
</g>
<g id="tools">
</g>
<g id="tool">
</g>
<g id="football">
</g>
<g id="game">
</g>
<g id="ps2">
</g>
<g id="timer">
</g>
<g id="king">
</g>
<g id="bishop">
</g>
<g id="rook">
</g>
<g id="pawn">
</g>
<g id="chess">
</g>
<g id="knight">
</g>
<g id="remote-w">
</g>
<g id="remote">
</g>
<g id="dice">
</g>
<g id="Layer_2">
</g>
<g id="Layer_3">
</g>
<g id="Layer_4">
</g>
<g id="Layer_5">
</g>
<g id="Layer_6">
</g>
<g id="price-stand">
</g>
<g id="ball-2">
</g>
<g id="cube-cake">
</g>
<g id="cycle">
</g>
</svg>
