<?xml version="1.0" encoding="utf-8"?>
<!-- Generator: Adobe Illustrator 18.0.0, SVG Export Plug-In . SVG Version: 6.00 Build 0)  -->
<!DOCTYPE svg PUBLIC "-//W3C//DTD SVG 1.1//EN" "http://www.w3.org/Graphics/SVG/1.1/DTD/svg11.dtd">
<svg version="1.1" xmlns="http://www.w3.org/2000/svg" xmlns:xlink="http://www.w3.org/1999/xlink" x="0px" y="0px"
	 viewBox="0 0 48 48" enable-background="new 0 0 48 48" xml:space="preserve">
<g id="Layer_1">
</g>
<g id="toys-3">
</g>
<g id="toys-2">
</g>
<g id="toys-1">
</g>
<g id="kids-star">
</g>
<g id="game-st">
</g>
<g id="wind-toy-2">
</g>
<g id="wind-toy">
</g>
<g id="circle-ride">
</g>
<g id="horse-cycle">
</g>
<g id="globe-climping">
</g>
<g id="park-game-4">
</g>
<g id="verticle-stair">
</g>
<g id="upandown-2">
</g>
<g id="upandown">
</g>
<g id="climping">
</g>
<g id="parkgame-2">
</g>
<g id="park-game">
</g>
<g id="playground">
</g>
<g id="cricketball">
</g>
<g id="basketball_1_">
</g>
<g id="baseball_1_">
</g>
<g id="ball-5">
</g>
<g id="ball-4">
</g>
<g id="ball-3">
</g>
<g id="archery-1">
</g>
<g id="archery">
</g>
<g id="gymnastics">
</g>
<g id="wight">
</g>
<g id="winner">
</g>
<g id="underwater">
</g>
<g id="cycling">
</g>
<g id="bowlling">
</g>
<g id="cricket-2">
</g>
<g id="football-2">
</g>
<g id="shuttile">
</g>
<g id="football_1_">
</g>
<g id="golf">
</g>
<g id="running">
</g>
<g id="archery-2">
</g>
<g id="cards">
</g>
<g id="dice-2">
</g>
<g id="prices">
</g>
<g id="timer_1_">
</g>
<g id="progress-bar">
</g>
<g id="fistball_1_">
</g>
<g id="time-board">
</g>
<g id="score-board">
</g>
<g id="team">
</g>
<g id="bat">
</g>
<g id="stumps">
</g>
<g id="surffing">
</g>
<g id="helmet">
</g>
<g id="bootom_wear">
</g>
<g id="sports-wear">
</g>
<g id="indoorgame">
	<g>
		<path fill="none" stroke="#000000" stroke-width="2" stroke-linecap="round" stroke-linejoin="round" stroke-miterlimit="10" d="
			M26,10.4497414V9.6480103C27,9.0240479,28.1867981,7.6286011,28.1867981,6c0-2.2091675-1.8842316-4-4.093399-4
			s-4.2071915,1.7908325-4.2071915,4C19.8862076,7.6072388,21,8.9835815,22,9.6194458v0.8093195
			c0,2.3467016-0.5553284,4.6449089-1.4938259,6.7957754c-1.4513893,3.3263168-2.666666,8.9222031-2.666666,15.2754593
			c0,5.1511803,0.8007317,9.8022003,1.9216862,13.1543503C20.0321293,46.4645691,20.7997513,47,21.6540661,47h4.5629768
			c0.8534412,0,1.6202278-0.5343666,1.892046-1.3433647C29.2354507,42.3043137,30.0567322,37.6523514,30.0567322,32.5
			c0-6.2879791-1.1569118-11.8378487-2.5791168-15.1780167C26.5493221,15.1418133,26,12.819314,26,10.4497414z"/>
		
			<line fill="none" stroke="#000000" stroke-width="2" stroke-linecap="round" stroke-linejoin="round" stroke-miterlimit="10" x1="22" y1="10" x2="26" y2="10"/>
		
			<line fill="none" stroke="#000000" stroke-width="2" stroke-linecap="round" stroke-linejoin="round" stroke-miterlimit="10" x1="22" y1="16" x2="26" y2="16"/>
	</g>
	<g>
		<path fill="none" stroke="#000000" stroke-width="2" stroke-linecap="round" stroke-linejoin="round" stroke-miterlimit="10" d="
			M36.9119339,12.3231096v-0.6948338c0.8666687-0.5407677,1.8952255-1.7501545,1.8952255-3.1616096
			C38.8071594,6.5520549,37.17416,5,35.2595482,5s-3.6462345,1.5520549-3.6462345,3.4666662
			c0,1.3929405,0.9652882,2.5857716,1.831953,3.1368532v0.7014084c0,2.0338078-0.4812851,4.025589-1.2946472,5.8896732
			c-1.2578716,2.8828087-2.3111115,7.7325764-2.3111115,13.2387314c0,4.365736,0.6636467,8.3169422,1.60149,11.2062664
			C31.7066479,43.4580193,32.4790878,44,33.3395424,44h3.5667343c0.8594666,0,1.6309662-0.54076,1.8976326-1.357811
			c0.9430847-2.8895531,1.6238594-6.8418121,1.6238594-11.2088566c0-5.6277313-1.0692825-10.5732613-2.3568268-13.4319935
			C37.2693214,16.2215023,36.9119339,14.2751369,36.9119339,12.3231096z"/>
		
			<line fill="none" stroke="#000000" stroke-width="2" stroke-linecap="round" stroke-linejoin="round" stroke-miterlimit="10" x1="34" y1="12" x2="37" y2="12"/>
		
			<line fill="none" stroke="#000000" stroke-width="2" stroke-linecap="round" stroke-linejoin="round" stroke-miterlimit="10" x1="33" y1="17" x2="37" y2="17"/>
	</g>
	<g>
		<path fill="none" stroke="#000000" stroke-width="2" stroke-linecap="round" stroke-linejoin="round" stroke-miterlimit="10" d="
			M41.8836746,36.6333504h2.2193031c0.5347786,0,1.0148239-0.3364716,1.1807518-0.8448601
			c0.5868073-1.7979469,1.0104027-4.2571354,1.0104027-6.9744091c0-3.5017052-0.6653328-6.578928-1.4664726-8.3576984
			c-0.4987869-1.1074562-0.7211609-2.3185291-0.7211609-3.5331249v-0.4323425
			c0.539257-0.3364773,1.1792526-1.0889864,1.1792526-1.967226c0-1.1913157-1.0160942-2.1570406-2.2074089-2.1570406
			s-2.2687683,0.9657249-2.2687683,2.1570406c0,0.8667192,0.6006241,1.6089268,1.1398811,1.9518223v0.4364319
			c0,1.2654839-0.2994652,2.5048141-0.8055611,3.6646919c-0.3205414,0.734623-0.6197243,1.6745262-0.8612862,2.7636929"/>
		
			<line fill="none" stroke="#000000" stroke-width="2" stroke-linecap="round" stroke-linejoin="round" stroke-miterlimit="10" x1="42" y1="17" x2="44" y2="17"/>
		
			<line fill="none" stroke="#000000" stroke-width="2" stroke-linecap="round" stroke-linejoin="round" stroke-miterlimit="10" x1="42" y1="20" x2="44" y2="20"/>
	</g>
	<g>
		<path fill="none" stroke="#000000" stroke-width="2" stroke-linecap="round" stroke-linejoin="round" stroke-miterlimit="10" d="
			M7.4755635,22.3032856c-0.196094-0.7100563-0.416326-1.3327274-0.6479053-1.8469028
			c-0.498786-1.1074562-0.7211614-2.3185291-0.7211614-3.5331249v-0.4323425
			c0.5392599-0.3364773,1.1792531-1.0889864,1.1792531-1.967226c0-1.1913157-1.0160909-2.1570406-2.207407-2.1570406
			s-2.26877,0.9657249-2.26877,2.1570406c0,0.8667192,0.6006236,1.6089268,1.1398838,1.9518223v0.4364319
			c0,1.2654839-0.2994664,2.5048141-0.8055613,3.6646919c-0.7826757,1.7937508-1.4380258,4.811388-1.4380258,8.2374458
			c0,2.7164612,0.4129361,5.1749897,0.9964839,6.9727955c0.1652937,0.509243,0.6459243,0.8464737,1.1813192,0.8464737h2.2193041"/>
		
			<line fill="none" stroke="#000000" stroke-width="2" stroke-linecap="round" stroke-linejoin="round" stroke-miterlimit="10" x1="4" y1="17" x2="6" y2="17"/>
		
			<line fill="none" stroke="#000000" stroke-width="2" stroke-linecap="round" stroke-linejoin="round" stroke-miterlimit="10" x1="4" y1="20" x2="6" y2="20"/>
	</g>
	<g>
		<path fill="none" stroke="#000000" stroke-width="2" stroke-linecap="round" stroke-linejoin="round" stroke-miterlimit="10" d="
			M13.9119349,12.3231096v-0.6948338c0.8666658-0.5407677,1.8952246-1.7501545,1.8952246-3.1616096
			C15.8071594,6.5520549,14.174159,5,12.2595472,5S8.6133146,6.5520549,8.6133146,8.4666662
			c0,1.3929405,0.9652863,2.5857716,1.831953,3.1368532v0.7014084c0,2.0338078-0.4812841,4.025589-1.2946501,5.8896732
			c-1.2578697,2.8828087-2.3111095,7.7325764-2.3111095,13.2387314c0,4.365736,0.6636462,8.3169422,1.6014891,11.2062664
			C8.7066479,43.4580193,9.4790888,44,10.3395443,44h3.5667334c0.8594656,0,1.6309662-0.54076,1.8976326-1.357811
			c0.9430838-2.8895531,1.6238585-6.8418121,1.6238585-11.2088566c0-5.6277313-1.0692825-10.5732613-2.3568268-13.4319935
			C14.2693224,16.2215023,13.9119349,14.2751369,13.9119349,12.3231096z"/>
		
			<line fill="none" stroke="#000000" stroke-width="2" stroke-linecap="round" stroke-linejoin="round" stroke-miterlimit="10" x1="11" y1="12" x2="14" y2="12"/>
		
			<line fill="none" stroke="#000000" stroke-width="2" stroke-linecap="round" stroke-linejoin="round" stroke-miterlimit="10" x1="10" y1="17" x2="14" y2="17"/>
	</g>
</g>
<g id="sponsers">
</g>
<g id="medal">
</g>
<g id="running-shoes">
</g>
<g id="corcke">
</g>
<g id="gloves">
</g>
<g id="shattile-bat">
</g>
<g id="drink">
</g>
<g id="base-ball">
</g>
<g id="hokky">
</g>
<g id="golf-1">
</g>
<g id="arrow_board">
</g>
<g id="trofy">
</g>
<g id="sport-shoes">
</g>
<g id="graph-2">
</g>
<g id="fire">
</g>
<g id="baseball">
</g>
<g id="fistball">
</g>
<g id="rugby-ball">
</g>
<g id="basketball">
</g>
<g id="coin-game">
</g>
<g id="table-tennies">
</g>
<g id="remote-wl">
</g>
<g id="angribird-2">
</g>
<g id="angribird-1">
</g>
<g id="angrybird">
</g>
<g id="tools">
</g>
<g id="tool">
</g>
<g id="football">
</g>
<g id="game">
</g>
<g id="ps2">
</g>
<g id="timer">
</g>
<g id="king">
</g>
<g id="bishop">
</g>
<g id="rook">
</g>
<g id="pawn">
</g>
<g id="chess">
</g>
<g id="knight">
</g>
<g id="remote-w">
</g>
<g id="remote">
</g>
<g id="dice">
</g>
<g id="Layer_2">
</g>
<g id="Layer_3">
</g>
<g id="Layer_4">
</g>
<g id="Layer_5">
</g>
<g id="Layer_6">
</g>
<g id="price-stand">
</g>
<g id="ball-2">
</g>
<g id="cube-cake">
</g>
<g id="cycle">
</g>
</svg>
