<?xml version="1.0" encoding="utf-8"?>
<!-- Generator: Adobe Illustrator 18.0.0, SVG Export Plug-In . SVG Version: 6.00 Build 0)  -->
<!DOCTYPE svg PUBLIC "-//W3C//DTD SVG 1.1//EN" "http://www.w3.org/Graphics/SVG/1.1/DTD/svg11.dtd">
<svg version="1.1" xmlns="http://www.w3.org/2000/svg" xmlns:xlink="http://www.w3.org/1999/xlink" x="0px" y="0px"
	 viewBox="0 0 48 48" enable-background="new 0 0 48 48" xml:space="preserve">
<g id="Layer_1">
</g>
<g id="toys-3">
</g>
<g id="toys-2">
</g>
<g id="toys-1">
</g>
<g id="kids-star">
</g>
<g id="game-st">
</g>
<g id="wind-toy-2">
</g>
<g id="wind-toy">
</g>
<g id="circle-ride">
</g>
<g id="horse-cycle">
</g>
<g id="globe-climping">
</g>
<g id="park-game-4">
</g>
<g id="verticle-stair">
</g>
<g id="upandown-2">
</g>
<g id="upandown">
</g>
<g id="climping">
</g>
<g id="parkgame-2">
</g>
<g id="park-game">
</g>
<g id="playground">
</g>
<g id="cricketball">
</g>
<g id="basketball_1_">
</g>
<g id="baseball_1_">
</g>
<g id="ball-5">
</g>
<g id="ball-4">
</g>
<g id="ball-3">
</g>
<g id="archery-1">
</g>
<g id="archery">
</g>
<g id="gymnastics">
</g>
<g id="wight">
</g>
<g id="winner">
</g>
<g id="underwater">
</g>
<g id="cycling">
</g>
<g id="bowlling">
</g>
<g id="cricket-2">
</g>
<g id="football-2">
</g>
<g id="shuttile">
</g>
<g id="football_1_">
</g>
<g id="golf">
</g>
<g id="running">
</g>
<g id="archery-2">
</g>
<g id="cards">
</g>
<g id="dice-2">
</g>
<g id="prices">
</g>
<g id="timer_1_">
</g>
<g id="progress-bar">
</g>
<g id="fistball_1_">
</g>
<g id="time-board">
</g>
<g id="score-board">
</g>
<g id="team">
	<path fill="none" stroke="#000000" stroke-width="2" stroke-linejoin="round" stroke-miterlimit="10" d="M23.7038498,28.9310417
		c3.424675,0,5.7004738-4.555584,6.0326061-5.7094917c0.0637169-0.2493382,0.4213314-0.2274113,0.6451969-0.6646824
		c1.4813938-2.8935623-0.2381725-3.40868-0.2381725-3.40868s0.0949478-1.7286835-0.3351383-3.3527908
		c0,0-1.0859489-4.0308571-6.1044922-4.0308571s-6.1044941,4.0308571-6.1044941,4.0308571
		c-0.4300842,1.6241074-0.3351364,3.3527908-0.3351364,3.3527908s-1.7195692,0.6997166-0.2612514,3.3948364
		c0.2160797,0.3993359,0.5307178,0.3461189,0.6682739,0.6785259C18.0033741,24.3754578,20.2791729,28.9310417,23.7038498,28.9310417
		z"/>
	<path fill="none" stroke="#000000" stroke-width="2" stroke-linejoin="round" stroke-miterlimit="10" d="M27.6018066,27.9823494
		c0,0,1.3687553,1.186039,3.8058624,2.1082153C36.3337021,31.9545231,37.3833122,36.6677361,37.3184395,42H24.1473598H10.7099867
		c-0.0635157-5.6630402,1.1445799-9.8354797,6.0594378-11.6952095c2.4371071-0.9221764,3.7165184-2.2153282,3.7165184-2.2153282"/>
	<path fill="none" stroke="#000000" stroke-width="2" stroke-linejoin="round" stroke-miterlimit="10" d="M11,36H4
		c0.0437427-4.0257015-0.1402342-8.2996483,4.7948227-10.1670208c2.437108-0.9221764,4.5715799-2.3722305,4.5715799-2.3722305
		c-1.7167635-1.0528679-3.4495296-3.8612061-3.6697617-4.6263447c-0.137557-0.332407-0.4521942-0.3007832-0.6682739-0.7001209
		c-1.4583182-2.6951199,0.2612505-3.405633,0.2612505-3.405633s-0.0949478-1.7340822,0.3351383-3.3581886
		c0,0,1.085947-4.0335565,6.1044922-4.0335565s5.959425,4.3750043,5.959425,4.3750043"/>
	<path fill="none" stroke="#000000" stroke-width="2" stroke-linejoin="round" stroke-miterlimit="10" d="M37,36h7
		c-0.0376472-4.0249252-0.1360664-8.2995987-5.0712509-10.1670208c-2.4371109-0.9221764-4.5736504-2.4836521-4.5736504-2.4836521
		c1.8275223-0.8306885,3.4515991-3.7497845,3.6718292-4.5149231c0.137558-0.332407,0.4521942-0.3007832,0.6682739-0.7001209
		c1.4583206-2.6951199-0.2612495-3.405633-0.2612495-3.405633s0.0949478-1.7340822-0.3351364-3.3581886
		c0,0-1.0859489-4.0335565-6.1044941-4.0335565s-5.8217926,4.3750043-5.8217926,4.3750043"/>
</g>
<g id="bat">
</g>
<g id="stumps">
</g>
<g id="surffing">
</g>
<g id="helmet">
</g>
<g id="bootom_wear">
</g>
<g id="sports-wear">
</g>
<g id="indoorgame">
</g>
<g id="sponsers">
</g>
<g id="medal">
</g>
<g id="running-shoes">
</g>
<g id="corcke">
</g>
<g id="gloves">
</g>
<g id="shattile-bat">
</g>
<g id="drink">
</g>
<g id="base-ball">
</g>
<g id="hokky">
</g>
<g id="golf-1">
</g>
<g id="arrow_board">
</g>
<g id="trofy">
</g>
<g id="sport-shoes">
</g>
<g id="graph-2">
</g>
<g id="fire">
</g>
<g id="baseball">
</g>
<g id="fistball">
</g>
<g id="rugby-ball">
</g>
<g id="basketball">
</g>
<g id="coin-game">
</g>
<g id="table-tennies">
</g>
<g id="remote-wl">
</g>
<g id="angribird-2">
</g>
<g id="angribird-1">
</g>
<g id="angrybird">
</g>
<g id="tools">
</g>
<g id="tool">
</g>
<g id="football">
</g>
<g id="game">
</g>
<g id="ps2">
</g>
<g id="timer">
</g>
<g id="king">
</g>
<g id="bishop">
</g>
<g id="rook">
</g>
<g id="pawn">
</g>
<g id="chess">
</g>
<g id="knight">
</g>
<g id="remote-w">
</g>
<g id="remote">
</g>
<g id="dice">
</g>
<g id="Layer_2">
</g>
<g id="Layer_3">
</g>
<g id="Layer_4">
</g>
<g id="Layer_5">
</g>
<g id="Layer_6">
</g>
<g id="price-stand">
</g>
<g id="ball-2">
</g>
<g id="cube-cake">
</g>
<g id="cycle">
</g>
</svg>
