<?xml version="1.0" encoding="utf-8"?>
<!-- Generator: Adobe Illustrator 18.0.0, SVG Export Plug-In . SVG Version: 6.00 Build 0)  -->
<!DOCTYPE svg PUBLIC "-//W3C//DTD SVG 1.1//EN" "http://www.w3.org/Graphics/SVG/1.1/DTD/svg11.dtd">
<svg version="1.1" xmlns="http://www.w3.org/2000/svg" xmlns:xlink="http://www.w3.org/1999/xlink" x="0px" y="0px"
	 viewBox="0 0 48 48" enable-background="new 0 0 48 48" xml:space="preserve">
<g id="Layer_1">
</g>
<g id="toys-3">
</g>
<g id="toys-2">
</g>
<g id="toys-1">
</g>
<g id="kids-star">
</g>
<g id="game-st">
</g>
<g id="wind-toy-2">
</g>
<g id="wind-toy">
</g>
<g id="circle-ride">
</g>
<g id="horse-cycle">
</g>
<g id="globe-climping">
</g>
<g id="park-game-4">
</g>
<g id="verticle-stair">
</g>
<g id="upandown-2">
</g>
<g id="upandown">
</g>
<g id="climping">
</g>
<g id="parkgame-2">
</g>
<g id="park-game">
</g>
<g id="playground">
</g>
<g id="cricketball">
</g>
<g id="basketball_1_">
</g>
<g id="baseball_1_">
</g>
<g id="ball-5">
</g>
<g id="ball-4">
</g>
<g id="ball-3">
</g>
<g id="archery-1">
</g>
<g id="archery">
</g>
<g id="gymnastics">
</g>
<g id="wight">
</g>
<g id="winner">
</g>
<g id="underwater">
</g>
<g id="cycling">
</g>
<g id="bowlling">
</g>
<g id="cricket-2">
</g>
<g id="football-2">
</g>
<g id="shuttile">
</g>
<g id="football_1_">
</g>
<g id="golf">
</g>
<g id="running">
</g>
<g id="archery-2">
</g>
<g id="cards">
</g>
<g id="dice-2">
</g>
<g id="prices">
</g>
<g id="timer_1_">
</g>
<g id="progress-bar">
</g>
<g id="fistball_1_">
</g>
<g id="time-board">
</g>
<g id="score-board">
</g>
<g id="team">
</g>
<g id="bat">
</g>
<g id="stumps">
</g>
<g id="surffing">
</g>
<g id="helmet">
</g>
<g id="bootom_wear">
</g>
<g id="sports-wear">
</g>
<g id="indoorgame">
</g>
<g id="sponsers">
</g>
<g id="medal">
</g>
<g id="running-shoes">
</g>
<g id="corcke">
</g>
<g id="gloves">
</g>
<g id="shattile-bat">
</g>
<g id="drink">
</g>
<g id="base-ball">
</g>
<g id="hokky">
</g>
<g id="golf-1">
</g>
<g id="arrow_board">
</g>
<g id="trofy">
</g>
<g id="sport-shoes">
</g>
<g id="graph-2">
</g>
<g id="fire">
</g>
<g id="baseball">
</g>
<g id="fistball">
</g>
<g id="rugby-ball">
</g>
<g id="basketball">
</g>
<g id="coin-game">
</g>
<g id="table-tennies">
</g>
<g id="remote-wl">
</g>
<g id="angribird-2">
	<path fill="none" stroke="#000000" stroke-width="2" stroke-linecap="round" stroke-linejoin="round" stroke-miterlimit="10" d="
		M43.4643669,25.7712917c0,0-0.1659508-10.454896-7.9656334-15.9312696c0,0-2.0024223-3.6956706-3.5402813-5.3104229
		c-4.425354-4.6466203-6.1954937,0.3319016-3.2083817,3.2083807c0,0-6.0611-6.5857825-8.6847534-2.8764791
		c-1.6041908,2.267993,4.8125706,4.0934515,4.8125706,4.0934515s-7.5230999-0.6638031-14.161128,8.8507042
		c-8.0330143,11.5139866,0.1659508,21.2970085,5.3104219,24.7819748c3.5584126,2.4105377,12.9441566,4.8678856,19.4715519,0
		s7.9656334-13.2760582,7.9656334-13.2760582"/>
	<path fill="none" stroke="#000000" stroke-width="2" stroke-linecap="round" stroke-linejoin="round" stroke-miterlimit="10" d="
		M22.2226753,27.5414314c0,0,21.0757408,0.2212677,23.896904,1.7701416c0,0-2.1020432-5.8082752-15.0461979-9.735775
		L22.2226753,27.5414314z"/>
	<path fill="none" stroke="#000000" stroke-width="2" stroke-linecap="round" stroke-linejoin="round" stroke-miterlimit="10" d="
		M31.0733814,19.575798c-0.1659508-0.4978523-1.0510216-5.974226-6.1954937-6.1954937s-9.2932405,9.1272888-3.5402832,13.2760582
		c0,0,5.9146824,6.0828037,7.9656353,7.0805645c4.0934505,1.9914093,10.3442631-5.3657417,13.9398594-5.144474"/>
	<path fill="none" stroke="#000000" stroke-width="2" stroke-linecap="round" stroke-linejoin="round" stroke-miterlimit="10" d="
		M41.6942253,20.4608688c0.1106339,0.2212677-4.2040825,1.7701397-9.7357731-1.7701416
		c-0.4219074-0.2700214,1.3829212-6.3614445,7.9656353-3.5402822"/>
	<path fill="none" stroke="#000000" stroke-width="2" stroke-linecap="round" stroke-linejoin="round" stroke-miterlimit="10" d="
		M31.0733814,18.6907272c0,0-2.987114,5.1444721-11.5059166,1.7701416"/>
	<path fill="none" stroke="#000000" stroke-width="2" stroke-linecap="round" stroke-linejoin="round" stroke-miterlimit="10" d="
		M7.2871113,28.2052345c-0.1659508-0.1106339-1.825458-2.3786259-4.5359864-2.3786259l-0.9957043,3.4296474
		c0,0,4.3700356-0.4978523,5.4763737,0.5531693l-4.4806695,4.1487694l2.3233099,1.9914055l2.9317966-3.9828148"/>
	<circle fill="none" stroke="#000000" stroke-width="2" stroke-miterlimit="10" cx="27.0905762" cy="17.363121" r="1.3276057"/>
	<circle fill="none" stroke="#000000" stroke-width="2" stroke-miterlimit="10" cx="38.5964966" cy="17.363121" r="1.3276057"/>
</g>
<g id="angribird-1">
</g>
<g id="angrybird">
</g>
<g id="tools">
</g>
<g id="tool">
</g>
<g id="football">
</g>
<g id="game">
</g>
<g id="ps2">
</g>
<g id="timer">
</g>
<g id="king">
</g>
<g id="bishop">
</g>
<g id="rook">
</g>
<g id="pawn">
</g>
<g id="chess">
</g>
<g id="knight">
</g>
<g id="remote-w">
</g>
<g id="remote">
</g>
<g id="dice">
</g>
<g id="Layer_2">
</g>
<g id="Layer_3">
</g>
<g id="Layer_4">
</g>
<g id="Layer_5">
</g>
<g id="Layer_6">
</g>
<g id="price-stand">
</g>
<g id="ball-2">
</g>
<g id="cube-cake">
</g>
<g id="cycle">
</g>
</svg>
