<?xml version="1.0" encoding="utf-8"?>
<!-- Generator: Adobe Illustrator 18.0.0, SVG Export Plug-In . SVG Version: 6.00 Build 0)  -->
<!DOCTYPE svg PUBLIC "-//W3C//DTD SVG 1.1//EN" "http://www.w3.org/Graphics/SVG/1.1/DTD/svg11.dtd">
<svg version="1.1" xmlns="http://www.w3.org/2000/svg" xmlns:xlink="http://www.w3.org/1999/xlink" x="0px" y="0px"
	 viewBox="0 0 48 48" enable-background="new 0 0 48 48" xml:space="preserve">
<g id="Layer_1">
</g>
<g id="toys-3">
</g>
<g id="toys-2">
</g>
<g id="toys-1">
</g>
<g id="kids-star">
</g>
<g id="game-st">
</g>
<g id="wind-toy-2">
</g>
<g id="wind-toy">
</g>
<g id="circle-ride">
</g>
<g id="horse-cycle">
</g>
<g id="globe-climping">
</g>
<g id="park-game-4">
</g>
<g id="verticle-stair">
</g>
<g id="upandown-2">
</g>
<g id="upandown">
</g>
<g id="climping">
</g>
<g id="parkgame-2">
</g>
<g id="park-game">
</g>
<g id="playground">
</g>
<g id="cricketball">
</g>
<g id="basketball_1_">
</g>
<g id="baseball_1_">
</g>
<g id="ball-5">
</g>
<g id="ball-4">
</g>
<g id="ball-3">
</g>
<g id="archery-1">
</g>
<g id="archery">
</g>
<g id="gymnastics">
</g>
<g id="wight">
</g>
<g id="winner">
</g>
<g id="underwater">
</g>
<g id="cycling">
</g>
<g id="bowlling">
</g>
<g id="cricket-2">
</g>
<g id="football-2">
</g>
<g id="shuttile">
</g>
<g id="football_1_">
</g>
<g id="golf">
</g>
<g id="running">
</g>
<g id="archery-2">
</g>
<g id="cards">
</g>
<g id="dice-2">
</g>
<g id="prices">
</g>
<g id="timer_1_">
</g>
<g id="progress-bar">
</g>
<g id="fistball_1_">
</g>
<g id="time-board">
</g>
<g id="score-board">
</g>
<g id="team">
</g>
<g id="bat">
</g>
<g id="stumps">
</g>
<g id="surffing">
</g>
<g id="helmet">
</g>
<g id="bootom_wear">
</g>
<g id="sports-wear">
</g>
<g id="indoorgame">
</g>
<g id="sponsers">
	
		<circle fill="none" stroke="#000000" stroke-width="2" stroke-linecap="round" stroke-linejoin="round" stroke-miterlimit="10" cx="24" cy="16" r="9"/>
	<g>
		<path fill="none" stroke="#000000" stroke-width="2" stroke-linecap="round" stroke-linejoin="round" stroke-miterlimit="10" d="
			M37.7799988,16c0,1.1640205-1.6865273,2.0908833-1.9734917,3.1644306
			c-0.2969055,1.1107311,0.6914482,2.7549267,0.1287651,3.7274036c-0.5707512,0.9864101-2.4940567,0.9486732-3.2946205,1.7492046
			c-0.8005219,0.8004856-0.7628059,2.7237549-1.7491798,3.2944412c-0.9723988,0.5626011-2.6164742-0.425827-3.7270985-0.1289577
			C26.0908451,28.0934753,25.1639977,29.7800007,24,29.7800007c-1.1640205,0-2.0908833-1.6865311-3.1644306-1.9734936
			c-1.1107311-0.2969036-2.7549267,0.6914501-3.7274036,0.1287632c-0.9864101-0.5707474-0.9486732-2.4940529-1.7492046-3.2946205
			c-0.8004856-0.8005199-2.7237549-0.762804-3.2944412-1.7491779c-0.5626011-0.9723988,0.425827-2.6164742,0.1289587-3.7270985
			C11.9065256,18.0908451,10.2200003,17.1639977,10.2200003,16c0-1.1640205,1.6865301-2.0908842,1.9734936-3.1644306
			c0.2969027-1.1107311-0.6914501-2.7549257-0.1287651-3.7274027c0.5707483-0.9864111,2.4940538-0.9486752,3.2946205-1.7492056
			c0.8005209-0.8004856,0.762805-2.7237544,1.7491789-3.2944412c0.9723988-0.5626013,2.6164742,0.425827,3.7270985,0.1289582
			C21.9091549,3.9065254,22.8360023,2.22,24,2.22c1.1640205,0,2.0908833,1.6865304,3.1644306,1.9734933
			c1.1107311,0.2969031,2.7549267-0.6914499,3.7274036-0.1287642c0.9864101,0.5707479,0.9486732,2.4940538,1.7492065,3.29462
			c0.8004837,0.8005209,2.7237511,0.762805,3.2944374,1.7491789c0.562603,0.9723997-0.4258232,2.6164742-0.1289558,3.7270985
			C36.0934753,13.9091549,37.7799988,14.8360014,37.7799988,16z"/>
	</g>
	<path fill="none" stroke="#000000" stroke-width="2" stroke-linecap="round" stroke-linejoin="round" stroke-miterlimit="10" d="
		M15,25c0,0-4.7820511,6.4743595-7.1538463,16.9230766l4.6153846-3.0769234l2.3076925,5.3846169
		c0,0,3.1538458-12.0897446,6.2307692-15.2307701"/>
	<path fill="none" stroke="#000000" stroke-width="2" stroke-linecap="round" stroke-linejoin="round" stroke-miterlimit="10" d="
		M32,26c0,0,5.7820511,5.4743595,8.1538467,15.9230766l-4.615387-3.0769234l-2.3076897,5.3846169
		c0,0-3.1538467-12.0897446-6.2307701-15.2307701"/>
	
		<circle fill="none" stroke="#000000" stroke-width="2" stroke-linecap="round" stroke-linejoin="round" stroke-miterlimit="10" cx="24" cy="16" r="4.7272725"/>
</g>
<g id="medal">
</g>
<g id="running-shoes">
</g>
<g id="corcke">
</g>
<g id="gloves">
</g>
<g id="shattile-bat">
</g>
<g id="drink">
</g>
<g id="base-ball">
</g>
<g id="hokky">
</g>
<g id="golf-1">
</g>
<g id="arrow_board">
</g>
<g id="trofy">
</g>
<g id="sport-shoes">
</g>
<g id="graph-2">
</g>
<g id="fire">
</g>
<g id="baseball">
</g>
<g id="fistball">
</g>
<g id="rugby-ball">
</g>
<g id="basketball">
</g>
<g id="coin-game">
</g>
<g id="table-tennies">
</g>
<g id="remote-wl">
</g>
<g id="angribird-2">
</g>
<g id="angribird-1">
</g>
<g id="angrybird">
</g>
<g id="tools">
</g>
<g id="tool">
</g>
<g id="football">
</g>
<g id="game">
</g>
<g id="ps2">
</g>
<g id="timer">
</g>
<g id="king">
</g>
<g id="bishop">
</g>
<g id="rook">
</g>
<g id="pawn">
</g>
<g id="chess">
</g>
<g id="knight">
</g>
<g id="remote-w">
</g>
<g id="remote">
</g>
<g id="dice">
</g>
<g id="Layer_2">
</g>
<g id="Layer_3">
</g>
<g id="Layer_4">
</g>
<g id="Layer_5">
</g>
<g id="Layer_6">
</g>
<g id="price-stand">
</g>
<g id="ball-2">
</g>
<g id="cube-cake">
</g>
<g id="cycle">
</g>
</svg>
