<?xml version="1.0" encoding="utf-8"?>
<!-- Generator: Adobe Illustrator 18.0.0, SVG Export Plug-In . SVG Version: 6.00 Build 0)  -->
<!DOCTYPE svg PUBLIC "-//W3C//DTD SVG 1.1//EN" "http://www.w3.org/Graphics/SVG/1.1/DTD/svg11.dtd">
<svg version="1.1" xmlns="http://www.w3.org/2000/svg" xmlns:xlink="http://www.w3.org/1999/xlink" x="0px" y="0px"
	 viewBox="0 0 48 48" enable-background="new 0 0 48 48" xml:space="preserve">
<g id="Layer_1">
</g>
<g id="telivision-stand">
</g>
<g id="chair-wheels">
</g>
<g id="large-bed">
</g>
<g id="round-lamp">
</g>
<g id="shower">
</g>
<g id="knight">
</g>
<g id="vacuum-cleaner">
</g>
<g id="heat-food">
</g>
<g id="chimney">
</g>
<g id="large-sound">
</g>
<g id="small-tape">
</g>
<g id="sound-system-3">
</g>
<g id="sound-system-2">
	<path fill="none" stroke="#080808" stroke-width="2" stroke-linecap="round" stroke-miterlimit="10" d="M46,30
		c0-1.13377-0.2744675-2.2012138-0.7543297-3.1475353C45.0948982,26.5551338,45,26.2333946,45,25.9000206V16
		c0-1.1045694-0.8954315-2-2-2h-8c-1.1045685,0-2,0.8954306-2,2v9.9000206c0,0.333374-0.0948982,0.6551132-0.2456703,0.9524441
		C32.2744675,27.7987862,32,28.86623,32,30c0,1.1337204,0.2744675,2.2012024,0.7543335,3.1475372
		C32.9051056,33.4448662,33,33.7666054,33,34.0999756V43c0,1.1045685,0.8954315,2,2,2h8c1.1045685,0,2-0.8954315,2-2v-8.9000244
		c0-0.3333702,0.0948944-0.6551094,0.2456665-0.9524384C45.7255325,32.2012024,46,31.1337204,46,30z"/>
	<circle fill="none" stroke="#080808" stroke-width="2" stroke-linecap="round" stroke-miterlimit="10" cx="39" cy="30" r="4"/>
	<path fill="none" stroke="#080808" stroke-width="2" stroke-linecap="round" stroke-miterlimit="10" d="M16,30
		c0-1.13377-0.2744684-2.2012138-0.7543316-3.1475353C15.0948973,26.5551338,15,26.2333946,15,25.9000206V16
		c0-1.1045694-0.8954306-2-2-2H5c-1.1045694,0-2,0.8954306-2,2v9.9000206c0,0.333374-0.094897,0.6551132-0.2456684,0.9524441
		C2.2744679,27.7987862,2,28.86623,2,30c0,1.1337204,0.2744691,2.2012024,0.7543344,3.1475372
		C2.9051037,33.4448662,3,33.7666054,3,34.0999756V43c0,1.1045685,0.8954306,2,2,2h8c1.1045694,0,2-0.8954315,2-2v-8.9000244
		c0-0.3333702,0.0948963-0.6551094,0.2456656-0.9524384C15.7255306,32.2012024,16,31.1337204,16,30z"/>
	<circle fill="none" stroke="#080808" stroke-width="2" stroke-linecap="round" stroke-miterlimit="10" cx="9" cy="30" r="4"/>
	<path fill="none" stroke="#080808" stroke-width="2" stroke-linecap="round" stroke-miterlimit="10" d="M31,13
		c0-1.13377-0.2744675-2.2012138-0.7543316-3.1475344C30.0948963,9.5551348,30,9.2333937,30,8.9000206V5
		c0-1.1045694-0.8954296-2-2-2h-8c-1.1045704,0-2,0.8954306-2,2v3.9000206c0,0.3333731-0.0948963,0.6551142-0.2456684,0.952445
		C17.2744675,10.7987862,17,11.86623,17,13c0,1.1337194,0.2744694,2.2012033,0.7543354,3.1475372
		C17.9051037,16.4448662,18,16.7666054,18,17.0999756V22c0,1.1045704,0.8954296,2,2,2h8c1.1045704,0,2-0.8954296,2-2v-4.9000244
		c0-0.3333702,0.0948963-0.6551094,0.2456646-0.9524384C30.7255306,15.2012033,31,14.1337194,31,13z"/>
	<circle fill="none" stroke="#080808" stroke-width="2" stroke-linecap="round" stroke-miterlimit="10" cx="24" cy="13" r="4"/>
	
		<line fill="none" stroke="#080808" stroke-width="2" stroke-linecap="round" stroke-miterlimit="10" x1="40" y1="18" x2="41" y2="18"/>
	
		<line fill="none" stroke="#080808" stroke-width="2" stroke-linecap="round" stroke-miterlimit="10" x1="10" y1="18" x2="11" y2="18"/>
	
		<line fill="none" stroke="#080808" stroke-width="2" stroke-linecap="round" stroke-miterlimit="10" x1="25" y1="20" x2="26" y2="20"/>
</g>
<g id="sound-system_1_">
</g>
<g id="old-taper">
</g>
<g id="audio-system">
</g>
<g id="music-player">
</g>
<g id="speeker-2">
</g>
<g id="speaker">
</g>
<g id="jar-2">
</g>
<g id="cup">
</g>
<g id="jug">
</g>
<g id="pan">
</g>
<g id="jars">
</g>
<g id="mixer_1_">
</g>
<g id="mixer">
</g>
<g id="dish-cleaner">
</g>
<g id="wooden-window">
</g>
<g id="doublw-window">
</g>
<g id="bishop-window">
</g>
<g id="old_window">
</g>
<g id="long-table">
</g>
<g id="window-2_1_">
</g>
<g id="mirror-1">
</g>
<g id="mirror">
</g>
<g id="window-2">
</g>
<g id="window">
</g>
<g id="semi-sofa">
</g>
<g id="study-lamp">
</g>
<g id="study-table_1_">
</g>
<g id="study-table">
</g>
<g id="pawn">
</g>
<g id="bed-set">
</g>
<g id="table-xl">
</g>
<g id="back-stool">
</g>
<g id="chair-xs">
</g>
<g id="chair-l">
</g>
<g id="fat_chair">
</g>
<g id="hanger">
</g>
<g id="table-lamp">
</g>
<g id="double-table">
</g>
<g id="wooden-table">
</g>
<g id="book-shelve-l">
</g>
<g id="book-shelve">
</g>
<g id="wall-dec">
</g>
<g id="fram">
</g>
<g id="table-wood-l">
</g>
<g id="cleaner">
</g>
<g id="microwave-2_1_">
</g>
<g id="indection">
</g>
<g id="air-conditioners">
</g>
<g id="sound-system">
</g>
<g id="television">
</g>
<g id="round-clock">
</g>
<g id="rectangular-clock">
</g>
<g id="radio">
</g>
<g id="heater">
</g>
<g id="dish-washer">
</g>
<g id="washing-machine">
</g>
<g id="microwave-s">
</g>
<g id="microwave-m">
</g>
<g id="microwave-2">
</g>
<g id="microwave">
</g>
<g id="dinning-set">
</g>
<g id="dinning-table">
</g>
<g id="table-1">
</g>
<g id="cross-table">
</g>
<g id="tall-table">
</g>
<g id="round-table">
</g>
<g id="chair">
</g>
<g id="stool">
</g>
<g id="king-sofa">
</g>
<g id="woodensofa">
</g>
<g id="sifa-1">
</g>
<g id="sofa-2">
</g>
<g id="bed-2">
</g>
<g id="bed">
</g>
<g id="door-m">
</g>
<g id="door-2">
</g>
<g id="door">
</g>
<g id="storage-3">
</g>
<g id="storage-s">
</g>
<g id="shelve-l">
</g>
<g id="shelves-xl">
</g>
<g id="refrigerator-l">
</g>
<g id="refrigerator-s">
</g>
<g id="refrigerator">
</g>
<g id="Layer_2">
</g>
<g id="air-cooler">
</g>
<g id="food-maker">
</g>
<g id="storage-2">
</g>
</svg>
