<?xml version="1.0" encoding="utf-8"?>
<!-- Generator: Adobe Illustrator 18.0.0, SVG Export Plug-In . SVG Version: 6.00 Build 0)  -->
<!DOCTYPE svg PUBLIC "-//W3C//DTD SVG 1.1//EN" "http://www.w3.org/Graphics/SVG/1.1/DTD/svg11.dtd">
<svg version="1.1" xmlns="http://www.w3.org/2000/svg" xmlns:xlink="http://www.w3.org/1999/xlink" x="0px" y="0px"
	 viewBox="0 0 48 48" enable-background="new 0 0 48 48" xml:space="preserve">
<g id="Layer_1">
</g>
<g id="telivision-stand">
</g>
<g id="chair-wheels">
</g>
<g id="large-bed">
</g>
<g id="round-lamp">
</g>
<g id="shower">
</g>
<g id="knight">
</g>
<g id="vacuum-cleaner">
</g>
<g id="heat-food">
</g>
<g id="chimney">
</g>
<g id="large-sound">
</g>
<g id="small-tape">
</g>
<g id="sound-system-3">
</g>
<g id="sound-system-2">
</g>
<g id="sound-system_1_">
</g>
<g id="old-taper">
</g>
<g id="audio-system">
</g>
<g id="music-player">
</g>
<g id="speeker-2">
</g>
<g id="speaker">
</g>
<g id="jar-2">
</g>
<g id="cup">
</g>
<g id="jug">
</g>
<g id="pan">
</g>
<g id="jars">
</g>
<g id="mixer_1_">
</g>
<g id="mixer">
</g>
<g id="dish-cleaner">
</g>
<g id="wooden-window">
</g>
<g id="doublw-window">
</g>
<g id="bishop-window">
</g>
<g id="old_window">
</g>
<g id="long-table">
</g>
<g id="window-2_1_">
</g>
<g id="mirror-1">
</g>
<g id="mirror">
</g>
<g id="window-2">
</g>
<g id="window">
</g>
<g id="semi-sofa">
</g>
<g id="study-lamp">
</g>
<g id="study-table_1_">
</g>
<g id="study-table">
</g>
<g id="pawn">
</g>
<g id="bed-set">
</g>
<g id="table-xl">
</g>
<g id="back-stool">
</g>
<g id="chair-xs">
</g>
<g id="chair-l">
</g>
<g id="fat_chair">
</g>
<g id="hanger">
</g>
<g id="table-lamp">
</g>
<g id="double-table">
</g>
<g id="wooden-table">
</g>
<g id="book-shelve-l">
</g>
<g id="book-shelve">
</g>
<g id="wall-dec">
</g>
<g id="fram">
</g>
<g id="table-wood-l">
</g>
<g id="cleaner">
</g>
<g id="microwave-2_1_">
</g>
<g id="indection">
</g>
<g id="air-conditioners">
</g>
<g id="sound-system">
</g>
<g id="television">
</g>
<g id="round-clock">
</g>
<g id="rectangular-clock">
</g>
<g id="radio">
</g>
<g id="heater">
	<path fill="none" stroke="#080808" stroke-width="2" stroke-linecap="round" stroke-miterlimit="10" d="M44,37
		c0,1.6568527-1.3431473,3-3,3H7c-1.6568542,0-3-1.3431473-3-3V6c0-1.6568542,1.3431458-3,3-3h34c1.6568527,0,3,1.3431458,3,3V37z"
		/>
	
		<line fill="none" stroke="#080808" stroke-width="2" stroke-linecap="round" stroke-miterlimit="10" x1="18" y1="7" x2="30" y2="7"/>
	
		<line fill="none" stroke="#080808" stroke-width="2" stroke-linecap="round" stroke-miterlimit="10" x1="10" y1="15" x2="10" y2="18"/>
	
		<line fill="none" stroke="#080808" stroke-width="2" stroke-linecap="round" stroke-miterlimit="10" x1="14" y1="15" x2="14" y2="18"/>
	
		<line fill="none" stroke="#080808" stroke-width="2" stroke-linecap="round" stroke-miterlimit="10" x1="18" y1="15" x2="18" y2="18"/>
	
		<line fill="none" stroke="#080808" stroke-width="2" stroke-linecap="round" stroke-miterlimit="10" x1="22" y1="15" x2="22" y2="18"/>
	
		<line fill="none" stroke="#080808" stroke-width="2" stroke-linecap="round" stroke-miterlimit="10" x1="26" y1="15" x2="26" y2="18"/>
	
		<line fill="none" stroke="#080808" stroke-width="2" stroke-linecap="round" stroke-miterlimit="10" x1="30" y1="15" x2="30" y2="18"/>
	
		<line fill="none" stroke="#080808" stroke-width="2" stroke-linecap="round" stroke-miterlimit="10" x1="34" y1="15" x2="34" y2="18"/>
	
		<line fill="none" stroke="#080808" stroke-width="2" stroke-linecap="round" stroke-miterlimit="10" x1="38" y1="15" x2="38" y2="18"/>
	<path fill="none" stroke="#080808" stroke-width="2" stroke-linecap="round" stroke-miterlimit="10" d="M38,35H10
		c-1.1045694,0-2-0.8954315-2-2v-8c0-1.1045704,0.8954306-2,2-2h28c1.1045685,0,2,0.8954296,2,2v8
		C40,34.1045685,39.1045685,35,38,35z"/>
	<path fill="none" stroke="#080808" stroke-width="2" stroke-linecap="round" stroke-miterlimit="10" d="M12,41v3
		c0,0.5522842-0.4477148,1-1,1H9c-0.5522852,0-1-0.4477158-1-1v-3"/>
	<path fill="none" stroke="#080808" stroke-width="2" stroke-linecap="round" stroke-miterlimit="10" d="M40,41v3
		c0,0.5522842-0.4477158,1-1,1h-2c-0.5522842,0-1-0.4477158-1-1v-3"/>
</g>
<g id="dish-washer">
</g>
<g id="washing-machine">
</g>
<g id="microwave-s">
</g>
<g id="microwave-m">
</g>
<g id="microwave-2">
</g>
<g id="microwave">
</g>
<g id="dinning-set">
</g>
<g id="dinning-table">
</g>
<g id="table-1">
</g>
<g id="cross-table">
</g>
<g id="tall-table">
</g>
<g id="round-table">
</g>
<g id="chair">
</g>
<g id="stool">
</g>
<g id="king-sofa">
</g>
<g id="woodensofa">
</g>
<g id="sifa-1">
</g>
<g id="sofa-2">
</g>
<g id="bed-2">
</g>
<g id="bed">
</g>
<g id="door-m">
</g>
<g id="door-2">
</g>
<g id="door">
</g>
<g id="storage-3">
</g>
<g id="storage-s">
</g>
<g id="shelve-l">
</g>
<g id="shelves-xl">
</g>
<g id="refrigerator-l">
</g>
<g id="refrigerator-s">
</g>
<g id="refrigerator">
</g>
<g id="Layer_2">
</g>
<g id="air-cooler">
</g>
<g id="food-maker">
</g>
<g id="storage-2">
</g>
</svg>
