<?xml version="1.0" encoding="utf-8"?>
<!-- Generator: Adobe Illustrator 18.0.0, SVG Export Plug-In . SVG Version: 6.00 Build 0)  -->
<!DOCTYPE svg PUBLIC "-//W3C//DTD SVG 1.1//EN" "http://www.w3.org/Graphics/SVG/1.1/DTD/svg11.dtd">
<svg version="1.1" xmlns="http://www.w3.org/2000/svg" xmlns:xlink="http://www.w3.org/1999/xlink" x="0px" y="0px"
	 viewBox="0 0 48 48" enable-background="new 0 0 48 48" xml:space="preserve">
<g id="Layer_1">
</g>
<g id="telivision-stand">
</g>
<g id="chair-wheels">
</g>
<g id="large-bed">
</g>
<g id="round-lamp">
</g>
<g id="shower">
</g>
<g id="knight">
</g>
<g id="vacuum-cleaner">
</g>
<g id="heat-food">
</g>
<g id="chimney">
</g>
<g id="large-sound">
</g>
<g id="small-tape">
</g>
<g id="sound-system-3">
</g>
<g id="sound-system-2">
</g>
<g id="sound-system_1_">
</g>
<g id="old-taper">
</g>
<g id="audio-system">
</g>
<g id="music-player">
</g>
<g id="speeker-2">
</g>
<g id="speaker">
</g>
<g id="jar-2">
	<path fill="none" stroke="#080808" stroke-width="2" stroke-linecap="round" stroke-linejoin="round" stroke-miterlimit="10" d="
		M33.7859764,43H14.2140226c-1.7381124,0-3.1124773-1.4724121-2.9928913-3.2064056l1.3935452-20.2064075
		C12.8316441,16.4411659,15.4469643,14,18.6004581,14h10.7990837c3.1534939,0,5.768816,2.4411659,5.9857807,5.5871868
		l1.3935471,20.2064075C36.8984528,41.5275879,35.5240898,43,33.7859764,43z"/>
	
		<line fill="none" stroke="#080808" stroke-width="2" stroke-linecap="round" stroke-linejoin="round" stroke-miterlimit="10" x1="18" y1="44" x2="30" y2="44"/>
	<path fill="none" stroke="#080808" stroke-width="2" stroke-linecap="round" stroke-linejoin="round" stroke-miterlimit="10" d="
		M31,11H17v-0.9737959C17,8.3548775,18.3548775,7,20.0262051,7h7.9475899C29.6451225,7,31,8.3548775,31,10.0262041V11z"/>
	
		<line fill="none" stroke="#080808" stroke-width="2" stroke-linecap="round" stroke-linejoin="round" stroke-miterlimit="10" x1="19" y1="13" x2="19" y2="11"/>
	
		<line fill="none" stroke="#080808" stroke-width="2" stroke-linecap="round" stroke-linejoin="round" stroke-miterlimit="10" x1="29" y1="11" x2="29" y2="13"/>
	<circle fill="#080808" cx="18.958313" cy="18.958313" r="1"/>
	<circle fill="#080808" cx="22.958313" cy="18.958313" r="1"/>
	<circle fill="#080808" cx="26.958313" cy="18.958313" r="1"/>
	<circle fill="#080808" cx="30.958313" cy="18.958313" r="1"/>
	<circle fill="#080808" cx="16.958313" cy="21.958313" r="1"/>
	<circle fill="#080808" cx="20.958313" cy="21.958313" r="1"/>
	<circle fill="#080808" cx="24.958313" cy="21.958313" r="1"/>
	<circle fill="#080808" cx="28.958313" cy="21.958313" r="1"/>
	<circle fill="#080808" cx="32.958313" cy="21.958313" r="1"/>
	<circle fill="#080808" cx="14.958313" cy="24.958313" r="1"/>
	<circle fill="#080808" cx="18.958313" cy="24.958313" r="1"/>
	<circle fill="#080808" cx="22.958313" cy="24.958313" r="1"/>
	<circle fill="#080808" cx="26.958313" cy="24.958313" r="1"/>
	<circle fill="#080808" cx="30.958313" cy="24.958313" r="1"/>
	<circle fill="#080808" cx="16.958313" cy="27.958313" r="1"/>
	<circle fill="#080808" cx="20.958313" cy="27.958313" r="1"/>
	<circle fill="#080808" cx="24.958313" cy="27.958313" r="1"/>
	<circle fill="#080808" cx="28.958313" cy="27.958313" r="1"/>
	<circle fill="#080808" cx="32.958313" cy="27.958313" r="1"/>
	<circle fill="#080808" cx="14.958313" cy="30.958313" r="1"/>
	<circle fill="#080808" cx="18.958313" cy="30.958313" r="1"/>
	<circle fill="#080808" cx="22.958313" cy="30.958313" r="1"/>
	<circle fill="#080808" cx="26.958313" cy="30.958313" r="1"/>
	<circle fill="#080808" cx="30.958313" cy="30.958313" r="1"/>
	<circle fill="#080808" cx="16.958313" cy="33.958313" r="1"/>
	<circle fill="#080808" cx="20.958313" cy="33.958313" r="1"/>
	<circle fill="#080808" cx="24.958313" cy="33.958313" r="1"/>
	<circle fill="#080808" cx="28.958313" cy="33.958313" r="1"/>
	<circle fill="#080808" cx="32.958313" cy="33.958313" r="1"/>
	<circle fill="#080808" cx="14.958313" cy="36.958313" r="1"/>
	<circle fill="#080808" cx="18.958313" cy="36.958313" r="1"/>
	<circle fill="#080808" cx="22.958313" cy="36.958313" r="1"/>
	<circle fill="#080808" cx="26.958313" cy="36.958313" r="1"/>
	<circle fill="#080808" cx="30.958313" cy="36.958313" r="1"/>
	<circle fill="#080808" cx="16.958313" cy="39.958313" r="1"/>
	<circle fill="#080808" cx="20.958313" cy="39.958313" r="1"/>
	<circle fill="#080808" cx="24.958313" cy="39.958313" r="1"/>
	<circle fill="#080808" cx="28.958313" cy="39.958313" r="1"/>
	<circle fill="#080808" cx="32.958313" cy="39.958313" r="1"/>
</g>
<g id="cup">
</g>
<g id="jug">
</g>
<g id="pan">
</g>
<g id="jars">
</g>
<g id="mixer_1_">
</g>
<g id="mixer">
</g>
<g id="dish-cleaner">
</g>
<g id="wooden-window">
</g>
<g id="doublw-window">
</g>
<g id="bishop-window">
</g>
<g id="old_window">
</g>
<g id="long-table">
</g>
<g id="window-2_1_">
</g>
<g id="mirror-1">
</g>
<g id="mirror">
</g>
<g id="window-2">
</g>
<g id="window">
</g>
<g id="semi-sofa">
</g>
<g id="study-lamp">
</g>
<g id="study-table_1_">
</g>
<g id="study-table">
</g>
<g id="pawn">
</g>
<g id="bed-set">
</g>
<g id="table-xl">
</g>
<g id="back-stool">
</g>
<g id="chair-xs">
</g>
<g id="chair-l">
</g>
<g id="fat_chair">
</g>
<g id="hanger">
</g>
<g id="table-lamp">
</g>
<g id="double-table">
</g>
<g id="wooden-table">
</g>
<g id="book-shelve-l">
</g>
<g id="book-shelve">
</g>
<g id="wall-dec">
</g>
<g id="fram">
</g>
<g id="table-wood-l">
</g>
<g id="cleaner">
</g>
<g id="microwave-2_1_">
</g>
<g id="indection">
</g>
<g id="air-conditioners">
</g>
<g id="sound-system">
</g>
<g id="television">
</g>
<g id="round-clock">
</g>
<g id="rectangular-clock">
</g>
<g id="radio">
</g>
<g id="heater">
</g>
<g id="dish-washer">
</g>
<g id="washing-machine">
</g>
<g id="microwave-s">
</g>
<g id="microwave-m">
</g>
<g id="microwave-2">
</g>
<g id="microwave">
</g>
<g id="dinning-set">
</g>
<g id="dinning-table">
</g>
<g id="table-1">
</g>
<g id="cross-table">
</g>
<g id="tall-table">
</g>
<g id="round-table">
</g>
<g id="chair">
</g>
<g id="stool">
</g>
<g id="king-sofa">
</g>
<g id="woodensofa">
</g>
<g id="sifa-1">
</g>
<g id="sofa-2">
</g>
<g id="bed-2">
</g>
<g id="bed">
</g>
<g id="door-m">
</g>
<g id="door-2">
</g>
<g id="door">
</g>
<g id="storage-3">
</g>
<g id="storage-s">
</g>
<g id="shelve-l">
</g>
<g id="shelves-xl">
</g>
<g id="refrigerator-l">
</g>
<g id="refrigerator-s">
</g>
<g id="refrigerator">
</g>
<g id="Layer_2">
</g>
<g id="air-cooler">
</g>
<g id="food-maker">
</g>
<g id="storage-2">
</g>
</svg>
