<?xml version="1.0" encoding="utf-8"?>
<!-- Generator: Adobe Illustrator 18.0.0, SVG Export Plug-In . SVG Version: 6.00 Build 0)  -->
<!DOCTYPE svg PUBLIC "-//W3C//DTD SVG 1.1//EN" "http://www.w3.org/Graphics/SVG/1.1/DTD/svg11.dtd">
<svg version="1.1" xmlns="http://www.w3.org/2000/svg" xmlns:xlink="http://www.w3.org/1999/xlink" x="0px" y="0px"
	 viewBox="0 0 48 48" enable-background="new 0 0 48 48" xml:space="preserve">
<g id="Layer_1">
</g>
<g id="telivision-stand">
</g>
<g id="chair-wheels">
</g>
<g id="large-bed">
</g>
<g id="round-lamp">
</g>
<g id="shower">
</g>
<g id="knight">
</g>
<g id="vacuum-cleaner">
</g>
<g id="heat-food">
</g>
<g id="chimney">
</g>
<g id="large-sound">
</g>
<g id="small-tape">
</g>
<g id="sound-system-3">
</g>
<g id="sound-system-2">
</g>
<g id="sound-system_1_">
</g>
<g id="old-taper">
</g>
<g id="audio-system">
</g>
<g id="music-player">
</g>
<g id="speeker-2">
</g>
<g id="speaker">
</g>
<g id="jar-2">
</g>
<g id="cup">
</g>
<g id="jug">
</g>
<g id="pan">
</g>
<g id="jars">
</g>
<g id="mixer_1_">
</g>
<g id="mixer">
</g>
<g id="dish-cleaner">
</g>
<g id="wooden-window">
</g>
<g id="doublw-window">
</g>
<g id="bishop-window">
</g>
<g id="old_window">
</g>
<g id="long-table">
</g>
<g id="window-2_1_">
</g>
<g id="mirror-1">
</g>
<g id="mirror">
</g>
<g id="window-2">
</g>
<g id="window">
</g>
<g id="semi-sofa">
</g>
<g id="study-lamp">
</g>
<g id="study-table_1_">
</g>
<g id="study-table">
</g>
<g id="pawn">
</g>
<g id="bed-set">
</g>
<g id="table-xl">
</g>
<g id="back-stool">
</g>
<g id="chair-xs">
</g>
<g id="chair-l">
</g>
<g id="fat_chair">
</g>
<g id="hanger">
</g>
<g id="table-lamp">
</g>
<g id="double-table">
</g>
<g id="wooden-table">
</g>
<g id="book-shelve-l">
</g>
<g id="book-shelve">
</g>
<g id="wall-dec">
</g>
<g id="fram">
	
		<rect x="11" y="10" fill="none" stroke="#080808" stroke-width="2" stroke-linecap="round" stroke-linejoin="round" stroke-miterlimit="10" width="26" height="31"/>
	<path fill="none" stroke="#080808" stroke-width="2" stroke-linecap="round" stroke-linejoin="round" stroke-miterlimit="10" d="
		M38,45H10c-1.6568546,0-3-1.3431473-3-3V9c0-1.6568542,1.3431454-3,3-3h28c1.6568527,0,3,1.3431458,3,3v33
		C41,43.6568527,39.6568527,45,38,45z"/>
	<path fill="none" stroke="#080808" stroke-width="2" stroke-linecap="round" stroke-linejoin="round" stroke-miterlimit="10" d="
		M20,6c0-2.2091391,1.7908611-4,4-4s4,1.7908609,4,4"/>
	<g>
		<path fill="none" stroke="#080808" stroke-width="2" stroke-linecap="round" stroke-linejoin="round" stroke-miterlimit="10" d="
			M32.7999992,24c0,1.0847301-1.7548695,1.8125954-2.1460228,2.7558556
			c-0.4054623,0.9777641,0.3054218,2.729826-0.4314365,3.4666843c-0.7368603,0.7368603-2.488924,0.0259762-3.4666882,0.4314384
			C25.8125916,31.0451317,25.0847282,32.7999992,24,32.7999992c-1.0847301,0-1.8125954-1.7548695-2.7558556-2.1460228
			c-0.9777641-0.4054623-2.729826,0.3054218-3.4666843-0.4314365c-0.7368603-0.7368603-0.0259762-2.488924-0.4314384-3.4666882
			C16.9548683,25.8125916,15.1999998,25.0847282,15.1999998,24c0-1.0847301,1.7548704-1.8125954,2.1460238-2.7558556
			c0.4054623-0.9777641-0.3054218-2.729826,0.4314365-3.4666843c0.7368603-0.7368603,2.488924-0.0259762,3.4666882-0.4314384
			C22.1874084,16.9548683,22.9152718,15.1999998,24,15.1999998c1.0847301,0,1.8125954,1.7548704,2.7558556,2.1460238
			c0.9777641,0.4054623,2.729826-0.3054218,3.4666843,0.4314365c0.7368603,0.7368603,0.0259762,2.488924,0.4314384,3.4666882
			C31.0451317,22.1874084,32.7999992,22.9152718,32.7999992,24z"/>
	</g>
	<g>
		<path fill="none" stroke="#080808" stroke-width="2" stroke-linecap="round" stroke-linejoin="round" stroke-miterlimit="10" d="
			M26.2000008,24c0,0.2711945-0.4387207,0.4531689-0.5365181,0.6889915c-0.101366,0.2444286,0.0763588,0.682436-0.1078472,0.8666439
			c-0.1842079,0.184206-0.6222153,0.0064831-0.8666439,0.1078472C24.4531689,25.7612801,24.2711945,26.2000008,24,26.2000008
			s-0.4531689-0.4387207-0.6889915-0.5365181c-0.2444286-0.101366-0.682436,0.0763588-0.8666439-0.1078472
			c-0.184206-0.1842079-0.0064831-0.6222153-0.1078472-0.8666439C22.2387199,24.4531689,21.7999992,24.2711945,21.7999992,24
			s0.4387207-0.4531689,0.5365181-0.6889915c0.101366-0.2444286-0.0763588-0.682436,0.1078472-0.8666439
			c0.1842079-0.184206,0.6222153-0.0064831,0.8666439-0.1078472C23.5468311,22.2387199,23.7288055,21.7999992,24,21.7999992
			s0.4531689,0.4387207,0.6889915,0.5365181c0.2444286,0.101366,0.682436-0.0763588,0.8666439,0.1078472
			c0.184206,0.1842079,0.0064831,0.6222153,0.1078472,0.8666439C25.7612801,23.5468311,26.2000008,23.7288055,26.2000008,24z"/>
	</g>
	
		<line fill="none" stroke="#080808" stroke-width="2" stroke-linecap="round" stroke-linejoin="round" stroke-miterlimit="10" x1="24" y1="33" x2="24" y2="41"/>
</g>
<g id="table-wood-l">
</g>
<g id="cleaner">
</g>
<g id="microwave-2_1_">
</g>
<g id="indection">
</g>
<g id="air-conditioners">
</g>
<g id="sound-system">
</g>
<g id="television">
</g>
<g id="round-clock">
</g>
<g id="rectangular-clock">
</g>
<g id="radio">
</g>
<g id="heater">
</g>
<g id="dish-washer">
</g>
<g id="washing-machine">
</g>
<g id="microwave-s">
</g>
<g id="microwave-m">
</g>
<g id="microwave-2">
</g>
<g id="microwave">
</g>
<g id="dinning-set">
</g>
<g id="dinning-table">
</g>
<g id="table-1">
</g>
<g id="cross-table">
</g>
<g id="tall-table">
</g>
<g id="round-table">
</g>
<g id="chair">
</g>
<g id="stool">
</g>
<g id="king-sofa">
</g>
<g id="woodensofa">
</g>
<g id="sifa-1">
</g>
<g id="sofa-2">
</g>
<g id="bed-2">
</g>
<g id="bed">
</g>
<g id="door-m">
</g>
<g id="door-2">
</g>
<g id="door">
</g>
<g id="storage-3">
</g>
<g id="storage-s">
</g>
<g id="shelve-l">
</g>
<g id="shelves-xl">
</g>
<g id="refrigerator-l">
</g>
<g id="refrigerator-s">
</g>
<g id="refrigerator">
</g>
<g id="Layer_2">
</g>
<g id="air-cooler">
</g>
<g id="food-maker">
</g>
<g id="storage-2">
</g>
</svg>
