<?xml version="1.0" encoding="utf-8"?>
<!-- Generator: Adobe Illustrator 18.0.0, SVG Export Plug-In . SVG Version: 6.00 Build 0)  -->
<!DOCTYPE svg PUBLIC "-//W3C//DTD SVG 1.1//EN" "http://www.w3.org/Graphics/SVG/1.1/DTD/svg11.dtd">
<svg version="1.1" xmlns="http://www.w3.org/2000/svg" xmlns:xlink="http://www.w3.org/1999/xlink" x="0px" y="0px"
	 viewBox="0 0 48 48" enable-background="new 0 0 48 48" xml:space="preserve">
<g id="Layer_1">
</g>
<g id="album-image">
</g>
<g id="book-image">
</g>
<g id="diary">
</g>
<g id="board-paper">
</g>
<g id="news-paper">
</g>
<g id="files">
</g>
<g id="search-file">
</g>
<g id="tick-file">
</g>
<g id="text-file">
</g>
<g id="flower-file">
</g>
<g id="video">
</g>
<g id="slider-1">
</g>
<g id="slider">
</g>
<g id="mountain-image">
</g>
<g id="sun-files">
</g>
<g id="read-files">
</g>
<g id="imagefiles">
</g>
<g id="image-file">
</g>
<g id="jpg-image">
</g>
<g id="drag-right">
</g>
<g id="drag-down">
</g>
<g id="photos-move-right">
</g>
<g id="photos-move-l">
</g>
<g id="photos-8">
</g>
<g id="photos-7">
</g>
<g id="photos-6">
</g>
<g id="photos-5">
</g>
<g id="photo-3">
</g>
<g id="photofram">
</g>
<g id="play">
</g>
<g id="handy-cam">
</g>
<g id="player">
</g>
<g id="web-cam">
</g>
<g id="movie-cam">
</g>
<g id="video-cam">
	<path fill="none" stroke="#000000" stroke-width="2" stroke-linecap="round" stroke-linejoin="round" stroke-miterlimit="10" d="
		M32,44H3c-1.1045696,0-2-0.8954315-2-2V23c0-1.1045704,0.8954304-2,2-2h29c1.1045685,0,2,0.8954296,2,2v19
		C34,43.1045685,33.1045685,44,32,44z"/>
	<path fill="none" stroke="#000000" stroke-width="2" stroke-linecap="round" stroke-linejoin="round" stroke-miterlimit="10" d="
		M36.0513153,25.316227L46,22v20l-9.9486847-3.316227C34.8262901,38.2754288,34,37.1290131,34,35.8377228v-7.6754456
		C34,26.8709869,34.8262901,25.7245693,36.0513153,25.316227z"/>
	<path fill="none" stroke="#000000" stroke-width="2" stroke-linecap="round" stroke-linejoin="round" stroke-miterlimit="10" d="
		M27.1470337,2c-4.4813843,0-8.2282715,3.1068726-9.2288208,7.2814331C16.6183472,6.37854,13.710022,4.3529053,10.3235474,4.3529053
		C5.7265625,4.3529053,2,8.0794678,2,12.6764526S5.7265625,21,10.3235474,21c3.7950439,0,6.9906006-2.5424194,7.9921265-6.0150757
		C19.7063599,18.5055542,23.132019,21,27.1470337,21c5.2467041,0,9.5-4.2532959,9.5-9.5S32.3937378,2,27.1470337,2z"/>
	
		<line fill="none" stroke="#000000" stroke-width="2" stroke-linecap="round" stroke-linejoin="round" stroke-miterlimit="10" x1="19" y1="26" x2="29" y2="26"/>
	
		<rect x="6" y="34" fill="none" stroke="#000000" stroke-width="2" stroke-linecap="round" stroke-linejoin="round" stroke-miterlimit="10" width="15" height="5"/>
</g>
<g id="cam-flash">
</g>
<g id="cam-3">
</g>
<g id="still-cam">
</g>
<g id="flim">
</g>
<g id="focus">
</g>
<g id="shutter-photo">
</g>
<g id="shutter">
</g>
<g id="photo-fram_1_">
</g>
<g id="photo-fram">
</g>
<g id="movie">
</g>
<g id="film-roll">
</g>
<g id="cam-wide">
</g>
<g id="cam-stand">
</g>
<g id="cam-2">
</g>
<g id="cam-1">
</g>
<g id="cam">
</g>
<g id="photos-4">
</g>
<g id="photos-3">
</g>
<g id="photos-2">
</g>
<g id="photos_1_">
</g>
<g id="photo-1">
</g>
<g id="photo">
</g>
<g id="Layer_2">
</g>
<g id="Layer_3">
</g>
<g id="photo-printer">
</g>
<g id="Layer_4">
</g>
<g id="png-image">
</g>
</svg>
