<?xml version="1.0" encoding="utf-8"?>
<!-- Generator: Adobe Illustrator 18.0.0, SVG Export Plug-In . SVG Version: 6.00 Build 0)  -->
<!DOCTYPE svg PUBLIC "-//W3C//DTD SVG 1.1//EN" "http://www.w3.org/Graphics/SVG/1.1/DTD/svg11.dtd">
<svg version="1.1" xmlns="http://www.w3.org/2000/svg" xmlns:xlink="http://www.w3.org/1999/xlink" x="0px" y="0px"
	 viewBox="0 0 48 48" enable-background="new 0 0 48 48" xml:space="preserve">
<g id="Layer_1">
</g>
<g id="album-image">
</g>
<g id="book-image">
</g>
<g id="diary">
</g>
<g id="board-paper">
</g>
<g id="news-paper">
</g>
<g id="files">
</g>
<g id="search-file">
</g>
<g id="tick-file">
</g>
<g id="text-file">
</g>
<g id="flower-file">
</g>
<g id="video">
</g>
<g id="slider-1">
</g>
<g id="slider">
</g>
<g id="mountain-image">
</g>
<g id="sun-files">
</g>
<g id="read-files">
</g>
<g id="imagefiles">
</g>
<g id="image-file">
</g>
<g id="jpg-image">
</g>
<g id="drag-right">
</g>
<g id="drag-down">
</g>
<g id="photos-move-right">
</g>
<g id="photos-move-l">
</g>
<g id="photos-8">
</g>
<g id="photos-7">
</g>
<g id="photos-6">
</g>
<g id="photos-5">
</g>
<g id="photo-3">
</g>
<g id="photofram">
</g>
<g id="play">
</g>
<g id="handy-cam">
</g>
<g id="player">
</g>
<g id="web-cam">
</g>
<g id="movie-cam">
</g>
<g id="video-cam">
</g>
<g id="cam-flash">
</g>
<g id="cam-3">
</g>
<g id="still-cam">
</g>
<g id="flim">
</g>
<g id="focus">
</g>
<g id="shutter-photo">
</g>
<g id="shutter">
</g>
<g id="photo-fram_1_">
</g>
<g id="photo-fram">
</g>
<g id="movie">
</g>
<g id="film-roll">
</g>
<g id="cam-wide">
	<path fill="none" stroke="#000000" stroke-width="2" stroke-linecap="round" stroke-linejoin="round" stroke-miterlimit="10" d="
		M26,20v5.0000019C26,26.1045704,25.1045704,27,24.0000019,27h-0.0000038C22.8954296,27,22,26.1045704,22,25.0000019V20"/>
	
		<line fill="none" stroke="#000000" stroke-width="2" stroke-linecap="round" stroke-linejoin="round" stroke-miterlimit="10" x1="24" y1="27" x2="24" y2="45"/>
	
		<line fill="none" stroke="#000000" stroke-width="2" stroke-linecap="round" stroke-linejoin="round" stroke-miterlimit="10" x1="26" y1="25" x2="28" y2="25"/>
	
		<line fill="none" stroke="#000000" stroke-width="2" stroke-linecap="round" stroke-linejoin="round" stroke-miterlimit="10" x1="29" y1="24" x2="29" y2="26"/>
	
		<line fill="none" stroke="#000000" stroke-width="2" stroke-linecap="round" stroke-linejoin="round" stroke-miterlimit="10" x1="25" y1="27" x2="32" y2="45"/>
	
		<line fill="none" stroke="#000000" stroke-width="2" stroke-linecap="round" stroke-linejoin="round" stroke-miterlimit="10" x1="23" y1="27" x2="16" y2="45"/>
	<path fill="none" stroke="#000000" stroke-width="2" stroke-linecap="round" stroke-linejoin="round" stroke-miterlimit="10" d="
		M35,4h-6.5141773c-0.9362774,0-1.8188705,0.4371252-2.3862953,1.1818705l-0.590374,0.7748652
		c-0.3256531,0.4274201-0.8095989,0.7058201-1.3427944,0.7724695l-8.4144287,1.0518036C14.7510729,7.906116,14,8.756918,14,9.765564
		v0.4688721c0,1.008646,0.7510729,1.8594484,1.7519302,1.9845552l8.4144287,1.0518036
		c0.5331955,0.0666494,1.0171413,0.3450489,1.3427944,0.7724695l0.590374,0.7748652
		C26.6669521,15.5628748,27.5495453,16,28.4858227,16H35c0,0,2-2.4375,2-6C37,6.0625,35,4,35,4z"/>
	
		<line fill="none" stroke="#000000" stroke-width="2" stroke-linecap="round" stroke-linejoin="round" stroke-miterlimit="10" x1="20" y1="19" x2="28" y2="19"/>
	
		<line fill="none" stroke="#000000" stroke-width="2" stroke-linecap="round" stroke-linejoin="round" stroke-miterlimit="10" x1="24" y1="14" x2="24" y2="18"/>
	<path fill="none" stroke="#000000" stroke-width="2" stroke-linecap="round" stroke-linejoin="round" stroke-miterlimit="10" d="
		M10,13H8V7h2c1.1045694,0,2,0.8954306,2,2v2C12,12.1045694,11.1045694,13,10,13z"/>
	
		<line fill="none" stroke="#000000" stroke-width="2" stroke-linecap="round" stroke-linejoin="round" stroke-miterlimit="10" x1="35" y1="4" x2="41" y2="2"/>
	
		<line fill="none" stroke="#000000" stroke-width="2" stroke-linecap="round" stroke-linejoin="round" stroke-miterlimit="10" x1="35" y1="16" x2="41" y2="18"/>
</g>
<g id="cam-stand">
</g>
<g id="cam-2">
</g>
<g id="cam-1">
</g>
<g id="cam">
</g>
<g id="photos-4">
</g>
<g id="photos-3">
</g>
<g id="photos-2">
</g>
<g id="photos_1_">
</g>
<g id="photo-1">
</g>
<g id="photo">
</g>
<g id="Layer_2">
</g>
<g id="Layer_3">
</g>
<g id="photo-printer">
</g>
<g id="Layer_4">
</g>
<g id="png-image">
</g>
</svg>
