<?xml version="1.0" encoding="utf-8"?>
<!-- Generator: Adobe Illustrator 18.0.0, SVG Export Plug-In . SVG Version: 6.00 Build 0)  -->
<!DOCTYPE svg PUBLIC "-//W3C//DTD SVG 1.1//EN" "http://www.w3.org/Graphics/SVG/1.1/DTD/svg11.dtd">
<svg version="1.1" xmlns="http://www.w3.org/2000/svg" xmlns:xlink="http://www.w3.org/1999/xlink" x="0px" y="0px"
	 viewBox="0 0 48 48" enable-background="new 0 0 48 48" xml:space="preserve">
<g id="Layer_1">
</g>
<g id="album-image">
</g>
<g id="book-image">
</g>
<g id="diary">
</g>
<g id="board-paper">
</g>
<g id="news-paper">
</g>
<g id="files">
</g>
<g id="search-file">
</g>
<g id="tick-file">
</g>
<g id="text-file">
</g>
<g id="flower-file">
</g>
<g id="video">
</g>
<g id="slider-1">
</g>
<g id="slider">
</g>
<g id="mountain-image">
</g>
<g id="sun-files">
</g>
<g id="read-files">
</g>
<g id="imagefiles">
</g>
<g id="image-file">
</g>
<g id="jpg-image">
</g>
<g id="drag-right">
</g>
<g id="drag-down">
</g>
<g id="photos-move-right">
</g>
<g id="photos-move-l">
</g>
<g id="photos-8">
</g>
<g id="photos-7">
</g>
<g id="photos-6">
</g>
<g id="photos-5">
</g>
<g id="photo-3">
</g>
<g id="photofram">
</g>
<g id="play">
</g>
<g id="handy-cam">
</g>
<g id="player">
</g>
<g id="web-cam">
</g>
<g id="movie-cam">
</g>
<g id="video-cam">
</g>
<g id="cam-flash">
	
		<circle fill="none" stroke="#000000" stroke-width="2" stroke-linecap="round" stroke-linejoin="round" stroke-miterlimit="10" cx="29" cy="34" r="6"/>
	<path fill="none" stroke="#000000" stroke-width="2" stroke-linecap="round" stroke-linejoin="round" stroke-miterlimit="10" d="
		M37,24h-3l-1.4472122-2.8944263C32.2140007,20.4280052,31.5214767,20,30.7639313,20h-4.2361965
		c-0.7575436,0-1.4500713,0.4280052-1.7888546,1.1055737L23.291666,24H11c-1.6568546,0-3,1.3431454-3,3v14
		c0,1.6568527,1.3431454,3,3,3h26c1.6568527,0,3-1.3431473,3-3V27C40,25.3431454,38.6568527,24,37,24z"/>
	<path fill="none" stroke="#000000" stroke-width="2" stroke-linecap="round" stroke-linejoin="round" stroke-miterlimit="10" d="
		M23.291666,16l1.4472141,2.8944263C25.0776634,19.5719948,25.7701912,20,26.5277348,20h4.2361965
		c0.7575455,0,1.4500694-0.4280052,1.7888565-1.1055737L34,16"/>
	<path fill="none" stroke="#000000" stroke-width="2" stroke-linecap="round" stroke-linejoin="round" stroke-miterlimit="10" d="
		M36,16H21c-1.1045704,0-2-0.8954306-2-2V4c0-1.1045694,0.8954296-2,2-2h15c1.1045685,0,2,0.8954306,2,2v10
		C38,15.1045694,37.1045685,16,36,16z"/>
	<path fill="none" stroke="#000000" stroke-width="2" stroke-linecap="round" stroke-linejoin="round" stroke-miterlimit="10" d="
		M14,24v-2c0-1.1045704,0.8954306-2,2-2h2c1.1045704,0,2,0.8954296,2,2v2"/>
	
		<circle fill="none" stroke="#000000" stroke-width="2" stroke-linecap="round" stroke-linejoin="round" stroke-miterlimit="10" cx="14" cy="30" r="2"/>
	
		<rect x="23" y="6" fill="none" stroke="#000000" stroke-width="2" stroke-linecap="round" stroke-linejoin="round" stroke-miterlimit="10" width="11" height="6"/>
</g>
<g id="cam-3">
</g>
<g id="still-cam">
</g>
<g id="flim">
</g>
<g id="focus">
</g>
<g id="shutter-photo">
</g>
<g id="shutter">
</g>
<g id="photo-fram_1_">
</g>
<g id="photo-fram">
</g>
<g id="movie">
</g>
<g id="film-roll">
</g>
<g id="cam-wide">
</g>
<g id="cam-stand">
</g>
<g id="cam-2">
</g>
<g id="cam-1">
</g>
<g id="cam">
</g>
<g id="photos-4">
</g>
<g id="photos-3">
</g>
<g id="photos-2">
</g>
<g id="photos_1_">
</g>
<g id="photo-1">
</g>
<g id="photo">
</g>
<g id="Layer_2">
</g>
<g id="Layer_3">
</g>
<g id="photo-printer">
</g>
<g id="Layer_4">
</g>
<g id="png-image">
</g>
</svg>
