<?xml version="1.0" encoding="utf-8"?>
<!-- Generator: Adobe Illustrator 18.0.0, SVG Export Plug-In . SVG Version: 6.00 Build 0)  -->
<!DOCTYPE svg PUBLIC "-//W3C//DTD SVG 1.1//EN" "http://www.w3.org/Graphics/SVG/1.1/DTD/svg11.dtd">
<svg version="1.1" xmlns="http://www.w3.org/2000/svg" xmlns:xlink="http://www.w3.org/1999/xlink" x="0px" y="0px"
	 viewBox="0 0 48 48" enable-background="new 0 0 48 48" xml:space="preserve">
<g id="Layer_1">
</g>
<g id="album-image">
</g>
<g id="book-image">
</g>
<g id="diary">
</g>
<g id="board-paper">
</g>
<g id="news-paper">
</g>
<g id="files">
</g>
<g id="search-file">
</g>
<g id="tick-file">
</g>
<g id="text-file">
</g>
<g id="flower-file">
</g>
<g id="video">
</g>
<g id="slider-1">
</g>
<g id="slider">
</g>
<g id="mountain-image">
</g>
<g id="sun-files">
</g>
<g id="read-files">
</g>
<g id="imagefiles">
</g>
<g id="image-file">
</g>
<g id="jpg-image">
</g>
<g id="drag-right">
</g>
<g id="drag-down">
</g>
<g id="photos-move-right">
</g>
<g id="photos-move-l">
</g>
<g id="photos-8">
</g>
<g id="photos-7">
</g>
<g id="photos-6">
</g>
<g id="photos-5">
</g>
<g id="photo-3">
</g>
<g id="photofram">
</g>
<g id="play">
</g>
<g id="handy-cam">
</g>
<g id="player">
</g>
<g id="web-cam">
</g>
<g id="movie-cam">
</g>
<g id="video-cam">
</g>
<g id="cam-flash">
</g>
<g id="cam-3">
</g>
<g id="still-cam">
</g>
<g id="flim">
</g>
<g id="focus">
</g>
<g id="shutter-photo">
</g>
<g id="shutter">
</g>
<g id="photo-fram_1_">
</g>
<g id="photo-fram">
</g>
<g id="movie">
</g>
<g id="film-roll">
</g>
<g id="cam-wide">
</g>
<g id="cam-stand">
</g>
<g id="cam-2">
</g>
<g id="cam-1">
</g>
<g id="cam">
	<path fill="none" stroke="#000000" stroke-width="2" stroke-linecap="round" stroke-linejoin="round" stroke-miterlimit="10" d="
		M40,44H8c-2.2091389,0-4-1.7908592-4-4V12c0-2.2091389,1.7908611-4,4-4h32c2.2091408,0,4,1.7908611,4,4v28
		C44,42.2091408,42.2091408,44,40,44z"/>
	
		<circle fill="none" stroke="#000000" stroke-width="2" stroke-linecap="round" stroke-linejoin="round" stroke-miterlimit="10" cx="28" cy="26" r="10"/>
	
		<circle fill="none" stroke="#000000" stroke-width="2" stroke-linecap="round" stroke-linejoin="round" stroke-miterlimit="10" cx="28" cy="26" r="4"/>
	<path fill="none" stroke="#000000" stroke-width="2" stroke-linecap="round" stroke-linejoin="round" stroke-miterlimit="10" d="
		M14,18h-4c-0.5522852,0-1-0.4477158-1-1v-3c0-0.5522852,0.4477148-1,1-1h4c0.5522852,0,1,0.4477148,1,1v3
		C15,17.5522842,14.5522852,18,14,18z"/>
	<path fill="none" stroke="#000000" stroke-width="2" stroke-linecap="round" stroke-linejoin="round" stroke-miterlimit="10" d="
		M30,8V5c0-0.5522847,0.4477158-1,1-1h4c0.5522842,0,1,0.4477153,1,1v3"/>
</g>
<g id="photos-4">
</g>
<g id="photos-3">
</g>
<g id="photos-2">
</g>
<g id="photos_1_">
</g>
<g id="photo-1">
</g>
<g id="photo">
</g>
<g id="Layer_2">
</g>
<g id="Layer_3">
</g>
<g id="photo-printer">
</g>
<g id="Layer_4">
</g>
<g id="png-image">
</g>
</svg>
