<?xml version="1.0" encoding="utf-8"?>
<!-- Generator: Adobe Illustrator 18.0.0, SVG Export Plug-In . SVG Version: 6.00 Build 0)  -->
<!DOCTYPE svg PUBLIC "-//W3C//DTD SVG 1.1//EN" "http://www.w3.org/Graphics/SVG/1.1/DTD/svg11.dtd">
<svg version="1.1" xmlns="http://www.w3.org/2000/svg" xmlns:xlink="http://www.w3.org/1999/xlink" x="0px" y="0px"
	 viewBox="0 0 48 48" enable-background="new 0 0 48 48" xml:space="preserve">
<g id="Layer_1">
</g>
<g id="album-image">
</g>
<g id="book-image">
</g>
<g id="diary">
</g>
<g id="board-paper">
</g>
<g id="news-paper">
</g>
<g id="files">
</g>
<g id="search-file">
</g>
<g id="tick-file">
</g>
<g id="text-file">
</g>
<g id="flower-file">
</g>
<g id="video">
</g>
<g id="slider-1">
	<g>
		<path d="M37,40H11c-2.2060547,0-4-1.7944336-4-4V12c0-2.2055664,1.7939453-4,4-4h26c2.2060547,0,4,1.7944336,4,4v24
			C41,38.2055664,39.2060547,40,37,40z M11,10c-1.1025391,0-2,0.8969727-2,2v24c0,1.1030273,0.8974609,2,2,2h26
			c1.1025391,0,2-0.8969727,2-2V12c0-1.1030273-0.8974609-2-2-2H11z"/>
	</g>
	<g>
		<path d="M44.9980469,39.6118164c-0.2119141,0-0.4257813-0.0336914-0.6308594-0.1025391l-1.6835938-0.5605469
			c-0.5234375-0.1748047-0.8066406-0.7407227-0.6318359-1.2646484s0.7353516-0.8085938,1.2646484-0.6328125L45,37.6123047V10.387207
			l-1.6835938,0.5615234c-0.5292969,0.1757813-1.0898438-0.1088867-1.2646484-0.6328125s0.1083984-1.0898438,0.6318359-1.2646484
			l1.6835938-0.5610352c0.6083984-0.2045898,1.2802734-0.1010742,1.8017578,0.2744141
			C46.6894531,9.1396484,47,9.7460938,47,10.387207V37.612793c0,0.6411133-0.3105469,1.2475586-0.8310547,1.6225586
			C45.8242188,39.4833984,45.4130859,39.6118164,44.9980469,39.6118164z"/>
	</g>
	<g>
		<path d="M3.0019531,39.6123047c-0.4150391,0-0.8261719-0.1289063-1.1708984-0.3769531
			C1.3105469,38.8603516,1,38.2539063,1,37.612793V10.387207c0-0.6411133,0.3105469-1.2475586,0.8310547-1.6225586
			c0.5205078-0.3754883,1.1933594-0.4790039,1.8017578-0.2739258l1.6835938,0.5605469
			c0.5234375,0.1748047,0.8066406,0.7407227,0.6318359,1.2646484s-0.7353516,0.8085938-1.2646484,0.6328125L3,10.3876953V37.612793
			l1.6835938-0.5615234c0.5292969-0.1757813,1.0898438,0.1088867,1.2646484,0.6328125s-0.1083984,1.0898438-0.6318359,1.2646484
			l-1.6835938,0.5610352C3.4267578,39.5786133,3.2138672,39.6123047,3.0019531,39.6123047z"/>
	</g>
	<g>
		<path d="M17.75,23.7504883c-2.7568359,0-5-2.2431641-5-5s2.2431641-5,5-5s5,2.2431641,5,5S20.5068359,23.7504883,17.75,23.7504883
			z M17.75,15.7504883c-1.6542969,0-3,1.3457031-3,3s1.3457031,3,3,3s3-1.3457031,3-3S19.4042969,15.7504883,17.75,15.7504883z"/>
	</g>
	<g>
		<path d="M14.6611328,32.5336914c-0.2597656,0-0.5195313-0.1005859-0.7148438-0.3007813
			c-0.3867188-0.3950195-0.3789063-1.0283203,0.015625-1.4140625c0.203125-0.1982422,3.890625-4.0043945,6.3193359-6.5141602
			c0.3515625-0.3632813,0.9160156-0.4072266,1.3183594-0.1044922l3.2509766,2.4375l5.390625-6.2885742
			c0.3505859-0.4077148,0.9619141-0.4667969,1.3837891-0.1298828l5,4c0.4306641,0.3447266,0.5009766,0.9741211,0.15625,1.4052734
			c-0.3447266,0.4316406-0.9736328,0.5024414-1.40625,0.15625l-4.2451172-3.3959961l-5.3710938,6.2661133
			c-0.3408203,0.3994141-0.9375,0.4663086-1.3583984,0.1489258l-3.2949219-2.4707031
			c-1.5957031,1.6479492-5.5039063,5.6835938-5.7451172,5.9194336
			C15.1660156,32.4389648,14.9130859,32.5336914,14.6611328,32.5336914z"/>
	</g>
</g>
<g id="slider">
</g>
<g id="mountain-image">
</g>
<g id="sun-files">
</g>
<g id="read-files">
</g>
<g id="imagefiles">
</g>
<g id="image-file">
</g>
<g id="jpg-image">
</g>
<g id="drag-right">
</g>
<g id="drag-down">
</g>
<g id="photos-move-right">
</g>
<g id="photos-move-l">
</g>
<g id="photos-8">
</g>
<g id="photos-7">
</g>
<g id="photos-6">
</g>
<g id="photos-5">
</g>
<g id="photo-3">
</g>
<g id="photofram">
</g>
<g id="play">
</g>
<g id="handy-cam">
</g>
<g id="player">
</g>
<g id="web-cam">
</g>
<g id="movie-cam">
</g>
<g id="video-cam">
</g>
<g id="cam-flash">
</g>
<g id="cam-3">
</g>
<g id="still-cam">
</g>
<g id="flim">
</g>
<g id="focus">
</g>
<g id="shutter-photo">
</g>
<g id="shutter">
</g>
<g id="photo-fram_1_">
</g>
<g id="photo-fram">
</g>
<g id="movie">
</g>
<g id="film-roll">
</g>
<g id="cam-wide">
</g>
<g id="cam-stand">
</g>
<g id="cam-2">
</g>
<g id="cam-1">
</g>
<g id="cam">
</g>
<g id="photos-4">
</g>
<g id="photos-3">
</g>
<g id="photos-2">
</g>
<g id="photos_1_">
</g>
<g id="photo-1">
</g>
<g id="photo">
</g>
<g id="Layer_2">
</g>
<g id="Layer_3">
</g>
<g id="photo-printer">
</g>
<g id="Layer_4">
</g>
<g id="png-image">
</g>
</svg>
