<?xml version="1.0" encoding="utf-8"?>
<!-- Generator: Adobe Illustrator 18.0.0, SVG Export Plug-In . SVG Version: 6.00 Build 0)  -->
<!DOCTYPE svg PUBLIC "-//W3C//DTD SVG 1.1//EN" "http://www.w3.org/Graphics/SVG/1.1/DTD/svg11.dtd">
<svg version="1.1" xmlns="http://www.w3.org/2000/svg" xmlns:xlink="http://www.w3.org/1999/xlink" x="0px" y="0px"
	 viewBox="0 0 48 48" enable-background="new 0 0 48 48" xml:space="preserve">
<g id="Layer_1">
</g>
<g id="flag-3">
</g>
<g id="flag-2">
</g>
<g id="flag">
</g>
<g id="direction-2">
</g>
<g id="direction">
</g>
<g id="globe-stand">
</g>
<g id="tree">
</g>
<g id="people-area">
</g>
<g id="people">
</g>
<g id="locate-people">
</g>
<g id="transmiter">
</g>
<g id="globe-locate">
</g>
<g id="globesearch">
</g>
<g id="globe-pointer">
</g>
<g id="globe">
</g>
<g id="place-2">
</g>
<g id="place">
</g>
<g id="gothic-directer">
</g>
<g id="pin-long">
	<path fill="none" stroke="#000000" stroke-width="2" stroke-linecap="round" stroke-linejoin="round" stroke-miterlimit="10" d="
		M35.667263,24.1464462l6.3639603-6.3639603l0.3535538,0.3535557c0.9763107,0.9763088,2.5592232,0.9763088,3.5355301,0
		l0.0000038-0.0000038c0.9763107-0.9763107,0.9763107-2.5592213,0-3.535531L33.8994942,2.5796881
		c-0.9763107-0.9763098-2.5592213-0.9763098-3.535532,0l-0.0000038,0.0000036c-0.9763088,0.9763095-0.9763088,2.5592206,0,3.5355303
		l0.3535557,0.3535552l-6.3639603,6.3639607l-3.1487503,0.6297503c-2.5575485,0.5115099-4.9064674,1.7686129-6.750742,3.6128883
		l-0.0000029,0.0000019l16.970562,16.970562h0.0000019c1.8442745-1.8442764,3.1013775-4.1931953,3.6128902-6.7507439
		L35.667263,24.1464462z"/>
	
		<polygon fill="none" stroke="#000000" stroke-width="2" stroke-linecap="round" stroke-linejoin="round" stroke-miterlimit="10" points="
		22.232233,24.8535538 23.6464462,26.267767 2.0900974,46.4099045 	"/>
</g>
<g id="pin">
</g>
<g id="map-lock">
</g>
<g id="map-close">
</g>
<g id="map-minus">
</g>
<g id="mapp-add">
</g>
<g id="map-point">
</g>
<g id="locate-track">
</g>
<g id="locate-lock">
</g>
<g id="locate-close_1_">
</g>
<g id="locate-remove">
</g>
<g id="locate-pluse">
</g>
<g id="map-circle">
</g>
<g id="maplocate-3">
</g>
<g id="navigater">
</g>
<g id="navigate-2">
</g>
<g id="navigate">
</g>
<g id="track">
</g>
<g id="map-locater-s">
</g>
<g id="map-locate">
</g>
<g id="maphold">
</g>
<g id="map">
</g>
<g id="locate-fav">
</g>
<g id="locate-5">
</g>
<g id="locate-close">
</g>
<g id="locateminus">
</g>
<g id="locate-add">
</g>
<g id="locate-favorite">
</g>
<g id="locate4">
</g>
<g id="locate-3">
</g>
<g id="locate-1">
</g>
<g id="locate">
</g>
</svg>
