<?xml version="1.0" encoding="utf-8"?>
<!-- Generator: Adobe Illustrator 18.0.0, SVG Export Plug-In . SVG Version: 6.00 Build 0)  -->
<!DOCTYPE svg PUBLIC "-//W3C//DTD SVG 1.1//EN" "http://www.w3.org/Graphics/SVG/1.1/DTD/svg11.dtd">
<svg version="1.1" xmlns="http://www.w3.org/2000/svg" xmlns:xlink="http://www.w3.org/1999/xlink" x="0px" y="0px"
	 viewBox="0 0 48 48" enable-background="new 0 0 48 48" xml:space="preserve">
<g id="Layer_1">
</g>
<g id="flag-3">
</g>
<g id="flag-2">
</g>
<g id="flag">
</g>
<g id="direction-2">
</g>
<g id="direction">
</g>
<g id="globe-stand">
</g>
<g id="tree">
</g>
<g id="people-area">
</g>
<g id="people">
</g>
<g id="locate-people">
</g>
<g id="transmiter">
</g>
<g id="globe-locate">
</g>
<g id="globesearch">
</g>
<g id="globe-pointer">
	
		<line fill="none" stroke="#000000" stroke-width="2" stroke-linecap="round" stroke-linejoin="round" stroke-miterlimit="10" x1="24" y1="2" x2="24" y2="46"/>
	
		<line fill="none" stroke="#000000" stroke-width="2" stroke-linecap="round" stroke-linejoin="round" stroke-miterlimit="10" x1="24" y1="14" x2="5" y2="14"/>
	
		<line fill="none" stroke="#000000" stroke-width="2" stroke-linecap="round" stroke-linejoin="round" stroke-miterlimit="10" x1="43" y1="34" x2="5" y2="34"/>
	<path fill="none" stroke="#000000" stroke-width="2" stroke-linecap="round" stroke-linejoin="round" stroke-miterlimit="10" d="
		M24.1333332,46.000309C16.9012756,41.3522339,12.1104441,33.2355957,12.1104441,24s4.7908316-17.3522339,12.0228891-22.000309"/>
	<g>
		<path fill="none" stroke="#000000" stroke-width="2" stroke-linecap="round" stroke-linejoin="round" stroke-miterlimit="10" d="
			M28.6365967,2.4937744C27.1412964,2.1729126,25.5911255,2,24,2c-0.2875977,0-0.5726318,0.0107422-0.8575439,0.0216675
			c1.196106,0.7712402,2.3186035,1.6445313,3.3699951,2.5950317"/>
		<path fill="none" stroke="#000000" stroke-width="2" stroke-linecap="round" stroke-linejoin="round" stroke-miterlimit="10" d="
			M23.1424561,45.9783325C23.4273682,45.9892578,23.7124023,46,24,46c12.1502686,0,22-9.8497314,22-22"/>
		<path fill="none" stroke="#000000" stroke-width="2" stroke-linecap="round" stroke-linejoin="round" stroke-miterlimit="10" d="
			M26.5124512,4.6166992c-1.0513916-0.9505005-2.1738892-1.8237915-3.3699951-2.5950317C11.3902588,2.4728394,2,12.1373291,2,24
			s9.3902588,21.5271606,21.1424561,21.9783325c5.2809448-3.4052124,9.2466431-8.664978,10.9974365-14.8552856"/>
	</g>
	<path fill="none" stroke="#000000" stroke-width="2" stroke-linecap="round" stroke-linejoin="round" stroke-miterlimit="10" d="
		M45.5,11.1617651c0,6.8823519-9.0387917,15.2616625-9,18.209938c0-2.9482765-9-11.2944984-9-18.209938c0-4.9705629,4.029438-9,9-9
		S45.5,6.1912022,45.5,11.1617651z"/>
	
		<circle fill="none" stroke="#000000" stroke-width="2" stroke-linecap="round" stroke-linejoin="round" stroke-miterlimit="10" cx="36.5" cy="11.3717041" r="4"/>
</g>
<g id="globe">
</g>
<g id="place-2">
</g>
<g id="place">
</g>
<g id="gothic-directer">
</g>
<g id="pin-long">
</g>
<g id="pin">
</g>
<g id="map-lock">
</g>
<g id="map-close">
</g>
<g id="map-minus">
</g>
<g id="mapp-add">
</g>
<g id="map-point">
</g>
<g id="locate-track">
</g>
<g id="locate-lock">
</g>
<g id="locate-close_1_">
</g>
<g id="locate-remove">
</g>
<g id="locate-pluse">
</g>
<g id="map-circle">
</g>
<g id="maplocate-3">
</g>
<g id="navigater">
</g>
<g id="navigate-2">
</g>
<g id="navigate">
</g>
<g id="track">
</g>
<g id="map-locater-s">
</g>
<g id="map-locate">
</g>
<g id="maphold">
</g>
<g id="map">
</g>
<g id="locate-fav">
</g>
<g id="locate-5">
</g>
<g id="locate-close">
</g>
<g id="locateminus">
</g>
<g id="locate-add">
</g>
<g id="locate-favorite">
</g>
<g id="locate4">
</g>
<g id="locate-3">
</g>
<g id="locate-1">
</g>
<g id="locate">
</g>
</svg>
