<?xml version="1.0" encoding="utf-8"?>
<!-- Generator: Adobe Illustrator 18.0.0, SVG Export Plug-In . SVG Version: 6.00 Build 0)  -->
<!DOCTYPE svg PUBLIC "-//W3C//DTD SVG 1.1//EN" "http://www.w3.org/Graphics/SVG/1.1/DTD/svg11.dtd">
<svg version="1.1" xmlns="http://www.w3.org/2000/svg" xmlns:xlink="http://www.w3.org/1999/xlink" x="0px" y="0px"
	 viewBox="0 0 48 48" enable-background="new 0 0 48 48" xml:space="preserve">
<g id="Layer_1">
	<g>
		<path fill="none" stroke="#000000" stroke-width="2" stroke-linecap="round" stroke-miterlimit="10" d="M15.2190533,13.4344616
			l1.8278351-2.8930807l-3.3816242-2.1364956l-1.827836,2.8930807c-1.9040976-0.2895737-3.8868504,0.5353966-4.9813738,2.2677975
			l8.4540625,5.341238C16.4046402,17.1746006,16.298233,15.0297089,15.2190533,13.4344616z"/>
		
			<line fill="none" stroke="#000000" stroke-width="2" stroke-linecap="round" stroke-miterlimit="10" x1="15.3560762" y1="9.4731331" x2="17.4925709" y2="6.0915079"/>
		
			<line fill="none" stroke="#000000" stroke-width="2" stroke-linecap="round" stroke-miterlimit="10" x1="13" y1="3" x2="39" y2="18"/>
		
			<line fill="none" stroke="#000000" stroke-width="2" stroke-linecap="round" stroke-miterlimit="10" x1="40" y1="15" x2="35" y2="41"/>
		<path fill="none" stroke="#000000" stroke-width="2" stroke-linecap="round" stroke-miterlimit="10" d="M41,46H16v-0.299057
			C16,43.6569672,17.6569691,42,19.700943,42H37.467205C39.4183121,42,41,43.5816879,41,45.532795V46z"/>
		<path fill="none" stroke="#000000" stroke-width="2" stroke-linecap="round" stroke-miterlimit="10" d="M24,42h-3v-1.5
			c0-0.8284264,0.6715717-1.5,1.4999981-1.5h0.0000038C23.3284283,39,24,39.6715736,24,40.5V42z"/>
	</g>
</g>
<g id="Layer_2">
</g>
<g id="Layer_3">
</g>
</svg>
