<?xml version="1.0" encoding="utf-8"?>
<!-- Generator: Adobe Illustrator 18.0.0, SVG Export Plug-In . SVG Version: 6.00 Build 0)  -->
<!DOCTYPE svg PUBLIC "-//W3C//DTD SVG 1.1//EN" "http://www.w3.org/Graphics/SVG/1.1/DTD/svg11.dtd">
<svg version="1.1" xmlns="http://www.w3.org/2000/svg" xmlns:xlink="http://www.w3.org/1999/xlink" x="0px" y="0px"
	 viewBox="0 0 48 48" enable-background="new 0 0 48 48" xml:space="preserve">
<g id="Layer_1">
	<path fill="none" stroke="#000000" stroke-width="2" stroke-linecap="round" stroke-linejoin="round" stroke-miterlimit="10" d="
		M18,26c-3.25-0.083334-7-1-7-1V13c0-7.1797018,5.8202991-13,13-13s13,5.8202982,13,13v12c0,0-4.1666679,0.75-7,1"/>
	<path fill="none" stroke="#000000" stroke-width="2" stroke-linecap="round" stroke-linejoin="round" stroke-miterlimit="10" d="
		M12,12.727273C12,19.3546906,17.3725834,28,24,28s12-8.6453094,12-15.272727c0,0-7.272728-1.272728-10.90909-6.545455
		C22.636364,13.272727,12,12.727273,12,12.727273z"/>
	<path fill="none" stroke="#000000" stroke-width="2" stroke-linecap="round" stroke-linejoin="round" stroke-miterlimit="10" d="
		M30.0041161,26c0,0-0.333334,4.75,5,5.2777786c5.3333321,0.5277767,10,2.9907417,10,13.7222214C45.0041161,45,37.5,47,24,47
		c-13.166666,0-20-2-20-2c0-10.1666679,4.666667-12.5,10-13s5-5,5-5"/>
	<path fill="none" stroke="#000000" stroke-width="2" stroke-linecap="round" stroke-linejoin="round" stroke-miterlimit="10" d="
		M21,47c-3.166666-2.5833321-6-15-6-15"/>
	<path fill="none" stroke="#000000" stroke-width="2" stroke-linecap="round" stroke-linejoin="round" stroke-miterlimit="10" d="
		M27,47c4.875-4.75,7-15,7-15"/>
	<path fill="none" stroke="#000000" stroke-width="2" stroke-linecap="round" stroke-linejoin="round" stroke-miterlimit="10" d="
		M26,33c0-1.1046143-0.8954468-2-2-2s-2,0.8953857-2,2c0,1.0325317,0.7854614,1.8724365,1.7897949,1.9788208L22.0673828,39
		l1.9324665,7L26,39l-1.7826538-4.0219116C25.2182617,34.8684692,26,34.0300903,26,33z"/>
	
		<line fill="none" stroke="#000000" stroke-width="2" stroke-linecap="round" stroke-linejoin="round" stroke-miterlimit="10" x1="35" y1="42" x2="39" y2="42"/>
</g>
<g id="Layer_2">
</g>
<g id="Layer_3">
</g>
</svg>
