<?xml version="1.0" encoding="utf-8"?>
<!-- Generator: Adobe Illustrator 18.0.0, SVG Export Plug-In . SVG Version: 6.00 Build 0)  -->
<!DOCTYPE svg PUBLIC "-//W3C//DTD SVG 1.1//EN" "http://www.w3.org/Graphics/SVG/1.1/DTD/svg11.dtd">
<svg version="1.1" xmlns="http://www.w3.org/2000/svg" xmlns:xlink="http://www.w3.org/1999/xlink" x="0px" y="0px"
	 viewBox="0 0 48 48" enable-background="new 0 0 48 48" xml:space="preserve">
<g id="Layer_1">
	<path fill="none" stroke="#000000" stroke-width="2" stroke-linecap="round" stroke-linejoin="round" stroke-miterlimit="10" d="
		M23.7496719,14.8094616L21.5272198,14.8638c-3.9351768,0.0962143-7.4182405,2.5709591-8.8040113,6.2553196l-1.3537931,3.5993423
		l-3.8892446,2.4701939C4.6901402,28.9606991,3,32.0363884,3,35.3415985V44c0,1.1045685,0.8954306,2,2,2h19"/>
	<path fill="none" stroke="#000000" stroke-width="2" stroke-linecap="round" stroke-linejoin="round" stroke-miterlimit="10" d="
		M24.2503281,14.8094616L26.4727802,14.8638c3.9351768,0.0962143,7.4182415,2.5709591,8.8040104,6.2553196l1.3537941,3.5993423
		l3.8892441,2.4701939C43.3098602,28.9606991,45,32.0363884,45,35.3415985V44c0,1.1045685-0.8954315,2-2,2H24"/>
	
		<circle fill="none" stroke="#000000" stroke-width="2" stroke-linecap="round" stroke-linejoin="round" stroke-miterlimit="10" cx="24.0223389" cy="31.4651775" r="10"/>
	
		<circle fill="none" stroke="#000000" stroke-width="2" stroke-linecap="round" stroke-linejoin="round" stroke-miterlimit="10" cx="24.0223389" cy="31.4651775" r="4.5"/>
	<g>
		
			<circle fill="none" stroke="#000000" stroke-width="2" stroke-linecap="round" stroke-linejoin="round" stroke-dasharray="4.1840191,5.2300234" cx="24.0223389" cy="31.4651775" r="7.5"/>
	</g>
	<g>
		<path fill="none" stroke="#000000" stroke-width="2" stroke-linejoin="round" stroke-miterlimit="10" d="M8.7910318,8.4344902
			c-4.3329077,1.7264462-7.0690379,6.0487909-6.9776301,10.7120895c0.0198361,1.0119629,0.0395645,1.7566376,0.0395645,1.7566376
			c0,2.1355133,1.7311358,3.8666477,3.8666477,3.8666477H8c2.1354904,0,3.8666477-1.7311554,3.8666477-3.8666458v-1.0942383
			c0-2.6235332,1.4126511-5.0683298,3.7224522-6.3124132c5.4482288-2.9344749,12.9065628-1.5097799,16.3878365,0.1436319
			c2.3916931,1.1359234,3.9618683,3.4935284,4.0983391,6.1377487l0.0580788,1.1252689
			c0,2.1355133,1.7311325,3.8666477,3.8666458,3.8666477h2.3514709c2.1354904,0,3.8666458-1.7311554,3.8666458-3.8666458v-1.8059101
			c0-4.7048597-2.8731308-8.975894-7.2817383-10.6190243C34.6730347,6.8892956,29.0976639,6,23.2094097,6
			C17.7827511,6,12.7100353,6.8729649,8.7910318,8.4344902z"/>
	</g>
</g>
<g id="Layer_2">
</g>
<g id="Layer_3">
</g>
</svg>
