<?xml version="1.0" encoding="utf-8"?>
<!-- Generator: Adobe Illustrator 18.0.0, SVG Export Plug-In . SVG Version: 6.00 Build 0)  -->
<!DOCTYPE svg PUBLIC "-//W3C//DTD SVG 1.1//EN" "http://www.w3.org/Graphics/SVG/1.1/DTD/svg11.dtd">
<svg version="1.1" xmlns="http://www.w3.org/2000/svg" xmlns:xlink="http://www.w3.org/1999/xlink" x="0px" y="0px"
	 viewBox="0 0 48 48" enable-background="new 0 0 48 48" xml:space="preserve">
<g id="Layer_1">
	<g>
		<g>
			<path fill="none" stroke="#000000" stroke-width="2" stroke-linecap="round" stroke-linejoin="round" stroke-miterlimit="10" d="
				M45,44L6.9952455,45.8051109C4.8209424,45.9111748,3,44.1768913,3,42.0000038v-0.0000076
				c0-2.1768875,1.8209424-3.911171,3.9952455-3.8051071L45,40"/>
			
				<line fill="none" stroke="#000000" stroke-width="2" stroke-linecap="round" stroke-linejoin="round" stroke-miterlimit="10" x1="7" y1="43" x2="42" y2="43"/>
		</g>
		<g>
			<path fill="none" stroke="#000000" stroke-width="2" stroke-linecap="round" stroke-linejoin="round" stroke-miterlimit="10" d="
				M44.7026787,38.049572L6.7040758,36.1193275C4.529851,36.011673,2.8877437,34.1071892,3.1012042,31.940794l0.0000007-0.0000076
				c0.2134604-2.1663971,2.1956873-3.7137642,4.3491111-3.3950043l37.6445923,5.5230656"/>
			
				<line fill="none" stroke="#000000" stroke-width="2" stroke-linecap="round" stroke-linejoin="round" stroke-miterlimit="10" x1="6.98387" y1="33.3282013" x2="41.815197" y2="36.7602196"/>
		</g>
		<g>
			<path fill="none" stroke="#000000" stroke-width="2" stroke-linecap="round" stroke-linejoin="round" stroke-miterlimit="10" d="
				M44.2510262,31.9072742L6.583231,26.5447235c-2.155549-0.3040581-3.618489-2.3493881-3.2097688-4.4875622l0.0000017-0.0000076
				c0.4087203-2.1381741,2.522898-3.4997234,4.6386194-2.9873104l36.9899597,8.9085655"/>
			
				<line fill="none" stroke="#000000" stroke-width="2" stroke-linecap="round" stroke-linejoin="round" stroke-miterlimit="10" x1="7.1145725" y1="23.7903919" x2="41.4921341" y2="30.3617954"/>
		</g>
		<g>
			<path fill="none" stroke="#000000" stroke-width="2" stroke-linecap="round" stroke-linejoin="round" stroke-miterlimit="10" d="
				M45.6330414,27.7164555L8.6054411,18.9656448c-2.1191688-0.497963-3.3909254-2.6673393-2.7903028-4.7597294l0.0000024-0.0000076
				c0.6006231-2.0923901,2.8293877-3.2569389,4.890028-2.5550823l36.0315056,12.2208958"/>
			<path fill="none" stroke="#000000" stroke-width="2" stroke-linecap="round" stroke-linejoin="round" stroke-miterlimit="10" d="
				M9.9357834,14.3483639l32.6802483,9.3809052c0,0-3.6993637,11.854063-0.6160316,19.270731"/>
		</g>
		<path fill="none" stroke="#000000" stroke-width="2" stroke-linecap="round" stroke-linejoin="round" stroke-miterlimit="10" d="
			M31.8600922,12.3494062l0.8608818-2.873827l-4.789711-1.434804l-0.8608837,2.873827l-0.0000019-0.000001
			c-1.5871696-0.4754515-3.2592545,0.4257746-3.734705,2.0129433l-0.5739231,1.9158878L33.2991142,18l0.573925-1.9158878
			c0.4754486-1.5871687-0.4257736-3.2592535-2.0129452-3.734705L31.8600922,12.3494062z"/>
	</g>
</g>
<g id="Layer_2">
</g>
<g id="Layer_3">
</g>
</svg>
