<?xml version="1.0" encoding="utf-8"?>
<!-- Generator: Adobe Illustrator 18.0.0, SVG Export Plug-In . SVG Version: 6.00 Build 0)  -->
<!DOCTYPE svg PUBLIC "-//W3C//DTD SVG 1.1//EN" "http://www.w3.org/Graphics/SVG/1.1/DTD/svg11.dtd">
<svg version="1.1" xmlns="http://www.w3.org/2000/svg" xmlns:xlink="http://www.w3.org/1999/xlink" x="0px" y="0px"
	 viewBox="0 0 48 48" enable-background="new 0 0 48 48" xml:space="preserve">
<g id="Layer_1">
	<g>
		<g>
			<path fill="none" stroke="#000000" stroke-width="2" stroke-linecap="round" stroke-linejoin="round" stroke-miterlimit="10" d="
				M7.0294371,21.6104374c-5.6258116,5.6258125-5.4627523,14.8483448,0.4891791,20.2656612
				c5.1027694,4.6444283,13.067318,4.8267822,18.3608494,0.4010086c3.5206585-2.9435272,5.1905861-7.1517067,5.026186-11.3037453
				c-0.1282749-3.239666,0.6116543-6.4536304,2.3083076-9.216465l1.392643-2.2677803l-5.6568546-5.6568537l-2.2646179,1.3907003
				c-2.7872925,1.7116737-6.0315456,2.4179249-9.3005791,2.3072777
				C13.6514416,17.4038849,9.8798971,18.7599773,7.0294371,21.6104374z"/>
			<path fill="none" stroke="#000000" stroke-width="2" stroke-linecap="round" stroke-linejoin="round" stroke-miterlimit="10" d="
				M12.6862917,39.9952126c0,0,5.5734072,3.1051216,12.0208158-2.1213188"/>
			<path fill="none" stroke="#000000" stroke-width="2" stroke-linecap="round" stroke-linejoin="round" stroke-miterlimit="10" d="
				M35.8390312,9.5896225l3.0102119,3.01021c1.121376,1.1213751,1.121376,2.9394827,0,4.0608578l-3.5355339,3.5355339
				l-7.0710678-7.0710678l3.5355339-3.5355339C32.8995514,8.4682474,34.717659,8.4682474,35.8390312,9.5896225z"/>
		</g>
		
			<polyline fill="none" stroke="#000000" stroke-width="2" stroke-linecap="round" stroke-linejoin="round" stroke-miterlimit="10" points="
			36.0208168,2.5185542 32.4852829,6.0540881 42.3847771,15.9535828 45.920311,12.4180489 		"/>
	</g>
</g>
<g id="Layer_2">
</g>
<g id="Layer_3">
</g>
</svg>
