<?xml version="1.0" encoding="utf-8"?>
<!-- Generator: Adobe Illustrator 18.0.0, SVG Export Plug-In . SVG Version: 6.00 Build 0)  -->
<!DOCTYPE svg PUBLIC "-//W3C//DTD SVG 1.1//EN" "http://www.w3.org/Graphics/SVG/1.1/DTD/svg11.dtd">
<svg version="1.1" xmlns="http://www.w3.org/2000/svg" xmlns:xlink="http://www.w3.org/1999/xlink" x="0px" y="0px"
	 viewBox="0 0 48 48" enable-background="new 0 0 48 48" xml:space="preserve">
<g id="Layer_1">
	<path fill="none" stroke="#000000" stroke-width="2" stroke-linecap="round" stroke-linejoin="round" stroke-miterlimit="10" d="
		M32.6301231,46H15.3698769c-2.4731731,0-4.5365858-1.8893623-4.7539616-4.3529663L8,14h32l-2.6159134,27.6470337
		C37.1667099,44.1106377,35.1032944,46,32.6301231,46z"/>
	<path fill="none" stroke="#000000" stroke-width="2" stroke-linejoin="round" stroke-miterlimit="10" d="M38.1124954,12.5360231
		L7.8230886,5.9366345l0.000001-0.0000048c0.5878611-2.6981225,3.2516775-4.4088278,5.9497995-3.8209665l20.5186386,4.4705553
		c2.6981239,0.5878611,4.4088287,3.2516775,3.8209686,5.9497995V12.5360231z"/>
	<path fill="none" stroke="#000000" stroke-width="2" stroke-linecap="round" stroke-linejoin="round" stroke-miterlimit="10" d="
		M28.9321327,42h-0.0000076C27.3127575,42,26,40.6872406,26,39.0678749V39h5.8642578v0.0678749
		C31.8642578,40.6872406,30.5515003,42,28.9321327,42z"/>
	
		<line fill="none" stroke="#000000" stroke-width="2" stroke-linecap="round" stroke-linejoin="round" stroke-miterlimit="10" x1="32" y1="28" x2="29" y2="39"/>
	
		<line fill="none" stroke="#000000" stroke-width="2" stroke-linecap="round" stroke-linejoin="round" stroke-miterlimit="10" x1="29" y1="28" x2="35" y2="28"/>
	
		<line fill="none" stroke="#000000" stroke-width="2" stroke-linecap="round" stroke-linejoin="round" stroke-miterlimit="10" x1="25" y1="10" x2="28" y2="14"/>
</g>
<g id="Layer_2">
</g>
<g id="Layer_3">
</g>
</svg>
