<?xml version="1.0" encoding="utf-8"?>
<!-- Generator: Adobe Illustrator 18.0.0, SVG Export Plug-In . SVG Version: 6.00 Build 0)  -->
<!DOCTYPE svg PUBLIC "-//W3C//DTD SVG 1.1//EN" "http://www.w3.org/Graphics/SVG/1.1/DTD/svg11.dtd">
<svg version="1.1" xmlns="http://www.w3.org/2000/svg" xmlns:xlink="http://www.w3.org/1999/xlink" x="0px" y="0px"
	 viewBox="0 0 48 48" enable-background="new 0 0 48 48" xml:space="preserve">
<g id="Layer_1">
	<path fill="none" stroke="#000000" stroke-width="2" stroke-linecap="round" stroke-linejoin="round" stroke-miterlimit="10" d="
		M19.8113708,38h-3.6227417C8.3524656,38,2,31.6475334,2,23.8113708V9h32v14.8113708C34,31.6475334,27.6475334,38,19.8113708,38z"/>
	<path fill="none" stroke="#000000" stroke-width="2" stroke-linecap="round" stroke-linejoin="round" stroke-miterlimit="10" d="
		M27.0000076,46H8.9999933C5.1340036,46,2,42.8659973,2,39.0000076V39h32v0.0000076C34,42.8659973,30.8659973,46,27.0000076,46z"/>
	<path fill="none" stroke="#000000" stroke-width="2" stroke-linecap="round" stroke-linejoin="round" stroke-miterlimit="10" d="
		M34.0251274,13.0502529c2.7336693-2.7336702,7.1658249-2.7336702,9.8994942,0s2.7336693,7.1658249,0,9.8994942
		s-7.1658249,2.7336712-9.8994942,0"/>
	<path fill="none" stroke="#000000" stroke-width="2" stroke-linecap="round" stroke-linejoin="round" stroke-miterlimit="10" d="
		M13,2c0,0,0.906702,2.5164256,0,4"/>
	<path fill="none" stroke="#000000" stroke-width="2" stroke-linecap="round" stroke-linejoin="round" stroke-miterlimit="10" d="
		M19,2c0,0,0.906702,2.5164256,0,4"/>
	<path fill="none" stroke="#000000" stroke-width="2" stroke-linecap="round" stroke-linejoin="round" stroke-miterlimit="10" d="
		M25,2c0,0,0.906702,2.5164256,0,4"/>
	<path fill="none" stroke="#000000" stroke-width="2" stroke-linecap="round" stroke-linejoin="round" stroke-miterlimit="10" d="
		M34.0251274,15.0502529c1.6291008-1.6291008,4.2703934-1.6291008,5.8994942,0s1.6291008,4.2703934,0,5.8994942
		s-4.2703934,1.6291008-5.8994942,0"/>
</g>
<g id="Layer_2">
</g>
<g id="Layer_3">
</g>
</svg>
