<?xml version="1.0" encoding="utf-8"?>
<!-- Generator: Adobe Illustrator 18.0.0, SVG Export Plug-In . SVG Version: 6.00 Build 0)  -->
<!DOCTYPE svg PUBLIC "-//W3C//DTD SVG 1.1//EN" "http://www.w3.org/Graphics/SVG/1.1/DTD/svg11.dtd">
<svg version="1.1" xmlns="http://www.w3.org/2000/svg" xmlns:xlink="http://www.w3.org/1999/xlink" x="0px" y="0px"
	 viewBox="0 0 48 48" enable-background="new 0 0 48 48" xml:space="preserve">
<g id="Layer_1">
	
		<ellipse fill="none" stroke="#000000" stroke-width="2" stroke-linejoin="round" stroke-miterlimit="10" cx="24" cy="5" rx="9" ry="3"/>
	<path fill="none" stroke="#000000" stroke-width="2" stroke-linejoin="round" stroke-miterlimit="10" d="M33,5v6
		c0,1.6568546-4.029438,3-9,3s-9-1.3431454-9-3V5"/>
	<path fill="none" stroke="#000000" stroke-width="2" stroke-linejoin="round" stroke-miterlimit="10" d="M15,11
		c6.434782,6.869566,4,19,4,19c0,2.761425,2.2385769,5,5,5s5-2.238575,5-5c0,0-3.0807457-12.6645966,3.7888184-18.5403728"/>
	<path fill="none" stroke="#000000" stroke-width="2" stroke-linejoin="round" stroke-miterlimit="10" d="M19.0003147,23h-7.5994606
		c-0.841012,0-1.5921764,0.5261364-1.8795862,1.3165131L6,34v6c0,1.6568527,1.3431458,3,3,3h29c1.6568527,0,3-1.3431473,3-3v-6
		l-2.5980644-9.5262356C38.1646309,23.6036434,37.3743095,23,36.4724083,23h-7.4726639"/>
	
		<line fill="none" stroke="#000000" stroke-width="2" stroke-linecap="round" stroke-linejoin="round" stroke-miterlimit="10" x1="13" y1="46" x2="35" y2="46"/>
	
		<line fill="none" stroke="#000000" stroke-width="2" stroke-linecap="round" stroke-linejoin="round" stroke-miterlimit="10" x1="7" y1="34" x2="10" y2="34"/>
	
		<line fill="none" stroke="#000000" stroke-width="2" stroke-linecap="round" stroke-linejoin="round" stroke-miterlimit="10" x1="38" y1="34" x2="40" y2="34"/>
</g>
<g id="Layer_2">
</g>
<g id="Layer_3">
</g>
</svg>
