<?xml version="1.0" encoding="utf-8"?>
<!-- Generator: Adobe Illustrator 18.0.0, SVG Export Plug-In . SVG Version: 6.00 Build 0)  -->
<!DOCTYPE svg PUBLIC "-//W3C//DTD SVG 1.1//EN" "http://www.w3.org/Graphics/SVG/1.1/DTD/svg11.dtd">
<svg version="1.1" xmlns="http://www.w3.org/2000/svg" xmlns:xlink="http://www.w3.org/1999/xlink" x="0px" y="0px"
	 viewBox="0 0 48 48" enable-background="new 0 0 48 48" xml:space="preserve">
<g id="Layer_1">
	<path fill="none" stroke="#000000" stroke-width="2" stroke-linecap="round" stroke-linejoin="round" stroke-miterlimit="10" d="
		M12,12.727273C12,19.3546906,17.3725834,28,24,28s12-8.6453094,12-15.272727c0,0-7.272728-1.272728-10.90909-6.545455
		C16.333334,5.9166665,12,12.727273,12,12.727273z"/>
	<path fill="none" stroke="#000000" stroke-width="2" stroke-linecap="round" stroke-linejoin="round" stroke-miterlimit="10" d="
		M30.0041161,26c0,0-0.3593559,5.2953014,5,5.2777786C43.5,31.25,45.0833321,33.75,45.0041161,45C45.0041161,45,37.5,47,24,47
		c-13.166666,0-20-2-20-2c0-11.8333321,2.25-12.75,10-13c5.3539352-0.1727085,5-5,5-5"/>
	<path fill="none" stroke="#000000" stroke-width="2" stroke-linecap="round" stroke-linejoin="round" stroke-miterlimit="10" d="
		M26,36c0-1.1046143-0.8954468-2-2-2s-2,0.8953857-2,2c0,1.0325317,0.7854614,1.8724365,1.7897949,1.9788208L22.0673828,42
		l1.9324665,5L26,42l-1.7826538-4.0219116C25.2182617,37.8684692,26,37.0300903,26,36z"/>
	<path fill="none" stroke="#000000" stroke-width="2" stroke-linecap="round" stroke-linejoin="round" stroke-miterlimit="10" d="
		M11,12c0-6.6274171,5.268013-12,13-12s13,5.3725829,13,12"/>
	<path fill="none" stroke="#000000" stroke-width="2" stroke-linecap="round" stroke-linejoin="round" stroke-miterlimit="10" d="
		M36,14c0,0,0.25-1.583333,2-1s0.3333321,8.416666-3,6"/>
	<path fill="none" stroke="#000000" stroke-width="2" stroke-linecap="round" stroke-linejoin="round" stroke-miterlimit="10" d="
		M11.7541275,14c0,0-0.25-1.583333-2-1s-0.333333,8.416666,3,6"/>
	
		<polygon fill="none" stroke="#000000" stroke-width="2" stroke-linecap="round" stroke-linejoin="round" stroke-miterlimit="10" points="
		18,31 22,35 17,39 	"/>
	
		<polygon fill="none" stroke="#000000" stroke-width="2" stroke-linecap="round" stroke-linejoin="round" stroke-miterlimit="10" points="
		31,31 27,35 32,39 	"/>
	
		<line fill="none" stroke="#000000" stroke-width="2" stroke-linecap="round" stroke-linejoin="round" stroke-miterlimit="10" x1="34" y1="42" x2="38" y2="42"/>
</g>
<g id="Layer_2">
</g>
<g id="Layer_3">
</g>
</svg>
