<?xml version="1.0" encoding="utf-8"?>
<!-- Generator: Adobe Illustrator 18.0.0, SVG Export Plug-In . SVG Version: 6.00 Build 0)  -->
<!DOCTYPE svg PUBLIC "-//W3C//DTD SVG 1.1//EN" "http://www.w3.org/Graphics/SVG/1.1/DTD/svg11.dtd">
<svg version="1.1" xmlns="http://www.w3.org/2000/svg" xmlns:xlink="http://www.w3.org/1999/xlink" x="0px" y="0px"
	 viewBox="0 0 48 48" enable-background="new 0 0 48 48" xml:space="preserve">
<g id="Layer_1">
	
		<line fill="none" stroke="#000000" stroke-width="2" stroke-linecap="round" stroke-linejoin="round" stroke-miterlimit="10" x1="39.7989883" y1="16.6862907" x2="41.920311" y2="14.564971"/>
	
		<line fill="none" stroke="#000000" stroke-width="2" stroke-linecap="round" stroke-linejoin="round" stroke-miterlimit="10" x1="36.970562" y1="13.8578644" x2="39.0918846" y2="11.7365437"/>
	
		<line fill="none" stroke="#000000" stroke-width="2" stroke-linecap="round" stroke-linejoin="round" stroke-miterlimit="10" x1="34.1421356" y1="11.0294371" x2="36.2634544" y2="8.9081173"/>
	
		<line fill="none" stroke="#000000" stroke-width="2" stroke-linecap="round" stroke-linejoin="round" stroke-miterlimit="10" x1="31.3137093" y1="8.2010098" x2="33.4350281" y2="6.07969"/>
	<path fill="none" stroke="#000000" stroke-width="2" stroke-linecap="round" stroke-linejoin="round" stroke-miterlimit="10" d="
		M5.1507578,37.1923866l5.6568537,5.6568565l7.1603355-0.5507965c1.3112793-0.1008682,2.5432224-0.6674805,3.473177-1.597435
		l23.3076134-23.3076134L30.6066017,3.2512627L7.2989874,26.558876c-0.9299536,0.9299545-1.4965672,2.1618977-1.5974345,3.473177
		L5.1507578,37.1923866z"/>
	
		<rect x="2.5649719" y="39.4350281" transform="matrix(-0.7071068 -0.7071068 0.7071068 -0.7071068 -18.0918808 75.376152)" fill="none" stroke="#000000" stroke-width="2" stroke-linecap="round" stroke-linejoin="round" stroke-miterlimit="10" width="8" height="4"/>
	
		<polyline fill="none" stroke="#000000" stroke-width="2" stroke-linecap="round" stroke-linejoin="round" stroke-miterlimit="10" points="
		7.9791846,45.6776695 3.0294373,46.3847771 1.6152236,44.970562 2.3223305,40.0208168 	"/>
	
		<rect x="20.5061646" y="12.8665161" transform="matrix(-0.7071068 -0.7071068 0.7071068 -0.7071068 25.6254311 57.0315132)" fill="none" stroke="#000000" stroke-width="2" stroke-linecap="round" stroke-linejoin="round" stroke-miterlimit="10" width="8.2363281" height="20.684082"/>
</g>
<g id="Layer_2">
</g>
<g id="Layer_3">
</g>
</svg>
