<?xml version="1.0" encoding="utf-8"?>
<!-- Generator: Adobe Illustrator 18.0.0, SVG Export Plug-In . SVG Version: 6.00 Build 0)  -->
<!DOCTYPE svg PUBLIC "-//W3C//DTD SVG 1.1//EN" "http://www.w3.org/Graphics/SVG/1.1/DTD/svg11.dtd">
<svg version="1.1" xmlns="http://www.w3.org/2000/svg" xmlns:xlink="http://www.w3.org/1999/xlink" x="0px" y="0px"
	 viewBox="0 0 48 48" enable-background="new 0 0 48 48" xml:space="preserve">
<g id="Layer_1">
	<g>
		<path fill="none" stroke="#000000" stroke-width="2" stroke-linecap="round" stroke-linejoin="round" stroke-miterlimit="10" d="
			M31.0710678,31.0710678c2.8497124-2.8497143,3.618885-6.9909554,2.309494-10.5390091
			c-0.2722015-0.7375832-0.1065788-1.5634003,0.4493523-2.1193333l2.9254074-2.9254074
			c0.429615-0.429615,1.0312271-0.6406488,1.6350784-0.573554l5.4085884,0.600955l2.8284302-2.8284273L35.3137093,1.372583
			l-2.8284264,2.8284273L33.086235,9.609601c0.0670967,0.6038513-0.1439362,1.2054615-0.5735512,1.6350765l-2.9254093,2.9254084
			c-0.555933,0.555933-1.3817501,0.7215528-2.1193333,0.4493523c-3.5480537-1.3093901-7.6892948-0.5402193-10.5390091,2.309494
			L31.0710678,31.0710678z"/>
		
			<line fill="none" stroke="#000000" stroke-width="2" stroke-linecap="round" stroke-linejoin="round" stroke-miterlimit="10" x1="24" y1="24" x2="7.0294371" y2="40.970562"/>
	</g>
</g>
<g id="Layer_2">
</g>
<g id="Layer_3">
</g>
</svg>
