<?xml version="1.0" encoding="utf-8"?>
<!-- Generator: Adobe Illustrator 18.0.0, SVG Export Plug-In . SVG Version: 6.00 Build 0)  -->
<!DOCTYPE svg PUBLIC "-//W3C//DTD SVG 1.1//EN" "http://www.w3.org/Graphics/SVG/1.1/DTD/svg11.dtd">
<svg version="1.1" xmlns="http://www.w3.org/2000/svg" xmlns:xlink="http://www.w3.org/1999/xlink" x="0px" y="0px"
	 viewBox="0 0 48 48" enable-background="new 0 0 48 48" xml:space="preserve">
<g id="Layer_1">
	<path fill="none" stroke="#000000" stroke-width="2" stroke-linecap="round" stroke-linejoin="round" stroke-miterlimit="10" d="
		M28.8113708,46.1886292h-9.6227417C11.3524656,46.1886292,5,39.8361626,5,32v-1h38v1
		C43,39.8361626,36.6475334,46.1886292,28.8113708,46.1886292z"/>
	<path fill="none" stroke="#000000" stroke-width="2" stroke-linecap="round" stroke-linejoin="round" stroke-miterlimit="10" d="
		M34.9929199,10.3933105c-1.6921997-1.8201904-4.954834-1.5378418-8.1907349,1.47052
		c-1.4650269,1.3619995-2.5180664,2.9086304-3.0805054,4.3636475C23.3327026,16.0808716,22.9240112,16,22.5,16
		c-0.2506714,0-0.494812,0.0332642-0.734314,0.085022c0.3690186-2.3133545-0.1073608-5.3151855-1.487854-8.2799683
		c-2.4673462-5.2989502-6.3253174-7.2701416-9.3059692-5.8822632s-3.9552002,5.6092529-1.487915,10.9081421
		c2.1968384,4.7180176,5.9364624,7.7392578,8.8344727,7.3674927C18.1151733,21.0253906,18,21.9597168,18,23
		c0,4.4182739,2.0147095,8,4.5,8s4.5-3.5817261,4.5-8c0-0.5275879-0.0305176-1.0272217-0.0853271-1.5012207
		c1.8334351-0.1625366,4.0615234-1.2268677,6.0155029-3.0435181C36.1660767,15.4468994,36.6851196,12.213501,34.9929199,10.3933105z
		"/>
	
		<line fill="none" stroke="#000000" stroke-width="2" stroke-linecap="round" stroke-linejoin="round" stroke-miterlimit="10" x1="10" y1="9" x2="8" y2="10"/>
	
		<line fill="none" stroke="#000000" stroke-width="2" stroke-linecap="round" stroke-linejoin="round" stroke-miterlimit="10" x1="12" y1="13" x2="10" y2="15"/>
	
		<line fill="none" stroke="#000000" stroke-width="2" stroke-linecap="round" stroke-linejoin="round" stroke-miterlimit="10" x1="16" y1="10" x2="17" y2="9"/>
	
		<line fill="none" stroke="#000000" stroke-width="2" stroke-linecap="round" stroke-linejoin="round" stroke-miterlimit="10" x1="13" y1="6" x2="13" y2="4"/>
	
		<line fill="none" stroke="#000000" stroke-width="2" stroke-linecap="round" stroke-linejoin="round" stroke-miterlimit="10" x1="10" y1="5" x2="7" y2="3"/>
	
		<line fill="none" stroke="#000000" stroke-width="2" stroke-linecap="round" stroke-linejoin="round" stroke-miterlimit="10" x1="20" y1="12" x2="23" y2="11"/>
	
		<line fill="none" stroke="#000000" stroke-width="2" stroke-linecap="round" stroke-linejoin="round" stroke-miterlimit="10" x1="32" y1="17" x2="34" y2="18"/>
	
		<line fill="none" stroke="#000000" stroke-width="2" stroke-linecap="round" stroke-linejoin="round" stroke-miterlimit="10" x1="33" y1="12" x2="36" y2="12"/>
	
		<line fill="none" stroke="#000000" stroke-width="2" stroke-linecap="round" stroke-linejoin="round" stroke-miterlimit="10" x1="30" y1="12" x2="30" y2="9"/>
	
		<line fill="none" stroke="#000000" stroke-width="2" stroke-linecap="round" stroke-linejoin="round" stroke-miterlimit="10" x1="20" y1="26" x2="18" y2="25"/>
	
		<line fill="none" stroke="#000000" stroke-width="2" stroke-linecap="round" stroke-linejoin="round" stroke-miterlimit="10" x1="25" y1="26" x2="26" y2="25"/>
	
		<line fill="none" stroke="#000000" stroke-width="2" stroke-linecap="round" stroke-linejoin="round" stroke-miterlimit="10" x1="22" y1="23" x2="21" y2="21"/>
	
		<line fill="none" stroke="#000000" stroke-width="2" stroke-linecap="round" stroke-linejoin="round" stroke-miterlimit="10" x1="27" y1="17" x2="29" y2="16"/>
	
		<line fill="none" stroke="#000000" stroke-width="2" stroke-linecap="round" stroke-linejoin="round" stroke-miterlimit="10" x1="17" y1="16" x2="16" y2="15"/>
	
		<line fill="none" stroke="#000000" stroke-width="2" stroke-linecap="round" stroke-linejoin="round" stroke-miterlimit="10" x1="15" y1="17" x2="14" y2="17"/>
	
		<ellipse fill="none" stroke="#000000" stroke-width="2" stroke-linecap="round" stroke-linejoin="round" stroke-miterlimit="10" cx="34.5" cy="6.5" rx="2.5" ry="3.5"/>
	
		<line fill="none" stroke="#000000" stroke-width="2" stroke-linecap="round" stroke-linejoin="round" stroke-miterlimit="10" x1="32" y1="4" x2="33" y2="5"/>
	
		<line fill="none" stroke="#000000" stroke-width="2" stroke-linecap="round" stroke-linejoin="round" stroke-miterlimit="10" x1="35" y1="5" x2="37" y2="4"/>
	
		<ellipse fill="none" stroke="#000000" stroke-width="2" stroke-linecap="round" stroke-linejoin="round" stroke-miterlimit="10" cx="31.5" cy="28.5" rx="3.5" ry="2.5"/>
	
		<ellipse fill="none" stroke="#000000" stroke-width="2" stroke-linecap="round" stroke-linejoin="round" stroke-miterlimit="10" cx="38" cy="29.5" rx="2" ry="1.5"/>
	
		<ellipse fill="none" stroke="#000000" stroke-width="2" stroke-linecap="round" stroke-linejoin="round" stroke-miterlimit="10" cx="16" cy="29" rx="3" ry="2"/>
</g>
<g id="Layer_2">
</g>
<g id="Layer_3">
</g>
</svg>
