<?xml version="1.0" encoding="utf-8"?>
<!-- Generator: Adobe Illustrator 18.0.0, SVG Export Plug-In . SVG Version: 6.00 Build 0)  -->
<!DOCTYPE svg PUBLIC "-//W3C//DTD SVG 1.1//EN" "http://www.w3.org/Graphics/SVG/1.1/DTD/svg11.dtd">
<svg version="1.1" xmlns="http://www.w3.org/2000/svg" xmlns:xlink="http://www.w3.org/1999/xlink" x="0px" y="0px"
	 viewBox="0 0 48 48" enable-background="new 0 0 48 48" xml:space="preserve">
<g id="Layer_1">
	<g>
		
			<circle fill="none" stroke="#000000" stroke-width="2" stroke-linecap="round" stroke-linejoin="round" stroke-miterlimit="10" cx="17" cy="10" r="8"/>
		<path fill="none" stroke="#000000" stroke-width="2" stroke-linecap="round" stroke-linejoin="round" stroke-miterlimit="10" d="
			M30,46H4c-1.1045694,0-2-0.8954315-2-2V32.1331291C2,24.8799019,7.8799019,19,15.1331282,19h3.7337446
			C26.1200981,19,32,24.8799019,32,32.1331291V44C32,45.1045685,31.1045704,46,30,46z"/>
		
			<polygon fill="none" stroke="#000000" stroke-width="2" stroke-linecap="round" stroke-linejoin="round" stroke-miterlimit="10" points="
			21.2426147,24.2426147 17,20 12.7573853,24.2426147 15.9705811,27.4558105 14,30.2426147 17,44 20,30.2426147 
			18.0294189,27.4558105 		"/>
		
			<line fill="none" stroke="#000000" stroke-width="2" stroke-linecap="round" stroke-linejoin="round" stroke-miterlimit="10" x1="24" y1="34" x2="27" y2="34"/>
	</g>
	<path fill="none" stroke="#000000" stroke-width="2" stroke-linecap="round" stroke-linejoin="round" stroke-miterlimit="10" d="
		M23,3.4666667c4.1237259,0,7.4666672,3.3429403,7.4666672,7.4666667S27.1237259,18.3999996,23,18.3999996l0.8668728,0.9333344
		C31.1200981,19.333334,37,25.2132359,37,32.4664612v10.0668716c0,1.1045685-0.8954315,2-2,2h-3"/>
	<path fill="none" stroke="#000000" stroke-width="2" stroke-linecap="round" stroke-linejoin="round" stroke-miterlimit="10" d="
		M30.1428566,7.9000001c3.5346222,0,6.3285713,2.9153771,6.3285713,6.4500003s-2.9010925,6.4249992-6.4357128,6.4249992L30,21
		c6.2170525,0,12,5.6399155,12,11.8569679V41c0,1.1045685-0.8954315,2-2,2h-2"/>
	<path fill="none" stroke="#000000" stroke-width="2" stroke-linecap="round" stroke-linejoin="round" stroke-miterlimit="10" d="
		M36.2827797,11.0211182c2.9141502,0,5.0979805,2.3834229,5.0979805,5.2975731s-2.451664,5.287056-5.3658142,5.287056
		l0.0310516,0.1804562C41.1716995,21.7862034,46,26.431036,46,31.5567398V38c0,1.1045685-0.8954315,2-2,2h-2"/>
</g>
<g id="Layer_2">
</g>
<g id="Layer_3">
</g>
</svg>
