<?xml version="1.0" encoding="utf-8"?>
<!-- Generator: Adobe Illustrator 18.0.0, SVG Export Plug-In . SVG Version: 6.00 Build 0)  -->
<!DOCTYPE svg PUBLIC "-//W3C//DTD SVG 1.1//EN" "http://www.w3.org/Graphics/SVG/1.1/DTD/svg11.dtd">
<svg version="1.1" xmlns="http://www.w3.org/2000/svg" xmlns:xlink="http://www.w3.org/1999/xlink" x="0px" y="0px"
	 viewBox="0 0 48 48" enable-background="new 0 0 48 48" xml:space="preserve">
<g id="Layer_1">
	<text transform="matrix(1 0 0 1 11 33.2158203)" font-family="'GothamRounded-Medium'" font-size="20.2156792">24</text>
	<path fill="none" stroke="#000000" stroke-width="2" stroke-linecap="round" stroke-linejoin="round" stroke-miterlimit="10" d="
		M13,6H5C3.8954306,6,3,6.8954306,3,8v35c0,1.1045685,0.8954306,2,2,2h38c1.1045685,0,2-0.8954315,2-2V8
		c0-1.1045694-0.8954315-2-2-2h-8"/>
	
		<line fill="none" stroke="#000000" stroke-width="2" stroke-linecap="round" stroke-linejoin="round" stroke-miterlimit="10" x1="31" y1="6" x2="17" y2="6"/>
	<path fill="none" stroke="#000000" stroke-width="2" stroke-linecap="round" stroke-linejoin="round" stroke-miterlimit="10" d="
		M15.0000019,10.8955746h-0.0000038C13.8954296,10.8955746,13,10.000145,13,8.8955765V3.9999981
		C13,2.8954296,13.8954296,2,14.9999981,2h0.0000038C16.1045704,2,17,2.8954296,17,3.9999981v4.8955784
		C17,10.000145,16.1045704,10.8955746,15.0000019,10.8955746z"/>
	<path fill="none" stroke="#000000" stroke-width="2" stroke-linecap="round" stroke-linejoin="round" stroke-miterlimit="10" d="
		M33.0000038,10.8955746h-0.0000076C31.8954296,10.8955746,31,10.000145,31,8.8955765V3.9999981
		C31,2.8954296,31.8954296,2,32.9999962,2h0.0000076C34.1045723,2,35,2.8954296,35,3.9999981v4.8955784
		C35,10.000145,34.1045723,10.8955746,33.0000038,10.8955746z"/>
</g>
<g id="Layer_2">
</g>
<g id="Layer_3">
</g>
</svg>
