<?xml version="1.0" encoding="utf-8"?>
<!-- Generator: Adobe Illustrator 18.0.0, SVG Export Plug-In . SVG Version: 6.00 Build 0)  -->
<!DOCTYPE svg PUBLIC "-//W3C//DTD SVG 1.1//EN" "http://www.w3.org/Graphics/SVG/1.1/DTD/svg11.dtd">
<svg version="1.1" xmlns="http://www.w3.org/2000/svg" xmlns:xlink="http://www.w3.org/1999/xlink" x="0px" y="0px"
	 viewBox="0 0 48 48" enable-background="new 0 0 48 48" xml:space="preserve">
<g id="Layer_1">
	<g>
		<path fill="none" stroke="#000000" stroke-width="2" stroke-linecap="round" stroke-linejoin="round" stroke-miterlimit="10" d="
			M36,43v-6.6676445c0-4.3520107-2.8546524-8.1887512-7.0231209-9.439291l-1.0612278-0.3183689
			C26.7786446,26.233593,26,25.1870708,26,24.0000019v-0.0000038c0-1.1870689,0.7786446-2.2335911,1.9156513-2.5746937
			l1.0612278-0.3183689C33.1453476,19.8563957,36,16.0196552,36,11.6676464V5"/>
		<path fill="none" stroke="#000000" stroke-width="2" stroke-linecap="round" stroke-linejoin="round" stroke-miterlimit="10" d="
			M12,5v6.6676464c0,4.3520088,2.8546534,8.1887493,7.0231209,9.4392891l1.0612278,0.3183689
			C21.2213554,21.766407,22,22.8129292,22,23.9999981v0.0000038c0,1.1870689-0.7786446,2.2335911-1.9156513,2.5746937
			l-1.0612278,0.3183689C14.8546534,28.1436043,12,31.9803448,12,36.3323555V43"/>
		
			<rect x="9" y="1" fill="none" stroke="#000000" stroke-width="2" stroke-linecap="round" stroke-linejoin="round" stroke-miterlimit="10" width="30" height="4"/>
		
			<rect x="9" y="43" fill="none" stroke="#000000" stroke-width="2" stroke-linecap="round" stroke-linejoin="round" stroke-miterlimit="10" width="30" height="4"/>
		<path fill="none" stroke="#000000" stroke-width="2" stroke-linecap="round" stroke-linejoin="round" stroke-miterlimit="10" d="
			M13,13.0952377c0,0,11.8491573,3.5658092,22-2.0952377"/>
		<path fill="none" stroke="#000000" stroke-width="2" stroke-linecap="round" stroke-linejoin="round" stroke-miterlimit="10" d="
			M16,43l6.2386971-7.0185356c0.9374123-1.0545883,2.5851936-1.0545883,3.5226059,0L32,43"/>
	</g>
</g>
<g id="Layer_2">
</g>
<g id="Layer_3">
</g>
</svg>
