<?xml version="1.0" encoding="utf-8"?>
<!-- Generator: Adobe Illustrator 18.0.0, SVG Export Plug-In . SVG Version: 6.00 Build 0)  -->
<!DOCTYPE svg PUBLIC "-//W3C//DTD SVG 1.1//EN" "http://www.w3.org/Graphics/SVG/1.1/DTD/svg11.dtd">
<svg version="1.1" xmlns="http://www.w3.org/2000/svg" xmlns:xlink="http://www.w3.org/1999/xlink" x="0px" y="0px"
	 viewBox="0 0 48 48" enable-background="new 0 0 48 48" xml:space="preserve">
<g id="Layer_1">
	<path fill="none" stroke="#000000" stroke-width="2" stroke-linecap="round" stroke-linejoin="round" stroke-miterlimit="10" d="
		M31.3393135,27h-14.678627c-3.0057774,0-5.3313856-2.634407-4.9585648-5.6169739l1.3745089-11.5942364
		C13.6032925,5.3462987,17.3697319,2,21.8433323,2h4.3133354c4.4736004,0,8.2400379,3.3462987,8.7667027,7.7887897
		l1.3745079,11.5942364C36.6707001,24.365593,34.3450928,27,31.3393135,27z"/>
	<path fill="none" stroke="#000000" stroke-width="2" stroke-linecap="round" stroke-linejoin="round" stroke-miterlimit="10" d="
		M34.9999924,37H13c-1.1045694,0-2-0.8954315-2-2v-0.0000076C11,32.7908592,12.7908583,31,14.9999943,31H33
		c2.209137,0,3.9999924,1.7908592,3.9999924,3.9999924V35C36.9999924,36.1045685,36.1045647,37,34.9999924,37z"/>
	
		<line fill="none" stroke="#000000" stroke-width="2" stroke-linecap="round" stroke-linejoin="round" stroke-miterlimit="10" x1="22" y1="28" x2="22" y2="30"/>
	
		<line fill="none" stroke="#000000" stroke-width="2" stroke-linecap="round" stroke-linejoin="round" stroke-miterlimit="10" x1="26" y1="28" x2="26" y2="30"/>
	
		<line fill="none" stroke="#000000" stroke-width="2" stroke-linecap="round" stroke-linejoin="round" stroke-miterlimit="10" x1="24" y1="37" x2="24" y2="44"/>
	
		<polygon fill="none" stroke="#000000" stroke-width="2" stroke-linecap="round" stroke-linejoin="round" stroke-miterlimit="10" points="
		29,47 19,47 19,46 24,44 29,46 	"/>
	<path fill="none" stroke="#000000" stroke-width="2" stroke-linecap="round" stroke-linejoin="round" stroke-miterlimit="10" d="
		M6,23v7.5901718C6,32.4733696,7.5266318,34,9.4098282,34H11"/>
	<path fill="none" stroke="#000000" stroke-width="2" stroke-linecap="round" stroke-linejoin="round" stroke-miterlimit="10" d="
		M8,23H4v-1.0000019C4,20.8954296,4.8954296,20,5.9999981,20h0.0000038C7.1045704,20,8,20.8954296,8,21.9999981V23z"/>
	<path fill="none" stroke="#000000" stroke-width="2" stroke-linecap="round" stroke-linejoin="round" stroke-miterlimit="10" d="
		M42,23v7.5901718C42,32.4733696,40.4733696,34,38.5901718,34H37"/>
	<path fill="none" stroke="#000000" stroke-width="2" stroke-linecap="round" stroke-linejoin="round" stroke-miterlimit="10" d="
		M40,23h4v-1.0000019C44,20.8954296,43.1045723,20,42.0000038,20h-0.0000076C40.8954277,20,40,20.8954296,40,21.9999981V23z"/>
</g>
<g id="Layer_2">
</g>
<g id="Layer_3">
</g>
</svg>
