<?xml version="1.0" encoding="utf-8"?>
<!-- Generator: Adobe Illustrator 18.0.0, SVG Export Plug-In . SVG Version: 6.00 Build 0)  -->
<!DOCTYPE svg PUBLIC "-//W3C//DTD SVG 1.1//EN" "http://www.w3.org/Graphics/SVG/1.1/DTD/svg11.dtd">
<svg version="1.1" xmlns="http://www.w3.org/2000/svg" xmlns:xlink="http://www.w3.org/1999/xlink" x="0px" y="0px"
	 viewBox="0 0 48 48" enable-background="new 0 0 48 48" xml:space="preserve">
<g id="Layer_1">
	<g>
		<path fill="none" stroke="#000000" stroke-width="2" stroke-linecap="round" stroke-linejoin="round" stroke-miterlimit="10" d="
			M9.3933983,30.1213207l8.485281,8.485281l7.9196873,0.4658623c2.6086082,0.15345,5.1583233-0.8159523,7.0060768-2.6637039
			L42.9419556,26.271246c0.99786-0.9978561,0.99786-2.6157036,0-3.6135597L25.3423138,5.0580425
			c-0.9978561-0.9978571-2.6157036-0.9978571-3.6135597,0L11.5912409,15.1955557
			c-1.8477535,1.8477545-2.8171539,4.3974695-2.6637068,7.0060778L9.3933983,30.1213207z"/>
		
			<polyline fill="none" stroke="#000000" stroke-width="2" stroke-linecap="round" stroke-linejoin="round" stroke-miterlimit="10" points="
			17.8786793,38.6066017 14.3431454,42.1421356 5.8578644,33.6568527 9.3933983,30.1213207 		"/>
		
			<line fill="none" stroke="#000000" stroke-width="2" stroke-linecap="round" stroke-linejoin="round" stroke-miterlimit="10" x1="12.2218256" y1="40.0208168" x2="15.7573595" y2="36.4852829"/>
		
			<line fill="none" stroke="#000000" stroke-width="2" stroke-linecap="round" stroke-linejoin="round" stroke-miterlimit="10" x1="10.1005049" y1="37.8994942" x2="13.6360388" y2="34.3639603"/>
		
			<line fill="none" stroke="#000000" stroke-width="2" stroke-linecap="round" stroke-linejoin="round" stroke-miterlimit="10" x1="7.9791846" y1="35.7781754" x2="11.514719" y2="32.2426414"/>
		
			<polyline fill="none" stroke="#000000" stroke-width="2" stroke-linecap="round" stroke-linejoin="round" stroke-miterlimit="10" points="
			11.514719,40.7279205 6.564971,42.8492432 5.1507578,41.4350281 7.272078,36.4852829 		"/>
		
			<rect x="20.0104065" y="18.4895935" transform="matrix(-0.7071068 -0.7071068 0.7071068 -0.7071068 28.85355 55.9307175)" fill="none" stroke="#000000" stroke-width="2" stroke-linecap="round" stroke-linejoin="round" stroke-miterlimit="10" width="12" height="7"/>
	</g>
</g>
<g id="Layer_2">
</g>
<g id="Layer_3">
</g>
</svg>
