<?xml version="1.0" encoding="utf-8"?>
<!-- Generator: Adobe Illustrator 18.0.0, SVG Export Plug-In . SVG Version: 6.00 Build 0)  -->
<!DOCTYPE svg PUBLIC "-//W3C//DTD SVG 1.1//EN" "http://www.w3.org/Graphics/SVG/1.1/DTD/svg11.dtd">
<svg version="1.1" xmlns="http://www.w3.org/2000/svg" xmlns:xlink="http://www.w3.org/1999/xlink" x="0px" y="0px"
	 viewBox="0 0 48 48" enable-background="new 0 0 48 48" xml:space="preserve">
<g id="Layer_1">
	<g>
		
			<circle fill="none" stroke="#000000" stroke-width="2" stroke-linecap="round" stroke-linejoin="round" stroke-miterlimit="10" cx="24" cy="10" r="8"/>
		<path fill="none" stroke="#000000" stroke-width="2" stroke-linecap="round" stroke-linejoin="round" stroke-miterlimit="10" d="
			M37,46H11c-1.1045694,0-2-0.8954315-2-2V32.1331291C9,24.8799019,14.8799019,19,22.1331272,19h3.7337456
			C33.1200981,19,39,24.8799019,39,32.1331291V44C39,45.1045685,38.1045685,46,37,46z"/>
		
			<polygon fill="none" stroke="#000000" stroke-width="2" stroke-linecap="round" stroke-linejoin="round" stroke-miterlimit="10" points="
			28.2426147,24.2426147 24,20 19.7573853,24.2426147 22.9705811,27.4558105 21,30.2426147 24,44 27,30.2426147 
			25.0294189,27.4558105 		"/>
		
			<line fill="none" stroke="#000000" stroke-width="2" stroke-linecap="round" stroke-linejoin="round" stroke-miterlimit="10" x1="31" y1="34" x2="34" y2="34"/>
	</g>
	<path fill="none" stroke="#000000" stroke-width="2" stroke-linecap="round" stroke-linejoin="round" stroke-miterlimit="10" d="
		M40,44.5333328h4c1.1045685,0,2-0.8954315,2-2V32.4664612c0-7.2532253-5.8799019-13.1331272-13.1331291-13.1331272L32,18.3999996
		c4.1237259,0,7.4666672-3.3429403,7.4666672-7.4666662S36.1237259,3.4666667,32,3.4666667c0,0-1.395834,0.0541666-2,0.5333333"/>
	<path fill="none" stroke="#000000" stroke-width="2" stroke-linecap="round" stroke-linejoin="round" stroke-miterlimit="10" d="
		M8,44.5333328H4c-1.1045694,0-2-0.8954315-2-2V32.4664612C2,25.2132359,7.8799019,19.333334,15.1331282,19.333334L16,18.3999996
		c-4.1237259,0-7.4666662-3.3429403-7.4666662-7.4666662S11.8762741,3.4666667,16,3.4666667c0,0,1.3124828,0.0541666,2,0.5333333"/>
</g>
<g id="Layer_2">
</g>
<g id="Layer_3">
</g>
</svg>
