<?xml version="1.0" encoding="utf-8"?>
<!-- Generator: Adobe Illustrator 18.0.0, SVG Export Plug-In . SVG Version: 6.00 Build 0)  -->
<!DOCTYPE svg PUBLIC "-//W3C//DTD SVG 1.1//EN" "http://www.w3.org/Graphics/SVG/1.1/DTD/svg11.dtd">
<svg version="1.1" xmlns="http://www.w3.org/2000/svg" xmlns:xlink="http://www.w3.org/1999/xlink" x="0px" y="0px"
	 viewBox="0 0 48 48" enable-background="new 0 0 48 48" xml:space="preserve">
<g id="Layer_1">
	
		<ellipse transform="matrix(0.9686527 0.2484189 -0.2484189 0.9686527 3.6762624 -7.9318523)" fill="none" stroke="#000000" stroke-width="2" stroke-linecap="round" stroke-linejoin="round" stroke-miterlimit="10" cx="33.2670288" cy="10.600769" rx="5.3125" ry="8.5"/>
	<path fill="none" stroke="#000000" stroke-width="2" stroke-linecap="round" stroke-linejoin="round" stroke-miterlimit="10" d="
		M29.9421101,6.4574165c1.7052231,0.4373188,2.7330647,2.1741924,2.2957439,3.8794165
		c-0.4373169,1.7052231-2.1741905,2.7330637-3.8794136,2.2957449"/>
	<path fill="none" stroke="#000000" stroke-width="2" stroke-linecap="round" stroke-linejoin="round" stroke-miterlimit="10" d="
		M27.5992222,15.3413877l-4.8106327-3.653801c-0.8154793-0.619379-1.1803417-1.6671638-0.9259529-2.6590948l0.6523323-2.5436192
		c0.2536621-0.9890971,1.0738945-1.7308431,2.083437-1.8840771l5.9213009-0.898767"/>
	<path fill="none" stroke="#000000" stroke-width="2" stroke-linecap="round" stroke-linejoin="round" stroke-miterlimit="10" d="
		M21.6927776,9.6971846l-2.665329-0.6835451c-1.0699425-0.274395-1.7148609-1.3641973-1.4404659-2.4341407l0.0000019-0.0000038
		c0.274395-1.069943,1.3641968-1.7148619,2.4341412-1.4404659l2.6653271,0.6835451"/>
	<path fill="none" stroke="#000000" stroke-width="2" stroke-linecap="round" stroke-linejoin="round" stroke-miterlimit="10" d="
		M8,39c0-28.6645966,13-29,13-29s0.4407349,2.0046167,0,4c-0.9068317,4.1055908-13.4906826,8.7267075-14,13
		s8.8198757,6.3726692,9,12"/>
	<path fill="none" stroke="#000000" stroke-width="2" stroke-linecap="round" stroke-linejoin="round" stroke-miterlimit="10" d="
		M26,46H3v-6h17.3433857C23.4674473,40,26,42.5325508,26,45.6566124V46z"/>
</g>
<g id="Layer_2">
</g>
<g id="Layer_3">
</g>
</svg>
