<?xml version="1.0" encoding="utf-8"?>
<!-- Generator: Adobe Illustrator 18.0.0, SVG Export Plug-In . SVG Version: 6.00 Build 0)  -->
<!DOCTYPE svg PUBLIC "-//W3C//DTD SVG 1.1//EN" "http://www.w3.org/Graphics/SVG/1.1/DTD/svg11.dtd">
<svg version="1.1" xmlns="http://www.w3.org/2000/svg" xmlns:xlink="http://www.w3.org/1999/xlink" x="0px" y="0px"
	 viewBox="0 0 48 48" enable-background="new 0 0 48 48" xml:space="preserve">
<g id="Layer_1">
	<g>
		<g>
			<g>
				
					<path fill="none" stroke="#000000" stroke-width="2" stroke-linecap="round" stroke-linejoin="round" stroke-miterlimit="10" d="
					M40.617012,6.8829937L40.6170082,6.882988c-1.5620956-1.5620956-4.0947533-1.5620956-5.6568489,0L8.2114182,33.6317291
					l5.6568537,5.6568527L40.617012,12.5398417C42.1791077,10.977746,42.1791077,8.4450893,40.617012,6.8829937z"/>
				
					<polyline fill="none" stroke="#000000" stroke-width="2" stroke-linecap="round" stroke-linejoin="round" stroke-miterlimit="10" points="
					8.9185247,34.1338844 4.6758838,41 8.9185247,41 13.1611652,38.2740479 				"/>
				
					<line fill="none" stroke="#000000" stroke-width="2" stroke-linecap="round" stroke-linejoin="round" stroke-miterlimit="10" x1="27.1819801" y1="14.6611652" x2="32.8388367" y2="20.3180199"/>
			</g>
			
				<line fill="none" stroke="#000000" stroke-width="2" stroke-linecap="round" stroke-linejoin="round" stroke-miterlimit="10" x1="1" y1="41" x2="5" y2="41"/>
		</g>
		<path fill="none" stroke="#000000" stroke-width="2" stroke-linecap="round" stroke-linejoin="round" stroke-miterlimit="10" d="
			M34,7l-0.0000038-0.0000019c-1.1045685-1.1045685-2.8954258-1.1045685-3.9999943,0L20,17"/>
	</g>
	<path fill="none" stroke="#000000" stroke-width="2" stroke-linecap="round" stroke-linejoin="round" stroke-miterlimit="10" d="
		M39,36v-3h-9v3l-4,2v7c0,1.1045685,0.8954296,2,2,2h13c1.1045685,0,2-0.8954315,2-2v-7L39,36z"/>
	
		<polyline fill="none" stroke="#000000" stroke-width="2" stroke-linecap="round" stroke-linejoin="round" stroke-miterlimit="10" points="
		31,32 31,30 38,30 38,32 	"/>
</g>
<g id="Layer_2">
</g>
<g id="Layer_3">
</g>
</svg>
