<?xml version="1.0" encoding="utf-8"?>
<!-- Generator: Adobe Illustrator 18.0.0, SVG Export Plug-In . SVG Version: 6.00 Build 0)  -->
<!DOCTYPE svg PUBLIC "-//W3C//DTD SVG 1.1//EN" "http://www.w3.org/Graphics/SVG/1.1/DTD/svg11.dtd">
<svg version="1.1" xmlns="http://www.w3.org/2000/svg" xmlns:xlink="http://www.w3.org/1999/xlink" x="0px" y="0px"
	 viewBox="0 0 48 48" enable-background="new 0 0 48 48" xml:space="preserve">
<g id="Layer_1">
	<path fill="none" stroke="#000000" stroke-width="2" stroke-linecap="round" stroke-linejoin="round" stroke-miterlimit="10" d="
		M41,42c0-1.1046143,0.8954468-2,2-2v-2c-1.1045532,0-2-0.8954468-2-2c0-1.1046143,0.8954468-2,2-2v-2c-1.1045532,0-2-0.8954468-2-2
		c0-1.1046143,0.8954468-2,2-2v-2c-1.1045532,0-2-0.8954468-2-2c0-1.1046143,0.8954468-2,2-2v-2c-1.1045532,0-2-0.8954468-2-2
		c0-1.1046143,0.8954468-2,2-2v-2c-1.1045532,0-2-0.8954468-2-2c0-1.1046143,0.8954468-2,2-2V8c-1.1045532,0-2-0.8954468-2-2
		c0-1.1046143,0.8954468-2,2-2V2h-2c0,1.1045532-0.8954468,2-2,2s-2-0.8954468-2-2h-2c0,1.1045532-0.8954468,2-2,2s-2-0.8954468-2-2
		h-2c0,1.1045532-0.8954468,2-2,2s-2-0.8954468-2-2h-2c0,1.1045532-0.8954468,2-2,2s-2-0.8954468-2-2h-2
		c0,1.1045532-0.8954468,2-2,2s-2-0.8954468-2-2h-2c0,1.1045532-0.8954468,2-2,2S7,3.1045532,7,2H5v2c1.1045532,0,2,0.8953857,2,2
		c0,1.1045532-0.8954468,2-2,2v2c1.1045532,0,2,0.8953857,2,2c0,1.1045532-0.8954468,2-2,2v2c1.1045532,0,2,0.8953857,2,2
		c0,1.1045532-0.8954468,2-2,2v2c1.1045532,0,2,0.8953857,2,2c0,1.1045532-0.8954468,2-2,2v2c1.1045532,0,2,0.8953857,2,2
		c0,1.1045532-0.8954468,2-2,2v2c1.1045532,0,2,0.8953857,2,2c0,1.1045532-0.8954468,2-2,2v2c1.1045532,0,2,0.8953857,2,2
		c0,1.1045532-0.8954468,2-2,2v2h2c0-1.1046143,0.8954468-2,2-2s2,0.8953857,2,2h2c0-1.1046143,0.8954468-2,2-2s2,0.8953857,2,2h2
		c0-1.1046143,0.8954468-2,2-2s2,0.8953857,2,2h2c0-1.1046143,0.8954468-2,2-2s2,0.8953857,2,2h2c0-1.1046143,0.8954468-2,2-2
		s2,0.8953857,2,2h2c0-1.1046143,0.8954468-2,2-2s2,0.8953857,2,2h2v-2C41.8954468,44,41,43.1045532,41,42z"/>
	
		<rect x="11" y="8" fill="none" stroke="#000000" stroke-width="2" stroke-linecap="round" stroke-linejoin="round" stroke-miterlimit="10" width="26" height="31"/>
</g>
<g id="Layer_2">
</g>
<g id="Layer_3">
</g>
</svg>
