<?xml version="1.0" encoding="utf-8"?>
<!-- Generator: Adobe Illustrator 18.0.0, SVG Export Plug-In . SVG Version: 6.00 Build 0)  -->
<!DOCTYPE svg PUBLIC "-//W3C//DTD SVG 1.1//EN" "http://www.w3.org/Graphics/SVG/1.1/DTD/svg11.dtd">
<svg version="1.1" xmlns="http://www.w3.org/2000/svg" xmlns:xlink="http://www.w3.org/1999/xlink" x="0px" y="0px"
	 viewBox="0 0 48 48" enable-background="new 0 0 48 48" xml:space="preserve">
<g id="Layer_1">
	<g>
		<path fill="none" stroke="#000000" stroke-width="2" stroke-linecap="round" stroke-linejoin="round" stroke-miterlimit="10" d="
			M10,25v6.9472046C10,37.0735474,12.7539063,41.5454712,16.854187,44H15v3h18v-3h-1.7485962
			C35.3516846,41.5454712,38,37.0735474,38,31.9472046V25H10z"/>
		<path fill="none" stroke="#000000" stroke-width="2" stroke-linecap="round" stroke-linejoin="round" stroke-miterlimit="10" d="
			M24,25c0,0-0.7515526-15.3788824,15-23c0,0-1.1987572,16.913044-14,18c0,0,10.47826-11.3664598,14-18"/>
		<path fill="none" stroke="#000000" stroke-width="2" stroke-linecap="round" stroke-linejoin="round" stroke-miterlimit="10" d="
			M24,19c0,0-1.6459637-13.7763977-17-16C7,3,10.8881989,17.2236023,24,19z"/>
		<path fill="none" stroke="#000000" stroke-width="2" stroke-linecap="round" stroke-linejoin="round" stroke-miterlimit="10" d="
			M7,3c0,0,8.173913,6.8322983,17,16"/>
	</g>
	<path fill="none" stroke="#000000" stroke-width="2" stroke-linecap="round" stroke-linejoin="round" stroke-miterlimit="10" d="
		M14,28c0,0-2.375,6.4166679,3,11"/>
</g>
<g id="Layer_2">
</g>
<g id="Layer_3">
</g>
</svg>
