<?xml version="1.0" encoding="utf-8"?>
<!-- Generator: Adobe Illustrator 18.0.0, SVG Export Plug-In . SVG Version: 6.00 Build 0)  -->
<!DOCTYPE svg PUBLIC "-//W3C//DTD SVG 1.1//EN" "http://www.w3.org/Graphics/SVG/1.1/DTD/svg11.dtd">
<svg version="1.1" xmlns="http://www.w3.org/2000/svg" xmlns:xlink="http://www.w3.org/1999/xlink" x="0px" y="0px"
	 viewBox="0 0 48 48" enable-background="new 0 0 48 48" xml:space="preserve">
<g id="Layer_1">
</g>
<g id="bracket">
</g>
<g id="periscope">
</g>
<g id="vine">
</g>
<g id="clear">
</g>
<g id="flipbook">
</g>
<g id="pocket">
</g>
<g id="crome">
</g>
<g id="google_app">
</g>
<g id="application">
</g>
<g id="googlepluse">
</g>
<g id="amazon">
</g>
<g id="drive">
</g>
<g id="pininterest">
</g>
<g id="soundcloude">
</g>
<g id="instagram">
</g>
<g id="flikr">
</g>
<g id="wists">
</g>
<g id="technorati">
</g>
<g id="yelp">
</g>
<g id="youtube">
</g>
<g id="xing6">
</g>
<g id="wiki">
</g>
<g id="whatsapp">
</g>
<g id="virb">
</g>
<g id="vimeo">
</g>
<g id="twitter_1_">
</g>
<g id="twitter">
</g>
<g id="yahoo">
</g>
<g id="bing_1_">
</g>
<g id="samsung">
</g>
<g id="smile">
</g>
<g id="slideshare">
</g>
<g id="skype">
</g>
<g id="simplenote">
</g>
<g id="shark">
</g>
<g id="share">
</g>
<g id="retweet">
</g>
<g id="tumnlr">
</g>
<g id="reddit">
</g>
<g id="quora">
</g>
<g id="qik">
</g>
<g id="podcast">
</g>
<g id="plurk">
</g>
<g id="playstation">
</g>
<g id="pinchat">
</g>
<g id="pin">
</g>
<g id="rss">
</g>
<g id="picasa">
</g>
<g id="path">
	<path id="Path" fill="none" stroke="#000000" stroke-width="2" stroke-linejoin="round" stroke-miterlimit="10" d="
		M13.4231949,4.8497677c-5.402566,2.1396537-9.0733433,6.2626286-10.0986032,11.8168602
		C2.6950619,20.07934,2.9344604,23.799118,4.439918,26.9845638c0.3355312,0.7083969,0.7382622,1.390192,1.2170591,2.0206566
		c0.2319317,0.3075314,0.4811301,0.6015301,0.7508621,0.8805943c0.4797301-0.1707993,0.9431272-0.3840656,1.3845911-0.6341972
		c1.826056-1.030859,3.17378-2.6193829,4.7375703-3.9540405c-5.2275677-6.0568314,0.312664-13.561718,7.2430878-15.2351742
		c6.4516277-1.5553913,15.1959705,1.1293259,17.1526966,7.7676182c0.8096619,2.7495842,0.2795296,5.7884979-1.9623222,7.7792854
		c-1.1727257,1.0415936-2.6604538,1.7308559-4.2340393,2.011322c-0.9188614,0.1628647-1.86199,0.1885319-2.7906494,0.0970669
		c-0.5175304-0.0517998-1.4210567-0.1395321-1.9273872-0.2585335C25.1527252,27.2566319,24,27.2869644,24,26.3611031
		c0-2.4187183,0-4.8383713,0-7.2584896c0-1.2086582,0-2.4187183,0-3.6287775c0-0.7419958-0.9292622-0.785862-1.41646-0.8241291
		c-1.7117214-0.1339321-3.8554993-0.2258644-5.55369,0.0667334C16.394722,14.8256388,16,14.7239065,16,15.4127026
		c0,0.557663,0,1.1157932,0,1.6720562c0,1.3561249,0,2.7127171,0,4.06884c0,4.0539093,0.7569866,8.1554165,0.5894527,12.2018585
		c-0.0485325,1.2058601,0.1437626,4.1001091-1.2058306,4.6974411c-1.5642567,0.691597-2.8340349-0.7709312-4.2774258-1.0761261
		c0.1978655,2.0318489-1.016387,6.0568237,1.3519325,7.0820885c2.1713867,0.9407921,4.6981401,1.2907906,6.9875917,0.5142632
		c4.7959042-1.6267891,6.3612118-6.9644928,5.7536163-11.3501968c7.4036217,2.2119865,15.402298-1.4886589,18.568615-8.1745472
		c2.2544518-4.7604389,1.3059883-10.6740007-2.0880585-14.7218437C35.3225327,2.7427807,22.4204731,1.2881899,13.4231949,4.8497677z
		"/>
</g>
<g id="pandora">
</g>
<g id="orkut">
</g>
<g id="newsvine">
</g>
<g id="myspace_1_">
</g>
<g id="myspace">
</g>
<g id="msn">
</g>
<g id="photobucket">
</g>
<g id="forest">
</g>
<g id="githhub">
</g>
<g id="google_1_">
</g>
<g id="google">
</g>
<g id="hype">
</g>
<g id="instapaper">
</g>
<g id="itunes">
</g>
<g id="kik">
</g>
<g id="lastfm">
</g>
<g id="linkedin-1">
</g>
<g id="linkedin">
</g>
<g id="map">
</g>
<g id="facebook_1_">
</g>
<g id="evernote">
</g>
<g id="etsy">
</g>
<g id="diigo">
</g>
<g id="dribbble">
</g>
<g id="drupal">
</g>
<g id="dropbox">
</g>
<g id="facebook">
</g>
<g id="digg6">
</g>
<g id="devianart">
</g>
<g id="designbump">
</g>
<g id="delicious5">
</g>
<g id="dailybooth">
</g>
<g id="creative9">
</g>
<g id="coroflot">
</g>
<g id="brightkite">
</g>
<g id="bnter">
</g>
<g id="blip">
</g>
<g id="blogger">
</g>
<g id="black">
</g>
<g id="bing">
</g>
<g id="behance">
</g>
<g id="bebo">
</g>
<g id="basecamp">
</g>
<g id="baidu">
</g>
<g id="aws">
</g>
<g id="arto">
</g>
<g id="apple">
</g>
<g id="paypal">
</g>
<g id="radio">
</g>
<g id="speech">
</g>
<g id="windows">
</g>
</svg>
