<?xml version="1.0" encoding="utf-8"?>
<!-- Generator: Adobe Illustrator 18.0.0, SVG Export Plug-In . SVG Version: 6.00 Build 0)  -->
<!DOCTYPE svg PUBLIC "-//W3C//DTD SVG 1.1//EN" "http://www.w3.org/Graphics/SVG/1.1/DTD/svg11.dtd">
<svg version="1.1" xmlns="http://www.w3.org/2000/svg" xmlns:xlink="http://www.w3.org/1999/xlink" x="0px" y="0px"
	 viewBox="0 0 48 48" enable-background="new 0 0 48 48" xml:space="preserve">
<g id="Layer_1">
</g>
<g id="bracket">
</g>
<g id="periscope">
</g>
<g id="vine">
</g>
<g id="clear">
</g>
<g id="flipbook">
</g>
<g id="pocket">
</g>
<g id="crome">
</g>
<g id="google_app">
</g>
<g id="application">
</g>
<g id="googlepluse">
</g>
<g id="amazon">
</g>
<g id="drive">
</g>
<g id="pininterest">
</g>
<g id="soundcloude">
</g>
<g id="instagram">
</g>
<g id="flikr">
</g>
<g id="wists">
</g>
<g id="technorati">
</g>
<g id="yelp">
</g>
<g id="youtube">
</g>
<g id="xing6">
</g>
<g id="wiki">
</g>
<g id="whatsapp">
</g>
<g id="virb">
</g>
<g id="vimeo">
</g>
<g id="twitter_1_">
</g>
<g id="twitter">
</g>
<g id="yahoo">
</g>
<g id="bing_1_">
</g>
<g id="samsung">
</g>
<g id="smile">
</g>
<g id="slideshare">
</g>
<g id="skype">
</g>
<g id="simplenote">
</g>
<g id="shark">
</g>
<g id="share">
</g>
<g id="retweet">
</g>
<g id="tumnlr">
</g>
<g id="reddit">
</g>
<g id="quora">
</g>
<g id="qik">
</g>
<g id="podcast">
</g>
<g id="plurk">
</g>
<g id="playstation">
</g>
<g id="pinchat">
</g>
<g id="pin">
</g>
<g id="rss">
</g>
<g id="picasa">
</g>
<g id="path">
</g>
<g id="pandora">
</g>
<g id="orkut">
</g>
<g id="newsvine">
</g>
<g id="myspace_1_">
</g>
<g id="myspace">
</g>
<g id="msn">
</g>
<g id="photobucket">
</g>
<g id="forest">
</g>
<g id="githhub">
</g>
<g id="google_1_">
</g>
<g id="google">
</g>
<g id="hype">
</g>
<g id="instapaper">
</g>
<g id="itunes">
</g>
<g id="kik">
</g>
<g id="lastfm">
</g>
<g id="linkedin-1">
</g>
<g id="linkedin">
</g>
<g id="map">
</g>
<g id="facebook_1_">
</g>
<g id="evernote">
</g>
<g id="etsy">
</g>
<g id="diigo">
</g>
<g id="dribbble">
</g>
<g id="drupal">
</g>
<g id="dropbox">
</g>
<g id="facebook">
</g>
<g id="digg6">
</g>
<g id="devianart">
</g>
<g id="designbump">
</g>
<g id="delicious5">
</g>
<g id="dailybooth">
</g>
<g id="creative9">
</g>
<g id="coroflot">
</g>
<g id="brightkite">
</g>
<g id="bnter">
</g>
<g id="blip">
</g>
<g id="blogger">
</g>
<g id="black">
</g>
<g id="bing">
</g>
<g id="behance">
</g>
<g id="bebo">
</g>
<g id="basecamp">
	
		<path id="Basecamp" fill="none" stroke="#000000" stroke-width="2" stroke-linecap="round" stroke-linejoin="round" stroke-miterlimit="10" d="
		M1.9864236,33.9469376c0.3122829,0.4607773,0.649726,0.9037971,1.0093693,1.3285599
		c0.7187934,0.8470612,1.5288544,1.6146965,2.4050226,2.2959938c1.8648176,1.4479446,4.0157704,2.4869156,6.2505918,3.2180443
		c2.5850906,0.8475571,5.2890759,1.2994537,7.9935532,1.5244141c3.1371365,0.2609749,6.3166981,0.2575226,9.446928-0.0715332
		c2.8998394-0.304882,5.7888298-0.9077415,8.5056381-1.9871635c2.4050217-0.9560928,4.6171494-2.3211555,6.551033-4.047348
		c0.499752-0.4479485,0.9837189-0.9259949,1.3823357-1.4696541c0.3364563-0.4592972,0.6063118-0.9669418,0.6546593-1.5431595
		c0.0552559-0.6753807-0.0557442-1.3626003-0.1889496-2.0216999c-0.1480026-0.7306328-0.3423767-1.4499187-0.5263901-2.1716728
		c-0.0680809-0.2629509-0.1332016-0.5258999-0.1924019-0.790329c-0.7094231-3.1272697-1.7927933-6.1726437-3.2639236-9.0211773
		c-1.246666-2.4134083-2.7853889-4.6921368-4.57127-6.7375154c-1.6679726-1.910697-3.6087646-3.5816336-5.8371735-4.7991905
		c-1.1835155-0.6462727-2.4351158-1.1618109-3.7242069-1.5485878c-0.6965923-0.2096686-1.4050274-0.3818436-2.1188869-0.5209646
		c-0.1830292-0.0360136-0.3680305-0.0823874-0.5545139-0.0823874c-0.235815,0-0.4716301,0-0.7079391,0
		c-0.4538708,0-0.9077415,0-1.3616123,0c-0.207201,0-0.416378-0.0098672-0.6225929,0.0152936
		c-0.1899338,0.0226932-0.3798714,0.0498271-0.5698051,0.0809073c-0.361618,0.0592003-0.7212601,0.1312275-1.0784359,0.2165751
		c-0.7079411,0.1702018-1.4040413,0.3922038-2.0818882,0.6586061c-1.3551998,0.532805-2.6393566,1.2417316-3.837182,2.0680728
		c-2.340888,1.6142006-4.3739347,3.6689539-6.0853224,5.9363356c-1.814497,2.4050226-3.2639241,5.0784197-4.383801,7.8736734
		c-1.1904242,2.9728546-2.0123253,6.0877895-2.5204635,9.2495899c-0.0646261,0.4065094-0.1588537,0.8278236-0.1588537,1.2387733
		c0,0.2210121,0,0.4420319,0,0.6615677c0,0.1060638-0.0024667,0.1628036,0.0557472,0.250618
		C1.8991029,33.8166962,1.94153,33.881321,1.9864236,33.9469376z M6.4072824,31.5872421
		c0.0345058-0.1925087,0.074914-0.3836536,0.1194091-0.5738907c0.0849028-0.3568649,0.1870584-0.7096424,0.306468-1.0578823
		c0.4576588-1.3380146,1.1491408-2.5793247,1.8910198-3.7775002c0.3691235-0.5943203,0.7464199-1.1827393,1.1218996-1.7725182
		c0.3831987-0.6024933,0.7741156-1.201355,1.2140675-1.7638931c0.7137299-0.9135017,1.5918169-1.8982849,2.7300615-2.2660465
		c1.599535-0.5162277,2.7958956,1.1486874,3.7212,2.1766033c0.5266705,0.5834236,1.09375,1.1977215,1.8188305,1.5305214
		c0.3341637,0.1534615,0.6982918,0.2324619,1.0660534,0.2097607c0.5362053-0.0340519,1.0115719-0.4022675,1.4102058-0.7332535
		c1.0923882-0.9062347,1.9836426-2.0512905,2.8344879-3.1795464c0.9312077-1.2349529,1.8306351-2.4957829,2.8957806-3.6208591
		c0.4367733-0.4608364,0.9021492-1.0724115,1.5277996-1.2762699c0.2855835-0.0930748,0.597044-0.0644712,0.8690071,0.0608406
		c0.1489201,0.0685568,0.2851276,0.1652651,0.4031754,0.2796793c0.1339397,0.1298513,0.2933006,0.232007,0.4426765,0.3446054
		c1.1427841,0.8649197,2.1997585,1.8419857,3.1986179,2.8694477c0.8690071,0.8935242,1.6939735,1.8288193,2.4839783,2.7940788
		c0.7695732,0.9430122,1.5100899,1.9032803,2.1470871,2.9443626c0.7741165,1.268095,1.4288254,2.6015701,2.1498184,3.8996334
		c0.6578827,1.1841011,1.3230324,2.5534439,0.6660576,3.8887386c-0.0345039,0.0703735-0.0721893,0.141201-0.1125984,0.2083969
		c-1.1659431,1.972744-3.2699013,3.2013435-5.3470726,4.0054207c-2.5016861,0.9675293-5.1949692,1.4283676-7.8610134,1.6149712
		c-2.7554855,0.1934166-5.5445709,0.1843338-8.295517-0.0735512c-2.486248-0.2333717-4.9897509-0.6760445-7.3288956-1.5795631
		c-1.9550381-0.7550468-3.8397017-1.8710442-5.1472979-3.5463982c-0.3051057-0.3909149-0.5757055-0.8086205-0.8058968-1.2485733
		c-0.0272422-0.0522118-0.0544834-0.1057873-0.0817251-0.1598148C6.406374,31.7066498,6.3918452,31.6748695,6.4072824,31.5872421z"
		/>
</g>
<g id="baidu">
</g>
<g id="aws">
</g>
<g id="arto">
</g>
<g id="apple">
</g>
<g id="paypal">
</g>
<g id="radio">
</g>
<g id="speech">
</g>
<g id="windows">
</g>
</svg>
