<?xml version="1.0" encoding="utf-8"?>
<!-- Generator: Adobe Illustrator 18.0.0, SVG Export Plug-In . SVG Version: 6.00 Build 0)  -->
<!DOCTYPE svg PUBLIC "-//W3C//DTD SVG 1.1//EN" "http://www.w3.org/Graphics/SVG/1.1/DTD/svg11.dtd">
<svg version="1.1" xmlns="http://www.w3.org/2000/svg" xmlns:xlink="http://www.w3.org/1999/xlink" x="0px" y="0px"
	 viewBox="0 0 48 48" enable-background="new 0 0 48 48" xml:space="preserve">
<g id="Layer_1">
</g>
<g id="bracket">
</g>
<g id="periscope">
</g>
<g id="vine">
</g>
<g id="clear">
</g>
<g id="flipbook">
</g>
<g id="pocket">
</g>
<g id="crome">
</g>
<g id="google_app">
</g>
<g id="application">
</g>
<g id="googlepluse">
</g>
<g id="amazon">
</g>
<g id="drive">
</g>
<g id="pininterest">
</g>
<g id="soundcloude">
</g>
<g id="instagram">
</g>
<g id="flikr">
</g>
<g id="wists">
</g>
<g id="technorati">
</g>
<g id="yelp">
</g>
<g id="youtube">
</g>
<g id="xing6">
</g>
<g id="wiki">
</g>
<g id="whatsapp">
</g>
<g id="virb">
</g>
<g id="vimeo">
</g>
<g id="twitter_1_">
</g>
<g id="twitter">
</g>
<g id="yahoo">
</g>
<g id="bing_1_">
</g>
<g id="samsung">
</g>
<g id="smile">
</g>
<g id="slideshare">
</g>
<g id="skype">
</g>
<g id="simplenote">
</g>
<g id="shark">
</g>
<g id="share">
</g>
<g id="retweet">
</g>
<g id="tumnlr">
</g>
<g id="reddit">
</g>
<g id="quora">
</g>
<g id="qik">
	
		<path id="Qik" fill="none" stroke="#000000" stroke-width="2" stroke-linecap="round" stroke-linejoin="round" stroke-miterlimit="10" d="
		M33.000103,45.9335747c0.070015,0,0.1538429,0,0.2286263,0c1.8837891,0,3.7675743,0,5.6523094,0
		c0.7863808-5.014061,1.4560661-9.4903793,2.1676674-13.9604969c0.7258873-4.596344,1.9447517-9.109333,2.325798-13.8595219
		c0.7401772-9.4441748-4.9121323-14.3748846-13.761404-14.9616928c-9.6713734-0.6553957-16.2362843,2.5125084-20.5482712,6.8578396
		c-3.2893624,3.2979355-5.5132303,7.350338-5.8013949,12.718771c-0.4463017,8.584444,6.0390668,15.1665039,17.2274704,14.2362785
		c1.2660179-0.1162186,2.573-0.4701118,3.7594757-1.0050049c1.7580414-0.7720909,2.9497566-2.1348,4.3548565-2.9959564
		C27.5440292,37.9607086,25.6364269,45.8602257,33.000103,45.9335747z M27.0086613,26.850893
		c-1.7589951,1.2560177-5.8013935,1.9728565-8.3977337,0.3819962c-4.5953894-2.8287754-1.7723312-11.7151985,1.5865726-14.2267532
		c0.934988-0.7025509,2.103363-1.2045755,3.7728138-1.3812847c1.3446083-0.1343174,3.6846943,0.1443205,4.7782917,0.8883085
		C32.6847878,15.1737995,30.7305088,24.2035885,27.0086613,26.850893z"/>
</g>
<g id="podcast">
</g>
<g id="plurk">
</g>
<g id="playstation">
</g>
<g id="pinchat">
</g>
<g id="pin">
</g>
<g id="rss">
</g>
<g id="picasa">
</g>
<g id="path">
</g>
<g id="pandora">
</g>
<g id="orkut">
</g>
<g id="newsvine">
</g>
<g id="myspace_1_">
</g>
<g id="myspace">
</g>
<g id="msn">
</g>
<g id="photobucket">
</g>
<g id="forest">
</g>
<g id="githhub">
</g>
<g id="google_1_">
</g>
<g id="google">
</g>
<g id="hype">
</g>
<g id="instapaper">
</g>
<g id="itunes">
</g>
<g id="kik">
</g>
<g id="lastfm">
</g>
<g id="linkedin-1">
</g>
<g id="linkedin">
</g>
<g id="map">
</g>
<g id="facebook_1_">
</g>
<g id="evernote">
</g>
<g id="etsy">
</g>
<g id="diigo">
</g>
<g id="dribbble">
</g>
<g id="drupal">
</g>
<g id="dropbox">
</g>
<g id="facebook">
</g>
<g id="digg6">
</g>
<g id="devianart">
</g>
<g id="designbump">
</g>
<g id="delicious5">
</g>
<g id="dailybooth">
</g>
<g id="creative9">
</g>
<g id="coroflot">
</g>
<g id="brightkite">
</g>
<g id="bnter">
</g>
<g id="blip">
</g>
<g id="blogger">
</g>
<g id="black">
</g>
<g id="bing">
</g>
<g id="behance">
</g>
<g id="bebo">
</g>
<g id="basecamp">
</g>
<g id="baidu">
</g>
<g id="aws">
</g>
<g id="arto">
</g>
<g id="apple">
</g>
<g id="paypal">
</g>
<g id="radio">
</g>
<g id="speech">
</g>
<g id="windows">
</g>
</svg>
