<?xml version="1.0" encoding="utf-8"?>
<!-- Generator: Adobe Illustrator 18.0.0, SVG Export Plug-In . SVG Version: 6.00 Build 0)  -->
<!DOCTYPE svg PUBLIC "-//W3C//DTD SVG 1.1//EN" "http://www.w3.org/Graphics/SVG/1.1/DTD/svg11.dtd">
<svg version="1.1" xmlns="http://www.w3.org/2000/svg" xmlns:xlink="http://www.w3.org/1999/xlink" x="0px" y="0px"
	 viewBox="0 0 48 48" enable-background="new 0 0 48 48" xml:space="preserve">
<g id="Layer_1">
</g>
<g id="bracket">
</g>
<g id="periscope">
</g>
<g id="vine">
</g>
<g id="clear">
</g>
<g id="flipbook">
</g>
<g id="pocket">
</g>
<g id="crome">
</g>
<g id="google_app">
</g>
<g id="application">
</g>
<g id="googlepluse">
</g>
<g id="amazon">
</g>
<g id="drive">
</g>
<g id="pininterest">
</g>
<g id="soundcloude">
</g>
<g id="instagram">
</g>
<g id="flikr">
</g>
<g id="wists">
</g>
<g id="technorati">
</g>
<g id="yelp">
</g>
<g id="youtube">
</g>
<g id="xing6">
</g>
<g id="wiki">
</g>
<g id="whatsapp">
</g>
<g id="virb">
</g>
<g id="vimeo">
</g>
<g id="twitter_1_">
</g>
<g id="twitter">
</g>
<g id="yahoo">
</g>
<g id="bing_1_">
</g>
<g id="samsung">
</g>
<g id="smile">
</g>
<g id="slideshare">
</g>
<g id="skype">
</g>
<g id="simplenote">
</g>
<g id="shark">
</g>
<g id="share">
</g>
<g id="retweet">
</g>
<g id="tumnlr">
</g>
<g id="reddit">
</g>
<g id="quora">
</g>
<g id="qik">
</g>
<g id="podcast">
</g>
<g id="plurk">
</g>
<g id="playstation">
</g>
<g id="pinchat">
</g>
<g id="pin">
</g>
<g id="rss">
</g>
<g id="picasa">
</g>
<g id="path">
</g>
<g id="pandora">
</g>
<g id="orkut">
</g>
<g id="newsvine">
</g>
<g id="myspace_1_">
</g>
<g id="myspace">
</g>
<g id="msn">
</g>
<g id="photobucket">
</g>
<g id="forest">
</g>
<g id="githhub">
</g>
<g id="google_1_">
</g>
<g id="google">
</g>
<g id="hype">
</g>
<g id="instapaper">
</g>
<g id="itunes">
</g>
<g id="kik">
</g>
<g id="lastfm">
	<path id="last.fm" fill="none" stroke="#000000" stroke-width="2" stroke-linejoin="round" stroke-miterlimit="10" d="
		M37.5164986,37.3455009c-4.6870003-0.019001-7.1844997-2.3269997-8.9204998-6.3934994l-0.4944992-1.1100006l-4.2810001-9.8220005
		c-1.4174995-3.4769993-4.9405003-5.8260002-8.9134998-5.8260002c-5.3759995,0-9.7375002,4.3915005-9.7375002,9.8074989
		c0,5.4165001,4.3614998,9.8079987,9.7375002,9.8079987c3.75,0,7.0130005-2.1349983,8.6389999-5.2654991l1.7320004,4.019001
		C22.8209991,35.5794983,19.0855007,37.5,14.9064999,37.5C7.5024996,37.5,1.5,31.4604988,1.5,24.0014992
		C1.5,16.5470009,7.5024996,10.5,14.9064999,10.5c5.5890007,0,10.1005001,3.0044994,12.3924999,8.3290005
		c0.1760006,0.4130001,2.4244995,5.7115002,4.3875008,10.220499c1.2159996,2.7915001,2.2514992,4.6419983,5.6139984,4.7565002
		c3.3030014,0.1139984,5.5699997-1.9099998,5.5699997-4.4689999c0-2.5-1.7285004-3.1009998-4.6469994-4.078001
		c-5.2439995-1.7399998-7.9540005-3.487999-7.9540005-7.6765003c0-4.0854998,2.7605-6.8099995,7.2469997-6.8099995
		c2.9230003,0,5.031498,1.309,6.4925003,3.9189997l-2.8670006,1.4744997c-1.0805016-1.5225-2.2705002-2.1234999-3.7859993-2.1234999
		c-2.1064987,0-3.607502,1.4744997-3.607502,3.4359999c0,2.7840004,2.4715004,3.2045002,5.9324989,4.3474998
		C44.3359985,23.3530006,46.5,25.0965004,46.5,29.4510002C46.5,34.0234985,42.6035004,37.3530006,37.5164986,37.3455009z"/>
</g>
<g id="linkedin-1">
</g>
<g id="linkedin">
</g>
<g id="map">
</g>
<g id="facebook_1_">
</g>
<g id="evernote">
</g>
<g id="etsy">
</g>
<g id="diigo">
</g>
<g id="dribbble">
</g>
<g id="drupal">
</g>
<g id="dropbox">
</g>
<g id="facebook">
</g>
<g id="digg6">
</g>
<g id="devianart">
</g>
<g id="designbump">
</g>
<g id="delicious5">
</g>
<g id="dailybooth">
</g>
<g id="creative9">
</g>
<g id="coroflot">
</g>
<g id="brightkite">
</g>
<g id="bnter">
</g>
<g id="blip">
</g>
<g id="blogger">
</g>
<g id="black">
</g>
<g id="bing">
</g>
<g id="behance">
</g>
<g id="bebo">
</g>
<g id="basecamp">
</g>
<g id="baidu">
</g>
<g id="aws">
</g>
<g id="arto">
</g>
<g id="apple">
</g>
<g id="paypal">
</g>
<g id="radio">
</g>
<g id="speech">
</g>
<g id="windows">
</g>
</svg>
