<?xml version="1.0" encoding="utf-8"?>
<!-- Generator: Adobe Illustrator 18.0.0, SVG Export Plug-In . SVG Version: 6.00 Build 0)  -->
<!DOCTYPE svg PUBLIC "-//W3C//DTD SVG 1.1//EN" "http://www.w3.org/Graphics/SVG/1.1/DTD/svg11.dtd">
<svg version="1.1" xmlns="http://www.w3.org/2000/svg" xmlns:xlink="http://www.w3.org/1999/xlink" x="0px" y="0px"
	 viewBox="0 0 48 48" enable-background="new 0 0 48 48" xml:space="preserve">
<g id="Layer_1">
</g>
<g id="bracket">
</g>
<g id="periscope">
</g>
<g id="vine">
</g>
<g id="clear">
</g>
<g id="flipbook">
</g>
<g id="pocket">
</g>
<g id="crome">
</g>
<g id="google_app">
</g>
<g id="application">
</g>
<g id="googlepluse">
</g>
<g id="amazon">
</g>
<g id="drive">
</g>
<g id="pininterest">
</g>
<g id="soundcloude">
</g>
<g id="instagram">
</g>
<g id="flikr">
</g>
<g id="wists">
</g>
<g id="technorati">
</g>
<g id="yelp">
</g>
<g id="youtube">
</g>
<g id="xing6">
</g>
<g id="wiki">
</g>
<g id="whatsapp">
</g>
<g id="virb">
</g>
<g id="vimeo">
</g>
<g id="twitter_1_">
</g>
<g id="twitter">
</g>
<g id="yahoo">
	
		<path id="Yahoo_x21_" fill="none" stroke="#000000" stroke-width="2" stroke-linecap="round" stroke-linejoin="round" stroke-miterlimit="10" d="
		M37.2383347,17.4272957c-1.0607033,0.2860012-10.7620735,7.8091488-11.4014816,9.6551495
		c-0.1410732,0.6374817,0.0139618,6.821146,0.1550369,7.7479992c0.6394062,0.1420364,5.2544079,0.0182991,6.1008492,0.1598549
		l-0.1011105,1.9114799c-0.8295918-0.064518-6.6940365-0.0491104-10.0398502-0.0491104
		c-1.700592,0-7.166852,0.1877785-8.8457775,0.1386681l0.317297-1.8190346
		c0.9215555-0.0683708,4.7334442,0.1694794,5.5688152-0.7207794c0.4155178-0.4429626,0.2850361-6.318964,0.1439629-7.3127403
		c-0.3529282-1.0626297-8.8549271-11.7154083-11.0764818-13.4607782H2.3333333V11h19.3117409v0.1848888
		c0.0168514,0,0.0491123,0.0028896,0.0654812,0.0062599l-0.0654812,0.4525928v2.0342598h-5.8235197
		c2.5956659,3.7955189,6.3170366,8.3777771,7.9040003,10.5795937l7.7783337-7.0488892H26.880703l-0.6514454-2.6751108h16.9361095
		l-0.1251869,0.1906662c0.0134811,0,0.0414085,0.0028896,0.0597038,0.0028896l-1.2099609,1.7550001
		c-0.0105972,0-0.0293694,0.0028896-0.0385208,0.0057774l-0.4877396,0.7207794h-3.1243324
		C37.8348885,17.2977791,37.4790764,17.3772221,37.2383347,17.4272957z M42.7642975,35.2768517l-1.4950027-0.0736694L39.6014442,35
		l0.0134811,2.85952l1.3158913,0.1131477l1.4179611,0.1049614L42.7642975,35.2768517z M45.6666679,20.5294819
		c-0.5045929-0.0178146-5.0921516-0.4521103-5.6882248-0.5700741l0.0702972,12.0813332l2.5961494,0.2099228L45.6666679,20.5294819z"
		/>
</g>
<g id="bing_1_">
</g>
<g id="samsung">
</g>
<g id="smile">
</g>
<g id="slideshare">
</g>
<g id="skype">
</g>
<g id="simplenote">
</g>
<g id="shark">
</g>
<g id="share">
</g>
<g id="retweet">
</g>
<g id="tumnlr">
</g>
<g id="reddit">
</g>
<g id="quora">
</g>
<g id="qik">
</g>
<g id="podcast">
</g>
<g id="plurk">
</g>
<g id="playstation">
</g>
<g id="pinchat">
</g>
<g id="pin">
</g>
<g id="rss">
</g>
<g id="picasa">
</g>
<g id="path">
</g>
<g id="pandora">
</g>
<g id="orkut">
</g>
<g id="newsvine">
</g>
<g id="myspace_1_">
</g>
<g id="myspace">
</g>
<g id="msn">
</g>
<g id="photobucket">
</g>
<g id="forest">
</g>
<g id="githhub">
</g>
<g id="google_1_">
</g>
<g id="google">
</g>
<g id="hype">
</g>
<g id="instapaper">
</g>
<g id="itunes">
</g>
<g id="kik">
</g>
<g id="lastfm">
</g>
<g id="linkedin-1">
</g>
<g id="linkedin">
</g>
<g id="map">
</g>
<g id="facebook_1_">
</g>
<g id="evernote">
</g>
<g id="etsy">
</g>
<g id="diigo">
</g>
<g id="dribbble">
</g>
<g id="drupal">
</g>
<g id="dropbox">
</g>
<g id="facebook">
</g>
<g id="digg6">
</g>
<g id="devianart">
</g>
<g id="designbump">
</g>
<g id="delicious5">
</g>
<g id="dailybooth">
</g>
<g id="creative9">
</g>
<g id="coroflot">
</g>
<g id="brightkite">
</g>
<g id="bnter">
</g>
<g id="blip">
</g>
<g id="blogger">
</g>
<g id="black">
</g>
<g id="bing">
</g>
<g id="behance">
</g>
<g id="bebo">
</g>
<g id="basecamp">
</g>
<g id="baidu">
</g>
<g id="aws">
</g>
<g id="arto">
</g>
<g id="apple">
</g>
<g id="paypal">
</g>
<g id="radio">
</g>
<g id="speech">
</g>
<g id="windows">
</g>
</svg>
