<?xml version="1.0" encoding="utf-8"?>
<!-- Generator: Adobe Illustrator 18.0.0, SVG Export Plug-In . SVG Version: 6.00 Build 0)  -->
<!DOCTYPE svg PUBLIC "-//W3C//DTD SVG 1.1//EN" "http://www.w3.org/Graphics/SVG/1.1/DTD/svg11.dtd">
<svg version="1.1" xmlns="http://www.w3.org/2000/svg" xmlns:xlink="http://www.w3.org/1999/xlink" x="0px" y="0px"
	 viewBox="0 0 48 48" enable-background="new 0 0 48 48" xml:space="preserve">
<g id="Layer_1">
</g>
<g id="bracket">
</g>
<g id="periscope">
</g>
<g id="vine">
</g>
<g id="clear">
</g>
<g id="flipbook">
</g>
<g id="pocket">
</g>
<g id="crome">
</g>
<g id="google_app">
</g>
<g id="application">
</g>
<g id="googlepluse">
</g>
<g id="amazon">
</g>
<g id="drive">
</g>
<g id="pininterest">
</g>
<g id="soundcloude">
</g>
<g id="instagram">
</g>
<g id="flikr">
</g>
<g id="wists">
</g>
<g id="technorati">
</g>
<g id="yelp">
</g>
<g id="youtube">
</g>
<g id="xing6">
</g>
<g id="wiki">
</g>
<g id="whatsapp">
</g>
<g id="virb">
</g>
<g id="vimeo">
</g>
<g id="twitter_1_">
</g>
<g id="twitter">
</g>
<g id="yahoo">
</g>
<g id="bing_1_">
</g>
<g id="samsung">
</g>
<g id="smile">
</g>
<g id="slideshare">
</g>
<g id="skype">
</g>
<g id="simplenote">
</g>
<g id="shark">
</g>
<g id="share">
</g>
<g id="retweet">
</g>
<g id="tumnlr">
</g>
<g id="reddit">
</g>
<g id="quora">
</g>
<g id="qik">
</g>
<g id="podcast">
</g>
<g id="plurk">
</g>
<g id="playstation">
</g>
<g id="pinchat">
</g>
<g id="pin">
</g>
<g id="rss">
</g>
<g id="picasa">
</g>
<g id="path">
</g>
<g id="pandora">
</g>
<g id="orkut">
</g>
<g id="newsvine">
</g>
<g id="myspace_1_">
</g>
<g id="myspace">
</g>
<g id="msn">
	<path id="MSN_Messenger" fill="none" stroke="#000000" stroke-width="2" stroke-linejoin="round" stroke-miterlimit="10" d="
		M10.7584972,34.3512917c-5.1668577-0.324234-5.6942868-1.7247162-5.6942868-1.7247162v-0.0009689
		c-0.3286099-0.3188896-0.5838175-0.7097206-0.7393723-1.1987495c-0.7529838-0.173542-1.2259686-0.6265945-1.2259686-0.6265945
		s-1.1559685-0.4302044-1.0966632-2.4611721c0.7247894-6.7544918,6.3388686-9.1437187,7.1608787-9.4572601
		c-1.3951335-1.1034698-2.2886033-2.7936726-2.2886033-4.6880417c0-3.3259611,2.7508941-6.0214396,6.1453967-6.0214396
		c3.3930454,0,6.1458817,2.6954775,6.1458817,6.0214396c0,1.8763828-0.8764553,3.5524883-2.2497139,4.6574154
		c1.1491623,0.4054165,2.2783966,1.0115948,3.2880459,1.802494 M23.5451221,20.8671017
		c-1.219162,0.4661789-9.5345516,4.0055447-10.6103115,14.0140514c-0.087986,3.0090179,1.6236057,3.6453362,1.6236057,3.6453362
		s0,0,0,0.0009727c0,0,0.7029142,0.6703415,1.8195076,0.927494c0.229929,0.7243004,0.6066647,1.304718,1.0947189,1.7772141
		v0.0014572c0,0,0.8195801,2.1870079,9.0547619,2.5909653c0.1220131,0.021389,0.2420826,0.0408325,0.3611794,0.0631943
		c0.682497,0,1.3654823,0,2.0479794,0c0.2566662,0,0.5186787,0.0019417,0.7879829,0c0.785553,0,1.5696468,0,2.3537426,0
		c0.2027054-0.0369415,0.408329-0.0709724,0.6154137-0.1045113c8.4621964-0.5629158,9.3532295-3.2068672,9.3532295-3.2068672
		l-0.0014572-0.0024261c0.2245827-0.330555,0.4112511-0.6995125,0.5449295-1.1195107
		c3.8514442-0.7612495,3.547142-5.3447762,2.3940926-8.8656673c-1.6022148-4.8888016-5.6792183-8.2570553-9.9526062-9.7669106
		c2.0348549-1.6357594,3.3332558-4.1197796,3.3332558-6.8998394C38.3651466,8.9943619,34.2881432,5,29.2593403,5
		s-9.1058044,3.9948483-9.1058044,8.9220543C20.1535358,16.7293377,21.4767265,19.2313423,23.5451221,20.8671017z"/>
</g>
<g id="photobucket">
</g>
<g id="forest">
</g>
<g id="githhub">
</g>
<g id="google_1_">
</g>
<g id="google">
</g>
<g id="hype">
</g>
<g id="instapaper">
</g>
<g id="itunes">
</g>
<g id="kik">
</g>
<g id="lastfm">
</g>
<g id="linkedin-1">
</g>
<g id="linkedin">
</g>
<g id="map">
</g>
<g id="facebook_1_">
</g>
<g id="evernote">
</g>
<g id="etsy">
</g>
<g id="diigo">
</g>
<g id="dribbble">
</g>
<g id="drupal">
</g>
<g id="dropbox">
</g>
<g id="facebook">
</g>
<g id="digg6">
</g>
<g id="devianart">
</g>
<g id="designbump">
</g>
<g id="delicious5">
</g>
<g id="dailybooth">
</g>
<g id="creative9">
</g>
<g id="coroflot">
</g>
<g id="brightkite">
</g>
<g id="bnter">
</g>
<g id="blip">
</g>
<g id="blogger">
</g>
<g id="black">
</g>
<g id="bing">
</g>
<g id="behance">
</g>
<g id="bebo">
</g>
<g id="basecamp">
</g>
<g id="baidu">
</g>
<g id="aws">
</g>
<g id="arto">
</g>
<g id="apple">
</g>
<g id="paypal">
</g>
<g id="radio">
</g>
<g id="speech">
</g>
<g id="windows">
</g>
</svg>
