<?xml version="1.0" encoding="utf-8"?>
<!-- Generator: Adobe Illustrator 18.0.0, SVG Export Plug-In . SVG Version: 6.00 Build 0)  -->
<!DOCTYPE svg PUBLIC "-//W3C//DTD SVG 1.1//EN" "http://www.w3.org/Graphics/SVG/1.1/DTD/svg11.dtd">
<svg version="1.1" xmlns="http://www.w3.org/2000/svg" xmlns:xlink="http://www.w3.org/1999/xlink" x="0px" y="0px"
	 viewBox="0 0 48 48" enable-background="new 0 0 48 48" xml:space="preserve">
<g id="Layer_1">
</g>
<g id="bracket">
</g>
<g id="periscope">
</g>
<g id="vine">
</g>
<g id="clear">
</g>
<g id="flipbook">
</g>
<g id="pocket">
</g>
<g id="crome">
</g>
<g id="google_app">
</g>
<g id="application">
</g>
<g id="googlepluse">
</g>
<g id="amazon">
</g>
<g id="drive">
</g>
<g id="pininterest">
</g>
<g id="soundcloude">
</g>
<g id="instagram">
</g>
<g id="flikr">
</g>
<g id="wists">
</g>
<g id="technorati">
</g>
<g id="yelp">
	
		<path id="Yelp" fill="none" stroke="#000000" stroke-width="2" stroke-linecap="round" stroke-linejoin="round" stroke-miterlimit="10" d="
		M13.6158781,4.9127712c2.118207-1.665072,6.1908197-2.1420069,7.8666258-1.8172059
		c1.677206,0.3229344,2.5531425,1.2609372,2.5638752,2.4033408l0.0965996,14.5647135
		c0.0074673,1.1438026-0.586134,2.1952057-1.3206692,2.336607c-0.7382698,0.1386013-1.8246727-0.5413361-2.4220066-1.5143375
		L12.7586088,8.3973827C12.1659393,7.4229789,10.9712696,6.9931779,13.6158781,4.9127712z M11.0786028,32.6081276
		l7.6934919-2.7225437c1.0719376-0.3803329,2.0323391-1.4382706,2.1401386-2.3571396
		c0.1040668-0.9188709-0.6752682-2.0099392-1.7322731-2.4280739l-8.1270256-3.2228107
		c-1.0579376-0.4181347-2.2782745,0.5735359-2.600276,2.1961422c0,0-0.1932001,5.6508846,0,6.8208199
		C8.6481953,32.0635262,10.0066662,32.9898605,11.0786028,32.6081276z M24.498579,33.9684639
		c0.0223999-1.1470718-0.5898685-2.1368752-1.3608036-2.2073421c-0.7714024-0.0713997-1.9959412,0.5866032-2.727211,1.4602032
		l-5.366683,6.4353561c-0.7308025,0.8745346-0.3677349,2.9283409,0.6972017,3.3170776l5.6116829,1.9492722
		c1.0682049,0.3887367,2.9493427-0.7616005,2.9712772-1.9049377L24.498579,33.9684639z M37.8387527,32.470459l-6.729353-1.934803
		c-1.0910702-0.3136024-2.329607-0.2837353-2.7491417,0.0709324c-0.4195328,0.350935-0.3154659,1.4602032,0.2338009,2.4616756
		l4.2471466,7.7723579c0.5492706,1.0010033,2.7454109,0.8292694,3.3502121-0.1418686c0,0,2.5596733-3.7762794,3.0305443-5.1921501
		C39.6928253,34.0879288,38.9288902,32.7835922,37.8387527,32.470459z M39.4776917,21.54109
		c-0.3033333-0.9832687-2.4070702-3.8822117-3.5466766-4.8701496c-1.1382027-0.9902697-2.4402084-0.8661346-3.1747437,0.0032673
		l-4.3367462,5.1660175c-0.7345371,0.8694019-0.9310017,2.2484074-0.4410019,3.0590096
		c0.4895363,0.8106022,1.7957401,1.2702694,2.9040756,1.0210686l7.5012245-1.3906708
		C39.7376289,24.2048321,39.7856979,22.5243607,39.4776917,21.54109z"/>
</g>
<g id="youtube">
</g>
<g id="xing6">
</g>
<g id="wiki">
</g>
<g id="whatsapp">
</g>
<g id="virb">
</g>
<g id="vimeo">
</g>
<g id="twitter_1_">
</g>
<g id="twitter">
</g>
<g id="yahoo">
</g>
<g id="bing_1_">
</g>
<g id="samsung">
</g>
<g id="smile">
</g>
<g id="slideshare">
</g>
<g id="skype">
</g>
<g id="simplenote">
</g>
<g id="shark">
</g>
<g id="share">
</g>
<g id="retweet">
</g>
<g id="tumnlr">
</g>
<g id="reddit">
</g>
<g id="quora">
</g>
<g id="qik">
</g>
<g id="podcast">
</g>
<g id="plurk">
</g>
<g id="playstation">
</g>
<g id="pinchat">
</g>
<g id="pin">
</g>
<g id="rss">
</g>
<g id="picasa">
</g>
<g id="path">
</g>
<g id="pandora">
</g>
<g id="orkut">
</g>
<g id="newsvine">
</g>
<g id="myspace_1_">
</g>
<g id="myspace">
</g>
<g id="msn">
</g>
<g id="photobucket">
</g>
<g id="forest">
</g>
<g id="githhub">
</g>
<g id="google_1_">
</g>
<g id="google">
</g>
<g id="hype">
</g>
<g id="instapaper">
</g>
<g id="itunes">
</g>
<g id="kik">
</g>
<g id="lastfm">
</g>
<g id="linkedin-1">
</g>
<g id="linkedin">
</g>
<g id="map">
</g>
<g id="facebook_1_">
</g>
<g id="evernote">
</g>
<g id="etsy">
</g>
<g id="diigo">
</g>
<g id="dribbble">
</g>
<g id="drupal">
</g>
<g id="dropbox">
</g>
<g id="facebook">
</g>
<g id="digg6">
</g>
<g id="devianart">
</g>
<g id="designbump">
</g>
<g id="delicious5">
</g>
<g id="dailybooth">
</g>
<g id="creative9">
</g>
<g id="coroflot">
</g>
<g id="brightkite">
</g>
<g id="bnter">
</g>
<g id="blip">
</g>
<g id="blogger">
</g>
<g id="black">
</g>
<g id="bing">
</g>
<g id="behance">
</g>
<g id="bebo">
</g>
<g id="basecamp">
</g>
<g id="baidu">
</g>
<g id="aws">
</g>
<g id="arto">
</g>
<g id="apple">
</g>
<g id="paypal">
</g>
<g id="radio">
</g>
<g id="speech">
</g>
<g id="windows">
</g>
</svg>
