<?xml version="1.0" encoding="utf-8"?>
<!-- Generator: Adobe Illustrator 18.0.0, SVG Export Plug-In . SVG Version: 6.00 Build 0)  -->
<!DOCTYPE svg PUBLIC "-//W3C//DTD SVG 1.1//EN" "http://www.w3.org/Graphics/SVG/1.1/DTD/svg11.dtd">
<svg version="1.1" xmlns="http://www.w3.org/2000/svg" xmlns:xlink="http://www.w3.org/1999/xlink" x="0px" y="0px"
	 viewBox="0 0 48 48" enable-background="new 0 0 48 48" xml:space="preserve">
<g id="Layer_1">
</g>
<g id="bracket">
</g>
<g id="periscope">
</g>
<g id="vine">
</g>
<g id="clear">
</g>
<g id="flipbook">
</g>
<g id="pocket">
</g>
<g id="crome">
</g>
<g id="google_app">
</g>
<g id="application">
</g>
<g id="googlepluse">
</g>
<g id="amazon">
</g>
<g id="drive">
</g>
<g id="pininterest">
</g>
<g id="soundcloude">
</g>
<g id="instagram">
</g>
<g id="flikr">
</g>
<g id="wists">
</g>
<g id="technorati">
</g>
<g id="yelp">
</g>
<g id="youtube">
</g>
<g id="xing6">
</g>
<g id="wiki">
</g>
<g id="whatsapp">
</g>
<g id="virb">
</g>
<g id="vimeo">
</g>
<g id="twitter_1_">
</g>
<g id="twitter">
</g>
<g id="yahoo">
</g>
<g id="bing_1_">
</g>
<g id="samsung">
</g>
<g id="smile">
</g>
<g id="slideshare">
</g>
<g id="skype">
</g>
<g id="simplenote">
	<g>
		<path fill="none" stroke="#000000" stroke-width="2" stroke-linecap="round" stroke-linejoin="round" stroke-miterlimit="10" d="
			M29.1340351,28.733839c-3.7934437-2.0199642-7.4224033-3.8080978-11.2377987-5.8329182
			c-1.9121056-1.0136452-3.7651443-1.9628334-5.1472244-3.3449421c-1.7061596-1.7051773-3.1009283-4.4459229-3.5181828-6.9485235
			c-0.1376448-0.8242912-0.1727629-2.0980358-0.1708269-3.431324c-1.9711437,1.6680622-3.6392069,4.3327036-4.7192178,7.1198282
			c-0.8330781,2.1502514-1.4982479,4.5132713-1.6300249,7.1208096c0,0.5997887,0,1.2010365,0,1.8008232
			c0.3352807,6.174036,2.9164586,10.778574,6.1774621,14.3265133c3.274169,3.5621185,8.0441437,6.0169106,14.0683517,6.6903915
			c0.9726582,0,1.9448128,0,2.916935,0c2.4572353-0.3831177,4.5186634-1.5182648,6.0906029-3.1741447
			c1.7051773-1.7959366,3.8349075-5.1833267,2.8310318-8.8357277C34.0855598,31.6419868,31.574173,30.0348988,29.1340351,28.733839z
			"/>
		<path fill="none" stroke="#000000" stroke-width="2" stroke-linecap="round" stroke-linejoin="round" stroke-miterlimit="10" d="
			M25.3581657,2.3124995c-0.3718872,0-0.7432709,0-1.1151295,0c-2.2571259,0.3777268-4.4561996,1.022433-5.7470112,2.4889579
			c-0.9072475,1.0282717-1.6212387,2.854949-1.7168846,4.0315886c-0.4055462,5.0461874,3.2117062,6.8841248,6.605917,8.6644249
			c3.5172291,1.843298,7.148632,3.7134056,10.7244205,5.575737c1.8423157,0.9604168,3.5181847,1.953064,4.8031578,3.3454189
			c2.3401146,2.5353069,3.800293,5.8426571,3.517231,10.6375332c0.5787849-0.5607376,1.1048813-1.3410912,1.5431366-2.1448898
			c1.2752037-2.3337364,2.3078842-5.3072987,2.5753098-8.7503281c-0.0141487-0.1005306,0.0170975-0.1527481,0.0849228-0.1717815
			c0-1.1439342,0-2.2878666,0-3.431324C45.1222954,10.4894028,36.9107513,3.2426827,25.3581657,2.3124995z"/>
	</g>
</g>
<g id="shark">
</g>
<g id="share">
</g>
<g id="retweet">
</g>
<g id="tumnlr">
</g>
<g id="reddit">
</g>
<g id="quora">
</g>
<g id="qik">
</g>
<g id="podcast">
</g>
<g id="plurk">
</g>
<g id="playstation">
</g>
<g id="pinchat">
</g>
<g id="pin">
</g>
<g id="rss">
</g>
<g id="picasa">
</g>
<g id="path">
</g>
<g id="pandora">
</g>
<g id="orkut">
</g>
<g id="newsvine">
</g>
<g id="myspace_1_">
</g>
<g id="myspace">
</g>
<g id="msn">
</g>
<g id="photobucket">
</g>
<g id="forest">
</g>
<g id="githhub">
</g>
<g id="google_1_">
</g>
<g id="google">
</g>
<g id="hype">
</g>
<g id="instapaper">
</g>
<g id="itunes">
</g>
<g id="kik">
</g>
<g id="lastfm">
</g>
<g id="linkedin-1">
</g>
<g id="linkedin">
</g>
<g id="map">
</g>
<g id="facebook_1_">
</g>
<g id="evernote">
</g>
<g id="etsy">
</g>
<g id="diigo">
</g>
<g id="dribbble">
</g>
<g id="drupal">
</g>
<g id="dropbox">
</g>
<g id="facebook">
</g>
<g id="digg6">
</g>
<g id="devianart">
</g>
<g id="designbump">
</g>
<g id="delicious5">
</g>
<g id="dailybooth">
</g>
<g id="creative9">
</g>
<g id="coroflot">
</g>
<g id="brightkite">
</g>
<g id="bnter">
</g>
<g id="blip">
</g>
<g id="blogger">
</g>
<g id="black">
</g>
<g id="bing">
</g>
<g id="behance">
</g>
<g id="bebo">
</g>
<g id="basecamp">
</g>
<g id="baidu">
</g>
<g id="aws">
</g>
<g id="arto">
</g>
<g id="apple">
</g>
<g id="paypal">
</g>
<g id="radio">
</g>
<g id="speech">
</g>
<g id="windows">
</g>
</svg>
