<?xml version="1.0" encoding="utf-8"?>
<!-- Generator: Adobe Illustrator 18.0.0, SVG Export Plug-In . SVG Version: 6.00 Build 0)  -->
<!DOCTYPE svg PUBLIC "-//W3C//DTD SVG 1.1//EN" "http://www.w3.org/Graphics/SVG/1.1/DTD/svg11.dtd">
<svg version="1.1" xmlns="http://www.w3.org/2000/svg" xmlns:xlink="http://www.w3.org/1999/xlink" x="0px" y="0px"
	 viewBox="0 0 48 48" enable-background="new 0 0 48 48" xml:space="preserve">
<g id="Layer_1">
</g>
<g id="bracket">
</g>
<g id="periscope">
</g>
<g id="vine">
</g>
<g id="clear">
</g>
<g id="flipbook">
</g>
<g id="pocket">
</g>
<g id="crome">
</g>
<g id="google_app">
</g>
<g id="application">
</g>
<g id="googlepluse">
</g>
<g id="amazon">
</g>
<g id="drive">
</g>
<g id="pininterest">
</g>
<g id="soundcloude">
</g>
<g id="instagram">
</g>
<g id="flikr">
</g>
<g id="wists">
</g>
<g id="technorati">
</g>
<g id="yelp">
</g>
<g id="youtube">
</g>
<g id="xing6">
</g>
<g id="wiki">
	
		<path id="WordPress" fill="none" stroke="#000000" stroke-width="2" stroke-linecap="round" stroke-linejoin="round" stroke-miterlimit="10" d="
		M2,24c0,12.1513329,9.8486671,22,22,22c12.1483994,0,22-9.8486671,22-22c0-12.1484003-9.8516006-22-22-22
		C11.8486671,2,2,11.8515997,2,24z M5.5413337,24c0-2.6760006,0.5759997-5.2155552,1.5986667-7.5124435l8.8048887,24.1235542
		C9.7884445,37.6222229,5.5413337,31.3057785,5.5413337,24z M24,42.4582214c-1.8115559,0-3.5617771-0.2639999-5.2151108-0.7493324
		l5.5395546-16.0915565l5.6737785,15.5426674c0.0368881,0.0915565,0.082222,0.1728897,0.1302204,0.2511139
		C28.2115555,42.0884438,26.1480007,42.4582214,24,42.4582214z M38.917778,23.6537781
		c1.0528908-2.6333332,1.404892-4.7386665,1.404892-6.6106663c0-0.6795559-0.0453339-1.3102226-0.1275558-1.8991108
		c1.4408875,2.6306648,2.2604408,5.6462212,2.2604408,8.8564434c0,6.8106651-3.6893349,12.7546673-9.1751099,15.9524441
		L38.917778,23.6537781z M34.9373322,17.9773331c0.7008934,1.2288895,1.5231133,2.8088894,1.5231133,5.0911102
		c0,1.5808887-0.4702225,3.5680008-1.4048882,5.9680023l-1.8417778,6.1493301l-6.6711121-19.8391075
		c1.1133327-0.0604448,2.1115551-0.1760006,2.1115551-0.1760006c0.9951096-0.1182222,0.8764439-1.5773325-0.1155548-1.5226669
		c0,0-2.9911118,0.2360001-4.9208889,0.2360001c-1.8142223,0-4.860445-0.2360001-4.860445-0.2360001
		c-0.9951096-0.0546656-1.1106663,1.4648886-0.1182213,1.5226669c0,0,0.9435558,0.1155558,1.9386673,0.1760006l2.8728886,7.8795557
		l-4.0382233,12.1119995l-6.7231112-19.9915543c1.1133327-0.0604448,2.1142216-0.1760006,2.1142216-0.1760006
		c0.9955559-0.1182222,0.8737783-1.5773325-0.1182222-1.5226669c0,0-2.9884443,0.2360001-4.9208879,0.2360001
		c-0.3457785,0-0.7524452-0.0088892-1.1862221-0.0213327C11.8795557,8.8515558,17.5528889,5.5417776,24,5.5417776
		c4.8057785,0,9.1808891,1.838222,12.4635544,4.8479996c-0.0791092-0.0062218-0.1577797-0.0155554-0.2368851-0.0155554
		c-1.8173332,0-3.1008911,1.5782223-3.1008911,3.2742224C33.1262207,15.1711111,34.0031128,16.457777,34.9373322,17.9773331z"/>
</g>
<g id="whatsapp">
</g>
<g id="virb">
</g>
<g id="vimeo">
</g>
<g id="twitter_1_">
</g>
<g id="twitter">
</g>
<g id="yahoo">
</g>
<g id="bing_1_">
</g>
<g id="samsung">
</g>
<g id="smile">
</g>
<g id="slideshare">
</g>
<g id="skype">
</g>
<g id="simplenote">
</g>
<g id="shark">
</g>
<g id="share">
</g>
<g id="retweet">
</g>
<g id="tumnlr">
</g>
<g id="reddit">
</g>
<g id="quora">
</g>
<g id="qik">
</g>
<g id="podcast">
</g>
<g id="plurk">
</g>
<g id="playstation">
</g>
<g id="pinchat">
</g>
<g id="pin">
</g>
<g id="rss">
</g>
<g id="picasa">
</g>
<g id="path">
</g>
<g id="pandora">
</g>
<g id="orkut">
</g>
<g id="newsvine">
</g>
<g id="myspace_1_">
</g>
<g id="myspace">
</g>
<g id="msn">
</g>
<g id="photobucket">
</g>
<g id="forest">
</g>
<g id="githhub">
</g>
<g id="google_1_">
</g>
<g id="google">
</g>
<g id="hype">
</g>
<g id="instapaper">
</g>
<g id="itunes">
</g>
<g id="kik">
</g>
<g id="lastfm">
</g>
<g id="linkedin-1">
</g>
<g id="linkedin">
</g>
<g id="map">
</g>
<g id="facebook_1_">
</g>
<g id="evernote">
</g>
<g id="etsy">
</g>
<g id="diigo">
</g>
<g id="dribbble">
</g>
<g id="drupal">
</g>
<g id="dropbox">
</g>
<g id="facebook">
</g>
<g id="digg6">
</g>
<g id="devianart">
</g>
<g id="designbump">
</g>
<g id="delicious5">
</g>
<g id="dailybooth">
</g>
<g id="creative9">
</g>
<g id="coroflot">
</g>
<g id="brightkite">
</g>
<g id="bnter">
</g>
<g id="blip">
</g>
<g id="blogger">
</g>
<g id="black">
</g>
<g id="bing">
</g>
<g id="behance">
</g>
<g id="bebo">
</g>
<g id="basecamp">
</g>
<g id="baidu">
</g>
<g id="aws">
</g>
<g id="arto">
</g>
<g id="apple">
</g>
<g id="paypal">
</g>
<g id="radio">
</g>
<g id="speech">
</g>
<g id="windows">
</g>
</svg>
