<?xml version="1.0" encoding="utf-8"?>
<!-- Generator: Adobe Illustrator 18.0.0, SVG Export Plug-In . SVG Version: 6.00 Build 0)  -->
<!DOCTYPE svg PUBLIC "-//W3C//DTD SVG 1.1//EN" "http://www.w3.org/Graphics/SVG/1.1/DTD/svg11.dtd">
<svg version="1.1" xmlns="http://www.w3.org/2000/svg" xmlns:xlink="http://www.w3.org/1999/xlink" x="0px" y="0px"
	 viewBox="0 0 48 48" enable-background="new 0 0 48 48" xml:space="preserve">
<g id="Layer_1">
</g>
<g id="bracket">
</g>
<g id="periscope">
</g>
<g id="vine">
</g>
<g id="clear">
</g>
<g id="flipbook">
</g>
<g id="pocket">
</g>
<g id="crome">
</g>
<g id="google_app">
</g>
<g id="application">
</g>
<g id="googlepluse">
</g>
<g id="amazon">
</g>
<g id="drive">
</g>
<g id="pininterest">
</g>
<g id="soundcloude">
</g>
<g id="instagram">
</g>
<g id="flikr">
</g>
<g id="wists">
</g>
<g id="technorati">
</g>
<g id="yelp">
</g>
<g id="youtube">
</g>
<g id="xing6">
</g>
<g id="wiki">
</g>
<g id="whatsapp">
</g>
<g id="virb">
</g>
<g id="vimeo">
</g>
<g id="twitter_1_">
</g>
<g id="twitter">
</g>
<g id="yahoo">
</g>
<g id="bing_1_">
</g>
<g id="samsung">
</g>
<g id="smile">
</g>
<g id="slideshare">
</g>
<g id="skype">
</g>
<g id="simplenote">
</g>
<g id="shark">
</g>
<g id="share">
</g>
<g id="retweet">
</g>
<g id="tumnlr">
</g>
<g id="reddit">
</g>
<g id="quora">
</g>
<g id="qik">
</g>
<g id="podcast">
</g>
<g id="plurk">
</g>
<g id="playstation">
</g>
<g id="pinchat">
</g>
<g id="pin">
</g>
<g id="rss">
</g>
<g id="picasa">
</g>
<g id="path">
</g>
<g id="pandora">
</g>
<g id="orkut">
</g>
<g id="newsvine">
</g>
<g id="myspace_1_">
</g>
<g id="myspace">
</g>
<g id="msn">
</g>
<g id="photobucket">
</g>
<g id="forest">
</g>
<g id="githhub">
</g>
<g id="google_1_">
</g>
<g id="google">
</g>
<g id="hype">
</g>
<g id="instapaper">
</g>
<g id="itunes">
</g>
<g id="kik">
</g>
<g id="lastfm">
</g>
<g id="linkedin-1">
</g>
<g id="linkedin">
</g>
<g id="map">
</g>
<g id="facebook_1_">
</g>
<g id="evernote">
</g>
<g id="etsy">
</g>
<g id="diigo">
</g>
<g id="dribbble">
</g>
<g id="drupal">
</g>
<g id="dropbox">
</g>
<g id="facebook">
</g>
<g id="digg6">
</g>
<g id="devianart">
</g>
<g id="designbump">
</g>
<g id="delicious5">
</g>
<g id="dailybooth">
</g>
<g id="creative9">
</g>
<g id="coroflot">
</g>
<g id="brightkite">
</g>
<g id="bnter">
</g>
<g id="blip">
</g>
<g id="blogger">
</g>
<g id="black">
</g>
<g id="bing">
</g>
<g id="behance">
</g>
<g id="bebo">
</g>
<g id="basecamp">
</g>
<g id="baidu">
</g>
<g id="aws">
</g>
<g id="arto">
	
		<path id="Arto" fill="none" stroke="#000000" stroke-width="2" stroke-linecap="round" stroke-linejoin="round" stroke-miterlimit="10" d="
		M19.7780323,40.6750259c2.1686897,0,3.7365913,0.931488,4.9317913,2.9295158
		c0.7719879,1.3238602,2.5323544,3.532959,5.6963367,3.532959c1.5524807,0,3.2953014-0.5221024,5.1795483-1.5492935
		c0.882576-0.6853256,2.2165413-2.1963387,2.2973557-6.5055428c0.0366859-0.4152336,0.0494461-1.0372887,0.0648651-1.8108749
		c0.1079292-4.9955902,0.3636627-9.199522,2.3063927-9.8752766c0.3657913-0.5045567,0.913414-1.4652882,0.7863388-2.2340851
		c-0.0404053-0.2440376-0.162159-0.6103592-0.7416801-0.962328c-0.2908249-0.2195797-2.0756493-1.7598362-1.9842033-6.6820564
		c0.0866661-4.6234207,0.1722603-8.5593901,0.1722603-8.5593901c-0.0116959-0.1855545-0.3960953-6.0961533-4.6531906-6.0961533
		c-1.8204498,0-4.1289673,1.0112407-6.8649521,3.0092645L6.8275604,29.1542206l0,0
		c0.012229,0-2.5408611,4.0997238-1.014431,7.5640984c1.0463309,2.3792343,3.7881641,3.9987106,8.1531925,4.8164177
		c0.8490801-0.0664597,1.7231493-0.2450981,2.5685081-0.4152336C17.6066837,40.9004517,18.713623,40.6750259,19.7780323,40.6750259z
		 M35.6245193,25.8339272c-1.5546112,0.0861301-2.9342957,0.0861301-2.9342957,0.0861301l-0.0015945-13.3486929
		c0,0-0.432251-3.5956993-3.8875885-1.1133213L10.5827618,32.8530617c0,0-1.2084913,1.7965202,0,2.1362572
		c0,0,1.2084913,0.943718,2.2452517,0.5141296c0.8634348-0.7682686,4.7488966-5.9898186,14.6799994-7.1339779
		c-0.0861301,5.1683865,0.0861301,12.4400654,0.0861301,12.4400654s2.7630997,2.9098434,5.4390068,0
		c0-2.9794922-0.086132-12.4650517-0.086132-13.6054897c0.1908684,0.0435982,0.9022446-0.1908703,2.7630997-0.4248047
		C35.7106514,26.7792416,37.1801949,26.3459263,35.6245193,25.8339272z M27.9701309,26c0,0-4.1617107,0.3029575-5.8024502,0.3827076
		c-1.6407394,0.0818768-0.4094505-0.7845306-0.4094505-0.7845306L28,18.6457176V26H27.9701309z"/>
</g>
<g id="apple">
</g>
<g id="paypal">
</g>
<g id="radio">
</g>
<g id="speech">
</g>
<g id="windows">
</g>
</svg>
