<?xml version="1.0" encoding="utf-8"?>
<!-- Generator: Adobe Illustrator 18.0.0, SVG Export Plug-In . SVG Version: 6.00 Build 0)  -->
<!DOCTYPE svg PUBLIC "-//W3C//DTD SVG 1.1//EN" "http://www.w3.org/Graphics/SVG/1.1/DTD/svg11.dtd">
<svg version="1.1" xmlns="http://www.w3.org/2000/svg" xmlns:xlink="http://www.w3.org/1999/xlink" x="0px" y="0px"
	 viewBox="0 0 48 48" enable-background="new 0 0 48 48" xml:space="preserve">
<g id="Layer_1">
</g>
<g id="bracket">
</g>
<g id="periscope">
</g>
<g id="vine">
</g>
<g id="clear">
</g>
<g id="flipbook">
</g>
<g id="pocket">
</g>
<g id="crome">
</g>
<g id="google_app">
</g>
<g id="application">
</g>
<g id="googlepluse">
</g>
<g id="amazon">
</g>
<g id="drive">
</g>
<g id="pininterest">
</g>
<g id="soundcloude">
</g>
<g id="instagram">
</g>
<g id="flikr">
</g>
<g id="wists">
</g>
<g id="technorati">
</g>
<g id="yelp">
</g>
<g id="youtube">
</g>
<g id="xing6">
</g>
<g id="wiki">
</g>
<g id="whatsapp">
</g>
<g id="virb">
</g>
<g id="vimeo">
</g>
<g id="twitter_1_">
</g>
<g id="twitter">
</g>
<g id="yahoo">
</g>
<g id="bing_1_">
</g>
<g id="samsung">
</g>
<g id="smile">
</g>
<g id="slideshare">
</g>
<g id="skype">
</g>
<g id="simplenote">
</g>
<g id="shark">
</g>
<g id="share">
</g>
<g id="retweet">
</g>
<g id="tumnlr">
</g>
<g id="reddit">
</g>
<g id="quora">
</g>
<g id="qik">
</g>
<g id="podcast">
</g>
<g id="plurk">
</g>
<g id="playstation">
</g>
<g id="pinchat">
</g>
<g id="pin">
</g>
<g id="rss">
</g>
<g id="picasa">
</g>
<g id="path">
</g>
<g id="pandora">
</g>
<g id="orkut">
</g>
<g id="newsvine">
</g>
<g id="myspace_1_">
</g>
<g id="myspace">
</g>
<g id="msn">
</g>
<g id="photobucket">
</g>
<g id="forest">
</g>
<g id="githhub">
</g>
<g id="google_1_">
</g>
<g id="google">
</g>
<g id="hype">
</g>
<g id="instapaper">
</g>
<g id="itunes">
</g>
<g id="kik">
</g>
<g id="lastfm">
</g>
<g id="linkedin-1">
</g>
<g id="linkedin">
</g>
<g id="map">
</g>
<g id="facebook_1_">
</g>
<g id="evernote">
</g>
<g id="etsy">
</g>
<g id="diigo">
</g>
<g id="dribbble">
</g>
<g id="drupal">
</g>
<g id="dropbox">
</g>
<g id="facebook">
</g>
<g id="digg6">
</g>
<g id="devianart">
</g>
<g id="designbump">
</g>
<g id="delicious5">
</g>
<g id="dailybooth">
	<path id="Dailybooth" fill="none" stroke="#000000" stroke-width="2" stroke-miterlimit="10" d="M23.3520489,46.6613617
		c5.2139893,0.1149635,10.0414486-1.6086731,13.8621616-4.5765038l7.5996208,2.9376755l-3.0230141-7.7669563l-0.000946-0.0009918
		c2.3548431-3.3966484,3.7735634-7.4986916,3.8714905-11.9399681c0.2658081-12.055377-9.2908821-22.0434933-21.3467445-22.3093109
		S2.2711134,12.2966709,2.0053053,24.3520489S11.2961864,46.3955421,23.3520489,46.6613617z M11.8798923,18.8878441
		l4.5700874-0.9678726c1.3441429-2.4585114,3.975769-4.1014738,6.9705753-4.0354424
		c1.7113171,0.0377331,3.2798824,0.6289606,4.5411777,1.5977736l4.4267521-0.9380312
		c1.0448647-0.2205849,2.0925598,0.5532799,2.341774,1.7302971l2.6938972,12.7228947
		c0.2492027,1.1775036-0.3950157,2.3100681-1.4389343,2.5316448l-20.5080948,4.3430996
		c-1.044404,0.2215652-2.0925598-0.5532799-2.3417749-1.7302971l-2.6948557-12.7234039
		C10.1912584,20.2424603,10.8359728,19.1094208,11.8798923,18.8878441z M24.3728237,20.438839
		c2.5227203,0.055624,4.5221386,2.1458435,4.4665146,4.6685638c-0.0556087,2.522089-2.1451988,4.5215244-4.6679211,4.4659004
		s-4.5221519-2.1452141-4.4665432-4.667305C19.760498,22.3832779,21.8501053,20.383215,24.3728237,20.438839z"/>
</g>
<g id="creative9">
</g>
<g id="coroflot">
</g>
<g id="brightkite">
</g>
<g id="bnter">
</g>
<g id="blip">
</g>
<g id="blogger">
</g>
<g id="black">
</g>
<g id="bing">
</g>
<g id="behance">
</g>
<g id="bebo">
</g>
<g id="basecamp">
</g>
<g id="baidu">
</g>
<g id="aws">
</g>
<g id="arto">
</g>
<g id="apple">
</g>
<g id="paypal">
</g>
<g id="radio">
</g>
<g id="speech">
</g>
<g id="windows">
</g>
</svg>
