<?xml version="1.0" encoding="utf-8"?>
<!-- Generator: Adobe Illustrator 18.0.0, SVG Export Plug-In . SVG Version: 6.00 Build 0)  -->
<!DOCTYPE svg PUBLIC "-//W3C//DTD SVG 1.1//EN" "http://www.w3.org/Graphics/SVG/1.1/DTD/svg11.dtd">
<svg version="1.1" xmlns="http://www.w3.org/2000/svg" xmlns:xlink="http://www.w3.org/1999/xlink" x="0px" y="0px"
	 viewBox="0 0 48 48" enable-background="new 0 0 48 48" xml:space="preserve">
<g id="Layer_1">
</g>
<g id="bracket">
</g>
<g id="periscope">
</g>
<g id="vine">
</g>
<g id="clear">
</g>
<g id="flipbook">
</g>
<g id="pocket">
</g>
<g id="crome">
</g>
<g id="google_app">
</g>
<g id="application">
</g>
<g id="googlepluse">
</g>
<g id="amazon">
</g>
<g id="drive">
</g>
<g id="pininterest">
</g>
<g id="soundcloude">
</g>
<g id="instagram">
</g>
<g id="flikr">
</g>
<g id="wists">
</g>
<g id="technorati">
</g>
<g id="yelp">
</g>
<g id="youtube">
</g>
<g id="xing6">
</g>
<g id="wiki">
</g>
<g id="whatsapp">
</g>
<g id="virb">
</g>
<g id="vimeo">
</g>
<g id="twitter_1_">
</g>
<g id="twitter">
</g>
<g id="yahoo">
</g>
<g id="bing_1_">
</g>
<g id="samsung">
</g>
<g id="smile">
</g>
<g id="slideshare">
</g>
<g id="skype">
</g>
<g id="simplenote">
</g>
<g id="shark">
</g>
<g id="share">
</g>
<g id="retweet">
</g>
<g id="tumnlr">
</g>
<g id="reddit">
</g>
<g id="quora">
</g>
<g id="qik">
</g>
<g id="podcast">
</g>
<g id="plurk">
</g>
<g id="playstation">
</g>
<g id="pinchat">
</g>
<g id="pin">
</g>
<g id="rss">
</g>
<g id="picasa">
</g>
<g id="path">
</g>
<g id="pandora">
</g>
<g id="orkut">
</g>
<g id="newsvine">
</g>
<g id="myspace_1_">
</g>
<g id="myspace">
</g>
<g id="msn">
</g>
<g id="photobucket">
</g>
<g id="forest">
</g>
<g id="githhub">
</g>
<g id="google_1_">
</g>
<g id="google">
</g>
<g id="hype">
</g>
<g id="instapaper">
</g>
<g id="itunes">
</g>
<g id="kik">
</g>
<g id="lastfm">
</g>
<g id="linkedin-1">
</g>
<g id="linkedin">
</g>
<g id="map">
</g>
<g id="facebook_1_">
</g>
<g id="evernote">
</g>
<g id="etsy">
</g>
<g id="diigo">
</g>
<g id="dribbble">
</g>
<g id="drupal">
</g>
<g id="dropbox">
</g>
<g id="facebook">
</g>
<g id="digg6">
</g>
<g id="devianart">
</g>
<g id="designbump">
</g>
<g id="delicious5">
</g>
<g id="dailybooth">
</g>
<g id="creative9">
</g>
<g id="coroflot">
</g>
<g id="brightkite">
</g>
<g id="bnter">
</g>
<g id="blip">
</g>
<g id="blogger">
</g>
<g id="black">
</g>
<g id="bing">
</g>
<g id="behance">
</g>
<g id="bebo">
</g>
<g id="basecamp">
</g>
<g id="baidu">
</g>
<g id="aws">
</g>
<g id="arto">
</g>
<g id="apple">
</g>
<g id="paypal">
</g>
<g id="radio">
</g>
<g id="speech">
</g>
<g id="windows">
	
		<path id="Windows" fill="none" stroke="#000000" stroke-width="2" stroke-linecap="round" stroke-linejoin="round" stroke-miterlimit="10" d="
		M10.6864996,5.7405c2.835-1.1304998,5.3219995-1.6985002,7.5980005-1.7405c1.1949997,0,2.323,0.1285,3.3924999,0.3769999
		c1.6280003,0.4155002,3.8810005,1.6355,4.7395,2.1254997l-4.0760002,14.5112505C20.2635002,19.6892509,17.757,19,14.3675003,19
		H14.3645c-2.2605,0-4.7164993-0.1112499-7.5625,0.9572506L10.6864996,5.7405z M17.0699997,39.026001
		c1.0079994-3.4075012,3.4284992-11.6375008,4.151001-14.0974998c-0.5240002-0.3180008-1.0580006-0.6369991-1.6044998-0.9319992
		c-2.0974998-1.0725002-4.1355-1.6159992-6.0599995-1.6159992c-0.2609997,0-0.5229998,0.0079994-0.7880001,0.0305004
		c-2.4560003,0.2019997-4.6975002,0.8474998-6.1415,1.3484993c-0.3829999,0.1394997-0.7730002,0.2870007-1.1785002,0.4505005
		L1.5,37.8289986c2.7135-0.9990005,5.1110001-1.4845009,7.3085003-1.4845009
		C12.3614998,36.3445015,14.9385004,37.6660004,17.0699997,39.026001z M41.1080017,28.8764992
		c-2.5764999,0.8274994-5.0480003,1.2469997-7.3595009,1.2469997c-4.2164993,0-7.168499-1.3600006-9.0305004-2.6655006
		L20.7439995,41.197998C21.9230003,41.8699989,25.8889999,44,28.927,44c2.4520016,0,5.1965008-0.6259995,8.3859997-1.9160004
		L41.1080017,28.8764992z M46.5,10.2714996C43.9150009,11.2704992,41.3930016,11.7795,38.9840012,11.7795
		c-4.0289993,0-7-1.3905001-8.9249992-2.7275l-4.0410023,13.9179993c2.7140007,1.7369995,5.6385021,2.6184998,8.7069988,2.6184998
		c2.5024986,0,5.0945015-0.5979996,7.7104988-1.779501l-0.0079994-0.0965004l0.1640015-0.0394993L46.5,10.2714996z"/>
</g>
</svg>
