<?xml version="1.0" encoding="utf-8"?>
<!-- Generator: Adobe Illustrator 18.0.0, SVG Export Plug-In . SVG Version: 6.00 Build 0)  -->
<!DOCTYPE svg PUBLIC "-//W3C//DTD SVG 1.1//EN" "http://www.w3.org/Graphics/SVG/1.1/DTD/svg11.dtd">
<svg version="1.1" xmlns="http://www.w3.org/2000/svg" xmlns:xlink="http://www.w3.org/1999/xlink" x="0px" y="0px"
	 viewBox="0 0 48 48" enable-background="new 0 0 48 48" xml:space="preserve">
<g id="Layer_1">
</g>
<g id="bracket">
</g>
<g id="periscope">
</g>
<g id="vine">
</g>
<g id="clear">
</g>
<g id="flipbook">
</g>
<g id="pocket">
</g>
<g id="crome">
</g>
<g id="google_app">
</g>
<g id="application">
</g>
<g id="googlepluse">
</g>
<g id="amazon">
</g>
<g id="drive">
</g>
<g id="pininterest">
</g>
<g id="soundcloude">
</g>
<g id="instagram">
</g>
<g id="flikr">
</g>
<g id="wists">
</g>
<g id="technorati">
</g>
<g id="yelp">
</g>
<g id="youtube">
</g>
<g id="xing6">
</g>
<g id="wiki">
</g>
<g id="whatsapp">
</g>
<g id="virb">
</g>
<g id="vimeo">
</g>
<g id="twitter_1_">
</g>
<g id="twitter">
</g>
<g id="yahoo">
</g>
<g id="bing_1_">
</g>
<g id="samsung">
</g>
<g id="smile">
</g>
<g id="slideshare">
</g>
<g id="skype">
</g>
<g id="simplenote">
</g>
<g id="shark">
</g>
<g id="share">
</g>
<g id="retweet">
</g>
<g id="tumnlr">
</g>
<g id="reddit">
</g>
<g id="quora">
</g>
<g id="qik">
</g>
<g id="podcast">
</g>
<g id="plurk">
</g>
<g id="playstation">
</g>
<g id="pinchat">
</g>
<g id="pin">
</g>
<g id="rss">
</g>
<g id="picasa">
</g>
<g id="path">
</g>
<g id="pandora">
</g>
<g id="orkut">
</g>
<g id="newsvine">
</g>
<g id="myspace_1_">
</g>
<g id="myspace">
</g>
<g id="msn">
</g>
<g id="photobucket">
</g>
<g id="forest">
</g>
<g id="githhub">
</g>
<g id="google_1_">
</g>
<g id="google">
</g>
<g id="hype">
</g>
<g id="instapaper">
</g>
<g id="itunes">
</g>
<g id="kik">
</g>
<g id="lastfm">
</g>
<g id="linkedin-1">
</g>
<g id="linkedin">
</g>
<g id="map">
</g>
<g id="facebook_1_">
</g>
<g id="evernote">
</g>
<g id="etsy">
</g>
<g id="diigo">
</g>
<g id="dribbble">
</g>
<g id="drupal">
</g>
<g id="dropbox">
</g>
<g id="facebook">
</g>
<g id="digg6">
</g>
<g id="devianart">
</g>
<g id="designbump">
</g>
<g id="delicious5">
</g>
<g id="dailybooth">
</g>
<g id="creative9">
</g>
<g id="coroflot">
</g>
<g id="brightkite">
</g>
<g id="bnter">
</g>
<g id="blip">
</g>
<g id="blogger">
</g>
<g id="black">
</g>
<g id="bing">
</g>
<g id="behance">
	
		<path id="Behance" fill="none" stroke="#000000" stroke-width="2" stroke-linecap="round" stroke-linejoin="round" stroke-miterlimit="10" d="
		M40.9147377,14H30v-3h11v2.6794643L40.9147377,14z M23.474308,25.3441067
		c0.6755371,1.0460358,1.0130711,2.3167877,1.0130711,3.8080711c0,1.5428219-0.3807144,2.9263935-1.1551418,4.1488552
		c-0.4926071,0.8092537-1.1040707,1.4922142-1.839035,2.0419312c-0.8278217,0.6365356-1.80793,1.0724983-2.9342861,1.3055687
		C17.4288445,36.8820724,16.2054501,37,14.8878078,37H3.1785223V11h12.5566063
		c3.1650372,0.0515356,5.4089298,0.9685001,6.7339993,2.7694645c0.794857,1.1045351,1.1890354,2.4296055,1.1890354,3.9701061
		c0,1.5897141-0.3988209,2.8613949-1.2015705,3.8280354c-0.4466438,0.5418224-1.1063938,1.0344296-1.9797153,1.4792156
		C21.7996292,23.5310726,22.8034153,24.2938919,23.474308,25.3441067z M9.1747723,21.2504997h5.5017862
		c1.1305351,0,2.0447149-0.2149658,2.7485723-0.6444283c0.703392-0.4290009,1.0543919-1.1913567,1.0543919-2.2861443
		c0-1.2094631-0.4647503-2.0122128-1.3965702-2.3984995c-0.8008938-0.2683563-1.825572-0.4067135-3.0689297-0.4067135H9.1747723
		V21.2504997z M19.0092716,28.7812138c0-1.3510704-0.5520344-2.2842865-1.6537857-2.7852497
		c-0.616106-0.2850704-1.4852505-0.4303913-2.5999994-0.4406071H9.1747723v6.9285336h5.4943571
		c1.1286783,0,2.0024652-0.147644,2.632966-0.4559288C18.4391289,31.461071,19.0092716,30.3825359,19.0092716,28.7812138z
		 M44.7989502,24.5515709c0.1267509,0.8505726,0.183857,2.0846443,0.1606407,3.6975727h-13.559927
		c0.0752144,1.8719997,0.7210369,3.1808205,1.9467487,3.9297123c0.7386818,0.4698563,1.6347542,0.6992111,2.6840363,0.6992111
		c1.1059303,0,2.0080338-0.2799606,2.7021408-0.8547516c0.3783951-0.3045692,0.7122154-0.7349625,1.0005379-1.2772484h4.9697151
		c-0.1300011,1.1049995-0.728466,2.2262497-1.8037529,3.3660698c-1.666317,1.8102531-4.0035362,2.7188606-7.0042114,2.7188606
		c-2.47929,0-4.6642132-0.7660713-6.5608234-2.2921791c-1.8905697-1.5312119-2.839571-4.0151424-2.839571-7.4606056
		c0-3.2309647,0.8524284-5.7037506,2.5628567-7.4253216c1.7160015-1.7243576,3.9315701-2.5828209,6.6625004-2.5828209
		c1.6184998,0,3.0777512,0.2892513,4.3791428,0.8710003c1.2981415,0.5822144,2.370182,1.4987144,3.2151794,2.7578564
		C44.0783806,21.8081074,44.5700569,23.0904636,44.7989502,24.5515709z M39.907238,25.0367508
		c-0.091465-1.2944298-0.523716-2.2740707-1.3013954-2.9435711c-0.7721062-0.6713581-1.7359619-1.0084286-2.8860016-1.0084286
		c-1.2521782,0-2.2183571,0.3602848-2.9054985,1.0683193c-0.6913223,0.7066441-1.1217155,1.6672497-1.2981434,2.8836784
		L39.907238,25.0367508z"/>
</g>
<g id="bebo">
</g>
<g id="basecamp">
</g>
<g id="baidu">
</g>
<g id="aws">
</g>
<g id="arto">
</g>
<g id="apple">
</g>
<g id="paypal">
</g>
<g id="radio">
</g>
<g id="speech">
</g>
<g id="windows">
</g>
</svg>
