<?xml version="1.0" encoding="utf-8"?>
<!-- Generator: Adobe Illustrator 18.0.0, SVG Export Plug-In . SVG Version: 6.00 Build 0)  -->
<!DOCTYPE svg PUBLIC "-//W3C//DTD SVG 1.1//EN" "http://www.w3.org/Graphics/SVG/1.1/DTD/svg11.dtd">
<svg version="1.1" xmlns="http://www.w3.org/2000/svg" xmlns:xlink="http://www.w3.org/1999/xlink" x="0px" y="0px"
	 viewBox="0 0 48 48" enable-background="new 0 0 48 48" xml:space="preserve">
<g id="Layer_1">
</g>
<g id="bracket">
</g>
<g id="periscope">
</g>
<g id="vine">
</g>
<g id="clear">
</g>
<g id="flipbook">
</g>
<g id="pocket">
</g>
<g id="crome">
</g>
<g id="google_app">
</g>
<g id="application">
</g>
<g id="googlepluse">
</g>
<g id="amazon">
</g>
<g id="drive">
</g>
<g id="pininterest">
</g>
<g id="soundcloude">
</g>
<g id="instagram">
</g>
<g id="flikr">
</g>
<g id="wists">
</g>
<g id="technorati">
</g>
<g id="yelp">
</g>
<g id="youtube">
</g>
<g id="xing6">
</g>
<g id="wiki">
</g>
<g id="whatsapp">
</g>
<g id="virb">
</g>
<g id="vimeo">
</g>
<g id="twitter_1_">
</g>
<g id="twitter">
</g>
<g id="yahoo">
</g>
<g id="bing_1_">
</g>
<g id="samsung">
</g>
<g id="smile">
</g>
<g id="slideshare">
</g>
<g id="skype">
</g>
<g id="simplenote">
</g>
<g id="shark">
</g>
<g id="share">
</g>
<g id="retweet">
</g>
<g id="tumnlr">
</g>
<g id="reddit">
</g>
<g id="quora">
</g>
<g id="qik">
</g>
<g id="podcast">
</g>
<g id="plurk">
</g>
<g id="playstation">
</g>
<g id="pinchat">
</g>
<g id="pin">
</g>
<g id="rss">
</g>
<g id="picasa">
</g>
<g id="path">
</g>
<g id="pandora">
</g>
<g id="orkut">
</g>
<g id="newsvine">
	<path id="Newsvine_2_" fill="none" stroke="#000000" stroke-width="2" stroke-linejoin="round" stroke-miterlimit="10" d="M25,46
		v-3.913868l5.387394-3.633934c0.4601326,0.2907333,1.1875305,0.4643326,1.7769318,0.4643326
		c1.6407967,0,3.064064-1.3318634,3.064064-2.9749985c0-1.6426659-1.2861633-2.9731331-2.9269676-2.9731331
		c-1.6436005,0-2.9535503,1.3309288-2.9535503,2.9731331c0,0.1203995-0.3443699,0.2370682-0.3327026,0.3532677L25,38.9487305V31
		h0.7325878l5.0306664-4.0858994c0.4601307,0.2907333,1.0009995,0.2423172,1.5847988,0.2423172
		c1.6408005,0,2.9726677-1.4417076,2.9726677-3.0876408c0-1.6426678-1.3318634-3.0294552-2.9726677-3.0294552
		c-1.6435986,0-2.9763985,1.3044052-2.9763985,2.947073c0,0.1241322-0.3562603,0.2312698-0.3427277,0.3544712L25,26.9806023
		v-8.2782021L30.4345284,15.0288c0.4545345,0.2748661,1.1625633,0.4372663,1.7300301,0.4372663
		c1.6407967,0,3.0641823-1.3318663,3.0641823-2.9740667s-1.2861099-2.9768658-2.9269104-2.9768658
		c-1.6436005,0-2.9535217,1.334199-2.9535217,2.9768658c0,0.1376667-0.3436546,0.2772007-0.3221874,0.4102001L25,15.5631332V3h-3
		v6.6313334l-3.2742729-2.6721339c0.0326672-0.1787333,0.2607975-0.3597999,0.2607975-0.5497327
		c0-1.6422-1.2299347-2.974067-2.8726025-2.974067c-1.6422005,0-2.9205332,1.331867-2.9205332,2.974067
		c0,1.6426668,1.3569994,2.9764004,2.9987326,2.9764004c0.5193996,0,0.6028061-0.1344004,1.0274734-0.3668003L22,12.771534
		v8.2782001l-3.2684383-2.6683998c0.0289326-0.1623993,0.2550793-0.3308659,0.2550793-0.4993324
		c0-1.6473331-1.2299938-2.9778004-2.8726597-2.9778004c-1.6422014,0-2.9205637,1.3304672-2.9205637,2.9778004
		c0,1.6407986,1.3569851,2.9726658,2.9987192,2.9726658c0.5357323,0,0.633131-0.1427994,1.0661983-0.3887329L22,24.1899338
		v8.8279343l-3.2656384-2.6674652c0.0256672-0.1605339,0.2518139-0.3224659,0.2518139-0.4890671
		c0-1.6426678-1.2299938-2.9754658-2.8726616-2.9754658c-1.6422005,0-2.9205627,1.332798-2.9205627,2.9754658
		c0,1.6421986,1.3569851,2.9745331,2.9987183,2.9745331c0.5403996,0,0.6405983-0.1469994,1.0759983-0.3966637L22,36.1562042V46H25z"
		/>
</g>
<g id="myspace_1_">
</g>
<g id="myspace">
</g>
<g id="msn">
</g>
<g id="photobucket">
</g>
<g id="forest">
</g>
<g id="githhub">
</g>
<g id="google_1_">
</g>
<g id="google">
</g>
<g id="hype">
</g>
<g id="instapaper">
</g>
<g id="itunes">
</g>
<g id="kik">
</g>
<g id="lastfm">
</g>
<g id="linkedin-1">
</g>
<g id="linkedin">
</g>
<g id="map">
</g>
<g id="facebook_1_">
</g>
<g id="evernote">
</g>
<g id="etsy">
</g>
<g id="diigo">
</g>
<g id="dribbble">
</g>
<g id="drupal">
</g>
<g id="dropbox">
</g>
<g id="facebook">
</g>
<g id="digg6">
</g>
<g id="devianart">
</g>
<g id="designbump">
</g>
<g id="delicious5">
</g>
<g id="dailybooth">
</g>
<g id="creative9">
</g>
<g id="coroflot">
</g>
<g id="brightkite">
</g>
<g id="bnter">
</g>
<g id="blip">
</g>
<g id="blogger">
</g>
<g id="black">
</g>
<g id="bing">
</g>
<g id="behance">
</g>
<g id="bebo">
</g>
<g id="basecamp">
</g>
<g id="baidu">
</g>
<g id="aws">
</g>
<g id="arto">
</g>
<g id="apple">
</g>
<g id="paypal">
</g>
<g id="radio">
</g>
<g id="speech">
</g>
<g id="windows">
</g>
</svg>
