<?xml version="1.0" encoding="utf-8"?>
<!-- Generator: Adobe Illustrator 18.0.0, SVG Export Plug-In . SVG Version: 6.00 Build 0)  -->
<!DOCTYPE svg PUBLIC "-//W3C//DTD SVG 1.1//EN" "http://www.w3.org/Graphics/SVG/1.1/DTD/svg11.dtd">
<svg version="1.1" xmlns="http://www.w3.org/2000/svg" xmlns:xlink="http://www.w3.org/1999/xlink" x="0px" y="0px"
	 viewBox="0 0 48 48" enable-background="new 0 0 48 48" xml:space="preserve">
<g id="Layer_1">
</g>
<g id="bracket">
</g>
<g id="periscope">
</g>
<g id="vine">
</g>
<g id="clear">
</g>
<g id="flipbook">
</g>
<g id="pocket">
</g>
<g id="crome">
</g>
<g id="google_app">
</g>
<g id="application">
</g>
<g id="googlepluse">
</g>
<g id="amazon">
</g>
<g id="drive">
</g>
<g id="pininterest">
</g>
<g id="soundcloude">
</g>
<g id="instagram">
</g>
<g id="flikr">
</g>
<g id="wists">
</g>
<g id="technorati">
</g>
<g id="yelp">
</g>
<g id="youtube">
</g>
<g id="xing6">
</g>
<g id="wiki">
</g>
<g id="whatsapp">
</g>
<g id="virb">
</g>
<g id="vimeo">
</g>
<g id="twitter_1_">
</g>
<g id="twitter">
</g>
<g id="yahoo">
</g>
<g id="bing_1_">
</g>
<g id="samsung">
</g>
<g id="smile">
</g>
<g id="slideshare">
</g>
<g id="skype">
</g>
<g id="simplenote">
</g>
<g id="shark">
</g>
<g id="share">
</g>
<g id="retweet">
</g>
<g id="tumnlr">
</g>
<g id="reddit">
</g>
<g id="quora">
</g>
<g id="qik">
</g>
<g id="podcast">
</g>
<g id="plurk">
</g>
<g id="playstation">
</g>
<g id="pinchat">
</g>
<g id="pin">
</g>
<g id="rss">
</g>
<g id="picasa">
</g>
<g id="path">
</g>
<g id="pandora">
</g>
<g id="orkut">
</g>
<g id="newsvine">
</g>
<g id="myspace_1_">
</g>
<g id="myspace">
</g>
<g id="msn">
</g>
<g id="photobucket">
</g>
<g id="forest">
</g>
<g id="githhub">
</g>
<g id="google_1_">
</g>
<g id="google">
</g>
<g id="hype">
</g>
<g id="instapaper">
</g>
<g id="itunes">
</g>
<g id="kik">
</g>
<g id="lastfm">
</g>
<g id="linkedin-1">
</g>
<g id="linkedin">
</g>
<g id="map">
</g>
<g id="facebook_1_">
</g>
<g id="evernote">
</g>
<g id="etsy">
</g>
<g id="diigo">
</g>
<g id="dribbble">
</g>
<g id="drupal">
</g>
<g id="dropbox">
</g>
<g id="facebook">
</g>
<g id="digg6">
</g>
<g id="devianart">
</g>
<g id="designbump">
</g>
<g id="delicious5">
</g>
<g id="dailybooth">
</g>
<g id="creative9">
</g>
<g id="coroflot">
	<path id="Coroflot" fill="none" stroke="#000000" stroke-width="2" stroke-miterlimit="10" d="M21.3397465,30.8079109
		c0,1.1082764-0.9013309,2.0061989-2.0115566,2.0061989s-2.0100937-0.8979225-2.0100937-2.0061989
		c0-1.1092529,0.899868-2.0105839,2.0100937-2.0105839S21.3397465,29.6981697,21.3397465,30.8079109z M43.5306435,28.6380997
		c0,5.8559608-4.7530365,10.6021805-10.6114273,10.6021805c-0.0925217,0-0.1830902-0.0077896-0.2751236-0.0102272
		C30.7922554,43.2239494,26.7569714,46,22.0623665,46c-6.4446726,0-11.6680937-5.2200127-11.6680937-11.6603012
		c0-5.1265221,3.3189936-9.4719868,7.9244871-11.0321465c0.1704292-7.9035501-2.762907-13.1337881-6.14569-12.8279886
		C8.6334925,10.800458,6.5,10.5,5,9c0.6791482-0.8080835,0.3223572-2.2308655,1-2c5.9841919,2.0387497,4.3841248-2.1398163,3-5
		c2.2214355-1.183754,4.1733513,1.148957,4,4c8.2151909-2.0120425,15.3853016,8.8688545,17.4888878,12.3295479
		c0.7815399-0.184063,1.5922966-0.2941132,2.430809-0.2941132C38.777607,18.0344601,43.5306435,22.7816544,43.5306435,28.6380997z
		 M20.9988861,22.7373428c0.3505993-0.0316505,0.7041168-0.0535641,1.0634823-0.0535641
		c0.673439,0,1.3288631,0.0691452,1.9721127,0.1787071c1.1618423-1.7822056,2.8442249-3.1894665,4.8304615-4.0153217
		C22.9739227,9.6040401,17.8279247,8.4236946,14.8945885,8.7606573
		C20.1282349,12.7379971,20.8907852,20.7890892,20.9988861,22.7373428z"/>
	<path fill="none" stroke="#000000" stroke-width="2" stroke-linecap="round" stroke-miterlimit="10" d="M26.4403648,26.1202965
		c4.0875931,1.1367836,6.4796982,5.3719788,5.3429146,9.4595718"/>
</g>
<g id="brightkite">
</g>
<g id="bnter">
</g>
<g id="blip">
</g>
<g id="blogger">
</g>
<g id="black">
</g>
<g id="bing">
</g>
<g id="behance">
</g>
<g id="bebo">
</g>
<g id="basecamp">
</g>
<g id="baidu">
</g>
<g id="aws">
</g>
<g id="arto">
</g>
<g id="apple">
</g>
<g id="paypal">
</g>
<g id="radio">
</g>
<g id="speech">
</g>
<g id="windows">
</g>
</svg>
