<?xml version="1.0" encoding="utf-8"?>
<!-- Generator: Adobe Illustrator 18.0.0, SVG Export Plug-In . SVG Version: 6.00 Build 0)  -->
<!DOCTYPE svg PUBLIC "-//W3C//DTD SVG 1.1//EN" "http://www.w3.org/Graphics/SVG/1.1/DTD/svg11.dtd">
<svg version="1.1" xmlns="http://www.w3.org/2000/svg" xmlns:xlink="http://www.w3.org/1999/xlink" x="0px" y="0px"
	 viewBox="0 0 48 48" enable-background="new 0 0 48 48" xml:space="preserve">
<g id="Layer_1">
</g>
<g id="bracket">
</g>
<g id="periscope">
</g>
<g id="vine">
</g>
<g id="clear">
</g>
<g id="flipbook">
</g>
<g id="pocket">
</g>
<g id="crome">
</g>
<g id="google_app">
</g>
<g id="application">
</g>
<g id="googlepluse">
</g>
<g id="amazon">
</g>
<g id="drive">
</g>
<g id="pininterest">
</g>
<g id="soundcloude">
</g>
<g id="instagram">
</g>
<g id="flikr">
</g>
<g id="wists">
</g>
<g id="technorati">
</g>
<g id="yelp">
</g>
<g id="youtube">
</g>
<g id="xing6">
</g>
<g id="wiki">
</g>
<g id="whatsapp">
</g>
<g id="virb">
</g>
<g id="vimeo">
</g>
<g id="twitter_1_">
</g>
<g id="twitter">
</g>
<g id="yahoo">
</g>
<g id="bing_1_">
</g>
<g id="samsung">
</g>
<g id="smile">
</g>
<g id="slideshare">
</g>
<g id="skype">
	
		<path id="Skype" fill="none" stroke="#000000" stroke-width="2" stroke-linecap="round" stroke-linejoin="round" stroke-miterlimit="10" d="
		M44.1632347,27.1853924c0.1642685-1.0389004,0.2508049-2.101757,0.2508049-3.186615
		c0-11.2748871-9.1393967-20.4142818-20.414772-20.4142818c-1.0819244,0-2.1477146,0.088979-3.1856365,0.2512918
		c-1.880291-1.1630793-4.0993824-1.836287-6.4773645-1.836287c-6.8132353,0-12.336277,5.5225525-12.336277,12.336277
		c0,2.3774939,0.6736969,4.5946302,1.8362879,6.4788294c-0.1608467,1.0403671-0.2493365,2.0998039-0.2493365,3.18466
		c0,11.2753735,9.1393948,20.4123287,20.4118366,20.4123287c1.082901,0,2.1486912-0.0836029,3.186615-0.2473793
		c1.8822441,1.1611252,4.0993805,1.8362846,6.4773617,1.8362846c6.8147049,0,12.3372574-5.5240173,12.3372574-12.3377419
		C46.0004997,31.2847748,45.3272934,29.0676365,44.1632347,27.1853924z M33.6916046,33.2833748
		c-0.8638763,1.2432594-2.1320705,2.2146912-3.7899113,2.9133224c-1.6612625,0.7000961-3.624176,1.0486755-5.89118,1.0486755
		c-2.7172756,0-4.9671688-0.4752045-6.7428341-1.4353905c-1.2589035-0.6873856-2.2826481-1.6099319-3.069768-2.7603035
		c-0.7885876-1.1508579-1.1885023-2.2777557-1.1885023-3.3767929c0-0.6482754,0.2473812-1.2124596,0.7284527-1.6720219
		c0.4864502-0.4629822,1.1127234-0.6952076,1.8519325-0.6952076c0.6057396,0,1.1259251,0.1823578,1.5493069,0.5436497
		c0.4204483,0.3612919,0.7729416,0.8863659,1.0613899,1.5796185c0.3456497,0.8032551,0.7211189,1.4745045,1.1205463,2.0098457
		c0.3969822,0.5289841,0.9557896,0.9709435,1.6793537,1.3165932c0.7157421,0.3466263,1.668108,0.5196953,2.860033,0.5196953
		c1.6309509,0,2.949501-0.3524933,3.9580898-1.0486755c1.0139694-0.7020512,1.5013962-1.5566387,1.5013962-2.5896759
		c0-0.8232994-0.2630253-1.4779263-0.8012981-1.9878445c-0.5431633-0.5162716-1.2452164-0.909832-2.1159363-1.184103
		c-0.8741417-0.2772026-2.0479794-0.571516-3.519062-0.8814774c-1.9751339-0.4307156-3.6271076-0.9328117-4.9647236-1.508728
		c-1.3395729-0.5788517-2.4063396-1.3693924-3.1968813-2.3682041c-0.7924986-1.0085888-1.1875248-2.2621136-1.1875248-3.7468891
		c0-1.4158382,0.4170275-2.6820745,1.2520599-3.7840433c0.8345432-1.1049013,2.0421133-1.9506893,3.616353-2.5398073
		c1.568861-0.589118,3.415905-0.8834314,5.5318413-0.8834314c1.6920624,0,3.1558151,0.1955576,4.3946724,0.585207
		c1.2359257,0.3925819,2.2655373,0.9103212,3.0888367,1.5600624c0.8189011,0.6482744,1.4207268,1.3322382,1.802063,2.0499344
		c0.3808479,0.7196531,0.5729828,1.4226828,0.5729828,2.1086016c0,0.6380081-0.2473793,1.2163696-0.7289391,1.7233543
		c-0.4820518,0.5079632-1.0980587,0.7665882-1.8177128,0.764143c-0.6487617,0-1.1577015-0.1496029-1.5106831-0.4664059
		c-0.3436928-0.3065357-0.7044964-0.7944527-1.0951252-1.4745045c-0.4932938-0.948946-1.0843678-1.6881533-1.7722435-2.2171373
		c-0.6692963-0.5187178-1.7737083-0.7890759-3.3103046-0.7856541c-1.4217052,0-2.5593624,0.2904034-3.4178619,0.8584986
		c-0.8638763,0.5773849-1.2769928,1.2471695-1.2789497,2.0318451c0.0014668,0.4918289,0.1427574,0.9064102,0.4272957,1.2608585
		c0.2889347,0.3578701,0.6908054,0.6678295,1.2075691,0.929388c0.5167618,0.2654705,1.0423241,0.4708061,1.5708199,0.6184521
		c0.5343609,0.1515579,1.421217,0.3705826,2.6537189,0.6604977c1.5458851,0.3334255,2.9485226,0.7054749,4.2084064,1.1112556
		c1.2574348,0.4077396,2.3305588,0.8995667,3.2174149,1.4852619c0.8936996,0.5842285,1.5923309,1.3288155,2.0910034,2.2283802
		c0.501606,0.9010315,0.7519188,2.0015354,0.7519188,3.2961273C34.9915733,30.6399212,34.5569458,32.0420685,33.6916046,33.2833748z
		"/>
</g>
<g id="simplenote">
</g>
<g id="shark">
</g>
<g id="share">
</g>
<g id="retweet">
</g>
<g id="tumnlr">
</g>
<g id="reddit">
</g>
<g id="quora">
</g>
<g id="qik">
</g>
<g id="podcast">
</g>
<g id="plurk">
</g>
<g id="playstation">
</g>
<g id="pinchat">
</g>
<g id="pin">
</g>
<g id="rss">
</g>
<g id="picasa">
</g>
<g id="path">
</g>
<g id="pandora">
</g>
<g id="orkut">
</g>
<g id="newsvine">
</g>
<g id="myspace_1_">
</g>
<g id="myspace">
</g>
<g id="msn">
</g>
<g id="photobucket">
</g>
<g id="forest">
</g>
<g id="githhub">
</g>
<g id="google_1_">
</g>
<g id="google">
</g>
<g id="hype">
</g>
<g id="instapaper">
</g>
<g id="itunes">
</g>
<g id="kik">
</g>
<g id="lastfm">
</g>
<g id="linkedin-1">
</g>
<g id="linkedin">
</g>
<g id="map">
</g>
<g id="facebook_1_">
</g>
<g id="evernote">
</g>
<g id="etsy">
</g>
<g id="diigo">
</g>
<g id="dribbble">
</g>
<g id="drupal">
</g>
<g id="dropbox">
</g>
<g id="facebook">
</g>
<g id="digg6">
</g>
<g id="devianart">
</g>
<g id="designbump">
</g>
<g id="delicious5">
</g>
<g id="dailybooth">
</g>
<g id="creative9">
</g>
<g id="coroflot">
</g>
<g id="brightkite">
</g>
<g id="bnter">
</g>
<g id="blip">
</g>
<g id="blogger">
</g>
<g id="black">
</g>
<g id="bing">
</g>
<g id="behance">
</g>
<g id="bebo">
</g>
<g id="basecamp">
</g>
<g id="baidu">
</g>
<g id="aws">
</g>
<g id="arto">
</g>
<g id="apple">
</g>
<g id="paypal">
</g>
<g id="radio">
</g>
<g id="speech">
</g>
<g id="windows">
</g>
</svg>
