<?xml version="1.0" encoding="utf-8"?>
<!-- Generator: Adobe Illustrator 18.0.0, SVG Export Plug-In . SVG Version: 6.00 Build 0)  -->
<!DOCTYPE svg PUBLIC "-//W3C//DTD SVG 1.1//EN" "http://www.w3.org/Graphics/SVG/1.1/DTD/svg11.dtd">
<svg version="1.1" xmlns="http://www.w3.org/2000/svg" xmlns:xlink="http://www.w3.org/1999/xlink" x="0px" y="0px"
	 viewBox="0 0 48 48" enable-background="new 0 0 48 48" xml:space="preserve">
<g id="Layer_1">
</g>
<g id="bracket">
</g>
<g id="periscope">
</g>
<g id="vine">
</g>
<g id="clear">
</g>
<g id="flipbook">
</g>
<g id="pocket">
</g>
<g id="crome">
</g>
<g id="google_app">
</g>
<g id="application">
</g>
<g id="googlepluse">
</g>
<g id="amazon">
</g>
<g id="drive">
</g>
<g id="pininterest">
</g>
<g id="soundcloude">
</g>
<g id="instagram">
</g>
<g id="flikr">
</g>
<g id="wists">
</g>
<g id="technorati">
</g>
<g id="yelp">
</g>
<g id="youtube">
</g>
<g id="xing6">
</g>
<g id="wiki">
</g>
<g id="whatsapp">
	
		<path id="WhatsApp" fill="none" stroke="#000000" stroke-width="2" stroke-linecap="round" stroke-linejoin="round" stroke-miterlimit="10" d="
		M45,23.4591331c0,11.2994003-9.2302017,20.4591331-20.6182671,20.4591331c-3.6147976,0-7.0116653-0.9240036-9.9665985-2.5456696
		L3.000001,45l3.7216668-10.9769325c-1.8773999-3.0832672-2.9586666-6.6989994-2.9586666-10.5639343
		c0-11.2993984,9.2311325-20.4591312,20.6191998-20.4591312S45,12.1597338,45,23.4591331z M24.3817329,6.2582674
		c-9.5591984,0-17.3347988,7.7163334-17.3347988,17.2008667c0,3.7636662,1.2268662,7.2492027,3.3021331,10.0851326
		L8.1832685,39.932003l6.6616659-2.1172676c2.7369995,1.7971306,6.0158005,2.8452644,9.5367985,2.8452644
		c9.5582695,0,17.3348007-7.7158623,17.3348007-17.2003994S33.9404678,6.2582674,24.3817329,6.2582674z M34.7935333,28.1710663
		c-0.1274033-0.2085991-0.463871-0.3345985-0.9687996-0.5851994c-0.505867-0.2505989-2.9913311-1.4644012-3.4533348-1.6310005
		c-0.4638653-0.1670666-0.8012657-0.2515335-1.1381989,0.2506008c-0.3364677,0.5021324-1.3052673,1.6309986-1.600666,1.9655991
		c-0.2944679,0.3350677-0.5889339,0.3770676-1.0948009,0.1260014c-0.5049343-0.2505989-2.1335983-0.7802677-4.0641994-2.4887333
		c-1.5022011-1.3290672-2.5167332-2.9698658-2.8116665-3.4724655c-0.2944679-0.501667-0.0308018-0.7727985,0.2216644-1.0224686
		c0.2277336-0.2249317,0.505867-0.5856667,0.7583332-0.8782654c0.2534008-0.293066,0.3374004-0.501667,0.5049343-0.8367329
		c0.1693993-0.3346004,0.0849323-0.6272011-0.0419998-0.8787327c-0.1260014-0.2506008-1.1377335-2.7183342-1.5586662-3.7226009
		c-0.4209347-1.0033331-0.8414021-0.8362665-1.1368008-0.8362665c-0.2944679,0-0.6318665-0.0420008-0.9687996-0.0420008
		s-0.8848,0.1255331-1.3481998,0.6272001c-0.4629345,0.5021334-1.7682009,1.7154665-1.7682009,4.1827326
		c0,2.4677353,1.8102007,4.8519325,2.0635996,5.1860657c0.2524662,0.3341331,3.4953327,5.5626659,8.6333332,7.570734
		c5.1389332,2.0076008,5.1389332,1.3379307,6.065733,1.2544003c0.9258671-0.0835342,2.9894657-1.2128658,3.4117985-2.3837337
		C34.9190674,29.3843994,34.9190674,28.3801327,34.7935333,28.1710663z"/>
</g>
<g id="virb">
</g>
<g id="vimeo">
</g>
<g id="twitter_1_">
</g>
<g id="twitter">
</g>
<g id="yahoo">
</g>
<g id="bing_1_">
</g>
<g id="samsung">
</g>
<g id="smile">
</g>
<g id="slideshare">
</g>
<g id="skype">
</g>
<g id="simplenote">
</g>
<g id="shark">
</g>
<g id="share">
</g>
<g id="retweet">
</g>
<g id="tumnlr">
</g>
<g id="reddit">
</g>
<g id="quora">
</g>
<g id="qik">
</g>
<g id="podcast">
</g>
<g id="plurk">
</g>
<g id="playstation">
</g>
<g id="pinchat">
</g>
<g id="pin">
</g>
<g id="rss">
</g>
<g id="picasa">
</g>
<g id="path">
</g>
<g id="pandora">
</g>
<g id="orkut">
</g>
<g id="newsvine">
</g>
<g id="myspace_1_">
</g>
<g id="myspace">
</g>
<g id="msn">
</g>
<g id="photobucket">
</g>
<g id="forest">
</g>
<g id="githhub">
</g>
<g id="google_1_">
</g>
<g id="google">
</g>
<g id="hype">
</g>
<g id="instapaper">
</g>
<g id="itunes">
</g>
<g id="kik">
</g>
<g id="lastfm">
</g>
<g id="linkedin-1">
</g>
<g id="linkedin">
</g>
<g id="map">
</g>
<g id="facebook_1_">
</g>
<g id="evernote">
</g>
<g id="etsy">
</g>
<g id="diigo">
</g>
<g id="dribbble">
</g>
<g id="drupal">
</g>
<g id="dropbox">
</g>
<g id="facebook">
</g>
<g id="digg6">
</g>
<g id="devianart">
</g>
<g id="designbump">
</g>
<g id="delicious5">
</g>
<g id="dailybooth">
</g>
<g id="creative9">
</g>
<g id="coroflot">
</g>
<g id="brightkite">
</g>
<g id="bnter">
</g>
<g id="blip">
</g>
<g id="blogger">
</g>
<g id="black">
</g>
<g id="bing">
</g>
<g id="behance">
</g>
<g id="bebo">
</g>
<g id="basecamp">
</g>
<g id="baidu">
</g>
<g id="aws">
</g>
<g id="arto">
</g>
<g id="apple">
</g>
<g id="paypal">
</g>
<g id="radio">
</g>
<g id="speech">
</g>
<g id="windows">
</g>
</svg>
