<?xml version="1.0" encoding="utf-8"?>
<!-- Generator: Adobe Illustrator 18.0.0, SVG Export Plug-In . SVG Version: 6.00 Build 0)  -->
<!DOCTYPE svg PUBLIC "-//W3C//DTD SVG 1.1//EN" "http://www.w3.org/Graphics/SVG/1.1/DTD/svg11.dtd">
<svg version="1.1" xmlns="http://www.w3.org/2000/svg" xmlns:xlink="http://www.w3.org/1999/xlink" x="0px" y="0px"
	 viewBox="0 0 48 48" enable-background="new 0 0 48 48" xml:space="preserve">
<g id="Layer_1">
</g>
<g id="bracket">
</g>
<g id="periscope">
</g>
<g id="vine">
</g>
<g id="clear">
</g>
<g id="flipbook">
</g>
<g id="pocket">
</g>
<g id="crome">
</g>
<g id="google_app">
</g>
<g id="application">
</g>
<g id="googlepluse">
</g>
<g id="amazon">
</g>
<g id="drive">
</g>
<g id="pininterest">
</g>
<g id="soundcloude">
</g>
<g id="instagram">
</g>
<g id="flikr">
</g>
<g id="wists">
</g>
<g id="technorati">
</g>
<g id="yelp">
</g>
<g id="youtube">
</g>
<g id="xing6">
</g>
<g id="wiki">
</g>
<g id="whatsapp">
</g>
<g id="virb">
</g>
<g id="vimeo">
</g>
<g id="twitter_1_">
</g>
<g id="twitter">
</g>
<g id="yahoo">
</g>
<g id="bing_1_">
</g>
<g id="samsung">
</g>
<g id="smile">
</g>
<g id="slideshare">
</g>
<g id="skype">
</g>
<g id="simplenote">
</g>
<g id="shark">
</g>
<g id="share">
</g>
<g id="retweet">
</g>
<g id="tumnlr">
</g>
<g id="reddit">
</g>
<g id="quora">
</g>
<g id="qik">
</g>
<g id="podcast">
</g>
<g id="plurk">
</g>
<g id="playstation">
</g>
<g id="pinchat">
</g>
<g id="pin">
</g>
<g id="rss">
</g>
<g id="picasa">
</g>
<g id="path">
</g>
<g id="pandora">
</g>
<g id="orkut">
</g>
<g id="newsvine">
</g>
<g id="myspace_1_">
</g>
<g id="myspace">
</g>
<g id="msn">
</g>
<g id="photobucket">
</g>
<g id="forest">
</g>
<g id="githhub">
</g>
<g id="google_1_">
	<path id="Google" fill="none" stroke="#000000" stroke-width="2" stroke-linejoin="round" stroke-miterlimit="10" d="M38.7422333,3
		H26.570734C23.380806,3,19.363287,2.9818785,15.9969463,5.7545114c-2.543745,2.1859221-3.7811356,4.9489942-3.7811356,7.6656556
		c0,4.6032286,3.5452518,9.1462069,9.807663,9.1462069c0.5907097,0,1.2378902-0.1210823,1.8925667-0.1785545
		c-0.2958546,0.706152-0.5942059,1.2658062-0.5942059,2.2708092c0,1.8305969,0.9460335,2.9347687,1.772625,3.9977436
		c-2.6556892,0.1759129-7.6202431,0.463129-11.2854347,2.7050247c-3.4857817,2.0699806-4.5512562,5.0736771-4.5512562,7.1996269
		c-0.0009985,4.3678474,4.1364613,8.4409294,12.7047367,8.4409294c10.1629906,0,15.5413399-5.6081924,15.5413399-11.1604538
		c0-4.0689926-2.3638382-6.0794792-4.9635544-8.2634029l-2.1279488-1.6519241
		c-0.6471806-0.5322361-1.5332451-1.2390079-1.5332451-2.538866c0-1.2978611,0.8860626-2.1260128,1.6526852-2.8931351
		c2.4802761-1.9470387,4.9635525-3.5848866,4.9635525-7.952734C35.4953346,8.0541496,32.6567345,6,31.2994061,5h3.6651936
		L38.7422333,3z M33.5467911,38.1439095c0,3.6596947-3.0150127,6.3733559-8.6882172,6.3733559
		c-6.3208828,0-10.3993711-3.0105171-10.3993711-7.1989479c0-4.1939316,3.7821341-5.6062374,5.0804949-6.0790043
		c2.4832764-0.8275909,5.6732044-0.945034,6.2039433-0.945034c0.5917072,0,0.8870621,0,1.3618259,0.057972
		C31.5972557,33.5391808,33.5467911,35.1343956,33.5467911,38.1439095z M28.2286129,18.3346462
		c-0.8335629,0.8304806-2.240448,1.4553223-3.542532,1.4553223c-4.4756088,0-6.5051327-5.7741709-6.5051327-9.2572565
		c0-1.3527231,0.2606812-2.7556438,1.144001-3.8485665c0.8335629-1.0400815,2.290205-1.7168832,3.6446896-1.7168832
		c4.3201714,0,6.5610561,5.8252497,6.5610561,9.5685749C29.530695,15.4737597,29.4245739,17.1364822,28.2286129,18.3346462z"/>
</g>
<g id="google">
</g>
<g id="hype">
</g>
<g id="instapaper">
</g>
<g id="itunes">
</g>
<g id="kik">
</g>
<g id="lastfm">
</g>
<g id="linkedin-1">
</g>
<g id="linkedin">
</g>
<g id="map">
</g>
<g id="facebook_1_">
</g>
<g id="evernote">
</g>
<g id="etsy">
</g>
<g id="diigo">
</g>
<g id="dribbble">
</g>
<g id="drupal">
</g>
<g id="dropbox">
</g>
<g id="facebook">
</g>
<g id="digg6">
</g>
<g id="devianart">
</g>
<g id="designbump">
</g>
<g id="delicious5">
</g>
<g id="dailybooth">
</g>
<g id="creative9">
</g>
<g id="coroflot">
</g>
<g id="brightkite">
</g>
<g id="bnter">
</g>
<g id="blip">
</g>
<g id="blogger">
</g>
<g id="black">
</g>
<g id="bing">
</g>
<g id="behance">
</g>
<g id="bebo">
</g>
<g id="basecamp">
</g>
<g id="baidu">
</g>
<g id="aws">
</g>
<g id="arto">
</g>
<g id="apple">
</g>
<g id="paypal">
</g>
<g id="radio">
</g>
<g id="speech">
</g>
<g id="windows">
</g>
</svg>
