<?xml version="1.0" encoding="utf-8"?>
<!-- Generator: Adobe Illustrator 18.0.0, SVG Export Plug-In . SVG Version: 6.00 Build 0)  -->
<!DOCTYPE svg PUBLIC "-//W3C//DTD SVG 1.1//EN" "http://www.w3.org/Graphics/SVG/1.1/DTD/svg11.dtd">
<svg version="1.1" xmlns="http://www.w3.org/2000/svg" xmlns:xlink="http://www.w3.org/1999/xlink" x="0px" y="0px"
	 viewBox="0 0 48 48" enable-background="new 0 0 48 48" xml:space="preserve">
<g id="Layer_1">
</g>
<g id="bracket">
</g>
<g id="periscope">
</g>
<g id="vine">
</g>
<g id="clear">
</g>
<g id="flipbook">
</g>
<g id="pocket">
</g>
<g id="crome">
</g>
<g id="google_app">
</g>
<g id="application">
</g>
<g id="googlepluse">
</g>
<g id="amazon">
</g>
<g id="drive">
</g>
<g id="pininterest">
</g>
<g id="soundcloude">
</g>
<g id="instagram">
</g>
<g id="flikr">
</g>
<g id="wists">
</g>
<g id="technorati">
</g>
<g id="yelp">
</g>
<g id="youtube">
</g>
<g id="xing6">
</g>
<g id="wiki">
</g>
<g id="whatsapp">
</g>
<g id="virb">
</g>
<g id="vimeo">
</g>
<g id="twitter_1_">
</g>
<g id="twitter">
</g>
<g id="yahoo">
</g>
<g id="bing_1_">
</g>
<g id="samsung">
</g>
<g id="smile">
</g>
<g id="slideshare">
</g>
<g id="skype">
</g>
<g id="simplenote">
</g>
<g id="shark">
</g>
<g id="share">
</g>
<g id="retweet">
</g>
<g id="tumnlr">
</g>
<g id="reddit">
</g>
<g id="quora">
</g>
<g id="qik">
</g>
<g id="podcast">
</g>
<g id="plurk">
</g>
<g id="playstation">
</g>
<g id="pinchat">
</g>
<g id="pin">
</g>
<g id="rss">
</g>
<g id="picasa">
</g>
<g id="path">
</g>
<g id="pandora">
</g>
<g id="orkut">
</g>
<g id="newsvine">
</g>
<g id="myspace_1_">
</g>
<g id="myspace">
</g>
<g id="msn">
</g>
<g id="photobucket">
</g>
<g id="forest">
</g>
<g id="githhub">
</g>
<g id="google_1_">
</g>
<g id="google">
</g>
<g id="hype">
</g>
<g id="instapaper">
</g>
<g id="itunes">
</g>
<g id="kik">
</g>
<g id="lastfm">
</g>
<g id="linkedin-1">
</g>
<g id="linkedin">
</g>
<g id="map">
</g>
<g id="facebook_1_">
</g>
<g id="evernote">
</g>
<g id="etsy">
</g>
<g id="diigo">
</g>
<g id="dribbble">
</g>
<g id="drupal">
</g>
<g id="dropbox">
</g>
<g id="facebook">
</g>
<g id="digg6">
</g>
<g id="devianart">
</g>
<g id="designbump">
</g>
<g id="delicious5">
</g>
<g id="dailybooth">
</g>
<g id="creative9">
	<path id="Creative_Commons" fill="none" stroke="#000000" stroke-width="2" stroke-miterlimit="10" d="M24.1905994,23.9999809
		c0-4.5315247,3.0165405-7.2087059,6.8068447-7.2087059c2.6038322,0,4.846611,0.9524841,6.1616974,3.3466034l-3.0924721,1.6219063
		c-0.7226257-1.5449448-1.9607506-1.8796558-2.5795555-1.8796558c-2.2933979,0-3.1198483,1.776865-3.1198483,4.1198521
		c0,2.3435001,0.9803753,4.1198483,3.1198483,4.1198483c1.2381248,0,2.2179832-0.4638443,2.8615799-2.0087872l2.888958,1.4679794
		c-1.2376099,2.1880245-3.4814148,3.6296635-6.1105595,3.6296635
		C27.0268707,31.2092018,24.1905994,28.6095028,24.1905994,23.9999809z M17.6988392,31.2092018
		c2.6291428,0,4.8734703-1.441637,6.1105595-3.6296616l-2.8874073-1.4679813
		c-0.6451473,1.5444298-1.6250076,2.0087891-2.8620987,2.0087891c-2.1405048,0-3.1198473-1.77635-3.1198473-4.1198521
		c0-2.3424664,0.8254166-4.1198483,3.1198473-4.1198483c0.6182861,0,1.8558941,0.3347111,2.5785217,1.8796558l3.0924721-1.6219063
		c-1.3140545-2.3946381-3.5578651-3.3466053-6.1616993-3.3466053c-3.7903023,0-6.8068438,2.6771793-6.8068438,7.2087059
		C10.7628622,28.6095028,13.5975847,31.2092018,17.6988392,31.2092018z M8.8194447,39.1308937
		C4.6918387,35.0090179,2.512001,29.7105541,2.512001,24c0-5.6513424,2.2390494-11.0672741,6.3657007-15.247406
		c4.0096607-4.0617099,9.1978178-6.240593,15.0926924-6.240593s11.2009811,2.1788831,15.3285828,6.2993269
		C43.3668938,12.873992,45.487999,18.1724548,45.487999,24c0,5.8877125-2.1211052,11.1264877-6.130764,15.0712051
		c-4.2445946,4.179657-9.726902,6.4167938-15.3868408,6.4167938C18.3114109,45.487999,12.9456186,43.2508621,8.8194447,39.1308937z"
		/>
</g>
<g id="coroflot">
</g>
<g id="brightkite">
</g>
<g id="bnter">
</g>
<g id="blip">
</g>
<g id="blogger">
</g>
<g id="black">
</g>
<g id="bing">
</g>
<g id="behance">
</g>
<g id="bebo">
</g>
<g id="basecamp">
</g>
<g id="baidu">
</g>
<g id="aws">
</g>
<g id="arto">
</g>
<g id="apple">
</g>
<g id="paypal">
</g>
<g id="radio">
</g>
<g id="speech">
</g>
<g id="windows">
</g>
</svg>
