<?xml version="1.0" encoding="utf-8"?>
<!-- Generator: Adobe Illustrator 18.0.0, SVG Export Plug-In . SVG Version: 6.00 Build 0)  -->
<!DOCTYPE svg PUBLIC "-//W3C//DTD SVG 1.1//EN" "http://www.w3.org/Graphics/SVG/1.1/DTD/svg11.dtd">
<svg version="1.1" xmlns="http://www.w3.org/2000/svg" xmlns:xlink="http://www.w3.org/1999/xlink" x="0px" y="0px"
	 viewBox="0 0 48 48" enable-background="new 0 0 48 48" xml:space="preserve">
<g id="Layer_1">
</g>
<g id="bracket">
</g>
<g id="periscope">
</g>
<g id="vine">
</g>
<g id="clear">
</g>
<g id="flipbook">
</g>
<g id="pocket">
</g>
<g id="crome">
</g>
<g id="google_app">
</g>
<g id="application">
</g>
<g id="googlepluse">
</g>
<g id="amazon">
</g>
<g id="drive">
</g>
<g id="pininterest">
</g>
<g id="soundcloude">
</g>
<g id="instagram">
</g>
<g id="flikr">
</g>
<g id="wists">
</g>
<g id="technorati">
</g>
<g id="yelp">
</g>
<g id="youtube">
</g>
<g id="xing6">
</g>
<g id="wiki">
</g>
<g id="whatsapp">
</g>
<g id="virb">
</g>
<g id="vimeo">
</g>
<g id="twitter_1_">
</g>
<g id="twitter">
</g>
<g id="yahoo">
</g>
<g id="bing_1_">
</g>
<g id="samsung">
</g>
<g id="smile">
	
		<path id="Friendster" fill="none" stroke="#000000" stroke-width="2" stroke-linecap="round" stroke-linejoin="round" stroke-miterlimit="10" d="
		M20.1341629,10.0453329c2.9438572,2.5098906,4.064106,6.9107351,2.9438572,10.5892515
		c-1.2620602,3.3190117-6.8893929,3.3284969-8.066081-0.0962791c-1.2070427-3.4309425-0.6858082-7.7928953,1.8942747-10.485383
		C17.8054485,9.1465721,19.2657566,8.988163,20.1341629,10.0453329z M27.8288841,6.7239504
		c-3.031599,1.3986521-3.1971226,5.4973803-3.0776024,8.4213171c0.2281284,2.6773109,1.0253925,6.6968346,4.3875637,6.8073425
		c3.8601627-1.5489979,3.7733707-6.5455389,3.2364864-10.0011435C32.043335,9.6317616,30.6864204,6.3099041,27.8288841,6.7239504z
		 M42.7691765,11.7204905c-1.6419563-0.4206858-4.0807037-0.5245543-4.8224792,1.3901148
		c-2.4543991,4.9424725-2.2324371,10.9952335-5.722187,15.4918842c-2.8167515,3.4152908-7.3390102,5.8156242-11.8375568,5.0600929
		c-2.3913212-0.381321-4.6645441-1.7553082-5.9190149-3.868227c-2.5364494-4.199749-2.6469564-9.68717-5.6344481-13.5833797
		c-7.3774233-3.1572838-6.2040548,5.9588528-5.9612236,7.4817657c0.0113828,0.0692463,0.0232396,0.1384907,0.0350969,0.2077351
		c0,0.0028458,0.0014226,0.0099602,0.0014226,0.0099602l0,0c0.3500185,2.2011337,0.4666917,4.4677181,1.5276558,6.4715519
		c4.1665497,8.5963249,14.9322329,12.710701,23.9051361,10.2008171c9.8730888-2.820549,16.7164764-12.9174938,17.0010414-23.0466938
		C45.2871323,15.4307833,44.9551353,12.6657305,42.7691765,11.7204905z"/>
</g>
<g id="slideshare">
</g>
<g id="skype">
</g>
<g id="simplenote">
</g>
<g id="shark">
</g>
<g id="share">
</g>
<g id="retweet">
</g>
<g id="tumnlr">
</g>
<g id="reddit">
</g>
<g id="quora">
</g>
<g id="qik">
</g>
<g id="podcast">
</g>
<g id="plurk">
</g>
<g id="playstation">
</g>
<g id="pinchat">
</g>
<g id="pin">
</g>
<g id="rss">
</g>
<g id="picasa">
</g>
<g id="path">
</g>
<g id="pandora">
</g>
<g id="orkut">
</g>
<g id="newsvine">
</g>
<g id="myspace_1_">
</g>
<g id="myspace">
</g>
<g id="msn">
</g>
<g id="photobucket">
</g>
<g id="forest">
</g>
<g id="githhub">
</g>
<g id="google_1_">
</g>
<g id="google">
</g>
<g id="hype">
</g>
<g id="instapaper">
</g>
<g id="itunes">
</g>
<g id="kik">
</g>
<g id="lastfm">
</g>
<g id="linkedin-1">
</g>
<g id="linkedin">
</g>
<g id="map">
</g>
<g id="facebook_1_">
</g>
<g id="evernote">
</g>
<g id="etsy">
</g>
<g id="diigo">
</g>
<g id="dribbble">
</g>
<g id="drupal">
</g>
<g id="dropbox">
</g>
<g id="facebook">
</g>
<g id="digg6">
</g>
<g id="devianart">
</g>
<g id="designbump">
</g>
<g id="delicious5">
</g>
<g id="dailybooth">
</g>
<g id="creative9">
</g>
<g id="coroflot">
</g>
<g id="brightkite">
</g>
<g id="bnter">
</g>
<g id="blip">
</g>
<g id="blogger">
</g>
<g id="black">
</g>
<g id="bing">
</g>
<g id="behance">
</g>
<g id="bebo">
</g>
<g id="basecamp">
</g>
<g id="baidu">
</g>
<g id="aws">
</g>
<g id="arto">
</g>
<g id="apple">
</g>
<g id="paypal">
</g>
<g id="radio">
</g>
<g id="speech">
</g>
<g id="windows">
</g>
</svg>
