<?xml version="1.0" encoding="utf-8"?>
<!-- Generator: Adobe Illustrator 18.0.0, SVG Export Plug-In . SVG Version: 6.00 Build 0)  -->
<!DOCTYPE svg PUBLIC "-//W3C//DTD SVG 1.1//EN" "http://www.w3.org/Graphics/SVG/1.1/DTD/svg11.dtd">
<svg version="1.1" xmlns="http://www.w3.org/2000/svg" xmlns:xlink="http://www.w3.org/1999/xlink" x="0px" y="0px"
	 viewBox="0 0 48 48" enable-background="new 0 0 48 48" xml:space="preserve">
<g id="Layer_1">
</g>
<g id="bracket">
</g>
<g id="periscope">
</g>
<g id="vine">
</g>
<g id="clear">
</g>
<g id="flipbook">
</g>
<g id="pocket">
</g>
<g id="crome">
</g>
<g id="google_app">
</g>
<g id="application">
</g>
<g id="googlepluse">
</g>
<g id="amazon">
</g>
<g id="drive">
</g>
<g id="pininterest">
</g>
<g id="soundcloude">
</g>
<g id="instagram">
</g>
<g id="flikr">
</g>
<g id="wists">
</g>
<g id="technorati">
</g>
<g id="yelp">
</g>
<g id="youtube">
</g>
<g id="xing6">
</g>
<g id="wiki">
</g>
<g id="whatsapp">
</g>
<g id="virb">
</g>
<g id="vimeo">
</g>
<g id="twitter_1_">
	
		<path id="Twitter__x28_alt_x29_" fill="none" stroke="#000000" stroke-width="2" stroke-linecap="round" stroke-linejoin="round" stroke-miterlimit="10" d="
		M40.8405876,20.3372402c2.4460297-0.2017784,4.1047821-1.3137436,4.7435074-2.8224907
		c-0.8826027,0.5419483-3.6213837,1.1327705-5.1340027,0.570015c-0.0740318-0.3551712-0.1567764-0.6929207-0.2380676-0.9977665
		c-1.152607-4.2320433-5.0986786-7.6414843-9.2334595-7.2297001c0.3343639-0.1350021,0.6735649-0.2608128,1.0122852-0.3735571
		c0.4548512-0.1630688,3.1254025-0.5975962,2.7049046-1.5402002c-0.3546867-0.8288918-3.6170254,0.6266289-4.2310734,0.8167944
		c0.8105049-0.3048458,2.1518307-0.8293762,2.2950573-1.7613344c-1.2421284,0.1703267-2.4615116,0.757761-3.4036331,1.6118145
		c0.340168-0.3662996,0.5980797-0.8124404,0.6527576-1.2929354c-3.3136349,2.1169891-5.2491665,6.3848391-6.8154964,10.5244589
		c-1.230032-1.1918049-2.320219-2.130537-3.2981491-2.651679c-2.7436161-1.471489-6.0238628-3.0063658-11.1733465-4.9181881
		c-0.1582298,1.7037525,0.8424406,3.9692936,3.7259007,5.4756222c-0.6246929-0.0837126-1.7671413,0.1030674-2.6807127,0.3217821
		c0.3721056,1.9519844,1.5871372,3.5599289,4.877059,4.3375301c-1.5034256,0.0991955-2.2805414,0.4412994-2.9845924,1.1787395
		c0.6846952,1.3572922,2.3555431,2.9550743,5.3614244,2.6270027c-3.3416967,1.4405193-1.3626156,4.1081657,1.3568096,3.7099323
		c-4.6389866,4.7914085-11.9528809,4.4396248-16.152504,0.4321041c10.9652767,14.9418316,34.8013611,8.8366718,38.35355-5.5554619
		c2.6608734,0.0227432,4.22575-0.9217968,5.1959343-1.9631138C44.2413177,21.0969372,42.0193253,20.827898,40.8405876,20.3372402z"
		/>
</g>
<g id="twitter">
</g>
<g id="yahoo">
</g>
<g id="bing_1_">
</g>
<g id="samsung">
</g>
<g id="smile">
</g>
<g id="slideshare">
</g>
<g id="skype">
</g>
<g id="simplenote">
</g>
<g id="shark">
</g>
<g id="share">
</g>
<g id="retweet">
</g>
<g id="tumnlr">
</g>
<g id="reddit">
</g>
<g id="quora">
</g>
<g id="qik">
</g>
<g id="podcast">
</g>
<g id="plurk">
</g>
<g id="playstation">
</g>
<g id="pinchat">
</g>
<g id="pin">
</g>
<g id="rss">
</g>
<g id="picasa">
</g>
<g id="path">
</g>
<g id="pandora">
</g>
<g id="orkut">
</g>
<g id="newsvine">
</g>
<g id="myspace_1_">
</g>
<g id="myspace">
</g>
<g id="msn">
</g>
<g id="photobucket">
</g>
<g id="forest">
</g>
<g id="githhub">
</g>
<g id="google_1_">
</g>
<g id="google">
</g>
<g id="hype">
</g>
<g id="instapaper">
</g>
<g id="itunes">
</g>
<g id="kik">
</g>
<g id="lastfm">
</g>
<g id="linkedin-1">
</g>
<g id="linkedin">
</g>
<g id="map">
</g>
<g id="facebook_1_">
</g>
<g id="evernote">
</g>
<g id="etsy">
</g>
<g id="diigo">
</g>
<g id="dribbble">
</g>
<g id="drupal">
</g>
<g id="dropbox">
</g>
<g id="facebook">
</g>
<g id="digg6">
</g>
<g id="devianart">
</g>
<g id="designbump">
</g>
<g id="delicious5">
</g>
<g id="dailybooth">
</g>
<g id="creative9">
</g>
<g id="coroflot">
</g>
<g id="brightkite">
</g>
<g id="bnter">
</g>
<g id="blip">
</g>
<g id="blogger">
</g>
<g id="black">
</g>
<g id="bing">
</g>
<g id="behance">
</g>
<g id="bebo">
</g>
<g id="basecamp">
</g>
<g id="baidu">
</g>
<g id="aws">
</g>
<g id="arto">
</g>
<g id="apple">
</g>
<g id="paypal">
</g>
<g id="radio">
</g>
<g id="speech">
</g>
<g id="windows">
</g>
</svg>
