<?xml version="1.0" encoding="utf-8"?>
<!-- Generator: Adobe Illustrator 18.0.0, SVG Export Plug-In . SVG Version: 6.00 Build 0)  -->
<!DOCTYPE svg PUBLIC "-//W3C//DTD SVG 1.1//EN" "http://www.w3.org/Graphics/SVG/1.1/DTD/svg11.dtd">
<svg version="1.1" xmlns="http://www.w3.org/2000/svg" xmlns:xlink="http://www.w3.org/1999/xlink" x="0px" y="0px"
	 viewBox="0 0 48 48" enable-background="new 0 0 48 48" xml:space="preserve">
<g id="Layer_1">
</g>
<g id="bracket">
</g>
<g id="periscope">
</g>
<g id="vine">
</g>
<g id="clear">
</g>
<g id="flipbook">
</g>
<g id="pocket">
</g>
<g id="crome">
</g>
<g id="google_app">
</g>
<g id="application">
	<g>
		<path fill="none" stroke="#000000" stroke-width="2" stroke-linecap="round" stroke-linejoin="round" stroke-miterlimit="10" d="
			M20.2447891,23.2744942l3.5803947-6.2368183c0.2674618-0.4661484,0.1056099-1.0648699-0.3605385-1.3365402l-2.5466061-1.4573498
			c-0.4652901-0.2699528-1.0673599-0.1073284-1.3340511,0.3589067l-3.9039936,6.7986193l0,0l-4.3007135,7.4894695l0,0
			l-3.5896678,6.2535629c-0.2699523,0.4662361-0.1056108,1.0648689,0.360538,1.3315582l2.5457468,1.4640503
			c0.4661493,0.2683182,1.0673609,0.1056099,1.3365412-0.3589096l4.988286-8.6902618l0,0L20.2447891,23.2744942z"/>
		<path fill="none" stroke="#000000" stroke-width="2" stroke-linecap="round" stroke-linejoin="round" stroke-miterlimit="10" d="
			M38.5060692,28.8907814h5.7458801c0.4880447,0,0.8846436-0.3957405,0.8846436-0.8837852v-5.721899
			c0-0.4880447-0.3965988-0.8837852-0.8846436-0.8837852h-9.5946121"/>
		
			<line fill="none" stroke="#000000" stroke-width="2" stroke-linecap="round" stroke-linejoin="round" stroke-miterlimit="10" x1="28.25214" y1="21.4013119" x2="22.3589478" y2="21.4013119"/>
		
			<line fill="none" stroke="#000000" stroke-width="2" stroke-linecap="round" stroke-linejoin="round" stroke-miterlimit="10" x1="18.0591087" y1="28.8907814" x2="31.7285538" y2="28.8907814"/>
		<path fill="none" stroke="#000000" stroke-width="2" stroke-linecap="round" stroke-linejoin="round" stroke-miterlimit="10" d="
			M14.6407528,21.4013119H3.7480502c-0.488903,0-0.8846447,0.3957405-0.8846447,0.8837852v5.721899
			c0,0.4880447,0.3957417,0.8837852,0.8846447,0.8837852h6.5927615"/>
		<path fill="none" stroke="#000000" stroke-width="2" stroke-linecap="round" stroke-linejoin="round" stroke-miterlimit="10" d="
			M8.8640594,40.0601997l-2.545661-1.4606934c-0.4662352-0.268322-0.897181-0.048687-0.9592595,0.4846077L4.91892,42.9178047
			c-0.0612202,0.5332947,0.2523508,0.7244225,0.6967769,0.4226151l3.2886324-2.2422218
			C9.3496304,40.7980232,9.3302946,40.3285255,8.8640594,40.0601997z"/>
		<path fill="none" stroke="#000000" stroke-width="2" stroke-linecap="round" stroke-linejoin="round" stroke-miterlimit="10" d="
			M37.6621513,28.9863472c-0.0142555-0.0251579-0.0334892-0.0603619-0.0519333-0.0955658l0,0
			c-0.2364807-0.4377289-0.829277-1.576355-1.6074524-3.0537968c-0.0091896-0.0201778-0.0193214-0.0369205-0.0285072-0.0570126
			c-0.0595016-0.1140251-0.1198654-0.228138-0.181942-0.3455124c-0.0444603-0.0838013-0.088871-0.1693211-0.1349792-0.2549267
			c-0.0377769-0.073761-0.0771904-0.1475124-0.1157417-0.2229862c-0.0696335-0.1308537-0.139183-0.2616234-0.2095909-0.3958263
			c-0.0226669-0.0419025-0.0436172-0.0838032-0.066288-0.1257038c-0.0788193-0.1509514-0.159256-0.3018932-0.2406731-0.4561901
			c-0.0234413-0.0436172-0.0461082-0.0872364-0.0704079-0.1324863c-1.7935867-3.3908997-4.0457687-7.5649433-5.43606-9.7602034
			c-2.4332676-3.8469934-5.681612-10.2581987-6.5880833-9.8021011c-1.27034,0.6322131,2.6605453,8.7708073,3.9627419,11.82967
			c1.3014221,3.0571461,6.3802071,14.7760487,7.3981133,15.287529c1.019619,0.5098572,1.4137306,0.2264233,2.0937653-0.0552921
			C37.0651436,31.0625114,38.2843132,30.1217117,37.6621513,28.9863472z"/>
		<path fill="none" stroke="#000000" stroke-width="2" stroke-linecap="round" stroke-linejoin="round" stroke-miterlimit="10" d="
			M41.5650864,36.0252533l-1.212471-2.3276558c-0.2750015-0.5265961-0.9198303-0.7412567-1.4346809-0.4779129l-1.4623299,0.7529297
			c-0.5149193,0.2666893-0.6775436,0.8904839-0.3606224,1.3936386l1.5344543,2.4232216
			c0.3170052,0.4998093,0.9852753,0.6641502,1.4816666,0.3639717l1.0439034-0.6272278
			C41.6539536,37.2276764,41.8383865,36.5518456,41.5650864,36.0252533z"/>
		<path fill="none" stroke="#000000" stroke-width="2" stroke-linecap="round" stroke-linejoin="round" stroke-miterlimit="10" d="
			M41.1910667,39.3944244c-0.3814888,0.3656044-1.2887154,1.1604347-0.1911316,2.7033005
			c1.0950966,1.5462227,3.5427017,1.6149979,3.8654594,2.6413155
			C44.8653946,44.7390404,45.6342964,36.8889465,41.1910667,39.3944244z"/>
	</g>
</g>
<g id="googlepluse">
</g>
<g id="amazon">
</g>
<g id="drive">
</g>
<g id="pininterest">
</g>
<g id="soundcloude">
</g>
<g id="instagram">
</g>
<g id="flikr">
</g>
<g id="wists">
</g>
<g id="technorati">
</g>
<g id="yelp">
</g>
<g id="youtube">
</g>
<g id="xing6">
</g>
<g id="wiki">
</g>
<g id="whatsapp">
</g>
<g id="virb">
</g>
<g id="vimeo">
</g>
<g id="twitter_1_">
</g>
<g id="twitter">
</g>
<g id="yahoo">
</g>
<g id="bing_1_">
</g>
<g id="samsung">
</g>
<g id="smile">
</g>
<g id="slideshare">
</g>
<g id="skype">
</g>
<g id="simplenote">
</g>
<g id="shark">
</g>
<g id="share">
</g>
<g id="retweet">
</g>
<g id="tumnlr">
</g>
<g id="reddit">
</g>
<g id="quora">
</g>
<g id="qik">
</g>
<g id="podcast">
</g>
<g id="plurk">
</g>
<g id="playstation">
</g>
<g id="pinchat">
</g>
<g id="pin">
</g>
<g id="rss">
</g>
<g id="picasa">
</g>
<g id="path">
</g>
<g id="pandora">
</g>
<g id="orkut">
</g>
<g id="newsvine">
</g>
<g id="myspace_1_">
</g>
<g id="myspace">
</g>
<g id="msn">
</g>
<g id="photobucket">
</g>
<g id="forest">
</g>
<g id="githhub">
</g>
<g id="google_1_">
</g>
<g id="google">
</g>
<g id="hype">
</g>
<g id="instapaper">
</g>
<g id="itunes">
</g>
<g id="kik">
</g>
<g id="lastfm">
</g>
<g id="linkedin-1">
</g>
<g id="linkedin">
</g>
<g id="map">
</g>
<g id="facebook_1_">
</g>
<g id="evernote">
</g>
<g id="etsy">
</g>
<g id="diigo">
</g>
<g id="dribbble">
</g>
<g id="drupal">
</g>
<g id="dropbox">
</g>
<g id="facebook">
</g>
<g id="digg6">
</g>
<g id="devianart">
</g>
<g id="designbump">
</g>
<g id="delicious5">
</g>
<g id="dailybooth">
</g>
<g id="creative9">
</g>
<g id="coroflot">
</g>
<g id="brightkite">
</g>
<g id="bnter">
</g>
<g id="blip">
</g>
<g id="blogger">
</g>
<g id="black">
</g>
<g id="bing">
</g>
<g id="behance">
</g>
<g id="bebo">
</g>
<g id="basecamp">
</g>
<g id="baidu">
</g>
<g id="aws">
</g>
<g id="arto">
</g>
<g id="apple">
</g>
<g id="paypal">
</g>
<g id="radio">
</g>
<g id="speech">
</g>
<g id="windows">
</g>
</svg>
