<?xml version="1.0" encoding="utf-8"?>
<!-- Generator: Adobe Illustrator 18.0.0, SVG Export Plug-In . SVG Version: 6.00 Build 0)  -->
<!DOCTYPE svg PUBLIC "-//W3C//DTD SVG 1.1//EN" "http://www.w3.org/Graphics/SVG/1.1/DTD/svg11.dtd">
<svg version="1.1" xmlns="http://www.w3.org/2000/svg" xmlns:xlink="http://www.w3.org/1999/xlink" x="0px" y="0px"
	 viewBox="0 0 48 48" enable-background="new 0 0 48 48" xml:space="preserve">
<g id="Layer_1">
</g>
<g id="bracket">
</g>
<g id="periscope">
</g>
<g id="vine">
</g>
<g id="clear">
</g>
<g id="flipbook">
</g>
<g id="pocket">
</g>
<g id="crome">
</g>
<g id="google_app">
</g>
<g id="application">
</g>
<g id="googlepluse">
</g>
<g id="amazon">
</g>
<g id="drive">
</g>
<g id="pininterest">
</g>
<g id="soundcloude">
</g>
<g id="instagram">
</g>
<g id="flikr">
</g>
<g id="wists">
</g>
<g id="technorati">
</g>
<g id="yelp">
</g>
<g id="youtube">
</g>
<g id="xing6">
</g>
<g id="wiki">
</g>
<g id="whatsapp">
</g>
<g id="virb">
</g>
<g id="vimeo">
</g>
<g id="twitter_1_">
</g>
<g id="twitter">
</g>
<g id="yahoo">
</g>
<g id="bing_1_">
</g>
<g id="samsung">
</g>
<g id="smile">
</g>
<g id="slideshare">
</g>
<g id="skype">
</g>
<g id="simplenote">
</g>
<g id="shark">
</g>
<g id="share">
</g>
<g id="retweet">
</g>
<g id="tumnlr">
</g>
<g id="reddit">
</g>
<g id="quora">
</g>
<g id="qik">
</g>
<g id="podcast">
</g>
<g id="plurk">
</g>
<g id="playstation">
</g>
<g id="pinchat">
</g>
<g id="pin">
</g>
<g id="rss">
</g>
<g id="picasa">
</g>
<g id="path">
</g>
<g id="pandora">
</g>
<g id="orkut">
</g>
<g id="newsvine">
</g>
<g id="myspace_1_">
</g>
<g id="myspace">
</g>
<g id="msn">
</g>
<g id="photobucket">
</g>
<g id="forest">
</g>
<g id="githhub">
</g>
<g id="google_1_">
</g>
<g id="google">
</g>
<g id="hype">
</g>
<g id="instapaper">
</g>
<g id="itunes">
</g>
<g id="kik">
</g>
<g id="lastfm">
</g>
<g id="linkedin-1">
</g>
<g id="linkedin">
</g>
<g id="map">
</g>
<g id="facebook_1_">
</g>
<g id="evernote">
</g>
<g id="etsy">
</g>
<g id="diigo">
</g>
<g id="dribbble">
	<path id="Dribbble" fill="none" stroke="#000000" stroke-width="2" stroke-linejoin="round" stroke-miterlimit="10" d="
		M23.4990444,2C11.6248331,2.0009556,2,11.6262674,2,23.5009556C2,35.3737335,11.6248331,45,23.4990444,45
		S44.9985657,35.3737335,45,23.5009556C44.9985657,11.6262674,35.3732529,2.0009556,23.4990444,2z M36.6728096,13.1475115
		c2.0974464,2.6636114,3.2153816,5.9621897,3.3811684,9.5641546C37.6263885,22.1966228,36,21.9731331,33,21.9731331V22h0.3751869
		c-1.720953,0-3.3367996,0.1288891-4.8589973,0.3988323c-0.3702793-0.9068222-0.7448559-1.7914848-1.1227779-2.6256828
		C30.7837238,18.2858276,34.0378647,16.154644,36.6728096,13.1475115z M23.4990444,6.7266555
		c3.956955,0,7.5861549,1.3831668,10.4595127,3.6860557c-2.1987343,2.632556-5.1012363,4.5393667-8.2368889,5.885745
		c-2.2030334-4.2603445-4.3320122-7.3080883-5.787323-9.1714211C21.0862675,6.8714223,22.2754555,6.7266555,23.4990444,6.7266555z
		 M16.0901451,8.4753218c1.1643448,1.3750448,3.4954205,4.1706161,5.9851227,8.8934507
		C17.0117779,18.8761597,11.9129343,19,8.8279238,19c-0.0879116,0-0.1748667,0-0.2603893,0H8.5646667
		c-0.5193443,0-0.9660664,0.2206402-1.339211,0.2091732C8.428977,14.3931713,11.7285109,10.6334438,16.0901451,8.4753218z
		 M6.7252226,23.5009556c0-0.0788345,0.0028663-0.3051834,0.0076442-0.3878403C7.2115998,23.1307926,7.8260221,23,8.5651445,23
		h0.0043011c3.3716784,0,9.2588549-0.1577835,15.2248659-2.0411835c0.325367,0.7109337,0.6469116,1.5245323,0.9655895,2.2932739
		c-3.98419,1.3325233-7.1222324,3.4918098-9.4432783,5.605978c-2.2340889,2.0353336-3.7438669,4.0688572-4.625844,5.4147587
		C8.222578,31.3507404,6.7266555,27.6136665,6.7252226,23.5009556z M23.4990444,40.2752571
		c-3.7328777,0-7.1733551-1.234581-9.9645329-3.306221c0.5934-0.9770584,1.8652449-2.8523369,3.890543-4.7906799
		c2.0840683-1.9971104,4.9607677-4.0525112,8.7165775-5.2761002c1.2766228,3.5785561,2.4318905,7.6697693,3.3119564,12.2745895
		C27.5998116,39.8829994,25.596489,40.2752571,23.4990444,40.2752571z M32.9924889,37.2967873
		C32.1415672,33.132,31.0713444,29.4864502,29.8964882,26.13484C30.9862995,25.9786053,32.1300964,26,33.3369637,26h0.0429993
		h0.0028648h0.0028648c2.0009346,0,4.199192,0.1391392,6.5833015,0.6809387
		C39.1438751,31.1161499,36.5748672,34.8262024,32.9924889,37.2967873z"/>
</g>
<g id="drupal">
</g>
<g id="dropbox">
</g>
<g id="facebook">
</g>
<g id="digg6">
</g>
<g id="devianart">
</g>
<g id="designbump">
</g>
<g id="delicious5">
</g>
<g id="dailybooth">
</g>
<g id="creative9">
</g>
<g id="coroflot">
</g>
<g id="brightkite">
</g>
<g id="bnter">
</g>
<g id="blip">
</g>
<g id="blogger">
</g>
<g id="black">
</g>
<g id="bing">
</g>
<g id="behance">
</g>
<g id="bebo">
</g>
<g id="basecamp">
</g>
<g id="baidu">
</g>
<g id="aws">
</g>
<g id="arto">
</g>
<g id="apple">
</g>
<g id="paypal">
</g>
<g id="radio">
</g>
<g id="speech">
</g>
<g id="windows">
</g>
</svg>
