<?xml version="1.0" encoding="utf-8"?>
<!-- Generator: Adobe Illustrator 18.0.0, SVG Export Plug-In . SVG Version: 6.00 Build 0)  -->
<!DOCTYPE svg PUBLIC "-//W3C//DTD SVG 1.1//EN" "http://www.w3.org/Graphics/SVG/1.1/DTD/svg11.dtd">
<svg version="1.1" xmlns="http://www.w3.org/2000/svg" xmlns:xlink="http://www.w3.org/1999/xlink" x="0px" y="0px"
	 viewBox="0 0 48 48" enable-background="new 0 0 48 48" xml:space="preserve">
<g id="Layer_1">
</g>
<g id="bracket">
</g>
<g id="periscope">
</g>
<g id="vine">
</g>
<g id="clear">
</g>
<g id="flipbook">
</g>
<g id="pocket">
</g>
<g id="crome">
</g>
<g id="google_app">
</g>
<g id="application">
</g>
<g id="googlepluse">
</g>
<g id="amazon">
</g>
<g id="drive">
</g>
<g id="pininterest">
</g>
<g id="soundcloude">
</g>
<g id="instagram">
</g>
<g id="flikr">
</g>
<g id="wists">
</g>
<g id="technorati">
	
		<path id="Technorati" fill="none" stroke="#000000" stroke-width="2" stroke-linecap="round" stroke-linejoin="round" stroke-miterlimit="10" d="
		M9.3153782,4.7010307c2.0558357-0.235189,4.1316357-0.0920305,6.196723-0.1455932
		c-2.0874863,2.6172709-3.9032631,5.6236024-4.1988325,9.0345764c-0.609642,5.2564526,2.0845642,10.4345112,6.1412125,13.6575279
		c1.0717411,0.6125622,0.6821957,1.9248505,0.6456738,2.9318295c-0.2590485,2.5004082-0.6305771,4.9881554-0.8068504,7.4968376
		c3.1748104-1.8381767,6.0175323-4.2402229,9.2673302-5.931345c6.5653343,1.2416821,13.7145004,0.4908314,19.4291573-3.1665325
		c-0.0024338,2.8904419,0.0038986,5.7808838,0.0082779,8.6722946c0.0735283,3.3106689-1.95504,6.563385-4.9901009,7.9009933
		c-1.3970184,0.7050781-2.9863701,0.8316841-4.5255661,0.784935c-8.7005386-0.0350571-17.40205,0.0029221-26.1016159-0.0150909
		c-4.3653641-0.0277557-8.1829271-3.9363785-8.1960745-8.2920036c-0.0287261-8.0110359,0.0243495-16.0249977,0.0155849-24.0370121
		C1.964134,9.4160137,5.2455826,5.4445796,9.3153782,4.7010307z M20.77878,10.3353462
		c-1.4617748,1.5148516-2.5013809,3.5278378-2.5169621,5.6688862c-0.1621494,2.9104061,1.459343,5.6805744,3.7250462,7.4067535
		c4.8001957,3.6490841,11.7847805,3.938324,17.0008183,1.00844c2.8802147-1.6020126,5.2364883-4.5674419,5.2798271-7.9740314
		c0.1100464-3.0185041-1.6424294-5.8578167-4.0571365-7.5601397c-2.7039452-1.9891257-6.1207619-2.8514862-9.4494419-2.7224483
		C27.0724049,6.2173438,23.3288555,7.6133838,20.77878,10.3353462z"/>
</g>
<g id="yelp">
</g>
<g id="youtube">
</g>
<g id="xing6">
</g>
<g id="wiki">
</g>
<g id="whatsapp">
</g>
<g id="virb">
</g>
<g id="vimeo">
</g>
<g id="twitter_1_">
</g>
<g id="twitter">
</g>
<g id="yahoo">
</g>
<g id="bing_1_">
</g>
<g id="samsung">
</g>
<g id="smile">
</g>
<g id="slideshare">
</g>
<g id="skype">
</g>
<g id="simplenote">
</g>
<g id="shark">
</g>
<g id="share">
</g>
<g id="retweet">
</g>
<g id="tumnlr">
</g>
<g id="reddit">
</g>
<g id="quora">
</g>
<g id="qik">
</g>
<g id="podcast">
</g>
<g id="plurk">
</g>
<g id="playstation">
</g>
<g id="pinchat">
</g>
<g id="pin">
</g>
<g id="rss">
</g>
<g id="picasa">
</g>
<g id="path">
</g>
<g id="pandora">
</g>
<g id="orkut">
</g>
<g id="newsvine">
</g>
<g id="myspace_1_">
</g>
<g id="myspace">
</g>
<g id="msn">
</g>
<g id="photobucket">
</g>
<g id="forest">
</g>
<g id="githhub">
</g>
<g id="google_1_">
</g>
<g id="google">
</g>
<g id="hype">
</g>
<g id="instapaper">
</g>
<g id="itunes">
</g>
<g id="kik">
</g>
<g id="lastfm">
</g>
<g id="linkedin-1">
</g>
<g id="linkedin">
</g>
<g id="map">
</g>
<g id="facebook_1_">
</g>
<g id="evernote">
</g>
<g id="etsy">
</g>
<g id="diigo">
</g>
<g id="dribbble">
</g>
<g id="drupal">
</g>
<g id="dropbox">
</g>
<g id="facebook">
</g>
<g id="digg6">
</g>
<g id="devianart">
</g>
<g id="designbump">
</g>
<g id="delicious5">
</g>
<g id="dailybooth">
</g>
<g id="creative9">
</g>
<g id="coroflot">
</g>
<g id="brightkite">
</g>
<g id="bnter">
</g>
<g id="blip">
</g>
<g id="blogger">
</g>
<g id="black">
</g>
<g id="bing">
</g>
<g id="behance">
</g>
<g id="bebo">
</g>
<g id="basecamp">
</g>
<g id="baidu">
</g>
<g id="aws">
</g>
<g id="arto">
</g>
<g id="apple">
</g>
<g id="paypal">
</g>
<g id="radio">
</g>
<g id="speech">
</g>
<g id="windows">
</g>
</svg>
