<?xml version="1.0" encoding="utf-8"?>
<!-- Generator: Adobe Illustrator 18.0.0, SVG Export Plug-In . SVG Version: 6.00 Build 0)  -->
<!DOCTYPE svg PUBLIC "-//W3C//DTD SVG 1.1//EN" "http://www.w3.org/Graphics/SVG/1.1/DTD/svg11.dtd">
<svg version="1.1" xmlns="http://www.w3.org/2000/svg" xmlns:xlink="http://www.w3.org/1999/xlink" x="0px" y="0px"
	 viewBox="0 0 48 48" enable-background="new 0 0 48 48" xml:space="preserve">
<g id="Layer_1">
	<g display="none">
	</g>
</g>
<g id="horizotal-bar">
</g>
<g id="verticle-bar">
</g>
<g id="hike">
</g>
<g id="node">
</g>
<g id="wave">
</g>
<g id="block">
</g>
<g id="piller">
</g>
<g id="graph_1_">
</g>
<g id="chart">
</g>
<g id="white-board">
</g>
<g id="statistics">
</g>
<g id="paraboal-s">
</g>
<g id="parabola">
</g>
<g id="graph-smooth">
</g>
<g id="graph-up">
</g>
<g id="graph-y">
</g>
<g id="graph-2">
</g>
<g id="graph">
</g>
<g id="part">
</g>
<g id="fill">
</g>
<g id="cross-2">
</g>
<g id="cross">
</g>
<g id="chart-7">
</g>
<g id="chart-6">
</g>
<g id="chart-4">
</g>
<g id="round-chart2">
</g>
<g id="round-chart">
</g>
<g id="community-3">
</g>
<g id="community_1_">
</g>
<g id="old-hairstylr">
</g>
<g id="girl-hair">
</g>
<g id="small-hair">
</g>
<g id="round-hair">
</g>
<g id="girl-2">
</g>
<g id="boy">
</g>
<g id="girl">
</g>
<g id="men">
</g>
<g id="women">
</g>
<g id="male_1_">
</g>
<g id="male-female">
</g>
<g id="group-m">
</g>
<g id="group-f">
	<g>
		<g>
			<g>
				
					<path fill="none" stroke="#000000" stroke-width="2" stroke-linecap="round" stroke-linejoin="round" stroke-miterlimit="10" d="
					M31.8887997,29.8834686c-3.7631493-1.2955112-3.800621-1.6039658-3.800621-3.084549
					c1.3983479-0.411293,4.8791904,0.3714714,6.083189-1.23382c1.1104355-1.4805832-0.2129669-2.6987381-1.2955132-4.5651321
					c-1.7890377-3.084547-1.8042793-4.2701702-1.9741096-5.9223318c-0.4687672-4.560071-3.1778679-6.6577454-6.8972797-6.9081841
					c-3.7194099,0.2504387-6.4285126,2.3481131-6.8972797,6.9081841c-0.1698303,1.6521616-0.1850719,2.8377848-1.9741106,5.9223318
					c-1.0825434,1.866394-2.4059477,3.084549-1.2955103,4.5651321c1.2039385,1.6052914,4.6848392,0.8225269,6.0831871,1.23382
					c0,1.4805832-0.0374718,1.7890377-3.800621,3.084549c-3.1518641,1.0850067-4.8798647,7.1710243-5.8650036,9.5214577
					c-0.3455439,0.8244324-0.1301603,1.7951851,0.5668821,2.354847c3.4930782,2.8046303,8.1034765,3.0722733,13.1703463,3.0722733
					c5.0747185,0,9.6913223-0.2735291,13.1862373-3.0870934c0.6964188-0.5606499,0.9105873-1.531826,0.5639229-2.3559303
					C36.7555962,37.0428886,35.0288925,30.9644451,31.8887997,29.8834686z"/>
			</g>
		</g>
		<g>
			<g>
				
					<path fill="none" stroke="#000000" stroke-width="2" stroke-linecap="round" stroke-linejoin="round" stroke-miterlimit="10" d="
					M37.9348679,38.6132278c3.1799355-0.1842918,5.6098595-0.7673073,7.923172-2.629631
					c0.6146202-0.4947968,0.8036385-1.351902,0.4976883-2.0792122c-0.8709984-2.0705662-2.3948898-5.6298351-5.1661644-6.5838451
					c-3.3211479-1.1433468-3.3542175-1.4155712-3.3542175-2.7222519c1.2341042-0.3629856,4.3061028,0.3278389,5.3686829-1.0889015
					c0.980011-1.3066807-0.1879501-2.3817577-1.1433449-4.0289326c-1.578907-2.7222519-1.5923576-3.7686176-1.7422409-5.2267237
					c-0.4137077-4.0244665-2.8046112-5.8757572-6.0871582-6.0967808c-2.047184,0.1378431-3.7475643,0.9097757-4.8378181,2.4474916"
					/>
			</g>
		</g>
		<g>
			<g>
				
					<path fill="none" stroke="#000000" stroke-width="2" stroke-linecap="round" stroke-linejoin="round" stroke-miterlimit="10" d="
					M9.9532833,38.5652847c-3.179935-0.184288-5.4986486-0.7193642-7.8119626-2.5816879
					c-0.6146201-0.4947968-0.8036356-1.351902-0.4976875-2.0792122c0.8710009-2.0705662,2.3948922-5.6298351,5.1661649-6.5838451
					c3.321147-1.1433468,3.3542185-1.4155712,3.3542185-2.7222519C8.9299116,24.235302,5.857914,24.9261265,4.795332,23.5093861
					c-0.9800107-1.3066807,0.187952-2.3817577,1.1433458-4.0289326c1.5789061-2.7222519,1.5923576-3.7686176,1.7422409-5.2267237
					c0.4137077-4.0244665,2.8046103-5.8757572,6.0871572-6.0967808c2.047184,0.1378431,3.7475643,0.9097757,4.8378181,2.4474916"/>
			</g>
		</g>
	</g>
</g>
<g id="male-1">
</g>
<g id="male">
</g>
<g id="read-f">
</g>
<g id="read-m">
</g>
<g id="message-f">
</g>
<g id="message-m">
</g>
<g id="chat-f">
</g>
<g id="chat-m">
</g>
<g id="think-f">
</g>
<g id="think-m">
</g>
<g id="comment-f">
</g>
<g id="comment-m">
</g>
<g id="unloack-rd">
</g>
<g id="user-rd">
</g>
<g id="favorite-rd">
</g>
<g id="reload-rd">
</g>
<g id="bookmark-rd">
</g>
<g id="success-rd">
</g>
<g id="dealete">
</g>
<g id="remove-user_1_">
</g>
<g id="add-user_1_">
</g>
<g id="user-round">
</g>
<g id="upload">
</g>
<g id="download">
</g>
<g id="move">
</g>
<g id="unview">
</g>
<g id="notify">
</g>
<g id="settings">
</g>
<g id="cloud">
</g>
<g id="favorite">
</g>
<g id="reload">
</g>
<g id="bookmark">
</g>
<g id="contact">
</g>
<g id="call">
</g>
<g id="vie">
</g>
<g id="mail">
</g>
<g id="date">
</g>
<g id="trash">
</g>
<g id="time">
</g>
<g id="star">
</g>
<g id="unlock">
</g>
<g id="lock-user">
</g>
<g id="reload-user">
</g>
<g id="refresh-user">
</g>
<g id="search-user">
</g>
<g id="edit-user">
</g>
<g id="success">
</g>
<g id="delete-user">
</g>
<g id="remove-user">
</g>
<g id="add-user">
</g>
<g id="user">
</g>
<g id="Layer_2">
</g>
<g id="block-user">
</g>
<g id="boy-1">
</g>
<g id="community">
</g>
<g id="love-people">
</g>
<g id="chart-5">
</g>
<g id="graph-top">
</g>
<g id="graph-node">
</g>
</svg>
