<?xml version="1.0" encoding="utf-8"?>
<!-- Generator: Adobe Illustrator 18.0.0, SVG Export Plug-In . SVG Version: 6.00 Build 0)  -->
<!DOCTYPE svg PUBLIC "-//W3C//DTD SVG 1.1//EN" "http://www.w3.org/Graphics/SVG/1.1/DTD/svg11.dtd">
<svg version="1.1" xmlns="http://www.w3.org/2000/svg" xmlns:xlink="http://www.w3.org/1999/xlink" x="0px" y="0px"
	 viewBox="0 0 48 48" enable-background="new 0 0 48 48" xml:space="preserve">
<g id="Layer_1">
	<g display="none">
	</g>
</g>
<g id="horizotal-bar">
</g>
<g id="verticle-bar">
</g>
<g id="hike">
</g>
<g id="node">
</g>
<g id="wave">
</g>
<g id="block">
</g>
<g id="piller">
</g>
<g id="graph_1_">
</g>
<g id="chart">
</g>
<g id="white-board">
</g>
<g id="statistics">
</g>
<g id="paraboal-s">
</g>
<g id="parabola">
</g>
<g id="graph-smooth">
</g>
<g id="graph-up">
</g>
<g id="graph-y">
</g>
<g id="graph-2">
</g>
<g id="graph">
</g>
<g id="part">
</g>
<g id="fill">
</g>
<g id="cross-2">
</g>
<g id="cross">
</g>
<g id="chart-7">
</g>
<g id="chart-6">
</g>
<g id="chart-4">
</g>
<g id="round-chart2">
</g>
<g id="round-chart">
</g>
<g id="community-3">
</g>
<g id="community_1_">
</g>
<g id="old-hairstylr">
</g>
<g id="girl-hair">
</g>
<g id="small-hair">
</g>
<g id="round-hair">
	<path fill="none" stroke="#000000" stroke-width="2" stroke-miterlimit="10" d="M35,12
		c0,6.5059757-5.3924427,14.1460819-11.0876503,14.1460819S13,18.6387787,13,12"/>
	<path fill="none" stroke="#000000" stroke-width="2" stroke-linecap="round" stroke-linejoin="round" stroke-miterlimit="10" d="
		M27.8904076,25c-1.6995163,2.7853184,0.8904076,6,0.8904076,6S42,33.9189911,42,41v3c0,1.1045685-0.8954315,2-2,2H8
		c-1.1045694,0-2-0.8954315-2-2v-3c0-7.0810089,13-10,13-10s2.6995163-3.2146816,1-6"/>
	<path fill="none" stroke="#000000" stroke-width="2" stroke-linecap="round" stroke-linejoin="round" stroke-miterlimit="10" d="
		M30,32c0,3.3137093-2.6862907,6-6,6s-6-2.6862907-6-6"/>
	<g>
		<path fill="none" stroke="#000000" stroke-width="2" stroke-linejoin="round" stroke-miterlimit="10" d="M23,1
			c-0.600769,0-1.1334229,0.2703857-1.5,0.6897583C21.1334229,1.2703857,20.600769,1,20,1c-1.1045532,0-2,0.8704529-2,1.9750671
			C18,2.992157,18.0045776,3,18.0045776,3c-0.0024414,0-0.0056152,0-0.0085449,0C17.3609009,2,16.4784546,1.9745789,15.5,1.9745789
			c-0.9550781,0-1.8189087,0.3974762-2.4504395,1.0177155C13.0326538,2.9919891,13.0169678,2.9936447,13,2.9936447
			c-1.6568604,0-3,1.3463173-3,3.0031776c0,0.6256104,0.1923828,1.2073383,0.5199585,1.6881123
			C10.1964722,8.2152081,10,8.8326406,10,9.4992056c0,1.9329834,1.5670166,3.5003977,3.5,3.5003977S17,11.432785,17,9.4998016
			c0-0.2749023-0.0392456-0.5391464-0.0991821-0.7957993c0.4128418-0.1807861,0.7839355-0.4376945,1.0952148-0.7548943
			C18.1588135,7.9824333,18.3273926,7.9999752,18.5,7.9999752c1.3807373,0,2.5-1.1193113,2.5-2.4999876
			c0-0.25-0.0478516-0.4865661-0.1161499-0.7143493C21.1202393,4.6683288,21.328064,4.5068936,21.5,4.3101773
			c0.3665771,0.4193726,0.899231,0.6898212,1.5,0.6898212c1.1045532,0,2-0.8954463,2-1.9999993C25,1.8953849,24.1045532,1,23,1z"/>
		<path fill="none" stroke="#000000" stroke-width="2" stroke-linejoin="round" stroke-miterlimit="10" d="M36,7
			c-0.0170898,0-0.0328369,0.0046997-0.0498657,0.0050049c-0.0397949-0.2787476-0.1035156-0.5487671-0.2049561-0.8022461
			C35.9069824,5.8340454,36,5.4284668,36,5c0-1.6568604-1.3431396-3-3-3c-0.8695068,0-1.6461182,0.3757324-2.1940308,0.9667969
			C30.383728,1.8212891,29.2921143,1,28,1c-1.6568604,0-3,1.3431396-3,3s1.3431396,3,3,3
			c0.3787231,0,0.7376099-0.0777588,1.071228-0.2058105C29.0245361,7.0221558,29,7.2582397,29,7.5
			c0,1.9329834,1.5670166,3.5,3.5,3.5c0.2271118,0,0.447937-0.0255127,0.6629639-0.0668335
			C33.5570679,12.130127,34.6710815,13,36,13c1.6568604,0,3-1.3431396,3-3S37.6568604,7,36,7z"/>
	</g>
</g>
<g id="girl-2">
</g>
<g id="boy">
</g>
<g id="girl">
</g>
<g id="men">
</g>
<g id="women">
</g>
<g id="male_1_">
</g>
<g id="male-female">
</g>
<g id="group-m">
</g>
<g id="group-f">
</g>
<g id="male-1">
</g>
<g id="male">
</g>
<g id="read-f">
</g>
<g id="read-m">
</g>
<g id="message-f">
</g>
<g id="message-m">
</g>
<g id="chat-f">
</g>
<g id="chat-m">
</g>
<g id="think-f">
</g>
<g id="think-m">
</g>
<g id="comment-f">
</g>
<g id="comment-m">
</g>
<g id="unloack-rd">
</g>
<g id="user-rd">
</g>
<g id="favorite-rd">
</g>
<g id="reload-rd">
</g>
<g id="bookmark-rd">
</g>
<g id="success-rd">
</g>
<g id="dealete">
</g>
<g id="remove-user_1_">
</g>
<g id="add-user_1_">
</g>
<g id="user-round">
</g>
<g id="upload">
</g>
<g id="download">
</g>
<g id="move">
</g>
<g id="unview">
</g>
<g id="notify">
</g>
<g id="settings">
</g>
<g id="cloud">
</g>
<g id="favorite">
</g>
<g id="reload">
</g>
<g id="bookmark">
</g>
<g id="contact">
</g>
<g id="call">
</g>
<g id="vie">
</g>
<g id="mail">
</g>
<g id="date">
</g>
<g id="trash">
</g>
<g id="time">
</g>
<g id="star">
</g>
<g id="unlock">
</g>
<g id="lock-user">
</g>
<g id="reload-user">
</g>
<g id="refresh-user">
</g>
<g id="search-user">
</g>
<g id="edit-user">
</g>
<g id="success">
</g>
<g id="delete-user">
</g>
<g id="remove-user">
</g>
<g id="add-user">
</g>
<g id="user">
</g>
<g id="Layer_2">
</g>
<g id="block-user">
</g>
<g id="boy-1">
</g>
<g id="community">
</g>
<g id="love-people">
</g>
<g id="chart-5">
</g>
<g id="graph-top">
</g>
<g id="graph-node">
</g>
</svg>
