<?xml version="1.0" encoding="UTF-8" standalone="no"?>
<svg
   xmlns:dc="http://purl.org/dc/elements/1.1/"
   xmlns:cc="http://creativecommons.org/ns#"
   xmlns:rdf="http://www.w3.org/1999/02/22-rdf-syntax-ns#"
   xmlns:svg="http://www.w3.org/2000/svg"
   xmlns="http://www.w3.org/2000/svg"
   xmlns:sodipodi="http://sodipodi.sourceforge.net/DTD/sodipodi-0.dtd"
   xmlns:inkscape="http://www.inkscape.org/namespaces/inkscape"
   viewBox="0 0 24 24"
   version="1.1"
   id="svg6"
   sodipodi:docname="audio-volume-high.svg"
   inkscape:version="0.92.3 (2405546, 2018-03-11)">
  <metadata
     id="metadata10">
    <rdf:RDF>
      <cc:Work
         rdf:about="">
        <dc:format>image/svg+xml</dc:format>
        <dc:type
           rdf:resource="http://purl.org/dc/dcmitype/StillImage" />
      </cc:Work>
    </rdf:RDF>
  </metadata>
  <sodipodi:namedview
     pagecolor="#ffffff"
     bordercolor="#666666"
     borderopacity="1"
     objecttolerance="10"
     gridtolerance="10"
     guidetolerance="10"
     inkscape:pageopacity="0"
     inkscape:pageshadow="2"
     inkscape:window-width="1600"
     inkscape:window-height="845"
     id="namedview8"
     showgrid="false"
     inkscape:zoom="3.4766083"
     inkscape:cx="-52.678942"
     inkscape:cy="-4.4506273"
     inkscape:window-x="0"
     inkscape:window-y="27"
     inkscape:window-maximized="1"
     inkscape:current-layer="svg6" />
  <defs
     id="defs3051">
    <style
       type="text/css"
       id="current-color-scheme">
      .ColorScheme-Text {
        color:#d3dae3;
      }
      </style>
  </defs>
  <path
     style="fill:currentColor;fill-opacity:1;stroke:none"
     d="M 11.988281 4 L 7 8.9902344 L 7 9 L 7 10 L 7 14 L 7 15 L 7 15.009766 L 11.988281 20 L 13 20 L 13 19.597656 L 13 4.4023438 L 13 4 L 11.988281 4 z M 14.865234 4.5371094 L 14.621094 5.5136719 A 7 7 0 0 1 19 12 A 7 7 0 0 1 14.619141 18.478516 L 14.863281 19.453125 A 8 8 0 0 0 20 12 A 8 8 0 0 0 14.865234 4.5371094 z M 15.324219 8.28125 L 14.785156 9.1425781 A 4 4 0 0 1 16 12 A 4 4 0 0 1 14.789062 14.861328 L 15.328125 15.724609 A 5 5 0 0 0 17 12 A 5 5 0 0 0 15.324219 8.28125 z M 4 9 L 4 10 L 4 14 L 4 15 L 6 15 L 6 14 L 6 10 L 6 9 L 4 9 z "
     class="ColorScheme-Text"
     id="path4"
     inkscape:label="VolumeUp" />
  <g
     id="g12576"
     style="display:inline">
    <symbol
       id="youtube">
	<path
   id="path12475"
   d="m 291.1,80.5 h -8.8 v -5.1 c -3.4,3.8 -6.2,5.8 -9.3,5.8 -2.7,0 -4.6,-1.3 -5.5,-3.6 -0.6,-1.4 -1,-3.6 -1,-6.8 V 33.5 h 8.8 v 34.9 3.3 c 0.2,1.3 0.8,1.8 1.9,1.8 1.7,0 3.2,-1.5 5.1,-4.1 V 33.5 h 8.8 c 0,0 0,47 0,47 z"
   inkscape:connector-curvature="0" />

	<path
   id="path12477"
   d="m 251.1,66.5 c 0.5,4.7 -1,7 -3.7,7 -2.7,0 -4.2,-2.3 -3.7,-7 V 47.9 c -0.5,-4.7 1,-6.8 3.7,-6.8 2.7,0 4.2,2.2 3.7,6.8 0,0 0,18.6 0,18.6 z m 8.8,-17.7 c 0,-5 -1,-8.8 -2.8,-11.2 -2.4,-3.2 -6,-4.5 -9.8,-4.5 -4.2,0 -7.4,1.3 -9.8,4.5 -1.8,2.4 -2.8,6.2 -2.8,11.2 v 16.7 c 0,5 0.9,8.4 2.7,10.8 2.4,3.2 6.2,4.9 9.9,4.9 3.7,0 7.6,-1.7 10,-4.9 1.8,-2.4 2.6,-5.8 2.6,-10.8 0,0.1 0,-16.7 0,-16.7 z"
   inkscape:connector-curvature="0" />

	<path
   id="path12479"
   d="m 225,54.9 v 25.6 h -9.3 V 54.9 c 0,0 -9.6,-31.4 -11.6,-37.2 h 9.8 l 6.5,24.5 6.5,-24.5 h 9.8 c 0,0 -11.7,37.2 -11.7,37.2 z"
   inkscape:connector-curvature="0" />

	<g
   id="g12487">
		<path
   id="path12481"
   d="m 416.6,46.5 c 0,-4.3 -1.1,-5.6 -3.9,-5.6 -2.8,0 -4,1.2 -4,5.5 v 5.1 h 7.9 z"
   inkscape:connector-curvature="0" />

		<path
   id="path12483"
   d="m 382,41 c -1.4,0 -3,0.7 -4.4,2.1 v 28.2 c 1.4,1.4 3,2.1 4.4,2.1 2.4,0 3.5,-1.8 3.5,-6.4 V 47 c 0,-4.7 -1.1,-6 -3.5,-6 z"
   inkscape:connector-curvature="0" />

		<path
   id="path12485"
   d="m 435.7,22.7 v 0 c 0,0 -1.4,-9.5 -5.5,-13.7 C 424.9,3.5 419,3.5 416.3,3.1 396.9,1.7 367.7,1.7 367.7,1.7 h -0.1 c 0,0 -29.2,0 -48.6,1.4 -2.7,0.3 -8.6,0.4 -13.9,5.9 -4.2,4.2 -5.5,13.7 -5.5,13.7 0,0 -1.4,11.2 -1.4,22.4 v 10.5 c 0,11.2 1.4,22.4 1.4,22.4 0,0 1.4,9.5 5.5,13.7 5.3,5.5 12.2,5.3 15.3,5.9 11.1,1.1 47.2,1.4 47.2,1.4 0,0 29.2,0 48.6,-1.4 2.7,-0.3 8.6,-0.3 13.9,-5.9 4.2,-4.2 5.5,-13.7 5.5,-13.7 0,0 1.4,-11.2 1.4,-22.4 V 45.1 c 0.1,-11.2 -1.3,-22.4 -1.3,-22.4 z m -107,57.8 h -9.3 V 27 h -9.8 v -8.8 h 29.3 V 27 h -10.2 z m 33.5,0 h -8.8 v -5.1 c -3.4,3.8 -6.2,5.8 -9.3,5.8 -2.7,0 -4.6,-1.3 -5.5,-3.6 -0.6,-1.4 -1,-3.6 -1,-6.8 V 33.9 h 8.8 v 34.4 3.3 c 0.2,1.3 0.8,1.8 1.9,1.8 1.7,0 3.2,-1.5 5.1,-4.1 V 33.9 h 8.8 z m 32.1,-14 c 0,4.3 -0.4,7.3 -0.9,9.3 -1.1,3.5 -3.6,5.3 -6.9,5.3 -3,0 -6.1,-1.8 -8.9,-5.3 v 4.7 h -8.4 V 18.1 h 8.4 v 20.3 c 2.7,-3.3 5.8,-5.3 8.9,-5.3 3.4,0 5.6,1.9 6.7,5.4 0.6,1.9 1.1,4.9 1.1,9.3 z m 18.5,6.9 c 2.1,0 3.3,-1.1 3.8,-3.4 0.1,-0.5 0.1,-2.5 0.1,-5.8 h 8.8 v 1.3 c 0,2.7 -0.2,4.6 -0.3,5.5 -0.3,1.9 -0.9,3.6 -2,5 -2.3,3.4 -5.8,5 -10.2,5 -4.4,0 -7.8,-1.6 -10.2,-4.8 -1.8,-2.3 -2.9,-5.8 -2.9,-10.7 V 49.3 c 0,-5 1,-8.8 2.8,-11.2 2.4,-3.2 5.8,-4.9 10.1,-4.9 4.2,0 7.6,1.7 9.9,4.9 1.8,2.4 2.7,6 2.7,11 v 9.5 H 408.6 V 67 c 0.1,4.2 1.3,6.4 4.2,6.4 z"
   inkscape:connector-curvature="0" />

	</g>

</symbol>
    <symbol
       id="netflix">
	<path
   id="path12490"
   d="m 127.5,92.1 c -5.3,0.9 -10.8,1.2 -16.4,2 L 93.9,43.9 v 52.4 c -5.3,0.6 -10.2,1.3 -15.3,2.1 v -96 h 14.3 l 19.5,54.5 V 2.3 h 15.1 z M 157,37.5 c 5.8,0 14.7,-0.3 20.1,-0.3 v 15 c -6.7,0 -14.4,0 -20.1,0.3 v 22.3 c 8.8,-0.6 17.6,-1.3 26.5,-1.6 V 87.6 L 142,90.9 V 2.3 h 41.5 v 15 H 157 c 0,0 0,20.2 0,20.2 z m 82.3,-20.2 h -15.6 v 69 c -5.1,0 -10.1,0 -15,0.2 V 17.3 h -15.6 v -15 h 46.1 c 0.1,0 0.1,15 0.1,15 z m 24.4,19.2 h 20.5 v 15 h -20.5 v 34 H 249 V 2.3 h 41.9 v 15 h -27.2 c 0,0 0,19.2 0,19.2 z m 51.6,35.9 c 8.5,0.2 17.2,0.8 25.5,1.3 V 88.5 C 327.4,87.7 314,86.8 300.3,86.5 V 2.3 h 15 z m 38.1,17.1 c 4.8,0.3 9.8,0.6 14.7,1.1 V 2.3 h -14.7 z m 80.5,-87.2 -19,45.7 19,50.3 C 428.3,97.6 422.6,96.5 417,95.6 l -10.8,-27.7 -11,25.5 c -5.4,-0.9 -10.7,-1.2 -16.1,-2 L 398.4,47.4 381,2.3 h 16.1 l 9.8,25.2 10.5,-25.2 z"
   inkscape:connector-curvature="0" />

</symbol>
    <symbol
       id="appletv">
	<path
   id="path12493"
   d="m 432.5,26.7 c -3.4,8.7 -6.9,17.3 -10.3,26.1 -5.2,13.5 -10.3,26.9 -15.3,40.5 -0.9,2.4 -2.1,3.4 -4.7,3.2 -3.2,-0.3 -6.4,0.1 -9.6,-0.1 -1,-0.1 -2.5,-0.9 -2.8,-1.7 -8.4,-22.5 -16.7,-45.1 -24.9,-67.6 -0.1,-0.3 -0.1,-0.6 -0.1,-1.4 5.2,0 10.2,-0.1 15.2,0.1 0.8,0 1.9,1.5 2.2,2.5 5.4,17 10.7,34 16,51.1 0.1,0.3 0.3,0.5 0.6,1 2.6,-8.3 5.1,-16.3 7.6,-24.3 2.9,-9.3 6,-18.5 8.8,-27.8 0.6,-2.1 1.6,-2.7 3.6,-2.6 4.6,0.1 9.2,-0.1 13.7,-0.2 0,0.2 0,0.7 0,1.2 z"
   inkscape:connector-curvature="0" />

	<path
   id="path12495"
   d="M 299.4,34.8 C 284,46.3 287,65.1 302,72.6 c -2.9,8.5 -7.4,16.2 -14.2,22.2 -3.6,3.3 -8.2,3.7 -12.6,1.6 -7,-3.3 -13.9,-3.2 -20.9,0 -4.5,2.1 -8.8,1.6 -12.5,-1.7 C 229,83.2 220.7,60.3 225.4,44 c 3.3,-11.4 12.7,-18.7 23.7,-18.1 2,0.1 4.2,0.5 6,1.4 5.8,3 11.1,2.5 17.1,0.1 3.7,-1.5 8.3,-1.7 12.4,-1.4 6.4,0.5 10.6,3.4 14.8,8.8 z"
   inkscape:connector-curvature="0" />

	<path
   id="path12497"
   d="m 341.5,8 c 0,5.9 0,11.5 0,17.5 5.6,0 10.9,0 16.4,0 0,4 0,7.5 0,11.4 -5.3,0 -10.7,0 -16.2,0 -0.1,1.5 -0.2,2.6 -0.2,3.7 0,10.1 0,20.2 0,30.3 0,2 0.2,4.1 0.6,6.1 1.1,5.5 3.9,7.6 9.3,7.5 2,0 4.1,-0.2 6.4,-0.3 0,3.8 0,7.6 0,11.8 -7.9,1.9 -16,3.2 -23.5,-1.7 -6.8,-4.4 -7.7,-11.7 -7.9,-18.8 -0.3,-11.5 -0.1,-23 -0.1,-34.5 0,-1.2 0,-2.5 0,-4 -3.8,0 -7.2,0 -10.8,0 0,-3.9 0,-7.5 0,-11.6 3.5,0 7,0 10.8,0 0,-3.9 -0.1,-7.3 0.1,-10.7 0.1,-0.9 0.9,-2.4 1.7,-2.7 4.3,-1.3 8.7,-2.5 13.4,-4 z"
   inkscape:connector-curvature="0" />

	<path
   id="path12499"
   d="m 281.8,2.7 c 2,10.6 -7.7,22.1 -18.4,21.7 -2.5,-9.3 7.2,-20.8 18.4,-21.7 z"
   inkscape:connector-curvature="0" />

</symbol>
    <symbol
       id="amazon">
	<path
   id="path12502"
   d="M 233.2,97.4 C 211.6,95.4 192,88 175.3,75.5 c -4.7,-3.5 -9.2,-7.4 -9.5,-8.1 -0.3,-0.8 0.4,-1.8 1.2,-1.8 0.4,0 2.6,1 4.9,2.3 14.7,8.1 32.6,14.1 50.1,16.7 14.1,2.1 29.9,2.2 43.6,0.2 11.5,-1.7 24.1,-5.1 34.3,-9.2 2,-0.8 4.1,-1.5 4.7,-1.5 1.8,0 2.8,2.1 1.8,3.5 -0.2,0.4 -1.8,1.6 -3.6,2.7 -12.6,8.5 -28.1,14.1 -46.6,16.6 -4,0.6 -18.6,0.9 -23,0.5 z"
   inkscape:connector-curvature="0" />

	<path
   id="path12504"
   d="m 308.1,90.8 c -0.1,-0.3 0.1,-1.1 0.4,-1.9 1.8,-4.5 4.1,-12 4.4,-14.1 0.6,-4.3 -0.1,-5.3 -4,-5.9 -2.4,-0.4 -6.8,-0.3 -13.1,0.4 -2.9,0.3 -3.9,0.3 -4.2,0 -1,-1 1.8,-3.2 6,-4.8 4.9,-1.9 13.1,-2.5 18.2,-1.5 4.1,0.9 4.6,1.4 4.6,5 0,5.3 -2.3,12.4 -5.6,17.4 -2.8,4.4 -6,7 -6.7,5.4 z"
   inkscape:connector-curvature="0" />

	<path
   id="path12506"
   d="M 390.4,28.6 C 389,21.8 386.2,16.5 381.6,11.9 373.9,4.2 362.8,1.1 352.2,3.8 c -10.9,2.8 -19.3,11.4 -22.3,22.6 -0.7,2.6 -0.8,3.5 -0.8,7.6 0,4.1 0.1,5.1 0.8,7.7 3.2,11.9 12.5,20.8 24.3,23 1.4,0.3 3.6,0.4 6.7,0.3 3.8,-0.1 5,-0.2 7.3,-0.9 11.4,-3.4 19.7,-12.3 22.1,-23.9 0.6,-2.7 0.6,-9.1 0.1,-11.6 z m -14.3,5.7 c -0.1,0.7 -1.5,1.4 -12.4,6.8 -6.7,3.3 -12.4,6 -12.5,6 -0.1,0 -0.4,-0.2 -0.7,-0.5 -0.4,-0.4 -0.5,-2 -0.5,-12.4 V 22.3 l 0.7,-0.3 c 0.6,-0.3 2.4,0.5 12.6,5.3 6.6,3.1 12.1,5.8 12.4,6 0.3,0.1 0.5,0.6 0.4,1 z"
   inkscape:connector-curvature="0" />

	<path
   id="path12508"
   d="m 146.3,9 c -6.8,-0.1 -12.5,2 -16.1,6 -1.7,1.9 -3.5,5.4 -3.7,7.5 -0.2,1.4 -0.1,1.6 0.5,2 0.4,0.3 2.6,0.7 5.2,0.9 5.1,0.6 5.4,0.5 5.9,-1.6 1,-3.6 4.8,-5.8 8.5,-4.9 3.2,0.7 4.3,2.4 4.7,6.9 0.2,3.2 0.5,3 -3.4,3.3 -3.5,0.3 -9.1,1.3 -11.4,2 -7.6,2.5 -11.8,8.1 -11.8,15.8 0,7 3.1,11.7 9,13.6 2.2,0.7 7,0.8 9.7,0.1 2.4,-0.6 5.1,-2 7.1,-3.7 0.9,-0.7 1.8,-1.5 2,-1.8 0.4,-0.3 0.7,-0.1 2,1.7 1.8,2.4 3.6,4 4.6,4 0.7,0 6.8,-5 8.2,-6.7 0.7,-0.8 0.5,-1.4 -0.8,-3.3 -0.5,-0.8 -1.3,-2 -1.7,-2.8 -0.7,-1.4 -0.7,-1.5 -0.9,-14.2 -0.1,-8.3 -0.3,-13.4 -0.5,-14.2 -0.6,-2.2 -2.1,-4.8 -3.8,-6.3 -2.9,-2.6 -6.8,-4 -12.1,-4.2 C 147.2,9 146.8,9 146.3,9 Z m 5.2,27.1 V 37 c 0,3.8 -0.6,8.1 -1.3,9.6 -0.9,2 -2.4,3.7 -3.9,4.5 -1.7,0.8 -4.4,0.8 -5.7,-0.1 -1.4,-1 -2.2,-2.7 -2.4,-5.2 -0.2,-3 0.4,-4.6 2.2,-6.5 1.9,-1.9 4.2,-2.7 8.4,-3 0,0 2.7,-0.2 2.7,-0.2 z"
   inkscape:connector-curvature="0" />

	<path
   id="path12510"
   d="m 265.3,9.1 c -2.7,0 -5.7,0.2 -7.3,0.6 -2.9,0.7 -6.6,2.5 -8.5,4.1 -2.4,2.1 -4.3,5.6 -4.9,8.8 -0.4,1.9 0.1,2.2 5.4,2.8 3.1,0.4 5,0.4 5.3,0.3 0.3,-0.2 0.7,-0.8 0.9,-1.4 1.2,-3.6 3.4,-5.4 7.1,-5.4 2.2,0 3.1,0.3 4.3,1.4 1.3,1.1 1.7,2.3 1.8,5.4 0.2,3.5 0.9,3 -5.7,3.7 -8.1,0.9 -12.4,2.4 -15.9,5.7 -7.1,6.5 -6.5,19.5 1.1,24.1 0.9,0.5 2.4,1.2 3.3,1.4 2.5,0.7 8.6,0.5 11.1,-0.4 2.1,-0.8 4.2,-2.1 6.4,-4.1 0.9,-0.8 1.6,-1.4 1.7,-1.3 0,0.1 0.4,0.6 0.8,1.2 0.4,0.6 1.5,1.9 2.5,3 2.6,2.7 2.6,2.7 7.4,-1.5 2.1,-1.9 3.9,-3.7 4,-4 0.1,-0.3 -0.4,-1.3 -1,-2.2 -0.6,-0.9 -1.5,-2.4 -1.9,-3.3 l -0.8,-1.7 -0.2,-12.9 C 282,19.9 282,19.5 280.5,16.7 c -1.5,-3 -5.7,-5.9 -10.1,-7 -1,-0.5 -3,-0.6 -5.1,-0.6 z m 2.8,27.1 h 1.5 v 3 c 0,5.5 -1.4,9.4 -4.2,11.4 -1.1,0.8 -1.6,0.9 -3.3,1 -2.9,0.1 -4.6,-1 -5.4,-3.7 -1.2,-4.2 0.2,-8.1 3.7,-10 1.7,-0.9 5.3,-1.7 7.7,-1.7 z"
   inkscape:connector-curvature="0" />

	<path
   id="path12512"
   d="m 175,59.9 c -0.5,-0.5 -0.5,-2.6 -0.5,-24.5 0,-21.4 0.1,-24 0.5,-24.4 0.7,-0.7 10.2,-0.7 10.9,0 0.4,0.4 0.5,1.2 0.5,3.9 v 3.4 l 0.9,-1.8 c 2.4,-5.1 7.5,-7.7 13.1,-6.8 3.8,0.6 6.8,2.8 8.7,6.4 l 1,1.8 0.9,-1.6 c 2,-3.6 5.4,-6 9.5,-6.6 5.8,-0.9 12,2.3 13.8,7.2 1.1,2.9 1.2,5.6 1.1,24.5 -0.1,17.7 -0.1,18.3 -0.7,18.7 -0.8,0.6 -10.4,0.6 -11.2,0 -0.6,-0.4 -0.6,-1 -0.7,-17.9 -0.1,-16.9 -0.2,-17.5 -0.8,-18.6 -0.9,-1.5 -2.1,-2.1 -4.3,-2.2 -2.1,0 -3.2,0.5 -4.6,2 -1.7,1.9 -1.7,2 -1.9,19.8 C 211,59 211,59.6 210.4,60 c -0.5,0.3 -1.7,0.4 -5.6,0.4 -2.8,0 -5.2,-0.1 -5.5,-0.3 -0.4,-0.2 -0.5,-2.6 -0.6,-17 -0.2,-18.7 -0.2,-19 -2.2,-20.8 -2,-1.7 -5.4,-1.6 -7.3,0.4 -2,2 -2,2.4 -2.2,20.5 -0.1,14.3 -0.2,16.3 -0.6,16.7 -0.4,0.5 -1.1,0.5 -5.7,0.5 -4.7,0 -5.3,0 -5.7,-0.5 z"
   inkscape:connector-curvature="0" />

	<path
   id="path12514"
   d="m 396.3,60.2 c -1,-0.6 -1,-2 -1,-25 0,-17.6 0.1,-23.2 0.4,-23.8 0.4,-0.7 0.4,-0.7 5.5,-0.8 4.5,-0.1 5.2,0 5.6,0.4 0.3,0.4 0.4,1.5 0.4,4.1 0,2 0,3.6 0,3.6 0,0 0.5,-0.9 1.1,-2 2.1,-4.2 5.1,-6.4 9.2,-7.1 5.5,-0.8 10.7,1.6 13,6 1.8,3.6 1.8,3.3 1.9,24.4 0.1,17.9 0.1,19.4 -0.4,19.9 -0.5,0.5 -1,0.6 -5.7,0.6 -4.7,0 -5.3,-0.1 -5.7,-0.6 -0.5,-0.5 -0.5,-2.1 -0.5,-16.1 0,-9.8 -0.1,-16.3 -0.3,-17.4 -0.7,-3.8 -2.6,-5.5 -5.7,-5.2 -2.8,0.3 -4.8,2.6 -5.6,6.5 -0.3,1.6 -0.4,5.1 -0.4,16.8 0,14.4 0,14.8 -0.6,15.4 -0.6,0.6 -1,0.6 -5.7,0.6 -2.9,-0.1 -5.3,-0.2 -5.5,-0.3 z"
   inkscape:connector-curvature="0" />

	<path
   id="path12516"
   d="m 292.1,58.8 c -0.5,-0.4 -0.6,-0.8 -0.6,-5.4 0,-3.5 0.1,-5.2 0.4,-5.9 0.2,-0.5 4.4,-6.8 9.3,-13.9 l 8.9,-12.9 -8.1,-0.2 c -7.5,-0.1 -8.1,-0.2 -8.5,-0.7 -0.3,-0.4 -0.4,-1.6 -0.4,-4.5 0,-3.5 0.1,-3.9 0.6,-4.5 0.6,-0.6 1,-0.6 15.9,-0.6 14.6,0 15.3,0 16,0.6 0.7,0.6 0.7,0.8 0.7,4.2 v 3.6 l -1.2,1.8 c -0.7,1 -4.6,6.7 -8.7,12.6 -4.1,6 -7.5,10.9 -7.5,10.9 0,0 1.6,0.2 3.6,0.3 4.1,0.2 8.3,1.2 11.3,2.6 3.2,1.5 3.3,1.7 3.3,7 0,3.9 -0.1,4.5 -0.6,5 -0.7,0.7 -1,0.6 -2.7,-0.2 -8.1,-4.1 -19.7,-4.2 -28.1,-0.4 -2.6,1.2 -2.7,1.2 -3.6,0.6 z"
   inkscape:connector-curvature="0" />

</symbol>
    <symbol
       id="spotify">
	<path
   id="path12519"
   d="M 177.2,2.6 C 203.7,2.6 225,24 224.9,50.5 224.8,77.4 202.6,98.4 176.4,97.9 150.9,97.5 129.6,76.8 129.5,50.2 129.5,24 150.9,2.6 177.2,2.6 Z m -8.8,25.2 c -2,0.1 -5.9,0.4 -9.8,0.8 -3.8,0.4 -7.5,1.2 -11.1,2.3 -1.8,0.6 -3.1,2.1 -3.2,3.9 -0.2,3.2 2.6,5.4 5.8,4.6 3,-0.7 6.1,-1.5 9.1,-1.9 6.9,-1 13.8,-1 20.7,-0.2 9.1,1 17.8,3.1 25.7,7.7 1.5,0.9 3.1,0.7 4.6,-0.3 2.6,-1.8 2.5,-5.7 -0.2,-7.4 -2.9,-1.8 -6,-3.2 -9.2,-4.4 -9.9,-3.6 -20.1,-4.9 -32.4,-5.1 z m -0.8,16.4 c -1.7,0.1 -5,0.3 -8.3,0.8 -3.1,0.5 -6.1,1.2 -9.1,2 -2.4,0.6 -3.4,3.2 -2.2,5.3 0.9,1.6 2.6,2.3 4.4,1.7 3.3,-1 6.6,-1.6 10,-2 5.2,-0.5 10.4,-0.5 15.7,0.2 7.7,1 15,3.2 21.8,7.3 1.9,1.1 4.1,0.6 5.2,-1.2 1.1,-1.8 0.5,-4 -1.4,-5.1 -1.6,-1 -3.3,-1.9 -5,-2.7 -9.5,-4.3 -19.3,-6.1 -31.1,-6.3 z m 2.2,15.8 c -1.3,0 -2.6,-0.1 -3.9,0 -4.8,0.2 -9.5,1 -14.1,2.1 -1.1,0.2 -1.8,0.9 -2.2,1.9 -0.4,1.1 -0.2,2.1 0.6,3 0.9,0.9 1.9,1.1 3.1,0.8 6.3,-1.4 12.7,-2.2 19.2,-1.9 8,0.4 15.5,2.3 22.4,6.5 1.5,0.9 3.3,0.5 4.2,-1 0.9,-1.5 0.4,-3.2 -1.1,-4.1 -1.5,-0.8 -2.9,-1.7 -4.4,-2.4 C 186,61.3 178.1,59.8 169.8,60 Z"
   inkscape:connector-curvature="0" />

	<path
   id="path12521"
   d="m 397.8,46.6 c 0,0.4 0,0.6 0,0.9 0,7.9 0,15.9 0,23.8 0,1.1 0,1.1 -1.1,1.1 -2.1,0 -4.2,0 -6.4,0 -0.9,0 -1,-0.1 -1,-1 0,-7.9 0,-15.9 0,-23.8 0,-0.3 0,-0.6 0,-1 -1.1,0 -2.1,0 -3.2,0 -0.7,0 -0.9,-0.2 -0.9,-0.9 0,-1.9 0,-3.8 0,-5.7 0,-0.8 0.1,-0.9 1,-0.9 1,0 1.9,0 2.9,0 0,0 0.1,0 0.2,-0.1 0.1,-1.1 0,-2.2 0.2,-3.3 0.2,-1.4 0.5,-2.8 1,-4.1 1.3,-3.1 3.9,-4.6 7.1,-5 2.7,-0.4 5.4,-0.1 8,0.6 0.5,0.1 0.7,0.4 0.7,1 0,1.8 0,3.6 0,5.4 0,1.1 -0.1,1.1 -1.2,0.9 -1.3,-0.3 -2.6,-0.6 -4,-0.6 -1.8,-0.1 -3,0.9 -3.3,2.7 -0.2,0.8 -0.1,1.7 -0.2,2.6 0.3,0 0.6,0 0.8,0 3.7,0 7.4,0 11.1,0 0.8,0 1.2,0.2 1.4,1 2.7,7 5.3,14 8,21 0.1,0.2 0.2,0.4 0.3,0.8 0.6,-1.7 1.2,-3.3 1.7,-4.9 2,-5.7 4,-11.4 6,-17.1 0.2,-0.6 0.5,-0.7 1.1,-0.7 2.3,0 4.6,0 6.8,0 1,0 1.1,0.2 0.8,1.1 -3.4,8.8 -6.8,17.6 -10.2,26.4 -1.2,3.2 -2.5,6.3 -3.9,9.5 -0.8,1.8 -2,3.4 -3.6,4.5 -2.2,1.6 -4.8,1.8 -7.4,1.6 -2.2,-0.1 -4.2,-0.8 -6.1,-1.8 -0.7,-0.4 -0.8,-0.5 -0.5,-1.3 0.7,-1.6 1.5,-3.2 2.2,-4.8 0.3,-0.7 0.5,-0.7 1.2,-0.4 1,0.4 2,0.8 3.1,1 2,0.4 3.4,-0.6 4.3,-2.3 0.3,-0.5 0.3,-1 0.1,-1.6 -3.3,-8 -6.7,-15.9 -10,-23.9 -0.2,-0.4 -0.4,-0.6 -0.9,-0.6 -1.9,-0.1 -4,-0.1 -6.1,-0.1 z"
   inkscape:connector-curvature="0" />

	<path
   id="path12523"
   d="m 284.6,43.4 c 0.5,-0.5 0.9,-0.9 1.3,-1.3 4.6,-4.1 9.8,-4.5 15.2,-2.2 3.8,1.6 6.5,4.5 7.9,8.3 2.1,5.6 2,11.2 -0.6,16.6 -3.4,6.9 -11.7,10.1 -18.7,7.3 -1.6,-0.6 -3,-1.6 -4.3,-2.8 -0.2,-0.2 -0.4,-0.4 -0.6,-0.6 0,0 -0.1,0 -0.2,0 0,0.2 0,0.5 0,0.7 0,3.9 0,7.9 0,11.8 0,0.9 -0.1,1 -1,1 -2.2,0 -4.4,0 -6.6,0 -0.8,0 -0.9,-0.1 -0.9,-0.9 0,-13.7 0,-27.5 0,-41.2 0,-0.8 0.1,-0.9 0.9,-0.9 2.2,0 4.5,0 6.7,0 0.7,0 0.9,0.2 0.9,0.9 0,1 0,2.1 0,3.3 z m -0.1,12.4 c 0,1.8 0.4,3.6 1.3,5.2 1.8,3.1 4.4,4.8 8.1,4.6 3.5,-0.2 5.9,-2 7.3,-5.2 1.1,-2.7 1.2,-5.4 0.4,-8.1 -1.9,-6.3 -9.3,-8.3 -14,-3.9 -2.3,2 -3.1,4.6 -3.1,7.4 z"
   inkscape:connector-curvature="0" />

	<path
   id="path12525"
   d="m 257.8,73.1 c -7,-0.1 -12.9,-2.3 -18,-6.6 -0.8,-0.7 -0.8,-0.8 -0.1,-1.5 1.3,-1.5 2.5,-3 3.8,-4.5 0.7,-0.8 0.8,-0.8 1.6,-0.1 2.6,2.2 5.5,4 8.9,4.7 2.3,0.5 4.6,0.6 6.9,-0.1 0.9,-0.3 1.7,-0.7 2.4,-1.3 1.8,-1.4 2.1,-5.1 -0.5,-6.6 C 261,56 259,55.5 257,54.9 c -2.8,-0.8 -5.5,-1.6 -8.3,-2.5 -1.7,-0.6 -3.3,-1.6 -4.6,-2.8 -2.3,-2.2 -3.2,-4.9 -3.3,-8 -0.1,-6.3 3.7,-11.3 10.1,-12.7 7.6,-1.7 14.5,-0.1 20.6,4.7 0.5,0.4 0.5,0.7 0.1,1.2 -1.2,1.7 -2.5,3.4 -3.7,5.2 -0.4,0.5 -0.7,0.6 -1.2,0.2 -2.4,-1.8 -5.1,-3.2 -8.1,-3.8 -2.3,-0.4 -4.7,-0.5 -6.9,0.6 -1.9,1 -2.7,2.7 -2.3,4.8 0.2,1.2 0.9,1.9 1.9,2.5 1.8,1.1 3.9,1.6 5.9,2.2 2.4,0.7 4.9,1.4 7.3,2.2 1.1,0.4 2.2,1 3.2,1.6 4,2.3 5.6,5.9 5.4,10.4 -0.3,6.4 -4.5,10.7 -10.8,12.1 -0.8,0.2 -1.6,0.3 -2.4,0.4 -0.6,-0.2 -1.5,-0.2 -2.1,-0.1 z"
   inkscape:connector-curvature="0" />

	<path
   id="path12527"
   d="m 330.4,73.3 c -8.3,-0.1 -15.3,-5.5 -17.1,-13.3 -2.4,-9.8 4.1,-19.6 14.1,-21.2 7.8,-1.3 15.1,2.1 18.7,8.7 5.4,9.9 0.2,22.8 -11.9,25.3 -1.2,0.3 -2.5,0.3 -3.8,0.5 z M 339.7,56 c 0,-1.6 -0.3,-3.1 -0.9,-4.4 -2.7,-6.1 -10.9,-7.5 -15.2,-2.5 -2.3,2.6 -2.8,5.7 -2.2,9 1.1,5.8 7,9.1 12.4,7 3.7,-1.4 5.9,-4.9 5.9,-9.1 z"
   inkscape:connector-curvature="0" />

	<path
   id="path12529"
   d="m 361.3,39.2 c 2.5,0 4.8,0 7.1,0 1.5,0 1.5,0 1.5,1.5 0,1.7 0,3.4 0,5.1 0,0.6 -0.2,0.8 -0.8,0.8 -2.3,0 -4.6,0 -7,0 -0.2,0 -0.5,0 -0.8,0 0,0.3 0,0.5 0,0.8 0,4.8 0,9.6 0,14.3 0,0.5 0,0.9 0.1,1.4 0.3,1.4 1.3,2.2 2.8,2.2 1.6,0.1 3.1,-0.2 4.5,-0.9 0.8,-0.4 1.1,-0.2 1.1,0.7 0,1.8 0,3.6 0,5.3 0,0.3 -0.2,0.8 -0.5,0.9 -3.6,1.9 -7.5,2.2 -11.3,0.8 -2.9,-1 -4.4,-3.3 -4.9,-6.3 -0.2,-1 -0.3,-2 -0.3,-3.1 0,-5.1 0,-10.2 0,-15.4 0,-0.3 0,-0.5 0,-0.9 -1.1,0 -2.1,0 -3.2,0 -0.8,0 -0.9,-0.1 -0.9,-0.9 0,-1.9 0,-3.7 0,-5.6 0,-0.8 0.1,-0.9 0.9,-0.9 1,0 2,0 2.9,0 0,0 0.1,0 0.2,-0.1 0,-0.2 0,-0.5 0,-0.7 0,-2.4 0,-4.8 0,-7.2 0,-0.8 0.1,-0.9 0.9,-0.9 2.2,0 4.4,0 6.6,0 0.8,0 0.9,0.1 0.9,0.9 0,2.4 0,4.7 0,7.1 0.2,0.5 0.2,0.8 0.2,1.1 z"
   inkscape:connector-curvature="0" />

	<path
   id="path12531"
   d="m 381.8,55.8 c 0,5.2 0,10.4 0,15.6 0,1 0,1 -1,1 -2.1,0 -4.2,0 -6.3,0 -1.1,0 -1.1,0 -1.1,-1.1 0,-9.7 0,-19.4 0,-29.1 0,-0.8 0,-1.5 0,-2.3 0,-0.6 0.2,-0.8 0.8,-0.8 2.3,0 4.6,0 6.9,0 0.7,0 0.8,0.4 0.8,1 -0.1,5.3 -0.1,10.5 -0.1,15.7 z"
   inkscape:connector-curvature="0" />

	<path
   id="path12533"
   d="m 377.6,24.6 c 3,0 5.3,2.3 5.3,5.3 0,3 -2.3,5.3 -5.3,5.3 -3,0 -5.3,-2.3 -5.3,-5.3 0,-3 2.4,-5.3 5.3,-5.3 z"
   inkscape:connector-curvature="0" />

</symbol>
  </g>
</svg>
